<?xml version="1.0" encoding="UTF-8" standalone="no" ?>
<svg xmlns="http://www.w3.org/2000/svg" width="126.608px" height="42.048px" viewBox="0 -1342 6995.3 2323" xmlns:xlink="http://www.w3.org/1999/xlink" style=""><defs><path id="MJX-21-NCM-I-1D448" d="M642 680C623 680 559 683 540 683C525 683 518 675 518 659C518 650 525 645 539 644C582 644 603 631 603 605C603 599 602 592 600 585L511 232C496 175 467 126 424 84C377 39 325 17 269 17C195 17 152 67 152 141L153 150C153 169 156 191 163 217L259 602C264 623 273 636 286 641C292 643 309 644 338 644C364 644 375 644 375 668C375 678 369 683 358 683L231 680L104 683C88 683 81 674 81 659C81 652 84 647 89 646C99 645 107 644 112 644C143 643 161 641 166 640C171 639 173 636 173 631C173 629 172 622 169 611L74 230C69 211 67 192 67 172C67 57 150-22 265-22C330-22 390 3 445 54C498 102 532 158 548 223L636 574C649 625 677 643 739 644C753 645 760 653 760 668L760 672C757 679 752 683 743 683C724 683 661 680 642 680Z"/><path id="MJX-21-NCM-N-2061" d=""/><path id="MJX-21-NCM-N-28" d="M318-248C327-248 332-243 332-234C332-231 330-227 327-223C275-183 233-117 202-26C175 53 161 131 161 208L161 292C161 369 175 447 202 526C233 617 275 683 327 723C330 726 332 730 332 734C332 743 327 748 318 748C317 748 314 747 311 745C251 699 201 631 160 540C121 453 101 371 101 292L101 208C101 129 121 47 160-40C201-131 251-199 311-245C314-247 317-248 318-248Z"/><path id="MJX-21-NCM-I-1D441" d="M864 683C845 683 783 680 764 680C745 680 682 683 663 683C648 683 641 675 641 659C641 650 648 645 663 644C705 644 726 631 726 605C726 599 725 592 724 585L616 157L401 662C393 681 391 683 366 683L233 683C209 683 200 681 200 659C200 649 211 644 232 644C274 644 295 643 296 640L163 110C154 71 131 49 95 42C69 39 39 43 39 15C39 5 45 0 56 0C74 0 136 3 155 3C174 3 238 0 257 0C272 0 279 8 279 24C279 33 271 38 255 39C214 40 194 53 194 78C194 83 195 90 197 100L326 611L576 21C582 7 590 0 599 0C608 0 614 8 618 24L757 574C770 625 798 643 860 644C874 645 881 653 881 669C878 678 877 683 864 683Z"/><path id="MJX-21-NCM-N-29" d="M78-245C138-199 188-131 229-40C268 47 288 129 288 208L288 292C288 371 268 453 229 540C188 631 138 699 78 745C75 747 72 748 71 748C62 748 57 743 57 734C57 730 59 726 62 723C114 683 156 617 187 526C214 447 228 369 228 292L228 208C228 131 214 53 187-26C156-117 114-183 62-223C59-227 57-231 57-234C57-243 62-248 71-248C72-248 75-247 78-245Z"/><path id="MJX-21-NCM-N-3D" d="M698 367L80 367C64 367 56 359 56 344C56 329 64 321 80 321L698 321C714 321 722 329 722 344C722 356 711 367 698 367M698 179L80 179C64 179 56 171 56 156C56 141 64 133 80 133L698 133C714 133 722 141 722 156C722 169 711 179 698 179Z"/><path id="MJX-21-NCM-N-3A3" d="M56 655L301 299L68 33C61 25 57 19 57 15C57 5 67 0 86 0L637 0L665 241L633 241C624 159 601 107 566 84C531 61 474 49 397 49L133 49L375 324C382 331 385 337 385 342C385 345 382 351 377 358L179 644L399 644C482 644 539 632 570 607C601 582 622 531 633 453L666 453L637 683L86 683C62 683 56 681 56 655Z"/><path id="MJX-21-NCM-I-1D456" d="M284 621C284 648 271 661 244 661C216 661 188 633 188 605C188 578 202 565 229 565C257 565 284 593 284 621M259 138C237 59 205 19 164 19C151 19 144 28 144 47C144 64 173 150 232 306C240 329 244 347 244 360C244 409 210 445 161 445C118 445 84 420 59 369C39 328 29 301 29 288C29 279 34 275 45 275C58 275 60 281 64 295C87 375 118 415 158 415C171 415 178 406 178 387C178 373 175 357 168 338C145 275 121 208 101 155C86 115 78 88 78 74C78 25 114-11 162-11C205-11 239 14 264 64C283 103 293 130 293 145C293 154 288 159 277 159C274 159 259 150 259 138Z"/><path id="MJX-21-NCM-N-2C" d="M139 106C107 106 86 82 86 50C86 20 109-5 139-5C153-5 165-1 174 8L175 0C175-63 154-117 112-160C105-168 101-174 101-178C101-188 105-193 114-193C123-193 135-181 152-158C186-110 203-57 203 0C203 53 185 106 139 106Z"/><path id="MJX-21-NCM-I-1D457" d="M397 621C397 648 383 661 356 661C328 661 300 633 300 605C300 578 313 565 340 565C368 565 397 593 397 621M267 444C214 444 169 404 147 369C120 326 107 299 107 287C107 278 112 274 122 274C127 274 130 275 133 276C138 284 141 291 144 296C176 375 216 414 264 414C282 414 291 400 291 373C291 358 289 341 284 323L192-46C178-104 138-175 75-175C66-175 57-174 48-171C73-161 85-143 85-118C85-92 71-79 44-79C12-79-13-108-13-140C-13-184 30-205 77-205C120-205 160-190 197-160C232-131 254-94 265-51L356 311C359 324 361 337 361 349C361 404 322 444 267 444Z"/><path id="MJX-21-NCM-N-2062" d=""/><path id="MJX-21-NCM-N-31" d="M269 666C228 624 168 603 89 603L89 564C141 564 184 572 217 588L217 82C217 64 213 52 204 47C195 42 170 39 130 39L95 39L95 0C120 2 174 3 257 3C340 3 394 2 419 0L419 39L384 39C343 39 318 42 310 47C302 52 297 64 297 82L297 636C297 660 295 666 269 666Z"/><path id="MJX-21-NCM-I-1D45F" d="M436 374C436 416 395 442 351 442C302 442 261 419 227 372C217 411 183 442 136 442C95 442 65 410 44 345C34 312 29 293 29 287C29 278 34 273 45 273C50 273 53 274 56 276C61 285 64 292 65 299C83 375 106 413 133 413C150 413 159 399 159 371C159 358 154 331 144 290L87 63C84 50 78 24 78 19C78-1 89-11 110-11C130-11 143-1 150 19L169 91C180 134 187 162 190 175L221 303C223 311 231 324 244 343C271 381 302 413 351 413C363 413 373 411 382 406C352 397 337 378 337 351C337 325 351 312 378 312C411 312 436 341 436 374Z"/></defs><g stroke="#000000" fill="#000000" stroke-width="0" transform="scale(1,-1)"><g data-mml-node="math" data-latex="U(N) = \Sigma_{i,j}\frac{1}{r_{i,j}}" data-semantic-type="relseq" data-semantic-role="equality" data-semantic-annotation="depth:1" data-semantic-id="24" data-semantic-children="21,23" data-semantic-content="4" data-semantic-attributes="latex:U(N) = \Sigma_{i,j}\frac{1}{r_{i,j}}" data-semantic-owns="21 4 23" aria-level="0" data-speech-node="true" data-semantic-structure="(24 (21 0 20 (19 1 2 3)) 4 (23 (10 5 (9 6 7 8)) 22 (18 11 (17 12 (16 13 14 15)))))"><g data-mml-node="mrow" data-semantic-added="true" data-semantic-type="appl" data-semantic-role="simple function" data-semantic-annotation="clearspeak:simple;depth:2" data-semantic-id="21" data-semantic-children="0,19" data-semantic-content="20,0" data-semantic-parent="24" data-semantic-owns="0 20 19" aria-level="1" data-speech-node="true"><g data-mml-node="mi" data-latex="U" data-semantic-type="identifier" data-semantic-role="simple function" data-semantic-font="italic" data-semantic-annotation="clearspeak:simple;nemeth:number;depth:3" data-semantic-id="0" data-semantic-parent="21" data-semantic-attributes="latex:U" data-semantic-operator="appl" aria-level="2" data-speech-node="true"><use data-c="1D448" xmlns:xlink="http://www.w3.org/1999/xlink" xlink:href="#MJX-21-NCM-I-1D448"/></g><g data-mml-node="mo" data-semantic-type="punctuation" data-semantic-role="application" data-semantic-annotation="nemeth:number;depth:3" data-semantic-id="20" data-semantic-parent="21" data-semantic-added="true" data-semantic-operator="appl" aria-level="2" data-speech-node="true" transform="translate(760,0)"><use data-c="2061" xmlns:xlink="http://www.w3.org/1999/xlink" xlink:href="#MJX-21-NCM-N-2061"/></g><g data-mml-node="mrow" data-semantic-added="true" data-semantic-type="fenced" data-semantic-role="leftright" data-semantic-annotation="depth:3" data-semantic-id="19" data-semantic-children="2" data-semantic-content="1,3" data-semantic-parent="21" data-semantic-owns="1 2 3" aria-level="2" data-speech-node="true" transform="translate(760,0)"><g data-mml-node="mo" data-latex="(" data-semantic-type="fence" data-semantic-role="open" data-semantic-annotation="depth:4" data-semantic-id="1" data-semantic-parent="19" data-semantic-attributes="latex:(" data-semantic-operator="fenced" aria-level="3" data-speech-node="true"><use data-c="28" xmlns:xlink="http://www.w3.org/1999/xlink" xlink:href="#MJX-21-NCM-N-28"/></g><g data-mml-node="mi" data-latex="N" data-semantic-type="identifier" data-semantic-role="latinletter" data-semantic-font="italic" data-semantic-annotation="clearspeak:simple;depth:4" data-semantic-id="2" data-semantic-parent="19" data-semantic-attributes="latex:N" aria-level="3" data-speech-node="true" transform="translate(389,0)"><use data-c="1D441" xmlns:xlink="http://www.w3.org/1999/xlink" xlink:href="#MJX-21-NCM-I-1D441"/></g><g data-mml-node="mo" data-latex=")" data-semantic-type="fence" data-semantic-role="close" data-semantic-annotation="depth:4" data-semantic-id="3" data-semantic-parent="19" data-semantic-attributes="latex:)" data-semantic-operator="fenced" aria-level="3" data-speech-node="true" transform="translate(1270,0)"><use data-c="29" xmlns:xlink="http://www.w3.org/1999/xlink" xlink:href="#MJX-21-NCM-N-29"/></g></g></g><g data-mml-node="mo" data-latex="=" data-semantic-type="relation" data-semantic-role="equality" data-semantic-annotation="nemeth:number;depth:2" data-semantic-id="4" data-semantic-parent="24" data-semantic-attributes="latex:=" data-semantic-operator="relseq,=" aria-level="1" data-speech-node="true" transform="translate(2696.8,0)"><use data-c="3D" xmlns:xlink="http://www.w3.org/1999/xlink" xlink:href="#MJX-21-NCM-N-3D"/></g><g data-mml-node="mrow" data-semantic-added="true" data-semantic-type="infixop" data-semantic-role="implicit" data-semantic-annotation="clearspeak:unit;depth:2" data-semantic-id="23" data-semantic-children="10,18" data-semantic-content="22" data-semantic-parent="24" data-semantic-owns="10 22 18" aria-level="1" data-speech-node="true" transform="translate(3752.6,0)"><g data-mml-node="msub" data-latex="\Sigma_{i,j}" data-semantic-type="subscript" data-semantic-role="greekletter" data-semantic-annotation="depth:3" data-semantic-id="10" data-semantic-children="5,9" data-semantic-parent="23" data-semantic-attributes="latex:\Sigma_{i,j}" data-semantic-owns="5 9" aria-level="2" data-speech-node="true"><g data-mml-node="mi" data-latex="\Sigma" data-semantic-type="identifier" data-semantic-role="greekletter" data-semantic-font="normal" data-semantic-annotation="clearspeak:simple;nemeth:number;depth:4" data-semantic-id="5" data-semantic-parent="10" data-semantic-attributes="latex:\Sigma" aria-level="3" data-speech-node="true"><use data-c="3A3" xmlns:xlink="http://www.w3.org/1999/xlink" xlink:href="#MJX-21-NCM-N-3A3"/></g><g data-mml-node="TeXAtom" transform="translate(755,-150) scale(0.707)" data-mjx-texclass="ORD" data-latex="{i,j}" data-semantic-type="punctuated" data-semantic-role="sequence" data-semantic-annotation="depth:4" data-semantic-id="9" data-semantic-children="6,7,8" data-semantic-content="7" data-semantic-parent="10" data-semantic-attributes="latex:{i,j};texclass:ORD" data-semantic-owns="6 7 8" aria-level="3" data-speech-node="true"><g data-mml-node="mi" data-latex="i" data-semantic-type="identifier" data-semantic-role="latinletter" data-semantic-font="italic" data-semantic-annotation="clearspeak:simple;nemeth:number;depth:5" data-semantic-id="6" data-semantic-parent="9" data-semantic-attributes="latex:i" aria-level="4" data-speech-node="true"><use data-c="1D456" xmlns:xlink="http://www.w3.org/1999/xlink" xlink:href="#MJX-21-NCM-I-1D456"/></g><g data-mml-node="mo" data-latex="," data-semantic-type="punctuation" data-semantic-role="comma" data-semantic-annotation="nemeth:number;depth:5" data-semantic-id="7" data-semantic-parent="9" data-semantic-attributes="latex:," data-semantic-operator="punctuated" aria-level="4" data-speech-node="true" transform="translate(345,0)"><use data-c="2C" xmlns:xlink="http://www.w3.org/1999/xlink" xlink:href="#MJX-21-NCM-N-2C"/></g><g data-mml-node="mi" data-latex="j" data-semantic-type="identifier" data-semantic-role="latinletter" data-semantic-font="italic" data-semantic-annotation="clearspeak:simple;nemeth:number;depth:5" data-semantic-id="8" data-semantic-parent="9" data-semantic-attributes="latex:j" aria-level="4" data-speech-node="true" transform="translate(623,0)"><use data-c="1D457" xmlns:xlink="http://www.w3.org/1999/xlink" xlink:href="#MJX-21-NCM-I-1D457"/></g></g></g><g data-mml-node="mo" data-semantic-type="operator" data-semantic-role="multiplication" data-semantic-annotation="depth:3" data-semantic-id="22" data-semantic-parent="23" data-semantic-added="true" data-semantic-operator="infixop,⁢" aria-level="2" data-speech-node="true" transform="translate(1536.9,0)"><use data-c="2062" xmlns:xlink="http://www.w3.org/1999/xlink" xlink:href="#MJX-21-NCM-N-2062"/></g><g data-mml-node="mfrac" data-latex="\frac{1}{r_{i,j}}" data-semantic-type="fraction" data-semantic-role="division" data-semantic-annotation="depth:3" data-semantic-id="18" data-semantic-children="11,17" data-semantic-parent="23" data-semantic-attributes="latex:\frac{1}{r_{i,j}}" data-semantic-owns="11 17" aria-level="2" data-speech-node="true" transform="translate(1536.9,0)"><g data-mml-node="mn" data-latex="1" data-semantic-type="number" data-semantic-role="integer" data-semantic-font="normal" data-semantic-annotation="clearspeak:simple;depth:4" data-semantic-id="11" data-semantic-parent="18" data-semantic-attributes="latex:1" aria-level="3" data-speech-node="true" transform="translate(602.9,676)"><use data-c="31" xmlns:xlink="http://www.w3.org/1999/xlink" xlink:href="#MJX-21-NCM-N-31"/></g><g data-mml-node="msub" data-latex="r_{i,j}" data-semantic-type="subscript" data-semantic-role="latinletter" data-semantic-annotation="depth:4" data-semantic-id="17" data-semantic-children="12,16" data-semantic-parent="18" data-semantic-attributes="latex:r_{i,j}" data-semantic-owns="12 16" aria-level="3" data-speech-node="true" transform="translate(220,-686)"><g data-mml-node="mi" data-latex="r" data-semantic-type="identifier" data-semantic-role="latinletter" data-semantic-font="italic" data-semantic-annotation="clearspeak:simple;depth:5" data-semantic-id="12" data-semantic-parent="17" data-semantic-attributes="latex:r" aria-level="4" data-speech-node="true"><use data-c="1D45F" xmlns:xlink="http://www.w3.org/1999/xlink" xlink:href="#MJX-21-NCM-I-1D45F"/></g><g data-mml-node="TeXAtom" transform="translate(484,-150) scale(0.707)" data-mjx-texclass="ORD" data-latex="{i,j}" data-semantic-type="punctuated" data-semantic-role="sequence" data-semantic-annotation="depth:5" data-semantic-id="16" data-semantic-children="13,14,15" data-semantic-content="14" data-semantic-parent="17" data-semantic-attributes="latex:{i,j};texclass:ORD" data-semantic-owns="13 14 15" aria-level="4" data-speech-node="true"><g data-mml-node="mi" data-latex="i" data-semantic-type="identifier" data-semantic-role="latinletter" data-semantic-font="italic" data-semantic-annotation="clearspeak:simple;nemeth:number;depth:6" data-semantic-id="13" data-semantic-parent="16" data-semantic-attributes="latex:i" aria-level="5" data-speech-node="true"><use data-c="1D456" xmlns:xlink="http://www.w3.org/1999/xlink" xlink:href="#MJX-21-NCM-I-1D456"/></g><g data-mml-node="mo" data-latex="," data-semantic-type="punctuation" data-semantic-role="comma" data-semantic-annotation="nemeth:number;depth:6" data-semantic-id="14" data-semantic-parent="16" data-semantic-attributes="latex:," data-semantic-operator="punctuated" aria-level="5" data-speech-node="true" transform="translate(345,0)"><use data-c="2C" xmlns:xlink="http://www.w3.org/1999/xlink" xlink:href="#MJX-21-NCM-N-2C"/></g><g data-mml-node="mi" data-latex="j" data-semantic-type="identifier" data-semantic-role="latinletter" data-semantic-font="italic" data-semantic-annotation="clearspeak:simple;nemeth:number;depth:6" data-semantic-id="15" data-semantic-parent="16" data-semantic-attributes="latex:j" aria-level="5" data-speech-node="true" transform="translate(623,0)"><use data-c="1D457" xmlns:xlink="http://www.w3.org/1999/xlink" xlink:href="#MJX-21-NCM-I-1D457"/></g></g></g><rect width="1465.9" height="60" x="120" y="220"/></g></g></g></g></svg>