<?xml version="1.0" encoding="UTF-8" standalone="no"?>
<svg width="750" height ="400" version="1.1"
xmlns:svg ="http://www.w3.org/2000/svg"
xmlns:rdf="http://www.w3.org/1999/02/22-rdf-syntax-ns#"
xmlns:cc="http://web.resource.org/cc/"
xmlns:dc="http://purl.org/dc/elements/1.1/"
xmlns ="http://www.w3.org/2000/svg"
>
<!-- SVG plot written using Boost.Plot program (Creator Jacob Voytko) --> 
<!-- Use, modification and distribution of Boost.Plot subject to the --> 
<!-- Boost Software License, Version 1.0.--> 
<!-- (See accompanying file LICENSE_1_0.txt --> 
<!-- or copy at http://www.boost.org/LICENSE_1_0.txt) --> 

<clipPath id="plot_window"><rect x="71.2" y="63" width="548.6" height="274.2"/></clipPath>
<g id="imageBackground" stroke="rgb(119,136,153)" fill="rgb(255,255,255)" stroke-width="2"><rect x="0" y="0" width="750" height="400"/></g>
<g id="plotBackground" stroke="rgb(119,136,153)" fill="rgb(255,255,255)" stroke-width="2"><rect x="70.2" y="62" width="550.6" height="276.2"/></g>
<g id="yMinorGrid" stroke="rgb(200,220,255)" stroke-width="0.5"></g>
<g id="yMajorGrid" stroke="rgb(200,220,255)" stroke-width="1"></g>
<g id="xMinorGrid" stroke="rgb(200,220,255)" stroke-width="0.5"></g>
<g id="xMajorGrid" stroke="rgb(200,220,255)" stroke-width="1"></g>
<g id="yAxis" stroke="rgb(0,0,0)" stroke-width="1"><line x1="70.2" y1="62" x2="70.2" y2="343.2"/><line x1="70.2" y1="62" x2="70.2" y2="338.2"/></g>
<g id="xAxis" stroke="rgb(0,0,0)" stroke-width="1"><line x1="65.2" y1="338.2" x2="620.8" y2="338.2"/><line x1="65.2" y1="338.2" x2="620.8" y2="338.2"/></g>
<g id="yMinorTicks" stroke="rgb(0,0,0)" stroke-width="1"><path d="M68.2,324.9 L70.2,324.9 M68.2,311.5 L70.2,311.5 M68.2,298.2 L70.2,298.2 M68.2,284.9 L70.2,284.9 M68.2,258.2 L70.2,258.2 M68.2,244.9 L70.2,244.9 M68.2,231.5 L70.2,231.5 M68.2,218.2 L70.2,218.2 M68.2,191.5 L70.2,191.5 M68.2,178.2 L70.2,178.2 M68.2,164.8 L70.2,164.8 M68.2,151.5 L70.2,151.5 M68.2,124.8 L70.2,124.8 M68.2,111.5 L70.2,111.5 M68.2,98.17 L70.2,98.17 M68.2,84.83 L70.2,84.83 M68.2,338.2 L70.2,338.2 " fill="none"/></g>
<g id="xMinorTicks" stroke="rgb(0,0,0)" stroke-width="1"><path d="M88.55,338.2 L88.55,340.2 M106.9,338.2 L106.9,340.2 M125.2,338.2 L125.2,340.2 M143.6,338.2 L143.6,340.2 M180.3,338.2 L180.3,340.2 M198.6,338.2 L198.6,340.2 M217,338.2 L217,340.2 M235.3,338.2 L235.3,340.2 M272,338.2 L272,340.2 M290.4,338.2 L290.4,340.2 M308.7,338.2 L308.7,340.2 M327.1,338.2 L327.1,340.2 M363.8,338.2 L363.8,340.2 M382.1,338.2 L382.1,340.2 M400.5,338.2 L400.5,340.2 M418.8,338.2 L418.8,340.2 M455.5,338.2 L455.5,340.2 M473.9,338.2 L473.9,340.2 M492.2,338.2 L492.2,340.2 M510.6,338.2 L510.6,340.2 M547.3,338.2 L547.3,340.2 M565.6,338.2 L565.6,340.2 M584,338.2 L584,340.2 M602.3,338.2 L602.3,340.2 " fill="none"/></g>
<g id="yMajorTicks" stroke="rgb(0,0,0)" stroke-width="2"><path d="M65.2,338.2 L70.2,338.2 M65.2,271.5 L70.2,271.5 M65.2,204.8 L70.2,204.8 M65.2,138.2 L70.2,138.2 M65.2,71.5 L70.2,71.5 M65.2,338.2 L70.2,338.2 " fill="none"/></g>
<g id="xMajorTicks" stroke="rgb(0,0,0)" stroke-width="2"><path d="M70.2,338.2 L70.2,343.2 M161.9,338.2 L161.9,343.2 M253.7,338.2 L253.7,343.2 M345.4,338.2 L345.4,343.2 M437.2,338.2 L437.2,343.2 M528.9,338.2 L528.9,343.2 M620.7,338.2 L620.7,343.2 " fill="none"/></g>
<g id="plotLabels">
<text x="70.2" y="357.6" text-anchor="middle" font-size="12" font-family="Verdana">0</text>
<text x="161.9" y="357.6" text-anchor="middle" font-size="12" font-family="Verdana">1</text>
<text x="253.7" y="357.6" text-anchor="middle" font-size="12" font-family="Verdana">2</text>
<text x="345.4" y="357.6" text-anchor="middle" font-size="12" font-family="Verdana">3</text>
<text x="437.2" y="357.6" text-anchor="middle" font-size="12" font-family="Verdana">4</text>
<text x="528.9" y="357.6" text-anchor="middle" font-size="12" font-family="Verdana">5</text>
<text x="620.7" y="357.6" text-anchor="middle" font-size="12" font-family="Verdana">6</text>
<text x="59.2" y="340.6" text-anchor="end" font-size="12" font-family="Verdana">0</text>
<text x="59.2" y="273.9" text-anchor="end" font-size="12" font-family="Verdana">0.5</text>
<text x="59.2" y="207.2" text-anchor="end" font-size="12" font-family="Verdana">1</text>
<text x="59.2" y="140.6" text-anchor="end" font-size="12" font-family="Verdana">1.5</text>
<text x="59.2" y="73.9" text-anchor="end" font-size="12" font-family="Verdana">2</text>
<text x="59.2" y="340.6" text-anchor="end" font-size="12" font-family="Verdana">0</text></g>
<g id="yLabel">
<text x="30.2" y="200.1" text-anchor="middle" transform = "rotate(-90 30.2 200.1 )" font-size="14" font-family="Verdana">Probability</text></g>
<g id="xLabel">
<text x="345.5" y="384" text-anchor="middle" font-size="14" font-family="Verdana">Random Variable</text></g>
<g id="plotLines" stroke-width="2"><g clip-path="url(#plot_window)" stroke="rgb(0,0,139)" stroke-width="1"><path d="M70.2,271.5 L72.95,272.5 L75.71,273.5 L78.46,274.5 L81.21,275.4 L83.97,276.3 L86.72,277.3 L89.47,278.2 L92.22,279.1 L94.98,279.9 L97.73,280.8 L100.5,281.7 L103.2,282.5 L106,283.3 L108.7,284.2 L111.5,285 L114.2,285.8 L117,286.5 L119.8,287.3 L122.5,288.1 L125.3,288.8 L128,289.5 L130.8,290.3 L133.5,291 L136.3,291.7 L139,292.4 L141.8,293.1 L144.5,293.7 L147.3,294.4 L150,295 L152.8,295.7 L155.5,296.3 L158.3,296.9 L161,297.6 L163.8,298.2 L166.6,298.8 L169.3,299.4 L172.1,299.9 L174.8,300.5 L177.6,301.1 L180.3,301.6 L183.1,302.2 L185.8,302.7 L188.6,303.2 L191.3,303.7 L194.1,304.3 L196.8,304.8 L199.6,305.3 L202.3,305.8 L205.1,306.2 L207.8,306.7 L210.6,307.2 L213.4,307.6 L216.1,308.1 L218.9,308.5 L221.6,309 L224.4,309.4 L227.1,309.8 L229.9,310.3 L232.6,310.7 L235.4,311.1 L238.1,311.5 L240.9,311.9 L243.6,312.3 L246.4,312.7 L249.1,313.1 L251.9,313.4 L254.7,313.8 L257.4,314.2 L260.2,314.5 L262.9,314.9 L265.7,315.2 L268.4,315.6 L271.2,315.9 L273.9,316.2 L276.7,316.6 L279.4,316.9 L282.2,317.2 L284.9,317.5 L287.7,317.8 L290.4,318.1 L293.2,318.4 L295.9,318.7 L298.7,319 L301.5,319.3 L304.2,319.6 L307,319.9 L309.7,320.1 L312.5,320.4 L315.2,320.7 L318,320.9 L320.7,321.2 L323.5,321.4 L326.2,321.7 L329,321.9 L331.7,322.2 L334.5,322.4 L337.2,322.6 L340,322.9 L342.7,323.1 L345.5,323.3 L348.3,323.5 L351,323.8 L353.8,324 L356.5,324.2 L359.3,324.4 L362,324.6 L364.8,324.8 L367.5,325 L370.3,325.2 L373,325.4 L375.8,325.6 L378.5,325.8 L381.3,326 L384,326.1 L386.8,326.3 L389.5,326.5 L392.3,326.7 L395.1,326.8 L397.8,327 L400.6,327.2 L403.3,327.3 L406.1,327.5 L408.8,327.7 L411.6,327.8 L414.3,328 L417.1,328.1 L419.8,328.3 L422.6,328.4 L425.3,328.6 L428.1,328.7 L430.8,328.9 L433.6,329 L436.3,329.1 L439.1,329.3 L441.9,329.4 L444.6,329.5 L447.4,329.7 L450.1,329.8 L452.9,329.9 L455.6,330 L458.4,330.2 L461.1,330.3 L463.9,330.4 L466.6,330.5 L469.4,330.6 L472.1,330.7 L474.9,330.9 L477.6,331 L480.4,331.1 L483.2,331.2 L485.9,331.3 L488.7,331.4 L491.4,331.5 L494.2,331.6 L496.9,331.7 L499.7,331.8 L502.4,331.9 L505.2,332 L507.9,332.1 L510.7,332.2 L513.4,332.2 L516.2,332.3 L518.9,332.4 L521.7,332.5 L524.4,332.6 L527.2,332.7 L530,332.8 L532.7,332.8 L535.5,332.9 L538.2,333 L541,333.1 L543.7,333.2 L546.5,333.2 L549.2,333.3 L552,333.4 L554.7,333.4 L557.5,333.5 L560.2,333.6 L563,333.7 L565.7,333.7 L568.5,333.8 L571.2,333.9 L574,333.9 L576.8,334 L579.5,334 L582.3,334.1 L585,334.2 L587.8,334.2 L590.5,334.3 L593.3,334.3 L596,334.4 L598.8,334.5 L601.5,334.5 L604.3,334.6 L607,334.6 L609.8,334.7 L612.5,334.7 L615.3,334.8 L618,334.8 " fill="none"/></g>
<g clip-path="url(#plot_window)" stroke="rgb(139,0,0)" stroke-width="1"><path d="M70.2,204.8 L72.95,208.8 L75.71,212.6 L78.46,216.3 L81.21,219.9 L83.97,223.4 L86.72,226.8 L89.47,230.1 L92.22,233.3 L94.98,236.4 L97.73,239.4 L100.5,242.3 L103.2,245.2 L106,247.9 L108.7,250.6 L111.5,253.2 L114.2,255.7 L117,258.1 L119.8,260.5 L122.5,262.8 L125.3,265 L128,267.2 L130.8,269.3 L133.5,271.3 L136.3,273.3 L139,275.2 L141.8,277.1 L144.5,278.9 L147.3,280.6 L150,282.3 L152.8,284 L155.5,285.6 L158.3,287.2 L161,288.7 L163.8,290.1 L166.6,291.5 L169.3,292.9 L172.1,294.3 L174.8,295.6 L177.6,296.8 L180.3,298 L183.1,299.2 L185.8,300.4 L188.6,301.5 L191.3,302.6 L194.1,303.6 L196.8,304.7 L199.6,305.7 L202.3,306.6 L205.1,307.6 L207.8,308.5 L210.6,309.3 L213.4,310.2 L216.1,311 L218.9,311.8 L221.6,312.6 L224.4,313.4 L227.1,314.1 L229.9,314.8 L232.6,315.5 L235.4,316.2 L238.1,316.8 L240.9,317.5 L243.6,318.1 L246.4,318.7 L249.1,319.2 L251.9,319.8 L254.7,320.3 L257.4,320.9 L260.2,321.4 L262.9,321.9 L265.7,322.4 L268.4,322.8 L271.2,323.3 L273.9,323.7 L276.7,324.2 L279.4,324.6 L282.2,325 L284.9,325.4 L287.7,325.7 L290.4,326.1 L293.2,326.5 L295.9,326.8 L298.7,327.2 L301.5,327.5 L304.2,327.8 L307,328.1 L309.7,328.4 L312.5,328.7 L315.2,329 L318,329.2 L320.7,329.5 L323.5,329.8 L326.2,330 L329,330.3 L331.7,330.5 L334.5,330.7 L337.2,330.9 L340,331.2 L342.7,331.4 L345.5,331.6 L348.3,331.8 L351,332 L353.8,332.1 L356.5,332.3 L359.3,332.5 L362,332.7 L364.8,332.8 L367.5,333 L370.3,333.1 L373,333.3 L375.8,333.4 L378.5,333.6 L381.3,333.7 L384,333.8 L386.8,334 L389.5,334.1 L392.3,334.2 L395.1,334.3 L397.8,334.4 L400.6,334.6 L403.3,334.7 L406.1,334.8 L408.8,334.9 L411.6,335 L414.3,335.1 L417.1,335.2 L419.8,335.2 L422.6,335.3 L425.3,335.4 L428.1,335.5 L430.8,335.6 L433.6,335.7 L436.3,335.7 L439.1,335.8 L441.9,335.9 L444.6,335.9 L447.4,336 L450.1,336.1 L452.9,336.1 L455.6,336.2 L458.4,336.3 L461.1,336.3 L463.9,336.4 L466.6,336.4 L469.4,336.5 L472.1,336.5 L474.9,336.6 L477.6,336.6 L480.4,336.7 L483.2,336.7 L485.9,336.8 L488.7,336.8 L491.4,336.8 L494.2,336.9 L496.9,336.9 L499.7,337 L502.4,337 L505.2,337 L507.9,337.1 L510.7,337.1 L513.4,337.1 L516.2,337.2 L518.9,337.2 L521.7,337.2 L524.4,337.3 L527.2,337.3 L530,337.3 L532.7,337.3 L535.5,337.4 L538.2,337.4 L541,337.4 L543.7,337.4 L546.5,337.5 L549.2,337.5 L552,337.5 L554.7,337.5 L557.5,337.5 L560.2,337.6 L563,337.6 L565.7,337.6 L568.5,337.6 L571.2,337.6 L574,337.7 L576.8,337.7 L579.5,337.7 L582.3,337.7 L585,337.7 L587.8,337.7 L590.5,337.7 L593.3,337.8 L596,337.8 L598.8,337.8 L601.5,337.8 L604.3,337.8 L607,337.8 L609.8,337.8 L612.5,337.8 L615.3,337.8 L618,337.9 " fill="none"/></g>
<g clip-path="url(#plot_window)" stroke="rgb(0,100,0)" stroke-width="1"><path d="M70.2,71.5 L72.95,87.03 L75.71,101.7 L78.46,115.4 L81.21,128.4 L83.97,140.6 L86.72,152.1 L89.47,163 L92.22,173.2 L94.98,182.8 L97.73,191.9 L100.5,200.4 L103.2,208.4 L106,216 L108.7,223.1 L111.5,229.8 L114.2,236.1 L117,242.1 L119.8,247.7 L122.5,252.9 L125.3,257.9 L128,262.6 L130.8,267 L133.5,271.1 L136.3,275 L139,278.7 L141.8,282.2 L144.5,285.4 L147.3,288.5 L150,291.4 L152.8,294.1 L155.5,296.7 L158.3,299.1 L161,301.4 L163.8,303.5 L166.6,305.6 L169.3,307.5 L172.1,309.2 L174.8,310.9 L177.6,312.5 L180.3,314 L183.1,315.4 L185.8,316.8 L188.6,318 L191.3,319.2 L194.1,320.3 L196.8,321.3 L199.6,322.3 L202.3,323.2 L205.1,324.1 L207.8,324.9 L210.6,325.7 L213.4,326.4 L216.1,327.1 L218.9,327.8 L221.6,328.4 L224.4,328.9 L227.1,329.5 L229.9,330 L232.6,330.5 L235.4,330.9 L238.1,331.3 L240.9,331.7 L243.6,332.1 L246.4,332.5 L249.1,332.8 L251.9,333.1 L254.7,333.4 L257.4,333.7 L260.2,334 L262.9,334.2 L265.7,334.4 L268.4,334.7 L271.2,334.9 L273.9,335.1 L276.7,335.2 L279.4,335.4 L282.2,335.6 L284.9,335.7 L287.7,335.9 L290.4,336 L293.2,336.1 L295.9,336.3 L298.7,336.4 L301.5,336.5 L304.2,336.6 L307,336.7 L309.7,336.8 L312.5,336.8 L315.2,336.9 L318,337 L320.7,337.1 L323.5,337.1 L326.2,337.2 L329,337.3 L331.7,337.3 L334.5,337.4 L337.2,337.4 L340,337.5 L342.7,337.5 L345.5,337.5 L348.3,337.6 L351,337.6 L353.8,337.6 L356.5,337.7 L359.3,337.7 L362,337.7 L364.8,337.8 L367.5,337.8 L370.3,337.8 L373,337.8 L375.8,337.9 L378.5,337.9 L381.3,337.9 L384,337.9 L386.8,337.9 L389.5,337.9 L392.3,338 L395.1,338 L397.8,338 L400.6,338 L403.3,338 L406.1,338 L408.8,338 L411.6,338 L414.3,338.1 L417.1,338.1 L419.8,338.1 L422.6,338.1 L425.3,338.1 L428.1,338.1 L430.8,338.1 L433.6,338.1 L436.3,338.1 L439.1,338.1 L441.9,338.1 L444.6,338.1 L447.4,338.1 L450.1,338.1 L452.9,338.1 L455.6,338.1 L458.4,338.1 L461.1,338.1 L463.9,338.2 L466.6,338.2 L469.4,338.2 L472.1,338.2 L474.9,338.2 L477.6,338.2 L480.4,338.2 L483.2,338.2 L485.9,338.2 L488.7,338.2 L491.4,338.2 L494.2,338.2 L496.9,338.2 L499.7,338.2 L502.4,338.2 L505.2,338.2 L507.9,338.2 L510.7,338.2 L513.4,338.2 L516.2,338.2 L518.9,338.2 L521.7,338.2 L524.4,338.2 L527.2,338.2 L530,338.2 L532.7,338.2 L535.5,338.2 L538.2,338.2 L541,338.2 L543.7,338.2 L546.5,338.2 L549.2,338.2 L552,338.2 L554.7,338.2 L557.5,338.2 L560.2,338.2 L563,338.2 L565.7,338.2 L568.5,338.2 L571.2,338.2 L574,338.2 L576.8,338.2 L579.5,338.2 L582.3,338.2 L585,338.2 L587.8,338.2 L590.5,338.2 L593.3,338.2 L596,338.2 L598.8,338.2 L601.5,338.2 L604.3,338.2 L607,338.2 L609.8,338.2 L612.5,338.2 L615.3,338.2 L618,338.2 " fill="none"/></g>
</g>
<g id="plotPoints" clip-path="url(#plot_window)"></g>
<g id="legendBackground" stroke="rgb(119,136,153)" fill="rgb(255,255,255)" stroke-width="1"><rect x="634.8" y="62" width="103.2" height="105"/><rect x="634.8" y="62" width="103.2" height="105"/></g>
<g id="legendPoints"><g stroke="rgb(0,0,139)" fill="rgb(255,255,255)" stroke-width="1"><line x1="649.8" y1="92" x2="664.8" y2="92"/></g>
<g stroke="rgb(139,0,0)" fill="rgb(255,255,255)" stroke-width="1"><line x1="649.8" y1="122" x2="664.8" y2="122"/></g>
<g stroke="rgb(0,100,0)" fill="rgb(255,255,255)" stroke-width="1"><line x1="649.8" y1="152" x2="664.8" y2="152"/></g>
</g>
<g id="legendText">
<text x="672.3" y="92" font-size="15" font-family="Verdana">&#x3BB;=0.5</text>
<text x="672.3" y="122" font-size="15" font-family="Verdana">&#x3BB;=1</text>
<text x="672.3" y="152" font-size="15" font-family="Verdana">&#x3BB;=2</text></g>
<g id="title">
<text x="375" y="40" text-anchor="middle" font-size="20" font-family="Verdana">Exponential Distribution PDF</text></g>
<g id="plotXValues"></g>
<g id="plotYValues"></g>
</svg>
