<?xml version="1.0" encoding="UTF-8" standalone="no"?>
<svg width="750" height ="400" version="1.1"
xmlns:svg ="http://www.w3.org/2000/svg"
xmlns:rdf="http://www.w3.org/1999/02/22-rdf-syntax-ns#"
xmlns:cc="http://web.resource.org/cc/"
xmlns:dc="http://purl.org/dc/elements/1.1/"
xmlns ="http://www.w3.org/2000/svg"
>
<!-- SVG plot written using Boost.Plot program (Creator Jacob Voytko) --> 
<!-- Use, modification and distribution of Boost.Plot subject to the --> 
<!-- Boost Software License, Version 1.0.--> 
<!-- (See accompanying file LICENSE_1_0.txt --> 
<!-- or copy at http://www.boost.org/LICENSE_1_0.txt) --> 

<clipPath id="plot_window"><rect x="71.2" y="63" width="501.6" height="274.2"/></clipPath>
<g id="imageBackground" stroke="rgb(119,136,153)" fill="rgb(255,255,255)" stroke-width="2"><rect x="0" y="0" width="750" height="400"/></g>
<g id="plotBackground" stroke="rgb(119,136,153)" fill="rgb(255,255,255)" stroke-width="2"><rect x="70.2" y="62" width="503.6" height="276.2"/></g>
<g id="yMinorGrid" stroke="rgb(200,220,255)" stroke-width="0.5"></g>
<g id="yMajorGrid" stroke="rgb(200,220,255)" stroke-width="1"></g>
<g id="xMinorGrid" stroke="rgb(200,220,255)" stroke-width="0.5"></g>
<g id="xMajorGrid" stroke="rgb(200,220,255)" stroke-width="1"></g>
<g id="yAxis" stroke="rgb(0,0,0)" stroke-width="1"><line x1="286.4" y1="62" x2="286.4" y2="343.2"/><line x1="70.2" y1="62" x2="70.2" y2="338.2"/></g>
<g id="xAxis" stroke="rgb(0,0,0)" stroke-width="1"><line x1="65.2" y1="338.2" x2="573.8" y2="338.2"/><line x1="65.2" y1="338.2" x2="573.8" y2="338.2"/></g>
<g id="yMinorTicks" stroke="rgb(0,0,0)" stroke-width="1"><path d="M68.2,324.5 L70.2,324.5 M68.2,310.9 L70.2,310.9 M68.2,297.2 L70.2,297.2 M68.2,283.6 L70.2,283.6 M68.2,256.3 L70.2,256.3 M68.2,242.6 L70.2,242.6 M68.2,229 L70.2,229 M68.2,215.3 L70.2,215.3 M68.2,188 L70.2,188 M68.2,174.4 L70.2,174.4 M68.2,160.7 L70.2,160.7 M68.2,147.1 L70.2,147.1 M68.2,119.8 L70.2,119.8 M68.2,106.1 L70.2,106.1 M68.2,92.49 L70.2,92.49 M68.2,78.84 L70.2,78.84 M68.2,338.2 L70.2,338.2 " fill="none"/></g>
<g id="xMinorTicks" stroke="rgb(0,0,0)" stroke-width="1"><path d="M318.4,338.2 L318.4,340.2 M350.4,338.2 L350.4,340.2 M382.4,338.2 L382.4,340.2 M414.5,338.2 L414.5,340.2 M478.5,338.2 L478.5,340.2 M510.6,338.2 L510.6,340.2 M542.6,338.2 L542.6,340.2 M254.3,338.2 L254.3,340.2 M222.3,338.2 L222.3,340.2 M190.3,338.2 L190.3,340.2 M158.2,338.2 L158.2,340.2 M94.17,338.2 L94.17,340.2 " fill="none"/></g>
<g id="yMajorTicks" stroke="rgb(0,0,0)" stroke-width="2"><path d="M65.2,338.2 L70.2,338.2 M65.2,269.9 L70.2,269.9 M65.2,201.7 L70.2,201.7 M65.2,133.4 L70.2,133.4 M65.2,65.19 L70.2,65.19 M65.2,338.2 L70.2,338.2 " fill="none"/></g>
<g id="xMajorTicks" stroke="rgb(0,0,0)" stroke-width="2"><path d="M286.4,338.2 L286.4,343.2 M446.5,338.2 L446.5,343.2 M286.4,338.2 L286.4,343.2 M126.2,338.2 L126.2,343.2 " fill="none"/></g>
<g id="plotLabels">
<text x="286.4" y="357.6" text-anchor="middle" font-size="12" font-family="Verdana">0</text>
<text x="446.5" y="357.6" text-anchor="middle" font-size="12" font-family="Verdana">5</text>
<text x="286.4" y="357.6" text-anchor="middle" font-size="12" font-family="Verdana">0</text>
<text x="126.2" y="357.6" text-anchor="middle" font-size="12" font-family="Verdana">-5</text>
<text x="59.2" y="340.6" text-anchor="end" font-size="12" font-family="Verdana">0</text>
<text x="59.2" y="272.3" text-anchor="end" font-size="12" font-family="Verdana">0.1</text>
<text x="59.2" y="204.1" text-anchor="end" font-size="12" font-family="Verdana">0.2</text>
<text x="59.2" y="135.8" text-anchor="end" font-size="12" font-family="Verdana">0.3</text>
<text x="59.2" y="67.59" text-anchor="end" font-size="12" font-family="Verdana">0.4</text>
<text x="59.2" y="340.6" text-anchor="end" font-size="12" font-family="Verdana">0</text></g>
<g id="yLabel">
<text x="30.2" y="200.1" text-anchor="middle" transform = "rotate(-90 30.2 200.1 )" font-size="14" font-family="Verdana">Probability</text></g>
<g id="xLabel">
<text x="322" y="384" text-anchor="middle" font-size="14" font-family="Verdana">Random Variable</text></g>
<g id="plotLines" stroke-width="2"><g clip-path="url(#plot_window)" stroke="rgb(0,0,139)" stroke-width="1"><path d="M70.2,325.7 L72.72,320.3 L75.24,313.5 L77.75,305.1 L80.27,295 L82.79,283.4 L85.31,270.3 L87.82,255.9 L90.34,240.5 L92.86,224.3 L95.38,207.8 L97.9,191.3 L100.4,175.1 L102.9,159.7 L105.4,145.3 L108,132.1 L110.5,120.5 L113,110.5 L115.5,102.3 L118,95.84 L120.6,91.21 L123.1,88.34 L125.6,87.15 L128.1,87.55 L130.6,89.39 L133.1,92.55 L135.7,96.87 L138.2,102.2 L140.7,108.4 L143.2,115.3 L145.7,122.8 L148.3,130.7 L150.8,139 L153.3,147.5 L155.8,156.1 L158.3,164.7 L160.8,173.3 L163.4,181.8 L165.9,190.2 L168.4,198.3 L170.9,206.3 L173.4,213.9 L175.9,221.3 L178.5,228.4 L181,235.2 L183.5,241.7 L186,247.9 L188.5,253.7 L191.1,259.2 L193.6,264.5 L196.1,269.4 L198.6,274.1 L201.1,278.5 L203.6,282.6 L206.2,286.4 L208.7,290 L211.2,293.4 L213.7,296.6 L216.2,299.5 L218.8,302.3 L221.3,304.9 L223.8,307.3 L226.3,309.5 L228.8,311.6 L231.3,313.5 L233.9,315.3 L236.4,317 L238.9,318.6 L241.4,320 L243.9,321.3 L246.4,322.6 L249,323.7 L251.5,324.8 L254,325.8 L256.5,326.7 L259,327.6 L261.6,328.4 L264.1,329.1 L266.6,329.8 L269.1,330.4 L271.6,331 L274.1,331.5 L276.7,332 L279.2,332.5 L281.7,332.9 L284.2,333.3 L286.7,333.7 L289.2,334 L291.8,334.3 L294.3,334.6 L296.8,334.9 L299.3,335.1 L301.8,335.4 L304.4,335.6 L306.9,335.8 L309.4,336 L311.9,336.1 L314.4,336.3 L316.9,336.4 L319.5,336.6 L322,336.7 L324.5,336.8 L327,336.9 L329.5,337 L332.1,337.1 L334.6,337.2 L337.1,337.3 L339.6,337.3 L342.1,337.4 L344.6,337.5 L347.2,337.5 L349.7,337.6 L352.2,337.6 L354.7,337.7 L357.2,337.7 L359.7,337.7 L362.3,337.8 L364.8,337.8 L367.3,337.8 L369.8,337.9 L372.3,337.9 L374.9,337.9 L377.4,337.9 L379.9,338 L382.4,338 L384.9,338 L387.4,338 L390,338 L392.5,338 L395,338 L397.5,338.1 L400,338.1 L402.5,338.1 L405.1,338.1 L407.6,338.1 L410.1,338.1 L412.6,338.1 L415.1,338.1 L417.7,338.1 L420.2,338.1 L422.7,338.1 L425.2,338.1 L427.7,338.1 L430.2,338.1 L432.8,338.2 L435.3,338.2 L437.8,338.2 L440.3,338.2 L442.8,338.2 L445.4,338.2 L447.9,338.2 L450.4,338.2 L452.9,338.2 L455.4,338.2 L457.9,338.2 L460.5,338.2 L463,338.2 L465.5,338.2 L468,338.2 L470.5,338.2 L473,338.2 L475.6,338.2 L478.1,338.2 L480.6,338.2 L483.1,338.2 L485.6,338.2 L488.2,338.2 L490.7,338.2 L493.2,338.2 L495.7,338.2 L498.2,338.2 L500.7,338.2 L503.3,338.2 L505.8,338.2 L508.3,338.2 L510.8,338.2 L513.3,338.2 L515.9,338.2 L518.4,338.2 L520.9,338.2 L523.4,338.2 L525.9,338.2 L528.4,338.2 L531,338.2 L533.5,338.2 L536,338.2 L538.5,338.2 L541,338.2 L543.5,338.2 L546.1,338.2 L548.6,338.2 L551.1,338.2 L553.6,338.2 L556.1,338.2 L558.7,338.2 L561.2,338.2 L563.7,338.2 L566.2,338.2 L568.7,338.2 L571.2,338.2 L573.8,338.2 " fill="none"/></g>
<g clip-path="url(#plot_window)" stroke="rgb(139,0,0)" stroke-width="1"><path d="M70.2,338.2 L72.72,338.2 L75.24,338.2 L77.75,338.2 L80.27,338.2 L82.79,338.2 L85.31,338.2 L87.82,338.2 L90.34,338.2 L92.86,338.2 L95.38,338.2 L97.9,338.2 L100.4,338.2 L102.9,338.2 L105.4,338.2 L108,338.2 L110.5,338.2 L113,338.2 L115.5,338.2 L118,338.2 L120.6,338.2 L123.1,338.2 L125.6,338.2 L128.1,338.2 L130.6,338.2 L133.1,338.2 L135.7,338.2 L138.2,338.2 L140.7,338.2 L143.2,338.2 L145.7,338.2 L148.3,338.2 L150.8,338.2 L153.3,338.2 L155.8,338.2 L158.3,338.2 L160.8,338.2 L163.4,338.2 L165.9,338.2 L168.4,338.2 L170.9,338.2 L173.4,338.2 L175.9,338.2 L178.5,338.2 L181,338.2 L183.5,338.2 L186,338.2 L188.5,338.2 L191.1,338.2 L193.6,338.2 L196.1,338.2 L198.6,338.2 L201.1,338.2 L203.6,338.2 L206.2,338.2 L208.7,338.1 L211.2,338 L213.7,337.8 L216.2,337.4 L218.8,336.7 L221.3,335.7 L223.8,334 L226.3,331.6 L228.8,328.3 L231.3,323.7 L233.9,317.8 L236.4,310.4 L238.9,301.3 L241.4,290.7 L243.9,278.4 L246.4,264.8 L249,250 L251.5,234.2 L254,217.9 L256.5,201.3 L259,184.9 L261.6,169 L264.1,153.9 L266.6,140 L269.1,127.4 L271.6,116.4 L274.1,107.1 L276.7,99.53 L279.2,93.81 L281.7,89.88 L284.2,87.68 L286.7,87.13 L289.2,88.1 L291.8,90.48 L294.3,94.11 L296.8,98.85 L299.3,104.5 L301.8,111 L304.4,118.2 L306.9,125.9 L309.4,133.9 L311.9,142.3 L314.4,150.8 L316.9,159.5 L319.5,168.1 L322,176.7 L324.5,185.1 L327,193.4 L329.5,201.5 L332.1,209.3 L334.6,216.9 L337.1,224.1 L339.6,231.1 L342.1,237.8 L344.6,244.1 L347.2,250.2 L349.7,255.9 L352.2,261.3 L354.7,266.4 L357.2,271.3 L359.7,275.8 L362.3,280.1 L364.8,284.1 L367.3,287.9 L369.8,291.4 L372.3,294.7 L374.9,297.8 L377.4,300.6 L379.9,303.3 L382.4,305.8 L384.9,308.2 L387.4,310.3 L390,312.4 L392.5,314.2 L395,316 L397.5,317.6 L400,319.1 L402.5,320.5 L405.1,321.8 L407.6,323 L410.1,324.2 L412.6,325.2 L415.1,326.2 L417.7,327.1 L420.2,327.9 L422.7,328.7 L425.2,329.4 L427.7,330 L430.2,330.6 L432.8,331.2 L435.3,331.7 L437.8,332.2 L440.3,332.7 L442.8,333.1 L445.4,333.5 L447.9,333.8 L450.4,334.2 L452.9,334.5 L455.4,334.7 L457.9,335 L460.5,335.2 L463,335.5 L465.5,335.7 L468,335.9 L470.5,336 L473,336.2 L475.6,336.3 L478.1,336.5 L480.6,336.6 L483.1,336.7 L485.6,336.8 L488.2,336.9 L490.7,337 L493.2,337.1 L495.7,337.2 L498.2,337.3 L500.7,337.4 L503.3,337.4 L505.8,337.5 L508.3,337.5 L510.8,337.6 L513.3,337.6 L515.9,337.7 L518.4,337.7 L520.9,337.7 L523.4,337.8 L525.9,337.8 L528.4,337.8 L531,337.9 L533.5,337.9 L536,337.9 L538.5,337.9 L541,338 L543.5,338 L546.1,338 L548.6,338 L551.1,338 L553.6,338 L556.1,338 L558.7,338.1 L561.2,338.1 L563.7,338.1 L566.2,338.1 L568.7,338.1 L571.2,338.1 L573.8,338.1 " fill="none"/></g>
<g clip-path="url(#plot_window)" stroke="rgb(0,100,0)" stroke-width="1"><path d="M70.2,338.2 L72.72,338.2 L75.24,338.2 L77.75,338.2 L80.27,338.2 L82.79,338.2 L85.31,338.2 L87.82,338.2 L90.34,338.2 L92.86,338.2 L95.38,338.2 L97.9,338.2 L100.4,338.2 L102.9,338.2 L105.4,338.2 L108,338.2 L110.5,338.2 L113,338.2 L115.5,338.2 L118,338.2 L120.6,338.2 L123.1,338.2 L125.6,338.2 L128.1,338.2 L130.6,338.2 L133.1,338.2 L135.7,338.2 L138.2,338.2 L140.7,338.2 L143.2,338.2 L145.7,338.2 L148.3,338.2 L150.8,338.2 L153.3,338.2 L155.8,338.2 L158.3,338.2 L160.8,338.2 L163.4,338.2 L165.9,338.2 L168.4,338.2 L170.9,338.2 L173.4,338.2 L175.9,338.2 L178.5,338.2 L181,338.2 L183.5,338.2 L186,338.2 L188.5,338.2 L191.1,338.2 L193.6,338.2 L196.1,338.2 L198.6,338.2 L201.1,338.2 L203.6,338.2 L206.2,338.2 L208.7,338.2 L211.2,338.2 L213.7,338.2 L216.2,338.2 L218.8,338.2 L221.3,338.2 L223.8,338.2 L226.3,338.2 L228.8,338.2 L231.3,338.2 L233.9,338.2 L236.4,338.2 L238.9,338.2 L241.4,338.2 L243.9,338.2 L246.4,338.2 L249,338.2 L251.5,338.2 L254,338.2 L256.5,338.2 L259,338.2 L261.6,338.2 L264.1,338.2 L266.6,338.2 L269.1,338.2 L271.6,338.2 L274.1,338.2 L276.7,338.2 L279.2,338.2 L281.7,338.2 L284.2,338.2 L286.7,338.2 L289.2,338.2 L291.8,338.2 L294.3,338.2 L296.8,338.2 L299.3,338.2 L301.8,338.2 L304.4,338.2 L306.9,338.2 L309.4,338.2 L311.9,338.2 L314.4,338.2 L316.9,338.2 L319.5,338.2 L322,338.2 L324.5,338.2 L327,338.2 L329.5,338.2 L332.1,338.2 L334.6,338.2 L337.1,338.2 L339.6,338.2 L342.1,338.2 L344.6,338.2 L347.2,338.2 L349.7,338.2 L352.2,338.2 L354.7,338.2 L357.2,338.2 L359.7,338.2 L362.3,338.2 L364.8,338.2 L367.3,338.1 L369.8,338.1 L372.3,337.9 L374.9,337.7 L377.4,337.2 L379.9,336.4 L382.4,335.1 L384.9,333.2 L387.4,330.4 L390,326.6 L392.5,321.6 L395,315.1 L397.5,307 L400,297.4 L402.5,286.1 L405.1,273.3 L407.6,259.1 L410.1,243.9 L412.6,227.9 L415.1,211.4 L417.7,194.8 L420.2,178.6 L422.7,163 L425.2,148.3 L427.7,134.9 L430.2,122.9 L432.8,112.5 L435.3,103.9 L437.8,97.08 L440.3,92.06 L442.8,88.82 L445.4,87.27 L447.9,87.33 L450.4,88.88 L452.9,91.76 L455.4,95.84 L457.9,101 L460.5,107 L463,113.8 L465.5,121.1 L468,129 L470.5,137.2 L473,145.6 L475.6,154.2 L478.1,162.8 L480.6,171.5 L483.1,180 L485.6,188.4 L488.2,196.6 L490.7,204.6 L493.2,212.3 L495.7,219.8 L498.2,226.9 L500.7,233.8 L503.3,240.3 L505.8,246.5 L508.3,252.5 L510.8,258.1 L513.3,263.4 L515.9,268.4 L518.4,273.1 L520.9,277.5 L523.4,281.7 L525.9,285.6 L528.4,289.3 L531,292.7 L533.5,295.9 L536,298.9 L538.5,301.7 L541,304.3 L543.5,306.8 L546.1,309 L548.6,311.2 L551.1,313.1 L553.6,314.9 L556.1,316.6 L558.7,318.2 L561.2,319.7 L563.7,321.1 L566.2,322.3 L568.7,323.5 L571.2,324.6 L573.8,325.6 " fill="none"/></g>
</g>
<g id="plotPoints" clip-path="url(#plot_window)"></g>
<g id="legendBackground" stroke="rgb(119,136,153)" fill="rgb(255,255,255)" stroke-width="1"><rect x="587.8" y="62" width="150.2" height="105"/><rect x="587.8" y="62" width="150.2" height="105"/></g>
<g id="legendPoints"><g stroke="rgb(0,0,139)" fill="rgb(255,255,255)" stroke-width="1"><line x1="602.8" y1="92" x2="617.8" y2="92"/></g>
<g stroke="rgb(139,0,0)" fill="rgb(255,255,255)" stroke-width="1"><line x1="602.8" y1="122" x2="617.8" y2="122"/></g>
<g stroke="rgb(0,100,0)" fill="rgb(255,255,255)" stroke-width="1"><line x1="602.8" y1="152" x2="617.8" y2="152"/></g>
</g>
<g id="legendText">
<text x="625.3" y="92" font-size="15" font-family="Verdana">location=-5</text>
<text x="625.3" y="122" font-size="15" font-family="Verdana">location=0</text>
<text x="625.3" y="152" font-size="15" font-family="Verdana">location=5</text></g>
<g id="title">
<text x="375" y="40" text-anchor="middle" font-size="20" font-family="Verdana">Extreme Value Distribution PDF (shape=1)</text></g>
<g id="plotXValues"></g>
<g id="plotYValues"></g>
</svg>
