<?xml version="1.0" encoding="UTF-8" standalone="no"?>
<svg width="750" height ="400" version="1.1"
xmlns:svg ="http://www.w3.org/2000/svg"
xmlns:rdf="http://www.w3.org/1999/02/22-rdf-syntax-ns#"
xmlns:cc="http://web.resource.org/cc/"
xmlns:dc="http://purl.org/dc/elements/1.1/"
xmlns ="http://www.w3.org/2000/svg"
>
<!-- SVG plot written using Boost.Plot program (Creator Jacob Voytko) --> 
<!-- Use, modification and distribution of Boost.Plot subject to the --> 
<!-- Boost Software License, Version 1.0.--> 
<!-- (See accompanying file LICENSE_1_0.txt --> 
<!-- or copy at http://www.boost.org/LICENSE_1_0.txt) --> 

<clipPath id="plot_window"><rect x="71.2" y="63" width="493.7" height="274.2"/></clipPath>
<g id="imageBackground" stroke="rgb(119,136,153)" fill="rgb(255,255,255)" stroke-width="2"><rect x="0" y="0" width="750" height="400"/></g>
<g id="plotBackground" stroke="rgb(119,136,153)" fill="rgb(255,255,255)" stroke-width="2"><rect x="70.2" y="62" width="495.7" height="276.2"/></g>
<g id="yMinorGrid" stroke="rgb(200,220,255)" stroke-width="0.5"></g>
<g id="yMajorGrid" stroke="rgb(200,220,255)" stroke-width="1"></g>
<g id="xMinorGrid" stroke="rgb(200,220,255)" stroke-width="0.5"></g>
<g id="xMajorGrid" stroke="rgb(200,220,255)" stroke-width="1"></g>
<g id="yAxis" stroke="rgb(0,0,0)" stroke-width="1"><line x1="70.2" y1="62" x2="70.2" y2="343.2"/><line x1="70.2" y1="62" x2="70.2" y2="338.2"/></g>
<g id="xAxis" stroke="rgb(0,0,0)" stroke-width="1"><line x1="65.2" y1="338.2" x2="565.9" y2="338.2"/><line x1="65.2" y1="338.2" x2="565.9" y2="338.2"/></g>
<g id="yMinorTicks" stroke="rgb(0,0,0)" stroke-width="1"><path d="M68.2,324.5 L70.2,324.5 M68.2,310.8 L70.2,310.8 M68.2,297.1 L70.2,297.1 M68.2,283.3 L70.2,283.3 M68.2,255.9 L70.2,255.9 M68.2,242.2 L70.2,242.2 M68.2,228.5 L70.2,228.5 M68.2,214.8 L70.2,214.8 M68.2,187.4 L70.2,187.4 M68.2,173.6 L70.2,173.6 M68.2,159.9 L70.2,159.9 M68.2,146.2 L70.2,146.2 M68.2,118.8 L70.2,118.8 M68.2,105.1 L70.2,105.1 M68.2,91.37 L70.2,91.37 M68.2,77.66 L70.2,77.66 M68.2,338.2 L70.2,338.2 " fill="none"/></g>
<g id="xMinorTicks" stroke="rgb(0,0,0)" stroke-width="1"><path d="M83.09,338.2 L83.09,340.2 M95.99,338.2 L95.99,340.2 M108.9,338.2 L108.9,340.2 M121.8,338.2 L121.8,340.2 M147.6,338.2 L147.6,340.2 M160.5,338.2 L160.5,340.2 M173.4,338.2 L173.4,340.2 M186.2,338.2 L186.2,340.2 M212,338.2 L212,340.2 M224.9,338.2 L224.9,340.2 M237.8,338.2 L237.8,340.2 M250.7,338.2 L250.7,340.2 M276.5,338.2 L276.5,340.2 M289.4,338.2 L289.4,340.2 M302.3,338.2 L302.3,340.2 M315.2,338.2 L315.2,340.2 M341,338.2 L341,340.2 M353.9,338.2 L353.9,340.2 M366.8,338.2 L366.8,340.2 M379.7,338.2 L379.7,340.2 M405.5,338.2 L405.5,340.2 M418.3,338.2 L418.3,340.2 M431.2,338.2 L431.2,340.2 M444.1,338.2 L444.1,340.2 M469.9,338.2 L469.9,340.2 M482.8,338.2 L482.8,340.2 M495.7,338.2 L495.7,340.2 M508.6,338.2 L508.6,340.2 M534.4,338.2 L534.4,340.2 M547.3,338.2 L547.3,340.2 M560.2,338.2 L560.2,340.2 " fill="none"/></g>
<g id="yMajorTicks" stroke="rgb(0,0,0)" stroke-width="2"><path d="M65.2,338.2 L70.2,338.2 M65.2,269.6 L70.2,269.6 M65.2,201.1 L70.2,201.1 M65.2,132.5 L70.2,132.5 M65.2,63.95 L70.2,63.95 M65.2,338.2 L70.2,338.2 " fill="none"/></g>
<g id="xMajorTicks" stroke="rgb(0,0,0)" stroke-width="2"><path d="M70.2,338.2 L70.2,343.2 M134.7,338.2 L134.7,343.2 M199.1,338.2 L199.1,343.2 M263.6,338.2 L263.6,343.2 M328.1,338.2 L328.1,343.2 M392.6,338.2 L392.6,343.2 M457,338.2 L457,343.2 M521.5,338.2 L521.5,343.2 " fill="none"/></g>
<g id="plotLabels">
<text x="70.2" y="357.6" text-anchor="middle" font-size="12" font-family="Verdana">0</text>
<text x="134.7" y="357.6" text-anchor="middle" font-size="12" font-family="Verdana">1</text>
<text x="199.1" y="357.6" text-anchor="middle" font-size="12" font-family="Verdana">2</text>
<text x="263.6" y="357.6" text-anchor="middle" font-size="12" font-family="Verdana">3</text>
<text x="328.1" y="357.6" text-anchor="middle" font-size="12" font-family="Verdana">4</text>
<text x="392.6" y="357.6" text-anchor="middle" font-size="12" font-family="Verdana">5</text>
<text x="457" y="357.6" text-anchor="middle" font-size="12" font-family="Verdana">6</text>
<text x="521.5" y="357.6" text-anchor="middle" font-size="12" font-family="Verdana">7</text>
<text x="59.2" y="340.6" text-anchor="end" font-size="12" font-family="Verdana">0</text>
<text x="59.2" y="272" text-anchor="end" font-size="12" font-family="Verdana">0.5</text>
<text x="59.2" y="203.5" text-anchor="end" font-size="12" font-family="Verdana">1</text>
<text x="59.2" y="134.9" text-anchor="end" font-size="12" font-family="Verdana">1.5</text>
<text x="59.2" y="66.35" text-anchor="end" font-size="12" font-family="Verdana">2</text>
<text x="59.2" y="340.6" text-anchor="end" font-size="12" font-family="Verdana">0</text></g>
<g id="yLabel">
<text x="30.2" y="200.1" text-anchor="middle" transform = "rotate(-90 30.2 200.1 )" font-size="14" font-family="Verdana">Probability</text></g>
<g id="xLabel">
<text x="318.1" y="384" text-anchor="middle" font-size="14" font-family="Verdana">Random Variable</text></g>
<g id="plotLines" stroke-width="2"><g clip-path="url(#plot_window)" stroke="rgb(0,0,139)" stroke-width="1"><path d="M70.2,-9.162e+078 L72.68,95.02 L75.16,141.4 L77.64,167.1 L80.11,185 L82.59,198.8 L85.07,210 L87.55,219.5 L90.03,227.7 L92.51,235 L94.99,241.4 L97.46,247.3 L99.94,252.6 L102.4,257.5 L104.9,261.9 L107.4,266.1 L109.9,269.9 L112.3,273.5 L114.8,276.8 L117.3,279.9 L119.8,282.8 L122.3,285.5 L124.7,288.1 L127.2,290.5 L129.7,292.8 L132.2,295 L134.6,297 L137.1,298.9 L139.6,300.8 L142.1,302.5 L144.6,304.1 L147,305.7 L149.5,307.2 L152,308.6 L154.5,309.9 L157,311.1 L159.4,312.3 L161.9,313.5 L164.4,314.6 L166.9,315.6 L169.3,316.6 L171.8,317.6 L174.3,318.5 L176.8,319.3 L179.3,320.1 L181.7,320.9 L184.2,321.6 L186.7,322.4 L189.2,323 L191.7,323.7 L194.1,324.3 L196.6,324.9 L199.1,325.5 L201.6,326 L204,326.5 L206.5,327 L209,327.5 L211.5,327.9 L214,328.4 L216.4,328.8 L218.9,329.2 L221.4,329.5 L223.9,329.9 L226.4,330.2 L228.8,330.6 L231.3,330.9 L233.8,331.2 L236.3,331.5 L238.7,331.8 L241.2,332 L243.7,332.3 L246.2,332.5 L248.7,332.8 L251.1,333 L253.6,333.2 L256.1,333.4 L258.6,333.6 L261.1,333.8 L263.5,334 L266,334.1 L268.5,334.3 L271,334.5 L273.4,334.6 L275.9,334.8 L278.4,334.9 L280.9,335 L283.4,335.2 L285.8,335.3 L288.3,335.4 L290.8,335.5 L293.3,335.6 L295.8,335.7 L298.2,335.8 L300.7,335.9 L303.2,336 L305.7,336.1 L308.1,336.2 L310.6,336.3 L313.1,336.3 L315.6,336.4 L318.1,336.5 L320.5,336.6 L323,336.6 L325.5,336.7 L328,336.7 L330.5,336.8 L332.9,336.9 L335.4,336.9 L337.9,337 L340.4,337 L342.8,337.1 L345.3,337.1 L347.8,337.2 L350.3,337.2 L352.8,337.2 L355.2,337.3 L357.7,337.3 L360.2,337.3 L362.7,337.4 L365.2,337.4 L367.6,337.4 L370.1,337.5 L372.6,337.5 L375.1,337.5 L377.5,337.6 L380,337.6 L382.5,337.6 L385,337.6 L387.5,337.7 L389.9,337.7 L392.4,337.7 L394.9,337.7 L397.4,337.7 L399.9,337.8 L402.3,337.8 L404.8,337.8 L407.3,337.8 L409.8,337.8 L412.2,337.8 L414.7,337.8 L417.2,337.9 L419.7,337.9 L422.2,337.9 L424.6,337.9 L427.1,337.9 L429.6,337.9 L432.1,337.9 L434.6,337.9 L437,338 L439.5,338 L442,338 L444.5,338 L446.9,338 L449.4,338 L451.9,338 L454.4,338 L456.9,338 L459.3,338 L461.8,338 L464.3,338 L466.8,338 L469.3,338.1 L471.7,338.1 L474.2,338.1 L476.7,338.1 L479.2,338.1 L481.6,338.1 L484.1,338.1 L486.6,338.1 L489.1,338.1 L491.6,338.1 L494,338.1 L496.5,338.1 L499,338.1 L501.5,338.1 L504,338.1 L506.4,338.1 L508.9,338.1 L511.4,338.1 L513.9,338.1 L516.3,338.1 L518.8,338.1 L521.3,338.1 L523.8,338.1 L526.3,338.1 L528.7,338.1 L531.2,338.1 L533.7,338.1 L536.2,338.2 L538.7,338.2 L541.1,338.2 L543.6,338.2 L546.1,338.2 L548.6,338.2 L551,338.2 L553.5,338.2 L556,338.2 L558.5,338.2 L561,338.2 L563.4,338.2 L565.9,338.2 " fill="none"/></g>
<g clip-path="url(#plot_window)" stroke="rgb(139,0,0)" stroke-width="1"><path d="M70.2,201.1 L72.68,206.2 L75.16,211.2 L77.64,216 L80.11,220.6 L82.59,225.1 L85.07,229.3 L87.55,233.4 L90.03,237.4 L92.51,241.2 L94.99,244.8 L97.46,248.4 L99.94,251.8 L102.4,255 L104.9,258.1 L107.4,261.2 L109.9,264.1 L112.3,266.9 L114.8,269.6 L117.3,272.1 L119.8,274.6 L122.3,277 L124.7,279.3 L127.2,281.6 L129.7,283.7 L132.2,285.8 L134.6,287.7 L137.1,289.6 L139.6,291.5 L142.1,293.2 L144.6,294.9 L147,296.6 L149.5,298.1 L152,299.6 L154.5,301.1 L157,302.5 L159.4,303.8 L161.9,305.1 L164.4,306.4 L166.9,307.6 L169.3,308.7 L171.8,309.8 L174.3,310.9 L176.8,311.9 L179.3,312.9 L181.7,313.9 L184.2,314.8 L186.7,315.7 L189.2,316.5 L191.7,317.4 L194.1,318.1 L196.6,318.9 L199.1,319.6 L201.6,320.3 L204,321 L206.5,321.6 L209,322.3 L211.5,322.9 L214,323.5 L216.4,324 L218.9,324.5 L221.4,325.1 L223.9,325.6 L226.4,326 L228.8,326.5 L231.3,326.9 L233.8,327.4 L236.3,327.8 L238.7,328.2 L241.2,328.5 L243.7,328.9 L246.2,329.3 L248.7,329.6 L251.1,329.9 L253.6,330.2 L256.1,330.5 L258.6,330.8 L261.1,331.1 L263.5,331.4 L266,331.6 L268.5,331.9 L271,332.1 L273.4,332.3 L275.9,332.6 L278.4,332.8 L280.9,333 L283.4,333.2 L285.8,333.4 L288.3,333.5 L290.8,333.7 L293.3,333.9 L295.8,334.1 L298.2,334.2 L300.7,334.4 L303.2,334.5 L305.7,334.6 L308.1,334.8 L310.6,334.9 L313.1,335 L315.6,335.2 L318.1,335.3 L320.5,335.4 L323,335.5 L325.5,335.6 L328,335.7 L330.5,335.8 L332.9,335.9 L335.4,336 L337.9,336 L340.4,336.1 L342.8,336.2 L345.3,336.3 L347.8,336.4 L350.3,336.4 L352.8,336.5 L355.2,336.6 L357.7,336.6 L360.2,336.7 L362.7,336.7 L365.2,336.8 L367.6,336.8 L370.1,336.9 L372.6,336.9 L375.1,337 L377.5,337 L380,337.1 L382.5,337.1 L385,337.2 L387.5,337.2 L389.9,337.2 L392.4,337.3 L394.9,337.3 L397.4,337.3 L399.9,337.4 L402.3,337.4 L404.8,337.4 L407.3,337.5 L409.8,337.5 L412.2,337.5 L414.7,337.5 L417.2,337.6 L419.7,337.6 L422.2,337.6 L424.6,337.6 L427.1,337.7 L429.6,337.7 L432.1,337.7 L434.6,337.7 L437,337.7 L439.5,337.8 L442,337.8 L444.5,337.8 L446.9,337.8 L449.4,337.8 L451.9,337.8 L454.4,337.8 L456.9,337.9 L459.3,337.9 L461.8,337.9 L464.3,337.9 L466.8,337.9 L469.3,337.9 L471.7,337.9 L474.2,337.9 L476.7,337.9 L479.2,338 L481.6,338 L484.1,338 L486.6,338 L489.1,338 L491.6,338 L494,338 L496.5,338 L499,338 L501.5,338 L504,338 L506.4,338 L508.9,338 L511.4,338.1 L513.9,338.1 L516.3,338.1 L518.8,338.1 L521.3,338.1 L523.8,338.1 L526.3,338.1 L528.7,338.1 L531.2,338.1 L533.7,338.1 L536.2,338.1 L538.7,338.1 L541.1,338.1 L543.6,338.1 L546.1,338.1 L548.6,338.1 L551,338.1 L553.5,338.1 L556,338.1 L558.5,338.1 L561,338.1 L563.4,338.1 L565.9,338.1 " fill="none"/></g>
<g clip-path="url(#plot_window)" stroke="rgb(0,100,0)" stroke-width="1"><path d="M70.2,338.2 L72.68,338.1 L75.16,337.8 L77.64,337.4 L80.11,336.8 L82.59,336.1 L85.07,335.3 L87.55,334.4 L90.03,333.4 L92.51,332.4 L94.99,331.3 L97.46,330.2 L99.94,329 L102.4,327.8 L104.9,326.6 L107.4,325.4 L109.9,324.2 L112.3,323 L114.8,321.8 L117.3,320.6 L119.8,319.4 L122.3,318.3 L124.7,317.1 L127.2,316.1 L129.7,315 L132.2,314 L134.6,313 L137.1,312 L139.6,311.1 L142.1,310.3 L144.6,309.4 L147,308.6 L149.5,307.9 L152,307.2 L154.5,306.5 L157,305.9 L159.4,305.3 L161.9,304.7 L164.4,304.2 L166.9,303.8 L169.3,303.4 L171.8,303 L174.3,302.6 L176.8,302.3 L179.3,302.1 L181.7,301.8 L184.2,301.6 L186.7,301.5 L189.2,301.3 L191.7,301.2 L194.1,301.1 L196.6,301.1 L199.1,301.1 L201.6,301.1 L204,301.1 L206.5,301.2 L209,301.3 L211.5,301.4 L214,301.5 L216.4,301.7 L218.9,301.9 L221.4,302.1 L223.9,302.3 L226.4,302.5 L228.8,302.8 L231.3,303 L233.8,303.3 L236.3,303.6 L238.7,303.9 L241.2,304.2 L243.7,304.5 L246.2,304.9 L248.7,305.2 L251.1,305.6 L253.6,305.9 L256.1,306.3 L258.6,306.7 L261.1,307.1 L263.5,307.5 L266,307.9 L268.5,308.3 L271,308.7 L273.4,309.1 L275.9,309.5 L278.4,309.9 L280.9,310.3 L283.4,310.7 L285.8,311.1 L288.3,311.6 L290.8,312 L293.3,312.4 L295.8,312.8 L298.2,313.2 L300.7,313.7 L303.2,314.1 L305.7,314.5 L308.1,314.9 L310.6,315.3 L313.1,315.7 L315.6,316.1 L318.1,316.5 L320.5,316.9 L323,317.3 L325.5,317.7 L328,318.1 L330.5,318.5 L332.9,318.9 L335.4,319.2 L337.9,319.6 L340.4,320 L342.8,320.3 L345.3,320.7 L347.8,321.1 L350.3,321.4 L352.8,321.7 L355.2,322.1 L357.7,322.4 L360.2,322.8 L362.7,323.1 L365.2,323.4 L367.6,323.7 L370.1,324 L372.6,324.3 L375.1,324.7 L377.5,324.9 L380,325.2 L382.5,325.5 L385,325.8 L387.5,326.1 L389.9,326.4 L392.4,326.6 L394.9,326.9 L397.4,327.2 L399.9,327.4 L402.3,327.7 L404.8,327.9 L407.3,328.2 L409.8,328.4 L412.2,328.6 L414.7,328.8 L417.2,329.1 L419.7,329.3 L422.2,329.5 L424.6,329.7 L427.1,329.9 L429.6,330.1 L432.1,330.3 L434.6,330.5 L437,330.7 L439.5,330.9 L442,331.1 L444.5,331.2 L446.9,331.4 L449.4,331.6 L451.9,331.8 L454.4,331.9 L456.9,332.1 L459.3,332.2 L461.8,332.4 L464.3,332.5 L466.8,332.7 L469.3,332.8 L471.7,333 L474.2,333.1 L476.7,333.2 L479.2,333.3 L481.6,333.5 L484.1,333.6 L486.6,333.7 L489.1,333.8 L491.6,334 L494,334.1 L496.5,334.2 L499,334.3 L501.5,334.4 L504,334.5 L506.4,334.6 L508.9,334.7 L511.4,334.8 L513.9,334.9 L516.3,335 L518.8,335 L521.3,335.1 L523.8,335.2 L526.3,335.3 L528.7,335.4 L531.2,335.5 L533.7,335.5 L536.2,335.6 L538.7,335.7 L541.1,335.7 L543.6,335.8 L546.1,335.9 L548.6,335.9 L551,336 L553.5,336.1 L556,336.1 L558.5,336.2 L561,336.2 L563.4,336.3 L565.9,336.3 " fill="none"/></g>
</g>
<g id="plotPoints" clip-path="url(#plot_window)"></g>
<g id="legendBackground" stroke="rgb(119,136,153)" fill="rgb(255,255,255)" stroke-width="1"><rect x="579.9" y="62" width="158.1" height="105"/><rect x="579.9" y="62" width="158.1" height="105"/></g>
<g id="legendPoints"><g stroke="rgb(0,0,139)" fill="rgb(255,255,255)" stroke-width="1"><line x1="594.9" y1="92" x2="609.9" y2="92"/></g>
<g stroke="rgb(139,0,0)" fill="rgb(255,255,255)" stroke-width="1"><line x1="594.9" y1="122" x2="609.9" y2="122"/></g>
<g stroke="rgb(0,100,0)" fill="rgb(255,255,255)" stroke-width="1"><line x1="594.9" y1="152" x2="609.9" y2="152"/></g>
</g>
<g id="legendText">
<text x="617.4" y="92" font-size="15" font-family="Verdana">shape = 0.75</text>
<text x="617.4" y="122" font-size="15" font-family="Verdana">shape = 1</text>
<text x="617.4" y="152" font-size="15" font-family="Verdana">shape = 3</text></g>
<g id="title">
<text x="375" y="40" text-anchor="middle" font-size="20" font-family="Verdana">Gamma Distribution PDF With Scale = 1</text></g>
<g id="plotXValues"></g>
<g id="plotYValues"></g>
</svg>
