<?xml version="1.0" encoding="UTF-8" standalone="no"?>
<svg width="750" height ="400" version="1.1"
xmlns:svg ="http://www.w3.org/2000/svg"
xmlns:rdf="http://www.w3.org/1999/02/22-rdf-syntax-ns#"
xmlns:cc="http://web.resource.org/cc/"
xmlns:dc="http://purl.org/dc/elements/1.1/"
xmlns ="http://www.w3.org/2000/svg"
>
<!-- SVG plot written using Boost.Plot program (Creator Jacob Voytko) --> 
<!-- Use, modification and distribution of Boost.Plot subject to the --> 
<!-- Boost Software License, Version 1.0.--> 
<!-- (See accompanying file LICENSE_1_0.txt --> 
<!-- or copy at http://www.boost.org/LICENSE_1_0.txt) --> 

<clipPath id="plot_window"><rect x="79.6" y="63" width="438.3" height="271.4"/></clipPath>
<g id="imageBackground" stroke="rgb(119,136,153)" fill="rgb(255,255,255)" stroke-width="2"><rect x="0" y="0" width="750" height="400"/></g>
<g id="plotBackground" stroke="rgb(119,136,153)" fill="rgb(255,255,255)" stroke-width="2"><rect x="78.6" y="62" width="440.3" height="273.4"/></g>
<g id="yMinorGrid" stroke="rgb(200,220,255)" stroke-width="0.5"></g>
<g id="yMajorGrid" stroke="rgb(200,220,255)" stroke-width="1"></g>
<g id="xMinorGrid" stroke="rgb(200,220,255)" stroke-width="0.5"></g>
<g id="xMajorGrid" stroke="rgb(200,220,255)" stroke-width="1"></g>
<g id="yAxis" stroke="rgb(0,0,0)" stroke-width="1"><line x1="82.92" y1="62" x2="82.92" y2="340.4"/><line x1="78.6" y1="62" x2="78.6" y2="335.4"/></g>
<g id="xAxis" stroke="rgb(0,0,0)" stroke-width="1"><line x1="73.6" y1="335.4" x2="518.9" y2="335.4"/><line x1="73.6" y1="335.4" x2="518.9" y2="335.4"/></g>
<g id="yMinorTicks" stroke="rgb(0,0,0)" stroke-width="1"><path d="M76.6,322.6 L78.6,322.6 M76.6,309.9 L78.6,309.9 M76.6,297.1 L78.6,297.1 M76.6,284.4 L78.6,284.4 M76.6,258.9 L78.6,258.9 M76.6,246.1 L78.6,246.1 M76.6,233.4 L78.6,233.4 M76.6,220.6 L78.6,220.6 M76.6,195.1 L78.6,195.1 M76.6,182.4 L78.6,182.4 M76.6,169.6 L78.6,169.6 M76.6,156.9 L78.6,156.9 M76.6,131.4 L78.6,131.4 M76.6,118.6 L78.6,118.6 M76.6,105.8 L78.6,105.8 M76.6,93.09 L78.6,93.09 M76.6,67.59 L78.6,67.59 M76.6,335.4 L78.6,335.4 " fill="none"/></g>
<g id="xMinorTicks" stroke="rgb(0,0,0)" stroke-width="1"></g>
<g id="yMajorTicks" stroke="rgb(0,0,0)" stroke-width="2"><path d="M73.6,335.4 L78.6,335.4 M73.6,271.6 L78.6,271.6 M73.6,207.9 L78.6,207.9 M73.6,144.1 L78.6,144.1 M73.6,80.34 L78.6,80.34 M73.6,335.4 L78.6,335.4 " fill="none"/></g>
<g id="xMajorTicks" stroke="rgb(0,0,0)" stroke-width="2"><path d="M82.92,335.4 L82.92,340.4 M169.2,335.4 L169.2,340.4 M255.6,335.4 L255.6,340.4 M341.9,335.4 L341.9,340.4 M428.2,335.4 L428.2,340.4 M514.6,335.4 L514.6,340.4 M82.92,335.4 L82.92,340.4 " fill="none"/></g>
<g id="plotLabels">
<text x="82.92" y="357.2" text-anchor="middle" font-size="14" font-family="Verdana">0</text>
<text x="169.2" y="357.2" text-anchor="middle" font-size="14" font-family="Verdana">10</text>
<text x="255.6" y="357.2" text-anchor="middle" font-size="14" font-family="Verdana">20</text>
<text x="341.9" y="357.2" text-anchor="middle" font-size="14" font-family="Verdana">30</text>
<text x="428.2" y="357.2" text-anchor="middle" font-size="14" font-family="Verdana">40</text>
<text x="514.6" y="357.2" text-anchor="middle" font-size="14" font-family="Verdana">50</text>
<text x="82.92" y="357.2" text-anchor="middle" font-size="14" font-family="Verdana">0</text>
<text x="67.6" y="337.8" text-anchor="end" font-size="12" font-family="Verdana">0</text>
<text x="67.6" y="274" text-anchor="end" font-size="12" font-family="Verdana">0.05</text>
<text x="67.6" y="210.3" text-anchor="end" font-size="12" font-family="Verdana">0.1</text>
<text x="67.6" y="146.5" text-anchor="end" font-size="12" font-family="Verdana">0.15</text>
<text x="67.6" y="82.74" text-anchor="end" font-size="12" font-family="Verdana">0.2</text>
<text x="67.6" y="337.8" text-anchor="end" font-size="12" font-family="Verdana">0</text></g>
<g id="yLabel">
<text x="30.2" y="198.7" text-anchor="middle" transform = "rotate(-90 30.2 198.7 )" font-size="14" font-family="Verdana">Probability</text></g>
<g id="xLabel">
<text x="298.7" y="388" text-anchor="middle" font-size="14" font-family="Verdana">Random Variable</text></g>
<g id="plotLines" stroke-width="2"><g clip-path="url(#plot_window)" stroke="rgb(0,0,139)" fill="rgb(0,0,139)" stroke-width="1"><path d="M79.68,335.4 L79.68,335.4 L79.68,330.5 L80.97,330.5 L80.97,335.4 L88.31,335.4 L88.31,304.8 L89.61,304.8 L89.61,335.4 L96.94,335.4 L96.95,244.1 L98.24,244.1 L98.24,335.4 L105.6,335.4 L105.6,161.4 L106.9,161.4 L106.9,335.4 L114.2,335.4 L114.2,97.54 L115.5,97.54 L115.5,335.4 L122.8,335.4 L122.8,86.85 L124.1,86.85 L124.1,335.4 L131.5,335.4 L131.5,128.8 L132.8,128.8 L132.8,335.4 L140.1,335.4 L140.1,195 L141.4,195 L141.4,335.4 L148.7,335.4 L148.7,255.9 L150,255.9 L150,335.4 L157.4,335.4 L157.4,297.3 L158.7,297.3 L158.7,335.4 L166,335.4 L166,319.8 L167.3,319.8 L167.3,335.4 L174.6,335.4 L174.6,329.9 L175.9,329.9 L175.9,335.4 L183.3,335.4 L183.3,333.7 L184.6,333.7 L184.6,335.4 L191.9,335.4 L191.9,334.9 L193.2,334.9 L193.2,335.4 L200.5,335.4 L200.5,335.3 L201.8,335.3 L201.8,335.4 L209.2,335.4 L209.2,335.4 L210.5,335.4 L210.5,335.4 L217.8,335.4 L217.8,335.4 L219.1,335.4 L219.1,335.4 L226.4,335.4 L226.4,335.4 L227.7,335.4 L227.7,335.4 L235.1,335.4 L235.1,335.4 L236.4,335.4 L236.4,335.4 L243.7,335.4 L243.7,335.4 L245,335.4 L245,335.4 L252.3,335.4 L252.3,335.4 L253.6,335.4 L253.6,335.4 L261,335.4 L261,335.4 L262.3,335.4 L262.3,335.4 L269.6,335.4 L269.6,335.4 L270.9,335.4 L270.9,335.4 L278.2,335.4 L278.2,335.4 L279.5,335.4 L279.5,335.4 L286.9,335.4 L286.9,335.4 L288.2,335.4 L288.2,335.4 L295.5,335.4 L295.5,335.4 L296.8,335.4 L296.8,335.4 L304.1,335.4 L304.1,335.4 L305.4,335.4 L305.4,335.4 L312.8,335.4 L312.8,335.4 L314.1,335.4 L314.1,335.4 L321.4,335.4 L321.4,335.4 L322.7,335.4 L322.7,335.4 L330,335.4 L330,335.4 L331.3,335.4 L331.3,335.4 L338.7,335.4 L338.7,335.4 L340,335.4 L340,335.4 L347.3,335.4 L347.3,335.4 L348.6,335.4 L348.6,335.4 L355.9,335.4 L355.9,335.4 L357.2,335.4 L357.2,335.4 L364.6,335.4 L364.6,335.4 L365.9,335.4 L365.9,335.4 L373.2,335.4 L373.2,335.4 L374.5,335.4 L374.5,335.4 L381.8,335.4 L381.8,335.4 L383.1,335.4 L383.1,335.4 L390.5,335.4 L390.5,335.4 L391.8,335.4 L391.8,335.4 L399.1,335.4 L399.1,335.4 L400.4,335.4 L400.4,335.4 L407.7,335.4 L407.7,335.4 L409,335.4 L409,335.4 L416.4,335.4 L416.4,335.4 L417.7,335.4 L417.7,335.4 L425,335.4 L425,335.4 L426.3,335.4 L426.3,335.4 L433.6,335.4 L433.6,335.4 L434.9,335.4 L434.9,335.4 L442.3,335.4 L442.3,335.4 L443.6,335.4 L443.6,335.4 L450.9,335.4 L450.9,335.4 L452.2,335.4 L452.2,335.4 L459.5,335.4 L459.5,335.4 L460.8,335.4 L460.8,335.4 L468.2,335.4 L468.2,335.4 L469.5,335.4 L469.5,335.4 L476.8,335.4 L476.8,335.4 L478.1,335.4 L478.1,335.4 L485.4,335.4 L485.4,335.4 L486.7,335.4 L486.7,335.4 L494.1,335.4 L494.1,335.4 L495.4,335.4 L495.4,335.4 L502.7,335.4 L502.7,335.4 L504,335.4 L504,335.4 L511.3,335.4 L511.3,335.4 L512.6,335.4 L512.6,335.4 L512.6,335.4 Z" fill="rgb(0,0,139)"/></g>
<g clip-path="url(#plot_window)" stroke="rgb(139,0,0)" fill="rgb(139,0,0)" stroke-width="1"><path d="M80.97,335.4 L80.97,335.4 L80.97,335.4 L82.27,335.4 L82.27,335.4 L89.61,335.4 L89.61,335.3 L90.9,335.3 L90.9,335.4 L98.24,335.4 L98.24,334.5 L99.53,334.5 L99.53,335.4 L106.9,335.4 L106.9,331.3 L108.2,331.3 L108.2,335.4 L115.5,335.4 L115.5,322.2 L116.8,322.2 L116.8,335.4 L124.1,335.4 L124.1,302.6 L125.4,302.6 L125.4,335.4 L132.8,335.4 L132.8,269.8 L134.1,269.8 L134.1,335.4 L141.4,335.4 L141.4,226.8 L142.7,226.8 L142.7,335.4 L150,335.4 L150,183.8 L151.3,183.8 L151.3,335.4 L158.7,335.4 L158.7,154.1 L160,154.1 L160,335.4 L167.3,335.4 L167.3,147.5 L168.6,147.5 L168.6,335.4 L175.9,335.4 L175.9,165 L177.2,165 L177.2,335.4 L184.6,335.4 L184.6,199.3 L185.9,199.3 L185.9,335.4 L193.2,335.4 L193.2,238.9 L194.5,238.9 L194.5,335.4 L201.8,335.4 L201.8,274.5 L203.1,274.5 L203.1,335.4 L210.5,335.4 L210.5,300.9 L211.8,300.9 L211.8,335.4 L219.1,335.4 L219.1,317.9 L220.4,317.9 L220.4,335.4 L227.7,335.4 L227.7,327.4 L229,327.4 L229,335.4 L236.4,335.4 L236.4,332.1 L237.7,332.1 L237.7,335.4 L245,335.4 L245,334.2 L246.3,334.2 L246.3,335.4 L253.6,335.4 L253.6,335 L254.9,335 L254.9,335.4 L262.3,335.4 L262.3,335.3 L263.6,335.3 L263.6,335.4 L270.9,335.4 L270.9,335.4 L272.2,335.4 L272.2,335.4 L279.5,335.4 L279.5,335.4 L280.8,335.4 L280.8,335.4 L288.2,335.4 L288.2,335.4 L289.5,335.4 L289.5,335.4 L296.8,335.4 L296.8,335.4 L298.1,335.4 L298.1,335.4 L305.4,335.4 L305.4,335.4 L306.7,335.4 L306.7,335.4 L314.1,335.4 L314.1,335.4 L315.4,335.4 L315.4,335.4 L322.7,335.4 L322.7,335.4 L324,335.4 L324,335.4 L331.3,335.4 L331.3,335.4 L332.6,335.4 L332.6,335.4 L340,335.4 L340,335.4 L341.3,335.4 L341.3,335.4 L348.6,335.4 L348.6,335.4 L349.9,335.4 L349.9,335.4 L357.2,335.4 L357.2,335.4 L358.5,335.4 L358.5,335.4 L365.9,335.4 L365.9,335.4 L367.2,335.4 L367.2,335.4 L374.5,335.4 L374.5,335.4 L375.8,335.4 L375.8,335.4 L383.1,335.4 L383.1,335.4 L384.4,335.4 L384.4,335.4 L391.8,335.4 L391.8,335.4 L393.1,335.4 L393.1,335.4 L400.4,335.4 L400.4,335.4 L401.7,335.4 L401.7,335.4 L409,335.4 L409,335.4 L410.3,335.4 L410.3,335.4 L417.7,335.4 L417.7,335.4 L419,335.4 L419,335.4 L426.3,335.4 L426.3,335.4 L427.6,335.4 L427.6,335.4 L434.9,335.4 L434.9,335.4 L436.2,335.4 L436.2,335.4 L443.6,335.4 L443.6,335.4 L444.9,335.4 L444.9,335.4 L452.2,335.4 L452.2,335.4 L453.5,335.4 L453.5,335.4 L460.8,335.4 L460.8,335.4 L462.1,335.4 L462.1,335.4 L469.5,335.4 L469.5,335.4 L470.8,335.4 L470.8,335.4 L478.1,335.4 L478.1,335.4 L479.4,335.4 L479.4,335.4 L486.7,335.4 L486.7,335.4 L488,335.4 L488,335.4 L495.4,335.4 L495.4,335.4 L496.7,335.4 L496.7,335.4 L504,335.4 L504,335.4 L505.3,335.4 L505.3,335.4 L512.6,335.4 L512.6,335.4 L513.9,335.4 L513.9,335.4 L513.9,335.4 Z" fill="rgb(139,0,0)"/></g>
<g clip-path="url(#plot_window)" stroke="rgb(0,100,0)" fill="rgb(0,100,0)" stroke-width="1"><path d="M82.27,335.4 L82.27,335.4 L82.27,335.4 L83.56,335.4 L83.56,335.4 L90.9,335.4 L90.9,335.4 L92.2,335.4 L92.2,335.4 L99.53,335.4 L99.53,335.4 L100.8,335.4 L100.8,335.4 L108.2,335.4 L108.2,335.4 L109.5,335.4 L109.5,335.4 L116.8,335.4 L116.8,335.4 L118.1,335.4 L118.1,335.4 L125.4,335.4 L125.4,335.4 L126.7,335.4 L126.7,335.4 L134.1,335.4 L134.1,335.4 L135.4,335.4 L135.4,335.4 L142.7,335.4 L142.7,335.4 L144,335.4 L144,335.4 L151.3,335.4 L151.3,335.4 L152.6,335.4 L152.6,335.4 L160,335.4 L160,335.4 L161.3,335.4 L161.3,335.4 L168.6,335.4 L168.6,335.4 L169.9,335.4 L169.9,335.4 L177.2,335.4 L177.2,335.4 L178.5,335.4 L178.5,335.4 L185.9,335.4 L185.9,335.3 L187.2,335.3 L187.2,335.4 L194.5,335.4 L194.5,335.2 L195.8,335.2 L195.8,335.4 L203.1,335.4 L203.1,334.7 L204.4,334.7 L204.4,335.4 L211.8,335.4 L211.8,333.7 L213.1,333.7 L213.1,335.4 L220.4,335.4 L220.4,331.3 L221.7,331.3 L221.7,335.4 L229,335.4 L229,326.5 L230.3,326.5 L230.3,335.4 L237.7,335.4 L237.7,318.1 L239,318.1 L239,335.4 L246.3,335.4 L246.3,304.5 L247.6,304.5 L247.6,335.4 L254.9,335.4 L254.9,285 L256.2,285 L256.2,335.4 L263.6,335.4 L263.6,260.5 L264.9,260.5 L264.9,335.4 L272.2,335.4 L272.2,233.6 L273.5,233.6 L273.5,335.4 L280.8,335.4 L280.8,208.7 L282.1,208.7 L282.1,335.4 L289.5,335.4 L289.5,190.9 L290.8,190.9 L290.8,335.4 L298.1,335.4 L298.1,184.5 L299.4,184.5 L299.4,335.4 L306.7,335.4 L306.7,190.9 L308,190.9 L308,335.4 L315.4,335.4 L315.4,208.7 L316.7,208.7 L316.7,335.4 L324,335.4 L324,233.6 L325.3,233.6 L325.3,335.4 L332.6,335.4 L332.6,260.5 L333.9,260.5 L333.9,335.4 L341.3,335.4 L341.3,285 L342.6,285 L342.6,335.4 L349.9,335.4 L349.9,304.5 L351.2,304.5 L351.2,335.4 L358.5,335.4 L358.5,318.1 L359.8,318.1 L359.8,335.4 L367.2,335.4 L367.2,326.5 L368.5,326.5 L368.5,335.4 L375.8,335.4 L375.8,331.3 L377.1,331.3 L377.1,335.4 L384.4,335.4 L384.4,333.7 L385.7,333.7 L385.7,335.4 L393.1,335.4 L393.1,334.7 L394.3,334.7 L394.3,335.4 L401.7,335.4 L401.7,335.2 L403,335.2 L403,335.4 L410.3,335.4 L410.3,335.3 L411.6,335.3 L411.6,335.4 L419,335.4 L419,335.4 L420.2,335.4 L420.2,335.4 L427.6,335.4 L427.6,335.4 L428.9,335.4 L428.9,335.4 L436.2,335.4 L436.2,335.4 L437.5,335.4 L437.5,335.4 L444.9,335.4 L444.9,335.4 L446.1,335.4 L446.1,335.4 L453.5,335.4 L453.5,335.4 L454.8,335.4 L454.8,335.4 L462.1,335.4 L462.1,335.4 L463.4,335.4 L463.4,335.4 L470.8,335.4 L470.8,335.4 L472,335.4 L472,335.4 L479.4,335.4 L479.4,335.4 L480.7,335.4 L480.7,335.4 L488,335.4 L488,335.4 L489.3,335.4 L489.3,335.4 L496.7,335.4 L496.7,335.4 L497.9,335.4 L497.9,335.4 L505.3,335.4 L505.3,335.4 L506.6,335.4 L506.6,335.4 L513.9,335.4 L513.9,335.4 L515.2,335.4 L515.2,335.4 L515.2,335.4 Z" fill="rgb(0,100,0)"/></g>
<g clip-path="url(#plot_window)" stroke="rgb(255,140,0)" fill="rgb(255,140,0)" stroke-width="1"><path d="M83.56,335.4 L83.56,335.4 L83.56,335.4 L84.86,335.4 L84.86,335.4 L92.2,335.4 L92.2,335.4 L93.49,335.4 L93.49,335.4 L100.8,335.4 L100.8,335.4 L102.1,335.4 L102.1,335.4 L109.5,335.4 L109.5,335.4 L110.8,335.4 L110.8,335.4 L118.1,335.4 L118.1,335.4 L119.4,335.4 L119.4,335.4 L126.7,335.4 L126.7,335.4 L128,335.4 L128,335.4 L135.4,335.4 L135.4,335.4 L136.7,335.4 L136.7,335.4 L144,335.4 L144,335.4 L145.3,335.4 L145.3,335.4 L152.6,335.4 L152.6,335.4 L153.9,335.4 L153.9,335.4 L161.3,335.4 L161.3,335.4 L162.6,335.4 L162.6,335.4 L169.9,335.4 L169.9,335.4 L171.2,335.4 L171.2,335.4 L178.5,335.4 L178.5,335.4 L179.8,335.4 L179.8,335.4 L187.2,335.4 L187.2,335.4 L188.5,335.4 L188.5,335.4 L195.8,335.4 L195.8,335.4 L197.1,335.4 L197.1,335.4 L204.4,335.4 L204.4,335.4 L205.7,335.4 L205.7,335.4 L213.1,335.4 L213.1,335.4 L214.4,335.4 L214.4,335.4 L221.7,335.4 L221.7,335.4 L223,335.4 L223,335.4 L230.3,335.4 L230.3,335.4 L231.6,335.4 L231.6,335.4 L239,335.4 L239,335.4 L240.3,335.4 L240.3,335.4 L247.6,335.4 L247.6,335.4 L248.9,335.4 L248.9,335.4 L256.2,335.4 L256.2,335.4 L257.5,335.4 L257.5,335.4 L264.9,335.4 L264.9,335.4 L266.2,335.4 L266.2,335.4 L273.5,335.4 L273.5,335.4 L274.8,335.4 L274.8,335.4 L282.1,335.4 L282.1,335.4 L283.4,335.4 L283.4,335.4 L290.8,335.4 L290.8,335.4 L292,335.4 L292,335.4 L299.4,335.4 L299.4,335.4 L300.7,335.4 L300.7,335.4 L308,335.4 L308,335.4 L309.3,335.4 L309.3,335.4 L316.7,335.4 L316.7,335.4 L317.9,335.4 L317.9,335.4 L325.3,335.4 L325.3,335.4 L326.6,335.4 L326.6,335.4 L333.9,335.4 L333.9,335.3 L335.2,335.3 L335.2,335.4 L342.6,335.4 L342.6,335 L343.8,335 L343.8,335.4 L351.2,335.4 L351.2,334.2 L352.5,334.2 L352.5,335.4 L359.8,335.4 L359.8,332.1 L361.1,332.1 L361.1,335.4 L368.5,335.4 L368.5,327.4 L369.7,327.4 L369.7,335.4 L377.1,335.4 L377.1,317.9 L378.4,317.9 L378.4,335.4 L385.7,335.4 L385.7,300.9 L387,300.9 L387,335.4 L394.3,335.4 L394.3,274.5 L395.6,274.5 L395.6,335.4 L403,335.4 L403,238.9 L404.3,238.9 L404.3,335.4 L411.6,335.4 L411.6,199.3 L412.9,199.3 L412.9,335.4 L420.2,335.4 L420.2,165 L421.5,165 L421.5,335.4 L428.9,335.4 L428.9,147.5 L430.2,147.5 L430.2,335.4 L437.5,335.4 L437.5,154.1 L438.8,154.1 L438.8,335.4 L446.1,335.4 L446.1,183.8 L447.4,183.8 L447.4,335.4 L454.8,335.4 L454.8,226.8 L456.1,226.8 L456.1,335.4 L463.4,335.4 L463.4,269.8 L464.7,269.8 L464.7,335.4 L472,335.4 L472,302.6 L473.3,302.6 L473.3,335.4 L480.7,335.4 L480.7,322.2 L482,322.2 L482,335.4 L489.3,335.4 L489.3,331.3 L490.6,331.3 L490.6,335.4 L497.9,335.4 L497.9,334.5 L499.2,334.5 L499.2,335.4 L506.6,335.4 L506.6,335.3 L507.9,335.3 L507.9,335.4 L515.2,335.4 L515.2,335.4 L516.5,335.4 L516.5,335.4 L516.5,335.4 Z" fill="rgb(255,140,0)"/></g>
<g clip-path="url(#plot_window)" stroke="rgb(127,255,0)" fill="rgb(127,255,0)" stroke-width="1"><path d="M84.86,335.4 L84.86,335.4 L84.86,335.4 L86.15,335.4 L86.15,335.4 L93.49,335.4 L93.49,335.4 L94.79,335.4 L94.79,335.4 L102.1,335.4 L102.1,335.4 L103.4,335.4 L103.4,335.4 L110.8,335.4 L110.8,335.4 L112.1,335.4 L112.1,335.4 L119.4,335.4 L119.4,335.4 L120.7,335.4 L120.7,335.4 L128,335.4 L128,335.4 L129.3,335.4 L129.3,335.4 L136.7,335.4 L136.7,335.4 L138,335.4 L138,335.4 L145.3,335.4 L145.3,335.4 L146.6,335.4 L146.6,335.4 L153.9,335.4 L153.9,335.4 L155.2,335.4 L155.2,335.4 L162.6,335.4 L162.6,335.4 L163.9,335.4 L163.9,335.4 L171.2,335.4 L171.2,335.4 L172.5,335.4 L172.5,335.4 L179.8,335.4 L179.8,335.4 L181.1,335.4 L181.1,335.4 L188.5,335.4 L188.5,335.4 L189.7,335.4 L189.7,335.4 L197.1,335.4 L197.1,335.4 L198.4,335.4 L198.4,335.4 L205.7,335.4 L205.7,335.4 L207,335.4 L207,335.4 L214.4,335.4 L214.4,335.4 L215.6,335.4 L215.6,335.4 L223,335.4 L223,335.4 L224.3,335.4 L224.3,335.4 L231.6,335.4 L231.6,335.4 L232.9,335.4 L232.9,335.4 L240.3,335.4 L240.3,335.4 L241.5,335.4 L241.5,335.4 L248.9,335.4 L248.9,335.4 L250.2,335.4 L250.2,335.4 L257.5,335.4 L257.5,335.4 L258.8,335.4 L258.8,335.4 L266.2,335.4 L266.2,335.4 L267.4,335.4 L267.4,335.4 L274.8,335.4 L274.8,335.4 L276.1,335.4 L276.1,335.4 L283.4,335.4 L283.4,335.4 L284.7,335.4 L284.7,335.4 L292,335.4 L292,335.4 L293.3,335.4 L293.3,335.4 L300.7,335.4 L300.7,335.4 L302,335.4 L302,335.4 L309.3,335.4 L309.3,335.4 L310.6,335.4 L310.6,335.4 L317.9,335.4 L317.9,335.4 L319.2,335.4 L319.2,335.4 L326.6,335.4 L326.6,335.4 L327.9,335.4 L327.9,335.4 L335.2,335.4 L335.2,335.4 L336.5,335.4 L336.5,335.4 L343.8,335.4 L343.8,335.4 L345.1,335.4 L345.1,335.4 L352.5,335.4 L352.5,335.4 L353.8,335.4 L353.8,335.4 L361.1,335.4 L361.1,335.4 L362.4,335.4 L362.4,335.4 L369.7,335.4 L369.7,335.4 L371,335.4 L371,335.4 L378.4,335.4 L378.4,335.4 L379.7,335.4 L379.7,335.4 L387,335.4 L387,335.4 L388.3,335.4 L388.3,335.4 L395.6,335.4 L395.6,335.3 L396.9,335.3 L396.9,335.4 L404.3,335.4 L404.3,334.9 L405.6,334.9 L405.6,335.4 L412.9,335.4 L412.9,333.7 L414.2,333.7 L414.2,335.4 L421.5,335.4 L421.5,329.9 L422.8,329.9 L422.8,335.4 L430.2,335.4 L430.2,319.8 L431.5,319.8 L431.5,335.4 L438.8,335.4 L438.8,297.3 L440.1,297.3 L440.1,335.4 L447.4,335.4 L447.4,255.9 L448.7,255.9 L448.7,335.4 L456.1,335.4 L456.1,195 L457.4,195 L457.4,335.4 L464.7,335.4 L464.7,128.8 L466,128.8 L466,335.4 L473.3,335.4 L473.3,86.85 L474.6,86.85 L474.6,335.4 L482,335.4 L482,97.54 L483.3,97.54 L483.3,335.4 L490.6,335.4 L490.6,161.4 L491.9,161.4 L491.9,335.4 L499.2,335.4 L499.2,244.1 L500.5,244.1 L500.5,335.4 L507.9,335.4 L507.9,304.8 L509.2,304.8 L509.2,335.4 L516.5,335.4 L516.5,330.5 L517.8,330.5 L517.8,335.4 L517.8,335.4 Z" fill="rgb(127,255,0)"/></g>
</g>
<g id="plotPoints" clip-path="url(#plot_window)"></g>
<g id="legendBackground" stroke="rgb(119,136,153)" fill="rgb(255,255,255)" stroke-width="1"><rect x="532.9" y="62" width="205.1" height="165"/><rect x="532.9" y="62" width="205.1" height="165"/></g>
<g id="legendPoints"><g stroke="rgb(0,0,139)" stroke-width="1"><line x1="547.9" y1="92" x2="562.9" y2="92"/></g>
<g stroke="rgb(139,0,0)" stroke-width="1"><line x1="547.9" y1="122" x2="562.9" y2="122"/></g>
<g stroke="rgb(0,100,0)" stroke-width="1"><line x1="547.9" y1="152" x2="562.9" y2="152"/></g>
<g stroke="rgb(255,140,0)" stroke-width="1"><line x1="547.9" y1="182" x2="562.9" y2="182"/></g>
<g stroke="rgb(127,255,0)" stroke-width="1"><line x1="547.9" y1="212" x2="562.9" y2="212"/></g>
</g>
<g id="legendText">
<text x="570.4" y="92" font-size="15" font-family="Verdana">N=500, r=50, n=50</text>
<text x="570.4" y="122" font-size="15" font-family="Verdana">N=500, r=50, n=100</text>
<text x="570.4" y="152" font-size="15" font-family="Verdana">N=500, r=50, n=250</text>
<text x="570.4" y="182" font-size="15" font-family="Verdana">N=500, r=50, n=400</text>
<text x="570.4" y="212" font-size="15" font-family="Verdana">N=500, r=50, n=450</text></g>
<g id="title">
<text x="375" y="40" text-anchor="middle" font-size="20" font-family="Verdana">Hypergeometric Distribution PDF</text></g>
<g id="plotXValues"></g>
<g id="plotYValues"></g>
</svg>
