<?xml version="1.0" encoding="UTF-8" standalone="no"?>
<svg width="750" height ="400" version="1.1"
xmlns:svg ="http://www.w3.org/2000/svg"
xmlns:rdf="http://www.w3.org/1999/02/22-rdf-syntax-ns#"
xmlns:cc="http://web.resource.org/cc/"
xmlns:dc="http://purl.org/dc/elements/1.1/"
xmlns ="http://www.w3.org/2000/svg"
>
<!-- SVG plot written using Boost.Plot program (Creator Jacob Voytko) --> 
<!-- Use, modification and distribution of Boost.Plot subject to the --> 
<!-- Boost Software License, Version 1.0.--> 
<!-- (See accompanying file LICENSE_1_0.txt --> 
<!-- or copy at http://www.boost.org/LICENSE_1_0.txt) --> 

<clipPath id="plot_window"><rect x="79.6" y="63" width="438.3" height="271.4"/></clipPath>
<g id="imageBackground" stroke="rgb(119,136,153)" fill="rgb(255,255,255)" stroke-width="2"><rect x="0" y="0" width="750" height="400"/></g>
<g id="plotBackground" stroke="rgb(119,136,153)" fill="rgb(255,255,255)" stroke-width="2"><rect x="78.6" y="62" width="440.3" height="273.4"/></g>
<g id="yMinorGrid" stroke="rgb(200,220,255)" stroke-width="0.5"></g>
<g id="yMajorGrid" stroke="rgb(200,220,255)" stroke-width="1"></g>
<g id="xMinorGrid" stroke="rgb(200,220,255)" stroke-width="0.5"></g>
<g id="xMajorGrid" stroke="rgb(200,220,255)" stroke-width="1"></g>
<g id="yAxis" stroke="rgb(0,0,0)" stroke-width="1"><line x1="85.7" y1="62" x2="85.7" y2="340.4"/><line x1="78.6" y1="62" x2="78.6" y2="335.4"/></g>
<g id="xAxis" stroke="rgb(0,0,0)" stroke-width="1"><line x1="73.6" y1="335.4" x2="518.9" y2="335.4"/><line x1="73.6" y1="335.4" x2="518.9" y2="335.4"/></g>
<g id="yMinorTicks" stroke="rgb(0,0,0)" stroke-width="1"><path d="M76.6,325.2 L78.6,325.2 M76.6,315 L78.6,315 M76.6,304.8 L78.6,304.8 M76.6,294.6 L78.6,294.6 M76.6,274.2 L78.6,274.2 M76.6,263.9 L78.6,263.9 M76.6,253.7 L78.6,253.7 M76.6,243.5 L78.6,243.5 M76.6,223.1 L78.6,223.1 M76.6,212.9 L78.6,212.9 M76.6,202.7 L78.6,202.7 M76.6,192.5 L78.6,192.5 M76.6,172.1 L78.6,172.1 M76.6,161.9 L78.6,161.9 M76.6,151.7 L78.6,151.7 M76.6,141.4 L78.6,141.4 M76.6,121 L78.6,121 M76.6,110.8 L78.6,110.8 M76.6,100.6 L78.6,100.6 M76.6,90.41 L78.6,90.41 M76.6,69.99 L78.6,69.99 M76.6,335.4 L78.6,335.4 " fill="none"/></g>
<g id="xMinorTicks" stroke="rgb(0,0,0)" stroke-width="1"></g>
<g id="yMajorTicks" stroke="rgb(0,0,0)" stroke-width="2"><path d="M73.6,335.4 L78.6,335.4 M73.6,284.4 L78.6,284.4 M73.6,233.3 L78.6,233.3 M73.6,182.3 L78.6,182.3 M73.6,131.2 L78.6,131.2 M73.6,80.2 L78.6,80.2 M73.6,335.4 L78.6,335.4 " fill="none"/></g>
<g id="xMajorTicks" stroke="rgb(0,0,0)" stroke-width="2"><path d="M85.7,335.4 L85.7,340.4 M156.7,335.4 L156.7,340.4 M227.7,335.4 L227.7,340.4 M298.7,335.4 L298.7,340.4 M369.8,335.4 L369.8,340.4 M440.8,335.4 L440.8,340.4 M511.8,335.4 L511.8,340.4 M85.7,335.4 L85.7,340.4 " fill="none"/></g>
<g id="plotLabels">
<text x="85.7" y="357.2" text-anchor="middle" font-size="14" font-family="Verdana">0</text>
<text x="156.7" y="357.2" text-anchor="middle" font-size="14" font-family="Verdana">5</text>
<text x="227.7" y="357.2" text-anchor="middle" font-size="14" font-family="Verdana">10</text>
<text x="298.7" y="357.2" text-anchor="middle" font-size="14" font-family="Verdana">15</text>
<text x="369.8" y="357.2" text-anchor="middle" font-size="14" font-family="Verdana">20</text>
<text x="440.8" y="357.2" text-anchor="middle" font-size="14" font-family="Verdana">25</text>
<text x="511.8" y="357.2" text-anchor="middle" font-size="14" font-family="Verdana">30</text>
<text x="85.7" y="357.2" text-anchor="middle" font-size="14" font-family="Verdana">0</text>
<text x="67.6" y="337.8" text-anchor="end" font-size="12" font-family="Verdana">0</text>
<text x="67.6" y="286.8" text-anchor="end" font-size="12" font-family="Verdana">0.05</text>
<text x="67.6" y="235.7" text-anchor="end" font-size="12" font-family="Verdana">0.1</text>
<text x="67.6" y="184.7" text-anchor="end" font-size="12" font-family="Verdana">0.15</text>
<text x="67.6" y="133.6" text-anchor="end" font-size="12" font-family="Verdana">0.2</text>
<text x="67.6" y="82.6" text-anchor="end" font-size="12" font-family="Verdana">0.25</text>
<text x="67.6" y="337.8" text-anchor="end" font-size="12" font-family="Verdana">0</text></g>
<g id="yLabel">
<text x="30.2" y="198.7" text-anchor="middle" transform = "rotate(-90 30.2 198.7 )" font-size="14" font-family="Verdana">Probability</text></g>
<g id="xLabel">
<text x="298.7" y="388" text-anchor="middle" font-size="14" font-family="Verdana">Random Variable</text></g>
<g id="plotLines" stroke-width="2"><g clip-path="url(#plot_window)" stroke="rgb(0,0,139)" fill="rgb(0,0,139)" stroke-width="1"><path d="M80.38,335.4 L80.38,335.4 L80.38,296.3 L82.51,296.3 L82.51,335.4 L94.58,335.4 L94.58,196 L96.71,196 L96.71,335.4 L108.8,335.4 L108.8,100.7 L110.9,100.7 L110.9,335.4 L123,335.4 L123,86.85 L125.1,86.85 L125.1,335.4 L137.2,335.4 L137.2,149.4 L139.3,149.4 L139.3,335.4 L151.4,335.4 L151.4,230.7 L153.5,230.7 L153.5,335.4 L165.6,335.4 L165.6,289.3 L167.7,289.3 L167.7,335.4 L179.8,335.4 L179.8,319.1 L181.9,319.1 L181.9,335.4 L194,335.4 L194,330.7 L196.1,330.7 L196.1,335.4 L208.2,335.4 L208.2,334.3 L210.3,334.3 L210.3,335.4 L222.4,335.4 L222.4,335.2 L224.5,335.2 L224.5,335.4 L236.6,335.4 L236.6,335.4 L238.7,335.4 L238.7,335.4 L250.8,335.4 L250.8,335.4 L252.9,335.4 L252.9,335.4 L265,335.4 L265,335.4 L267.1,335.4 L267.1,335.4 L279.2,335.4 L279.2,335.4 L281.3,335.4 L281.3,335.4 L293.4,335.4 L293.4,335.4 L295.5,335.4 L295.5,335.4 L307.6,335.4 L307.6,335.4 L309.7,335.4 L309.7,335.4 L321.8,335.4 L321.8,335.4 L323.9,335.4 L323.9,335.4 L336,335.4 L336,335.4 L338.2,335.4 L338.2,335.4 L350.2,335.4 L350.2,335.4 L352.4,335.4 L352.4,335.4 L364.4,335.4 L364.4,335.4 L366.6,335.4 L366.6,335.4 L378.6,335.4 L378.6,335.4 L380.8,335.4 L380.8,335.4 L392.8,335.4 L392.8,335.4 L395,335.4 L395,335.4 L407,335.4 L407,335.4 L409.2,335.4 L409.2,335.4 L421.2,335.4 L421.2,335.4 L423.4,335.4 L423.4,335.4 L435.4,335.4 L435.4,335.4 L437.6,335.4 L437.6,335.4 L449.6,335.4 L449.6,335.4 L451.8,335.4 L451.8,335.4 L463.8,335.4 L463.8,335.4 L466,335.4 L466,335.4 L478,335.4 L478,335.4 L480.2,335.4 L480.2,335.4 L492.3,335.4 L492.3,335.4 L494.4,335.4 L494.4,335.4 L506.5,335.4 L506.5,335.4 L508.6,335.4 L508.6,335.4 L508.6,335.4 Z" fill="rgb(0,0,139)"/></g>
<g clip-path="url(#plot_window)" stroke="rgb(139,0,0)" fill="rgb(139,0,0)" stroke-width="1"><path d="M82.51,335.4 L82.51,335.4 L82.51,334.4 L84.64,334.4 L84.64,335.4 L96.71,335.4 L96.71,327.3 L98.84,327.3 L98.84,335.4 L110.9,335.4 L110.9,304 L113,304 L113,335.4 L125.1,335.4 L125.1,258.4 L127.2,258.4 L127.2,335.4 L139.3,335.4 L139.3,200.6 L141.4,200.6 L141.4,335.4 L153.5,335.4 L153.5,155.9 L155.6,155.9 L155.6,335.4 L167.7,335.4 L167.7,146.5 L169.9,146.5 L169.9,335.4 L181.9,335.4 L181.9,173.9 L184.1,173.9 L184.1,335.4 L196.1,335.4 L196.1,221.2 L198.3,221.2 L198.3,335.4 L210.3,335.4 L210.3,267.6 L212.5,267.6 L212.5,335.4 L224.5,335.4 L224.5,301.3 L226.7,301.3 L226.7,335.4 L238.7,335.4 L238.7,320.8 L240.9,320.8 L240.9,335.4 L252.9,335.4 L252.9,330 L255.1,330 L255.1,335.4 L267.1,335.4 L267.1,333.7 L269.3,333.7 L269.3,335.4 L281.3,335.4 L281.3,334.9 L283.5,334.9 L283.5,335.4 L295.5,335.4 L295.5,335.3 L297.7,335.3 L297.7,335.4 L309.7,335.4 L309.7,335.4 L311.9,335.4 L311.9,335.4 L323.9,335.4 L323.9,335.4 L326.1,335.4 L326.1,335.4 L338.2,335.4 L338.2,335.4 L340.3,335.4 L340.3,335.4 L352.4,335.4 L352.4,335.4 L354.5,335.4 L354.5,335.4 L366.6,335.4 L366.6,335.4 L368.7,335.4 L368.7,335.4 L380.8,335.4 L380.8,335.4 L382.9,335.4 L382.9,335.4 L395,335.4 L395,335.4 L397.1,335.4 L397.1,335.4 L409.2,335.4 L409.2,335.4 L411.3,335.4 L411.3,335.4 L423.4,335.4 L423.4,335.4 L425.5,335.4 L425.5,335.4 L437.6,335.4 L437.6,335.4 L439.7,335.4 L439.7,335.4 L451.8,335.4 L451.8,335.4 L453.9,335.4 L453.9,335.4 L466,335.4 L466,335.4 L468.1,335.4 L468.1,335.4 L480.2,335.4 L480.2,335.4 L482.3,335.4 L482.3,335.4 L494.4,335.4 L494.4,335.4 L496.5,335.4 L496.5,335.4 L508.6,335.4 L508.6,335.4 L510.7,335.4 L510.7,335.4 L510.7,335.4 Z" fill="rgb(139,0,0)"/></g>
<g clip-path="url(#plot_window)" stroke="rgb(0,100,0)" fill="rgb(0,100,0)" stroke-width="1"><path d="M84.64,335.4 L84.64,335.4 L84.64,335.4 L86.77,335.4 L86.77,335.4 L98.84,335.4 L98.84,335.4 L101,335.4 L101,335.4 L113,335.4 L113,335.4 L115.2,335.4 L115.2,335.4 L127.2,335.4 L127.2,335.4 L129.4,335.4 L129.4,335.4 L141.4,335.4 L141.4,335.4 L143.6,335.4 L143.6,335.4 L155.6,335.4 L155.6,335.3 L157.8,335.3 L157.8,335.4 L169.9,335.4 L169.9,335 L172,335 L172,335.4 L184.1,335.4 L184.1,333.9 L186.2,333.9 L186.2,335.4 L198.3,335.4 L198.3,330.7 L200.4,330.7 L200.4,335.4 L212.5,335.4 L212.5,323.4 L214.6,323.4 L214.6,335.4 L226.7,335.4 L226.7,308.9 L228.8,308.9 L228.8,335.4 L240.9,335.4 L240.9,285.4 L243,285.4 L243,335.4 L255.1,335.4 L255.1,253.8 L257.2,253.8 L257.2,335.4 L269.3,335.4 L269.3,219.9 L271.4,219.9 L271.4,335.4 L283.5,335.4 L283.5,193.4 L285.6,193.4 L285.6,335.4 L297.7,335.4 L297.7,183.3 L299.8,183.3 L299.8,335.4 L311.9,335.4 L311.9,193.4 L314,193.4 L314,335.4 L326.1,335.4 L326.1,219.9 L328.2,219.9 L328.2,335.4 L340.3,335.4 L340.3,253.8 L342.4,253.8 L342.4,335.4 L354.5,335.4 L354.5,285.4 L356.6,285.4 L356.6,335.4 L368.7,335.4 L368.7,308.9 L370.8,308.9 L370.8,335.4 L382.9,335.4 L382.9,323.4 L385,323.4 L385,335.4 L397.1,335.4 L397.1,330.7 L399.2,330.7 L399.2,335.4 L411.3,335.4 L411.3,333.9 L413.4,333.9 L413.4,335.4 L425.5,335.4 L425.5,335 L427.6,335 L427.6,335.4 L439.7,335.4 L439.7,335.3 L441.8,335.3 L441.8,335.4 L453.9,335.4 L453.9,335.4 L456,335.4 L456,335.4 L468.1,335.4 L468.1,335.4 L470.2,335.4 L470.2,335.4 L482.3,335.4 L482.3,335.4 L484.4,335.4 L484.4,335.4 L496.5,335.4 L496.5,335.4 L498.6,335.4 L498.6,335.4 L510.7,335.4 L510.7,335.4 L512.8,335.4 L512.8,335.4 L512.8,335.4 Z" fill="rgb(0,100,0)"/></g>
<g clip-path="url(#plot_window)" stroke="rgb(255,140,0)" fill="rgb(255,140,0)" stroke-width="1"><path d="M86.77,335.4 L86.77,335.4 L86.77,335.4 L88.9,335.4 L88.9,335.4 L101,335.4 L101,335.4 L103.1,335.4 L103.1,335.4 L115.2,335.4 L115.2,335.4 L117.3,335.4 L117.3,335.4 L129.4,335.4 L129.4,335.4 L131.5,335.4 L131.5,335.4 L143.6,335.4 L143.6,335.4 L145.7,335.4 L145.7,335.4 L157.8,335.4 L157.8,335.4 L159.9,335.4 L159.9,335.4 L172,335.4 L172,335.4 L174.1,335.4 L174.1,335.4 L186.2,335.4 L186.2,335.4 L188.3,335.4 L188.3,335.4 L200.4,335.4 L200.4,335.4 L202.5,335.4 L202.5,335.4 L214.6,335.4 L214.6,335.4 L216.7,335.4 L216.7,335.4 L228.8,335.4 L228.8,335.4 L230.9,335.4 L230.9,335.4 L243,335.4 L243,335.4 L245.1,335.4 L245.1,335.4 L257.2,335.4 L257.2,335.4 L259.3,335.4 L259.3,335.4 L271.4,335.4 L271.4,335.4 L273.5,335.4 L273.5,335.4 L285.6,335.4 L285.6,335.4 L287.7,335.4 L287.7,335.4 L299.8,335.4 L299.8,335.3 L301.9,335.3 L301.9,335.4 L314,335.4 L314,334.9 L316.1,334.9 L316.1,335.4 L328.2,335.4 L328.2,333.7 L330.3,333.7 L330.3,335.4 L342.4,335.4 L342.4,330 L344.5,330 L344.5,335.4 L356.6,335.4 L356.6,320.8 L358.7,320.8 L358.7,335.4 L370.8,335.4 L370.8,301.3 L372.9,301.3 L372.9,335.4 L385,335.4 L385,267.6 L387.2,267.6 L387.2,335.4 L399.2,335.4 L399.2,221.2 L401.4,221.2 L401.4,335.4 L413.4,335.4 L413.4,173.9 L415.6,173.9 L415.6,335.4 L427.6,335.4 L427.6,146.5 L429.8,146.5 L429.8,335.4 L441.8,335.4 L441.8,155.9 L444,155.9 L444,335.4 L456,335.4 L456,200.6 L458.2,200.6 L458.2,335.4 L470.2,335.4 L470.2,258.4 L472.4,258.4 L472.4,335.4 L484.4,335.4 L484.4,304 L486.6,304 L486.6,335.4 L498.6,335.4 L498.6,327.3 L500.8,327.3 L500.8,335.4 L512.8,335.4 L512.8,334.4 L515,334.4 L515,335.4 L515,335.4 Z" fill="rgb(255,140,0)"/></g>
<g clip-path="url(#plot_window)" stroke="rgb(127,255,0)" fill="rgb(127,255,0)" stroke-width="1"><path d="M88.9,335.4 L88.9,335.4 L88.9,335.4 L91.03,335.4 L91.03,335.4 L103.1,335.4 L103.1,335.4 L105.2,335.4 L105.2,335.4 L117.3,335.4 L117.3,335.4 L119.4,335.4 L119.4,335.4 L131.5,335.4 L131.5,335.4 L133.6,335.4 L133.6,335.4 L145.7,335.4 L145.7,335.4 L147.8,335.4 L147.8,335.4 L159.9,335.4 L159.9,335.4 L162,335.4 L162,335.4 L174.1,335.4 L174.1,335.4 L176.2,335.4 L176.2,335.4 L188.3,335.4 L188.3,335.4 L190.4,335.4 L190.4,335.4 L202.5,335.4 L202.5,335.4 L204.6,335.4 L204.6,335.4 L216.7,335.4 L216.7,335.4 L218.9,335.4 L218.9,335.4 L230.9,335.4 L230.9,335.4 L233.1,335.4 L233.1,335.4 L245.1,335.4 L245.1,335.4 L247.3,335.4 L247.3,335.4 L259.3,335.4 L259.3,335.4 L261.5,335.4 L261.5,335.4 L273.5,335.4 L273.5,335.4 L275.7,335.4 L275.7,335.4 L287.7,335.4 L287.7,335.4 L289.9,335.4 L289.9,335.4 L301.9,335.4 L301.9,335.4 L304.1,335.4 L304.1,335.4 L316.1,335.4 L316.1,335.4 L318.3,335.4 L318.3,335.4 L330.3,335.4 L330.3,335.4 L332.5,335.4 L332.5,335.4 L344.5,335.4 L344.5,335.4 L346.7,335.4 L346.7,335.4 L358.7,335.4 L358.7,335.4 L360.9,335.4 L360.9,335.4 L372.9,335.4 L372.9,335.2 L375.1,335.2 L375.1,335.4 L387.2,335.4 L387.2,334.3 L389.3,334.3 L389.3,335.4 L401.4,335.4 L401.4,330.7 L403.5,330.7 L403.5,335.4 L415.6,335.4 L415.6,319.1 L417.7,319.1 L417.7,335.4 L429.8,335.4 L429.8,289.3 L431.9,289.3 L431.9,335.4 L444,335.4 L444,230.7 L446.1,230.7 L446.1,335.4 L458.2,335.4 L458.2,149.4 L460.3,149.4 L460.3,335.4 L472.4,335.4 L472.4,86.85 L474.5,86.85 L474.5,335.4 L486.6,335.4 L486.6,100.7 L488.7,100.7 L488.7,335.4 L500.8,335.4 L500.8,196 L502.9,196 L502.9,335.4 L515,335.4 L515,296.3 L517.1,296.3 L517.1,335.4 L517.1,335.4 Z" fill="rgb(127,255,0)"/></g>
</g>
<g id="plotPoints" clip-path="url(#plot_window)"></g>
<g id="legendBackground" stroke="rgb(119,136,153)" fill="rgb(255,255,255)" stroke-width="1"><rect x="532.9" y="62" width="205.1" height="165"/><rect x="532.9" y="62" width="205.1" height="165"/></g>
<g id="legendPoints"><g stroke="rgb(0,0,139)" stroke-width="1"><line x1="547.9" y1="92" x2="562.9" y2="92"/></g>
<g stroke="rgb(139,0,0)" stroke-width="1"><line x1="547.9" y1="122" x2="562.9" y2="122"/></g>
<g stroke="rgb(0,100,0)" stroke-width="1"><line x1="547.9" y1="152" x2="562.9" y2="152"/></g>
<g stroke="rgb(255,140,0)" stroke-width="1"><line x1="547.9" y1="182" x2="562.9" y2="182"/></g>
<g stroke="rgb(127,255,0)" stroke-width="1"><line x1="547.9" y1="212" x2="562.9" y2="212"/></g>
</g>
<g id="legendText">
<text x="570.4" y="92" font-size="15" font-family="Verdana">N=500, r=50, n=30</text>
<text x="570.4" y="122" font-size="15" font-family="Verdana">N=500, r=100, n=30</text>
<text x="570.4" y="152" font-size="15" font-family="Verdana">N=500, r=250, n=30</text>
<text x="570.4" y="182" font-size="15" font-family="Verdana">N=500, r=400, n=30</text>
<text x="570.4" y="212" font-size="15" font-family="Verdana">N=500, r=450, n=30</text></g>
<g id="title">
<text x="375" y="40" text-anchor="middle" font-size="20" font-family="Verdana">Hypergeometric Distribution PDF</text></g>
<g id="plotXValues"></g>
<g id="plotYValues"></g>
</svg>
