<?xml version="1.0" encoding="UTF-8" standalone="no"?>
<svg width="750" height ="400" version="1.1"
xmlns:svg ="http://www.w3.org/2000/svg"
xmlns:rdf="http://www.w3.org/1999/02/22-rdf-syntax-ns#"
xmlns:cc="http://web.resource.org/cc/"
xmlns:dc="http://purl.org/dc/elements/1.1/"
xmlns ="http://www.w3.org/2000/svg"
>
<!-- SVG plot written using Boost.Plot program (Creator Jacob Voytko) --> 
<!-- Use, modification and distribution of Boost.Plot subject to the --> 
<!-- Boost Software License, Version 1.0.--> 
<!-- (See accompanying file LICENSE_1_0.txt --> 
<!-- or copy at http://www.boost.org/LICENSE_1_0.txt) --> 

<clipPath id="plot_window"><rect x="71.2" y="63" width="478" height="271.4"/></clipPath>
<g id="imageBackground" stroke="rgb(119,136,153)" fill="rgb(255,255,255)" stroke-width="2"><rect x="0" y="0" width="750" height="400"/></g>
<g id="plotBackground" stroke="rgb(119,136,153)" fill="rgb(255,255,255)" stroke-width="2"><rect x="70.2" y="62" width="480" height="273.4"/></g>
<g id="yMinorGrid" stroke="rgb(200,220,255)" stroke-width="0.5"></g>
<g id="yMajorGrid" stroke="rgb(200,220,255)" stroke-width="1"></g>
<g id="xMinorGrid" stroke="rgb(200,220,255)" stroke-width="0.5"></g>
<g id="xMajorGrid" stroke="rgb(200,220,255)" stroke-width="1"></g>
<g id="yAxis" stroke="rgb(0,0,0)" stroke-width="1"><line x1="310.4" y1="62" x2="310.4" y2="340.4"/><line x1="70.2" y1="62" x2="70.2" y2="335.4"/></g>
<g id="xAxis" stroke="rgb(0,0,0)" stroke-width="1"><line x1="65.2" y1="335.4" x2="550.2" y2="335.4"/><line x1="65.2" y1="335.4" x2="550.2" y2="335.4"/></g>
<g id="yMinorTicks" stroke="rgb(0,0,0)" stroke-width="1"><path d="M68.2,330.4 L70.2,330.4 M68.2,325.5 L70.2,325.5 M68.2,320.5 L70.2,320.5 M68.2,315.5 L70.2,315.5 M68.2,305.6 L70.2,305.6 M68.2,300.6 L70.2,300.6 M68.2,295.6 L70.2,295.6 M68.2,290.7 L70.2,290.7 M68.2,280.7 L70.2,280.7 M68.2,275.7 L70.2,275.7 M68.2,270.8 L70.2,270.8 M68.2,265.8 L70.2,265.8 M68.2,255.9 L70.2,255.9 M68.2,250.9 L70.2,250.9 M68.2,245.9 L70.2,245.9 M68.2,241 L70.2,241 M68.2,231 L70.2,231 M68.2,226 L70.2,226 M68.2,221.1 L70.2,221.1 M68.2,216.1 L70.2,216.1 M68.2,206.2 L70.2,206.2 M68.2,201.2 L70.2,201.2 M68.2,196.2 L70.2,196.2 M68.2,191.2 L70.2,191.2 M68.2,181.3 L70.2,181.3 M68.2,176.3 L70.2,176.3 M68.2,171.4 L70.2,171.4 M68.2,166.4 L70.2,166.4 M68.2,156.4 L70.2,156.4 M68.2,151.5 L70.2,151.5 M68.2,146.5 L70.2,146.5 M68.2,141.5 L70.2,141.5 M68.2,131.6 L70.2,131.6 M68.2,126.6 L70.2,126.6 M68.2,121.7 L70.2,121.7 M68.2,116.7 L70.2,116.7 M68.2,106.7 L70.2,106.7 M68.2,101.8 L70.2,101.8 M68.2,96.8 L70.2,96.8 M68.2,91.83 L70.2,91.83 M68.2,81.88 L70.2,81.88 M68.2,76.91 L70.2,76.91 M68.2,71.94 L70.2,71.94 M68.2,66.97 L70.2,66.97 M68.2,335.4 L70.2,335.4 " fill="none"/></g>
<g id="xMinorTicks" stroke="rgb(0,0,0)" stroke-width="1"><path d="M350.5,335.4 L350.5,337.4 M390.5,335.4 L390.5,337.4 M430.6,335.4 L430.6,337.4 M470.7,335.4 L470.7,337.4 M270.3,335.4 L270.3,337.4 M230.2,335.4 L230.2,337.4 M190.1,335.4 L190.1,337.4 M150,335.4 L150,337.4 " fill="none"/></g>
<g id="yMajorTicks" stroke="rgb(0,0,0)" stroke-width="2"><path d="M65.2,335.4 L70.2,335.4 M65.2,310.5 L70.2,310.5 M65.2,285.7 L70.2,285.7 M65.2,260.8 L70.2,260.8 M65.2,236 L70.2,236 M65.2,211.1 L70.2,211.1 M65.2,186.3 L70.2,186.3 M65.2,161.4 L70.2,161.4 M65.2,136.6 L70.2,136.6 M65.2,111.7 L70.2,111.7 M65.2,86.85 L70.2,86.85 M65.2,62 L70.2,62 M65.2,335.4 L70.2,335.4 " fill="none"/></g>
<g id="xMajorTicks" stroke="rgb(0,0,0)" stroke-width="2"><path d="M310.4,335.4 L310.4,340.4 M510.8,335.4 L510.8,340.4 M310.4,335.4 L310.4,340.4 M109.9,335.4 L109.9,340.4 " fill="none"/></g>
<g id="plotLabels">
<text x="310.4" y="357.2" text-anchor="middle" font-size="14" font-family="Verdana">0</text>
<text x="510.8" y="357.2" text-anchor="middle" font-size="14" font-family="Verdana">5</text>
<text x="310.4" y="357.2" text-anchor="middle" font-size="14" font-family="Verdana">0</text>
<text x="109.9" y="357.2" text-anchor="middle" font-size="14" font-family="Verdana">-5</text>
<text x="59.2" y="337.8" text-anchor="end" font-size="12" font-family="Verdana">0</text>
<text x="59.2" y="312.9" text-anchor="end" font-size="12" font-family="Verdana">0.1</text>
<text x="59.2" y="288.1" text-anchor="end" font-size="12" font-family="Verdana">0.2</text>
<text x="59.2" y="263.2" text-anchor="end" font-size="12" font-family="Verdana">0.3</text>
<text x="59.2" y="238.4" text-anchor="end" font-size="12" font-family="Verdana">0.4</text>
<text x="59.2" y="213.5" text-anchor="end" font-size="12" font-family="Verdana">0.5</text>
<text x="59.2" y="188.7" text-anchor="end" font-size="12" font-family="Verdana">0.6</text>
<text x="59.2" y="163.8" text-anchor="end" font-size="12" font-family="Verdana">0.7</text>
<text x="59.2" y="139" text-anchor="end" font-size="12" font-family="Verdana">0.8</text>
<text x="59.2" y="114.1" text-anchor="end" font-size="12" font-family="Verdana">0.9</text>
<text x="59.2" y="89.25" text-anchor="end" font-size="12" font-family="Verdana">1</text>
<text x="59.2" y="64.4" text-anchor="end" font-size="12" font-family="Verdana">1.1</text>
<text x="59.2" y="337.8" text-anchor="end" font-size="12" font-family="Verdana">0</text></g>
<g id="yLabel">
<text x="30.2" y="198.7" text-anchor="middle" transform = "rotate(-90 30.2 198.7 )" font-size="14" font-family="Verdana">Probability</text></g>
<g id="xLabel">
<text x="310.2" y="388" text-anchor="middle" font-size="14" font-family="Verdana">Random Variable</text></g>
<g id="plotLines" stroke-width="2"><g clip-path="url(#plot_window)" stroke="rgb(0,0,139)" stroke-width="1"><path d="M70.2,335.1 L72.6,335.1 L75,335 L77.4,335 L79.8,335 L82.2,335 L84.6,335 L87,334.9 L89.4,334.9 L91.8,334.9 L94.2,334.8 L96.6,334.8 L99,334.8 L101.4,334.7 L103.8,334.7 L106.2,334.6 L108.6,334.6 L111,334.5 L113.4,334.5 L115.8,334.4 L118.2,334.4 L120.6,334.3 L123,334.2 L125.4,334.2 L127.8,334.1 L130.2,334 L132.6,333.9 L135,333.8 L137.4,333.7 L139.8,333.6 L142.2,333.5 L144.6,333.4 L147,333.3 L149.4,333.2 L151.8,333 L154.2,332.9 L156.6,332.7 L159,332.6 L161.4,332.4 L163.8,332.2 L166.2,332 L168.6,331.8 L171,331.6 L173.4,331.3 L175.8,331.1 L178.2,330.8 L180.6,330.5 L183,330.2 L185.4,329.9 L187.8,329.6 L190.2,329.2 L192.6,328.8 L195,328.4 L197.4,328 L199.8,327.5 L202.2,327 L204.6,326.5 L207,326 L209.4,325.4 L211.8,324.8 L214.2,324.1 L216.6,323.4 L219,322.7 L221.4,321.9 L223.8,321.1 L226.2,320.2 L228.6,319.2 L231,318.2 L233.4,317.2 L235.8,316.1 L238.2,314.9 L240.6,313.6 L243,312.2 L245.4,310.8 L247.8,309.3 L250.2,307.7 L252.6,306 L255,304.2 L257.4,302.2 L259.8,300.2 L262.2,298 L264.6,295.7 L267,293.3 L269.4,290.7 L271.8,287.9 L274.2,285 L276.6,281.9 L279,278.6 L281.4,275 L283.8,271.3 L286.2,267.4 L288.6,263.2 L291,258.7 L293.4,254 L295.8,249 L298.2,243.6 L300.6,238 L303,231.9 L305.4,225.6 L307.8,218.8 L310.2,211.6 L312.6,217.9 L315,224.7 L317.4,231.2 L319.8,237.2 L322.2,242.9 L324.6,248.3 L327,253.4 L329.4,258.1 L331.8,262.6 L334.2,266.9 L336.6,270.8 L339,274.6 L341.4,278.1 L343.8,281.5 L346.2,284.6 L348.6,287.5 L351,290.3 L353.4,292.9 L355.8,295.4 L358.2,297.7 L360.6,299.9 L363,302 L365.4,303.9 L367.8,305.8 L370.2,307.5 L372.6,309.1 L375,310.6 L377.4,312.1 L379.8,313.4 L382.2,314.7 L384.6,315.9 L387,317 L389.4,318.1 L391.8,319.1 L394.2,320.1 L396.6,321 L399,321.8 L401.4,322.6 L403.8,323.3 L406.2,324 L408.6,324.7 L411,325.3 L413.4,325.9 L415.8,326.5 L418.2,327 L420.6,327.5 L423,327.9 L425.4,328.4 L427.8,328.8 L430.2,329.2 L432.6,329.5 L435,329.9 L437.4,330.2 L439.8,330.5 L442.2,330.8 L444.6,331 L447,331.3 L449.4,331.5 L451.8,331.8 L454.2,332 L456.6,332.2 L459,332.4 L461.4,332.5 L463.8,332.7 L466.2,332.9 L468.6,333 L471,333.1 L473.4,333.3 L475.8,333.4 L478.2,333.5 L480.6,333.6 L483,333.7 L485.4,333.8 L487.8,333.9 L490.2,334 L492.6,334.1 L495,334.2 L497.4,334.2 L499.8,334.3 L502.2,334.4 L504.6,334.4 L507,334.5 L509.4,334.5 L511.8,334.6 L514.2,334.6 L516.6,334.7 L519,334.7 L521.4,334.8 L523.8,334.8 L526.2,334.8 L528.6,334.9 L531,334.9 L533.4,334.9 L535.8,335 L538.2,335 L540.6,335 L543,335 L545.4,335 L547.8,335.1 L550.2,335.1 " fill="none"/></g>
<g clip-path="url(#plot_window)" stroke="rgb(139,0,0)" stroke-width="1"><path d="M70.2,335.4 L72.6,335.4 L75,335.4 L77.4,335.4 L79.8,335.4 L82.2,335.4 L84.6,335.4 L87,335.4 L89.4,335.4 L91.8,335.4 L94.2,335.4 L96.6,335.4 L99,335.4 L101.4,335.4 L103.8,335.4 L106.2,335.4 L108.6,335.4 L111,335.4 L113.4,335.4 L115.8,335.4 L118.2,335.4 L120.6,335.4 L123,335.4 L125.4,335.4 L127.8,335.4 L130.2,335.4 L132.6,335.4 L135,335.4 L137.4,335.4 L139.8,335.3 L142.2,335.3 L144.6,335.3 L147,335.3 L149.4,335.3 L151.8,335.3 L154.2,335.3 L156.6,335.3 L159,335.3 L161.4,335.3 L163.8,335.2 L166.2,335.2 L168.6,335.2 L171,335.2 L173.4,335.1 L175.8,335.1 L178.2,335.1 L180.6,335 L183,335 L185.4,334.9 L187.8,334.9 L190.2,334.8 L192.6,334.7 L195,334.6 L197.4,334.5 L199.8,334.4 L202.2,334.3 L204.6,334.1 L207,334 L209.4,333.8 L211.8,333.6 L214.2,333.3 L216.6,333.1 L219,332.8 L221.4,332.5 L223.8,332.1 L226.2,331.7 L228.6,331.2 L231,330.7 L233.4,330.1 L235.8,329.4 L238.2,328.6 L240.6,327.7 L243,326.8 L245.4,325.7 L247.8,324.4 L250.2,323 L252.6,321.5 L255,319.7 L257.4,317.7 L259.8,315.4 L262.2,312.9 L264.6,310 L267,306.8 L269.4,303.2 L271.8,299.1 L274.2,294.5 L276.6,289.3 L279,283.4 L281.4,276.8 L283.8,269.3 L286.2,260.9 L288.6,251.4 L291,240.7 L293.4,228.7 L295.8,215.1 L298.2,199.8 L300.6,182.6 L303,163.1 L305.4,141.2 L307.8,116.5 L310.2,88.68 L312.6,113.3 L315,138.3 L317.4,160.6 L319.8,180.3 L322.2,197.8 L324.6,213.3 L327,227.1 L329.4,239.3 L331.8,250.2 L334.2,259.8 L336.6,268.3 L339,275.9 L341.4,282.6 L343.8,288.6 L346.2,293.9 L348.6,298.5 L351,302.7 L353.4,306.4 L355.8,309.7 L358.2,312.6 L360.6,315.2 L363,317.4 L365.4,319.5 L367.8,321.3 L370.2,322.9 L372.6,324.3 L375,325.5 L377.4,326.6 L379.8,327.6 L382.2,328.5 L384.6,329.3 L387,330 L389.4,330.6 L391.8,331.1 L394.2,331.6 L396.6,332 L399,332.4 L401.4,332.8 L403.8,333.1 L406.2,333.3 L408.6,333.6 L411,333.8 L413.4,333.9 L415.8,334.1 L418.2,334.3 L420.6,334.4 L423,334.5 L425.4,334.6 L427.8,334.7 L430.2,334.8 L432.6,334.8 L435,334.9 L437.4,335 L439.8,335 L442.2,335.1 L444.6,335.1 L447,335.1 L449.4,335.2 L451.8,335.2 L454.2,335.2 L456.6,335.2 L459,335.3 L461.4,335.3 L463.8,335.3 L466.2,335.3 L468.6,335.3 L471,335.3 L473.4,335.3 L475.8,335.3 L478.2,335.3 L480.6,335.3 L483,335.4 L485.4,335.4 L487.8,335.4 L490.2,335.4 L492.6,335.4 L495,335.4 L497.4,335.4 L499.8,335.4 L502.2,335.4 L504.6,335.4 L507,335.4 L509.4,335.4 L511.8,335.4 L514.2,335.4 L516.6,335.4 L519,335.4 L521.4,335.4 L523.8,335.4 L526.2,335.4 L528.6,335.4 L531,335.4 L533.4,335.4 L535.8,335.4 L538.2,335.4 L540.6,335.4 L543,335.4 L545.4,335.4 L547.8,335.4 L550.2,335.4 " fill="none"/></g>
<g clip-path="url(#plot_window)" stroke="rgb(0,100,0)" stroke-width="1"><path d="M70.2,332.3 L72.6,332.2 L75,332.1 L77.4,332 L79.8,331.9 L82.2,331.8 L84.6,331.7 L87,331.6 L89.4,331.5 L91.8,331.3 L94.2,331.2 L96.6,331.1 L99,331 L101.4,330.8 L103.8,330.7 L106.2,330.5 L108.6,330.4 L111,330.2 L113.4,330.1 L115.8,329.9 L118.2,329.7 L120.6,329.6 L123,329.4 L125.4,329.2 L127.8,329 L130.2,328.8 L132.6,328.6 L135,328.4 L137.4,328.2 L139.8,328 L142.2,327.8 L144.6,327.5 L147,327.3 L149.4,327.1 L151.8,326.8 L154.2,326.5 L156.6,326.3 L159,326 L161.4,325.7 L163.8,325.4 L166.2,325.1 L168.6,324.8 L171,324.5 L173.4,324.1 L175.8,323.8 L178.2,323.4 L180.6,323.1 L183,322.7 L185.4,322.3 L187.8,321.9 L190.2,321.5 L192.6,321.1 L195,320.7 L197.4,320.2 L199.8,319.8 L202.2,319.3 L204.6,318.8 L207,318.3 L209.4,317.8 L211.8,317.2 L214.2,316.7 L216.6,316.1 L219,315.5 L221.4,314.9 L223.8,314.3 L226.2,313.6 L228.6,313 L231,312.3 L233.4,311.6 L235.8,310.9 L238.2,310.1 L240.6,309.4 L243,308.6 L245.4,307.8 L247.8,306.9 L250.2,306.1 L252.6,305.2 L255,304.2 L257.4,303.3 L259.8,302.3 L262.2,301.3 L264.6,300.3 L267,299.2 L269.4,298.1 L271.8,297 L274.2,295.8 L276.6,294.6 L279,293.4 L281.4,292.1 L283.8,290.8 L286.2,289.4 L288.6,288 L291,286.6 L293.4,285.1 L295.8,283.6 L298.2,282 L300.6,280.4 L303,278.7 L305.4,277 L307.8,275.2 L310.2,273.4 L312.6,275 L315,276.8 L317.4,278.5 L319.8,280.2 L322.2,281.8 L324.6,283.4 L327,284.9 L329.4,286.4 L331.8,287.9 L334.2,289.3 L336.6,290.6 L339,291.9 L341.4,293.2 L343.8,294.5 L346.2,295.7 L348.6,296.8 L351,298 L353.4,299.1 L355.8,300.2 L358.2,301.2 L360.6,302.2 L363,303.2 L365.4,304.1 L367.8,305.1 L370.2,305.9 L372.6,306.8 L375,307.7 L377.4,308.5 L379.8,309.3 L382.2,310 L384.6,310.8 L387,311.5 L389.4,312.2 L391.8,312.9 L394.2,313.6 L396.6,314.2 L399,314.8 L401.4,315.4 L403.8,316 L406.2,316.6 L408.6,317.2 L411,317.7 L413.4,318.2 L415.8,318.7 L418.2,319.2 L420.6,319.7 L423,320.2 L425.4,320.6 L427.8,321 L430.2,321.5 L432.6,321.9 L435,322.3 L437.4,322.7 L439.8,323 L442.2,323.4 L444.6,323.8 L447,324.1 L449.4,324.4 L451.8,324.8 L454.2,325.1 L456.6,325.4 L459,325.7 L461.4,326 L463.8,326.2 L466.2,326.5 L468.6,326.8 L471,327 L473.4,327.3 L475.8,327.5 L478.2,327.7 L480.6,328 L483,328.2 L485.4,328.4 L487.8,328.6 L490.2,328.8 L492.6,329 L495,329.2 L497.4,329.4 L499.8,329.6 L502.2,329.7 L504.6,329.9 L507,330.1 L509.4,330.2 L511.8,330.4 L514.2,330.5 L516.6,330.7 L519,330.8 L521.4,330.9 L523.8,331.1 L526.2,331.2 L528.6,331.3 L531,331.4 L533.4,331.6 L535.8,331.7 L538.2,331.8 L540.6,331.9 L543,332 L545.4,332.1 L547.8,332.2 L550.2,332.3 " fill="none"/></g>
<g clip-path="url(#plot_window)" stroke="rgb(255,140,0)" stroke-width="1"><path d="M70.2,334.6 L72.6,334.5 L75,334.4 L77.4,334.4 L79.8,334.3 L82.2,334.3 L84.6,334.2 L87,334.1 L89.4,334 L91.8,334 L94.2,333.9 L96.6,333.8 L99,333.7 L101.4,333.6 L103.8,333.4 L106.2,333.3 L108.6,333.2 L111,333.1 L113.4,332.9 L115.8,332.8 L118.2,332.6 L120.6,332.4 L123,332.2 L125.4,332.1 L127.8,331.8 L130.2,331.6 L132.6,331.4 L135,331.1 L137.4,330.9 L139.8,330.6 L142.2,330.3 L144.6,330 L147,329.7 L149.4,329.3 L151.8,328.9 L154.2,328.5 L156.6,328.1 L159,327.7 L161.4,327.2 L163.8,326.7 L166.2,326.1 L168.6,325.6 L171,325 L173.4,324.3 L175.8,323.6 L178.2,322.9 L180.6,322.1 L183,321.3 L185.4,320.4 L187.8,319.5 L190.2,318.5 L192.6,317.5 L195,316.4 L197.4,315.2 L199.8,314 L202.2,312.7 L204.6,311.3 L207,309.8 L209.4,308.2 L211.8,306.5 L214.2,304.7 L216.6,302.8 L219,300.8 L221.4,298.7 L223.8,296.4 L226.2,294 L228.6,291.5 L231,288.7 L233.4,285.9 L235.8,282.8 L238.2,279.6 L240.6,276.1 L243,272.5 L245.4,268.6 L247.8,264.5 L250.2,260.1 L252.6,255.4 L255,250.5 L257.4,245.2 L259.8,239.7 L262.2,233.8 L264.6,227.5 L267,220.9 L269.4,213.8 L271.8,215.8 L274.2,222.7 L276.6,229.3 L279,235.5 L281.4,241.3 L283.8,246.7 L286.2,251.9 L288.6,256.7 L291,261.3 L293.4,265.6 L295.8,269.7 L298.2,273.5 L300.6,277.1 L303,280.5 L305.4,283.7 L307.8,286.7 L310.2,289.5 L312.6,292.2 L315,294.7 L317.4,297.1 L319.8,299.3 L322.2,301.4 L324.6,303.4 L327,305.2 L329.4,307 L331.8,308.6 L334.2,310.2 L336.6,311.7 L339,313 L341.4,314.3 L343.8,315.6 L346.2,316.7 L348.6,317.8 L351,318.8 L353.4,319.8 L355.8,320.7 L358.2,321.5 L360.6,322.4 L363,323.1 L365.4,323.8 L367.8,324.5 L370.2,325.1 L372.6,325.7 L375,326.3 L377.4,326.8 L379.8,327.3 L382.2,327.8 L384.6,328.2 L387,328.6 L389.4,329 L391.8,329.4 L394.2,329.8 L396.6,330.1 L399,330.4 L401.4,330.7 L403.8,331 L406.2,331.2 L408.6,331.5 L411,331.7 L413.4,331.9 L415.8,332.1 L418.2,332.3 L420.6,332.5 L423,332.6 L425.4,332.8 L427.8,333 L430.2,333.1 L432.6,333.2 L435,333.4 L437.4,333.5 L439.8,333.6 L442.2,333.7 L444.6,333.8 L447,333.9 L449.4,334 L451.8,334.1 L454.2,334.1 L456.6,334.2 L459,334.3 L461.4,334.3 L463.8,334.4 L466.2,334.5 L468.6,334.5 L471,334.6 L473.4,334.6 L475.8,334.7 L478.2,334.7 L480.6,334.7 L483,334.8 L485.4,334.8 L487.8,334.9 L490.2,334.9 L492.6,334.9 L495,334.9 L497.4,335 L499.8,335 L502.2,335 L504.6,335 L507,335.1 L509.4,335.1 L511.8,335.1 L514.2,335.1 L516.6,335.1 L519,335.1 L521.4,335.2 L523.8,335.2 L526.2,335.2 L528.6,335.2 L531,335.2 L533.4,335.2 L535.8,335.2 L538.2,335.2 L540.6,335.3 L543,335.3 L545.4,335.3 L547.8,335.3 L550.2,335.3 " fill="none"/></g>
<g clip-path="url(#plot_window)" stroke="rgb(127,255,0)" stroke-width="1"><path d="M70.2,335.3 L72.6,335.3 L75,335.3 L77.4,335.3 L79.8,335.3 L82.2,335.2 L84.6,335.2 L87,335.2 L89.4,335.2 L91.8,335.2 L94.2,335.2 L96.6,335.2 L99,335.2 L101.4,335.2 L103.8,335.1 L106.2,335.1 L108.6,335.1 L111,335.1 L113.4,335.1 L115.8,335 L118.2,335 L120.6,335 L123,335 L125.4,334.9 L127.8,334.9 L130.2,334.9 L132.6,334.9 L135,334.8 L137.4,334.8 L139.8,334.8 L142.2,334.7 L144.6,334.7 L147,334.6 L149.4,334.6 L151.8,334.5 L154.2,334.5 L156.6,334.4 L159,334.4 L161.4,334.3 L163.8,334.2 L166.2,334.1 L168.6,334.1 L171,334 L173.4,333.9 L175.8,333.8 L178.2,333.7 L180.6,333.6 L183,333.5 L185.4,333.4 L187.8,333.3 L190.2,333.1 L192.6,333 L195,332.8 L197.4,332.7 L199.8,332.5 L202.2,332.3 L204.6,332.1 L207,331.9 L209.4,331.7 L211.8,331.5 L214.2,331.2 L216.6,331 L219,330.7 L221.4,330.4 L223.8,330.1 L226.2,329.8 L228.6,329.5 L231,329.1 L233.4,328.7 L235.8,328.3 L238.2,327.8 L240.6,327.4 L243,326.9 L245.4,326.4 L247.8,325.8 L250.2,325.2 L252.6,324.6 L255,323.9 L257.4,323.2 L259.8,322.4 L262.2,321.6 L264.6,320.8 L267,319.9 L269.4,318.9 L271.8,317.9 L274.2,316.8 L276.6,315.7 L279,314.5 L281.4,313.2 L283.8,311.8 L286.2,310.4 L288.6,308.8 L291,307.2 L293.4,305.4 L295.8,303.6 L298.2,301.6 L300.6,299.6 L303,297.3 L305.4,295 L307.8,292.5 L310.2,289.9 L312.6,287 L315,284.1 L317.4,280.9 L319.8,277.5 L322.2,274 L324.6,270.2 L327,266.1 L329.4,261.9 L331.8,257.3 L334.2,252.5 L336.6,247.4 L339,242 L341.4,236.2 L343.8,230.1 L346.2,223.6 L348.6,216.7 L351,212.9 L353.4,220 L355.8,226.7 L358.2,233 L360.6,239 L363,244.6 L365.4,249.9 L367.8,254.8 L370.2,259.5 L372.6,263.9 L375,268.1 L377.4,272 L379.8,275.7 L382.2,279.1 L384.6,282.4 L387,285.5 L389.4,288.4 L391.8,291.1 L394.2,293.7 L396.6,296.1 L399,298.4 L401.4,300.6 L403.8,302.6 L406.2,304.5 L408.6,306.3 L411,308 L413.4,309.6 L415.8,311.1 L418.2,312.5 L420.6,313.8 L423,315.1 L425.4,316.3 L427.8,317.4 L430.2,318.4 L432.6,319.4 L435,320.3 L437.4,321.2 L439.8,322 L442.2,322.8 L444.6,323.5 L447,324.2 L449.4,324.9 L451.8,325.5 L454.2,326.1 L456.6,326.6 L459,327.1 L461.4,327.6 L463.8,328.1 L466.2,328.5 L468.6,328.9 L471,329.3 L473.4,329.6 L475.8,330 L478.2,330.3 L480.6,330.6 L483,330.9 L485.4,331.1 L487.8,331.4 L490.2,331.6 L492.6,331.8 L495,332 L497.4,332.2 L499.8,332.4 L502.2,332.6 L504.6,332.7 L507,332.9 L509.4,333 L511.8,333.2 L514.2,333.3 L516.6,333.4 L519,333.5 L521.4,333.7 L523.8,333.8 L526.2,333.9 L528.6,333.9 L531,334 L533.4,334.1 L535.8,334.2 L538.2,334.3 L540.6,334.3 L543,334.4 L545.4,334.4 L547.8,334.5 L550.2,334.5 " fill="none"/></g>
</g>
<g id="plotPoints" clip-path="url(#plot_window)"></g>
<g id="legendBackground" stroke="rgb(119,136,153)" fill="rgb(255,255,255)" stroke-width="1"><rect x="564.2" y="62" width="173.8" height="165"/><rect x="564.2" y="62" width="173.8" height="165"/></g>
<g id="legendPoints"><g stroke="rgb(0,0,139)" stroke-width="1"><line x1="579.2" y1="92" x2="594.2" y2="92"/></g>
<g stroke="rgb(139,0,0)" stroke-width="1"><line x1="579.2" y1="122" x2="594.2" y2="122"/></g>
<g stroke="rgb(0,100,0)" stroke-width="1"><line x1="579.2" y1="152" x2="594.2" y2="152"/></g>
<g stroke="rgb(255,140,0)" stroke-width="1"><line x1="579.2" y1="182" x2="594.2" y2="182"/></g>
<g stroke="rgb(127,255,0)" stroke-width="1"><line x1="579.2" y1="212" x2="594.2" y2="212"/></g>
</g>
<g id="legendText">
<text x="601.7" y="92" font-size="15" font-family="Verdana">&#x3BC; = 0, &#x3C3; = 1</text>
<text x="601.7" y="122" font-size="15" font-family="Verdana">&#x3BC; = 0, &#x3C3; = 0.5</text>
<text x="601.7" y="152" font-size="15" font-family="Verdana">&#x3BC; = 0, &#x3C3; = 2</text>
<text x="601.7" y="182" font-size="15" font-family="Verdana">&#x3BC; = -1, &#x3C3; = 1</text>
<text x="601.7" y="212" font-size="15" font-family="Verdana">&#x3BC; = 1, &#x3C3; = 1</text></g>
<g id="title">
<text x="375" y="40" text-anchor="middle" font-size="20" font-family="Verdana">Laplace Distribution PDF</text></g>
<g id="plotXValues"></g>
<g id="plotYValues"></g>
</svg>
