<?xml version="1.0" encoding="UTF-8" standalone="no"?>
<svg width="750" height ="400" version="1.1"
xmlns:svg ="http://www.w3.org/2000/svg"
xmlns:rdf="http://www.w3.org/1999/02/22-rdf-syntax-ns#"
xmlns:cc="http://web.resource.org/cc/"
xmlns:dc="http://purl.org/dc/elements/1.1/"
xmlns ="http://www.w3.org/2000/svg"
>
<!-- SVG plot written using Boost.Plot program (Creator Jacob Voytko) --> 
<!-- Use, modification and distribution of Boost.Plot subject to the --> 
<!-- Boost Software License, Version 1.0.--> 
<!-- (See accompanying file LICENSE_1_0.txt --> 
<!-- or copy at http://www.boost.org/LICENSE_1_0.txt) --> 

<clipPath id="plot_window"><rect x="71.2" y="63" width="532.9" height="274.2"/></clipPath>
<g id="imageBackground" stroke="rgb(119,136,153)" fill="rgb(255,255,255)" stroke-width="2"><rect x="0" y="0" width="750" height="400"/></g>
<g id="plotBackground" stroke="rgb(119,136,153)" fill="rgb(255,255,255)" stroke-width="2"><rect x="70.2" y="62" width="534.9" height="276.2"/></g>
<g id="yMinorGrid" stroke="rgb(200,220,255)" stroke-width="0.5"></g>
<g id="yMajorGrid" stroke="rgb(200,220,255)" stroke-width="1"></g>
<g id="xMinorGrid" stroke="rgb(200,220,255)" stroke-width="0.5"></g>
<g id="xMajorGrid" stroke="rgb(200,220,255)" stroke-width="1"></g>
<g id="yAxis" stroke="rgb(0,0,0)" stroke-width="1"><line x1="70.2" y1="62" x2="70.2" y2="338.2"/></g>
<g id="xAxis" stroke="rgb(0,0,0)" stroke-width="1"><line x1="65.2" y1="338.2" x2="605.1" y2="338.2"/><line x1="65.2" y1="338.2" x2="605.1" y2="338.2"/></g>
<g id="yMinorTicks" stroke="rgb(0,0,0)" stroke-width="1"><path d="M68.2,332.4 L70.2,332.4 M68.2,326.7 L70.2,326.7 M68.2,320.9 L70.2,320.9 M68.2,315.2 L70.2,315.2 M68.2,303.7 L70.2,303.7 M68.2,297.9 L70.2,297.9 M68.2,292.2 L70.2,292.2 M68.2,286.4 L70.2,286.4 M68.2,274.9 L70.2,274.9 M68.2,269.2 L70.2,269.2 M68.2,263.4 L70.2,263.4 M68.2,257.7 L70.2,257.7 M68.2,246.2 L70.2,246.2 M68.2,240.4 L70.2,240.4 M68.2,234.6 L70.2,234.6 M68.2,228.9 L70.2,228.9 M68.2,217.4 L70.2,217.4 M68.2,211.6 L70.2,211.6 M68.2,205.9 L70.2,205.9 M68.2,200.1 L70.2,200.1 M68.2,188.6 L70.2,188.6 M68.2,182.9 L70.2,182.9 M68.2,177.1 L70.2,177.1 M68.2,171.4 L70.2,171.4 M68.2,159.9 L70.2,159.9 M68.2,154.1 L70.2,154.1 M68.2,148.3 L70.2,148.3 M68.2,142.6 L70.2,142.6 M68.2,131.1 L70.2,131.1 M68.2,125.3 L70.2,125.3 M68.2,119.6 L70.2,119.6 M68.2,113.8 L70.2,113.8 M68.2,102.3 L70.2,102.3 M68.2,96.57 L70.2,96.57 M68.2,90.82 L70.2,90.82 M68.2,85.06 L70.2,85.06 M68.2,73.56 L70.2,73.56 M68.2,67.8 L70.2,67.8 M68.2,62.05 L70.2,62.05 M68.2,338.2 L70.2,338.2 " fill="none"/></g>
<g id="xMinorTicks" stroke="rgb(0,0,0)" stroke-width="1"><path d="M70.2,338.2 L70.2,340.2 M112.8,338.2 L112.8,340.2 M155.4,338.2 L155.4,340.2 M198.1,338.2 L198.1,340.2 M283.3,338.2 L283.3,340.2 M325.9,338.2 L325.9,340.2 M368.5,338.2 L368.5,340.2 M411.2,338.2 L411.2,340.2 M496.4,338.2 L496.4,340.2 M539,338.2 L539,340.2 M581.7,338.2 L581.7,340.2 " fill="none"/></g>
<g id="yMajorTicks" stroke="rgb(0,0,0)" stroke-width="2"><path d="M65.2,338.2 L70.2,338.2 M65.2,309.4 L70.2,309.4 M65.2,280.7 L70.2,280.7 M65.2,251.9 L70.2,251.9 M65.2,223.1 L70.2,223.1 M65.2,194.4 L70.2,194.4 M65.2,165.6 L70.2,165.6 M65.2,136.8 L70.2,136.8 M65.2,108.1 L70.2,108.1 M65.2,79.31 L70.2,79.31 M65.2,338.2 L70.2,338.2 " fill="none"/></g>
<g id="xMajorTicks" stroke="rgb(0,0,0)" stroke-width="2"><path d="M240.7,338.2 L240.7,343.2 M453.8,338.2 L453.8,343.2 " fill="none"/></g>
<g id="plotLabels">
<text x="240.7" y="357.6" text-anchor="middle" font-size="12" font-family="Verdana">5</text>
<text x="453.8" y="357.6" text-anchor="middle" font-size="12" font-family="Verdana">10</text>
<text x="59.2" y="340.6" text-anchor="end" font-size="12" font-family="Verdana">0</text>
<text x="59.2" y="311.8" text-anchor="end" font-size="12" font-family="Verdana">0.1</text>
<text x="59.2" y="283.1" text-anchor="end" font-size="12" font-family="Verdana">0.2</text>
<text x="59.2" y="254.3" text-anchor="end" font-size="12" font-family="Verdana">0.3</text>
<text x="59.2" y="225.5" text-anchor="end" font-size="12" font-family="Verdana">0.4</text>
<text x="59.2" y="196.8" text-anchor="end" font-size="12" font-family="Verdana">0.5</text>
<text x="59.2" y="168" text-anchor="end" font-size="12" font-family="Verdana">0.6</text>
<text x="59.2" y="139.2" text-anchor="end" font-size="12" font-family="Verdana">0.7</text>
<text x="59.2" y="110.5" text-anchor="end" font-size="12" font-family="Verdana">0.8</text>
<text x="59.2" y="81.71" text-anchor="end" font-size="12" font-family="Verdana">0.9</text>
<text x="59.2" y="340.6" text-anchor="end" font-size="12" font-family="Verdana">0</text></g>
<g id="yLabel">
<text x="30.2" y="200.1" text-anchor="middle" transform = "rotate(-90 30.2 200.1 )" font-size="14" font-family="Verdana">Probability</text></g>
<g id="xLabel">
<text x="337.7" y="384" text-anchor="middle" font-size="14" font-family="Verdana">Random Variable</text></g>
<g id="plotLines" stroke-width="2"><g clip-path="url(#plot_window)" stroke="rgb(0,0,139)" stroke-width="1"><path d="M70.2,50.54 L72.87,83.51 L75.55,111.1 L78.22,134.5 L80.9,154.4 L83.57,171.5 L86.25,186.4 L88.92,199.3 L91.6,210.7 L94.27,220.7 L96.95,229.6 L99.62,237.5 L102.3,244.6 L105,251 L107.6,256.7 L110.3,261.9 L113,266.6 L115.7,270.9 L118.3,274.8 L121,278.3 L123.7,281.6 L126.4,284.7 L129,287.4 L131.7,290 L134.4,292.4 L137.1,294.6 L139.7,296.7 L142.4,298.6 L145.1,300.4 L147.8,302 L150.4,303.6 L153.1,305 L155.8,306.4 L158.5,307.7 L161.1,308.9 L163.8,310 L166.5,311.1 L169.2,312.1 L171.8,313.1 L174.5,314 L177.2,314.9 L179.9,315.7 L182.5,316.4 L185.2,317.2 L187.9,317.9 L190.6,318.5 L193.2,319.2 L195.9,319.8 L198.6,320.3 L201.3,320.9 L203.9,321.4 L206.6,321.9 L209.3,322.4 L212,322.8 L214.6,323.3 L217.3,323.7 L220,324.1 L222.7,324.5 L225.3,324.8 L228,325.2 L230.7,325.5 L233.4,325.9 L236,326.2 L238.7,326.5 L241.4,326.8 L244,327 L246.7,327.3 L249.4,327.6 L252.1,327.8 L254.7,328.1 L257.4,328.3 L260.1,328.5 L262.8,328.8 L265.4,329 L268.1,329.2 L270.8,329.4 L273.5,329.6 L276.1,329.7 L278.8,329.9 L281.5,330.1 L284.2,330.3 L286.8,330.4 L289.5,330.6 L292.2,330.7 L294.9,330.9 L297.5,331 L300.2,331.2 L302.9,331.3 L305.6,331.4 L308.2,331.6 L310.9,331.7 L313.6,331.8 L316.3,331.9 L318.9,332 L321.6,332.2 L324.3,332.3 L327,332.4 L329.6,332.5 L332.3,332.6 L335,332.7 L337.7,332.8 L340.3,332.9 L343,332.9 L345.7,333 L348.4,333.1 L351,333.2 L353.7,333.3 L356.4,333.4 L359.1,333.4 L361.7,333.5 L364.4,333.6 L367.1,333.7 L369.8,333.7 L372.4,333.8 L375.1,333.9 L377.8,333.9 L380.5,334 L383.1,334.1 L385.8,334.1 L388.5,334.2 L391.2,334.2 L393.8,334.3 L396.5,334.4 L399.2,334.4 L401.9,334.5 L404.5,334.5 L407.2,334.6 L409.9,334.6 L412.5,334.7 L415.2,334.7 L417.9,334.8 L420.6,334.8 L423.2,334.9 L425.9,334.9 L428.6,335 L431.3,335 L433.9,335 L436.6,335.1 L439.3,335.1 L442,335.2 L444.6,335.2 L447.3,335.2 L450,335.3 L452.7,335.3 L455.3,335.3 L458,335.4 L460.7,335.4 L463.4,335.4 L466,335.5 L468.7,335.5 L471.4,335.5 L474.1,335.6 L476.7,335.6 L479.4,335.6 L482.1,335.7 L484.8,335.7 L487.4,335.7 L490.1,335.8 L492.8,335.8 L495.5,335.8 L498.1,335.8 L500.8,335.9 L503.5,335.9 L506.2,335.9 L508.8,335.9 L511.5,336 L514.2,336 L516.9,336 L519.5,336 L522.2,336.1 L524.9,336.1 L527.6,336.1 L530.2,336.1 L532.9,336.2 L535.6,336.2 L538.3,336.2 L540.9,336.2 L543.6,336.2 L546.3,336.3 L549,336.3 L551.6,336.3 L554.3,336.3 L557,336.3 L559.7,336.4 L562.3,336.4 L565,336.4 L567.7,336.4 L570.4,336.4 L573,336.4 L575.7,336.5 L578.4,336.5 L581,336.5 L583.7,336.5 L586.4,336.5 L589.1,336.5 L591.7,336.6 L594.4,336.6 L597.1,336.6 L599.8,336.6 L602.4,336.6 L605.1,336.6 " fill="none"/></g>
<g clip-path="url(#plot_window)" stroke="rgb(139,0,0)" stroke-width="1"><path d="M70.2,338.2 L72.87,338.2 L75.55,338.2 L78.22,338.2 L80.9,338.2 L83.57,338.2 L86.25,338.2 L88.92,338.2 L91.6,338.2 L94.27,338.2 L96.95,338.2 L99.62,338.2 L102.3,338.2 L105,338.2 L107.6,338.2 L110.3,338.2 L113,195 L115.7,203.5 L118.3,211.3 L121,218.5 L123.7,225.1 L126.4,231.1 L129,236.7 L131.7,241.8 L134.4,246.6 L137.1,251 L139.7,255.1 L142.4,258.9 L145.1,262.5 L147.8,265.8 L150.4,269 L153.1,271.9 L155.8,274.6 L158.5,277.2 L161.1,279.6 L163.8,281.9 L166.5,284 L169.2,286.1 L171.8,288 L174.5,289.8 L177.2,291.5 L179.9,293.1 L182.5,294.7 L185.2,296.1 L187.9,297.5 L190.6,298.9 L193.2,300.1 L195.9,301.3 L198.6,302.5 L201.3,303.6 L203.9,304.6 L206.6,305.6 L209.3,306.5 L212,307.5 L214.6,308.3 L217.3,309.2 L220,310 L222.7,310.7 L225.3,311.5 L228,312.2 L230.7,312.9 L233.4,313.5 L236,314.1 L238.7,314.8 L241.4,315.3 L244,315.9 L246.7,316.4 L249.4,317 L252.1,317.5 L254.7,317.9 L257.4,318.4 L260.1,318.9 L262.8,319.3 L265.4,319.7 L268.1,320.1 L270.8,320.5 L273.5,320.9 L276.1,321.3 L278.8,321.6 L281.5,322 L284.2,322.3 L286.8,322.7 L289.5,323 L292.2,323.3 L294.9,323.6 L297.5,323.9 L300.2,324.1 L302.9,324.4 L305.6,324.7 L308.2,324.9 L310.9,325.2 L313.6,325.4 L316.3,325.7 L318.9,325.9 L321.6,326.1 L324.3,326.3 L327,326.5 L329.6,326.7 L332.3,326.9 L335,327.1 L337.7,327.3 L340.3,327.5 L343,327.7 L345.7,327.9 L348.4,328 L351,328.2 L353.7,328.4 L356.4,328.5 L359.1,328.7 L361.7,328.8 L364.4,329 L367.1,329.1 L369.8,329.3 L372.4,329.4 L375.1,329.5 L377.8,329.7 L380.5,329.8 L383.1,329.9 L385.8,330.1 L388.5,330.2 L391.2,330.3 L393.8,330.4 L396.5,330.5 L399.2,330.6 L401.9,330.7 L404.5,330.8 L407.2,330.9 L409.9,331 L412.5,331.1 L415.2,331.2 L417.9,331.3 L420.6,331.4 L423.2,331.5 L425.9,331.6 L428.6,331.7 L431.3,331.8 L433.9,331.9 L436.6,332 L439.3,332 L442,332.1 L444.6,332.2 L447.3,332.3 L450,332.3 L452.7,332.4 L455.3,332.5 L458,332.6 L460.7,332.6 L463.4,332.7 L466,332.8 L468.7,332.8 L471.4,332.9 L474.1,333 L476.7,333 L479.4,333.1 L482.1,333.1 L484.8,333.2 L487.4,333.3 L490.1,333.3 L492.8,333.4 L495.5,333.4 L498.1,333.5 L500.8,333.5 L503.5,333.6 L506.2,333.6 L508.8,333.7 L511.5,333.7 L514.2,333.8 L516.9,333.8 L519.5,333.9 L522.2,333.9 L524.9,334 L527.6,334 L530.2,334.1 L532.9,334.1 L535.6,334.2 L538.3,334.2 L540.9,334.2 L543.6,334.3 L546.3,334.3 L549,334.4 L551.6,334.4 L554.3,334.4 L557,334.5 L559.7,334.5 L562.3,334.5 L565,334.6 L567.7,334.6 L570.4,334.7 L573,334.7 L575.7,334.7 L578.4,334.8 L581,334.8 L583.7,334.8 L586.4,334.9 L589.1,334.9 L591.7,334.9 L594.4,334.9 L597.1,335 L599.8,335 L602.4,335 L605.1,335.1 " fill="none"/></g>
<g clip-path="url(#plot_window)" stroke="rgb(0,100,0)" stroke-width="1"><path d="M70.2,338.2 L72.87,338.2 L75.55,338.2 L78.22,338.2 L80.9,338.2 L83.57,338.2 L86.25,338.2 L88.92,338.2 L91.6,338.2 L94.27,338.2 L96.95,338.2 L99.62,338.2 L102.3,338.2 L105,338.2 L107.6,338.2 L110.3,338.2 L113,338.2 L115.7,338.2 L118.3,338.2 L121,338.2 L123.7,338.2 L126.4,338.2 L129,338.2 L131.7,338.2 L134.4,338.2 L137.1,338.2 L139.7,338.2 L142.4,338.2 L145.1,338.2 L147.8,338.2 L150.4,338.2 L153.1,338.2 L155.8,242.8 L158.5,246.7 L161.1,250.3 L163.8,253.7 L166.5,257 L169.2,260 L171.8,262.9 L174.5,265.6 L177.2,268.2 L179.9,270.6 L182.5,272.9 L185.2,275.1 L187.9,277.2 L190.6,279.2 L193.2,281.1 L195.9,282.9 L198.6,284.6 L201.3,286.2 L203.9,287.8 L206.6,289.3 L209.3,290.7 L212,292.1 L214.6,293.4 L217.3,294.6 L220,295.9 L222.7,297 L225.3,298.1 L228,299.2 L230.7,300.2 L233.4,301.2 L236,302.1 L238.7,303 L241.4,303.9 L244,304.7 L246.7,305.6 L249.4,306.3 L252.1,307.1 L254.7,307.8 L257.4,308.5 L260.1,309.2 L262.8,309.9 L265.4,310.5 L268.1,311.1 L270.8,311.7 L273.5,312.3 L276.1,312.8 L278.8,313.4 L281.5,313.9 L284.2,314.4 L286.8,314.9 L289.5,315.4 L292.2,315.8 L294.9,316.3 L297.5,316.7 L300.2,317.1 L302.9,317.5 L305.6,317.9 L308.2,318.3 L310.9,318.7 L313.6,319 L316.3,319.4 L318.9,319.7 L321.6,320.1 L324.3,320.4 L327,320.7 L329.6,321 L332.3,321.3 L335,321.6 L337.7,321.9 L340.3,322.2 L343,322.4 L345.7,322.7 L348.4,323 L351,323.2 L353.7,323.5 L356.4,323.7 L359.1,323.9 L361.7,324.2 L364.4,324.4 L367.1,324.6 L369.8,324.8 L372.4,325 L375.1,325.2 L377.8,325.4 L380.5,325.6 L383.1,325.8 L385.8,326 L388.5,326.2 L391.2,326.3 L393.8,326.5 L396.5,326.7 L399.2,326.8 L401.9,327 L404.5,327.2 L407.2,327.3 L409.9,327.5 L412.5,327.6 L415.2,327.8 L417.9,327.9 L420.6,328 L423.2,328.2 L425.9,328.3 L428.6,328.5 L431.3,328.6 L433.9,328.7 L436.6,328.8 L439.3,329 L442,329.1 L444.6,329.2 L447.3,329.3 L450,329.4 L452.7,329.5 L455.3,329.6 L458,329.7 L460.7,329.8 L463.4,329.9 L466,330 L468.7,330.1 L471.4,330.2 L474.1,330.3 L476.7,330.4 L479.4,330.5 L482.1,330.6 L484.8,330.7 L487.4,330.8 L490.1,330.9 L492.8,331 L495.5,331 L498.1,331.1 L500.8,331.2 L503.5,331.3 L506.2,331.4 L508.8,331.4 L511.5,331.5 L514.2,331.6 L516.9,331.7 L519.5,331.7 L522.2,331.8 L524.9,331.9 L527.6,331.9 L530.2,332 L532.9,332.1 L535.6,332.1 L538.3,332.2 L540.9,332.3 L543.6,332.3 L546.3,332.4 L549,332.4 L551.6,332.5 L554.3,332.5 L557,332.6 L559.7,332.7 L562.3,332.7 L565,332.8 L567.7,332.8 L570.4,332.9 L573,332.9 L575.7,333 L578.4,333 L581,333.1 L583.7,333.1 L586.4,333.2 L589.1,333.2 L591.7,333.3 L594.4,333.3 L597.1,333.4 L599.8,333.4 L602.4,333.5 L605.1,333.5 " fill="none"/></g>
</g>
<g id="plotPoints" clip-path="url(#plot_window)"></g>
<g id="legendBackground" stroke="rgb(119,136,153)" fill="rgb(255,255,255)" stroke-width="1"><rect x="619.1" y="62" width="118.9" height="105"/><rect x="619.1" y="62" width="118.9" height="105"/></g>
<g id="legendPoints"><g stroke="rgb(0,0,139)" fill="rgb(255,255,255)" stroke-width="1"><line x1="634.1" y1="92" x2="649.1" y2="92"/></g>
<g stroke="rgb(139,0,0)" fill="rgb(255,255,255)" stroke-width="1"><line x1="634.1" y1="122" x2="649.1" y2="122"/></g>
<g stroke="rgb(0,100,0)" fill="rgb(255,255,255)" stroke-width="1"><line x1="634.1" y1="152" x2="649.1" y2="152"/></g>
</g>
<g id="legendText">
<text x="656.6" y="92" font-size="15" font-family="Verdana">scale=1</text>
<text x="656.6" y="122" font-size="15" font-family="Verdana">scale=2</text>
<text x="656.6" y="152" font-size="15" font-family="Verdana">scale=3</text></g>
<g id="title">
<text x="375" y="40" text-anchor="middle" font-size="20" font-family="Verdana">Pareto Distribution PDF (shape=1)</text></g>
<g id="plotXValues"></g>
<g id="plotYValues"></g>
</svg>
