<?xml version="1.0" encoding="UTF-8" standalone="no"?>
<svg width="750" height ="400" version="1.1"
xmlns:svg ="http://www.w3.org/2000/svg"
xmlns:rdf="http://www.w3.org/1999/02/22-rdf-syntax-ns#"
xmlns:cc="http://web.resource.org/cc/"
xmlns:dc="http://purl.org/dc/elements/1.1/"
xmlns ="http://www.w3.org/2000/svg"
>
<!-- SVG plot written using Boost.Plot program (Creator Jacob Voytko) --> 
<!-- Use, modification and distribution of Boost.Plot subject to the --> 
<!-- Boost Software License, Version 1.0.--> 
<!-- (See accompanying file LICENSE_1_0.txt --> 
<!-- or copy at http://www.boost.org/LICENSE_1_0.txt) --> 

<clipPath id="plot_window"><rect x="71.2" y="63" width="532.9" height="271.4"/></clipPath>
<g id="imageBackground" stroke="rgb(119,136,153)" fill="rgb(255,255,255)" stroke-width="2"><rect x="0" y="0" width="750" height="400"/></g>
<g id="plotBackground" stroke="rgb(119,136,153)" fill="rgb(255,255,255)" stroke-width="2"><rect x="70.2" y="62" width="534.9" height="273.4"/></g>
<g id="yMinorGrid" stroke="rgb(200,220,255)" stroke-width="0.5"></g>
<g id="yMajorGrid" stroke="rgb(200,220,255)" stroke-width="1"></g>
<g id="xMinorGrid" stroke="rgb(200,220,255)" stroke-width="0.5"></g>
<g id="xMajorGrid" stroke="rgb(200,220,255)" stroke-width="1"></g>
<g id="yAxis" stroke="rgb(0,0,0)" stroke-width="1"><line x1="70.2" y1="62" x2="70.2" y2="335.4"/></g>
<g id="xAxis" stroke="rgb(0,0,0)" stroke-width="1"><line x1="65.2" y1="335.4" x2="605.1" y2="335.4"/><line x1="65.2" y1="335.4" x2="605.1" y2="335.4"/></g>
<g id="yMinorTicks" stroke="rgb(0,0,0)" stroke-width="1"><path d="M68.2,329.7 L70.2,329.7 M68.2,324 L70.2,324 M68.2,318.3 L70.2,318.3 M68.2,312.6 L70.2,312.6 M68.2,301.2 L70.2,301.2 M68.2,295.5 L70.2,295.5 M68.2,289.8 L70.2,289.8 M68.2,284.1 L70.2,284.1 M68.2,272.8 L70.2,272.8 M68.2,267.1 L70.2,267.1 M68.2,261.4 L70.2,261.4 M68.2,255.7 L70.2,255.7 M68.2,244.3 L70.2,244.3 M68.2,238.6 L70.2,238.6 M68.2,232.9 L70.2,232.9 M68.2,227.2 L70.2,227.2 M68.2,215.8 L70.2,215.8 M68.2,210.1 L70.2,210.1 M68.2,204.4 L70.2,204.4 M68.2,198.7 L70.2,198.7 M68.2,187.3 L70.2,187.3 M68.2,181.6 L70.2,181.6 M68.2,175.9 L70.2,175.9 M68.2,170.3 L70.2,170.3 M68.2,158.9 L70.2,158.9 M68.2,153.2 L70.2,153.2 M68.2,147.5 L70.2,147.5 M68.2,141.8 L70.2,141.8 M68.2,130.4 L70.2,130.4 M68.2,124.7 L70.2,124.7 M68.2,119 L70.2,119 M68.2,113.3 L70.2,113.3 M68.2,101.9 L70.2,101.9 M68.2,96.22 L70.2,96.22 M68.2,90.52 L70.2,90.52 M68.2,84.83 L70.2,84.83 M68.2,73.44 L70.2,73.44 M68.2,67.75 L70.2,67.75 M68.2,62.05 L70.2,62.05 M68.2,335.4 L70.2,335.4 " fill="none"/></g>
<g id="xMinorTicks" stroke="rgb(0,0,0)" stroke-width="1"><path d="M70.2,335.4 L70.2,337.4 M112.8,335.4 L112.8,337.4 M155.4,335.4 L155.4,337.4 M198.1,335.4 L198.1,337.4 M283.3,335.4 L283.3,337.4 M325.9,335.4 L325.9,337.4 M368.5,335.4 L368.5,337.4 M411.2,335.4 L411.2,337.4 M496.4,335.4 L496.4,337.4 M539,335.4 L539,337.4 M581.7,335.4 L581.7,337.4 " fill="none"/></g>
<g id="yMajorTicks" stroke="rgb(0,0,0)" stroke-width="2"><path d="M65.2,335.4 L70.2,335.4 M65.2,306.9 L70.2,306.9 M65.2,278.5 L70.2,278.5 M65.2,250 L70.2,250 M65.2,221.5 L70.2,221.5 M65.2,193 L70.2,193 M65.2,164.6 L70.2,164.6 M65.2,136.1 L70.2,136.1 M65.2,107.6 L70.2,107.6 M65.2,79.13 L70.2,79.13 M65.2,335.4 L70.2,335.4 " fill="none"/></g>
<g id="xMajorTicks" stroke="rgb(0,0,0)" stroke-width="2"><path d="M240.7,335.4 L240.7,340.4 M453.8,335.4 L453.8,340.4 " fill="none"/></g>
<g id="plotLabels">
<text x="240.7" y="357.2" text-anchor="middle" font-size="14" font-family="Verdana">5</text>
<text x="453.8" y="357.2" text-anchor="middle" font-size="14" font-family="Verdana">10</text>
<text x="59.2" y="337.8" text-anchor="end" font-size="12" font-family="Verdana">0</text>
<text x="59.2" y="309.3" text-anchor="end" font-size="12" font-family="Verdana">0.1</text>
<text x="59.2" y="280.9" text-anchor="end" font-size="12" font-family="Verdana">0.2</text>
<text x="59.2" y="252.4" text-anchor="end" font-size="12" font-family="Verdana">0.3</text>
<text x="59.2" y="223.9" text-anchor="end" font-size="12" font-family="Verdana">0.4</text>
<text x="59.2" y="195.4" text-anchor="end" font-size="12" font-family="Verdana">0.5</text>
<text x="59.2" y="167" text-anchor="end" font-size="12" font-family="Verdana">0.6</text>
<text x="59.2" y="138.5" text-anchor="end" font-size="12" font-family="Verdana">0.7</text>
<text x="59.2" y="110" text-anchor="end" font-size="12" font-family="Verdana">0.8</text>
<text x="59.2" y="81.53" text-anchor="end" font-size="12" font-family="Verdana">0.9</text>
<text x="59.2" y="337.8" text-anchor="end" font-size="12" font-family="Verdana">0</text></g>
<g id="yLabel">
<text x="30.2" y="198.7" text-anchor="middle" transform = "rotate(-90 30.2 198.7 )" font-size="14" font-family="Verdana">Probability</text></g>
<g id="xLabel">
<text x="337.7" y="388" text-anchor="middle" font-size="14" font-family="Verdana">Random Variable</text></g>
<g id="plotLines" stroke-width="2"><g clip-path="url(#plot_window)" stroke="rgb(0,0,139)" stroke-width="1"><path d="M70.2,50.66 L72.87,83.29 L75.55,110.6 L78.22,133.7 L80.9,153.5 L83.57,170.4 L86.25,185.1 L88.92,197.9 L91.6,209.2 L94.27,219.1 L96.95,227.9 L99.62,235.7 L102.3,242.7 L105,249 L107.6,254.7 L110.3,259.8 L113,264.5 L115.7,268.7 L118.3,272.6 L121,276.2 L123.7,279.4 L126.4,282.4 L129,285.2 L131.7,287.7 L134.4,290.1 L137.1,292.3 L139.7,294.3 L142.4,296.2 L145.1,297.9 L147.8,299.6 L150.4,301.1 L153.1,302.6 L155.8,303.9 L158.5,305.2 L161.1,306.4 L163.8,307.5 L166.5,308.6 L169.2,309.6 L171.8,310.5 L174.5,311.4 L177.2,312.3 L179.9,313.1 L182.5,313.9 L185.2,314.6 L187.9,315.3 L190.6,315.9 L193.2,316.6 L195.9,317.1 L198.6,317.7 L201.3,318.3 L203.9,318.8 L206.6,319.3 L209.3,319.7 L212,320.2 L214.6,320.6 L217.3,321 L220,321.4 L222.7,321.8 L225.3,322.2 L228,322.5 L230.7,322.9 L233.4,323.2 L236,323.5 L238.7,323.8 L241.4,324.1 L244,324.4 L246.7,324.6 L249.4,324.9 L252.1,325.1 L254.7,325.4 L257.4,325.6 L260.1,325.8 L262.8,326 L265.4,326.3 L268.1,326.5 L270.8,326.7 L273.5,326.8 L276.1,327 L278.8,327.2 L281.5,327.4 L284.2,327.5 L286.8,327.7 L289.5,327.9 L292.2,328 L294.9,328.2 L297.5,328.3 L300.2,328.4 L302.9,328.6 L305.6,328.7 L308.2,328.8 L310.9,329 L313.6,329.1 L316.3,329.2 L318.9,329.3 L321.6,329.4 L324.3,329.5 L327,329.6 L329.6,329.7 L332.3,329.8 L335,329.9 L337.7,330 L340.3,330.1 L343,330.2 L345.7,330.3 L348.4,330.4 L351,330.5 L353.7,330.5 L356.4,330.6 L359.1,330.7 L361.7,330.8 L364.4,330.8 L367.1,330.9 L369.8,331 L372.4,331.1 L375.1,331.1 L377.8,331.2 L380.5,331.2 L383.1,331.3 L385.8,331.4 L388.5,331.4 L391.2,331.5 L393.8,331.5 L396.5,331.6 L399.2,331.7 L401.9,331.7 L404.5,331.8 L407.2,331.8 L409.9,331.9 L412.5,331.9 L415.2,332 L417.9,332 L420.6,332.1 L423.2,332.1 L425.9,332.1 L428.6,332.2 L431.3,332.2 L433.9,332.3 L436.6,332.3 L439.3,332.3 L442,332.4 L444.6,332.4 L447.3,332.5 L450,332.5 L452.7,332.5 L455.3,332.6 L458,332.6 L460.7,332.6 L463.4,332.7 L466,332.7 L468.7,332.7 L471.4,332.8 L474.1,332.8 L476.7,332.8 L479.4,332.9 L482.1,332.9 L484.8,332.9 L487.4,333 L490.1,333 L492.8,333 L495.5,333 L498.1,333.1 L500.8,333.1 L503.5,333.1 L506.2,333.1 L508.8,333.2 L511.5,333.2 L514.2,333.2 L516.9,333.2 L519.5,333.3 L522.2,333.3 L524.9,333.3 L527.6,333.3 L530.2,333.4 L532.9,333.4 L535.6,333.4 L538.3,333.4 L540.9,333.4 L543.6,333.5 L546.3,333.5 L549,333.5 L551.6,333.5 L554.3,333.5 L557,333.6 L559.7,333.6 L562.3,333.6 L565,333.6 L567.7,333.6 L570.4,333.6 L573,333.7 L575.7,333.7 L578.4,333.7 L581,333.7 L583.7,333.7 L586.4,333.7 L589.1,333.8 L591.7,333.8 L594.4,333.8 L597.1,333.8 L599.8,333.8 L602.4,333.8 L605.1,333.8 " fill="none"/></g>
<g clip-path="url(#plot_window)" stroke="rgb(139,0,0)" stroke-width="1"><path d="M70.2,335.4 L72.87,335.4 L75.55,335.4 L78.22,335.4 L80.9,335.4 L83.57,335.4 L86.25,335.4 L88.92,335.4 L91.6,335.4 L94.27,335.4 L96.95,335.4 L99.62,335.4 L102.3,335.4 L105,335.4 L107.6,335.4 L110.3,335.4 L113,193.6 L115.7,202.1 L118.3,209.8 L121,216.9 L123.7,223.4 L126.4,229.4 L129,234.9 L131.7,240 L134.4,244.7 L137.1,249.1 L139.7,253.2 L142.4,257 L145.1,260.5 L147.8,263.8 L150.4,266.9 L153.1,269.8 L155.8,272.5 L158.5,275 L161.1,277.4 L163.8,279.7 L166.5,281.8 L169.2,283.8 L171.8,285.7 L174.5,287.5 L177.2,289.2 L179.9,290.8 L182.5,292.3 L185.2,293.8 L187.9,295.1 L190.6,296.5 L193.2,297.7 L195.9,298.9 L198.6,300 L201.3,301.1 L203.9,302.1 L206.6,303.1 L209.3,304.1 L212,305 L214.6,305.8 L217.3,306.7 L220,307.5 L222.7,308.2 L225.3,308.9 L228,309.6 L230.7,310.3 L233.4,311 L236,311.6 L238.7,312.2 L241.4,312.8 L244,313.3 L246.7,313.9 L249.4,314.4 L252.1,314.9 L254.7,315.4 L257.4,315.8 L260.1,316.3 L262.8,316.7 L265.4,317.1 L268.1,317.5 L270.8,317.9 L273.5,318.3 L276.1,318.7 L278.8,319 L281.5,319.4 L284.2,319.7 L286.8,320 L289.5,320.3 L292.2,320.6 L294.9,320.9 L297.5,321.2 L300.2,321.5 L302.9,321.8 L305.6,322 L308.2,322.3 L310.9,322.5 L313.6,322.8 L316.3,323 L318.9,323.2 L321.6,323.4 L324.3,323.6 L327,323.9 L329.6,324.1 L332.3,324.3 L335,324.5 L337.7,324.6 L340.3,324.8 L343,325 L345.7,325.2 L348.4,325.3 L351,325.5 L353.7,325.7 L356.4,325.8 L359.1,326 L361.7,326.1 L364.4,326.3 L367.1,326.4 L369.8,326.6 L372.4,326.7 L375.1,326.8 L377.8,327 L380.5,327.1 L383.1,327.2 L385.8,327.3 L388.5,327.5 L391.2,327.6 L393.8,327.7 L396.5,327.8 L399.2,327.9 L401.9,328 L404.5,328.1 L407.2,328.2 L409.9,328.3 L412.5,328.4 L415.2,328.5 L417.9,328.6 L420.6,328.7 L423.2,328.8 L425.9,328.9 L428.6,329 L431.3,329.1 L433.9,329.1 L436.6,329.2 L439.3,329.3 L442,329.4 L444.6,329.5 L447.3,329.5 L450,329.6 L452.7,329.7 L455.3,329.7 L458,329.8 L460.7,329.9 L463.4,330 L466,330 L468.7,330.1 L471.4,330.1 L474.1,330.2 L476.7,330.3 L479.4,330.3 L482.1,330.4 L484.8,330.5 L487.4,330.5 L490.1,330.6 L492.8,330.6 L495.5,330.7 L498.1,330.7 L500.8,330.8 L503.5,330.8 L506.2,330.9 L508.8,330.9 L511.5,331 L514.2,331 L516.9,331.1 L519.5,331.1 L522.2,331.2 L524.9,331.2 L527.6,331.3 L530.2,331.3 L532.9,331.3 L535.6,331.4 L538.3,331.4 L540.9,331.5 L543.6,331.5 L546.3,331.6 L549,331.6 L551.6,331.6 L554.3,331.7 L557,331.7 L559.7,331.7 L562.3,331.8 L565,331.8 L567.7,331.9 L570.4,331.9 L573,331.9 L575.7,332 L578.4,332 L581,332 L583.7,332.1 L586.4,332.1 L589.1,332.1 L591.7,332.1 L594.4,332.2 L597.1,332.2 L599.8,332.2 L602.4,332.3 L605.1,332.3 " fill="none"/></g>
<g clip-path="url(#plot_window)" stroke="rgb(0,100,0)" stroke-width="1"><path d="M70.2,335.4 L72.87,335.4 L75.55,335.4 L78.22,335.4 L80.9,335.4 L83.57,335.4 L86.25,335.4 L88.92,335.4 L91.6,335.4 L94.27,335.4 L96.95,335.4 L99.62,335.4 L102.3,335.4 L105,335.4 L107.6,335.4 L110.3,335.4 L113,335.4 L115.7,335.4 L118.3,335.4 L121,335.4 L123.7,335.4 L126.4,335.4 L129,335.4 L131.7,335.4 L134.4,335.4 L137.1,335.4 L139.7,335.4 L142.4,335.4 L145.1,335.4 L147.8,335.4 L150.4,335.4 L153.1,335.4 L155.8,241 L158.5,244.8 L161.1,248.4 L163.8,251.8 L166.5,255 L169.2,258 L171.8,260.8 L174.5,263.5 L177.2,266.1 L179.9,268.5 L182.5,270.8 L185.2,272.9 L187.9,275 L190.6,277 L193.2,278.9 L195.9,280.6 L198.6,282.3 L201.3,284 L203.9,285.5 L206.6,287 L209.3,288.4 L212,289.8 L214.6,291 L217.3,292.3 L220,293.5 L222.7,294.6 L225.3,295.7 L228,296.8 L230.7,297.8 L233.4,298.8 L236,299.7 L238.7,300.6 L241.4,301.5 L244,302.3 L246.7,303.1 L249.4,303.9 L252.1,304.6 L254.7,305.3 L257.4,306 L260.1,306.7 L262.8,307.3 L265.4,308 L268.1,308.6 L270.8,309.2 L273.5,309.7 L276.1,310.3 L278.8,310.8 L281.5,311.3 L284.2,311.8 L286.8,312.3 L289.5,312.8 L292.2,313.2 L294.9,313.7 L297.5,314.1 L300.2,314.5 L302.9,314.9 L305.6,315.3 L308.2,315.7 L310.9,316.1 L313.6,316.4 L316.3,316.8 L318.9,317.1 L321.6,317.5 L324.3,317.8 L327,318.1 L329.6,318.4 L332.3,318.7 L335,319 L337.7,319.3 L340.3,319.5 L343,319.8 L345.7,320.1 L348.4,320.3 L351,320.6 L353.7,320.8 L356.4,321 L359.1,321.3 L361.7,321.5 L364.4,321.7 L367.1,321.9 L369.8,322.1 L372.4,322.4 L375.1,322.6 L377.8,322.7 L380.5,322.9 L383.1,323.1 L385.8,323.3 L388.5,323.5 L391.2,323.7 L393.8,323.8 L396.5,324 L399.2,324.2 L401.9,324.3 L404.5,324.5 L407.2,324.6 L409.9,324.8 L412.5,324.9 L415.2,325.1 L417.9,325.2 L420.6,325.4 L423.2,325.5 L425.9,325.6 L428.6,325.8 L431.3,325.9 L433.9,326 L436.6,326.1 L439.3,326.2 L442,326.4 L444.6,326.5 L447.3,326.6 L450,326.7 L452.7,326.8 L455.3,326.9 L458,327 L460.7,327.1 L463.4,327.2 L466,327.3 L468.7,327.4 L471.4,327.5 L474.1,327.6 L476.7,327.7 L479.4,327.8 L482.1,327.9 L484.8,328 L487.4,328.1 L490.1,328.1 L492.8,328.2 L495.5,328.3 L498.1,328.4 L500.8,328.5 L503.5,328.5 L506.2,328.6 L508.8,328.7 L511.5,328.8 L514.2,328.8 L516.9,328.9 L519.5,329 L522.2,329.1 L524.9,329.1 L527.6,329.2 L530.2,329.3 L532.9,329.3 L535.6,329.4 L538.3,329.4 L540.9,329.5 L543.6,329.6 L546.3,329.6 L549,329.7 L551.6,329.7 L554.3,329.8 L557,329.9 L559.7,329.9 L562.3,330 L565,330 L567.7,330.1 L570.4,330.1 L573,330.2 L575.7,330.2 L578.4,330.3 L581,330.3 L583.7,330.4 L586.4,330.4 L589.1,330.5 L591.7,330.5 L594.4,330.6 L597.1,330.6 L599.8,330.7 L602.4,330.7 L605.1,330.7 " fill="none"/></g>
</g>
<g id="plotPoints" clip-path="url(#plot_window)"></g>
<g id="legendBackground" stroke="rgb(119,136,153)" fill="rgb(255,255,255)" stroke-width="1"><rect x="619.1" y="62" width="118.9" height="105"/><rect x="619.1" y="62" width="118.9" height="105"/></g>
<g id="legendPoints"><g stroke="rgb(0,0,139)" stroke-width="1"><line x1="634.1" y1="92" x2="649.1" y2="92"/></g>
<g stroke="rgb(139,0,0)" stroke-width="1"><line x1="634.1" y1="122" x2="649.1" y2="122"/></g>
<g stroke="rgb(0,100,0)" stroke-width="1"><line x1="634.1" y1="152" x2="649.1" y2="152"/></g>
</g>
<g id="legendText">
<text x="656.6" y="92" font-size="15" font-family="Verdana">scale=1</text>
<text x="656.6" y="122" font-size="15" font-family="Verdana">scale=2</text>
<text x="656.6" y="152" font-size="15" font-family="Verdana">scale=3</text></g>
<g id="title">
<text x="375" y="40" text-anchor="middle" font-size="20" font-family="Verdana">Pareto Distribution PDF (shape=1)</text></g>
<g id="plotXValues"></g>
<g id="plotYValues"></g>
</svg>
