<?xml version="1.0" encoding="UTF-8" standalone="no"?>
<svg width="750" height ="400" version="1.1"
xmlns:svg ="http://www.w3.org/2000/svg"
xmlns:rdf="http://www.w3.org/1999/02/22-rdf-syntax-ns#"
xmlns:cc="http://web.resource.org/cc/"
xmlns:dc="http://purl.org/dc/elements/1.1/"
xmlns ="http://www.w3.org/2000/svg"
>
<!-- SVG plot written using Boost.Plot program (Creator Jacob Voytko) --> 
<!-- Use, modification and distribution of Boost.Plot subject to the --> 
<!-- Boost Software License, Version 1.0.--> 
<!-- (See accompanying file LICENSE_1_0.txt --> 
<!-- or copy at http://www.boost.org/LICENSE_1_0.txt) --> 

<clipPath id="plot_window"><rect x="71.2" y="63" width="517.2" height="271.4"/></clipPath>
<g id="imageBackground" stroke="rgb(119,136,153)" fill="rgb(255,255,255)" stroke-width="2"><rect x="0" y="0" width="750" height="400"/></g>
<g id="plotBackground" stroke="rgb(119,136,153)" fill="rgb(255,255,255)" stroke-width="2"><rect x="70.2" y="62" width="519.2" height="273.4"/></g>
<g id="yMinorGrid" stroke="rgb(200,220,255)" stroke-width="0.5"></g>
<g id="yMajorGrid" stroke="rgb(200,220,255)" stroke-width="1"></g>
<g id="xMinorGrid" stroke="rgb(200,220,255)" stroke-width="0.5"></g>
<g id="xMajorGrid" stroke="rgb(200,220,255)" stroke-width="1"></g>
<g id="yAxis" stroke="rgb(0,0,0)" stroke-width="1"><line x1="70.2" y1="62" x2="70.2" y2="335.4"/></g>
<g id="xAxis" stroke="rgb(0,0,0)" stroke-width="1"><line x1="65.2" y1="335.4" x2="589.4" y2="335.4"/><line x1="65.2" y1="335.4" x2="589.4" y2="335.4"/></g>
<g id="yMinorTicks" stroke="rgb(0,0,0)" stroke-width="1"><path d="M68.2,321.6 L70.2,321.6 M68.2,307.9 L70.2,307.9 M68.2,294.1 L70.2,294.1 M68.2,280.3 L70.2,280.3 M68.2,252.8 L70.2,252.8 M68.2,239 L70.2,239 M68.2,225.2 L70.2,225.2 M68.2,211.5 L70.2,211.5 M68.2,183.9 L70.2,183.9 M68.2,170.1 L70.2,170.1 M68.2,156.4 L70.2,156.4 M68.2,142.6 L70.2,142.6 M68.2,115.1 L70.2,115.1 M68.2,101.3 L70.2,101.3 M68.2,87.51 L70.2,87.51 M68.2,73.74 L70.2,73.74 M68.2,335.4 L70.2,335.4 " fill="none"/></g>
<g id="xMinorTicks" stroke="rgb(0,0,0)" stroke-width="1"><path d="M86.35,335.4 L86.35,337.4 M102.5,335.4 L102.5,337.4 M118.6,335.4 L118.6,337.4 M134.8,335.4 L134.8,337.4 M167.1,335.4 L167.1,337.4 M183.2,335.4 L183.2,337.4 M199.4,335.4 L199.4,337.4 M215.5,335.4 L215.5,337.4 M247.8,335.4 L247.8,337.4 M264,335.4 L264,337.4 M280.1,335.4 L280.1,337.4 M296.3,335.4 L296.3,337.4 M328.6,335.4 L328.6,337.4 M344.7,335.4 L344.7,337.4 M360.9,335.4 L360.9,337.4 M377,335.4 L377,337.4 M409.3,335.4 L409.3,337.4 M425.5,335.4 L425.5,337.4 M441.6,335.4 L441.6,337.4 M457.8,335.4 L457.8,337.4 M490.1,335.4 L490.1,337.4 M506.2,335.4 L506.2,337.4 M522.4,335.4 L522.4,337.4 M538.5,335.4 L538.5,337.4 M570.8,335.4 L570.8,337.4 M587,335.4 L587,337.4 " fill="none"/></g>
<g id="yMajorTicks" stroke="rgb(0,0,0)" stroke-width="2"><path d="M65.2,335.4 L70.2,335.4 M65.2,266.5 L70.2,266.5 M65.2,197.7 L70.2,197.7 M65.2,128.8 L70.2,128.8 M65.2,335.4 L70.2,335.4 " fill="none"/></g>
<g id="xMajorTicks" stroke="rgb(0,0,0)" stroke-width="2"><path d="M70.2,335.4 L70.2,340.4 M150.9,335.4 L150.9,340.4 M231.7,335.4 L231.7,340.4 M312.4,335.4 L312.4,340.4 M393.2,335.4 L393.2,340.4 M473.9,335.4 L473.9,340.4 M554.7,335.4 L554.7,340.4 " fill="none"/></g>
<g id="plotLabels">
<text x="70.2" y="357.2" text-anchor="middle" font-size="14" font-family="Verdana">1</text>
<text x="150.9" y="357.2" text-anchor="middle" font-size="14" font-family="Verdana">2</text>
<text x="231.7" y="357.2" text-anchor="middle" font-size="14" font-family="Verdana">3</text>
<text x="312.4" y="357.2" text-anchor="middle" font-size="14" font-family="Verdana">4</text>
<text x="393.2" y="357.2" text-anchor="middle" font-size="14" font-family="Verdana">5</text>
<text x="473.9" y="357.2" text-anchor="middle" font-size="14" font-family="Verdana">6</text>
<text x="554.7" y="357.2" text-anchor="middle" font-size="14" font-family="Verdana">7</text>
<text x="59.2" y="337.8" text-anchor="end" font-size="12" font-family="Verdana">0</text>
<text x="59.2" y="268.9" text-anchor="end" font-size="12" font-family="Verdana">0.5</text>
<text x="59.2" y="200.1" text-anchor="end" font-size="12" font-family="Verdana">1</text>
<text x="59.2" y="131.2" text-anchor="end" font-size="12" font-family="Verdana">1.5</text>
<text x="59.2" y="337.8" text-anchor="end" font-size="12" font-family="Verdana">0</text></g>
<g id="yLabel">
<text x="30.2" y="198.7" text-anchor="middle" transform = "rotate(-90 30.2 198.7 )" font-size="14" font-family="Verdana">Probability</text></g>
<g id="xLabel">
<text x="329.8" y="388" text-anchor="middle" font-size="14" font-family="Verdana">Random Variable</text></g>
<g id="plotLines" stroke-width="2"><g clip-path="url(#plot_window)" stroke="rgb(0,0,139)" stroke-width="1"><path d="M70.2,266.5 L72.8,269.7 L75.39,272.7 L77.99,275.4 L80.58,278 L83.18,280.3 L85.78,282.6 L88.37,284.6 L90.97,286.6 L93.57,288.4 L96.16,290.1 L98.76,291.7 L101.4,293.2 L104,294.6 L106.5,296 L109.1,297.2 L111.7,298.5 L114.3,299.6 L116.9,300.7 L119.5,301.7 L122.1,302.7 L124.7,303.6 L127.3,304.5 L129.9,305.4 L132.5,306.2 L135.1,307 L137.7,307.7 L140.3,308.4 L142.9,309.1 L145.5,309.8 L148.1,310.4 L150.7,311 L153.3,311.6 L155.9,312.1 L158.5,312.7 L161.1,313.2 L163.7,313.7 L166.3,314.1 L168.9,314.6 L171.5,315.1 L174,315.5 L176.6,315.9 L179.2,316.3 L181.8,316.7 L184.4,317 L187,317.4 L189.6,317.8 L192.2,318.1 L194.8,318.4 L197.4,318.7 L200,319 L202.6,319.3 L205.2,319.6 L207.8,319.9 L210.4,320.2 L213,320.5 L215.6,320.7 L218.2,321 L220.8,321.2 L223.4,321.4 L226,321.7 L228.6,321.9 L231.2,322.1 L233.8,322.3 L236.4,322.5 L239,322.7 L241.5,322.9 L244.1,323.1 L246.7,323.3 L249.3,323.5 L251.9,323.7 L254.5,323.8 L257.1,324 L259.7,324.2 L262.3,324.3 L264.9,324.5 L267.5,324.6 L270.1,324.8 L272.7,324.9 L275.3,325.1 L277.9,325.2 L280.5,325.3 L283.1,325.5 L285.7,325.6 L288.3,325.7 L290.9,325.9 L293.5,326 L296.1,326.1 L298.7,326.2 L301.3,326.3 L303.9,326.4 L306.5,326.5 L309.1,326.7 L311.6,326.8 L314.2,326.9 L316.8,327 L319.4,327.1 L322,327.2 L324.6,327.3 L327.2,327.4 L329.8,327.4 L332.4,327.5 L335,327.6 L337.6,327.7 L340.2,327.8 L342.8,327.9 L345.4,328 L348,328 L350.6,328.1 L353.2,328.2 L355.8,328.3 L358.4,328.3 L361,328.4 L363.6,328.5 L366.2,328.6 L368.8,328.6 L371.4,328.7 L374,328.8 L376.6,328.8 L379.1,328.9 L381.7,329 L384.3,329 L386.9,329.1 L389.5,329.2 L392.1,329.2 L394.7,329.3 L397.3,329.3 L399.9,329.4 L402.5,329.4 L405.1,329.5 L407.7,329.6 L410.3,329.6 L412.9,329.7 L415.5,329.7 L418.1,329.8 L420.7,329.8 L423.3,329.9 L425.9,329.9 L428.5,330 L431.1,330 L433.7,330.1 L436.3,330.1 L438.9,330.2 L441.5,330.2 L444.1,330.2 L446.6,330.3 L449.2,330.3 L451.8,330.4 L454.4,330.4 L457,330.5 L459.6,330.5 L462.2,330.5 L464.8,330.6 L467.4,330.6 L470,330.7 L472.6,330.7 L475.2,330.7 L477.8,330.8 L480.4,330.8 L483,330.8 L485.6,330.9 L488.2,330.9 L490.8,330.9 L493.4,331 L496,331 L498.6,331.1 L501.2,331.1 L503.8,331.1 L506.4,331.1 L509,331.2 L511.6,331.2 L514.2,331.2 L516.7,331.3 L519.3,331.3 L521.9,331.3 L524.5,331.4 L527.1,331.4 L529.7,331.4 L532.3,331.5 L534.9,331.5 L537.5,331.5 L540.1,331.5 L542.7,331.6 L545.3,331.6 L547.9,331.6 L550.5,331.6 L553.1,331.7 L555.7,331.7 L558.3,331.7 L560.9,331.7 L563.5,331.8 L566.1,331.8 L568.7,331.8 L571.3,331.8 L573.9,331.9 L576.5,331.9 L579.1,331.9 L581.7,331.9 L584.2,332 L586.8,332 " fill="none"/></g>
<g clip-path="url(#plot_window)" stroke="rgb(139,0,0)" stroke-width="1"><path d="M70.2,197.7 L72.8,206.1 L75.39,213.8 L77.99,220.8 L80.58,227.3 L83.18,233.2 L85.78,238.6 L88.37,243.6 L90.97,248.3 L93.57,252.6 L96.16,256.5 L98.76,260.2 L101.4,263.7 L104,266.9 L106.5,269.9 L109.1,272.7 L111.7,275.4 L114.3,277.8 L116.9,280.1 L119.5,282.3 L122.1,284.4 L124.7,286.3 L127.3,288.2 L129.9,289.9 L132.5,291.5 L135.1,293.1 L137.7,294.5 L140.3,295.9 L142.9,297.3 L145.5,298.5 L148.1,299.7 L150.7,300.9 L153.3,301.9 L155.9,303 L158.5,304 L161.1,304.9 L163.7,305.8 L166.3,306.7 L168.9,307.5 L171.5,308.3 L174,309 L176.6,309.8 L179.2,310.5 L181.8,311.1 L184.4,311.8 L187,312.4 L189.6,313 L192.2,313.6 L194.8,314.1 L197.4,314.6 L200,315.1 L202.6,315.6 L205.2,316.1 L207.8,316.6 L210.4,317 L213,317.4 L215.6,317.8 L218.2,318.2 L220.8,318.6 L223.4,319 L226,319.3 L228.6,319.7 L231.2,320 L233.8,320.4 L236.4,320.7 L239,321 L241.5,321.3 L244.1,321.6 L246.7,321.8 L249.3,322.1 L251.9,322.4 L254.5,322.6 L257.1,322.9 L259.7,323.1 L262.3,323.3 L264.9,323.6 L267.5,323.8 L270.1,324 L272.7,324.2 L275.3,324.4 L277.9,324.6 L280.5,324.8 L283.1,325 L285.7,325.2 L288.3,325.3 L290.9,325.5 L293.5,325.7 L296.1,325.8 L298.7,326 L301.3,326.2 L303.9,326.3 L306.5,326.5 L309.1,326.6 L311.6,326.8 L314.2,326.9 L316.8,327 L319.4,327.2 L322,327.3 L324.6,327.4 L327.2,327.5 L329.8,327.6 L332.4,327.8 L335,327.9 L337.6,328 L340.2,328.1 L342.8,328.2 L345.4,328.3 L348,328.4 L350.6,328.5 L353.2,328.6 L355.8,328.7 L358.4,328.8 L361,328.9 L363.6,329 L366.2,329.1 L368.8,329.2 L371.4,329.2 L374,329.3 L376.6,329.4 L379.1,329.5 L381.7,329.6 L384.3,329.6 L386.9,329.7 L389.5,329.8 L392.1,329.9 L394.7,329.9 L397.3,330 L399.9,330.1 L402.5,330.1 L405.1,330.2 L407.7,330.3 L410.3,330.3 L412.9,330.4 L415.5,330.5 L418.1,330.5 L420.7,330.6 L423.3,330.6 L425.9,330.7 L428.5,330.7 L431.1,330.8 L433.7,330.8 L436.3,330.9 L438.9,331 L441.5,331 L444.1,331.1 L446.6,331.1 L449.2,331.2 L451.8,331.2 L454.4,331.2 L457,331.3 L459.6,331.3 L462.2,331.4 L464.8,331.4 L467.4,331.5 L470,331.5 L472.6,331.6 L475.2,331.6 L477.8,331.6 L480.4,331.7 L483,331.7 L485.6,331.8 L488.2,331.8 L490.8,331.8 L493.4,331.9 L496,331.9 L498.6,331.9 L501.2,332 L503.8,332 L506.4,332 L509,332.1 L511.6,332.1 L514.2,332.1 L516.7,332.2 L519.3,332.2 L521.9,332.2 L524.5,332.3 L527.1,332.3 L529.7,332.3 L532.3,332.4 L534.9,332.4 L537.5,332.4 L540.1,332.4 L542.7,332.5 L545.3,332.5 L547.9,332.5 L550.5,332.5 L553.1,332.6 L555.7,332.6 L558.3,332.6 L560.9,332.7 L563.5,332.7 L566.1,332.7 L568.7,332.7 L571.3,332.7 L573.9,332.8 L576.5,332.8 L579.1,332.8 L581.7,332.8 L584.2,332.9 L586.8,332.9 " fill="none"/></g>
<g clip-path="url(#plot_window)" stroke="rgb(0,100,0)" stroke-width="1"><path d="M70.2,59.97 L72.8,84.91 L75.39,106.9 L77.99,126.5 L80.58,143.8 L83.18,159.3 L85.78,173.2 L88.37,185.6 L90.97,196.8 L93.57,206.9 L96.16,216.1 L98.76,224.4 L101.4,231.9 L104,238.8 L106.5,245.1 L109.1,250.8 L111.7,256.1 L114.3,260.9 L116.9,265.4 L119.5,269.5 L122.1,273.3 L124.7,276.8 L127.3,280.1 L129.9,283.1 L132.5,285.9 L135.1,288.5 L137.7,290.9 L140.3,293.2 L142.9,295.3 L145.5,297.2 L148.1,299.1 L150.7,300.8 L153.3,302.4 L155.9,303.9 L158.5,305.4 L161.1,306.7 L163.7,308 L166.3,309.2 L168.9,310.3 L171.5,311.3 L174,312.3 L176.6,313.3 L179.2,314.2 L181.8,315 L184.4,315.8 L187,316.6 L189.6,317.3 L192.2,318 L194.8,318.7 L197.4,319.3 L200,319.9 L202.6,320.4 L205.2,321 L207.8,321.5 L210.4,322 L213,322.4 L215.6,322.9 L218.2,323.3 L220.8,323.7 L223.4,324.1 L226,324.4 L228.6,324.8 L231.2,325.1 L233.8,325.5 L236.4,325.8 L239,326.1 L241.5,326.3 L244.1,326.6 L246.7,326.9 L249.3,327.1 L251.9,327.4 L254.5,327.6 L257.1,327.8 L259.7,328.1 L262.3,328.3 L264.9,328.5 L267.5,328.7 L270.1,328.8 L272.7,329 L275.3,329.2 L277.9,329.4 L280.5,329.5 L283.1,329.7 L285.7,329.8 L288.3,330 L290.9,330.1 L293.5,330.2 L296.1,330.4 L298.7,330.5 L301.3,330.6 L303.9,330.7 L306.5,330.8 L309.1,331 L311.6,331.1 L314.2,331.2 L316.8,331.3 L319.4,331.4 L322,331.5 L324.6,331.5 L327.2,331.6 L329.8,331.7 L332.4,331.8 L335,331.9 L337.6,332 L340.2,332 L342.8,332.1 L345.4,332.2 L348,332.3 L350.6,332.3 L353.2,332.4 L355.8,332.5 L358.4,332.5 L361,332.6 L363.6,332.6 L366.2,332.7 L368.8,332.7 L371.4,332.8 L374,332.8 L376.6,332.9 L379.1,332.9 L381.7,333 L384.3,333 L386.9,333.1 L389.5,333.1 L392.1,333.2 L394.7,333.2 L397.3,333.3 L399.9,333.3 L402.5,333.3 L405.1,333.4 L407.7,333.4 L410.3,333.5 L412.9,333.5 L415.5,333.5 L418.1,333.6 L420.7,333.6 L423.3,333.6 L425.9,333.7 L428.5,333.7 L431.1,333.7 L433.7,333.7 L436.3,333.8 L438.9,333.8 L441.5,333.8 L444.1,333.9 L446.6,333.9 L449.2,333.9 L451.8,333.9 L454.4,334 L457,334 L459.6,334 L462.2,334 L464.8,334.1 L467.4,334.1 L470,334.1 L472.6,334.1 L475.2,334.1 L477.8,334.2 L480.4,334.2 L483,334.2 L485.6,334.2 L488.2,334.2 L490.8,334.2 L493.4,334.3 L496,334.3 L498.6,334.3 L501.2,334.3 L503.8,334.3 L506.4,334.4 L509,334.4 L511.6,334.4 L514.2,334.4 L516.7,334.4 L519.3,334.4 L521.9,334.4 L524.5,334.5 L527.1,334.5 L529.7,334.5 L532.3,334.5 L534.9,334.5 L537.5,334.5 L540.1,334.5 L542.7,334.5 L545.3,334.6 L547.9,334.6 L550.5,334.6 L553.1,334.6 L555.7,334.6 L558.3,334.6 L560.9,334.6 L563.5,334.6 L566.1,334.6 L568.7,334.7 L571.3,334.7 L573.9,334.7 L576.5,334.7 L579.1,334.7 L581.7,334.7 L584.2,334.7 L586.8,334.7 " fill="none"/></g>
</g>
<g id="plotPoints" clip-path="url(#plot_window)"></g>
<g id="legendBackground" stroke="rgb(119,136,153)" fill="rgb(255,255,255)" stroke-width="1"><rect x="603.4" y="62" width="134.6" height="105"/><rect x="603.4" y="62" width="134.6" height="105"/></g>
<g id="legendPoints"><g stroke="rgb(0,0,139)" stroke-width="1"><line x1="618.4" y1="92" x2="633.4" y2="92"/></g>
<g stroke="rgb(139,0,0)" stroke-width="1"><line x1="618.4" y1="122" x2="633.4" y2="122"/></g>
<g stroke="rgb(0,100,0)" stroke-width="1"><line x1="618.4" y1="152" x2="633.4" y2="152"/></g>
</g>
<g id="legendText">
<text x="640.9" y="92" font-size="15" font-family="Verdana">shape=0.5</text>
<text x="640.9" y="122" font-size="15" font-family="Verdana">shape=1</text>
<text x="640.9" y="152" font-size="15" font-family="Verdana">shape=2</text></g>
<g id="title">
<text x="375" y="40" text-anchor="middle" font-size="20" font-family="Verdana">Pareto Distribution PDF (scale=1)</text></g>
<g id="plotXValues"></g>
<g id="plotYValues"></g>
</svg>
