<?xml version="1.0" encoding="UTF-8" standalone="no"?>
<svg width="750" height ="400" version="1.1" xmlns="http://www.w3.org/2000/svg"
 xmlns:xlink="http://www.w3.org/1999/xlink"
 xmlns:ev="http://www.w3.org/2001/xml-events">

<!-- SVG plot written using Boost.Plot program (Creator Jacob Voytko) --> 
<!-- Use, modification and distribution of Boost.Plot subject to the --> 
<!-- Boost Software License, Version 1.0.--> 
<!-- (See accompanying file LICENSE_1_0.txt --> 
<!-- or copy at http://www.boost.org/LICENSE_1_0.txt) --> 

<clipPath id="plot_window"><rect x="79.6" y="63" width="548" height="274.2"/></clipPath>
<g id="imageBackground" stroke="rgb(119,136,153)" fill="rgb(255,255,255)" stroke-width="2"><rect x="0" y="0" width="750" height="400"/></g>
<g id="plotBackground" stroke="rgb(119,136,153)" fill="rgb(255,255,255)" stroke-width="2"><rect x="78.6" y="62" width="550" height="276.2"/></g>
<g id="yMinorGrid" stroke="rgb(200,220,255)" stroke-width="0.5"></g>
<g id="yMajorGrid" stroke="rgb(200,220,255)" stroke-width="1"></g>
<g id="xMinorGrid" stroke="rgb(200,220,255)" stroke-width="0.5"></g>
<g id="xMajorGrid" stroke="rgb(200,220,255)" stroke-width="1"></g>
<g id="yAxis" stroke="rgb(0,0,0)" stroke-width="1"><line x1="87.08" y1="62" x2="87.08" y2="343.2"/><line x1="78.6" y1="62" x2="78.6" y2="338.2"/></g>
<g id="xAxis" stroke="rgb(0,0,0)" stroke-width="1"><line x1="73.6" y1="338.2" x2="628.6" y2="338.2"/><line x1="73.6" y1="338.2" x2="628.6" y2="338.2"/></g>
<g id="yMinorTicks" stroke="rgb(0,0,0)" stroke-width="1"><path d="M76.6,323.9 L78.6,323.9 M76.6,309.6 L78.6,309.6 M76.6,295.3 L78.6,295.3 M76.6,281 L78.6,281 M76.6,252.3 L78.6,252.3 M76.6,238 L78.6,238 M76.6,223.7 L78.6,223.7 M76.6,209.4 L78.6,209.4 M76.6,180.8 L78.6,180.8 M76.6,166.5 L78.6,166.5 M76.6,152.2 L78.6,152.2 M76.6,137.9 L78.6,137.9 M76.6,109.2 L78.6,109.2 M76.6,94.93 L78.6,94.93 M76.6,80.62 L78.6,80.62 M76.6,66.31 L78.6,66.31 M76.6,338.2 L78.6,338.2 "/></g>
<g id="xMinorTicks" stroke="rgb(0,0,0)" stroke-width="1"></g>
<g id="yMajorTicks" stroke="rgb(0,0,0)" stroke-width="2"><path d="M73.6,338.2 L78.6,338.2 M73.6,266.7 L78.6,266.7 M73.6,195.1 L78.6,195.1 M73.6,123.6 L78.6,123.6 M73.6,338.2 L78.6,338.2 "/></g>
<g id="xMajorTicks" stroke="rgb(0,0,0)" stroke-width="2"><path d="M87.08,338.2 L87.08,343.2 M171.9,338.2 L171.9,343.2 M256.8,338.2 L256.8,343.2 M341.6,338.2 L341.6,343.2 M426.4,338.2 L426.4,343.2 M511.3,338.2 L511.3,343.2 M596.1,338.2 L596.1,343.2 M87.08,338.2 L87.08,343.2 "/></g>
<g id="plotLabels">
<text x="87.08" y="357.6" text-anchor="middle" font-size="12" font-family="Verdana">0</text>
<text x="171.9" y="357.6" text-anchor="middle" font-size="12" font-family="Verdana">5</text>
<text x="256.8" y="357.6" text-anchor="middle" font-size="12" font-family="Verdana">10</text>
<text x="341.6" y="357.6" text-anchor="middle" font-size="12" font-family="Verdana">15</text>
<text x="426.4" y="357.6" text-anchor="middle" font-size="12" font-family="Verdana">20</text>
<text x="511.3" y="357.6" text-anchor="middle" font-size="12" font-family="Verdana">25</text>
<text x="596.1" y="357.6" text-anchor="middle" font-size="12" font-family="Verdana">30</text>
<text x="87.08" y="357.6" text-anchor="middle" font-size="12" font-family="Verdana">0</text>
<text x="67.6" y="340.6" text-anchor="end" font-size="12" font-family="Verdana">0</text>
<text x="67.6" y="269.1" text-anchor="end" font-size="12" font-family="Verdana">0.05</text>
<text x="67.6" y="197.5" text-anchor="end" font-size="12" font-family="Verdana">0.1</text>
<text x="67.6" y="126" text-anchor="end" font-size="12" font-family="Verdana">0.15</text>
<text x="67.6" y="340.6" text-anchor="end" font-size="12" font-family="Verdana">0</text></g>
<g id="yLabel">
<text x="30.2" y="200.1" text-anchor="middle" transform = "rotate(-90 30.2 200.1 )" font-size="14" font-family="Verdana">Probability</text></g>
<g id="xLabel">
<text x="353.6" y="384" text-anchor="middle" font-size="14" font-family="Verdana">Random Variable</text></g>
<g id="plotLines" stroke-width="2"><g clip-path="url(#plot_window)" stroke="rgb(0,0,139)" fill="rgb(0,0,139)" stroke-width="1"><path d="M80.72,338.2 L80.72,338.2 L80.72,328.6 M80.72,328.6 L84.96,328.6 M84.96,328.6 L84.96,338.2 M84.96,338.2 L97.69,338.2 M97.69,338.2 L97.69,290 M97.69,290 L101.9,290 M101.9,290 L101.9,338.2 M101.9,338.2 L114.7,338.2 M114.7,338.2 L114.7,217.7 M114.7,217.7 L118.9,217.7 M118.9,217.7 L118.9,338.2 M118.9,338.2 L131.6,338.2 M131.6,338.2 L131.6,137.3 M131.6,137.3 L135.9,137.3 M135.9,137.3 L135.9,338.2 M135.9,338.2 L148.6,338.2 M148.6,338.2 L148.6,87.11 M148.6,87.11 L152.8,87.11 M152.8,87.11 L152.8,338.2 M152.8,338.2 L165.6,338.2 M165.6,338.2 L165.6,87.11 M165.6,87.11 L169.8,87.11 M169.8,87.11 L169.8,338.2 M169.8,338.2 L182.5,338.2 M182.5,338.2 L182.5,129 M182.5,129 L186.8,129 M186.8,129 L186.8,338.2 M186.8,338.2 L199.5,338.2 M199.5,338.2 L199.5,188.7 M199.5,188.7 L203.7,188.7 M203.7,188.7 L203.7,338.2 M203.7,338.2 L216.5,338.2 M216.5,338.2 L216.5,244.8 M216.5,244.8 L220.7,244.8 M220.7,244.8 L220.7,338.2 M220.7,338.2 L233.4,338.2 M233.4,338.2 L233.4,286.3 M233.4,286.3 L237.7,286.3 M237.7,286.3 L237.7,338.2 M237.7,338.2 L250.4,338.2 M250.4,338.2 L250.4,312.3 M250.4,312.3 L254.6,312.3 M254.6,312.3 L254.6,338.2 M254.6,338.2 L267.4,338.2 M267.4,338.2 L267.4,326.4 M267.4,326.4 L271.6,326.4 M271.6,326.4 L271.6,338.2 M271.6,338.2 L284.3,338.2 M284.3,338.2 L284.3,333.3 M284.3,333.3 L288.6,333.3 M288.6,333.3 L288.6,338.2 M288.6,338.2 L301.3,338.2 M301.3,338.2 L301.3,336.3 M301.3,336.3 L305.5,336.3 M305.5,336.3 L305.5,338.2 M305.5,338.2 L318.3,338.2 M318.3,338.2 L318.3,337.5 M318.3,337.5 L322.5,337.5 M322.5,337.5 L322.5,338.2 M322.5,338.2 L335.2,338.2 M335.2,338.2 L335.2,338 M335.2,338 L339.5,338 M339.5,338 L339.5,338.2 M339.5,338.2 L352.2,338.2 M352.2,338.2 L352.2,338.1 M352.2,338.1 L356.4,338.1 M356.4,338.1 L356.4,338.2 M356.4,338.2 L369.2,338.2 M369.2,338.2 L369.2,338.2 M369.2,338.2 L373.4,338.2 M373.4,338.2 L373.4,338.2 M373.4,338.2 L386.1,338.2 M386.1,338.2 L386.1,338.2 M386.1,338.2 L390.4,338.2 M390.4,338.2 L390.4,338.2 M390.4,338.2 L403.1,338.2 M403.1,338.2 L403.1,338.2 M403.1,338.2 L407.3,338.2 M407.3,338.2 L407.3,338.2 M407.3,338.2 L420.1,338.2 M420.1,338.2 L420.1,338.2 M420.1,338.2 L424.3,338.2 M424.3,338.2 L424.3,338.2 M424.3,338.2 L437,338.2 M437,338.2 L437,338.2 M437,338.2 L441.3,338.2 M441.3,338.2 L441.3,338.2 M441.3,338.2 L454,338.2 M454,338.2 L454,338.2 M454,338.2 L458.3,338.2 M458.3,338.2 L458.3,338.2 M458.3,338.2 L471,338.2 M471,338.2 L471,338.2 M471,338.2 L475.2,338.2 M475.2,338.2 L475.2,338.2 M475.2,338.2 L487.9,338.2 M487.9,338.2 L487.9,338.2 M487.9,338.2 L492.2,338.2 M492.2,338.2 L492.2,338.2 M492.2,338.2 L504.9,338.2 M504.9,338.2 L504.9,338.2 M504.9,338.2 L509.2,338.2 M509.2,338.2 L509.2,338.2 M509.2,338.2 L521.9,338.2 M521.9,338.2 L521.9,338.2 M521.9,338.2 L526.1,338.2 M526.1,338.2 L526.1,338.2 M526.1,338.2 L538.8,338.2 M538.8,338.2 L538.8,338.2 M538.8,338.2 L543.1,338.2 M543.1,338.2 L543.1,338.2 M543.1,338.2 L555.8,338.2 M555.8,338.2 L555.8,338.2 M555.8,338.2 L560.1,338.2 M560.1,338.2 L560.1,338.2 M560.1,338.2 L572.8,338.2 M572.8,338.2 L572.8,338.2 M572.8,338.2 L577,338.2 M577,338.2 L577,338.2 M577,338.2 L589.8,338.2 M589.8,338.2 L589.8,338.2 M589.8,338.2 L594,338.2 M594,338.2 L594,338.2 M594,338.2 L606.7,338.2 M606.7,338.2 L606.7,338.2 M606.7,338.2 L611,338.2 M611,338.2 L611,338.2 M611,338.2 L611,338.2 Z" fill="rgb(0,0,139)"/></g>
<g clip-path="url(#plot_window)" stroke="rgb(139,0,0)" fill="rgb(139,0,0)" stroke-width="1"><path d="M84.96,338.2 L84.96,338.2 L84.96,338.1 M84.96,338.1 L89.2,338.1 M89.2,338.1 L89.2,338.2 M89.2,338.2 L101.9,338.2 M101.9,338.2 L101.9,337.6 M101.9,337.6 L106.2,337.6 M106.2,337.6 L106.2,338.2 M106.2,338.2 L118.9,338.2 M118.9,338.2 L118.9,335 M118.9,335 L123.1,335 M123.1,335 L123.1,338.2 M123.1,338.2 L135.9,338.2 M135.9,338.2 L135.9,327.4 M135.9,327.4 L140.1,327.4 M140.1,327.4 L140.1,338.2 M140.1,338.2 L152.8,338.2 M152.8,338.2 L152.8,311.1 M152.8,311.1 L157.1,311.1 M157.1,311.1 L157.1,338.2 M157.1,338.2 L169.8,338.2 M169.8,338.2 L169.8,284.1 M169.8,284.1 L174,284.1 M174,284.1 L174,338.2 M174,338.2 L186.8,338.2 M186.8,338.2 L186.8,248 M186.8,248 L191,248 M191,248 L191,338.2 M191,338.2 L203.7,338.2 M203.7,338.2 L203.7,209.3 M203.7,209.3 L208,209.3 M208,209.3 L208,338.2 M208,338.2 L220.7,338.2 M220.7,338.2 L220.7,177.1 M220.7,177.1 L224.9,177.1 M224.9,177.1 L224.9,338.2 M224.9,338.2 L237.7,338.2 M237.7,338.2 L237.7,159.2 M237.7,159.2 L241.9,159.2 M241.9,159.2 L241.9,338.2 M241.9,338.2 L254.6,338.2 M254.6,338.2 L254.6,159.2 M254.6,159.2 L258.9,159.2 M258.9,159.2 L258.9,338.2 M258.9,338.2 L271.6,338.2 M271.6,338.2 L271.6,175.4 M271.6,175.4 L275.8,175.4 M275.8,175.4 L275.8,338.2 M275.8,338.2 L288.6,338.2 M288.6,338.2 L288.6,202.6 M288.6,202.6 L292.8,202.6 M292.8,202.6 L292.8,338.2 M292.8,338.2 L305.5,338.2 M305.5,338.2 L305.5,233.9 M305.5,233.9 L309.8,233.9 M309.8,233.9 L309.8,338.2 M309.8,338.2 L322.5,338.2 M322.5,338.2 L322.5,263.7 M322.5,263.7 L326.8,263.7 M326.8,263.7 L326.8,338.2 M326.8,338.2 L339.5,338.2 M339.5,338.2 L339.5,288.5 M339.5,288.5 L343.7,288.5 M343.7,288.5 L343.7,338.2 M343.7,338.2 L356.4,338.2 M356.4,338.2 L356.4,307.1 M356.4,307.1 L360.7,307.1 M360.7,307.1 L360.7,338.2 M360.7,338.2 L373.4,338.2 M373.4,338.2 L373.4,319.9 M373.4,319.9 L377.7,319.9 M377.7,319.9 L377.7,338.2 M377.7,338.2 L390.4,338.2 M390.4,338.2 L390.4,328.1 M390.4,328.1 L394.6,328.1 M394.6,328.1 L394.6,338.2 M394.6,338.2 L407.3,338.2 M407.3,338.2 L407.3,332.9 M407.3,332.9 L411.6,332.9 M411.6,332.9 L411.6,338.2 M411.6,338.2 L424.3,338.2 M424.3,338.2 L424.3,335.5 M424.3,335.5 L428.6,335.5 M428.6,335.5 L428.6,338.2 M428.6,338.2 L441.3,338.2 M441.3,338.2 L441.3,336.9 M441.3,336.9 L445.5,336.9 M445.5,336.9 L445.5,338.2 M445.5,338.2 L458.3,338.2 M458.3,338.2 L458.3,337.6 M458.3,337.6 L462.5,337.6 M462.5,337.6 L462.5,338.2 M462.5,338.2 L475.2,338.2 M475.2,338.2 L475.2,337.9 M475.2,337.9 L479.5,337.9 M479.5,337.9 L479.5,338.2 M479.5,338.2 L492.2,338.2 M492.2,338.2 L492.2,338.1 M492.2,338.1 L496.4,338.1 M496.4,338.1 L496.4,338.2 M496.4,338.2 L509.2,338.2 M509.2,338.2 L509.2,338.2 M509.2,338.2 L513.4,338.2 M513.4,338.2 L513.4,338.2 M513.4,338.2 L526.1,338.2 M526.1,338.2 L526.1,338.2 M526.1,338.2 L530.4,338.2 M530.4,338.2 L530.4,338.2 M530.4,338.2 L543.1,338.2 M543.1,338.2 L543.1,338.2 M543.1,338.2 L547.3,338.2 M547.3,338.2 L547.3,338.2 M547.3,338.2 L560.1,338.2 M560.1,338.2 L560.1,338.2 M560.1,338.2 L564.3,338.2 M564.3,338.2 L564.3,338.2 M564.3,338.2 L577,338.2 M577,338.2 L577,338.2 M577,338.2 L581.3,338.2 M581.3,338.2 L581.3,338.2 M581.3,338.2 L594,338.2 M594,338.2 L594,338.2 M594,338.2 L598.2,338.2 M598.2,338.2 L598.2,338.2 M598.2,338.2 L611,338.2 M611,338.2 L611,338.2 M611,338.2 L615.2,338.2 M615.2,338.2 L615.2,338.2 M615.2,338.2 L615.2,338.2 Z" fill="rgb(139,0,0)"/></g>
<g clip-path="url(#plot_window)" stroke="rgb(0,100,0)" fill="rgb(0,100,0)" stroke-width="1"><path d="M89.2,338.2 L89.2,338.2 L89.2,338.2 M89.2,338.2 L93.45,338.2 M93.45,338.2 L93.45,338.2 M93.45,338.2 L106.2,338.2 M106.2,338.2 L106.2,338.2 M106.2,338.2 L110.4,338.2 M110.4,338.2 L110.4,338.2 M110.4,338.2 L123.1,338.2 M123.1,338.2 L123.1,338.2 M123.1,338.2 L127.4,338.2 M127.4,338.2 L127.4,338.2 M127.4,338.2 L140.1,338.2 M140.1,338.2 L140.1,338.2 M140.1,338.2 L144.3,338.2 M144.3,338.2 L144.3,338.2 M144.3,338.2 L157.1,338.2 M157.1,338.2 L157.1,338.2 M157.1,338.2 L161.3,338.2 M161.3,338.2 L161.3,338.2 M161.3,338.2 L174,338.2 M174,338.2 L174,338.1 M174,338.1 L178.3,338.1 M178.3,338.1 L178.3,338.2 M178.3,338.2 L191,338.2 M191,338.2 L191,337.9 M191,337.9 L195.3,337.9 M195.3,337.9 L195.3,338.2 M195.3,338.2 L208,338.2 M208,338.2 L208,337.5 M208,337.5 L212.2,337.5 M212.2,337.5 L212.2,338.2 M212.2,338.2 L224.9,338.2 M224.9,338.2 L224.9,336.3 M224.9,336.3 L229.2,336.3 M229.2,336.3 L229.2,338.2 M229.2,338.2 L241.9,338.2 M241.9,338.2 L241.9,334 M241.9,334 L246.2,334 M246.2,334 L246.2,338.2 M246.2,338.2 L258.9,338.2 M258.9,338.2 L258.9,329.9 M258.9,329.9 L263.1,329.9 M263.1,329.9 L263.1,338.2 M263.1,338.2 L275.8,338.2 M275.8,338.2 L275.8,323.1 M275.8,323.1 L280.1,323.1 M280.1,323.1 L280.1,338.2 M280.1,338.2 L292.8,338.2 M292.8,338.2 L292.8,313 M292.8,313 L297.1,313 M297.1,313 L297.1,338.2 M297.1,338.2 L309.8,338.2 M309.8,338.2 L309.8,299.4 M309.8,299.4 L314,299.4 M314,299.4 L314,338.2 M314,338.2 L326.8,338.2 M326.8,338.2 L326.8,282.8 M326.8,282.8 L331,282.8 M331,282.8 L331,338.2 M331,338.2 L343.7,338.2 M343.7,338.2 L343.7,264.3 M343.7,264.3 L348,264.3 M348,264.3 L348,338.2 M348,338.2 L360.7,338.2 M360.7,338.2 L360.7,245.8 M360.7,245.8 L364.9,245.8 M364.9,245.8 L364.9,338.2 M364.9,338.2 L377.7,338.2 M377.7,338.2 L377.7,229.5 M377.7,229.5 L381.9,229.5 M381.9,229.5 L381.9,338.2 M381.9,338.2 L394.6,338.2 M394.6,338.2 L394.6,217.4 M394.6,217.4 L398.9,217.4 M398.9,217.4 L398.9,338.2 M398.9,338.2 L411.6,338.2 M411.6,338.2 L411.6,211.1 M411.6,211.1 L415.8,211.1 M415.8,211.1 L415.8,338.2 M415.8,338.2 L428.6,338.2 M428.6,338.2 L428.6,211.1 M428.6,211.1 L432.8,211.1 M432.8,211.1 L432.8,338.2 M432.8,338.2 L445.5,338.2 M445.5,338.2 L445.5,217.1 M445.5,217.1 L449.8,217.1 M449.8,217.1 L449.8,338.2 M449.8,338.2 L462.5,338.2 M462.5,338.2 L462.5,228.1 M462.5,228.1 L466.7,228.1 M466.7,228.1 L466.7,338.2 M466.7,338.2 L479.5,338.2 M479.5,338.2 L479.5,242.5 M479.5,242.5 L483.7,242.5 M483.7,242.5 L483.7,338.2 M483.7,338.2 L496.4,338.2 M496.4,338.2 L496.4,258.4 M496.4,258.4 L500.7,258.4 M500.7,258.4 L500.7,338.2 M500.7,338.2 L513.4,338.2 M513.4,338.2 L513.4,274.4 M513.4,274.4 L517.6,274.4 M517.6,274.4 L517.6,338.2 M517.6,338.2 L530.4,338.2 M530.4,338.2 L530.4,289.1 M530.4,289.1 L534.6,289.1 M534.6,289.1 L534.6,338.2 M534.6,338.2 L547.3,338.2 M547.3,338.2 L547.3,301.8 M547.3,301.8 L551.6,301.8 M551.6,301.8 L551.6,338.2 M551.6,338.2 L564.3,338.2 M564.3,338.2 L564.3,312.2 M564.3,312.2 L568.5,312.2 M568.5,312.2 L568.5,338.2 M568.5,338.2 L581.3,338.2 M581.3,338.2 L581.3,320.3 M581.3,320.3 L585.5,320.3 M585.5,320.3 L585.5,338.2 M585.5,338.2 L598.2,338.2 M598.2,338.2 L598.2,326.3 M598.2,326.3 L602.5,326.3 M602.5,326.3 L602.5,338.2 M602.5,338.2 L615.2,338.2 M615.2,338.2 L615.2,330.5 M615.2,330.5 L619.4,330.5 M619.4,330.5 L619.4,338.2 M619.4,338.2 L619.4,338.2 Z" fill="rgb(0,100,0)"/></g>
</g>
<g id="plotPoints" clip-path="url(#plot_window)"><g stroke="rgb(0,0,0)"></g>
<g stroke="rgb(0,0,0)"></g>
<g stroke="rgb(0,0,0)"></g>
</g>
<g id="limitPoints" stroke="rgb(119,136,153)" fill="rgb(250,235,215)"></g>
<g id="legendBackground" stroke="rgb(119,136,153)" fill="rgb(255,255,255)" stroke-width="1"><rect x="642.6" y="62" width="95.36" height="105"/><rect x="642.6" y="62" width="95.36" height="105"/></g>
<g id="legendPoints"><g stroke="rgb(0,0,139)" stroke-width="1"><line x1="657.6" y1="92" x2="672.6" y2="92"/></g>
<g stroke="rgb(139,0,0)" stroke-width="1"><line x1="657.6" y1="122" x2="672.6" y2="122"/></g>
<g stroke="rgb(0,100,0)" stroke-width="1"><line x1="657.6" y1="152" x2="672.6" y2="152"/></g>
</g>
<g id="legendText">
<text x="680.1" y="92" font-size="15" font-family="Verdana">&#x3BB;=1</text>
<text x="680.1" y="122" font-size="15" font-family="Verdana">&#x3BB;=10</text>
<text x="680.1" y="152" font-size="15" font-family="Verdana">&#x3BB;=50</text></g>
<g id="title">
<text x="375" y="40" text-anchor="middle" font-size="20" font-family="Verdana">Poisson Distribution PDF</text></g>
</svg>
