<?xml version="1.0" encoding="UTF-8" standalone="no"?>
<svg width="750" height ="400" version="1.1"
xmlns:svg ="http://www.w3.org/2000/svg"
xmlns:rdf="http://www.w3.org/1999/02/22-rdf-syntax-ns#"
xmlns:cc="http://web.resource.org/cc/"
xmlns:dc="http://purl.org/dc/elements/1.1/"
xmlns ="http://www.w3.org/2000/svg"
>
<!-- SVG plot written using Boost.Plot program (Creator Jacob Voytko) --> 
<!-- Use, modification and distribution of Boost.Plot subject to the --> 
<!-- Boost Software License, Version 1.0.--> 
<!-- (See accompanying file LICENSE_1_0.txt --> 
<!-- or copy at http://www.boost.org/LICENSE_1_0.txt) --> 

<clipPath id="plot_window"><rect x="85.2" y="59" width="520.6" height="281"/></clipPath>
<g id="imageBackground" stroke="rgb(119,136,153)" fill="rgb(255,255,255)" stroke-width="2"><rect x="0" y="0" width="750" height="400"/></g>
<g id="plotBackground" stroke="rgb(119,136,153)" fill="rgb(255,255,255)" stroke-width="2"><rect x="84.2" y="58" width="522.6" height="283"/></g>
<g id="yMinorGrid" stroke="rgb(200,220,255)" stroke-width="0.5"></g>
<g id="yMajorGrid" stroke="rgb(200,220,255)" stroke-width="1"></g>
<g id="xMinorGrid" stroke="rgb(200,220,255)" stroke-width="0.5"></g>
<g id="xMajorGrid" stroke="rgb(200,220,255)" stroke-width="1"></g>
<g id="yAxis" stroke="rgb(0,0,0)" stroke-width="1"><line x1="84.2" y1="58" x2="84.2" y2="341"/></g>
<g id="xAxis" stroke="rgb(0,0,0)" stroke-width="1"><line x1="79.2" y1="341" x2="606.8" y2="341"/><line x1="79.2" y1="341" x2="606.8" y2="341"/></g>
<g id="yMinorTicks" stroke="rgb(0,0,0)" stroke-width="1"><path d="M82.2,335.9 L84.2,335.9 M82.2,330.7 L84.2,330.7 M82.2,325.6 L84.2,325.6 M82.2,320.4 L84.2,320.4 M82.2,310.1 L84.2,310.1 M82.2,305 L84.2,305 M82.2,299.8 L84.2,299.8 M82.2,294.7 L84.2,294.7 M82.2,284.4 L84.2,284.4 M82.2,279.3 L84.2,279.3 M82.2,274.1 L84.2,274.1 M82.2,269 L84.2,269 M82.2,258.7 L84.2,258.7 M82.2,253.5 L84.2,253.5 M82.2,248.4 L84.2,248.4 M82.2,243.2 L84.2,243.2 M82.2,232.9 L84.2,232.9 M82.2,227.8 L84.2,227.8 M82.2,222.7 L84.2,222.7 M82.2,217.5 L84.2,217.5 M82.2,207.2 L84.2,207.2 M82.2,202.1 L84.2,202.1 M82.2,196.9 L84.2,196.9 M82.2,191.8 L84.2,191.8 M82.2,181.5 L84.2,181.5 M82.2,176.3 L84.2,176.3 M82.2,171.2 L84.2,171.2 M82.2,166.1 L84.2,166.1 M82.2,155.8 L84.2,155.8 M82.2,150.6 L84.2,150.6 M82.2,145.5 L84.2,145.5 M82.2,140.3 L84.2,140.3 M82.2,130 L84.2,130 M82.2,124.9 L84.2,124.9 M82.2,119.7 L84.2,119.7 M82.2,114.6 L84.2,114.6 M82.2,104.3 L84.2,104.3 M82.2,99.16 L84.2,99.16 M82.2,94.02 L84.2,94.02 M82.2,88.87 L84.2,88.87 M82.2,78.58 L84.2,78.58 M82.2,73.44 L84.2,73.44 M82.2,68.29 L84.2,68.29 M82.2,63.15 L84.2,63.15 M82.2,341 L84.2,341 " fill="none"/></g>
<g id="xMinorTicks" stroke="rgb(0,0,0)" stroke-width="1"><path d="M84.2,341 L84.2,343 M102,341 L102,343 M119.8,341 L119.8,343 M137.6,341 L137.6,343 M173.2,341 L173.2,343 M191,341 L191,343 M208.8,341 L208.8,343 M226.6,341 L226.6,343 M262.3,341 L262.3,343 M280.1,341 L280.1,343 M297.9,341 L297.9,343 M315.7,341 L315.7,343 M351.3,341 L351.3,343 M369.1,341 L369.1,343 M386.9,341 L386.9,343 M404.7,341 L404.7,343 M440.3,341 L440.3,343 M458.1,341 L458.1,343 M475.9,341 L475.9,343 M493.7,341 L493.7,343 M529.3,341 L529.3,343 M547.1,341 L547.1,343 M564.9,341 L564.9,343 M582.7,341 L582.7,343 " fill="none"/></g>
<g id="yMajorTicks" stroke="rgb(0,0,0)" stroke-width="2"><path d="M79.2,341 L84.2,341 M79.2,315.3 L84.2,315.3 M79.2,289.5 L84.2,289.5 M79.2,263.8 L84.2,263.8 M79.2,238.1 L84.2,238.1 M79.2,212.4 L84.2,212.4 M79.2,186.6 L84.2,186.6 M79.2,160.9 L84.2,160.9 M79.2,135.2 L84.2,135.2 M79.2,109.5 L84.2,109.5 M79.2,83.73 L84.2,83.73 M79.2,58 L84.2,58 M79.2,341 L84.2,341 " fill="none"/></g>
<g id="xMajorTicks" stroke="rgb(0,0,0)" stroke-width="2"><path d="M155.4,341 L155.4,346 M244.4,341 L244.4,346 M333.5,341 L333.5,346 M422.5,341 L422.5,346 M511.5,341 L511.5,346 M600.5,341 L600.5,346 " fill="none"/></g>
<g id="xTicksValues">
<text x="155.4" y="361.6" text-anchor="middle" font-size="12" font-family="Verdana">5</text>
<text x="244.4" y="361.6" text-anchor="middle" font-size="12" font-family="Verdana">10</text>
<text x="333.5" y="361.6" text-anchor="middle" font-size="12" font-family="Verdana">15</text>
<text x="422.5" y="361.6" text-anchor="middle" font-size="12" font-family="Verdana">20</text>
<text x="511.5" y="361.6" text-anchor="middle" font-size="12" font-family="Verdana">25</text>
<text x="600.5" y="361.6" text-anchor="middle" font-size="12" font-family="Verdana">30</text></g>
<g id="yTicksValues">
<text x="73.2" y="343.4" text-anchor="end" font-size="12" font-family="Verdana">0</text>
<text x="73.2" y="317.7" text-anchor="end" font-size="12" font-family="Verdana">0.1</text>
<text x="73.2" y="291.9" text-anchor="end" font-size="12" font-family="Verdana">0.2</text>
<text x="73.2" y="266.2" text-anchor="end" font-size="12" font-family="Verdana">0.3</text>
<text x="73.2" y="240.5" text-anchor="end" font-size="12" font-family="Verdana">0.4</text>
<text x="73.2" y="214.8" text-anchor="end" font-size="12" font-family="Verdana">0.5</text>
<text x="73.2" y="189" text-anchor="end" font-size="12" font-family="Verdana">0.6</text>
<text x="73.2" y="163.3" text-anchor="end" font-size="12" font-family="Verdana">0.7</text>
<text x="73.2" y="137.6" text-anchor="end" font-size="12" font-family="Verdana">0.8</text>
<text x="73.2" y="111.9" text-anchor="end" font-size="12" font-family="Verdana">0.9</text>
<text x="73.2" y="86.13" text-anchor="end" font-size="12" font-family="Verdana">1</text>
<text x="73.2" y="60.4" text-anchor="end" font-size="12" font-family="Verdana">1.1</text>
<text x="73.2" y="343.4" text-anchor="end" font-size="12" font-family="Verdana">0</text></g>
<g id="yLabel">
<text x="42.9" y="199.5" text-anchor="middle" transform = "rotate(-90 42.9 199.5 )" font-size="14" font-family="Verdana">Probability</text></g>
<g id="xLabel">
<text x="345.5" y="376.7" text-anchor="middle" font-size="14" font-family="Verdana">Random Variable</text></g>
<g id="plotLines" stroke-width="2"><g clip-path="url(#plot_window)" stroke="rgb(0,0,139)" stroke-width="1"><path d="M84.2,118.5 L86.81,102.3 L89.43,92.79 L92.04,87.79 L94.65,85.4 L97.27,84.36 L99.88,83.95 L102.5,83.8 L105.1,83.75 L107.7,83.73 L110.3,83.73 L112.9,83.73 L115.6,83.73 L118.2,83.73 L120.8,83.73 L123.4,83.73 L126,83.73 L128.6,83.73 L131.2,83.73 L133.8,83.73 L136.5,83.73 L139.1,83.73 L141.7,83.73 L144.3,83.73 L146.9,83.73 L149.5,83.73 L152.1,83.73 L154.8,83.73 L157.4,83.73 L160,83.73 L162.6,83.73 L165.2,83.73 L167.8,83.73 L170.4,83.73 L173,83.73 L175.7,83.73 L178.3,83.73 L180.9,83.73 L183.5,83.73 L186.1,83.73 L188.7,83.73 L191.3,83.73 L193.9,83.73 L196.6,83.73 L199.2,83.73 L201.8,83.73 L204.4,83.73 L207,83.73 L209.6,83.73 L212.2,83.73 L214.8,83.73 L217.5,83.73 L220.1,83.73 L222.7,83.73 L225.3,83.73 L227.9,83.73 L230.5,83.73 L233.1,83.73 L235.8,83.73 L238.4,83.73 L241,83.73 L243.6,83.73 L246.2,83.73 L248.8,83.73 L251.4,83.73 L254,83.73 L256.7,83.73 L259.3,83.73 L261.9,83.73 L264.5,83.73 L267.1,83.73 L269.7,83.73 L272.3,83.73 L274.9,83.73 L277.6,83.73 L280.2,83.73 L282.8,83.73 L285.4,83.73 L288,83.73 L290.6,83.73 L293.2,83.73 L295.9,83.73 L298.5,83.73 L301.1,83.73 L303.7,83.73 L306.3,83.73 L308.9,83.73 L311.5,83.73 L314.1,83.73 L316.8,83.73 L319.4,83.73 L322,83.73 L324.6,83.73 L327.2,83.73 L329.8,83.73 L332.4,83.73 L335,83.73 L337.7,83.73 L340.3,83.73 L342.9,83.73 L345.5,83.73 L348.1,83.73 L350.7,83.73 L353.3,83.73 L356,83.73 L358.6,83.73 L361.2,83.73 L363.8,83.73 L366.4,83.73 L369,83.73 L371.6,83.73 L374.2,83.73 L376.9,83.73 L379.5,83.73 L382.1,83.73 L384.7,83.73 L387.3,83.73 L389.9,83.73 L392.5,83.73 L395.1,83.73 L397.8,83.73 L400.4,83.73 L403,83.73 L405.6,83.73 L408.2,83.73 L410.8,83.73 L413.4,83.73 L416.1,83.73 L418.7,83.73 L421.3,83.73 L423.9,83.73 L426.5,83.73 L429.1,83.73 L431.7,83.73 L434.3,83.73 L437,83.73 L439.6,83.73 L442.2,83.73 L444.8,83.73 L447.4,83.73 L450,83.73 L452.6,83.73 L455.2,83.73 L457.9,83.73 L460.5,83.73 L463.1,83.73 L465.7,83.73 L468.3,83.73 L470.9,83.73 L473.5,83.73 L476.2,83.73 L478.8,83.73 L481.4,83.73 L484,83.73 L486.6,83.73 L489.2,83.73 L491.8,83.73 L494.4,83.73 L497.1,83.73 L499.7,83.73 L502.3,83.73 L504.9,83.73 L507.5,83.73 L510.1,83.73 L512.7,83.73 L515.3,83.73 L518,83.73 L520.6,83.73 L523.2,83.73 L525.8,83.73 L528.4,83.73 L531,83.73 L533.6,83.73 L536.2,83.73 L538.9,83.73 L541.5,83.73 L544.1,83.73 L546.7,83.73 L549.3,83.73 L551.9,83.73 L554.5,83.73 L557.2,83.73 L559.8,83.73 L562.4,83.73 L565,83.73 L567.6,83.73 L570.2,83.73 L572.8,83.73 L575.4,83.73 L578.1,83.73 L580.7,83.73 L583.3,83.73 L585.9,83.73 L588.5,83.73 L591.1,83.73 L593.7,83.73 L596.3,83.73 L599,83.73 L601.6,83.73 L604.2,83.73 " fill="none"/></g>
<g clip-path="url(#plot_window)" stroke="rgb(139,0,0)" stroke-width="1"><path d="M84.2,239.8 L86.81,217 L89.43,195.2 L92.04,174.9 L94.65,156.8 L97.27,141 L99.88,127.6 L102.5,116.7 L105.1,107.9 L107.7,101.1 L110.3,95.98 L112.9,92.17 L115.6,89.42 L118.2,87.48 L120.8,86.15 L123.4,85.26 L126,84.67 L128.6,84.3 L131.2,84.07 L133.8,83.92 L136.5,83.84 L139.1,83.79 L141.7,83.76 L144.3,83.75 L146.9,83.74 L149.5,83.73 L152.1,83.73 L154.8,83.73 L157.4,83.73 L160,83.73 L162.6,83.73 L165.2,83.73 L167.8,83.73 L170.4,83.73 L173,83.73 L175.7,83.73 L178.3,83.73 L180.9,83.73 L183.5,83.73 L186.1,83.73 L188.7,83.73 L191.3,83.73 L193.9,83.73 L196.6,83.73 L199.2,83.73 L201.8,83.73 L204.4,83.73 L207,83.73 L209.6,83.73 L212.2,83.73 L214.8,83.73 L217.5,83.73 L220.1,83.73 L222.7,83.73 L225.3,83.73 L227.9,83.73 L230.5,83.73 L233.1,83.73 L235.8,83.73 L238.4,83.73 L241,83.73 L243.6,83.73 L246.2,83.73 L248.8,83.73 L251.4,83.73 L254,83.73 L256.7,83.73 L259.3,83.73 L261.9,83.73 L264.5,83.73 L267.1,83.73 L269.7,83.73 L272.3,83.73 L274.9,83.73 L277.6,83.73 L280.2,83.73 L282.8,83.73 L285.4,83.73 L288,83.73 L290.6,83.73 L293.2,83.73 L295.9,83.73 L298.5,83.73 L301.1,83.73 L303.7,83.73 L306.3,83.73 L308.9,83.73 L311.5,83.73 L314.1,83.73 L316.8,83.73 L319.4,83.73 L322,83.73 L324.6,83.73 L327.2,83.73 L329.8,83.73 L332.4,83.73 L335,83.73 L337.7,83.73 L340.3,83.73 L342.9,83.73 L345.5,83.73 L348.1,83.73 L350.7,83.73 L353.3,83.73 L356,83.73 L358.6,83.73 L361.2,83.73 L363.8,83.73 L366.4,83.73 L369,83.73 L371.6,83.73 L374.2,83.73 L376.9,83.73 L379.5,83.73 L382.1,83.73 L384.7,83.73 L387.3,83.73 L389.9,83.73 L392.5,83.73 L395.1,83.73 L397.8,83.73 L400.4,83.73 L403,83.73 L405.6,83.73 L408.2,83.73 L410.8,83.73 L413.4,83.73 L416.1,83.73 L418.7,83.73 L421.3,83.73 L423.9,83.73 L426.5,83.73 L429.1,83.73 L431.7,83.73 L434.3,83.73 L437,83.73 L439.6,83.73 L442.2,83.73 L444.8,83.73 L447.4,83.73 L450,83.73 L452.6,83.73 L455.2,83.73 L457.9,83.73 L460.5,83.73 L463.1,83.73 L465.7,83.73 L468.3,83.73 L470.9,83.73 L473.5,83.73 L476.2,83.73 L478.8,83.73 L481.4,83.73 L484,83.73 L486.6,83.73 L489.2,83.73 L491.8,83.73 L494.4,83.73 L497.1,83.73 L499.7,83.73 L502.3,83.73 L504.9,83.73 L507.5,83.73 L510.1,83.73 L512.7,83.73 L515.3,83.73 L518,83.73 L520.6,83.73 L523.2,83.73 L525.8,83.73 L528.4,83.73 L531,83.73 L533.6,83.73 L536.2,83.73 L538.9,83.73 L541.5,83.73 L544.1,83.73 L546.7,83.73 L549.3,83.73 L551.9,83.73 L554.5,83.73 L557.2,83.73 L559.8,83.73 L562.4,83.73 L565,83.73 L567.6,83.73 L570.2,83.73 L572.8,83.73 L575.4,83.73 L578.1,83.73 L580.7,83.73 L583.3,83.73 L585.9,83.73 L588.5,83.73 L591.1,83.73 L593.7,83.73 L596.3,83.73 L599,83.73 L601.6,83.73 L604.2,83.73 " fill="none"/></g>
<g clip-path="url(#plot_window)" stroke="rgb(0,100,0)" stroke-width="1"><path d="M84.2,310.8 L86.81,302 L89.43,292.4 L92.04,282.2 L94.65,271.5 L97.27,260.4 L99.88,249.1 L102.5,237.6 L105.1,226.2 L107.7,214.9 L110.3,203.9 L112.9,193.2 L115.6,182.9 L118.2,173.1 L120.8,163.9 L123.4,155.2 L126,147.1 L128.6,139.6 L131.2,132.8 L133.8,126.5 L136.5,120.9 L139.1,115.8 L141.7,111.2 L144.3,107.2 L146.9,103.7 L149.5,100.6 L152.1,97.9 L154.8,95.57 L157.4,93.57 L160,91.87 L162.6,90.42 L165.2,89.2 L167.8,88.18 L170.4,87.33 L173,86.63 L175.7,86.05 L178.3,85.58 L180.9,85.19 L183.5,84.88 L186.1,84.63 L188.7,84.43 L191.3,84.27 L193.9,84.15 L196.6,84.05 L199.2,83.97 L201.8,83.91 L204.4,83.87 L207,83.83 L209.6,83.81 L212.2,83.79 L214.8,83.77 L217.5,83.76 L220.1,83.75 L222.7,83.74 L225.3,83.74 L227.9,83.74 L230.5,83.73 L233.1,83.73 L235.8,83.73 L238.4,83.73 L241,83.73 L243.6,83.73 L246.2,83.73 L248.8,83.73 L251.4,83.73 L254,83.73 L256.7,83.73 L259.3,83.73 L261.9,83.73 L264.5,83.73 L267.1,83.73 L269.7,83.73 L272.3,83.73 L274.9,83.73 L277.6,83.73 L280.2,83.73 L282.8,83.73 L285.4,83.73 L288,83.73 L290.6,83.73 L293.2,83.73 L295.9,83.73 L298.5,83.73 L301.1,83.73 L303.7,83.73 L306.3,83.73 L308.9,83.73 L311.5,83.73 L314.1,83.73 L316.8,83.73 L319.4,83.73 L322,83.73 L324.6,83.73 L327.2,83.73 L329.8,83.73 L332.4,83.73 L335,83.73 L337.7,83.73 L340.3,83.73 L342.9,83.73 L345.5,83.73 L348.1,83.73 L350.7,83.73 L353.3,83.73 L356,83.73 L358.6,83.73 L361.2,83.73 L363.8,83.73 L366.4,83.73 L369,83.73 L371.6,83.73 L374.2,83.73 L376.9,83.73 L379.5,83.73 L382.1,83.73 L384.7,83.73 L387.3,83.73 L389.9,83.73 L392.5,83.73 L395.1,83.73 L397.8,83.73 L400.4,83.73 L403,83.73 L405.6,83.73 L408.2,83.73 L410.8,83.73 L413.4,83.73 L416.1,83.73 L418.7,83.73 L421.3,83.73 L423.9,83.73 L426.5,83.73 L429.1,83.73 L431.7,83.73 L434.3,83.73 L437,83.73 L439.6,83.73 L442.2,83.73 L444.8,83.73 L447.4,83.73 L450,83.73 L452.6,83.73 L455.2,83.73 L457.9,83.73 L460.5,83.73 L463.1,83.73 L465.7,83.73 L468.3,83.73 L470.9,83.73 L473.5,83.73 L476.2,83.73 L478.8,83.73 L481.4,83.73 L484,83.73 L486.6,83.73 L489.2,83.73 L491.8,83.73 L494.4,83.73 L497.1,83.73 L499.7,83.73 L502.3,83.73 L504.9,83.73 L507.5,83.73 L510.1,83.73 L512.7,83.73 L515.3,83.73 L518,83.73 L520.6,83.73 L523.2,83.73 L525.8,83.73 L528.4,83.73 L531,83.73 L533.6,83.73 L536.2,83.73 L538.9,83.73 L541.5,83.73 L544.1,83.73 L546.7,83.73 L549.3,83.73 L551.9,83.73 L554.5,83.73 L557.2,83.73 L559.8,83.73 L562.4,83.73 L565,83.73 L567.6,83.73 L570.2,83.73 L572.8,83.73 L575.4,83.73 L578.1,83.73 L580.7,83.73 L583.3,83.73 L585.9,83.73 L588.5,83.73 L591.1,83.73 L593.7,83.73 L596.3,83.73 L599,83.73 L601.6,83.73 L604.2,83.73 " fill="none"/></g>
<g clip-path="url(#plot_window)" stroke="rgb(255,140,0)" stroke-width="1"><path d="M84.2,333.1 L86.81,330.6 L89.43,327.9 L92.04,324.9 L94.65,321.5 L97.27,317.9 L99.88,314.1 L102.5,310 L105.1,305.7 L107.7,301.1 L110.3,296.4 L112.9,291.5 L115.6,286.5 L118.2,281.3 L120.8,275.9 L123.4,270.5 L126,265 L128.6,259.4 L131.2,253.7 L133.8,248 L136.5,242.3 L139.1,236.6 L141.7,230.9 L144.3,225.2 L146.9,219.5 L149.5,213.9 L152.1,208.4 L154.8,202.9 L157.4,197.5 L160,192.2 L162.6,187.1 L165.2,182 L167.8,177.1 L170.4,172.2 L173,167.6 L175.7,163 L178.3,158.6 L180.9,154.4 L183.5,150.3 L186.1,146.4 L188.7,142.6 L191.3,139 L193.9,135.5 L196.6,132.2 L199.2,129 L201.8,126 L204.4,123.1 L207,120.4 L209.6,117.8 L212.2,115.3 L214.8,113 L217.5,110.9 L220.1,108.8 L222.7,106.9 L225.3,105.1 L227.9,103.4 L230.5,101.8 L233.1,100.3 L235.8,98.95 L238.4,97.67 L241,96.48 L243.6,95.37 L246.2,94.35 L248.8,93.4 L251.4,92.53 L254,91.72 L256.7,90.98 L259.3,90.3 L261.9,89.68 L264.5,89.1 L267.1,88.58 L269.7,88.1 L272.3,87.66 L274.9,87.26 L277.6,86.9 L280.2,86.57 L282.8,86.27 L285.4,86 L288,85.76 L290.6,85.54 L293.2,85.34 L295.9,85.16 L298.5,85 L301.1,84.86 L303.7,84.73 L306.3,84.61 L308.9,84.51 L311.5,84.42 L314.1,84.33 L316.8,84.26 L319.4,84.2 L322,84.14 L324.6,84.09 L327.2,84.04 L329.8,84 L332.4,83.97 L335,83.94 L337.7,83.91 L340.3,83.89 L342.9,83.86 L345.5,83.85 L348.1,83.83 L350.7,83.82 L353.3,83.8 L356,83.79 L358.6,83.78 L361.2,83.78 L363.8,83.77 L366.4,83.76 L369,83.76 L371.6,83.75 L374.2,83.75 L376.9,83.75 L379.5,83.74 L382.1,83.74 L384.7,83.74 L387.3,83.74 L389.9,83.74 L392.5,83.73 L395.1,83.73 L397.8,83.73 L400.4,83.73 L403,83.73 L405.6,83.73 L408.2,83.73 L410.8,83.73 L413.4,83.73 L416.1,83.73 L418.7,83.73 L421.3,83.73 L423.9,83.73 L426.5,83.73 L429.1,83.73 L431.7,83.73 L434.3,83.73 L437,83.73 L439.6,83.73 L442.2,83.73 L444.8,83.73 L447.4,83.73 L450,83.73 L452.6,83.73 L455.2,83.73 L457.9,83.73 L460.5,83.73 L463.1,83.73 L465.7,83.73 L468.3,83.73 L470.9,83.73 L473.5,83.73 L476.2,83.73 L478.8,83.73 L481.4,83.73 L484,83.73 L486.6,83.73 L489.2,83.73 L491.8,83.73 L494.4,83.73 L497.1,83.73 L499.7,83.73 L502.3,83.73 L504.9,83.73 L507.5,83.73 L510.1,83.73 L512.7,83.73 L515.3,83.73 L518,83.73 L520.6,83.73 L523.2,83.73 L525.8,83.73 L528.4,83.73 L531,83.73 L533.6,83.73 L536.2,83.73 L538.9,83.73 L541.5,83.73 L544.1,83.73 L546.7,83.73 L549.3,83.73 L551.9,83.73 L554.5,83.73 L557.2,83.73 L559.8,83.73 L562.4,83.73 L565,83.73 L567.6,83.73 L570.2,83.73 L572.8,83.73 L575.4,83.73 L578.1,83.73 L580.7,83.73 L583.3,83.73 L585.9,83.73 L588.5,83.73 L591.1,83.73 L593.7,83.73 L596.3,83.73 L599,83.73 L601.6,83.73 L604.2,83.73 " fill="none"/></g>
<g clip-path="url(#plot_window)" stroke="rgb(127,255,0)" stroke-width="1"><path d="M84.2,339.7 L86.81,339.3 L89.43,338.9 L92.04,338.3 L94.65,337.8 L97.27,337.2 L99.88,336.5 L102.5,335.8 L105.1,335 L107.7,334.2 L110.3,333.3 L112.9,332.4 L115.6,331.4 L118.2,330.3 L120.8,329.3 L123.4,328.1 L126,327 L128.6,325.8 L131.2,324.5 L133.8,323.2 L136.5,321.8 L139.1,320.4 L141.7,319 L144.3,317.5 L146.9,316 L149.5,314.4 L152.1,312.8 L154.8,311.2 L157.4,309.5 L160,307.8 L162.6,306.1 L165.2,304.3 L167.8,302.5 L170.4,300.6 L173,298.8 L175.7,296.8 L178.3,294.9 L180.9,293 L183.5,291 L186.1,289 L188.7,286.9 L191.3,284.9 L193.9,282.8 L196.6,280.7 L199.2,278.5 L201.8,276.4 L204.4,274.2 L207,272.1 L209.6,269.9 L212.2,267.7 L214.8,265.5 L217.5,263.2 L220.1,261 L222.7,258.7 L225.3,256.5 L227.9,254.2 L230.5,251.9 L233.1,249.7 L235.8,247.4 L238.4,245.1 L241,242.8 L243.6,240.5 L246.2,238.2 L248.8,235.9 L251.4,233.7 L254,231.4 L256.7,229.1 L259.3,226.8 L261.9,224.5 L264.5,222.3 L267.1,220 L269.7,217.8 L272.3,215.5 L274.9,213.3 L277.6,211.1 L280.2,208.9 L282.8,206.7 L285.4,204.5 L288,202.3 L290.6,200.1 L293.2,198 L295.9,195.9 L298.5,193.8 L301.1,191.7 L303.7,189.6 L306.3,187.5 L308.9,185.5 L311.5,183.4 L314.1,181.4 L316.8,179.5 L319.4,177.5 L322,175.5 L324.6,173.6 L327.2,171.7 L329.8,169.8 L332.4,168 L335,166.1 L337.7,164.3 L340.3,162.5 L342.9,160.8 L345.5,159 L348.1,157.3 L350.7,155.6 L353.3,153.9 L356,152.3 L358.6,150.7 L361.2,149.1 L363.8,147.5 L366.4,145.9 L369,144.4 L371.6,142.9 L374.2,141.4 L376.9,140 L379.5,138.6 L382.1,137.2 L384.7,135.8 L387.3,134.4 L389.9,133.1 L392.5,131.8 L395.1,130.5 L397.8,129.3 L400.4,128 L403,126.8 L405.6,125.6 L408.2,124.5 L410.8,123.3 L413.4,122.2 L416.1,121.1 L418.7,120.1 L421.3,119 L423.9,118 L426.5,117 L429.1,116 L431.7,115.1 L434.3,114.1 L437,113.2 L439.6,112.3 L442.2,111.5 L444.8,110.6 L447.4,109.8 L450,109 L452.6,108.2 L455.2,107.4 L457.9,106.7 L460.5,105.9 L463.1,105.2 L465.7,104.5 L468.3,103.9 L470.9,103.2 L473.5,102.6 L476.2,101.9 L478.8,101.3 L481.4,100.7 L484,100.2 L486.6,99.61 L489.2,99.07 L491.8,98.54 L494.4,98.03 L497.1,97.53 L499.7,97.05 L502.3,96.58 L504.9,96.12 L507.5,95.68 L510.1,95.26 L512.7,94.84 L515.3,94.44 L518,94.05 L520.6,93.67 L523.2,93.3 L525.8,92.95 L528.4,92.6 L531,92.27 L533.6,91.95 L536.2,91.64 L538.9,91.34 L541.5,91.05 L544.1,90.76 L546.7,90.49 L549.3,90.23 L551.9,89.97 L554.5,89.73 L557.2,89.49 L559.8,89.26 L562.4,89.04 L565,88.83 L567.6,88.62 L570.2,88.42 L572.8,88.23 L575.4,88.05 L578.1,87.87 L580.7,87.7 L583.3,87.53 L585.9,87.37 L588.5,87.22 L591.1,87.07 L593.7,86.93 L596.3,86.79 L599,86.66 L601.6,86.54 L604.2,86.41 " fill="none"/></g>
</g>
<g id="plotPoints" clip-path="url(#plot_window)"></g>
<g id="legendBackground" stroke="rgb(119,136,153)" fill="rgb(255,255,255)" stroke-width="1"><rect x="620.8" y="58" width="103.2" height="165"/><rect x="620.8" y="58" width="103.2" height="165"/></g>
<g id="legendPoints"><g stroke="rgb(0,0,139)" fill="rgb(255,255,255)" stroke-width="1"><line x1="635.8" y1="88" x2="650.8" y2="88"/></g>
<g stroke="rgb(139,0,0)" fill="rgb(255,255,255)" stroke-width="1"><line x1="635.8" y1="118" x2="650.8" y2="118"/></g>
<g stroke="rgb(0,100,0)" fill="rgb(255,255,255)" stroke-width="1"><line x1="635.8" y1="148" x2="650.8" y2="148"/></g>
<g stroke="rgb(255,140,0)" fill="rgb(255,255,255)" stroke-width="1"><line x1="635.8" y1="178" x2="650.8" y2="178"/></g>
<g stroke="rgb(127,255,0)" fill="rgb(255,255,255)" stroke-width="1"><line x1="635.8" y1="208" x2="650.8" y2="208"/></g>
</g>
<g id="legendText">
<text x="658.3" y="88" font-size="15" font-family="Verdana">&#x3C3;=0.5</text>
<text x="658.3" y="118" font-size="15" font-family="Verdana">&#x3C3;=1</text>
<text x="658.3" y="148" font-size="15" font-family="Verdana">&#x3C3;=2</text>
<text x="658.3" y="178" font-size="15" font-family="Verdana">&#x3C3;=4</text>
<text x="658.3" y="208" font-size="15" font-family="Verdana">&#x3C3;=10</text></g>
<g id="title">
<text x="375" y="40" text-anchor="middle" font-size="20" font-family="Verdana">Rayleigh Distribution CDF</text></g>
<g id="plotXValues"></g>
<g id="plotYValues"></g>
</svg>
