<?xml version="1.0" encoding="UTF-8" standalone="no"?>
<svg width="750" height ="400" version="1.1"
xmlns:svg ="http://www.w3.org/2000/svg"
xmlns:rdf="http://www.w3.org/1999/02/22-rdf-syntax-ns#"
xmlns:cc="http://web.resource.org/cc/"
xmlns:dc="http://purl.org/dc/elements/1.1/"
xmlns ="http://www.w3.org/2000/svg"
>
<!-- SVG plot written using Boost.Plot program (Creator Jacob Voytko) --> 
<!-- Use, modification and distribution of Boost.Plot subject to the --> 
<!-- Boost Software License, Version 1.0.--> 
<!-- (See accompanying file LICENSE_1_0.txt --> 
<!-- or copy at http://www.boost.org/LICENSE_1_0.txt) --> 

<clipPath id="plot_window"><rect x="85.2" y="59" width="520.6" height="281"/></clipPath>
<g id="imageBackground" stroke="rgb(119,136,153)" fill="rgb(255,255,255)" stroke-width="2"><rect x="0" y="0" width="750" height="400"/></g>
<g id="plotBackground" stroke="rgb(119,136,153)" fill="rgb(255,255,255)" stroke-width="2"><rect x="84.2" y="58" width="522.6" height="283"/></g>
<g id="yMinorGrid" stroke="rgb(200,220,255)" stroke-width="0.5"></g>
<g id="yMajorGrid" stroke="rgb(200,220,255)" stroke-width="1"></g>
<g id="xMinorGrid" stroke="rgb(200,220,255)" stroke-width="0.5"></g>
<g id="xMajorGrid" stroke="rgb(200,220,255)" stroke-width="1"></g>
<g id="yAxis" stroke="rgb(0,0,0)" stroke-width="1"><line x1="84.2" y1="58" x2="84.2" y2="341"/></g>
<g id="xAxis" stroke="rgb(0,0,0)" stroke-width="1"><line x1="79.2" y1="341" x2="606.8" y2="341"/><line x1="79.2" y1="341" x2="606.8" y2="341"/></g>
<g id="yMinorTicks" stroke="rgb(0,0,0)" stroke-width="1"><path d="M82.2,332.5 L84.2,332.5 M82.2,324 L84.2,324 M82.2,315.5 L84.2,315.5 M82.2,307 L84.2,307 M82.2,290 L84.2,290 M82.2,281.5 L84.2,281.5 M82.2,273 L84.2,273 M82.2,264.5 L84.2,264.5 M82.2,247.5 L84.2,247.5 M82.2,239 L84.2,239 M82.2,230.5 L84.2,230.5 M82.2,222 L84.2,222 M82.2,205 L84.2,205 M82.2,196.5 L84.2,196.5 M82.2,188 L84.2,188 M82.2,179.6 L84.2,179.6 M82.2,162.6 L84.2,162.6 M82.2,154.1 L84.2,154.1 M82.2,145.6 L84.2,145.6 M82.2,137.1 L84.2,137.1 M82.2,120.1 L84.2,120.1 M82.2,111.6 L84.2,111.6 M82.2,103.1 L84.2,103.1 M82.2,94.58 L84.2,94.58 M82.2,77.58 L84.2,77.58 M82.2,69.09 L84.2,69.09 M82.2,60.59 L84.2,60.59 M82.2,341 L84.2,341 " fill="none"/></g>
<g id="xMinorTicks" stroke="rgb(0,0,0)" stroke-width="1"><path d="M84.2,341 L84.2,343 M102,341 L102,343 M119.8,341 L119.8,343 M137.6,341 L137.6,343 M173.2,341 L173.2,343 M191,341 L191,343 M208.8,341 L208.8,343 M226.6,341 L226.6,343 M262.3,341 L262.3,343 M280.1,341 L280.1,343 M297.9,341 L297.9,343 M315.7,341 L315.7,343 M351.3,341 L351.3,343 M369.1,341 L369.1,343 M386.9,341 L386.9,343 M404.7,341 L404.7,343 M440.3,341 L440.3,343 M458.1,341 L458.1,343 M475.9,341 L475.9,343 M493.7,341 L493.7,343 M529.3,341 L529.3,343 M547.1,341 L547.1,343 M564.9,341 L564.9,343 M582.7,341 L582.7,343 " fill="none"/></g>
<g id="yMajorTicks" stroke="rgb(0,0,0)" stroke-width="2"><path d="M79.2,341 L84.2,341 M79.2,298.5 L84.2,298.5 M79.2,256 L84.2,256 M79.2,213.5 L84.2,213.5 M79.2,171.1 L84.2,171.1 M79.2,128.6 L84.2,128.6 M79.2,86.08 L84.2,86.08 M79.2,341 L84.2,341 " fill="none"/></g>
<g id="xMajorTicks" stroke="rgb(0,0,0)" stroke-width="2"><path d="M155.4,341 L155.4,346 M244.4,341 L244.4,346 M333.5,341 L333.5,346 M422.5,341 L422.5,346 M511.5,341 L511.5,346 M600.5,341 L600.5,346 " fill="none"/></g>
<g id="xTicksValues">
<text x="155.4" y="361.6" text-anchor="middle" font-size="12" font-family="Verdana">5</text>
<text x="244.4" y="361.6" text-anchor="middle" font-size="12" font-family="Verdana">10</text>
<text x="333.5" y="361.6" text-anchor="middle" font-size="12" font-family="Verdana">15</text>
<text x="422.5" y="361.6" text-anchor="middle" font-size="12" font-family="Verdana">20</text>
<text x="511.5" y="361.6" text-anchor="middle" font-size="12" font-family="Verdana">25</text>
<text x="600.5" y="361.6" text-anchor="middle" font-size="12" font-family="Verdana">30</text></g>
<g id="yTicksValues">
<text x="73.2" y="343.4" text-anchor="end" font-size="12" font-family="Verdana">0</text>
<text x="73.2" y="300.9" text-anchor="end" font-size="12" font-family="Verdana">0.1</text>
<text x="73.2" y="258.4" text-anchor="end" font-size="12" font-family="Verdana">0.2</text>
<text x="73.2" y="215.9" text-anchor="end" font-size="12" font-family="Verdana">0.3</text>
<text x="73.2" y="173.5" text-anchor="end" font-size="12" font-family="Verdana">0.4</text>
<text x="73.2" y="131" text-anchor="end" font-size="12" font-family="Verdana">0.5</text>
<text x="73.2" y="88.48" text-anchor="end" font-size="12" font-family="Verdana">0.6</text>
<text x="73.2" y="343.4" text-anchor="end" font-size="12" font-family="Verdana">0</text></g>
<g id="yLabel">
<text x="42.9" y="199.5" text-anchor="middle" transform = "rotate(-90 42.9 199.5 )" font-size="14" font-family="Verdana">Probability</text></g>
<g id="xLabel">
<text x="345.5" y="376.7" text-anchor="middle" font-size="14" font-family="Verdana">Random Variable</text></g>
<g id="plotLines" stroke-width="2"><g clip-path="url(#plot_window)" stroke="rgb(0,0,139)" stroke-width="1"><path d="M84.2,111 L86.81,200.5 L89.43,263.6 L92.04,302.4 L94.65,323.5 L97.27,333.8 L99.88,338.3 L102.5,340.1 L105.1,340.7 L107.7,340.9 L110.3,341 L112.9,341 L115.6,341 L118.2,341 L120.8,341 L123.4,341 L126,341 L128.6,341 L131.2,341 L133.8,341 L136.5,341 L139.1,341 L141.7,341 L144.3,341 L146.9,341 L149.5,341 L152.1,341 L154.8,341 L157.4,341 L160,341 L162.6,341 L165.2,341 L167.8,341 L170.4,341 L173,341 L175.7,341 L178.3,341 L180.9,341 L183.5,341 L186.1,341 L188.7,341 L191.3,341 L193.9,341 L196.6,341 L199.2,341 L201.8,341 L204.4,341 L207,341 L209.6,341 L212.2,341 L214.8,341 L217.5,341 L220.1,341 L222.7,341 L225.3,341 L227.9,341 L230.5,341 L233.1,341 L235.8,341 L238.4,341 L241,341 L243.6,341 L246.2,341 L248.8,341 L251.4,341 L254,341 L256.7,341 L259.3,341 L261.9,341 L264.5,341 L267.1,341 L269.7,341 L272.3,341 L274.9,341 L277.6,341 L280.2,341 L282.8,341 L285.4,341 L288,341 L290.6,341 L293.2,341 L295.9,341 L298.5,341 L301.1,341 L303.7,341 L306.3,341 L308.9,341 L311.5,341 L314.1,341 L316.8,341 L319.4,341 L322,341 L324.6,341 L327.2,341 L329.8,341 L332.4,341 L335,341 L337.7,341 L340.3,341 L342.9,341 L345.5,341 L348.1,341 L350.7,341 L353.3,341 L356,341 L358.6,341 L361.2,341 L363.8,341 L366.4,341 L369,341 L371.6,341 L374.2,341 L376.9,341 L379.5,341 L382.1,341 L384.7,341 L387.3,341 L389.9,341 L392.5,341 L395.1,341 L397.8,341 L400.4,341 L403,341 L405.6,341 L408.2,341 L410.8,341 L413.4,341 L416.1,341 L418.7,341 L421.3,341 L423.9,341 L426.5,341 L429.1,341 L431.7,341 L434.3,341 L437,341 L439.6,341 L442.2,341 L444.8,341 L447.4,341 L450,341 L452.6,341 L455.2,341 L457.9,341 L460.5,341 L463.1,341 L465.7,341 L468.3,341 L470.9,341 L473.5,341 L476.2,341 L478.8,341 L481.4,341 L484,341 L486.6,341 L489.2,341 L491.8,341 L494.4,341 L497.1,341 L499.7,341 L502.3,341 L504.9,341 L507.5,341 L510.1,341 L512.7,341 L515.3,341 L518,341 L520.6,341 L523.2,341 L525.8,341 L528.4,341 L531,341 L533.6,341 L536.2,341 L538.9,341 L541.5,341 L544.1,341 L546.7,341 L549.3,341 L551.9,341 L554.5,341 L557.2,341 L559.8,341 L562.4,341 L565,341 L567.6,341 L570.2,341 L572.8,341 L575.4,341 L578.1,341 L580.7,341 L583.3,341 L585.9,341 L588.5,341 L591.1,341 L593.7,341 L596.3,341 L599,341 L601.6,341 L604.2,341 " fill="none"/></g>
<g clip-path="url(#plot_window)" stroke="rgb(139,0,0)" stroke-width="1"><path d="M84.2,83.31 L86.81,88.56 L89.43,102.9 L92.04,124.1 L94.65,149.6 L97.27,177.1 L99.88,204.7 L102.5,230.7 L105.1,254.1 L107.7,274.3 L110.3,291.1 L112.9,304.6 L115.6,315.1 L118.2,323 L120.8,328.8 L123.4,332.9 L126,335.8 L128.6,337.7 L131.2,339 L133.8,339.8 L136.5,340.3 L139.1,340.6 L141.7,340.8 L144.3,340.9 L146.9,340.9 L149.5,341 L152.1,341 L154.8,341 L157.4,341 L160,341 L162.6,341 L165.2,341 L167.8,341 L170.4,341 L173,341 L175.7,341 L178.3,341 L180.9,341 L183.5,341 L186.1,341 L188.7,341 L191.3,341 L193.9,341 L196.6,341 L199.2,341 L201.8,341 L204.4,341 L207,341 L209.6,341 L212.2,341 L214.8,341 L217.5,341 L220.1,341 L222.7,341 L225.3,341 L227.9,341 L230.5,341 L233.1,341 L235.8,341 L238.4,341 L241,341 L243.6,341 L246.2,341 L248.8,341 L251.4,341 L254,341 L256.7,341 L259.3,341 L261.9,341 L264.5,341 L267.1,341 L269.7,341 L272.3,341 L274.9,341 L277.6,341 L280.2,341 L282.8,341 L285.4,341 L288,341 L290.6,341 L293.2,341 L295.9,341 L298.5,341 L301.1,341 L303.7,341 L306.3,341 L308.9,341 L311.5,341 L314.1,341 L316.8,341 L319.4,341 L322,341 L324.6,341 L327.2,341 L329.8,341 L332.4,341 L335,341 L337.7,341 L340.3,341 L342.9,341 L345.5,341 L348.1,341 L350.7,341 L353.3,341 L356,341 L358.6,341 L361.2,341 L363.8,341 L366.4,341 L369,341 L371.6,341 L374.2,341 L376.9,341 L379.5,341 L382.1,341 L384.7,341 L387.3,341 L389.9,341 L392.5,341 L395.1,341 L397.8,341 L400.4,341 L403,341 L405.6,341 L408.2,341 L410.8,341 L413.4,341 L416.1,341 L418.7,341 L421.3,341 L423.9,341 L426.5,341 L429.1,341 L431.7,341 L434.3,341 L437,341 L439.6,341 L442.2,341 L444.8,341 L447.4,341 L450,341 L452.6,341 L455.2,341 L457.9,341 L460.5,341 L463.1,341 L465.7,341 L468.3,341 L470.9,341 L473.5,341 L476.2,341 L478.8,341 L481.4,341 L484,341 L486.6,341 L489.2,341 L491.8,341 L494.4,341 L497.1,341 L499.7,341 L502.3,341 L504.9,341 L507.5,341 L510.1,341 L512.7,341 L515.3,341 L518,341 L520.6,341 L523.2,341 L525.8,341 L528.4,341 L531,341 L533.6,341 L536.2,341 L538.9,341 L541.5,341 L544.1,341 L546.7,341 L549.3,341 L551.9,341 L554.5,341 L557.2,341 L559.8,341 L562.4,341 L565,341 L567.6,341 L570.2,341 L572.8,341 L575.4,341 L578.1,341 L580.7,341 L583.3,341 L585.9,341 L588.5,341 L591.1,341 L593.7,341 L596.3,341 L599,341 L601.6,341 L604.2,341 " fill="none"/></g>
<g clip-path="url(#plot_window)" stroke="rgb(0,100,0)" stroke-width="1"><path d="M84.2,247.3 L86.81,237.7 L89.43,229.5 L92.04,223 L94.65,218 L97.27,214.5 L99.88,212.6 L102.5,212.2 L105.1,213.1 L107.7,215.3 L110.3,218.6 L112.9,222.8 L115.6,227.9 L118.2,233.7 L120.8,239.9 L123.4,246.6 L126,253.4 L128.6,260.4 L131.2,267.3 L133.8,274.1 L136.5,280.7 L139.1,287 L141.7,293 L144.3,298.5 L146.9,303.7 L149.5,308.5 L152.1,312.8 L154.8,316.7 L157.4,320.2 L160,323.3 L162.6,326.1 L165.2,328.5 L167.8,330.5 L170.4,332.3 L173,333.8 L175.7,335.1 L178.3,336.2 L180.9,337.1 L183.5,337.9 L186.1,338.5 L188.7,339 L191.3,339.4 L193.9,339.8 L196.6,340 L199.2,340.2 L201.8,340.4 L204.4,340.5 L207,340.7 L209.6,340.7 L212.2,340.8 L214.8,340.9 L217.5,340.9 L220.1,340.9 L222.7,340.9 L225.3,341 L227.9,341 L230.5,341 L233.1,341 L235.8,341 L238.4,341 L241,341 L243.6,341 L246.2,341 L248.8,341 L251.4,341 L254,341 L256.7,341 L259.3,341 L261.9,341 L264.5,341 L267.1,341 L269.7,341 L272.3,341 L274.9,341 L277.6,341 L280.2,341 L282.8,341 L285.4,341 L288,341 L290.6,341 L293.2,341 L295.9,341 L298.5,341 L301.1,341 L303.7,341 L306.3,341 L308.9,341 L311.5,341 L314.1,341 L316.8,341 L319.4,341 L322,341 L324.6,341 L327.2,341 L329.8,341 L332.4,341 L335,341 L337.7,341 L340.3,341 L342.9,341 L345.5,341 L348.1,341 L350.7,341 L353.3,341 L356,341 L358.6,341 L361.2,341 L363.8,341 L366.4,341 L369,341 L371.6,341 L374.2,341 L376.9,341 L379.5,341 L382.1,341 L384.7,341 L387.3,341 L389.9,341 L392.5,341 L395.1,341 L397.8,341 L400.4,341 L403,341 L405.6,341 L408.2,341 L410.8,341 L413.4,341 L416.1,341 L418.7,341 L421.3,341 L423.9,341 L426.5,341 L429.1,341 L431.7,341 L434.3,341 L437,341 L439.6,341 L442.2,341 L444.8,341 L447.4,341 L450,341 L452.6,341 L455.2,341 L457.9,341 L460.5,341 L463.1,341 L465.7,341 L468.3,341 L470.9,341 L473.5,341 L476.2,341 L478.8,341 L481.4,341 L484,341 L486.6,341 L489.2,341 L491.8,341 L494.4,341 L497.1,341 L499.7,341 L502.3,341 L504.9,341 L507.5,341 L510.1,341 L512.7,341 L515.3,341 L518,341 L520.6,341 L523.2,341 L525.8,341 L528.4,341 L531,341 L533.6,341 L536.2,341 L538.9,341 L541.5,341 L544.1,341 L546.7,341 L549.3,341 L551.9,341 L554.5,341 L557.2,341 L559.8,341 L562.4,341 L565,341 L567.6,341 L570.2,341 L572.8,341 L575.4,341 L578.1,341 L580.7,341 L583.3,341 L585.9,341 L588.5,341 L591.1,341 L593.7,341 L596.3,341 L599,341 L601.6,341 L604.2,341 " fill="none"/></g>
<g clip-path="url(#plot_window)" stroke="rgb(255,140,0)" stroke-width="1"><path d="M84.2,315.3 L86.81,311.8 L89.43,308.4 L92.04,305.2 L94.65,302 L97.27,299.1 L99.88,296.3 L102.5,293.7 L105.1,291.2 L107.7,288.9 L110.3,286.8 L112.9,284.9 L115.6,283.2 L118.2,281.7 L120.8,280.4 L123.4,279.3 L126,278.4 L128.6,277.6 L131.2,277.1 L133.8,276.8 L136.5,276.6 L139.1,276.6 L141.7,276.8 L144.3,277.1 L146.9,277.6 L149.5,278.3 L152.1,279 L154.8,280 L157.4,281 L160,282.1 L162.6,283.4 L165.2,284.7 L167.8,286.1 L170.4,287.6 L173,289.2 L175.7,290.8 L178.3,292.4 L180.9,294.1 L183.5,295.8 L186.1,297.5 L188.7,299.3 L191.3,301 L193.9,302.7 L196.6,304.5 L199.2,306.2 L201.8,307.9 L204.4,309.5 L207,311.1 L209.6,312.7 L212.2,314.3 L214.8,315.8 L217.5,317.2 L220.1,318.7 L222.7,320 L225.3,321.3 L227.9,322.6 L230.5,323.8 L233.1,325 L235.8,326.1 L238.4,327.1 L241,328.1 L243.6,329 L246.2,329.9 L248.8,330.8 L251.4,331.6 L254,332.3 L256.7,333 L259.3,333.7 L261.9,334.3 L264.5,334.8 L267.1,335.4 L269.7,335.8 L272.3,336.3 L274.9,336.7 L277.6,337.1 L280.2,337.5 L282.8,337.8 L285.4,338.1 L288,338.4 L290.6,338.6 L293.2,338.9 L295.9,339.1 L298.5,339.3 L301.1,339.5 L303.7,339.6 L306.3,339.8 L308.9,339.9 L311.5,340 L314.1,340.1 L316.8,340.2 L319.4,340.3 L322,340.4 L324.6,340.5 L327.2,340.5 L329.8,340.6 L332.4,340.6 L335,340.7 L337.7,340.7 L340.3,340.7 L342.9,340.8 L345.5,340.8 L348.1,340.8 L350.7,340.9 L353.3,340.9 L356,340.9 L358.6,340.9 L361.2,340.9 L363.8,340.9 L366.4,340.9 L369,340.9 L371.6,341 L374.2,341 L376.9,341 L379.5,341 L382.1,341 L384.7,341 L387.3,341 L389.9,341 L392.5,341 L395.1,341 L397.8,341 L400.4,341 L403,341 L405.6,341 L408.2,341 L410.8,341 L413.4,341 L416.1,341 L418.7,341 L421.3,341 L423.9,341 L426.5,341 L429.1,341 L431.7,341 L434.3,341 L437,341 L439.6,341 L442.2,341 L444.8,341 L447.4,341 L450,341 L452.6,341 L455.2,341 L457.9,341 L460.5,341 L463.1,341 L465.7,341 L468.3,341 L470.9,341 L473.5,341 L476.2,341 L478.8,341 L481.4,341 L484,341 L486.6,341 L489.2,341 L491.8,341 L494.4,341 L497.1,341 L499.7,341 L502.3,341 L504.9,341 L507.5,341 L510.1,341 L512.7,341 L515.3,341 L518,341 L520.6,341 L523.2,341 L525.8,341 L528.4,341 L531,341 L533.6,341 L536.2,341 L538.9,341 L541.5,341 L544.1,341 L546.7,341 L549.3,341 L551.9,341 L554.5,341 L557.2,341 L559.8,341 L562.4,341 L565,341 L567.6,341 L570.2,341 L572.8,341 L575.4,341 L578.1,341 L580.7,341 L583.3,341 L585.9,341 L588.5,341 L591.1,341 L593.7,341 L596.3,341 L599,341 L601.6,341 L604.2,341 " fill="none"/></g>
<g clip-path="url(#plot_window)" stroke="rgb(127,255,0)" stroke-width="1"><path d="M84.2,336.8 L86.81,336.2 L89.43,335.6 L92.04,334.9 L94.65,334.3 L97.27,333.7 L99.88,333.2 L102.5,332.6 L105.1,332 L107.7,331.4 L110.3,330.8 L112.9,330.3 L115.6,329.7 L118.2,329.2 L120.8,328.6 L123.4,328.1 L126,327.6 L128.6,327 L131.2,326.5 L133.8,326 L136.5,325.5 L139.1,325 L141.7,324.6 L144.3,324.1 L146.9,323.7 L149.5,323.2 L152.1,322.8 L154.8,322.4 L157.4,321.9 L160,321.6 L162.6,321.2 L165.2,320.8 L167.8,320.4 L170.4,320.1 L173,319.7 L175.7,319.4 L178.3,319.1 L180.9,318.8 L183.5,318.5 L186.1,318.2 L188.7,317.9 L191.3,317.7 L193.9,317.5 L196.6,317.2 L199.2,317 L201.8,316.8 L204.4,316.6 L207,316.4 L209.6,316.3 L212.2,316.1 L214.8,316 L217.5,315.8 L220.1,315.7 L222.7,315.6 L225.3,315.5 L227.9,315.5 L230.5,315.4 L233.1,315.3 L235.8,315.3 L238.4,315.3 L241,315.2 L243.6,315.2 L246.2,315.2 L248.8,315.2 L251.4,315.3 L254,315.3 L256.7,315.3 L259.3,315.4 L261.9,315.5 L264.5,315.5 L267.1,315.6 L269.7,315.7 L272.3,315.8 L274.9,315.9 L277.6,316.1 L280.2,316.2 L282.8,316.3 L285.4,316.5 L288,316.6 L290.6,316.8 L293.2,317 L295.9,317.1 L298.5,317.3 L301.1,317.5 L303.7,317.7 L306.3,317.9 L308.9,318.1 L311.5,318.3 L314.1,318.5 L316.8,318.8 L319.4,319 L322,319.2 L324.6,319.5 L327.2,319.7 L329.8,320 L332.4,320.2 L335,320.5 L337.7,320.7 L340.3,321 L342.9,321.2 L345.5,321.5 L348.1,321.8 L350.7,322 L353.3,322.3 L356,322.6 L358.6,322.9 L361.2,323.1 L363.8,323.4 L366.4,323.7 L369,324 L371.6,324.2 L374.2,324.5 L376.9,324.8 L379.5,325.1 L382.1,325.4 L384.7,325.6 L387.3,325.9 L389.9,326.2 L392.5,326.5 L395.1,326.7 L397.8,327 L400.4,327.3 L403,327.5 L405.6,327.8 L408.2,328.1 L410.8,328.3 L413.4,328.6 L416.1,328.9 L418.7,329.1 L421.3,329.4 L423.9,329.6 L426.5,329.9 L429.1,330.1 L431.7,330.4 L434.3,330.6 L437,330.9 L439.6,331.1 L442.2,331.3 L444.8,331.6 L447.4,331.8 L450,332 L452.6,332.2 L455.2,332.5 L457.9,332.7 L460.5,332.9 L463.1,333.1 L465.7,333.3 L468.3,333.5 L470.9,333.7 L473.5,333.9 L476.2,334.1 L478.8,334.3 L481.4,334.5 L484,334.6 L486.6,334.8 L489.2,335 L491.8,335.2 L494.4,335.3 L497.1,335.5 L499.7,335.6 L502.3,335.8 L504.9,336 L507.5,336.1 L510.1,336.3 L512.7,336.4 L515.3,336.5 L518,336.7 L520.6,336.8 L523.2,336.9 L525.8,337.1 L528.4,337.2 L531,337.3 L533.6,337.4 L536.2,337.6 L538.9,337.7 L541.5,337.8 L544.1,337.9 L546.7,338 L549.3,338.1 L551.9,338.2 L554.5,338.3 L557.2,338.4 L559.8,338.5 L562.4,338.6 L565,338.6 L567.6,338.7 L570.2,338.8 L572.8,338.9 L575.4,339 L578.1,339 L580.7,339.1 L583.3,339.2 L585.9,339.2 L588.5,339.3 L591.1,339.4 L593.7,339.4 L596.3,339.5 L599,339.6 L601.6,339.6 L604.2,339.7 " fill="none"/></g>
</g>
<g id="plotPoints" clip-path="url(#plot_window)"></g>
<g id="legendBackground" stroke="rgb(119,136,153)" fill="rgb(255,255,255)" stroke-width="1"><rect x="620.8" y="58" width="103.2" height="165"/><rect x="620.8" y="58" width="103.2" height="165"/></g>
<g id="legendPoints"><g stroke="rgb(0,0,139)" fill="rgb(255,255,255)" stroke-width="1"><line x1="635.8" y1="88" x2="650.8" y2="88"/></g>
<g stroke="rgb(139,0,0)" fill="rgb(255,255,255)" stroke-width="1"><line x1="635.8" y1="118" x2="650.8" y2="118"/></g>
<g stroke="rgb(0,100,0)" fill="rgb(255,255,255)" stroke-width="1"><line x1="635.8" y1="148" x2="650.8" y2="148"/></g>
<g stroke="rgb(255,140,0)" fill="rgb(255,255,255)" stroke-width="1"><line x1="635.8" y1="178" x2="650.8" y2="178"/></g>
<g stroke="rgb(127,255,0)" fill="rgb(255,255,255)" stroke-width="1"><line x1="635.8" y1="208" x2="650.8" y2="208"/></g>
</g>
<g id="legendText">
<text x="658.3" y="88" font-size="15" font-family="Verdana">&#x3C3;=0.5</text>
<text x="658.3" y="118" font-size="15" font-family="Verdana">&#x3C3;=1</text>
<text x="658.3" y="148" font-size="15" font-family="Verdana">&#x3C3;=2</text>
<text x="658.3" y="178" font-size="15" font-family="Verdana">&#x3C3;=4</text>
<text x="658.3" y="208" font-size="15" font-family="Verdana">&#x3C3;=10</text></g>
<g id="title">
<text x="375" y="40" text-anchor="middle" font-size="20" font-family="Verdana">Rayleigh Distribution PDF</text></g>
<g id="plotXValues"></g>
<g id="plotYValues"></g>
</svg>
