<?xml version="1.0" encoding="UTF-8" standalone="no"?>
<svg width="700" height ="400" version="1.1"
xmlns:svg ="http://www.w3.org/2000/svg"
xmlns:rdf="http://www.w3.org/1999/02/22-rdf-syntax-ns#"
xmlns:cc="http://web.resource.org/cc/"
xmlns:dc="http://purl.org/dc/elements/1.1/"
xmlns ="http://www.w3.org/2000/svg"
>
<!-- SVG plot written using Boost.Plot program (Creator Jacob Voytko) --> 
<!-- Use, modification and distribution of Boost.Plot subject to the --> 
<!-- Boost Software License, Version 1.0.--> 
<!-- (See accompanying file LICENSE_1_0.txt --> 
<!-- or copy at http://www.boost.org/LICENSE_1_0.txt) --> 

<clipPath id="plot_window"><rect x="25.3" y="48.5" width="671" height="297"/></clipPath>
<g id="imageBackground" stroke="rgb(211,211,211)" fill="rgb(255,255,255)" stroke-width="2"><rect x="0" y="0" width="700" height="400"/></g>
<g id="plotBackground" stroke="rgb(211,211,211)" fill="rgb(255,255,255)" stroke-width="2"><rect x="24.3" y="47.5" width="673" height="299"/></g>
<g id="yMinorGrid" stroke="rgb(200,220,255)" stroke-width="0.5"></g>
<g id="yMajorGrid" stroke="rgb(200,220,255)" stroke-width="1"></g>
<g id="xMinorGrid" stroke="rgb(200,220,255)" stroke-width="0.5"></g>
<g id="xMajorGrid" stroke="rgb(200,220,255)" stroke-width="1"></g>
<g id="yAxis" stroke="rgb(0,0,0)" stroke-width="1"><line x1="361" y1="47.5" x2="361" y2="352"/><line x1="24.3" y1="47.5" x2="24.3" y2="346"/></g>
<g id="xAxis" stroke="rgb(0,0,0)" stroke-width="1"><line x1="19.3" y1="310" x2="698" y2="310"/><line x1="19.3" y1="346" x2="698" y2="346"/></g>
<g id="yMinorTicks" stroke="rgb(0,0,0)" stroke-width="1"><path d="M22.3,299 L24.3,299 M22.3,287 L24.3,287 M22.3,276 L24.3,276 M22.3,265 L24.3,265 M22.3,242 L24.3,242 M22.3,231 L24.3,231 M22.3,220 L24.3,220 M22.3,208 L24.3,208 M22.3,186 L24.3,186 M22.3,174 L24.3,174 M22.3,163 L24.3,163 M22.3,152 L24.3,152 M22.3,129 L24.3,129 M22.3,118 L24.3,118 M22.3,107 L24.3,107 M22.3,95.5 L24.3,95.5 M22.3,72.9 L24.3,72.9 M22.3,61.6 L24.3,61.6 M22.3,50.3 L24.3,50.3 M22.3,310 L24.3,310 M22.3,321 L24.3,321 M22.3,332 L24.3,332 M22.3,344 L24.3,344 " fill="none"/></g>
<g id="xMinorTicks" stroke="rgb(0,0,0)" stroke-width="1"><path d="M395,346 L395,348 M428,346 L428,348 M462,346 L462,348 M496,346 L496,348 M563,346 L563,348 M597,346 L597,348 M630,346 L630,348 M664,346 L664,348 M327,346 L327,348 M294,346 L294,348 M260,346 L260,348 M226,346 L226,348 M159,346 L159,348 M125,346 L125,348 M91.6,346 L91.6,348 M58,346 L58,348 " fill="none"/></g>
<g id="yMajorTicks" stroke="rgb(0,0,0)" stroke-width="2"><path d="M19.3,310 L24.3,310 M19.3,253 L24.3,253 M19.3,197 L24.3,197 M19.3,141 L24.3,141 M19.3,84.2 L24.3,84.2 M19.3,310 L24.3,310 " fill="none"/></g>
<g id="xMajorTicks" stroke="rgb(0,0,0)" stroke-width="2"><path d="M361,346 L361,352 M529,346 L529,352 M698,346 L698,352 M361,346 L361,352 M193,346 L193,352 M24.3,346 L24.3,352 " fill="none"/></g>
<g id="xTicksValues">
<text x="361" y="367" text-anchor="middle" font-size="12" font-family="Lucida Sans Unicode">0</text>
<text x="529" y="367" text-anchor="middle" font-size="12" font-family="Lucida Sans Unicode">10</text>
<text x="698" y="367" text-anchor="middle" font-size="12" font-family="Lucida Sans Unicode">20</text>
<text x="361" y="367" text-anchor="middle" font-size="12" font-family="Lucida Sans Unicode">0</text>
<text x="193" y="367" text-anchor="middle" font-size="12" font-family="Lucida Sans Unicode">-10</text>
<text x="24.3" y="367" text-anchor="middle" font-size="12" font-family="Lucida Sans Unicode">-20</text></g>
<g id="yTicksValues">
<text x="13.3" y="312" text-anchor="end" font-size="12" font-family="Lucida Sans Unicode">0</text>
<text x="13.3" y="256" text-anchor="end" font-size="12" font-family="Lucida Sans Unicode">20</text>
<text x="13.3" y="199" text-anchor="end" font-size="12" font-family="Lucida Sans Unicode">40</text>
<text x="13.3" y="143" text-anchor="end" font-size="12" font-family="Lucida Sans Unicode">60</text>
<text x="13.3" y="86.6" text-anchor="end" font-size="12" font-family="Lucida Sans Unicode">80</text>
<text x="13.3" y="312" text-anchor="end" font-size="12" font-family="Lucida Sans Unicode">0</text></g>
<g id="yLabel">
<text x="-8.6" y="197" text-anchor="middle" transform = "rotate(-90 -8.6 197 )" font-size="14" font-family="Lucida Sans Unicode"></text></g>
<g id="xLabel">
<text x="361" y="382" text-anchor="middle" font-size="14" font-family="Lucida Sans Unicode">x</text></g>
<g id="plotLines" stroke-width="2"><g clip-path="url(#plot_window)" stroke="rgb(0,0,0)" fill="rgb(0,128,0)" stroke-width="2"><path d="M24.3,310 L24.3,305 L24.3,305 L27.7,310 L31,310 L34.4,310 L37.8,307 L41.1,310 L44.5,308 L47.9,308 L51.2,307 L54.6,310 L58,310 L61.3,306 L64.7,310 L68.1,307 L71.4,310 L74.8,305 L78.2,310 L81.5,310 L84.9,308 L88.3,307 L91.6,310 L95,310 L98.4,310 L102,308 L105,308 L108,310 L112,310 L115,302 L119,310 L122,310 L125,310 L129,300 L132,310 L135,310 L139,310 L142,308 L145,310 L149,310 L152,310 L156,310 L159,48.8 L162,310 L166,310 L169,310 L172,308 L176,310 L179,310 L183,310 L186,310 L189,267 L193,310 L196,310 L199,310 L203,310 L206,307 L209,310 L213,310 L216,310 L220,310 L223,308 L226,310 L230,310 L233,310 L236,310 L240,308 L243,310 L246,310 L250,310 L253,310 L257,310 L260,310 L263,310 L267,307 L270,310 L273,310 L277,310 L280,310 L283,310 L287,310 L290,310 L294,310 L297,310 L300,310 L304,308 L307,310 L310,310 L314,310 L317,310 L321,310 L324,310 L327,310 L331,310 L334,310 L337,310 L341,310 L344,310 L347,310 L351,310 L354,310 L358,310 L361,310 L364,310 L368,310 L371,310 L374,310 L378,310 L381,310 L384,310 L388,310 L391,310 L395,310 L398,310 L401,310 L405,310 L408,308 L411,310 L415,310 L418,307 L421,310 L425,310 L428,310 L432,308 L435,310 L438,308 L442,310 L445,310 L448,310 L452,310 L455,310 L459,310 L462,310 L465,310 L469,310 L472,310 L475,310 L479,310 L482,310 L485,308 L489,307 L492,310 L496,310 L499,310 L502,310 L506,308 L509,310 L512,310 L516,310 L519,310 L522,310 L526,310 L529,310 L533,310 L536,310 L539,310 L543,308 L546,310 L549,310 L553,310 L556,310 L559,307 L563,310 L566,310 L570,310 L573,310 L576,308 L580,310 L583,310 L586,310 L590,310 L593,308 L597,310 L600,308 L603,310 L607,310 L610,308 L613,310 L617,310 L620,308 L623,310 L627,310 L630,310 L634,310 L637,310 L640,310 L644,310 L647,308 L650,308 L654,310 L657,310 L660,310 L664,310 L667,310 L671,310 L674,310 L677,310 L681,310 L684,310 L687,307 L691,308 L694,310 L694,310 Z" fill="rgb(0,128,0)"/></g>
<g clip-path="url(#plot_window)" stroke="rgb(0,0,0)" fill="rgb(0,128,0)" stroke-width="2"><path d="M24.3,310 L24.3,312 L24.3,312 L27.7,310 L31,310 L34.4,310 L37.8,316 L41.1,312 L44.5,310 L47.9,312 L51.2,312 L54.6,310 L58,311 L61.3,312 L64.7,312 L68.1,310 L71.4,312 L74.8,312 L78.2,310 L81.5,310 L84.9,312 L88.3,326 L91.6,312 L95,310 L98.4,310 L102,320 L105,310 L108,310 L112,312 L115,312 L119,310 L122,310 L125,310 L129,312 L132,311 L135,310 L139,310 L142,311 L145,310 L149,310 L152,310 L156,310 L159,312 L162,310 L166,310 L169,310 L172,325 L176,310 L179,310 L183,310 L186,310 L189,310 L193,310 L196,310 L199,310 L203,310 L206,312 L209,310 L213,310 L216,310 L220,310 L223,310 L226,318 L230,310 L233,310 L236,310 L240,310 L243,311 L246,312 L250,312 L253,310 L257,310 L260,310 L263,310 L267,311 L270,310 L273,310 L277,310 L280,310 L283,313 L287,312 L290,344 L294,310 L297,310 L300,310 L304,310 L307,310 L310,310 L314,310 L317,310 L321,312 L324,310 L327,310 L331,310 L334,310 L337,310 L341,310 L344,310 L347,310 L351,310 L354,310 L358,310 L361,310 L364,310 L368,310 L371,310 L374,310 L378,310 L381,310 L384,310 L388,310 L391,312 L395,313 L398,310 L401,310 L405,310 L408,310 L411,310 L415,310 L418,310 L421,310 L425,310 L428,310 L432,310 L435,310 L438,310 L442,310 L445,310 L448,310 L452,310 L455,310 L459,310 L462,310 L465,310 L469,310 L472,311 L475,310 L479,310 L482,310 L485,310 L489,312 L492,310 L496,310 L499,310 L502,310 L506,310 L509,310 L512,310 L516,310 L519,310 L522,310 L526,310 L529,310 L533,310 L536,310 L539,310 L543,310 L546,310 L549,310 L553,310 L556,310 L559,310 L563,310 L566,310 L570,310 L573,310 L576,310 L580,310 L583,310 L586,310 L590,310 L593,310 L597,310 L600,310 L603,310 L607,310 L610,310 L613,310 L617,310 L620,310 L623,310 L627,310 L630,310 L634,310 L637,310 L640,310 L644,310 L647,310 L650,310 L654,310 L657,312 L660,310 L664,310 L667,310 L671,312 L674,310 L677,310 L681,310 L684,310 L687,312 L691,310 L694,310 L694,310 Z" fill="rgb(0,128,0)"/></g>
</g>
<g id="plotPoints" clip-path="url(#plot_window)"><g stroke="rgb(0,128,0)" fill="rgb(0,128,0)"><circle cx="24.3" cy="305" r="0"/><circle cx="27.7" cy="310" r="0"/><circle cx="31" cy="310" r="0"/><circle cx="34.4" cy="310" r="0"/><circle cx="37.8" cy="307" r="0"/><circle cx="41.1" cy="310" r="0"/><circle cx="44.5" cy="308" r="0"/><circle cx="47.9" cy="308" r="0"/><circle cx="51.2" cy="307" r="0"/><circle cx="54.6" cy="310" r="0"/><circle cx="58" cy="310" r="0"/><circle cx="61.3" cy="306" r="0"/><circle cx="64.7" cy="310" r="0"/><circle cx="68.1" cy="307" r="0"/><circle cx="71.4" cy="310" r="0"/><circle cx="74.8" cy="305" r="0"/><circle cx="78.2" cy="310" r="0"/><circle cx="81.5" cy="310" r="0"/><circle cx="84.9" cy="308" r="0"/><circle cx="88.3" cy="307" r="0"/><circle cx="91.6" cy="310" r="0"/><circle cx="95" cy="310" r="0"/><circle cx="98.4" cy="310" r="0"/><circle cx="102" cy="308" r="0"/><circle cx="105" cy="308" r="0"/><circle cx="108" cy="310" r="0"/><circle cx="112" cy="310" r="0"/><circle cx="115" cy="302" r="0"/><circle cx="119" cy="310" r="0"/><circle cx="122" cy="310" r="0"/><circle cx="125" cy="310" r="0"/><circle cx="129" cy="300" r="0"/><circle cx="132" cy="310" r="0"/><circle cx="135" cy="310" r="0"/><circle cx="139" cy="310" r="0"/><circle cx="142" cy="308" r="0"/><circle cx="145" cy="310" r="0"/><circle cx="149" cy="310" r="0"/><circle cx="152" cy="310" r="0"/><circle cx="156" cy="310" r="0"/><circle cx="159" cy="48.8" r="0"/><circle cx="162" cy="310" r="0"/><circle cx="166" cy="310" r="0"/><circle cx="169" cy="310" r="0"/><circle cx="172" cy="308" r="0"/><circle cx="176" cy="310" r="0"/><circle cx="179" cy="310" r="0"/><circle cx="183" cy="310" r="0"/><circle cx="186" cy="310" r="0"/><circle cx="189" cy="267" r="0"/><circle cx="193" cy="310" r="0"/><circle cx="196" cy="310" r="0"/><circle cx="199" cy="310" r="0"/><circle cx="203" cy="310" r="0"/><circle cx="206" cy="307" r="0"/><circle cx="209" cy="310" r="0"/><circle cx="213" cy="310" r="0"/><circle cx="216" cy="310" r="0"/><circle cx="220" cy="310" r="0"/><circle cx="223" cy="308" r="0"/><circle cx="226" cy="310" r="0"/><circle cx="230" cy="310" r="0"/><circle cx="233" cy="310" r="0"/><circle cx="236" cy="310" r="0"/><circle cx="240" cy="308" r="0"/><circle cx="243" cy="310" r="0"/><circle cx="246" cy="310" r="0"/><circle cx="250" cy="310" r="0"/><circle cx="253" cy="310" r="0"/><circle cx="257" cy="310" r="0"/><circle cx="260" cy="310" r="0"/><circle cx="263" cy="310" r="0"/><circle cx="267" cy="307" r="0"/><circle cx="270" cy="310" r="0"/><circle cx="273" cy="310" r="0"/><circle cx="277" cy="310" r="0"/><circle cx="280" cy="310" r="0"/><circle cx="283" cy="310" r="0"/><circle cx="287" cy="310" r="0"/><circle cx="290" cy="310" r="0"/><circle cx="294" cy="310" r="0"/><circle cx="297" cy="310" r="0"/><circle cx="300" cy="310" r="0"/><circle cx="304" cy="308" r="0"/><circle cx="307" cy="310" r="0"/><circle cx="310" cy="310" r="0"/><circle cx="314" cy="310" r="0"/><circle cx="317" cy="310" r="0"/><circle cx="321" cy="310" r="0"/><circle cx="324" cy="310" r="0"/><circle cx="327" cy="310" r="0"/><circle cx="331" cy="310" r="0"/><circle cx="334" cy="310" r="0"/><circle cx="337" cy="310" r="0"/><circle cx="341" cy="310" r="0"/><circle cx="344" cy="310" r="0"/><circle cx="347" cy="310" r="0"/><circle cx="351" cy="310" r="0"/><circle cx="354" cy="310" r="0"/><circle cx="358" cy="310" r="0"/><circle cx="361" cy="310" r="0"/><circle cx="364" cy="310" r="0"/><circle cx="368" cy="310" r="0"/><circle cx="371" cy="310" r="0"/><circle cx="374" cy="310" r="0"/><circle cx="378" cy="310" r="0"/><circle cx="381" cy="310" r="0"/><circle cx="384" cy="310" r="0"/><circle cx="388" cy="310" r="0"/><circle cx="391" cy="310" r="0"/><circle cx="395" cy="310" r="0"/><circle cx="398" cy="310" r="0"/><circle cx="401" cy="310" r="0"/><circle cx="405" cy="310" r="0"/><circle cx="408" cy="308" r="0"/><circle cx="411" cy="310" r="0"/><circle cx="415" cy="310" r="0"/><circle cx="418" cy="307" r="0"/><circle cx="421" cy="310" r="0"/><circle cx="425" cy="310" r="0"/><circle cx="428" cy="310" r="0"/><circle cx="432" cy="308" r="0"/><circle cx="435" cy="310" r="0"/><circle cx="438" cy="308" r="0"/><circle cx="442" cy="310" r="0"/><circle cx="445" cy="310" r="0"/><circle cx="448" cy="310" r="0"/><circle cx="452" cy="310" r="0"/><circle cx="455" cy="310" r="0"/><circle cx="459" cy="310" r="0"/><circle cx="462" cy="310" r="0"/><circle cx="465" cy="310" r="0"/><circle cx="469" cy="310" r="0"/><circle cx="472" cy="310" r="0"/><circle cx="475" cy="310" r="0"/><circle cx="479" cy="310" r="0"/><circle cx="482" cy="310" r="0"/><circle cx="485" cy="308" r="0"/><circle cx="489" cy="307" r="0"/><circle cx="492" cy="310" r="0"/><circle cx="496" cy="310" r="0"/><circle cx="499" cy="310" r="0"/><circle cx="502" cy="310" r="0"/><circle cx="506" cy="308" r="0"/><circle cx="509" cy="310" r="0"/><circle cx="512" cy="310" r="0"/><circle cx="516" cy="310" r="0"/><circle cx="519" cy="310" r="0"/><circle cx="522" cy="310" r="0"/><circle cx="526" cy="310" r="0"/><circle cx="529" cy="310" r="0"/><circle cx="533" cy="310" r="0"/><circle cx="536" cy="310" r="0"/><circle cx="539" cy="310" r="0"/><circle cx="543" cy="308" r="0"/><circle cx="546" cy="310" r="0"/><circle cx="549" cy="310" r="0"/><circle cx="553" cy="310" r="0"/><circle cx="556" cy="310" r="0"/><circle cx="559" cy="307" r="0"/><circle cx="563" cy="310" r="0"/><circle cx="566" cy="310" r="0"/><circle cx="570" cy="310" r="0"/><circle cx="573" cy="310" r="0"/><circle cx="576" cy="308" r="0"/><circle cx="580" cy="310" r="0"/><circle cx="583" cy="310" r="0"/><circle cx="586" cy="310" r="0"/><circle cx="590" cy="310" r="0"/><circle cx="593" cy="308" r="0"/><circle cx="597" cy="310" r="0"/><circle cx="600" cy="308" r="0"/><circle cx="603" cy="310" r="0"/><circle cx="607" cy="310" r="0"/><circle cx="610" cy="308" r="0"/><circle cx="613" cy="310" r="0"/><circle cx="617" cy="310" r="0"/><circle cx="620" cy="308" r="0"/><circle cx="623" cy="310" r="0"/><circle cx="627" cy="310" r="0"/><circle cx="630" cy="310" r="0"/><circle cx="634" cy="310" r="0"/><circle cx="637" cy="310" r="0"/><circle cx="640" cy="310" r="0"/><circle cx="644" cy="310" r="0"/><circle cx="647" cy="308" r="0"/><circle cx="650" cy="308" r="0"/><circle cx="654" cy="310" r="0"/><circle cx="657" cy="310" r="0"/><circle cx="660" cy="310" r="0"/><circle cx="664" cy="310" r="0"/><circle cx="667" cy="310" r="0"/><circle cx="671" cy="310" r="0"/><circle cx="674" cy="310" r="0"/><circle cx="677" cy="310" r="0"/><circle cx="681" cy="310" r="0"/><circle cx="684" cy="310" r="0"/><circle cx="687" cy="307" r="0"/><circle cx="691" cy="308" r="0"/><circle cx="694" cy="310" r="0"/></g>
<g stroke="rgb(0,128,0)" fill="rgb(0,128,0)"><circle cx="24.3" cy="312" r="0"/><circle cx="27.7" cy="310" r="0"/><circle cx="31" cy="310" r="0"/><circle cx="34.4" cy="310" r="0"/><circle cx="37.8" cy="316" r="0"/><circle cx="41.1" cy="312" r="0"/><circle cx="44.5" cy="310" r="0"/><circle cx="47.9" cy="312" r="0"/><circle cx="51.2" cy="312" r="0"/><circle cx="54.6" cy="310" r="0"/><circle cx="58" cy="311" r="0"/><circle cx="61.3" cy="312" r="0"/><circle cx="64.7" cy="312" r="0"/><circle cx="68.1" cy="310" r="0"/><circle cx="71.4" cy="312" r="0"/><circle cx="74.8" cy="312" r="0"/><circle cx="78.2" cy="310" r="0"/><circle cx="81.5" cy="310" r="0"/><circle cx="84.9" cy="312" r="0"/><circle cx="88.3" cy="326" r="0"/><circle cx="91.6" cy="312" r="0"/><circle cx="95" cy="310" r="0"/><circle cx="98.4" cy="310" r="0"/><circle cx="102" cy="320" r="0"/><circle cx="105" cy="310" r="0"/><circle cx="108" cy="310" r="0"/><circle cx="112" cy="312" r="0"/><circle cx="115" cy="312" r="0"/><circle cx="119" cy="310" r="0"/><circle cx="122" cy="310" r="0"/><circle cx="125" cy="310" r="0"/><circle cx="129" cy="312" r="0"/><circle cx="132" cy="311" r="0"/><circle cx="135" cy="310" r="0"/><circle cx="139" cy="310" r="0"/><circle cx="142" cy="311" r="0"/><circle cx="145" cy="310" r="0"/><circle cx="149" cy="310" r="0"/><circle cx="152" cy="310" r="0"/><circle cx="156" cy="310" r="0"/><circle cx="159" cy="312" r="0"/><circle cx="162" cy="310" r="0"/><circle cx="166" cy="310" r="0"/><circle cx="169" cy="310" r="0"/><circle cx="172" cy="325" r="0"/><circle cx="176" cy="310" r="0"/><circle cx="179" cy="310" r="0"/><circle cx="183" cy="310" r="0"/><circle cx="186" cy="310" r="0"/><circle cx="189" cy="310" r="0"/><circle cx="193" cy="310" r="0"/><circle cx="196" cy="310" r="0"/><circle cx="199" cy="310" r="0"/><circle cx="203" cy="310" r="0"/><circle cx="206" cy="312" r="0"/><circle cx="209" cy="310" r="0"/><circle cx="213" cy="310" r="0"/><circle cx="216" cy="310" r="0"/><circle cx="220" cy="310" r="0"/><circle cx="223" cy="310" r="0"/><circle cx="226" cy="318" r="0"/><circle cx="230" cy="310" r="0"/><circle cx="233" cy="310" r="0"/><circle cx="236" cy="310" r="0"/><circle cx="240" cy="310" r="0"/><circle cx="243" cy="311" r="0"/><circle cx="246" cy="312" r="0"/><circle cx="250" cy="312" r="0"/><circle cx="253" cy="310" r="0"/><circle cx="257" cy="310" r="0"/><circle cx="260" cy="310" r="0"/><circle cx="263" cy="310" r="0"/><circle cx="267" cy="311" r="0"/><circle cx="270" cy="310" r="0"/><circle cx="273" cy="310" r="0"/><circle cx="277" cy="310" r="0"/><circle cx="280" cy="310" r="0"/><circle cx="283" cy="313" r="0"/><circle cx="287" cy="312" r="0"/><circle cx="290" cy="344" r="0"/><circle cx="294" cy="310" r="0"/><circle cx="297" cy="310" r="0"/><circle cx="300" cy="310" r="0"/><circle cx="304" cy="310" r="0"/><circle cx="307" cy="310" r="0"/><circle cx="310" cy="310" r="0"/><circle cx="314" cy="310" r="0"/><circle cx="317" cy="310" r="0"/><circle cx="321" cy="312" r="0"/><circle cx="324" cy="310" r="0"/><circle cx="327" cy="310" r="0"/><circle cx="331" cy="310" r="0"/><circle cx="334" cy="310" r="0"/><circle cx="337" cy="310" r="0"/><circle cx="341" cy="310" r="0"/><circle cx="344" cy="310" r="0"/><circle cx="347" cy="310" r="0"/><circle cx="351" cy="310" r="0"/><circle cx="354" cy="310" r="0"/><circle cx="358" cy="310" r="0"/><circle cx="361" cy="310" r="0"/><circle cx="364" cy="310" r="0"/><circle cx="368" cy="310" r="0"/><circle cx="371" cy="310" r="0"/><circle cx="374" cy="310" r="0"/><circle cx="378" cy="310" r="0"/><circle cx="381" cy="310" r="0"/><circle cx="384" cy="310" r="0"/><circle cx="388" cy="310" r="0"/><circle cx="391" cy="312" r="0"/><circle cx="395" cy="313" r="0"/><circle cx="398" cy="310" r="0"/><circle cx="401" cy="310" r="0"/><circle cx="405" cy="310" r="0"/><circle cx="408" cy="310" r="0"/><circle cx="411" cy="310" r="0"/><circle cx="415" cy="310" r="0"/><circle cx="418" cy="310" r="0"/><circle cx="421" cy="310" r="0"/><circle cx="425" cy="310" r="0"/><circle cx="428" cy="310" r="0"/><circle cx="432" cy="310" r="0"/><circle cx="435" cy="310" r="0"/><circle cx="438" cy="310" r="0"/><circle cx="442" cy="310" r="0"/><circle cx="445" cy="310" r="0"/><circle cx="448" cy="310" r="0"/><circle cx="452" cy="310" r="0"/><circle cx="455" cy="310" r="0"/><circle cx="459" cy="310" r="0"/><circle cx="462" cy="310" r="0"/><circle cx="465" cy="310" r="0"/><circle cx="469" cy="310" r="0"/><circle cx="472" cy="311" r="0"/><circle cx="475" cy="310" r="0"/><circle cx="479" cy="310" r="0"/><circle cx="482" cy="310" r="0"/><circle cx="485" cy="310" r="0"/><circle cx="489" cy="312" r="0"/><circle cx="492" cy="310" r="0"/><circle cx="496" cy="310" r="0"/><circle cx="499" cy="310" r="0"/><circle cx="502" cy="310" r="0"/><circle cx="506" cy="310" r="0"/><circle cx="509" cy="310" r="0"/><circle cx="512" cy="310" r="0"/><circle cx="516" cy="310" r="0"/><circle cx="519" cy="310" r="0"/><circle cx="522" cy="310" r="0"/><circle cx="526" cy="310" r="0"/><circle cx="529" cy="310" r="0"/><circle cx="533" cy="310" r="0"/><circle cx="536" cy="310" r="0"/><circle cx="539" cy="310" r="0"/><circle cx="543" cy="310" r="0"/><circle cx="546" cy="310" r="0"/><circle cx="549" cy="310" r="0"/><circle cx="553" cy="310" r="0"/><circle cx="556" cy="310" r="0"/><circle cx="559" cy="310" r="0"/><circle cx="563" cy="310" r="0"/><circle cx="566" cy="310" r="0"/><circle cx="570" cy="310" r="0"/><circle cx="573" cy="310" r="0"/><circle cx="576" cy="310" r="0"/><circle cx="580" cy="310" r="0"/><circle cx="583" cy="310" r="0"/><circle cx="586" cy="310" r="0"/><circle cx="590" cy="310" r="0"/><circle cx="593" cy="310" r="0"/><circle cx="597" cy="310" r="0"/><circle cx="600" cy="310" r="0"/><circle cx="603" cy="310" r="0"/><circle cx="607" cy="310" r="0"/><circle cx="610" cy="310" r="0"/><circle cx="613" cy="310" r="0"/><circle cx="617" cy="310" r="0"/><circle cx="620" cy="310" r="0"/><circle cx="623" cy="310" r="0"/><circle cx="627" cy="310" r="0"/><circle cx="630" cy="310" r="0"/><circle cx="634" cy="310" r="0"/><circle cx="637" cy="310" r="0"/><circle cx="640" cy="310" r="0"/><circle cx="644" cy="310" r="0"/><circle cx="647" cy="310" r="0"/><circle cx="650" cy="310" r="0"/><circle cx="654" cy="310" r="0"/><circle cx="657" cy="312" r="0"/><circle cx="660" cy="310" r="0"/><circle cx="664" cy="310" r="0"/><circle cx="667" cy="310" r="0"/><circle cx="671" cy="312" r="0"/><circle cx="674" cy="310" r="0"/><circle cx="677" cy="310" r="0"/><circle cx="681" cy="310" r="0"/><circle cx="684" cy="310" r="0"/><circle cx="687" cy="312" r="0"/><circle cx="691" cy="310" r="0"/><circle cx="694" cy="310" r="0"/></g>
</g>
<g id="title">
<text x="350" y="36" text-anchor="middle" font-size="18" font-family="Lucida Sans Unicode">Errors in Ai, double</text></g>
<g id="plotXValues"></g>
<g id="plotYValues"></g>
</svg>
