<?xml version="1.0" encoding="UTF-8" standalone="no"?>
<svg width="700" height ="400" version="1.1"
xmlns:svg ="http://www.w3.org/2000/svg"
xmlns:rdf="http://www.w3.org/1999/02/22-rdf-syntax-ns#"
xmlns:cc="http://web.resource.org/cc/"
xmlns:dc="http://purl.org/dc/elements/1.1/"
xmlns ="http://www.w3.org/2000/svg"
>
<!-- SVG plot written using Boost.Plot program (Creator Jacob Voytko) --> 
<!-- Use, modification and distribution of Boost.Plot subject to the --> 
<!-- Boost Software License, Version 1.0.--> 
<!-- (See accompanying file LICENSE_1_0.txt --> 
<!-- or copy at http://www.boost.org/LICENSE_1_0.txt) --> 

<clipPath id="plot_window"><rect x="33.7" y="48.5" width="663" height="297"/></clipPath>
<g id="imageBackground" stroke="rgb(211,211,211)" fill="rgb(255,255,255)" stroke-width="2"><rect x="0" y="0" width="700" height="400"/></g>
<g id="plotBackground" stroke="rgb(211,211,211)" fill="rgb(255,255,255)" stroke-width="2"><rect x="32.7" y="47.5" width="665" height="299"/></g>
<g id="yMinorGrid" stroke="rgb(200,220,255)" stroke-width="0.5"></g>
<g id="yMajorGrid" stroke="rgb(200,220,255)" stroke-width="1"></g>
<g id="xMinorGrid" stroke="rgb(200,220,255)" stroke-width="0.5"></g>
<g id="xMajorGrid" stroke="rgb(200,220,255)" stroke-width="1"></g>
<g id="yAxis" stroke="rgb(0,0,0)" stroke-width="1"><line x1="365" y1="47.5" x2="365" y2="352"/><line x1="32.7" y1="47.5" x2="32.7" y2="346"/></g>
<g id="xAxis" stroke="rgb(0,0,0)" stroke-width="1"><line x1="27.7" y1="171" x2="698" y2="171"/><line x1="27.7" y1="346" x2="698" y2="346"/></g>
<g id="yMinorTicks" stroke="rgb(0,0,0)" stroke-width="1"><path d="M30.7,164 L32.7,164 M30.7,157 L32.7,157 M30.7,150 L32.7,150 M30.7,142 L32.7,142 M30.7,128 L32.7,128 M30.7,121 L32.7,121 M30.7,114 L32.7,114 M30.7,107 L32.7,107 M30.7,93.2 L32.7,93.2 M30.7,86.2 L32.7,86.2 M30.7,79.2 L32.7,79.2 M30.7,72.1 L32.7,72.1 M30.7,58.1 L32.7,58.1 M30.7,51 L32.7,51 M30.7,171 L32.7,171 M30.7,178 L32.7,178 M30.7,185 L32.7,185 M30.7,192 L32.7,192 M30.7,199 L32.7,199 M30.7,206 L32.7,206 M30.7,213 L32.7,213 M30.7,220 L32.7,220 M30.7,227 L32.7,227 M30.7,234 L32.7,234 M30.7,241 L32.7,241 M30.7,241 L32.7,241 M30.7,248 L32.7,248 M30.7,255 L32.7,255 M30.7,262 L32.7,262 M30.7,269 L32.7,269 M30.7,276 L32.7,276 M30.7,283 L32.7,283 M30.7,290 L32.7,290 M30.7,297 L32.7,297 M30.7,304 L32.7,304 M30.7,311 L32.7,311 M30.7,318 L32.7,318 M30.7,325 L32.7,325 M30.7,332 L32.7,332 M30.7,339 L32.7,339 M30.7,346 L32.7,346 " fill="none"/></g>
<g id="xMinorTicks" stroke="rgb(0,0,0)" stroke-width="1"><path d="M398,346 L398,348 M432,346 L432,348 M465,346 L465,348 M498,346 L498,348 M565,346 L565,348 M598,346 L598,348 M631,346 L631,348 M664,346 L664,348 M332,346 L332,348 M299,346 L299,348 M265,346 L265,348 M232,346 L232,348 M166,346 L166,348 M132,346 L132,348 M99.2,346 L99.2,348 M65.9,346 L65.9,348 " fill="none"/></g>
<g id="yMajorTicks" stroke="rgb(0,0,0)" stroke-width="2"><path d="M27.7,171 L32.7,171 M27.7,135 L32.7,135 M27.7,100 L32.7,100 M27.7,65.1 L32.7,65.1 M27.7,171 L32.7,171 M27.7,206 L32.7,206 M27.7,241 L32.7,241 M27.7,276 L32.7,276 M27.7,311 L32.7,311 M27.7,346 L32.7,346 " fill="none"/></g>
<g id="xMajorTicks" stroke="rgb(0,0,0)" stroke-width="2"><path d="M365,346 L365,352 M531,346 L531,352 M698,346 L698,352 M365,346 L365,352 M199,346 L199,352 M32.7,346 L32.7,352 " fill="none"/></g>
<g id="xTicksValues">
<text x="365" y="367" text-anchor="middle" font-size="12" font-family="Lucida Sans Unicode">0</text>
<text x="531" y="367" text-anchor="middle" font-size="12" font-family="Lucida Sans Unicode">10</text>
<text x="698" y="367" text-anchor="middle" font-size="12" font-family="Lucida Sans Unicode">20</text>
<text x="365" y="367" text-anchor="middle" font-size="12" font-family="Lucida Sans Unicode">0</text>
<text x="199" y="367" text-anchor="middle" font-size="12" font-family="Lucida Sans Unicode">-10</text>
<text x="32.7" y="367" text-anchor="middle" font-size="12" font-family="Lucida Sans Unicode">-20</text></g>
<g id="yTicksValues">
<text x="21.7" y="173" text-anchor="end" font-size="12" font-family="Lucida Sans Unicode">0</text>
<text x="21.7" y="138" text-anchor="end" font-size="12" font-family="Lucida Sans Unicode">2</text>
<text x="21.7" y="103" text-anchor="end" font-size="12" font-family="Lucida Sans Unicode">4</text>
<text x="21.7" y="67.5" text-anchor="end" font-size="12" font-family="Lucida Sans Unicode">6</text>
<text x="21.7" y="173" text-anchor="end" font-size="12" font-family="Lucida Sans Unicode">0</text>
<text x="21.7" y="208" text-anchor="end" font-size="12" font-family="Lucida Sans Unicode">-2</text>
<text x="21.7" y="243" text-anchor="end" font-size="12" font-family="Lucida Sans Unicode">-4</text>
<text x="21.7" y="279" text-anchor="end" font-size="12" font-family="Lucida Sans Unicode">-6</text>
<text x="21.7" y="314" text-anchor="end" font-size="12" font-family="Lucida Sans Unicode">-8</text>
<text x="21.7" y="349" text-anchor="end" font-size="12" font-family="Lucida Sans Unicode">-10</text></g>
<g id="yLabel">
<text x="-8.6" y="197" text-anchor="middle" transform = "rotate(-90 -8.6 197 )" font-size="14" font-family="Lucida Sans Unicode"></text></g>
<g id="xLabel">
<text x="365" y="382" text-anchor="middle" font-size="14" font-family="Lucida Sans Unicode">x</text></g>
<g id="plotLines" stroke-width="2"><g clip-path="url(#plot_window)" stroke="rgb(0,0,0)" fill="rgb(0,128,0)" stroke-width="2"><path d="M32.7,171 L32.7,171 L32.7,171 L36,157 L39.3,156 L42.7,160 L46,171 L49.3,159 L52.6,171 L56,171 L59.3,171 L62.6,161 L65.9,157 L69.3,171 L72.6,159 L75.9,158 L79.2,171 L82.6,171 L85.9,171 L89.2,137 L92.5,171 L95.9,171 L99.2,171 L103,136 L106,171 L109,171 L112,171 L116,155 L119,171 L122,171 L126,171 L129,86.7 L132,161 L136,171 L139,171 L142,171 L146,171 L149,171 L152,171 L156,162 L159,136 L162,171 L166,171 L169,171 L172,161 L176,160 L179,171 L182,171 L186,153 L189,125 L192,171 L196,171 L199,171 L202,171 L206,150 L209,171 L212,161 L216,171 L219,171 L222,133 L225,171 L229,171 L232,171 L235,171 L239,171 L242,103 L245,171 L249,171 L252,171 L255,171 L259,171 L262,171 L265,171 L269,171 L272,160 L275,171 L279,171 L282,52.6 L285,171 L289,171 L292,171 L295,171 L299,171 L302,171 L305,171 L309,171 L312,171 L315,171 L319,171 L322,171 L325,158 L329,171 L332,171 L335,171 L339,156 L342,171 L345,155 L348,171 L352,161 L355,171 L358,171 L362,171 L365,171 L368,171 L372,171 L375,171 L378,171 L382,171 L385,171 L388,171 L392,171 L395,171 L398,171 L402,171 L405,171 L408,171 L412,171 L415,171 L418,171 L422,171 L425,171 L428,171 L432,171 L435,171 L438,171 L442,171 L445,171 L448,157 L452,171 L455,171 L458,171 L461,171 L465,171 L468,171 L471,171 L475,171 L478,171 L481,171 L485,171 L488,171 L491,171 L495,171 L498,171 L501,171 L505,171 L508,171 L511,171 L515,171 L518,171 L521,171 L525,171 L528,171 L531,171 L535,171 L538,171 L541,171 L545,171 L548,159 L551,171 L555,171 L558,171 L561,171 L565,161 L568,171 L571,171 L575,171 L578,171 L581,171 L584,171 L588,171 L591,161 L594,171 L598,171 L601,171 L604,171 L608,171 L611,171 L614,171 L618,171 L621,171 L624,157 L628,171 L631,171 L634,171 L638,171 L641,171 L644,171 L648,153 L651,171 L654,171 L658,171 L661,171 L664,171 L668,171 L671,171 L674,159 L678,171 L681,171 L684,154 L688,171 L691,171 L694,159 L694,171 Z" fill="rgb(0,128,0)"/></g>
<g clip-path="url(#plot_window)" stroke="rgb(0,0,0)" fill="rgb(0,128,0)" stroke-width="2"><path d="M32.7,171 L32.7,171 L32.7,171 L36,181 L39.3,221 L42.7,171 L46,171 L49.3,171 L52.6,289 L56,171 L59.3,171 L62.6,241 L65.9,171 L69.3,171 L72.6,171 L75.9,264 L79.2,180 L82.6,171 L85.9,171 L89.2,186 L92.5,186 L95.9,171 L99.2,171 L103,185 L106,171 L109,171 L112,171 L116,330 L119,171 L122,171 L126,171 L129,180 L132,171 L136,171 L139,171 L142,186 L146,171 L149,171 L152,171 L156,171 L159,184 L162,171 L166,171 L169,171 L172,186 L176,171 L179,171 L182,171 L186,171 L189,182 L192,171 L196,171 L199,171 L202,171 L206,180 L209,171 L212,171 L216,171 L219,180 L222,185 L225,171 L229,171 L232,171 L235,171 L239,171 L242,171 L245,171 L249,171 L252,171 L255,171 L259,183 L262,182 L265,185 L269,171 L272,171 L275,171 L279,171 L282,180 L285,171 L289,171 L292,171 L295,171 L299,171 L302,171 L305,171 L309,171 L312,171 L315,171 L319,171 L322,171 L325,171 L329,171 L332,171 L335,171 L339,171 L342,171 L345,171 L348,171 L352,171 L355,171 L358,171 L362,171 L365,171 L368,171 L372,171 L375,171 L378,171 L382,171 L385,171 L388,171 L392,171 L395,171 L398,171 L402,186 L405,171 L408,171 L412,181 L415,184 L418,171 L422,171 L425,171 L428,171 L432,171 L435,171 L438,171 L442,180 L445,171 L448,171 L452,171 L455,171 L458,171 L461,171 L465,171 L468,171 L471,171 L475,184 L478,171 L481,183 L485,181 L488,171 L491,171 L495,171 L498,184 L501,171 L505,171 L508,171 L511,171 L515,171 L518,184 L521,171 L525,171 L528,179 L531,186 L535,171 L538,171 L541,171 L545,171 L548,171 L551,171 L555,171 L558,171 L561,171 L565,171 L568,171 L571,171 L575,171 L578,171 L581,171 L584,179 L588,171 L591,171 L594,171 L598,171 L601,171 L604,171 L608,171 L611,171 L614,183 L618,188 L621,187 L624,171 L628,171 L631,171 L634,181 L638,171 L641,180 L644,171 L648,171 L651,171 L654,171 L658,186 L661,183 L664,171 L668,171 L671,183 L674,185 L678,171 L681,171 L684,171 L688,171 L691,171 L694,171 L694,171 Z" fill="rgb(0,128,0)"/></g>
</g>
<g id="plotPoints" clip-path="url(#plot_window)"><g stroke="rgb(0,128,0)" fill="rgb(0,128,0)"><circle cx="36" cy="157" r="0"/><circle cx="39.3" cy="156" r="0"/><circle cx="42.7" cy="160" r="0"/><circle cx="46" cy="171" r="0"/><circle cx="49.3" cy="159" r="0"/><circle cx="52.6" cy="171" r="0"/><circle cx="56" cy="171" r="0"/><circle cx="59.3" cy="171" r="0"/><circle cx="62.6" cy="161" r="0"/><circle cx="65.9" cy="157" r="0"/><circle cx="69.3" cy="171" r="0"/><circle cx="72.6" cy="159" r="0"/><circle cx="75.9" cy="158" r="0"/><circle cx="79.2" cy="171" r="0"/><circle cx="82.6" cy="171" r="0"/><circle cx="85.9" cy="171" r="0"/><circle cx="89.2" cy="137" r="0"/><circle cx="92.5" cy="171" r="0"/><circle cx="95.9" cy="171" r="0"/><circle cx="99.2" cy="171" r="0"/><circle cx="103" cy="136" r="0"/><circle cx="106" cy="171" r="0"/><circle cx="109" cy="171" r="0"/><circle cx="112" cy="171" r="0"/><circle cx="116" cy="155" r="0"/><circle cx="119" cy="171" r="0"/><circle cx="122" cy="171" r="0"/><circle cx="126" cy="171" r="0"/><circle cx="129" cy="86.7" r="0"/><circle cx="132" cy="161" r="0"/><circle cx="136" cy="171" r="0"/><circle cx="139" cy="171" r="0"/><circle cx="142" cy="171" r="0"/><circle cx="146" cy="171" r="0"/><circle cx="149" cy="171" r="0"/><circle cx="152" cy="171" r="0"/><circle cx="156" cy="162" r="0"/><circle cx="159" cy="136" r="0"/><circle cx="162" cy="171" r="0"/><circle cx="166" cy="171" r="0"/><circle cx="169" cy="171" r="0"/><circle cx="172" cy="161" r="0"/><circle cx="176" cy="160" r="0"/><circle cx="179" cy="171" r="0"/><circle cx="182" cy="171" r="0"/><circle cx="186" cy="153" r="0"/><circle cx="189" cy="125" r="0"/><circle cx="192" cy="171" r="0"/><circle cx="196" cy="171" r="0"/><circle cx="199" cy="171" r="0"/><circle cx="202" cy="171" r="0"/><circle cx="206" cy="150" r="0"/><circle cx="209" cy="171" r="0"/><circle cx="212" cy="161" r="0"/><circle cx="216" cy="171" r="0"/><circle cx="219" cy="171" r="0"/><circle cx="222" cy="133" r="0"/><circle cx="225" cy="171" r="0"/><circle cx="229" cy="171" r="0"/><circle cx="232" cy="171" r="0"/><circle cx="235" cy="171" r="0"/><circle cx="239" cy="171" r="0"/><circle cx="242" cy="103" r="0"/><circle cx="245" cy="171" r="0"/><circle cx="249" cy="171" r="0"/><circle cx="252" cy="171" r="0"/><circle cx="255" cy="171" r="0"/><circle cx="259" cy="171" r="0"/><circle cx="262" cy="171" r="0"/><circle cx="265" cy="171" r="0"/><circle cx="269" cy="171" r="0"/><circle cx="272" cy="160" r="0"/><circle cx="275" cy="171" r="0"/><circle cx="279" cy="171" r="0"/><circle cx="282" cy="52.6" r="0"/><circle cx="285" cy="171" r="0"/><circle cx="289" cy="171" r="0"/><circle cx="292" cy="171" r="0"/><circle cx="295" cy="171" r="0"/><circle cx="299" cy="171" r="0"/><circle cx="302" cy="171" r="0"/><circle cx="305" cy="171" r="0"/><circle cx="309" cy="171" r="0"/><circle cx="312" cy="171" r="0"/><circle cx="315" cy="171" r="0"/><circle cx="319" cy="171" r="0"/><circle cx="322" cy="171" r="0"/><circle cx="325" cy="158" r="0"/><circle cx="329" cy="171" r="0"/><circle cx="332" cy="171" r="0"/><circle cx="335" cy="171" r="0"/><circle cx="339" cy="156" r="0"/><circle cx="342" cy="171" r="0"/><circle cx="345" cy="155" r="0"/><circle cx="348" cy="171" r="0"/><circle cx="352" cy="161" r="0"/><circle cx="355" cy="171" r="0"/><circle cx="358" cy="171" r="0"/><circle cx="362" cy="171" r="0"/><circle cx="365" cy="171" r="0"/><circle cx="368" cy="171" r="0"/><circle cx="372" cy="171" r="0"/><circle cx="375" cy="171" r="0"/><circle cx="378" cy="171" r="0"/><circle cx="382" cy="171" r="0"/><circle cx="385" cy="171" r="0"/><circle cx="388" cy="171" r="0"/><circle cx="392" cy="171" r="0"/><circle cx="395" cy="171" r="0"/><circle cx="398" cy="171" r="0"/><circle cx="402" cy="171" r="0"/><circle cx="405" cy="171" r="0"/><circle cx="408" cy="171" r="0"/><circle cx="412" cy="171" r="0"/><circle cx="415" cy="171" r="0"/><circle cx="418" cy="171" r="0"/><circle cx="422" cy="171" r="0"/><circle cx="425" cy="171" r="0"/><circle cx="428" cy="171" r="0"/><circle cx="432" cy="171" r="0"/><circle cx="435" cy="171" r="0"/><circle cx="438" cy="171" r="0"/><circle cx="442" cy="171" r="0"/><circle cx="445" cy="171" r="0"/><circle cx="448" cy="157" r="0"/><circle cx="452" cy="171" r="0"/><circle cx="455" cy="171" r="0"/><circle cx="458" cy="171" r="0"/><circle cx="461" cy="171" r="0"/><circle cx="465" cy="171" r="0"/><circle cx="468" cy="171" r="0"/><circle cx="471" cy="171" r="0"/><circle cx="475" cy="171" r="0"/><circle cx="478" cy="171" r="0"/><circle cx="481" cy="171" r="0"/><circle cx="485" cy="171" r="0"/><circle cx="488" cy="171" r="0"/><circle cx="491" cy="171" r="0"/><circle cx="495" cy="171" r="0"/><circle cx="498" cy="171" r="0"/><circle cx="501" cy="171" r="0"/><circle cx="505" cy="171" r="0"/><circle cx="508" cy="171" r="0"/><circle cx="511" cy="171" r="0"/><circle cx="515" cy="171" r="0"/><circle cx="518" cy="171" r="0"/><circle cx="521" cy="171" r="0"/><circle cx="525" cy="171" r="0"/><circle cx="528" cy="171" r="0"/><circle cx="531" cy="171" r="0"/><circle cx="535" cy="171" r="0"/><circle cx="538" cy="171" r="0"/><circle cx="541" cy="171" r="0"/><circle cx="545" cy="171" r="0"/><circle cx="548" cy="159" r="0"/><circle cx="551" cy="171" r="0"/><circle cx="555" cy="171" r="0"/><circle cx="558" cy="171" r="0"/><circle cx="561" cy="171" r="0"/><circle cx="565" cy="161" r="0"/><circle cx="568" cy="171" r="0"/><circle cx="571" cy="171" r="0"/><circle cx="575" cy="171" r="0"/><circle cx="578" cy="171" r="0"/><circle cx="581" cy="171" r="0"/><circle cx="584" cy="171" r="0"/><circle cx="588" cy="171" r="0"/><circle cx="591" cy="161" r="0"/><circle cx="594" cy="171" r="0"/><circle cx="598" cy="171" r="0"/><circle cx="601" cy="171" r="0"/><circle cx="604" cy="171" r="0"/><circle cx="608" cy="171" r="0"/><circle cx="611" cy="171" r="0"/><circle cx="614" cy="171" r="0"/><circle cx="618" cy="171" r="0"/><circle cx="621" cy="171" r="0"/><circle cx="624" cy="157" r="0"/><circle cx="628" cy="171" r="0"/><circle cx="631" cy="171" r="0"/><circle cx="634" cy="171" r="0"/><circle cx="638" cy="171" r="0"/><circle cx="641" cy="171" r="0"/><circle cx="644" cy="171" r="0"/><circle cx="648" cy="153" r="0"/><circle cx="651" cy="171" r="0"/><circle cx="654" cy="171" r="0"/><circle cx="658" cy="171" r="0"/><circle cx="661" cy="171" r="0"/><circle cx="664" cy="171" r="0"/><circle cx="668" cy="171" r="0"/><circle cx="671" cy="171" r="0"/><circle cx="674" cy="159" r="0"/><circle cx="678" cy="171" r="0"/><circle cx="681" cy="171" r="0"/><circle cx="684" cy="154" r="0"/><circle cx="688" cy="171" r="0"/><circle cx="691" cy="171" r="0"/><circle cx="694" cy="159" r="0"/></g>
<g stroke="rgb(0,128,0)" fill="rgb(0,128,0)"><circle cx="36" cy="181" r="0"/><circle cx="39.3" cy="221" r="0"/><circle cx="42.7" cy="171" r="0"/><circle cx="46" cy="171" r="0"/><circle cx="49.3" cy="171" r="0"/><circle cx="52.6" cy="289" r="0"/><circle cx="56" cy="171" r="0"/><circle cx="59.3" cy="171" r="0"/><circle cx="62.6" cy="241" r="0"/><circle cx="65.9" cy="171" r="0"/><circle cx="69.3" cy="171" r="0"/><circle cx="72.6" cy="171" r="0"/><circle cx="75.9" cy="264" r="0"/><circle cx="79.2" cy="180" r="0"/><circle cx="82.6" cy="171" r="0"/><circle cx="85.9" cy="171" r="0"/><circle cx="89.2" cy="186" r="0"/><circle cx="92.5" cy="186" r="0"/><circle cx="95.9" cy="171" r="0"/><circle cx="99.2" cy="171" r="0"/><circle cx="103" cy="185" r="0"/><circle cx="106" cy="171" r="0"/><circle cx="109" cy="171" r="0"/><circle cx="112" cy="171" r="0"/><circle cx="116" cy="330" r="0"/><circle cx="119" cy="171" r="0"/><circle cx="122" cy="171" r="0"/><circle cx="126" cy="171" r="0"/><circle cx="129" cy="180" r="0"/><circle cx="132" cy="171" r="0"/><circle cx="136" cy="171" r="0"/><circle cx="139" cy="171" r="0"/><circle cx="142" cy="186" r="0"/><circle cx="146" cy="171" r="0"/><circle cx="149" cy="171" r="0"/><circle cx="152" cy="171" r="0"/><circle cx="156" cy="171" r="0"/><circle cx="159" cy="184" r="0"/><circle cx="162" cy="171" r="0"/><circle cx="166" cy="171" r="0"/><circle cx="169" cy="171" r="0"/><circle cx="172" cy="186" r="0"/><circle cx="176" cy="171" r="0"/><circle cx="179" cy="171" r="0"/><circle cx="182" cy="171" r="0"/><circle cx="186" cy="171" r="0"/><circle cx="189" cy="182" r="0"/><circle cx="192" cy="171" r="0"/><circle cx="196" cy="171" r="0"/><circle cx="199" cy="171" r="0"/><circle cx="202" cy="171" r="0"/><circle cx="206" cy="180" r="0"/><circle cx="209" cy="171" r="0"/><circle cx="212" cy="171" r="0"/><circle cx="216" cy="171" r="0"/><circle cx="219" cy="180" r="0"/><circle cx="222" cy="185" r="0"/><circle cx="225" cy="171" r="0"/><circle cx="229" cy="171" r="0"/><circle cx="232" cy="171" r="0"/><circle cx="235" cy="171" r="0"/><circle cx="239" cy="171" r="0"/><circle cx="242" cy="171" r="0"/><circle cx="245" cy="171" r="0"/><circle cx="249" cy="171" r="0"/><circle cx="252" cy="171" r="0"/><circle cx="255" cy="171" r="0"/><circle cx="259" cy="183" r="0"/><circle cx="262" cy="182" r="0"/><circle cx="265" cy="185" r="0"/><circle cx="269" cy="171" r="0"/><circle cx="272" cy="171" r="0"/><circle cx="275" cy="171" r="0"/><circle cx="279" cy="171" r="0"/><circle cx="282" cy="180" r="0"/><circle cx="285" cy="171" r="0"/><circle cx="289" cy="171" r="0"/><circle cx="292" cy="171" r="0"/><circle cx="295" cy="171" r="0"/><circle cx="299" cy="171" r="0"/><circle cx="302" cy="171" r="0"/><circle cx="305" cy="171" r="0"/><circle cx="309" cy="171" r="0"/><circle cx="312" cy="171" r="0"/><circle cx="315" cy="171" r="0"/><circle cx="319" cy="171" r="0"/><circle cx="322" cy="171" r="0"/><circle cx="325" cy="171" r="0"/><circle cx="329" cy="171" r="0"/><circle cx="332" cy="171" r="0"/><circle cx="335" cy="171" r="0"/><circle cx="339" cy="171" r="0"/><circle cx="342" cy="171" r="0"/><circle cx="345" cy="171" r="0"/><circle cx="348" cy="171" r="0"/><circle cx="352" cy="171" r="0"/><circle cx="355" cy="171" r="0"/><circle cx="358" cy="171" r="0"/><circle cx="362" cy="171" r="0"/><circle cx="365" cy="171" r="0"/><circle cx="368" cy="171" r="0"/><circle cx="372" cy="171" r="0"/><circle cx="375" cy="171" r="0"/><circle cx="378" cy="171" r="0"/><circle cx="382" cy="171" r="0"/><circle cx="385" cy="171" r="0"/><circle cx="388" cy="171" r="0"/><circle cx="392" cy="171" r="0"/><circle cx="395" cy="171" r="0"/><circle cx="398" cy="171" r="0"/><circle cx="402" cy="186" r="0"/><circle cx="405" cy="171" r="0"/><circle cx="408" cy="171" r="0"/><circle cx="412" cy="181" r="0"/><circle cx="415" cy="184" r="0"/><circle cx="418" cy="171" r="0"/><circle cx="422" cy="171" r="0"/><circle cx="425" cy="171" r="0"/><circle cx="428" cy="171" r="0"/><circle cx="432" cy="171" r="0"/><circle cx="435" cy="171" r="0"/><circle cx="438" cy="171" r="0"/><circle cx="442" cy="180" r="0"/><circle cx="445" cy="171" r="0"/><circle cx="448" cy="171" r="0"/><circle cx="452" cy="171" r="0"/><circle cx="455" cy="171" r="0"/><circle cx="458" cy="171" r="0"/><circle cx="461" cy="171" r="0"/><circle cx="465" cy="171" r="0"/><circle cx="468" cy="171" r="0"/><circle cx="471" cy="171" r="0"/><circle cx="475" cy="184" r="0"/><circle cx="478" cy="171" r="0"/><circle cx="481" cy="183" r="0"/><circle cx="485" cy="181" r="0"/><circle cx="488" cy="171" r="0"/><circle cx="491" cy="171" r="0"/><circle cx="495" cy="171" r="0"/><circle cx="498" cy="184" r="0"/><circle cx="501" cy="171" r="0"/><circle cx="505" cy="171" r="0"/><circle cx="508" cy="171" r="0"/><circle cx="511" cy="171" r="0"/><circle cx="515" cy="171" r="0"/><circle cx="518" cy="184" r="0"/><circle cx="521" cy="171" r="0"/><circle cx="525" cy="171" r="0"/><circle cx="528" cy="179" r="0"/><circle cx="531" cy="186" r="0"/><circle cx="535" cy="171" r="0"/><circle cx="538" cy="171" r="0"/><circle cx="541" cy="171" r="0"/><circle cx="545" cy="171" r="0"/><circle cx="548" cy="171" r="0"/><circle cx="551" cy="171" r="0"/><circle cx="555" cy="171" r="0"/><circle cx="558" cy="171" r="0"/><circle cx="561" cy="171" r="0"/><circle cx="565" cy="171" r="0"/><circle cx="568" cy="171" r="0"/><circle cx="571" cy="171" r="0"/><circle cx="575" cy="171" r="0"/><circle cx="578" cy="171" r="0"/><circle cx="581" cy="171" r="0"/><circle cx="584" cy="179" r="0"/><circle cx="588" cy="171" r="0"/><circle cx="591" cy="171" r="0"/><circle cx="594" cy="171" r="0"/><circle cx="598" cy="171" r="0"/><circle cx="601" cy="171" r="0"/><circle cx="604" cy="171" r="0"/><circle cx="608" cy="171" r="0"/><circle cx="611" cy="171" r="0"/><circle cx="614" cy="183" r="0"/><circle cx="618" cy="188" r="0"/><circle cx="621" cy="187" r="0"/><circle cx="624" cy="171" r="0"/><circle cx="628" cy="171" r="0"/><circle cx="631" cy="171" r="0"/><circle cx="634" cy="181" r="0"/><circle cx="638" cy="171" r="0"/><circle cx="641" cy="180" r="0"/><circle cx="644" cy="171" r="0"/><circle cx="648" cy="171" r="0"/><circle cx="651" cy="171" r="0"/><circle cx="654" cy="171" r="0"/><circle cx="658" cy="186" r="0"/><circle cx="661" cy="183" r="0"/><circle cx="664" cy="171" r="0"/><circle cx="668" cy="171" r="0"/><circle cx="671" cy="183" r="0"/><circle cx="674" cy="185" r="0"/><circle cx="678" cy="171" r="0"/><circle cx="681" cy="171" r="0"/><circle cx="684" cy="171" r="0"/><circle cx="688" cy="171" r="0"/><circle cx="691" cy="171" r="0"/><circle cx="694" cy="171" r="0"/></g>
</g>
<g id="title">
<text x="350" y="36" text-anchor="middle" font-size="18" font-family="Lucida Sans Unicode">Errors in Ai Prime, double</text></g>
<g id="plotXValues"></g>
<g id="plotYValues"></g>
</svg>
