<?xml version="1.0" encoding="UTF-8" standalone="no"?>
<svg width="700" height ="400" version="1.1"
xmlns:svg ="http://www.w3.org/2000/svg"
xmlns:rdf="http://www.w3.org/1999/02/22-rdf-syntax-ns#"
xmlns:cc="http://web.resource.org/cc/"
xmlns:dc="http://purl.org/dc/elements/1.1/"
xmlns ="http://www.w3.org/2000/svg"
>
<!-- SVG plot written using Boost.Plot program (Creator Jacob Voytko) --> 
<!-- Use, modification and distribution of Boost.Plot subject to the --> 
<!-- Boost Software License, Version 1.0.--> 
<!-- (See accompanying file LICENSE_1_0.txt --> 
<!-- or copy at http://www.boost.org/LICENSE_1_0.txt) --> 

<clipPath id="plot_window"><rect x="25.3" y="48.5" width="671" height="297"/></clipPath>
<g id="imageBackground" stroke="rgb(211,211,211)" fill="rgb(255,255,255)" stroke-width="2"><rect x="0" y="0" width="700" height="400"/></g>
<g id="plotBackground" stroke="rgb(211,211,211)" fill="rgb(255,255,255)" stroke-width="2"><rect x="24.3" y="47.5" width="673" height="299"/></g>
<g id="yMinorGrid" stroke="rgb(200,220,255)" stroke-width="0.5"></g>
<g id="yMajorGrid" stroke="rgb(200,220,255)" stroke-width="1"></g>
<g id="xMinorGrid" stroke="rgb(200,220,255)" stroke-width="0.5"></g>
<g id="xMajorGrid" stroke="rgb(200,220,255)" stroke-width="1"></g>
<g id="yAxis" stroke="rgb(0,0,0)" stroke-width="1"><line x1="361" y1="47.5" x2="361" y2="352"/><line x1="24.3" y1="47.5" x2="24.3" y2="346"/></g>
<g id="xAxis" stroke="rgb(0,0,0)" stroke-width="1"><line x1="19.3" y1="254" x2="698" y2="254"/><line x1="19.3" y1="346" x2="698" y2="346"/></g>
<g id="yMinorTicks" stroke="rgb(0,0,0)" stroke-width="1"><path d="M22.3,250 L24.3,250 M22.3,245 L24.3,245 M22.3,241 L24.3,241 M22.3,237 L24.3,237 M22.3,229 L24.3,229 M22.3,225 L24.3,225 M22.3,221 L24.3,221 M22.3,217 L24.3,217 M22.3,208 L24.3,208 M22.3,204 L24.3,204 M22.3,200 L24.3,200 M22.3,196 L24.3,196 M22.3,188 L24.3,188 M22.3,184 L24.3,184 M22.3,179 L24.3,179 M22.3,175 L24.3,175 M22.3,167 L24.3,167 M22.3,163 L24.3,163 M22.3,159 L24.3,159 M22.3,155 L24.3,155 M22.3,146 L24.3,146 M22.3,142 L24.3,142 M22.3,138 L24.3,138 M22.3,134 L24.3,134 M22.3,126 L24.3,126 M22.3,122 L24.3,122 M22.3,118 L24.3,118 M22.3,113 L24.3,113 M22.3,105 L24.3,105 M22.3,101 L24.3,101 M22.3,97 L24.3,97 M22.3,92.9 L24.3,92.9 M22.3,84.6 L24.3,84.6 M22.3,80.5 L24.3,80.5 M22.3,76.4 L24.3,76.4 M22.3,72.2 L24.3,72.2 M22.3,64 L24.3,64 M22.3,59.9 L24.3,59.9 M22.3,55.7 L24.3,55.7 M22.3,51.6 L24.3,51.6 M22.3,254 L24.3,254 M22.3,258 L24.3,258 M22.3,262 L24.3,262 M22.3,266 L24.3,266 M22.3,270 L24.3,270 M22.3,274 L24.3,274 M22.3,278 L24.3,278 M22.3,283 L24.3,283 M22.3,287 L24.3,287 M22.3,291 L24.3,291 M22.3,295 L24.3,295 M22.3,295 L24.3,295 M22.3,299 L24.3,299 M22.3,303 L24.3,303 M22.3,307 L24.3,307 M22.3,311 L24.3,311 M22.3,316 L24.3,316 M22.3,320 L24.3,320 M22.3,324 L24.3,324 M22.3,328 L24.3,328 M22.3,332 L24.3,332 M22.3,336 L24.3,336 M22.3,340 L24.3,340 M22.3,344 L24.3,344 " fill="none"/></g>
<g id="xMinorTicks" stroke="rgb(0,0,0)" stroke-width="1"><path d="M395,346 L395,348 M428,346 L428,348 M462,346 L462,348 M496,346 L496,348 M563,346 L563,348 M597,346 L597,348 M630,346 L630,348 M664,346 L664,348 M327,346 L327,348 M294,346 L294,348 M260,346 L260,348 M226,346 L226,348 M159,346 L159,348 M125,346 L125,348 M91.6,346 L91.6,348 M58,346 L58,348 " fill="none"/></g>
<g id="yMajorTicks" stroke="rgb(0,0,0)" stroke-width="2"><path d="M19.3,254 L24.3,254 M19.3,233 L24.3,233 M19.3,212 L24.3,212 M19.3,192 L24.3,192 M19.3,171 L24.3,171 M19.3,151 L24.3,151 M19.3,130 L24.3,130 M19.3,109 L24.3,109 M19.3,88.7 L24.3,88.7 M19.3,68.1 L24.3,68.1 M19.3,47.5 L24.3,47.5 M19.3,254 L24.3,254 M19.3,274 L24.3,274 M19.3,295 L24.3,295 M19.3,316 L24.3,316 M19.3,336 L24.3,336 " fill="none"/></g>
<g id="xMajorTicks" stroke="rgb(0,0,0)" stroke-width="2"><path d="M361,346 L361,352 M529,346 L529,352 M698,346 L698,352 M361,346 L361,352 M193,346 L193,352 M24.3,346 L24.3,352 " fill="none"/></g>
<g id="xTicksValues">
<text x="361" y="367" text-anchor="middle" font-size="12" font-family="Lucida Sans Unicode">0</text>
<text x="529" y="367" text-anchor="middle" font-size="12" font-family="Lucida Sans Unicode">10</text>
<text x="698" y="367" text-anchor="middle" font-size="12" font-family="Lucida Sans Unicode">20</text>
<text x="361" y="367" text-anchor="middle" font-size="12" font-family="Lucida Sans Unicode">0</text>
<text x="193" y="367" text-anchor="middle" font-size="12" font-family="Lucida Sans Unicode">-10</text>
<text x="24.3" y="367" text-anchor="middle" font-size="12" font-family="Lucida Sans Unicode">-20</text></g>
<g id="yTicksValues">
<text x="13.3" y="256" text-anchor="end" font-size="12" font-family="Lucida Sans Unicode">0</text>
<text x="13.3" y="235" text-anchor="end" font-size="12" font-family="Lucida Sans Unicode">2</text>
<text x="13.3" y="215" text-anchor="end" font-size="12" font-family="Lucida Sans Unicode">4</text>
<text x="13.3" y="194" text-anchor="end" font-size="12" font-family="Lucida Sans Unicode">6</text>
<text x="13.3" y="174" text-anchor="end" font-size="12" font-family="Lucida Sans Unicode">8</text>
<text x="13.3" y="153" text-anchor="end" font-size="12" font-family="Lucida Sans Unicode">10</text>
<text x="13.3" y="132" text-anchor="end" font-size="12" font-family="Lucida Sans Unicode">12</text>
<text x="13.3" y="112" text-anchor="end" font-size="12" font-family="Lucida Sans Unicode">14</text>
<text x="13.3" y="91.1" text-anchor="end" font-size="12" font-family="Lucida Sans Unicode">16</text>
<text x="13.3" y="70.5" text-anchor="end" font-size="12" font-family="Lucida Sans Unicode">18</text>
<text x="13.3" y="49.9" text-anchor="end" font-size="12" font-family="Lucida Sans Unicode">20</text>
<text x="13.3" y="256" text-anchor="end" font-size="12" font-family="Lucida Sans Unicode">0</text>
<text x="13.3" y="277" text-anchor="end" font-size="12" font-family="Lucida Sans Unicode">-2</text>
<text x="13.3" y="297" text-anchor="end" font-size="12" font-family="Lucida Sans Unicode">-4</text>
<text x="13.3" y="318" text-anchor="end" font-size="12" font-family="Lucida Sans Unicode">-6</text>
<text x="13.3" y="339" text-anchor="end" font-size="12" font-family="Lucida Sans Unicode">-8</text></g>
<g id="yLabel">
<text x="-8.6" y="197" text-anchor="middle" transform = "rotate(-90 -8.6 197 )" font-size="14" font-family="Lucida Sans Unicode"></text></g>
<g id="xLabel">
<text x="361" y="382" text-anchor="middle" font-size="14" font-family="Lucida Sans Unicode">x</text></g>
<g id="plotLines" stroke-width="2"><g clip-path="url(#plot_window)" stroke="rgb(0,0,0)" fill="rgb(0,128,0)" stroke-width="2"><path d="M24.3,254 L24.3,254 L24.3,254 L27.7,254 L31,50 L34.4,248 L37.8,254 L41.1,254 L44.5,220 L47.9,254 L51.2,254 L54.6,238 L58,254 L61.3,254 L64.7,254 L68.1,231 L71.4,254 L74.8,254 L78.2,248 L81.5,243 L84.9,254 L88.3,254 L91.6,254 L95,244 L98.4,254 L102,254 L105,247 L108,254 L112,254 L115,254 L119,244 L122,246 L125,254 L129,254 L132,254 L135,234 L139,254 L142,254 L145,254 L149,254 L152,254 L156,254 L159,254 L162,254 L166,254 L169,254 L172,254 L176,254 L179,254 L183,248 L186,254 L189,254 L193,254 L196,254 L199,248 L203,254 L206,254 L209,254 L213,254 L216,254 L220,245 L223,254 L226,254 L230,254 L233,254 L236,254 L240,254 L243,254 L246,254 L250,254 L253,244 L257,254 L260,254 L263,254 L267,254 L270,254 L273,254 L277,244 L280,254 L283,247 L287,254 L290,254 L294,254 L297,254 L300,254 L304,254 L307,254 L310,254 L314,254 L317,254 L321,248 L324,254 L327,254 L331,254 L334,246 L337,254 L341,246 L344,248 L347,254 L351,254 L354,254 L358,254 L361,254 L364,254 L368,254 L371,254 L374,254 L378,254 L381,254 L384,254 L388,254 L391,254 L395,254 L398,254 L401,254 L405,254 L408,254 L411,254 L415,254 L418,254 L421,254 L425,254 L428,254 L432,254 L435,254 L438,254 L442,254 L445,254 L448,254 L452,254 L455,254 L459,254 L462,254 L465,254 L469,254 L472,254 L475,254 L479,254 L482,254 L485,254 L489,254 L492,254 L496,248 L499,254 L502,254 L506,254 L509,254 L512,254 L516,254 L519,254 L522,254 L526,254 L529,254 L533,254 L536,247 L539,254 L543,254 L546,254 L549,254 L553,254 L556,254 L559,254 L563,254 L566,248 L570,254 L573,254 L576,254 L580,254 L583,245 L586,254 L590,248 L593,248 L597,254 L600,247 L603,254 L607,248 L610,254 L613,254 L617,254 L620,247 L623,254 L627,248 L630,254 L634,247 L637,254 L640,247 L644,254 L647,254 L650,247 L654,254 L657,254 L660,254 L664,254 L667,254 L671,254 L674,254 L677,247 L681,254 L684,254 L687,254 L691,254 L694,244 L694,254 Z" fill="rgb(0,128,0)"/></g>
<g clip-path="url(#plot_window)" stroke="rgb(0,0,0)" fill="rgb(0,128,0)" stroke-width="2"><path d="M24.3,254 L24.3,254 L24.3,254 L27.7,262 L31,254 L34.4,261 L37.8,254 L41.1,254 L44.5,262 L47.9,254 L51.2,254 L54.6,261 L58,254 L61.3,254 L64.7,254 L68.1,261 L71.4,254 L74.8,264 L78.2,254 L81.5,274 L84.9,254 L88.3,254 L91.6,254 L95,299 L98.4,262 L102,254 L105,254 L108,260 L112,254 L115,254 L119,254 L122,278 L125,254 L129,254 L132,254 L135,260 L139,254 L142,254 L145,254 L149,261 L152,262 L156,254 L159,254 L162,254 L166,254 L169,254 L172,254 L176,254 L179,254 L183,273 L186,254 L189,254 L193,254 L196,261 L199,261 L203,254 L206,254 L209,254 L213,254 L216,343 L220,254 L223,254 L226,254 L230,260 L233,261 L236,263 L240,254 L243,254 L246,254 L250,254 L253,254 L257,254 L260,254 L263,254 L267,254 L270,261 L273,254 L277,254 L280,254 L283,254 L287,254 L290,254 L294,254 L297,263 L300,254 L304,262 L307,263 L310,254 L314,254 L317,254 L321,254 L324,254 L327,254 L331,254 L334,254 L337,254 L341,254 L344,254 L347,254 L351,254 L354,254 L358,254 L361,254 L364,254 L368,254 L371,254 L374,254 L378,254 L381,254 L384,254 L388,254 L391,254 L395,254 L398,254 L401,254 L405,254 L408,254 L411,254 L415,254 L418,263 L421,254 L425,254 L428,254 L432,254 L435,254 L438,261 L442,254 L445,254 L448,254 L452,254 L455,254 L459,254 L462,254 L465,254 L469,254 L472,254 L475,254 L479,260 L482,254 L485,254 L489,254 L492,254 L496,254 L499,261 L502,254 L506,254 L509,254 L512,254 L516,254 L519,254 L522,254 L526,254 L529,254 L533,254 L536,254 L539,254 L543,254 L546,254 L549,254 L553,254 L556,254 L559,254 L563,254 L566,254 L570,260 L573,254 L576,254 L580,254 L583,254 L586,254 L590,260 L593,254 L597,259 L600,254 L603,254 L607,254 L610,254 L613,254 L617,262 L620,254 L623,254 L627,254 L630,254 L634,254 L637,254 L640,254 L644,254 L647,254 L650,260 L654,254 L657,254 L660,262 L664,259 L667,254 L671,254 L674,259 L677,254 L681,254 L684,254 L687,254 L691,254 L694,254 L694,254 Z" fill="rgb(0,128,0)"/></g>
</g>
<g id="plotPoints" clip-path="url(#plot_window)"><g stroke="rgb(0,128,0)" fill="rgb(0,128,0)"><circle cx="24.3" cy="254" r="0"/><circle cx="27.7" cy="254" r="0"/><circle cx="31" cy="50" r="0"/><circle cx="34.4" cy="248" r="0"/><circle cx="37.8" cy="254" r="0"/><circle cx="41.1" cy="254" r="0"/><circle cx="44.5" cy="220" r="0"/><circle cx="47.9" cy="254" r="0"/><circle cx="51.2" cy="254" r="0"/><circle cx="54.6" cy="238" r="0"/><circle cx="58" cy="254" r="0"/><circle cx="61.3" cy="254" r="0"/><circle cx="64.7" cy="254" r="0"/><circle cx="68.1" cy="231" r="0"/><circle cx="71.4" cy="254" r="0"/><circle cx="74.8" cy="254" r="0"/><circle cx="78.2" cy="248" r="0"/><circle cx="81.5" cy="243" r="0"/><circle cx="84.9" cy="254" r="0"/><circle cx="88.3" cy="254" r="0"/><circle cx="91.6" cy="254" r="0"/><circle cx="95" cy="244" r="0"/><circle cx="98.4" cy="254" r="0"/><circle cx="102" cy="254" r="0"/><circle cx="105" cy="247" r="0"/><circle cx="108" cy="254" r="0"/><circle cx="112" cy="254" r="0"/><circle cx="115" cy="254" r="0"/><circle cx="119" cy="244" r="0"/><circle cx="122" cy="246" r="0"/><circle cx="125" cy="254" r="0"/><circle cx="129" cy="254" r="0"/><circle cx="132" cy="254" r="0"/><circle cx="135" cy="234" r="0"/><circle cx="139" cy="254" r="0"/><circle cx="142" cy="254" r="0"/><circle cx="145" cy="254" r="0"/><circle cx="149" cy="254" r="0"/><circle cx="152" cy="254" r="0"/><circle cx="156" cy="254" r="0"/><circle cx="159" cy="254" r="0"/><circle cx="162" cy="254" r="0"/><circle cx="166" cy="254" r="0"/><circle cx="169" cy="254" r="0"/><circle cx="172" cy="254" r="0"/><circle cx="176" cy="254" r="0"/><circle cx="179" cy="254" r="0"/><circle cx="183" cy="248" r="0"/><circle cx="186" cy="254" r="0"/><circle cx="189" cy="254" r="0"/><circle cx="193" cy="254" r="0"/><circle cx="196" cy="254" r="0"/><circle cx="199" cy="248" r="0"/><circle cx="203" cy="254" r="0"/><circle cx="206" cy="254" r="0"/><circle cx="209" cy="254" r="0"/><circle cx="213" cy="254" r="0"/><circle cx="216" cy="254" r="0"/><circle cx="220" cy="245" r="0"/><circle cx="223" cy="254" r="0"/><circle cx="226" cy="254" r="0"/><circle cx="230" cy="254" r="0"/><circle cx="233" cy="254" r="0"/><circle cx="236" cy="254" r="0"/><circle cx="240" cy="254" r="0"/><circle cx="243" cy="254" r="0"/><circle cx="246" cy="254" r="0"/><circle cx="250" cy="254" r="0"/><circle cx="253" cy="244" r="0"/><circle cx="257" cy="254" r="0"/><circle cx="260" cy="254" r="0"/><circle cx="263" cy="254" r="0"/><circle cx="267" cy="254" r="0"/><circle cx="270" cy="254" r="0"/><circle cx="273" cy="254" r="0"/><circle cx="277" cy="244" r="0"/><circle cx="280" cy="254" r="0"/><circle cx="283" cy="247" r="0"/><circle cx="287" cy="254" r="0"/><circle cx="290" cy="254" r="0"/><circle cx="294" cy="254" r="0"/><circle cx="297" cy="254" r="0"/><circle cx="300" cy="254" r="0"/><circle cx="304" cy="254" r="0"/><circle cx="307" cy="254" r="0"/><circle cx="310" cy="254" r="0"/><circle cx="314" cy="254" r="0"/><circle cx="317" cy="254" r="0"/><circle cx="321" cy="248" r="0"/><circle cx="324" cy="254" r="0"/><circle cx="327" cy="254" r="0"/><circle cx="331" cy="254" r="0"/><circle cx="334" cy="246" r="0"/><circle cx="337" cy="254" r="0"/><circle cx="341" cy="246" r="0"/><circle cx="344" cy="248" r="0"/><circle cx="347" cy="254" r="0"/><circle cx="351" cy="254" r="0"/><circle cx="354" cy="254" r="0"/><circle cx="358" cy="254" r="0"/><circle cx="361" cy="254" r="0"/><circle cx="364" cy="254" r="0"/><circle cx="368" cy="254" r="0"/><circle cx="371" cy="254" r="0"/><circle cx="374" cy="254" r="0"/><circle cx="378" cy="254" r="0"/><circle cx="381" cy="254" r="0"/><circle cx="384" cy="254" r="0"/><circle cx="388" cy="254" r="0"/><circle cx="391" cy="254" r="0"/><circle cx="395" cy="254" r="0"/><circle cx="398" cy="254" r="0"/><circle cx="401" cy="254" r="0"/><circle cx="405" cy="254" r="0"/><circle cx="408" cy="254" r="0"/><circle cx="411" cy="254" r="0"/><circle cx="415" cy="254" r="0"/><circle cx="418" cy="254" r="0"/><circle cx="421" cy="254" r="0"/><circle cx="425" cy="254" r="0"/><circle cx="428" cy="254" r="0"/><circle cx="432" cy="254" r="0"/><circle cx="435" cy="254" r="0"/><circle cx="438" cy="254" r="0"/><circle cx="442" cy="254" r="0"/><circle cx="445" cy="254" r="0"/><circle cx="448" cy="254" r="0"/><circle cx="452" cy="254" r="0"/><circle cx="455" cy="254" r="0"/><circle cx="459" cy="254" r="0"/><circle cx="462" cy="254" r="0"/><circle cx="465" cy="254" r="0"/><circle cx="469" cy="254" r="0"/><circle cx="472" cy="254" r="0"/><circle cx="475" cy="254" r="0"/><circle cx="479" cy="254" r="0"/><circle cx="482" cy="254" r="0"/><circle cx="485" cy="254" r="0"/><circle cx="489" cy="254" r="0"/><circle cx="492" cy="254" r="0"/><circle cx="496" cy="248" r="0"/><circle cx="499" cy="254" r="0"/><circle cx="502" cy="254" r="0"/><circle cx="506" cy="254" r="0"/><circle cx="509" cy="254" r="0"/><circle cx="512" cy="254" r="0"/><circle cx="516" cy="254" r="0"/><circle cx="519" cy="254" r="0"/><circle cx="522" cy="254" r="0"/><circle cx="526" cy="254" r="0"/><circle cx="529" cy="254" r="0"/><circle cx="533" cy="254" r="0"/><circle cx="536" cy="247" r="0"/><circle cx="539" cy="254" r="0"/><circle cx="543" cy="254" r="0"/><circle cx="546" cy="254" r="0"/><circle cx="549" cy="254" r="0"/><circle cx="553" cy="254" r="0"/><circle cx="556" cy="254" r="0"/><circle cx="559" cy="254" r="0"/><circle cx="563" cy="254" r="0"/><circle cx="566" cy="248" r="0"/><circle cx="570" cy="254" r="0"/><circle cx="573" cy="254" r="0"/><circle cx="576" cy="254" r="0"/><circle cx="580" cy="254" r="0"/><circle cx="583" cy="245" r="0"/><circle cx="586" cy="254" r="0"/><circle cx="590" cy="248" r="0"/><circle cx="593" cy="248" r="0"/><circle cx="597" cy="254" r="0"/><circle cx="600" cy="247" r="0"/><circle cx="603" cy="254" r="0"/><circle cx="607" cy="248" r="0"/><circle cx="610" cy="254" r="0"/><circle cx="613" cy="254" r="0"/><circle cx="617" cy="254" r="0"/><circle cx="620" cy="247" r="0"/><circle cx="623" cy="254" r="0"/><circle cx="627" cy="248" r="0"/><circle cx="630" cy="254" r="0"/><circle cx="634" cy="247" r="0"/><circle cx="637" cy="254" r="0"/><circle cx="640" cy="247" r="0"/><circle cx="644" cy="254" r="0"/><circle cx="647" cy="254" r="0"/><circle cx="650" cy="247" r="0"/><circle cx="654" cy="254" r="0"/><circle cx="657" cy="254" r="0"/><circle cx="660" cy="254" r="0"/><circle cx="664" cy="254" r="0"/><circle cx="667" cy="254" r="0"/><circle cx="671" cy="254" r="0"/><circle cx="674" cy="254" r="0"/><circle cx="677" cy="247" r="0"/><circle cx="681" cy="254" r="0"/><circle cx="684" cy="254" r="0"/><circle cx="687" cy="254" r="0"/><circle cx="691" cy="254" r="0"/><circle cx="694" cy="244" r="0"/></g>
<g stroke="rgb(0,128,0)" fill="rgb(0,128,0)"><circle cx="24.3" cy="254" r="0"/><circle cx="27.7" cy="262" r="0"/><circle cx="31" cy="254" r="0"/><circle cx="34.4" cy="261" r="0"/><circle cx="37.8" cy="254" r="0"/><circle cx="41.1" cy="254" r="0"/><circle cx="44.5" cy="262" r="0"/><circle cx="47.9" cy="254" r="0"/><circle cx="51.2" cy="254" r="0"/><circle cx="54.6" cy="261" r="0"/><circle cx="58" cy="254" r="0"/><circle cx="61.3" cy="254" r="0"/><circle cx="64.7" cy="254" r="0"/><circle cx="68.1" cy="261" r="0"/><circle cx="71.4" cy="254" r="0"/><circle cx="74.8" cy="264" r="0"/><circle cx="78.2" cy="254" r="0"/><circle cx="81.5" cy="274" r="0"/><circle cx="84.9" cy="254" r="0"/><circle cx="88.3" cy="254" r="0"/><circle cx="91.6" cy="254" r="0"/><circle cx="95" cy="299" r="0"/><circle cx="98.4" cy="262" r="0"/><circle cx="102" cy="254" r="0"/><circle cx="105" cy="254" r="0"/><circle cx="108" cy="260" r="0"/><circle cx="112" cy="254" r="0"/><circle cx="115" cy="254" r="0"/><circle cx="119" cy="254" r="0"/><circle cx="122" cy="278" r="0"/><circle cx="125" cy="254" r="0"/><circle cx="129" cy="254" r="0"/><circle cx="132" cy="254" r="0"/><circle cx="135" cy="260" r="0"/><circle cx="139" cy="254" r="0"/><circle cx="142" cy="254" r="0"/><circle cx="145" cy="254" r="0"/><circle cx="149" cy="261" r="0"/><circle cx="152" cy="262" r="0"/><circle cx="156" cy="254" r="0"/><circle cx="159" cy="254" r="0"/><circle cx="162" cy="254" r="0"/><circle cx="166" cy="254" r="0"/><circle cx="169" cy="254" r="0"/><circle cx="172" cy="254" r="0"/><circle cx="176" cy="254" r="0"/><circle cx="179" cy="254" r="0"/><circle cx="183" cy="273" r="0"/><circle cx="186" cy="254" r="0"/><circle cx="189" cy="254" r="0"/><circle cx="193" cy="254" r="0"/><circle cx="196" cy="261" r="0"/><circle cx="199" cy="261" r="0"/><circle cx="203" cy="254" r="0"/><circle cx="206" cy="254" r="0"/><circle cx="209" cy="254" r="0"/><circle cx="213" cy="254" r="0"/><circle cx="216" cy="343" r="0"/><circle cx="220" cy="254" r="0"/><circle cx="223" cy="254" r="0"/><circle cx="226" cy="254" r="0"/><circle cx="230" cy="260" r="0"/><circle cx="233" cy="261" r="0"/><circle cx="236" cy="263" r="0"/><circle cx="240" cy="254" r="0"/><circle cx="243" cy="254" r="0"/><circle cx="246" cy="254" r="0"/><circle cx="250" cy="254" r="0"/><circle cx="253" cy="254" r="0"/><circle cx="257" cy="254" r="0"/><circle cx="260" cy="254" r="0"/><circle cx="263" cy="254" r="0"/><circle cx="267" cy="254" r="0"/><circle cx="270" cy="261" r="0"/><circle cx="273" cy="254" r="0"/><circle cx="277" cy="254" r="0"/><circle cx="280" cy="254" r="0"/><circle cx="283" cy="254" r="0"/><circle cx="287" cy="254" r="0"/><circle cx="290" cy="254" r="0"/><circle cx="294" cy="254" r="0"/><circle cx="297" cy="263" r="0"/><circle cx="300" cy="254" r="0"/><circle cx="304" cy="262" r="0"/><circle cx="307" cy="263" r="0"/><circle cx="310" cy="254" r="0"/><circle cx="314" cy="254" r="0"/><circle cx="317" cy="254" r="0"/><circle cx="321" cy="254" r="0"/><circle cx="324" cy="254" r="0"/><circle cx="327" cy="254" r="0"/><circle cx="331" cy="254" r="0"/><circle cx="334" cy="254" r="0"/><circle cx="337" cy="254" r="0"/><circle cx="341" cy="254" r="0"/><circle cx="344" cy="254" r="0"/><circle cx="347" cy="254" r="0"/><circle cx="351" cy="254" r="0"/><circle cx="354" cy="254" r="0"/><circle cx="358" cy="254" r="0"/><circle cx="361" cy="254" r="0"/><circle cx="364" cy="254" r="0"/><circle cx="368" cy="254" r="0"/><circle cx="371" cy="254" r="0"/><circle cx="374" cy="254" r="0"/><circle cx="378" cy="254" r="0"/><circle cx="381" cy="254" r="0"/><circle cx="384" cy="254" r="0"/><circle cx="388" cy="254" r="0"/><circle cx="391" cy="254" r="0"/><circle cx="395" cy="254" r="0"/><circle cx="398" cy="254" r="0"/><circle cx="401" cy="254" r="0"/><circle cx="405" cy="254" r="0"/><circle cx="408" cy="254" r="0"/><circle cx="411" cy="254" r="0"/><circle cx="415" cy="254" r="0"/><circle cx="418" cy="263" r="0"/><circle cx="421" cy="254" r="0"/><circle cx="425" cy="254" r="0"/><circle cx="428" cy="254" r="0"/><circle cx="432" cy="254" r="0"/><circle cx="435" cy="254" r="0"/><circle cx="438" cy="261" r="0"/><circle cx="442" cy="254" r="0"/><circle cx="445" cy="254" r="0"/><circle cx="448" cy="254" r="0"/><circle cx="452" cy="254" r="0"/><circle cx="455" cy="254" r="0"/><circle cx="459" cy="254" r="0"/><circle cx="462" cy="254" r="0"/><circle cx="465" cy="254" r="0"/><circle cx="469" cy="254" r="0"/><circle cx="472" cy="254" r="0"/><circle cx="475" cy="254" r="0"/><circle cx="479" cy="260" r="0"/><circle cx="482" cy="254" r="0"/><circle cx="485" cy="254" r="0"/><circle cx="489" cy="254" r="0"/><circle cx="492" cy="254" r="0"/><circle cx="496" cy="254" r="0"/><circle cx="499" cy="261" r="0"/><circle cx="502" cy="254" r="0"/><circle cx="506" cy="254" r="0"/><circle cx="509" cy="254" r="0"/><circle cx="512" cy="254" r="0"/><circle cx="516" cy="254" r="0"/><circle cx="519" cy="254" r="0"/><circle cx="522" cy="254" r="0"/><circle cx="526" cy="254" r="0"/><circle cx="529" cy="254" r="0"/><circle cx="533" cy="254" r="0"/><circle cx="536" cy="254" r="0"/><circle cx="539" cy="254" r="0"/><circle cx="543" cy="254" r="0"/><circle cx="546" cy="254" r="0"/><circle cx="549" cy="254" r="0"/><circle cx="553" cy="254" r="0"/><circle cx="556" cy="254" r="0"/><circle cx="559" cy="254" r="0"/><circle cx="563" cy="254" r="0"/><circle cx="566" cy="254" r="0"/><circle cx="570" cy="260" r="0"/><circle cx="573" cy="254" r="0"/><circle cx="576" cy="254" r="0"/><circle cx="580" cy="254" r="0"/><circle cx="583" cy="254" r="0"/><circle cx="586" cy="254" r="0"/><circle cx="590" cy="260" r="0"/><circle cx="593" cy="254" r="0"/><circle cx="597" cy="259" r="0"/><circle cx="600" cy="254" r="0"/><circle cx="603" cy="254" r="0"/><circle cx="607" cy="254" r="0"/><circle cx="610" cy="254" r="0"/><circle cx="613" cy="254" r="0"/><circle cx="617" cy="262" r="0"/><circle cx="620" cy="254" r="0"/><circle cx="623" cy="254" r="0"/><circle cx="627" cy="254" r="0"/><circle cx="630" cy="254" r="0"/><circle cx="634" cy="254" r="0"/><circle cx="637" cy="254" r="0"/><circle cx="640" cy="254" r="0"/><circle cx="644" cy="254" r="0"/><circle cx="647" cy="254" r="0"/><circle cx="650" cy="260" r="0"/><circle cx="654" cy="254" r="0"/><circle cx="657" cy="254" r="0"/><circle cx="660" cy="262" r="0"/><circle cx="664" cy="259" r="0"/><circle cx="667" cy="254" r="0"/><circle cx="671" cy="254" r="0"/><circle cx="674" cy="259" r="0"/><circle cx="677" cy="254" r="0"/><circle cx="681" cy="254" r="0"/><circle cx="684" cy="254" r="0"/><circle cx="687" cy="254" r="0"/><circle cx="691" cy="254" r="0"/><circle cx="694" cy="254" r="0"/></g>
</g>
<g id="title">
<text x="350" y="36" text-anchor="middle" font-size="18" font-family="Lucida Sans Unicode">Errors in Bi, double</text></g>
<g id="plotXValues"></g>
<g id="plotYValues"></g>
</svg>
