<?xml version="1.0" encoding="UTF-8" standalone="no"?>
<svg width="700" height ="400" version="1.1"
xmlns:svg ="http://www.w3.org/2000/svg"
xmlns:rdf="http://www.w3.org/1999/02/22-rdf-syntax-ns#"
xmlns:cc="http://web.resource.org/cc/"
xmlns:dc="http://purl.org/dc/elements/1.1/"
xmlns ="http://www.w3.org/2000/svg"
>
<!-- SVG plot written using Boost.Plot program (Creator Jacob Voytko) --> 
<!-- Use, modification and distribution of Boost.Plot subject to the --> 
<!-- Boost Software License, Version 1.0.--> 
<!-- (See accompanying file LICENSE_1_0.txt --> 
<!-- or copy at http://www.boost.org/LICENSE_1_0.txt) --> 

<clipPath id="plot_window"><rect x="33.7" y="48.5" width="663" height="297"/></clipPath>
<g id="imageBackground" stroke="rgb(211,211,211)" fill="rgb(255,255,255)" stroke-width="2"><rect x="0" y="0" width="700" height="400"/></g>
<g id="plotBackground" stroke="rgb(211,211,211)" fill="rgb(255,255,255)" stroke-width="2"><rect x="32.7" y="47.5" width="665" height="299"/></g>
<g id="yMinorGrid" stroke="rgb(200,220,255)" stroke-width="0.5"></g>
<g id="yMajorGrid" stroke="rgb(200,220,255)" stroke-width="1"></g>
<g id="xMinorGrid" stroke="rgb(200,220,255)" stroke-width="0.5"></g>
<g id="xMajorGrid" stroke="rgb(200,220,255)" stroke-width="1"></g>
<g id="yAxis" stroke="rgb(0,0,0)" stroke-width="1"><line x1="365" y1="47.5" x2="365" y2="352"/><line x1="32.7" y1="47.5" x2="32.7" y2="346"/></g>
<g id="xAxis" stroke="rgb(0,0,0)" stroke-width="1"><line x1="27.7" y1="107" x2="698" y2="107"/><line x1="27.7" y1="346" x2="698" y2="346"/></g>
<g id="yMinorTicks" stroke="rgb(0,0,0)" stroke-width="1"><path d="M30.7,101 L32.7,101 M30.7,95.3 L32.7,95.3 M30.7,89.4 L32.7,89.4 M30.7,83.4 L32.7,83.4 M30.7,71.4 L32.7,71.4 M30.7,65.4 L32.7,65.4 M30.7,59.5 L32.7,59.5 M30.7,53.5 L32.7,53.5 M30.7,107 L32.7,107 M30.7,113 L32.7,113 M30.7,119 L32.7,119 M30.7,125 L32.7,125 M30.7,131 L32.7,131 M30.7,137 L32.7,137 M30.7,143 L32.7,143 M30.7,149 L32.7,149 M30.7,155 L32.7,155 M30.7,161 L32.7,161 M30.7,167 L32.7,167 M30.7,167 L32.7,167 M30.7,173 L32.7,173 M30.7,179 L32.7,179 M30.7,185 L32.7,185 M30.7,191 L32.7,191 M30.7,197 L32.7,197 M30.7,203 L32.7,203 M30.7,209 L32.7,209 M30.7,215 L32.7,215 M30.7,221 L32.7,221 M30.7,227 L32.7,227 M30.7,233 L32.7,233 M30.7,239 L32.7,239 M30.7,245 L32.7,245 M30.7,251 L32.7,251 M30.7,257 L32.7,257 M30.7,263 L32.7,263 M30.7,269 L32.7,269 M30.7,275 L32.7,275 M30.7,281 L32.7,281 M30.7,287 L32.7,287 M30.7,293 L32.7,293 M30.7,299 L32.7,299 M30.7,305 L32.7,305 M30.7,311 L32.7,311 M30.7,317 L32.7,317 M30.7,323 L32.7,323 M30.7,329 L32.7,329 M30.7,335 L32.7,335 M30.7,341 L32.7,341 M30.7,346 L32.7,346 " fill="none"/></g>
<g id="xMinorTicks" stroke="rgb(0,0,0)" stroke-width="1"><path d="M398,346 L398,348 M432,346 L432,348 M465,346 L465,348 M498,346 L498,348 M565,346 L565,348 M598,346 L598,348 M631,346 L631,348 M664,346 L664,348 M332,346 L332,348 M299,346 L299,348 M265,346 L265,348 M232,346 L232,348 M166,346 L166,348 M132,346 L132,348 M99.2,346 L99.2,348 M65.9,346 L65.9,348 " fill="none"/></g>
<g id="yMajorTicks" stroke="rgb(0,0,0)" stroke-width="2"><path d="M27.7,107 L32.7,107 M27.7,77.4 L32.7,77.4 M27.7,47.5 L32.7,47.5 M27.7,107 L32.7,107 M27.7,137 L32.7,137 M27.7,167 L32.7,167 M27.7,197 L32.7,197 M27.7,227 L32.7,227 M27.7,257 L32.7,257 M27.7,287 L32.7,287 M27.7,317 L32.7,317 M27.7,346 L32.7,346 " fill="none"/></g>
<g id="xMajorTicks" stroke="rgb(0,0,0)" stroke-width="2"><path d="M365,346 L365,352 M531,346 L531,352 M698,346 L698,352 M365,346 L365,352 M199,346 L199,352 M32.7,346 L32.7,352 " fill="none"/></g>
<g id="xTicksValues">
<text x="365" y="367" text-anchor="middle" font-size="12" font-family="Lucida Sans Unicode">0</text>
<text x="531" y="367" text-anchor="middle" font-size="12" font-family="Lucida Sans Unicode">10</text>
<text x="698" y="367" text-anchor="middle" font-size="12" font-family="Lucida Sans Unicode">20</text>
<text x="365" y="367" text-anchor="middle" font-size="12" font-family="Lucida Sans Unicode">0</text>
<text x="199" y="367" text-anchor="middle" font-size="12" font-family="Lucida Sans Unicode">-10</text>
<text x="32.7" y="367" text-anchor="middle" font-size="12" font-family="Lucida Sans Unicode">-20</text></g>
<g id="yTicksValues">
<text x="21.7" y="110" text-anchor="end" font-size="12" font-family="Lucida Sans Unicode">0</text>
<text x="21.7" y="79.8" text-anchor="end" font-size="12" font-family="Lucida Sans Unicode">2</text>
<text x="21.7" y="49.9" text-anchor="end" font-size="12" font-family="Lucida Sans Unicode">4</text>
<text x="21.7" y="110" text-anchor="end" font-size="12" font-family="Lucida Sans Unicode">0</text>
<text x="21.7" y="140" text-anchor="end" font-size="12" font-family="Lucida Sans Unicode">-2</text>
<text x="21.7" y="170" text-anchor="end" font-size="12" font-family="Lucida Sans Unicode">-4</text>
<text x="21.7" y="199" text-anchor="end" font-size="12" font-family="Lucida Sans Unicode">-6</text>
<text x="21.7" y="229" text-anchor="end" font-size="12" font-family="Lucida Sans Unicode">-8</text>
<text x="21.7" y="259" text-anchor="end" font-size="12" font-family="Lucida Sans Unicode">-10</text>
<text x="21.7" y="289" text-anchor="end" font-size="12" font-family="Lucida Sans Unicode">-12</text>
<text x="21.7" y="319" text-anchor="end" font-size="12" font-family="Lucida Sans Unicode">-14</text>
<text x="21.7" y="349" text-anchor="end" font-size="12" font-family="Lucida Sans Unicode">-16</text></g>
<g id="yLabel">
<text x="-8.6" y="197" text-anchor="middle" transform = "rotate(-90 -8.6 197 )" font-size="14" font-family="Lucida Sans Unicode"></text></g>
<g id="xLabel">
<text x="365" y="382" text-anchor="middle" font-size="14" font-family="Lucida Sans Unicode">x</text></g>
<g id="plotLines" stroke-width="2"><g clip-path="url(#plot_window)" stroke="rgb(0,0,0)" fill="rgb(0,128,0)" stroke-width="2"><path d="M32.7,107 L32.7,77.8 L32.7,77.8 L36,107 L39.3,107 L42.7,107 L46,94 L49.3,107 L52.6,93.6 L56,95 L59.3,107 L62.6,107 L65.9,107 L69.3,83.2 L72.6,107 L75.9,107 L79.2,96.8 L82.6,66.4 L85.9,107 L89.2,94.1 L92.5,95.8 L95.9,94 L99.2,107 L103,107 L106,107 L109,92.8 L112,98.4 L116,107 L119,107 L122,93.9 L126,107 L129,107 L132,107 L136,91.5 L139,107 L142,107 L146,107 L149,97 L152,95.3 L156,107 L159,107 L162,107 L166,88.8 L169,107 L172,107 L176,107 L179,107 L182,92.4 L186,107 L189,107 L192,107 L196,96.5 L199,107 L202,107 L206,107 L209,107 L212,71.5 L216,107 L219,107 L222,107 L225,107 L229,107 L232,53.7 L235,107 L239,107 L242,107 L245,107 L249,107 L252,107 L255,107 L259,107 L262,107 L265,107 L269,107 L272,99.6 L275,107 L279,107 L282,107 L285,107 L289,107 L292,99 L295,94.7 L299,107 L302,107 L305,107 L309,107 L312,107 L315,107 L319,99.8 L322,107 L325,62.5 L329,98.3 L332,107 L335,107 L339,107 L342,107 L345,107 L348,107 L352,107 L355,107 L358,107 L362,107 L365,107 L368,107 L372,107 L375,107 L378,107 L382,107 L385,107 L388,107 L392,107 L395,107 L398,107 L402,107 L405,107 L408,107 L412,107 L415,97.2 L418,107 L422,107 L425,107 L428,107 L432,107 L435,107 L438,107 L442,107 L445,107 L448,107 L452,107 L455,107 L458,107 L461,107 L465,107 L468,107 L471,107 L475,107 L478,107 L481,107 L485,107 L488,107 L491,107 L495,96 L498,107 L501,107 L505,107 L508,107 L511,107 L515,107 L518,107 L521,107 L525,107 L528,107 L531,107 L535,96.2 L538,107 L541,107 L545,107 L548,107 L551,107 L555,107 L558,107 L561,99.6 L565,98.3 L568,107 L571,107 L575,96 L578,107 L581,107 L584,107 L588,107 L591,107 L594,97 L598,107 L601,99.6 L604,97.2 L608,107 L611,107 L614,107 L618,92.7 L621,107 L624,107 L628,107 L631,107 L634,107 L638,107 L641,107 L644,95.1 L648,99.4 L651,107 L654,97.2 L658,107 L661,107 L664,98.2 L668,98.9 L671,107 L674,107 L678,107 L681,107 L684,107 L688,99.8 L691,107 L694,107 L694,107 Z" fill="rgb(0,128,0)"/></g>
<g clip-path="url(#plot_window)" stroke="rgb(0,0,0)" fill="rgb(0,128,0)" stroke-width="2"><path d="M32.7,107 L32.7,121 L32.7,121 L36,107 L39.3,107 L42.7,107 L46,134 L49.3,107 L52.6,107 L56,107 L59.3,137 L62.6,107 L65.9,107 L69.3,107 L72.6,107 L75.9,107 L79.2,118 L82.6,115 L85.9,107 L89.2,120 L92.5,115 L95.9,341 L99.2,120 L103,107 L106,107 L109,216 L112,107 L116,107 L119,107 L122,118 L126,107 L129,107 L132,107 L136,122 L139,107 L142,107 L146,107 L149,119 L152,117 L156,107 L159,107 L162,107 L166,121 L169,107 L172,107 L176,107 L179,130 L182,107 L186,107 L189,107 L192,107 L196,115 L199,107 L202,107 L206,115 L209,107 L212,117 L216,115 L219,107 L222,107 L225,107 L229,107 L232,107 L235,107 L239,107 L242,107 L245,121 L249,107 L252,118 L255,107 L259,107 L262,107 L265,107 L269,107 L272,144 L275,107 L279,107 L282,107 L285,107 L289,107 L292,107 L295,117 L299,107 L302,120 L305,107 L309,107 L312,107 L315,107 L319,107 L322,107 L325,107 L329,107 L332,107 L335,107 L339,107 L342,107 L345,107 L348,107 L352,107 L355,107 L358,107 L362,107 L365,107 L368,107 L372,107 L375,107 L378,107 L382,107 L385,107 L388,107 L392,107 L395,107 L398,107 L402,107 L405,107 L408,107 L412,107 L415,107 L418,107 L422,107 L425,107 L428,107 L432,116 L435,107 L438,107 L442,107 L445,107 L448,107 L452,107 L455,107 L458,107 L461,107 L465,107 L468,107 L471,107 L475,107 L478,107 L481,107 L485,107 L488,107 L491,107 L495,107 L498,107 L501,107 L505,107 L508,122 L511,118 L515,107 L518,107 L521,107 L525,107 L528,115 L531,107 L535,107 L538,116 L541,107 L545,107 L548,107 L551,116 L555,107 L558,107 L561,117 L565,107 L568,107 L571,118 L575,107 L578,107 L581,107 L584,116 L588,107 L591,107 L594,107 L598,107 L601,107 L604,122 L608,107 L611,107 L614,118 L618,107 L621,107 L624,118 L628,117 L631,107 L634,107 L638,107 L641,107 L644,121 L648,116 L651,122 L654,107 L658,107 L661,107 L664,122 L668,107 L671,107 L674,107 L678,107 L681,116 L684,107 L688,115 L691,120 L694,107 L694,107 Z" fill="rgb(0,128,0)"/></g>
</g>
<g id="plotPoints" clip-path="url(#plot_window)"><g stroke="rgb(0,128,0)" fill="rgb(0,128,0)"><circle cx="36" cy="107" r="0"/><circle cx="39.3" cy="107" r="0"/><circle cx="42.7" cy="107" r="0"/><circle cx="46" cy="94" r="0"/><circle cx="49.3" cy="107" r="0"/><circle cx="52.6" cy="93.6" r="0"/><circle cx="56" cy="95" r="0"/><circle cx="59.3" cy="107" r="0"/><circle cx="62.6" cy="107" r="0"/><circle cx="65.9" cy="107" r="0"/><circle cx="69.3" cy="83.2" r="0"/><circle cx="72.6" cy="107" r="0"/><circle cx="75.9" cy="107" r="0"/><circle cx="79.2" cy="96.8" r="0"/><circle cx="82.6" cy="66.4" r="0"/><circle cx="85.9" cy="107" r="0"/><circle cx="89.2" cy="94.1" r="0"/><circle cx="92.5" cy="95.8" r="0"/><circle cx="95.9" cy="94" r="0"/><circle cx="99.2" cy="107" r="0"/><circle cx="103" cy="107" r="0"/><circle cx="106" cy="107" r="0"/><circle cx="109" cy="92.8" r="0"/><circle cx="112" cy="98.4" r="0"/><circle cx="116" cy="107" r="0"/><circle cx="119" cy="107" r="0"/><circle cx="122" cy="93.9" r="0"/><circle cx="126" cy="107" r="0"/><circle cx="129" cy="107" r="0"/><circle cx="132" cy="107" r="0"/><circle cx="136" cy="91.5" r="0"/><circle cx="139" cy="107" r="0"/><circle cx="142" cy="107" r="0"/><circle cx="146" cy="107" r="0"/><circle cx="149" cy="97" r="0"/><circle cx="152" cy="95.3" r="0"/><circle cx="156" cy="107" r="0"/><circle cx="159" cy="107" r="0"/><circle cx="162" cy="107" r="0"/><circle cx="166" cy="88.8" r="0"/><circle cx="169" cy="107" r="0"/><circle cx="172" cy="107" r="0"/><circle cx="176" cy="107" r="0"/><circle cx="179" cy="107" r="0"/><circle cx="182" cy="92.4" r="0"/><circle cx="186" cy="107" r="0"/><circle cx="189" cy="107" r="0"/><circle cx="192" cy="107" r="0"/><circle cx="196" cy="96.5" r="0"/><circle cx="199" cy="107" r="0"/><circle cx="202" cy="107" r="0"/><circle cx="206" cy="107" r="0"/><circle cx="209" cy="107" r="0"/><circle cx="212" cy="71.5" r="0"/><circle cx="216" cy="107" r="0"/><circle cx="219" cy="107" r="0"/><circle cx="222" cy="107" r="0"/><circle cx="225" cy="107" r="0"/><circle cx="229" cy="107" r="0"/><circle cx="232" cy="53.7" r="0"/><circle cx="235" cy="107" r="0"/><circle cx="239" cy="107" r="0"/><circle cx="242" cy="107" r="0"/><circle cx="245" cy="107" r="0"/><circle cx="249" cy="107" r="0"/><circle cx="252" cy="107" r="0"/><circle cx="255" cy="107" r="0"/><circle cx="259" cy="107" r="0"/><circle cx="262" cy="107" r="0"/><circle cx="265" cy="107" r="0"/><circle cx="269" cy="107" r="0"/><circle cx="272" cy="99.6" r="0"/><circle cx="275" cy="107" r="0"/><circle cx="279" cy="107" r="0"/><circle cx="282" cy="107" r="0"/><circle cx="285" cy="107" r="0"/><circle cx="289" cy="107" r="0"/><circle cx="292" cy="99" r="0"/><circle cx="295" cy="94.7" r="0"/><circle cx="299" cy="107" r="0"/><circle cx="302" cy="107" r="0"/><circle cx="305" cy="107" r="0"/><circle cx="309" cy="107" r="0"/><circle cx="312" cy="107" r="0"/><circle cx="315" cy="107" r="0"/><circle cx="319" cy="99.8" r="0"/><circle cx="322" cy="107" r="0"/><circle cx="325" cy="62.5" r="0"/><circle cx="329" cy="98.3" r="0"/><circle cx="332" cy="107" r="0"/><circle cx="335" cy="107" r="0"/><circle cx="339" cy="107" r="0"/><circle cx="342" cy="107" r="0"/><circle cx="345" cy="107" r="0"/><circle cx="348" cy="107" r="0"/><circle cx="352" cy="107" r="0"/><circle cx="355" cy="107" r="0"/><circle cx="358" cy="107" r="0"/><circle cx="362" cy="107" r="0"/><circle cx="365" cy="107" r="0"/><circle cx="368" cy="107" r="0"/><circle cx="372" cy="107" r="0"/><circle cx="375" cy="107" r="0"/><circle cx="378" cy="107" r="0"/><circle cx="382" cy="107" r="0"/><circle cx="385" cy="107" r="0"/><circle cx="388" cy="107" r="0"/><circle cx="392" cy="107" r="0"/><circle cx="395" cy="107" r="0"/><circle cx="398" cy="107" r="0"/><circle cx="402" cy="107" r="0"/><circle cx="405" cy="107" r="0"/><circle cx="408" cy="107" r="0"/><circle cx="412" cy="107" r="0"/><circle cx="415" cy="97.2" r="0"/><circle cx="418" cy="107" r="0"/><circle cx="422" cy="107" r="0"/><circle cx="425" cy="107" r="0"/><circle cx="428" cy="107" r="0"/><circle cx="432" cy="107" r="0"/><circle cx="435" cy="107" r="0"/><circle cx="438" cy="107" r="0"/><circle cx="442" cy="107" r="0"/><circle cx="445" cy="107" r="0"/><circle cx="448" cy="107" r="0"/><circle cx="452" cy="107" r="0"/><circle cx="455" cy="107" r="0"/><circle cx="458" cy="107" r="0"/><circle cx="461" cy="107" r="0"/><circle cx="465" cy="107" r="0"/><circle cx="468" cy="107" r="0"/><circle cx="471" cy="107" r="0"/><circle cx="475" cy="107" r="0"/><circle cx="478" cy="107" r="0"/><circle cx="481" cy="107" r="0"/><circle cx="485" cy="107" r="0"/><circle cx="488" cy="107" r="0"/><circle cx="491" cy="107" r="0"/><circle cx="495" cy="96" r="0"/><circle cx="498" cy="107" r="0"/><circle cx="501" cy="107" r="0"/><circle cx="505" cy="107" r="0"/><circle cx="508" cy="107" r="0"/><circle cx="511" cy="107" r="0"/><circle cx="515" cy="107" r="0"/><circle cx="518" cy="107" r="0"/><circle cx="521" cy="107" r="0"/><circle cx="525" cy="107" r="0"/><circle cx="528" cy="107" r="0"/><circle cx="531" cy="107" r="0"/><circle cx="535" cy="96.2" r="0"/><circle cx="538" cy="107" r="0"/><circle cx="541" cy="107" r="0"/><circle cx="545" cy="107" r="0"/><circle cx="548" cy="107" r="0"/><circle cx="551" cy="107" r="0"/><circle cx="555" cy="107" r="0"/><circle cx="558" cy="107" r="0"/><circle cx="561" cy="99.6" r="0"/><circle cx="565" cy="98.3" r="0"/><circle cx="568" cy="107" r="0"/><circle cx="571" cy="107" r="0"/><circle cx="575" cy="96" r="0"/><circle cx="578" cy="107" r="0"/><circle cx="581" cy="107" r="0"/><circle cx="584" cy="107" r="0"/><circle cx="588" cy="107" r="0"/><circle cx="591" cy="107" r="0"/><circle cx="594" cy="97" r="0"/><circle cx="598" cy="107" r="0"/><circle cx="601" cy="99.6" r="0"/><circle cx="604" cy="97.2" r="0"/><circle cx="608" cy="107" r="0"/><circle cx="611" cy="107" r="0"/><circle cx="614" cy="107" r="0"/><circle cx="618" cy="92.7" r="0"/><circle cx="621" cy="107" r="0"/><circle cx="624" cy="107" r="0"/><circle cx="628" cy="107" r="0"/><circle cx="631" cy="107" r="0"/><circle cx="634" cy="107" r="0"/><circle cx="638" cy="107" r="0"/><circle cx="641" cy="107" r="0"/><circle cx="644" cy="95.1" r="0"/><circle cx="648" cy="99.4" r="0"/><circle cx="651" cy="107" r="0"/><circle cx="654" cy="97.2" r="0"/><circle cx="658" cy="107" r="0"/><circle cx="661" cy="107" r="0"/><circle cx="664" cy="98.2" r="0"/><circle cx="668" cy="98.9" r="0"/><circle cx="671" cy="107" r="0"/><circle cx="674" cy="107" r="0"/><circle cx="678" cy="107" r="0"/><circle cx="681" cy="107" r="0"/><circle cx="684" cy="107" r="0"/><circle cx="688" cy="99.8" r="0"/><circle cx="691" cy="107" r="0"/><circle cx="694" cy="107" r="0"/></g>
<g stroke="rgb(0,128,0)" fill="rgb(0,128,0)"><circle cx="36" cy="107" r="0"/><circle cx="39.3" cy="107" r="0"/><circle cx="42.7" cy="107" r="0"/><circle cx="46" cy="134" r="0"/><circle cx="49.3" cy="107" r="0"/><circle cx="52.6" cy="107" r="0"/><circle cx="56" cy="107" r="0"/><circle cx="59.3" cy="137" r="0"/><circle cx="62.6" cy="107" r="0"/><circle cx="65.9" cy="107" r="0"/><circle cx="69.3" cy="107" r="0"/><circle cx="72.6" cy="107" r="0"/><circle cx="75.9" cy="107" r="0"/><circle cx="79.2" cy="118" r="0"/><circle cx="82.6" cy="115" r="0"/><circle cx="85.9" cy="107" r="0"/><circle cx="89.2" cy="120" r="0"/><circle cx="92.5" cy="115" r="0"/><circle cx="95.9" cy="341" r="0"/><circle cx="99.2" cy="120" r="0"/><circle cx="103" cy="107" r="0"/><circle cx="106" cy="107" r="0"/><circle cx="109" cy="216" r="0"/><circle cx="112" cy="107" r="0"/><circle cx="116" cy="107" r="0"/><circle cx="119" cy="107" r="0"/><circle cx="122" cy="118" r="0"/><circle cx="126" cy="107" r="0"/><circle cx="129" cy="107" r="0"/><circle cx="132" cy="107" r="0"/><circle cx="136" cy="122" r="0"/><circle cx="139" cy="107" r="0"/><circle cx="142" cy="107" r="0"/><circle cx="146" cy="107" r="0"/><circle cx="149" cy="119" r="0"/><circle cx="152" cy="117" r="0"/><circle cx="156" cy="107" r="0"/><circle cx="159" cy="107" r="0"/><circle cx="162" cy="107" r="0"/><circle cx="166" cy="121" r="0"/><circle cx="169" cy="107" r="0"/><circle cx="172" cy="107" r="0"/><circle cx="176" cy="107" r="0"/><circle cx="179" cy="130" r="0"/><circle cx="182" cy="107" r="0"/><circle cx="186" cy="107" r="0"/><circle cx="189" cy="107" r="0"/><circle cx="192" cy="107" r="0"/><circle cx="196" cy="115" r="0"/><circle cx="199" cy="107" r="0"/><circle cx="202" cy="107" r="0"/><circle cx="206" cy="115" r="0"/><circle cx="209" cy="107" r="0"/><circle cx="212" cy="117" r="0"/><circle cx="216" cy="115" r="0"/><circle cx="219" cy="107" r="0"/><circle cx="222" cy="107" r="0"/><circle cx="225" cy="107" r="0"/><circle cx="229" cy="107" r="0"/><circle cx="232" cy="107" r="0"/><circle cx="235" cy="107" r="0"/><circle cx="239" cy="107" r="0"/><circle cx="242" cy="107" r="0"/><circle cx="245" cy="121" r="0"/><circle cx="249" cy="107" r="0"/><circle cx="252" cy="118" r="0"/><circle cx="255" cy="107" r="0"/><circle cx="259" cy="107" r="0"/><circle cx="262" cy="107" r="0"/><circle cx="265" cy="107" r="0"/><circle cx="269" cy="107" r="0"/><circle cx="272" cy="144" r="0"/><circle cx="275" cy="107" r="0"/><circle cx="279" cy="107" r="0"/><circle cx="282" cy="107" r="0"/><circle cx="285" cy="107" r="0"/><circle cx="289" cy="107" r="0"/><circle cx="292" cy="107" r="0"/><circle cx="295" cy="117" r="0"/><circle cx="299" cy="107" r="0"/><circle cx="302" cy="120" r="0"/><circle cx="305" cy="107" r="0"/><circle cx="309" cy="107" r="0"/><circle cx="312" cy="107" r="0"/><circle cx="315" cy="107" r="0"/><circle cx="319" cy="107" r="0"/><circle cx="322" cy="107" r="0"/><circle cx="325" cy="107" r="0"/><circle cx="329" cy="107" r="0"/><circle cx="332" cy="107" r="0"/><circle cx="335" cy="107" r="0"/><circle cx="339" cy="107" r="0"/><circle cx="342" cy="107" r="0"/><circle cx="345" cy="107" r="0"/><circle cx="348" cy="107" r="0"/><circle cx="352" cy="107" r="0"/><circle cx="355" cy="107" r="0"/><circle cx="358" cy="107" r="0"/><circle cx="362" cy="107" r="0"/><circle cx="365" cy="107" r="0"/><circle cx="368" cy="107" r="0"/><circle cx="372" cy="107" r="0"/><circle cx="375" cy="107" r="0"/><circle cx="378" cy="107" r="0"/><circle cx="382" cy="107" r="0"/><circle cx="385" cy="107" r="0"/><circle cx="388" cy="107" r="0"/><circle cx="392" cy="107" r="0"/><circle cx="395" cy="107" r="0"/><circle cx="398" cy="107" r="0"/><circle cx="402" cy="107" r="0"/><circle cx="405" cy="107" r="0"/><circle cx="408" cy="107" r="0"/><circle cx="412" cy="107" r="0"/><circle cx="415" cy="107" r="0"/><circle cx="418" cy="107" r="0"/><circle cx="422" cy="107" r="0"/><circle cx="425" cy="107" r="0"/><circle cx="428" cy="107" r="0"/><circle cx="432" cy="116" r="0"/><circle cx="435" cy="107" r="0"/><circle cx="438" cy="107" r="0"/><circle cx="442" cy="107" r="0"/><circle cx="445" cy="107" r="0"/><circle cx="448" cy="107" r="0"/><circle cx="452" cy="107" r="0"/><circle cx="455" cy="107" r="0"/><circle cx="458" cy="107" r="0"/><circle cx="461" cy="107" r="0"/><circle cx="465" cy="107" r="0"/><circle cx="468" cy="107" r="0"/><circle cx="471" cy="107" r="0"/><circle cx="475" cy="107" r="0"/><circle cx="478" cy="107" r="0"/><circle cx="481" cy="107" r="0"/><circle cx="485" cy="107" r="0"/><circle cx="488" cy="107" r="0"/><circle cx="491" cy="107" r="0"/><circle cx="495" cy="107" r="0"/><circle cx="498" cy="107" r="0"/><circle cx="501" cy="107" r="0"/><circle cx="505" cy="107" r="0"/><circle cx="508" cy="122" r="0"/><circle cx="511" cy="118" r="0"/><circle cx="515" cy="107" r="0"/><circle cx="518" cy="107" r="0"/><circle cx="521" cy="107" r="0"/><circle cx="525" cy="107" r="0"/><circle cx="528" cy="115" r="0"/><circle cx="531" cy="107" r="0"/><circle cx="535" cy="107" r="0"/><circle cx="538" cy="116" r="0"/><circle cx="541" cy="107" r="0"/><circle cx="545" cy="107" r="0"/><circle cx="548" cy="107" r="0"/><circle cx="551" cy="116" r="0"/><circle cx="555" cy="107" r="0"/><circle cx="558" cy="107" r="0"/><circle cx="561" cy="117" r="0"/><circle cx="565" cy="107" r="0"/><circle cx="568" cy="107" r="0"/><circle cx="571" cy="118" r="0"/><circle cx="575" cy="107" r="0"/><circle cx="578" cy="107" r="0"/><circle cx="581" cy="107" r="0"/><circle cx="584" cy="116" r="0"/><circle cx="588" cy="107" r="0"/><circle cx="591" cy="107" r="0"/><circle cx="594" cy="107" r="0"/><circle cx="598" cy="107" r="0"/><circle cx="601" cy="107" r="0"/><circle cx="604" cy="122" r="0"/><circle cx="608" cy="107" r="0"/><circle cx="611" cy="107" r="0"/><circle cx="614" cy="118" r="0"/><circle cx="618" cy="107" r="0"/><circle cx="621" cy="107" r="0"/><circle cx="624" cy="118" r="0"/><circle cx="628" cy="117" r="0"/><circle cx="631" cy="107" r="0"/><circle cx="634" cy="107" r="0"/><circle cx="638" cy="107" r="0"/><circle cx="641" cy="107" r="0"/><circle cx="644" cy="121" r="0"/><circle cx="648" cy="116" r="0"/><circle cx="651" cy="122" r="0"/><circle cx="654" cy="107" r="0"/><circle cx="658" cy="107" r="0"/><circle cx="661" cy="107" r="0"/><circle cx="664" cy="122" r="0"/><circle cx="668" cy="107" r="0"/><circle cx="671" cy="107" r="0"/><circle cx="674" cy="107" r="0"/><circle cx="678" cy="107" r="0"/><circle cx="681" cy="116" r="0"/><circle cx="684" cy="107" r="0"/><circle cx="688" cy="115" r="0"/><circle cx="691" cy="120" r="0"/><circle cx="694" cy="107" r="0"/></g>
</g>
<g id="title">
<text x="350" y="36" text-anchor="middle" font-size="18" font-family="Lucida Sans Unicode">Errors in Bi Prime, double</text></g>
<g id="plotXValues"></g>
<g id="plotYValues"></g>
</svg>
