<?xml version="1.0" encoding="UTF-8" standalone="no"?>
<svg width="400" height ="300" version="1.1"
xmlns:svg ="http://www.w3.org/2000/svg"
xmlns:rdf="http://www.w3.org/1999/02/22-rdf-syntax-ns#"
xmlns:cc="http://web.resource.org/cc/"
xmlns:dc="http://purl.org/dc/elements/1.1/"
xmlns ="http://www.w3.org/2000/svg"
>
<!-- SVG plot written using Boost.Plot program (Creator Jacob Voytko) --> 
<!-- Use, modification and distribution of Boost.Plot subject to the --> 
<!-- Boost Software License, Version 1.0.--> 
<!-- (See accompanying file LICENSE_1_0.txt --> 
<!-- or copy at http://www.boost.org/LICENSE_1_0.txt) --> 

<!-- SVG Plot Copyright Paul A. Bristow 2016 --> 
<meta name="copyright" content="Paul A. Bristow" />
<meta name="date" content="2016" />
<clipPath id="plot_window"><rect x="61.7" y="48.5" width="198.1" height="197"/></clipPath>
<g id="imageBackground" stroke="rgb(255,255,0)" fill="rgb(255,255,255)" stroke-width="2"><rect x="0" y="0" width="400" height="300"/></g>
<g id="plotBackground" stroke="rgb(119,136,153)" fill="rgb(255,255,255)" stroke-width="2"><rect x="60.7" y="47.5" width="200.1" height="199"/></g>
<g id="yMinorGrid" stroke="rgb(200,220,255)" stroke-width="0.5"></g>
<g id="yMajorGrid" stroke="rgb(200,220,255)" stroke-width="1"><path d="M62.7,80.67 L258.8,80.67 M62.7,47.5 L258.8,47.5 M62.7,80.67 L258.8,80.67 M62.7,113.8 L258.8,113.8 M62.7,147 L258.8,147 M62.7,180.2 L258.8,180.2 M62.7,213.3 L258.8,213.3 M62.7,246.5 L258.8,246.5 " fill="none"/></g>
<g id="xMinorGrid" stroke="rgb(200,220,255)" stroke-width="0.5"></g>
<g id="xMajorGrid" stroke="rgb(200,220,255)" stroke-width="1"><path d="M74.04,47.5 L74.04,246.5 M100.7,47.5 L100.7,246.5 M127.4,47.5 L127.4,246.5 M154.1,47.5 L154.1,246.5 M180.7,47.5 L180.7,246.5 M207.4,47.5 L207.4,246.5 M234.1,47.5 L234.1,246.5 M260.8,47.5 L260.8,246.5 " fill="none"/></g>
<g id="yAxis" stroke="rgb(0,0,0)" stroke-width="1"><line x1="60.7" y1="47.5" x2="60.7" y2="246.5"/></g>
<g id="xAxis" stroke="rgb(0,0,0)" stroke-width="1"><line x1="55.7" y1="80.67" x2="260.8" y2="80.67"/><line x1="55.7" y1="246.5" x2="260.8" y2="246.5"/></g>
<g id="yMinorTicks" stroke="rgb(0,0,0)" stroke-width="1"><path d="M58.7,74.03 L60.7,74.03 M58.7,67.4 L60.7,67.4 M58.7,60.77 L60.7,60.77 M58.7,54.13 L60.7,54.13 M58.7,80.67 L60.7,80.67 M58.7,87.3 L60.7,87.3 M58.7,93.93 L60.7,93.93 M58.7,100.6 L60.7,100.6 M58.7,107.2 L60.7,107.2 M58.7,113.8 L60.7,113.8 M58.7,120.5 L60.7,120.5 M58.7,127.1 L60.7,127.1 M58.7,133.7 L60.7,133.7 M58.7,140.4 L60.7,140.4 M58.7,147 L60.7,147 M58.7,147 L60.7,147 M58.7,153.6 L60.7,153.6 M58.7,160.3 L60.7,160.3 M58.7,166.9 L60.7,166.9 M58.7,173.5 L60.7,173.5 M58.7,180.2 L60.7,180.2 M58.7,186.8 L60.7,186.8 M58.7,193.4 L60.7,193.4 M58.7,200.1 L60.7,200.1 M58.7,206.7 L60.7,206.7 M58.7,213.3 L60.7,213.3 M58.7,220 L60.7,220 M58.7,226.6 L60.7,226.6 M58.7,233.2 L60.7,233.2 M58.7,239.9 L60.7,239.9 M58.7,246.5 L60.7,246.5 " fill="none"/></g>
<g id="xMinorTicks" stroke="rgb(0,0,0)" stroke-width="1"><path d="M63.37,246.5 L63.37,248.5 M68.7,246.5 L68.7,248.5 M79.37,246.5 L79.37,248.5 M84.71,246.5 L84.71,248.5 M90.05,246.5 L90.05,248.5 M95.38,246.5 L95.38,248.5 M106.1,246.5 L106.1,248.5 M111.4,246.5 L111.4,248.5 M116.7,246.5 L116.7,248.5 M122.1,246.5 L122.1,248.5 M132.7,246.5 L132.7,248.5 M138.1,246.5 L138.1,248.5 M143.4,246.5 L143.4,248.5 M148.7,246.5 L148.7,248.5 M159.4,246.5 L159.4,248.5 M164.7,246.5 L164.7,248.5 M170.1,246.5 L170.1,248.5 M175.4,246.5 L175.4,248.5 M186.1,246.5 L186.1,248.5 M191.4,246.5 L191.4,248.5 M196.8,246.5 L196.8,248.5 M202.1,246.5 L202.1,248.5 M212.8,246.5 L212.8,248.5 M218.1,246.5 L218.1,248.5 M223.4,246.5 L223.4,248.5 M228.8,246.5 L228.8,248.5 M239.4,246.5 L239.4,248.5 M244.8,246.5 L244.8,248.5 M250.1,246.5 L250.1,248.5 M255.4,246.5 L255.4,248.5 " fill="none"/></g>
<g id="yMajorTicks" stroke="rgb(0,0,0)" stroke-width="2"><path d="M55.7,80.67 L60.7,80.67 M55.7,47.5 L60.7,47.5 M55.7,80.67 L60.7,80.67 M55.7,113.8 L60.7,113.8 M55.7,147 L60.7,147 M55.7,180.2 L60.7,180.2 M55.7,213.3 L60.7,213.3 M55.7,246.5 L60.7,246.5 " fill="none"/></g>
<g id="xMajorTicks" stroke="rgb(0,0,0)" stroke-width="2"><path d="M74.04,246.5 L74.04,251.5 M100.7,246.5 L100.7,251.5 M127.4,246.5 L127.4,251.5 M154.1,246.5 L154.1,251.5 M180.7,246.5 L180.7,251.5 M207.4,246.5 L207.4,251.5 M234.1,246.5 L234.1,251.5 M260.8,246.5 L260.8,251.5 " fill="none"/></g>
<g id="xTicksValues">
<text x="74.04" y="267.1" text-anchor="middle" font-size="12" font-family="Lucida Sans Unicode">0.3</text>
<text x="100.7" y="267.1" text-anchor="middle" font-size="12" font-family="Lucida Sans Unicode">0.4</text>
<text x="127.4" y="267.1" text-anchor="middle" font-size="12" font-family="Lucida Sans Unicode">0.5</text>
<text x="154.1" y="267.1" text-anchor="middle" font-size="12" font-family="Lucida Sans Unicode">0.6</text>
<text x="180.7" y="267.1" text-anchor="middle" font-size="12" font-family="Lucida Sans Unicode">0.7</text>
<text x="207.4" y="267.1" text-anchor="middle" font-size="12" font-family="Lucida Sans Unicode">0.8</text>
<text x="234.1" y="267.1" text-anchor="middle" font-size="12" font-family="Lucida Sans Unicode">0.9</text>
<text x="260.8" y="267.1" text-anchor="middle" font-size="12" font-family="Lucida Sans Unicode">1</text></g>
<g id="yTicksValues">
<text x="49.7" y="83.07" text-anchor="end" font-size="12" font-family="Lucida Sans Unicode">0</text>
<text x="49.7" y="49.9" text-anchor="end" font-size="12" font-family="Lucida Sans Unicode">4</text>
<text x="49.7" y="83.07" text-anchor="end" font-size="12" font-family="Lucida Sans Unicode">0</text>
<text x="49.7" y="116.2" text-anchor="end" font-size="12" font-family="Lucida Sans Unicode">-4</text>
<text x="49.7" y="149.4" text-anchor="end" font-size="12" font-family="Lucida Sans Unicode">-8</text>
<text x="49.7" y="182.6" text-anchor="end" font-size="12" font-family="Lucida Sans Unicode">-12</text>
<text x="49.7" y="215.7" text-anchor="end" font-size="12" font-family="Lucida Sans Unicode">-16</text>
<text x="49.7" y="248.9" text-anchor="end" font-size="12" font-family="Lucida Sans Unicode">-20</text></g>
<g id="yLabel">
<text x="19.4" y="147" text-anchor="middle" transform = "rotate(-90 19.4 147 )" font-size="14" font-family="Lucida Sans Unicode">log(current) (A)</text></g>
<g id="xLabel">
<text x="160.7" y="282.2" text-anchor="middle" font-size="14" font-family="Lucida Sans Unicode">voltage (V)</text></g>
<g id="plotLines" stroke-width="2"><g clip-path="url(#plot_window)" stroke="rgb(0,0,0)" stroke-width="0.5"><path d="M74.04,243.6 L74.04,243.6 L100.7,211.3 L127.4,179 L154.1,146.8 L180.7,114.5 L207.4,80.83 L234.1,50.82 " fill="none"/></g>
<g clip-path="url(#plot_window)" stroke="rgb(0,0,0)" stroke-width="0.5"><path d="M74.04,243.6 L74.04,243.6 L100.7,211.3 L127.4,179 L154.1,146.8 L180.7,115.5 L186.1,109.7 L191.4,103.9 L196.8,99.74 L202.1,97.25 " fill="none"/></g>
<g clip-path="url(#plot_window)" stroke="rgb(0,0,255)" stroke-width="1"><path d="M74.04,243.6 L74.04,243.6 L76.71,240.4 L79.37,237.1 L82.04,233.9 L84.71,230.7 L87.38,227.5 L90.05,224.2 L92.71,221 L95.38,217.8 L98.05,214.5 L100.7,211.3 L103.4,208.1 L106.1,204.9 L108.7,201.6 L111.4,198.4 L114.1,195.2 L116.7,192 L119.4,188.7 L122.1,185.5 L124.7,182.3 L127.4,179.1 L130.1,175.8 L132.7,172.6 L135.4,169.4 L138.1,166.2 L140.7,163 L143.4,159.8 L146.1,156.6 L148.7,153.4 L151.4,150.2 L154.1,147 L156.7,143.9 L159.4,140.9 L162.1,137.9 L164.7,135 L167.4,132.2 L170.1,129.5 L172.7,127 L175.4,124.7 L178.1,122.5 L180.7,120.6 L183.4,118.8 L186.1,117.2 L188.8,115.7 L191.4,114.4 L194.1,113.2 L196.8,112 L199.4,111 L202.1,110.1 L204.8,109.2 L207.4,108.4 L210.1,107.7 L212.8,107 L215.4,106.3 L218.1,105.7 L220.8,105.1 L223.4,104.6 L226.1,104 L228.8,103.5 L231.4,103.1 L234.1,102.6 L236.8,102.2 L239.4,101.8 L242.1,101.4 L244.8,101 L247.4,100.6 L250.1,100.3 L252.8,99.95 L255.4,99.62 L258.1,99.31 " fill="none"/></g>
<g clip-path="url(#plot_window)" stroke="rgb(128,0,128)" stroke-width="1"><path d="M74.04,243.6 L74.04,243.6 L76.71,240.4 L79.37,237.1 L82.04,233.9 L84.71,230.7 L87.38,227.5 L90.05,224.2 L92.71,221 L95.38,217.8 L98.05,214.5 L100.7,211.3 L103.4,208.1 L106.1,204.9 L108.7,201.6 L111.4,198.4 L114.1,195.2 L116.7,192 L119.4,188.7 L122.1,185.5 L124.7,182.3 L127.4,179.1 L130.1,175.9 L132.7,172.7 L135.4,169.5 L138.1,166.3 L140.7,163.1 L143.4,159.9 L146.1,156.8 L148.7,153.7 L151.4,150.7 L154.1,147.8 L156.7,145 L159.4,142.3 L162.1,139.8 L164.7,137.4 L167.4,135.3 L170.1,133.3 L172.7,131.5 L175.4,129.8 L178.1,128.3 L180.7,127 L183.4,125.8 L186.1,124.6 L188.8,123.6 L191.4,122.7 L194.1,121.8 L196.8,121 L199.4,120.2 L202.1,119.5 L204.8,118.8 L207.4,118.2 L210.1,117.6 L212.8,117.1 L215.4,116.5 L218.1,116 L220.8,115.6 L223.4,115.1 L226.1,114.7 L228.8,114.3 L231.4,113.9 L234.1,113.5 L236.8,113.1 L239.4,112.8 L242.1,112.4 L244.8,112.1 L247.4,111.8 L250.1,111.5 L252.8,111.2 L255.4,110.9 L258.1,110.6 " fill="none"/></g>
<g clip-path="url(#plot_window)" stroke="rgb(0,128,0)" stroke-width="1"><path d="M74.04,243.6 L74.04,243.6 L76.71,240.4 L79.37,237.1 L82.04,233.9 L84.71,230.7 L87.38,227.5 L90.05,224.2 L92.71,221 L95.38,217.8 L98.05,214.5 L100.7,211.3 L103.4,208.1 L106.1,204.9 L108.7,201.6 L111.4,198.4 L114.1,195.2 L116.7,192 L119.4,188.8 L122.1,185.6 L124.7,182.4 L127.4,179.2 L130.1,176 L132.7,172.9 L135.4,169.7 L138.1,166.7 L140.7,163.7 L143.4,160.8 L146.1,158 L148.7,155.3 L151.4,152.8 L154.1,150.5 L156.7,148.3 L159.4,146.4 L162.1,144.6 L164.7,142.9 L167.4,141.5 L170.1,140.1 L172.7,138.9 L175.4,137.8 L178.1,136.8 L180.7,135.8 L183.4,135 L186.1,134.2 L188.8,133.4 L191.4,132.7 L194.1,132.1 L196.8,131.4 L199.4,130.9 L202.1,130.3 L204.8,129.8 L207.4,129.3 L210.1,128.8 L212.8,128.4 L215.4,127.9 L218.1,127.5 L220.8,127.1 L223.4,126.8 L226.1,126.4 L228.8,126 L231.4,125.7 L234.1,125.4 L236.8,125.1 L239.4,124.8 L242.1,124.5 L244.8,124.2 L247.4,123.9 L250.1,123.6 L252.8,123.4 L255.4,123.1 L258.1,122.9 " fill="none"/></g>
<g clip-path="url(#plot_window)" stroke="rgb(255,0,0)" stroke-width="1"><path d="M74.04,243.6 L74.04,243.6 L76.71,240.4 L79.37,237.1 L82.04,233.9 L84.71,230.7 L87.38,227.5 L90.05,224.2 L92.71,221 L95.38,217.8 L98.05,214.6 L100.7,211.3 L103.4,208.1 L106.1,204.9 L108.7,201.7 L111.4,198.5 L114.1,195.3 L116.7,192.1 L119.4,188.9 L122.1,185.8 L124.7,182.7 L127.4,179.6 L130.1,176.6 L132.7,173.7 L135.4,170.9 L138.1,168.2 L140.7,165.7 L143.4,163.4 L146.1,161.3 L148.7,159.3 L151.4,157.6 L154.1,156 L156.7,154.5 L159.4,153.2 L162.1,152 L164.7,150.9 L167.4,149.8 L170.1,148.9 L172.7,148 L175.4,147.2 L178.1,146.5 L180.7,145.8 L183.4,145.1 L186.1,144.5 L188.8,143.9 L191.4,143.4 L194.1,142.9 L196.8,142.4 L199.4,141.9 L202.1,141.4 L204.8,141 L207.4,140.6 L210.1,140.2 L212.8,139.8 L215.4,139.5 L218.1,139.1 L220.8,138.8 L223.4,138.5 L226.1,138.1 L228.8,137.8 L231.4,137.6 L234.1,137.3 L236.8,137 L239.4,136.7 L242.1,136.5 L244.8,136.2 L247.4,136 L250.1,135.7 L252.8,135.5 L255.4,135.3 L258.1,135 " fill="none"/></g>
</g>
<g id="plotPoints" clip-path="url(#plot_window)"><g stroke="rgb(0,0,0)" fill="rgb(211,211,211)"><rect x="72.54" y="242.1" width="3" height="3"/><rect x="99.22" y="209.8" width="3" height="3"/><rect x="125.9" y="177.5" width="3" height="3"/><rect x="152.6" y="145.3" width="3" height="3"/><rect x="179.2" y="114" width="3" height="3"/><rect x="184.6" y="108.2" width="3" height="3"/><rect x="189.9" y="102.4" width="3" height="3"/><rect x="195.3" y="98.24" width="3" height="3"/><rect x="200.6" y="95.75" width="3" height="3"/></g>
</g>
<g id="legendBackground" stroke="rgb(255,255,0)" fill="rgb(255,255,255)" stroke-width="1"><rect x="274.8" y="47.5" width="122.7" height="182"/><rect x="274.8" y="47.5" width="122.7" height="182"/></g>
<g id="legendPoints"><g stroke="rgb(0,0,0)" fill="rgb(211,211,211)" stroke-width="0.5"><line x1="288.8" y1="75.5" x2="302.8" y2="75.5"/></g>
<g stroke="rgb(0,0,0)" fill="rgb(211,211,211)" stroke-width="0.5"><rect x="287.3" y="102" width="3" height="3"/><line x1="309.8" y1="103.5" x2="323.8" y2="103.5"/></g>
<g stroke="rgb(0,0,255)" fill="rgb(255,255,255)" stroke-width="1"><line x1="288.8" y1="131.5" x2="302.8" y2="131.5"/></g>
<g stroke="rgb(128,0,128)" fill="rgb(255,255,255)" stroke-width="1"><line x1="288.8" y1="159.5" x2="302.8" y2="159.5"/></g>
<g stroke="rgb(0,128,0)" fill="rgb(255,255,255)" stroke-width="1"><line x1="288.8" y1="187.5" x2="302.8" y2="187.5"/></g>
<g stroke="rgb(255,0,0)" fill="rgb(255,255,255)" stroke-width="1"><line x1="288.8" y1="215.5" x2="302.8" y2="215.5"/></g>
</g>
<g id="legendText">
<text x="309.8" y="75.5" font-size="14" font-family="Lucida Sans Unicode">I&#x2080;(V)</text>
<text x="330.8" y="103.5" font-size="14" font-family="Lucida Sans Unicode">Rs=0 &#x3A9;</text>
<text x="309.8" y="131.5" font-size="14" font-family="Lucida Sans Unicode">Rs=2 &#x3A9;</text>
<text x="309.8" y="159.5" font-size="14" font-family="Lucida Sans Unicode">Rs=10 &#x3A9;</text>
<text x="309.8" y="187.5" font-size="14" font-family="Lucida Sans Unicode">Rs=51 &#x3A9;</text>
<text x="309.8" y="215.5" font-size="14" font-family="Lucida Sans Unicode">Rs=249 &#x3A9;</text></g>
<g id="title">
<text x="200" y="36" text-anchor="middle" font-size="18" font-family="Lucida Sans Unicode">Diode current versus voltage</text></g>
<g id="plotXValues"></g>
<g id="plotYValues"></g>
</svg>
