<?xml version="1.0" encoding="UTF-8" standalone="no"?>
<svg width="400" height ="300" version="1.1"
xmlns:svg ="http://www.w3.org/2000/svg"
xmlns:rdf="http://www.w3.org/1999/02/22-rdf-syntax-ns#"
xmlns:cc="http://web.resource.org/cc/"
xmlns:dc="http://purl.org/dc/elements/1.1/"
xmlns ="http://www.w3.org/2000/svg"
>
<!-- SVG plot written using Boost.Plot program (Creator Jacob Voytko) --> 
<!-- Use, modification and distribution of Boost.Plot subject to the --> 
<!-- Boost Software License, Version 1.0.--> 
<!-- (See accompanying file LICENSE_1_0.txt --> 
<!-- or copy at http://www.boost.org/LICENSE_1_0.txt) --> 

<!-- SVG Plot Copyright Paul A. Bristow 2016 --> 
<meta name="copyright" content="Paul A. Bristow" />
<meta name="date" content="2016" />
<clipPath id="plot_window"><rect x="61.7" y="48.5" width="219.1" height="197"/></clipPath>
<g id="imageBackground" stroke="rgb(255,255,0)" fill="rgb(255,255,255)" stroke-width="2"><rect x="0" y="0" width="400" height="300"/></g>
<g id="plotBackground" stroke="rgb(119,136,153)" fill="rgb(255,255,255)" stroke-width="2"><rect x="60.7" y="47.5" width="221.1" height="199"/></g>
<g id="yMinorGrid" stroke="rgb(200,220,255)" stroke-width="0.5"></g>
<g id="yMajorGrid" stroke="rgb(200,220,255)" stroke-width="1"><path d="M62.7,80.67 L279.8,80.67 M62.7,47.5 L279.8,47.5 M62.7,80.67 L279.8,80.67 M62.7,113.8 L279.8,113.8 M62.7,147 L279.8,147 M62.7,180.2 L279.8,180.2 M62.7,213.3 L279.8,213.3 M62.7,246.5 L279.8,246.5 " fill="none"/></g>
<g id="xMinorGrid" stroke="rgb(200,220,255)" stroke-width="0.5"></g>
<g id="xMajorGrid" stroke="rgb(200,220,255)" stroke-width="1"><path d="M75.44,47.5 L75.44,246.5 M104.9,47.5 L104.9,246.5 M134.4,47.5 L134.4,246.5 M163.9,47.5 L163.9,246.5 M193.3,47.5 L193.3,246.5 M222.8,47.5 L222.8,246.5 M252.3,47.5 L252.3,246.5 M281.8,47.5 L281.8,246.5 " fill="none"/></g>
<g id="yAxis" stroke="rgb(0,0,0)" stroke-width="1"><line x1="60.7" y1="47.5" x2="60.7" y2="246.5"/></g>
<g id="xAxis" stroke="rgb(0,0,0)" stroke-width="1"><line x1="55.7" y1="80.67" x2="281.8" y2="80.67"/><line x1="55.7" y1="246.5" x2="281.8" y2="246.5"/></g>
<g id="yMinorTicks" stroke="rgb(0,0,0)" stroke-width="1"><path d="M58.7,74.03 L60.7,74.03 M58.7,67.4 L60.7,67.4 M58.7,60.77 L60.7,60.77 M58.7,54.13 L60.7,54.13 M58.7,80.67 L60.7,80.67 M58.7,87.3 L60.7,87.3 M58.7,93.93 L60.7,93.93 M58.7,100.6 L60.7,100.6 M58.7,107.2 L60.7,107.2 M58.7,113.8 L60.7,113.8 M58.7,120.5 L60.7,120.5 M58.7,127.1 L60.7,127.1 M58.7,133.7 L60.7,133.7 M58.7,140.4 L60.7,140.4 M58.7,147 L60.7,147 M58.7,147 L60.7,147 M58.7,153.6 L60.7,153.6 M58.7,160.3 L60.7,160.3 M58.7,166.9 L60.7,166.9 M58.7,173.5 L60.7,173.5 M58.7,180.2 L60.7,180.2 M58.7,186.8 L60.7,186.8 M58.7,193.4 L60.7,193.4 M58.7,200.1 L60.7,200.1 M58.7,206.7 L60.7,206.7 M58.7,213.3 L60.7,213.3 M58.7,220 L60.7,220 M58.7,226.6 L60.7,226.6 M58.7,233.2 L60.7,233.2 M58.7,239.9 L60.7,239.9 M58.7,246.5 L60.7,246.5 " fill="none"/></g>
<g id="xMinorTicks" stroke="rgb(0,0,0)" stroke-width="1"><path d="M63.65,246.5 L63.65,248.5 M69.54,246.5 L69.54,248.5 M81.33,246.5 L81.33,248.5 M87.23,246.5 L87.23,248.5 M93.13,246.5 L93.13,248.5 M99.02,246.5 L99.02,248.5 M110.8,246.5 L110.8,248.5 M116.7,246.5 L116.7,248.5 M122.6,246.5 L122.6,248.5 M128.5,246.5 L128.5,248.5 M140.3,246.5 L140.3,248.5 M146.2,246.5 L146.2,248.5 M152.1,246.5 L152.1,248.5 M158,246.5 L158,248.5 M169.8,246.5 L169.8,248.5 M175.7,246.5 L175.7,248.5 M181.6,246.5 L181.6,248.5 M187.5,246.5 L187.5,248.5 M199.2,246.5 L199.2,248.5 M205.1,246.5 L205.1,248.5 M211,246.5 L211,248.5 M216.9,246.5 L216.9,248.5 M228.7,246.5 L228.7,248.5 M234.6,246.5 L234.6,248.5 M240.5,246.5 L240.5,248.5 M246.4,246.5 L246.4,248.5 M258.2,246.5 L258.2,248.5 M264.1,246.5 L264.1,248.5 M270,246.5 L270,248.5 M275.9,246.5 L275.9,248.5 " fill="none"/></g>
<g id="yMajorTicks" stroke="rgb(0,0,0)" stroke-width="2"><path d="M55.7,80.67 L60.7,80.67 M55.7,47.5 L60.7,47.5 M55.7,80.67 L60.7,80.67 M55.7,113.8 L60.7,113.8 M55.7,147 L60.7,147 M55.7,180.2 L60.7,180.2 M55.7,213.3 L60.7,213.3 M55.7,246.5 L60.7,246.5 " fill="none"/></g>
<g id="xMajorTicks" stroke="rgb(0,0,0)" stroke-width="2"><path d="M75.44,246.5 L75.44,251.5 M104.9,246.5 L104.9,251.5 M134.4,246.5 L134.4,251.5 M163.9,246.5 L163.9,251.5 M193.3,246.5 L193.3,251.5 M222.8,246.5 L222.8,251.5 M252.3,246.5 L252.3,251.5 M281.8,246.5 L281.8,251.5 " fill="none"/></g>
<g id="xTicksValues">
<text x="75.44" y="267.1" text-anchor="middle" font-size="12" font-family="Lucida Sans Unicode">0.3</text>
<text x="104.9" y="267.1" text-anchor="middle" font-size="12" font-family="Lucida Sans Unicode">0.4</text>
<text x="134.4" y="267.1" text-anchor="middle" font-size="12" font-family="Lucida Sans Unicode">0.5</text>
<text x="163.9" y="267.1" text-anchor="middle" font-size="12" font-family="Lucida Sans Unicode">0.6</text>
<text x="193.3" y="267.1" text-anchor="middle" font-size="12" font-family="Lucida Sans Unicode">0.7</text>
<text x="222.8" y="267.1" text-anchor="middle" font-size="12" font-family="Lucida Sans Unicode">0.8</text>
<text x="252.3" y="267.1" text-anchor="middle" font-size="12" font-family="Lucida Sans Unicode">0.9</text>
<text x="281.8" y="267.1" text-anchor="middle" font-size="12" font-family="Lucida Sans Unicode">1</text></g>
<g id="yTicksValues">
<text x="49.7" y="83.07" text-anchor="end" font-size="12" font-family="Lucida Sans Unicode">0</text>
<text x="49.7" y="49.9" text-anchor="end" font-size="12" font-family="Lucida Sans Unicode">4</text>
<text x="49.7" y="83.07" text-anchor="end" font-size="12" font-family="Lucida Sans Unicode">0</text>
<text x="49.7" y="116.2" text-anchor="end" font-size="12" font-family="Lucida Sans Unicode">-4</text>
<text x="49.7" y="149.4" text-anchor="end" font-size="12" font-family="Lucida Sans Unicode">-8</text>
<text x="49.7" y="182.6" text-anchor="end" font-size="12" font-family="Lucida Sans Unicode">-12</text>
<text x="49.7" y="215.7" text-anchor="end" font-size="12" font-family="Lucida Sans Unicode">-16</text>
<text x="49.7" y="248.9" text-anchor="end" font-size="12" font-family="Lucida Sans Unicode">-20</text></g>
<g id="yLabel">
<text x="19.4" y="147" text-anchor="middle" transform = "rotate(-90 19.4 147 )" font-size="14" font-family="Lucida Sans Unicode">log(current) (A)</text></g>
<g id="xLabel">
<text x="171.2" y="282.2" text-anchor="middle" font-size="14" font-family="Lucida Sans Unicode">voltage (V)</text></g>
<g id="plotLines" stroke-width="2"><g clip-path="url(#plot_window)" stroke="rgb(0,0,0)" stroke-width="0.5"><path d="M75.44,243.6 L75.44,243.6 L104.9,211.3 L134.4,179 L163.9,146.8 L193.3,114.5 L222.8,80.83 L252.3,50.82 " fill="none"/></g>
<g clip-path="url(#plot_window)" stroke="rgb(0,0,0)" stroke-width="0.5"><path d="M75.44,243.6 L75.44,243.6 L104.9,211.3 L134.4,179 L163.9,146.8 L193.3,115.5 L199.2,109.7 L205.1,103.9 L211,99.74 L216.9,97.25 " fill="none"/></g>
<g clip-path="url(#plot_window)" stroke="rgb(0,0,255)" stroke-width="1"><path d="M75.44,243.6 L75.44,243.6 L78.39,240.4 L81.33,237.1 L84.28,233.9 L87.23,230.7 L90.18,227.5 L93.13,224.2 L96.07,221 L99.02,217.8 L102,214.5 L104.9,211.3 L107.9,208.1 L110.8,204.9 L113.8,201.6 L116.7,198.4 L119.7,195.2 L122.6,192 L125.6,188.7 L128.5,185.5 L131.4,182.3 L134.4,179.1 L137.3,175.8 L140.3,172.6 L143.2,169.4 L146.2,166.2 L149.1,163 L152.1,159.8 L155,156.6 L158,153.4 L160.9,150.2 L163.9,147 L166.8,143.9 L169.8,140.9 L172.7,137.9 L175.7,135 L178.6,132.2 L181.6,129.5 L184.5,127 L187.5,124.7 L190.4,122.5 L193.3,120.6 L196.3,118.8 L199.2,117.2 L202.2,115.7 L205.1,114.4 L208.1,113.2 L211,112 L214,111 L216.9,110.1 L219.9,109.2 L222.8,108.4 L225.8,107.7 L228.7,107 L231.7,106.3 L234.6,105.7 L237.6,105.1 L240.5,104.6 L243.5,104 L246.4,103.5 L249.4,103.1 L252.3,102.6 L255.3,102.2 L258.2,101.8 L261.1,101.4 L264.1,101 L267,100.6 L270,100.3 L272.9,99.95 L275.9,99.62 L278.8,99.31 " fill="none"/></g>
<g clip-path="url(#plot_window)" stroke="rgb(128,0,128)" stroke-width="1"><path d="M75.44,243.6 L75.44,243.6 L78.39,240.4 L81.33,237.1 L84.28,233.9 L87.23,230.7 L90.18,227.5 L93.13,224.2 L96.07,221 L99.02,217.8 L102,214.5 L104.9,211.3 L107.9,208.1 L110.8,204.9 L113.8,201.6 L116.7,198.4 L119.7,195.2 L122.6,192 L125.6,188.7 L128.5,185.5 L131.4,182.3 L134.4,179.1 L137.3,175.9 L140.3,172.7 L143.2,169.5 L146.2,166.3 L149.1,163.1 L152.1,159.9 L155,156.8 L158,153.7 L160.9,150.7 L163.9,147.8 L166.8,145 L169.8,142.3 L172.7,139.8 L175.7,137.4 L178.6,135.3 L181.6,133.3 L184.5,131.5 L187.5,129.8 L190.4,128.3 L193.3,127 L196.3,125.8 L199.2,124.6 L202.2,123.6 L205.1,122.7 L208.1,121.8 L211,121 L214,120.2 L216.9,119.5 L219.9,118.8 L222.8,118.2 L225.8,117.6 L228.7,117.1 L231.7,116.5 L234.6,116 L237.6,115.6 L240.5,115.1 L243.5,114.7 L246.4,114.3 L249.4,113.9 L252.3,113.5 L255.3,113.1 L258.2,112.8 L261.1,112.4 L264.1,112.1 L267,111.8 L270,111.5 L272.9,111.2 L275.9,110.9 L278.8,110.6 " fill="none"/></g>
<g clip-path="url(#plot_window)" stroke="rgb(0,128,0)" stroke-width="1"><path d="M75.44,243.6 L75.44,243.6 L78.39,240.4 L81.33,237.1 L84.28,233.9 L87.23,230.7 L90.18,227.5 L93.13,224.2 L96.07,221 L99.02,217.8 L102,214.5 L104.9,211.3 L107.9,208.1 L110.8,204.9 L113.8,201.6 L116.7,198.4 L119.7,195.2 L122.6,192 L125.6,188.8 L128.5,185.6 L131.4,182.4 L134.4,179.2 L137.3,176 L140.3,172.9 L143.2,169.7 L146.2,166.7 L149.1,163.7 L152.1,160.8 L155,158 L158,155.3 L160.9,152.8 L163.9,150.5 L166.8,148.3 L169.8,146.4 L172.7,144.6 L175.7,142.9 L178.6,141.5 L181.6,140.1 L184.5,138.9 L187.5,137.8 L190.4,136.8 L193.3,135.8 L196.3,135 L199.2,134.2 L202.2,133.4 L205.1,132.7 L208.1,132.1 L211,131.4 L214,130.9 L216.9,130.3 L219.9,129.8 L222.8,129.3 L225.8,128.8 L228.7,128.4 L231.7,127.9 L234.6,127.5 L237.6,127.1 L240.5,126.8 L243.5,126.4 L246.4,126 L249.4,125.7 L252.3,125.4 L255.3,125.1 L258.2,124.8 L261.1,124.5 L264.1,124.2 L267,123.9 L270,123.6 L272.9,123.4 L275.9,123.1 L278.8,122.9 " fill="none"/></g>
<g clip-path="url(#plot_window)" stroke="rgb(255,0,0)" stroke-width="1"><path d="M75.44,243.6 L75.44,243.6 L78.39,240.4 L81.33,237.1 L84.28,233.9 L87.23,230.7 L90.18,227.5 L93.13,224.2 L96.07,221 L99.02,217.8 L102,214.6 L104.9,211.3 L107.9,208.1 L110.8,204.9 L113.8,201.7 L116.7,198.5 L119.7,195.3 L122.6,192.1 L125.6,188.9 L128.5,185.8 L131.4,182.7 L134.4,179.6 L137.3,176.6 L140.3,173.7 L143.2,170.9 L146.2,168.2 L149.1,165.7 L152.1,163.4 L155,161.3 L158,159.3 L160.9,157.6 L163.9,156 L166.8,154.5 L169.8,153.2 L172.7,152 L175.7,150.9 L178.6,149.8 L181.6,148.9 L184.5,148 L187.5,147.2 L190.4,146.5 L193.3,145.8 L196.3,145.1 L199.2,144.5 L202.2,143.9 L205.1,143.4 L208.1,142.9 L211,142.4 L214,141.9 L216.9,141.4 L219.9,141 L222.8,140.6 L225.8,140.2 L228.7,139.8 L231.7,139.5 L234.6,139.1 L237.6,138.8 L240.5,138.5 L243.5,138.1 L246.4,137.8 L249.4,137.6 L252.3,137.3 L255.3,137 L258.2,136.7 L261.1,136.5 L264.1,136.2 L267,136 L270,135.7 L272.9,135.5 L275.9,135.3 L278.8,135 " fill="none"/></g>
</g>
<g id="plotPoints" clip-path="url(#plot_window)"><g stroke="rgb(0,0,0)" fill="rgb(211,211,211)"><rect x="73.94" y="242.1" width="3" height="3"/><rect x="103.4" y="209.8" width="3" height="3"/><rect x="132.9" y="177.5" width="3" height="3"/><rect x="162.4" y="145.3" width="3" height="3"/><rect x="191.8" y="114" width="3" height="3"/><rect x="197.7" y="108.2" width="3" height="3"/><rect x="203.6" y="102.4" width="3" height="3"/><rect x="209.5" y="98.24" width="3" height="3"/><rect x="215.4" y="95.75" width="3" height="3"/></g>
</g>
<g id="legendBackground" stroke="rgb(255,255,0)" fill="rgb(255,255,255)" stroke-width="1"><rect x="295.8" y="47.5" width="101.7" height="182"/><rect x="295.8" y="47.5" width="101.7" height="182"/></g>
<g id="legendPoints"><g stroke="rgb(0,0,0)" fill="rgb(211,211,211)" stroke-width="0.5"><rect x="308.3" y="102" width="3" height="3"/></g>
</g>
<g id="legendText">
<text x="309.8" y="75.5" font-size="14" font-family="Lucida Sans Unicode">I0(V)</text>
<text x="330.8" y="103.5" font-size="14" font-family="Lucida Sans Unicode">Rs=0 &#x3A9;</text>
<text x="309.8" y="131.5" font-size="14" font-family="Lucida Sans Unicode">Rs=2 &#x3A9;</text>
<text x="309.8" y="159.5" font-size="14" font-family="Lucida Sans Unicode">Rs=10 &#x3A9;</text>
<text x="309.8" y="187.5" font-size="14" font-family="Lucida Sans Unicode">Rs=51 &#x3A9;</text>
<text x="309.8" y="215.5" font-size="14" font-family="Lucida Sans Unicode">Rs=249 &#x3A9;</text></g>
<g id="title">
<text x="200" y="36" text-anchor="middle" font-size="18" font-family="Lucida Sans Unicode">Diode current versus voltage</text></g>
<g id="plotXValues"></g>
<g id="plotYValues"></g>
</svg>
