<?xml version="1.0" encoding="UTF-8" standalone="no"?>
<svg width="700" height ="400" version="1.1"
xmlns:svg ="http://www.w3.org/2000/svg"
xmlns:rdf="http://www.w3.org/1999/02/22-rdf-syntax-ns#"
xmlns:cc="http://web.resource.org/cc/"
xmlns:dc="http://purl.org/dc/elements/1.1/"
xmlns ="http://www.w3.org/2000/svg"
>
<!-- SVG plot written using Boost.Plot program (Creator Jacob Voytko) --> 
<!-- Use, modification and distribution of Boost.Plot subject to the --> 
<!-- Boost Software License, Version 1.0.--> 
<!-- (See accompanying file LICENSE_1_0.txt --> 
<!-- or copy at http://www.boost.org/LICENSE_1_0.txt) --> 

<clipPath id="plot_window"><rect x="50.5" y="48.5" width="646" height="297"/></clipPath>
<g id="imageBackground" stroke="rgb(211,211,211)" fill="rgb(255,255,255)" stroke-width="2"><rect x="0" y="0" width="700" height="400"/></g>
<g id="plotBackground" stroke="rgb(211,211,211)" fill="rgb(255,255,255)" stroke-width="2"><rect x="49.5" y="47.5" width="648" height="299"/></g>
<g id="yMinorGrid" stroke="rgb(200,220,255)" stroke-width="0.5"></g>
<g id="yMajorGrid" stroke="rgb(200,220,255)" stroke-width="1"></g>
<g id="xMinorGrid" stroke="rgb(200,220,255)" stroke-width="0.5"></g>
<g id="xMajorGrid" stroke="rgb(200,220,255)" stroke-width="1"></g>
<g id="yAxis" stroke="rgb(0,0,0)" stroke-width="1"><line x1="374" y1="47.5" x2="374" y2="352"/><line x1="49.5" y1="47.5" x2="49.5" y2="346"/></g>
<g id="xAxis" stroke="rgb(0,0,0)" stroke-width="1"><line x1="44.5" y1="70.5" x2="698" y2="70.5"/><line x1="44.5" y1="346" x2="698" y2="346"/></g>
<g id="yMinorTicks" stroke="rgb(0,0,0)" stroke-width="1"><path d="M47.5,69.6 L49.5,69.6 M47.5,68.7 L49.5,68.7 M47.5,67.7 L49.5,67.7 M47.5,66.8 L49.5,66.8 M47.5,65 L49.5,65 M47.5,64.1 L49.5,64.1 M47.5,63.1 L49.5,63.1 M47.5,62.2 L49.5,62.2 M47.5,60.4 L49.5,60.4 M47.5,59.5 L49.5,59.5 M47.5,58.5 L49.5,58.5 M47.5,57.6 L49.5,57.6 M47.5,55.8 L49.5,55.8 M47.5,54.9 L49.5,54.9 M47.5,53.9 L49.5,53.9 M47.5,53 L49.5,53 M47.5,51.2 L49.5,51.2 M47.5,50.3 L49.5,50.3 M47.5,49.3 L49.5,49.3 M47.5,48.4 L49.5,48.4 M47.5,70.5 L49.5,70.5 M47.5,71.4 L49.5,71.4 M47.5,72.3 L49.5,72.3 M47.5,73.3 L49.5,73.3 M47.5,74.2 L49.5,74.2 M47.5,75.1 L49.5,75.1 M47.5,76 L49.5,76 M47.5,76.9 L49.5,76.9 M47.5,77.9 L49.5,77.9 M47.5,78.8 L49.5,78.8 M47.5,79.7 L49.5,79.7 M47.5,79.7 L49.5,79.7 M47.5,80.6 L49.5,80.6 M47.5,81.5 L49.5,81.5 M47.5,82.5 L49.5,82.5 M47.5,83.4 L49.5,83.4 M47.5,84.3 L49.5,84.3 M47.5,85.2 L49.5,85.2 M47.5,86.1 L49.5,86.1 M47.5,87.1 L49.5,87.1 M47.5,88 L49.5,88 M47.5,88.9 L49.5,88.9 M47.5,89.8 L49.5,89.8 M47.5,90.7 L49.5,90.7 M47.5,91.7 L49.5,91.7 M47.5,92.6 L49.5,92.6 M47.5,93.5 L49.5,93.5 M47.5,94.4 L49.5,94.4 M47.5,95.3 L49.5,95.3 M47.5,96.3 L49.5,96.3 M47.5,97.2 L49.5,97.2 M47.5,98.1 L49.5,98.1 M47.5,99 L49.5,99 M47.5,99.9 L49.5,99.9 M47.5,101 L49.5,101 M47.5,102 L49.5,102 M47.5,103 L49.5,103 M47.5,104 L49.5,104 M47.5,105 L49.5,105 M47.5,105 L49.5,105 M47.5,106 L49.5,106 M47.5,107 L49.5,107 M47.5,108 L49.5,108 M47.5,109 L49.5,109 M47.5,110 L49.5,110 M47.5,111 L49.5,111 M47.5,112 L49.5,112 M47.5,113 L49.5,113 M47.5,114 L49.5,114 M47.5,115 L49.5,115 M47.5,116 L49.5,116 M47.5,116 L49.5,116 M47.5,117 L49.5,117 M47.5,118 L49.5,118 M47.5,119 L49.5,119 M47.5,120 L49.5,120 M47.5,121 L49.5,121 M47.5,122 L49.5,122 M47.5,123 L49.5,123 M47.5,124 L49.5,124 M47.5,125 L49.5,125 M47.5,126 L49.5,126 M47.5,127 L49.5,127 M47.5,128 L49.5,128 M47.5,128 L49.5,128 M47.5,129 L49.5,129 M47.5,130 L49.5,130 M47.5,131 L49.5,131 M47.5,132 L49.5,132 M47.5,133 L49.5,133 M47.5,134 L49.5,134 M47.5,135 L49.5,135 M47.5,136 L49.5,136 M47.5,137 L49.5,137 M47.5,138 L49.5,138 M47.5,139 L49.5,139 M47.5,140 L49.5,140 M47.5,140 L49.5,140 M47.5,141 L49.5,141 M47.5,142 L49.5,142 M47.5,143 L49.5,143 M47.5,144 L49.5,144 M47.5,145 L49.5,145 M47.5,146 L49.5,146 M47.5,147 L49.5,147 M47.5,148 L49.5,148 M47.5,149 L49.5,149 M47.5,150 L49.5,150 M47.5,151 L49.5,151 M47.5,151 L49.5,151 M47.5,152 L49.5,152 M47.5,153 L49.5,153 M47.5,154 L49.5,154 M47.5,155 L49.5,155 M47.5,156 L49.5,156 M47.5,157 L49.5,157 M47.5,158 L49.5,158 M47.5,159 L49.5,159 M47.5,160 L49.5,160 M47.5,161 L49.5,161 M47.5,162 L49.5,162 M47.5,162 L49.5,162 M47.5,163 L49.5,163 M47.5,164 L49.5,164 M47.5,165 L49.5,165 M47.5,166 L49.5,166 M47.5,167 L49.5,167 M47.5,168 L49.5,168 M47.5,169 L49.5,169 M47.5,170 L49.5,170 M47.5,171 L49.5,171 M47.5,172 L49.5,172 M47.5,173 L49.5,173 M47.5,174 L49.5,174 M47.5,174 L49.5,174 M47.5,175 L49.5,175 M47.5,176 L49.5,176 M47.5,177 L49.5,177 M47.5,178 L49.5,178 M47.5,179 L49.5,179 M47.5,180 L49.5,180 M47.5,181 L49.5,181 M47.5,182 L49.5,182 M47.5,183 L49.5,183 M47.5,184 L49.5,184 M47.5,185 L49.5,185 M47.5,186 L49.5,186 M47.5,186 L49.5,186 M47.5,187 L49.5,187 M47.5,188 L49.5,188 M47.5,189 L49.5,189 M47.5,190 L49.5,190 M47.5,191 L49.5,191 M47.5,192 L49.5,192 M47.5,193 L49.5,193 M47.5,194 L49.5,194 M47.5,195 L49.5,195 M47.5,196 L49.5,196 M47.5,197 L49.5,197 M47.5,197 L49.5,197 M47.5,198 L49.5,198 M47.5,199 L49.5,199 M47.5,200 L49.5,200 M47.5,201 L49.5,201 M47.5,202 L49.5,202 M47.5,203 L49.5,203 M47.5,204 L49.5,204 M47.5,205 L49.5,205 M47.5,206 L49.5,206 M47.5,207 L49.5,207 M47.5,208 L49.5,208 M47.5,209 L49.5,209 M47.5,209 L49.5,209 M47.5,210 L49.5,210 M47.5,211 L49.5,211 M47.5,212 L49.5,212 M47.5,213 L49.5,213 M47.5,214 L49.5,214 M47.5,215 L49.5,215 M47.5,216 L49.5,216 M47.5,217 L49.5,217 M47.5,218 L49.5,218 M47.5,219 L49.5,219 M47.5,220 L49.5,220 M47.5,220 L49.5,220 M47.5,221 L49.5,221 M47.5,222 L49.5,222 M47.5,223 L49.5,223 M47.5,224 L49.5,224 M47.5,225 L49.5,225 M47.5,226 L49.5,226 M47.5,227 L49.5,227 M47.5,228 L49.5,228 M47.5,229 L49.5,229 M47.5,230 L49.5,230 M47.5,231 L49.5,231 M47.5,232 L49.5,232 M47.5,232 L49.5,232 M47.5,233 L49.5,233 M47.5,234 L49.5,234 M47.5,235 L49.5,235 M47.5,236 L49.5,236 M47.5,237 L49.5,237 M47.5,238 L49.5,238 M47.5,239 L49.5,239 M47.5,240 L49.5,240 M47.5,241 L49.5,241 M47.5,242 L49.5,242 M47.5,243 L49.5,243 M47.5,243 L49.5,243 M47.5,244 L49.5,244 M47.5,245 L49.5,245 M47.5,246 L49.5,246 M47.5,247 L49.5,247 M47.5,248 L49.5,248 M47.5,249 L49.5,249 M47.5,250 L49.5,250 M47.5,251 L49.5,251 M47.5,252 L49.5,252 M47.5,253 L49.5,253 M47.5,254 L49.5,254 M47.5,255 L49.5,255 M47.5,255 L49.5,255 M47.5,256 L49.5,256 M47.5,257 L49.5,257 M47.5,258 L49.5,258 M47.5,259 L49.5,259 M47.5,259 L49.5,259 M47.5,260 L49.5,260 M47.5,261 L49.5,261 M47.5,262 L49.5,262 M47.5,263 L49.5,263 M47.5,264 L49.5,264 M47.5,264 L49.5,264 M47.5,265 L49.5,265 M47.5,266 L49.5,266 M47.5,266 L49.5,266 M47.5,267 L49.5,267 M47.5,268 L49.5,268 M47.5,268 L49.5,268 M47.5,269 L49.5,269 M47.5,270 L49.5,270 M47.5,271 L49.5,271 M47.5,272 L49.5,272 M47.5,273 L49.5,273 M47.5,273 L49.5,273 M47.5,274 L49.5,274 M47.5,275 L49.5,275 M47.5,276 L49.5,276 M47.5,277 L49.5,277 M47.5,277 L49.5,277 M47.5,278 L49.5,278 M47.5,278 L49.5,278 M47.5,279 L49.5,279 M47.5,280 L49.5,280 M47.5,281 L49.5,281 M47.5,282 L49.5,282 M47.5,282 L49.5,282 M47.5,283 L49.5,283 M47.5,284 L49.5,284 M47.5,285 L49.5,285 M47.5,286 L49.5,286 M47.5,287 L49.5,287 M47.5,287 L49.5,287 M47.5,288 L49.5,288 M47.5,289 L49.5,289 M47.5,289 L49.5,289 M47.5,290 L49.5,290 M47.5,291 L49.5,291 M47.5,291 L49.5,291 M47.5,292 L49.5,292 M47.5,293 L49.5,293 M47.5,294 L49.5,294 M47.5,295 L49.5,295 M47.5,296 L49.5,296 M47.5,296 L49.5,296 M47.5,297 L49.5,297 M47.5,298 L49.5,298 M47.5,299 L49.5,299 M47.5,300 L49.5,300 M47.5,300 L49.5,300 M47.5,300 L49.5,300 M47.5,301 L49.5,301 M47.5,302 L49.5,302 M47.5,303 L49.5,303 M47.5,304 L49.5,304 M47.5,305 L49.5,305 M47.5,305 L49.5,305 M47.5,306 L49.5,306 M47.5,307 L49.5,307 M47.5,308 L49.5,308 M47.5,309 L49.5,309 M47.5,310 L49.5,310 M47.5,310 L49.5,310 M47.5,311 L49.5,311 M47.5,312 L49.5,312 M47.5,312 L49.5,312 M47.5,313 L49.5,313 M47.5,314 L49.5,314 M47.5,314 L49.5,314 M47.5,315 L49.5,315 M47.5,316 L49.5,316 M47.5,317 L49.5,317 M47.5,318 L49.5,318 M47.5,319 L49.5,319 M47.5,319 L49.5,319 M47.5,320 L49.5,320 M47.5,321 L49.5,321 M47.5,322 L49.5,322 M47.5,323 L49.5,323 M47.5,323 L49.5,323 M47.5,323 L49.5,323 M47.5,324 L49.5,324 M47.5,325 L49.5,325 M47.5,326 L49.5,326 M47.5,327 L49.5,327 M47.5,328 L49.5,328 M47.5,328 L49.5,328 M47.5,329 L49.5,329 M47.5,330 L49.5,330 M47.5,331 L49.5,331 M47.5,332 L49.5,332 M47.5,333 L49.5,333 M47.5,333 L49.5,333 M47.5,334 L49.5,334 M47.5,335 L49.5,335 M47.5,335 L49.5,335 M47.5,336 L49.5,336 M47.5,337 L49.5,337 M47.5,337 L49.5,337 M47.5,338 L49.5,338 M47.5,339 L49.5,339 M47.5,340 L49.5,340 M47.5,341 L49.5,341 M47.5,342 L49.5,342 M47.5,342 L49.5,342 M47.5,343 L49.5,343 M47.5,344 L49.5,344 M47.5,345 L49.5,345 M47.5,346 L49.5,346 M47.5,346 L49.5,346 M47.5,346 L49.5,346 " fill="none"/></g>
<g id="xMinorTicks" stroke="rgb(0,0,0)" stroke-width="1"><path d="M438,346 L438,348 M503,346 L503,348 M568,346 L568,348 M633,346 L633,348 M309,346 L309,348 M244,346 L244,348 M179,346 L179,348 M114,346 L114,348 " fill="none"/></g>
<g id="yMajorTicks" stroke="rgb(0,0,0)" stroke-width="2"><path d="M44.5,70.5 L49.5,70.5 M44.5,65.9 L49.5,65.9 M44.5,61.3 L49.5,61.3 M44.5,56.7 L49.5,56.7 M44.5,52.1 L49.5,52.1 M44.5,47.5 L49.5,47.5 M44.5,70.5 L49.5,70.5 M44.5,75.1 L49.5,75.1 M44.5,79.7 L49.5,79.7 M44.5,84.3 L49.5,84.3 M44.5,88.9 L49.5,88.9 M44.5,93.5 L49.5,93.5 M44.5,98.1 L49.5,98.1 M44.5,103 L49.5,103 M44.5,107 L49.5,107 M44.5,112 L49.5,112 M44.5,116 L49.5,116 M44.5,121 L49.5,121 M44.5,126 L49.5,126 M44.5,130 L49.5,130 M44.5,135 L49.5,135 M44.5,140 L49.5,140 M44.5,144 L49.5,144 M44.5,149 L49.5,149 M44.5,153 L49.5,153 M44.5,158 L49.5,158 M44.5,162 L49.5,162 M44.5,167 L49.5,167 M44.5,172 L49.5,172 M44.5,176 L49.5,176 M44.5,181 L49.5,181 M44.5,186 L49.5,186 M44.5,190 L49.5,190 M44.5,195 L49.5,195 M44.5,199 L49.5,199 M44.5,204 L49.5,204 M44.5,209 L49.5,209 M44.5,213 L49.5,213 M44.5,218 L49.5,218 M44.5,222 L49.5,222 M44.5,227 L49.5,227 M44.5,232 L49.5,232 M44.5,236 L49.5,236 M44.5,241 L49.5,241 M44.5,245 L49.5,245 M44.5,250 L49.5,250 M44.5,255 L49.5,255 M44.5,259 L49.5,259 M44.5,264 L49.5,264 M44.5,268 L49.5,268 M44.5,273 L49.5,273 M44.5,278 L49.5,278 M44.5,282 L49.5,282 M44.5,287 L49.5,287 M44.5,291 L49.5,291 M44.5,296 L49.5,296 M44.5,300 L49.5,300 M44.5,305 L49.5,305 M44.5,310 L49.5,310 M44.5,314 L49.5,314 M44.5,319 L49.5,319 M44.5,323 L49.5,323 M44.5,328 L49.5,328 M44.5,333 L49.5,333 M44.5,337 L49.5,337 M44.5,342 L49.5,342 M44.5,346 L49.5,346 " fill="none"/></g>
<g id="xMajorTicks" stroke="rgb(0,0,0)" stroke-width="2"><path d="M374,346 L374,352 M698,346 L698,352 M374,346 L374,352 M49.5,346 L49.5,352 " fill="none"/></g>
<g id="xTicksValues">
<text x="374" y="367" text-anchor="middle" font-size="12" font-family="Lucida Sans Unicode">0</text>
<text x="698" y="367" text-anchor="middle" font-size="12" font-family="Lucida Sans Unicode">1</text>
<text x="374" y="367" text-anchor="middle" font-size="12" font-family="Lucida Sans Unicode">0</text>
<text x="49.5" y="367" text-anchor="middle" font-size="12" font-family="Lucida Sans Unicode">-1</text></g>
<g id="yTicksValues">
<text x="38.5" y="72.9" text-anchor="end" font-size="12" font-family="Lucida Sans Unicode">0</text>
<text x="38.5" y="68.3" text-anchor="end" font-size="12" font-family="Lucida Sans Unicode">0.2</text>
<text x="38.5" y="63.7" text-anchor="end" font-size="12" font-family="Lucida Sans Unicode">0.4</text>
<text x="38.5" y="59.1" text-anchor="end" font-size="12" font-family="Lucida Sans Unicode">0.6</text>
<text x="38.5" y="54.5" text-anchor="end" font-size="12" font-family="Lucida Sans Unicode">0.8</text>
<text x="38.5" y="49.9" text-anchor="end" font-size="12" font-family="Lucida Sans Unicode">1</text>
<text x="38.5" y="72.9" text-anchor="end" font-size="12" font-family="Lucida Sans Unicode">0</text>
<text x="38.5" y="77.5" text-anchor="end" font-size="12" font-family="Lucida Sans Unicode">-0.2</text>
<text x="38.5" y="82.1" text-anchor="end" font-size="12" font-family="Lucida Sans Unicode">-0.4</text>
<text x="38.5" y="86.7" text-anchor="end" font-size="12" font-family="Lucida Sans Unicode">-0.6</text>
<text x="38.5" y="91.3" text-anchor="end" font-size="12" font-family="Lucida Sans Unicode">-0.8</text>
<text x="38.5" y="95.9" text-anchor="end" font-size="12" font-family="Lucida Sans Unicode">-1</text>
<text x="38.5" y="100" text-anchor="end" font-size="12" font-family="Lucida Sans Unicode">-1.2</text>
<text x="38.5" y="105" text-anchor="end" font-size="12" font-family="Lucida Sans Unicode">-1.4</text>
<text x="38.5" y="110" text-anchor="end" font-size="12" font-family="Lucida Sans Unicode">-1.6</text>
<text x="38.5" y="114" text-anchor="end" font-size="12" font-family="Lucida Sans Unicode">-1.8</text>
<text x="38.5" y="119" text-anchor="end" font-size="12" font-family="Lucida Sans Unicode">-2</text>
<text x="38.5" y="124" text-anchor="end" font-size="12" font-family="Lucida Sans Unicode">-2.2</text>
<text x="38.5" y="128" text-anchor="end" font-size="12" font-family="Lucida Sans Unicode">-2.4</text>
<text x="38.5" y="133" text-anchor="end" font-size="12" font-family="Lucida Sans Unicode">-2.6</text>
<text x="38.5" y="137" text-anchor="end" font-size="12" font-family="Lucida Sans Unicode">-2.8</text>
<text x="38.5" y="142" text-anchor="end" font-size="12" font-family="Lucida Sans Unicode">-3</text>
<text x="38.5" y="147" text-anchor="end" font-size="12" font-family="Lucida Sans Unicode">-3.2</text>
<text x="38.5" y="151" text-anchor="end" font-size="12" font-family="Lucida Sans Unicode">-3.4</text>
<text x="38.5" y="156" text-anchor="end" font-size="12" font-family="Lucida Sans Unicode">-3.6</text>
<text x="38.5" y="160" text-anchor="end" font-size="12" font-family="Lucida Sans Unicode">-3.8</text>
<text x="38.5" y="165" text-anchor="end" font-size="12" font-family="Lucida Sans Unicode">-4</text>
<text x="38.5" y="170" text-anchor="end" font-size="12" font-family="Lucida Sans Unicode">-4.2</text>
<text x="38.5" y="174" text-anchor="end" font-size="12" font-family="Lucida Sans Unicode">-4.4</text>
<text x="38.5" y="179" text-anchor="end" font-size="12" font-family="Lucida Sans Unicode">-4.6</text>
<text x="38.5" y="183" text-anchor="end" font-size="12" font-family="Lucida Sans Unicode">-4.8</text>
<text x="38.5" y="188" text-anchor="end" font-size="12" font-family="Lucida Sans Unicode">-5</text>
<text x="38.5" y="193" text-anchor="end" font-size="12" font-family="Lucida Sans Unicode">-5.2</text>
<text x="38.5" y="197" text-anchor="end" font-size="12" font-family="Lucida Sans Unicode">-5.4</text>
<text x="38.5" y="202" text-anchor="end" font-size="12" font-family="Lucida Sans Unicode">-5.6</text>
<text x="38.5" y="206" text-anchor="end" font-size="12" font-family="Lucida Sans Unicode">-5.8</text>
<text x="38.5" y="211" text-anchor="end" font-size="12" font-family="Lucida Sans Unicode">-6</text>
<text x="38.5" y="216" text-anchor="end" font-size="12" font-family="Lucida Sans Unicode">-6.2</text>
<text x="38.5" y="220" text-anchor="end" font-size="12" font-family="Lucida Sans Unicode">-6.4</text>
<text x="38.5" y="225" text-anchor="end" font-size="12" font-family="Lucida Sans Unicode">-6.6</text>
<text x="38.5" y="229" text-anchor="end" font-size="12" font-family="Lucida Sans Unicode">-6.8</text>
<text x="38.5" y="234" text-anchor="end" font-size="12" font-family="Lucida Sans Unicode">-7</text>
<text x="38.5" y="239" text-anchor="end" font-size="12" font-family="Lucida Sans Unicode">-7.2</text>
<text x="38.5" y="243" text-anchor="end" font-size="12" font-family="Lucida Sans Unicode">-7.4</text>
<text x="38.5" y="248" text-anchor="end" font-size="12" font-family="Lucida Sans Unicode">-7.6</text>
<text x="38.5" y="252" text-anchor="end" font-size="12" font-family="Lucida Sans Unicode">-7.8</text>
<text x="38.5" y="257" text-anchor="end" font-size="12" font-family="Lucida Sans Unicode">-8</text>
<text x="38.5" y="262" text-anchor="end" font-size="12" font-family="Lucida Sans Unicode">-8.2</text>
<text x="38.5" y="266" text-anchor="end" font-size="12" font-family="Lucida Sans Unicode">-8.4</text>
<text x="38.5" y="271" text-anchor="end" font-size="12" font-family="Lucida Sans Unicode">-8.6</text>
<text x="38.5" y="275" text-anchor="end" font-size="12" font-family="Lucida Sans Unicode">-8.8</text>
<text x="38.5" y="280" text-anchor="end" font-size="12" font-family="Lucida Sans Unicode">-9</text>
<text x="38.5" y="284" text-anchor="end" font-size="12" font-family="Lucida Sans Unicode">-9.2</text>
<text x="38.5" y="289" text-anchor="end" font-size="12" font-family="Lucida Sans Unicode">-9.4</text>
<text x="38.5" y="294" text-anchor="end" font-size="12" font-family="Lucida Sans Unicode">-9.6</text>
<text x="38.5" y="298" text-anchor="end" font-size="12" font-family="Lucida Sans Unicode">-9.8</text>
<text x="38.5" y="303" text-anchor="end" font-size="12" font-family="Lucida Sans Unicode">-10</text>
<text x="38.5" y="307" text-anchor="end" font-size="12" font-family="Lucida Sans Unicode">-10.2</text>
<text x="38.5" y="312" text-anchor="end" font-size="12" font-family="Lucida Sans Unicode">-10.4</text>
<text x="38.5" y="317" text-anchor="end" font-size="12" font-family="Lucida Sans Unicode">-10.6</text>
<text x="38.5" y="321" text-anchor="end" font-size="12" font-family="Lucida Sans Unicode">-10.8</text>
<text x="38.5" y="326" text-anchor="end" font-size="12" font-family="Lucida Sans Unicode">-11</text>
<text x="38.5" y="330" text-anchor="end" font-size="12" font-family="Lucida Sans Unicode">-11.2</text>
<text x="38.5" y="335" text-anchor="end" font-size="12" font-family="Lucida Sans Unicode">-11.4</text>
<text x="38.5" y="340" text-anchor="end" font-size="12" font-family="Lucida Sans Unicode">-11.6</text>
<text x="38.5" y="344" text-anchor="end" font-size="12" font-family="Lucida Sans Unicode">-11.8</text>
<text x="38.5" y="349" text-anchor="end" font-size="12" font-family="Lucida Sans Unicode">-12</text></g>
<g id="yLabel">
<text x="-8.6" y="197" text-anchor="middle" transform = "rotate(-90 -8.6 197 )" font-size="14" font-family="Lucida Sans Unicode"></text></g>
<g id="xLabel">
<text x="374" y="382" text-anchor="middle" font-size="14" font-family="Lucida Sans Unicode">x</text></g>
<g id="plotLines" stroke-width="2"><g clip-path="url(#plot_window)" stroke="rgb(0,0,0)" fill="rgb(0,128,0)" stroke-width="2"><path d="M49.5,70.5 L49.5,70.5 L49.5,70.5 L52.7,70.5 L56,70.5 L59.2,70.5 L62.5,70.5 L65.7,70.5 L68.9,70.5 L72.2,70.5 L75.4,70.5 L78.7,70.5 L81.9,70.5 L85.1,70.5 L88.4,70.5 L91.6,70.5 L94.9,70.5 L98.1,70.5 L101,70.5 L105,70.5 L108,70.5 L111,70.5 L114,70.5 L118,70.5 L121,70.5 L124,70.5 L127,70.5 L130,70.5 L134,48.4 L137,70.5 L140,70.5 L143,70.5 L147,70.5 L150,70.5 L153,70.5 L156,70.5 L160,70.5 L163,70.5 L166,70.5 L169,70.5 L173,70.5 L176,70.5 L179,70.5 L182,70.5 L186,70.5 L189,70.5 L192,70.5 L195,70.5 L199,70.5 L202,70.5 L205,70.5 L208,70.5 L212,70.5 L215,70.5 L218,70.5 L221,70.5 L224,70.5 L228,70.5 L231,70.5 L234,70.5 L237,70.5 L241,70.5 L244,70.5 L247,70.5 L250,70.5 L254,70.5 L257,70.5 L260,70.5 L263,70.5 L267,70.5 L270,70.5 L273,70.5 L276,70.5 L280,70.5 L283,70.5 L286,70.5 L289,70.5 L292,70.5 L296,70.5 L299,70.5 L302,70.5 L305,70.5 L309,70.5 L312,70.5 L315,70.5 L318,70.5 L322,70.5 L325,70.5 L328,70.5 L331,70.5 L335,70.5 L338,70.5 L341,70.5 L344,70.5 L348,70.5 L351,70.5 L354,70.5 L357,70.5 L361,70.5 L364,70.5 L367,70.5 L370,70.5 L374,70.5 L377,70.5 L380,70.5 L383,70.5 L386,70.5 L390,70.5 L393,70.5 L396,70.5 L399,70.5 L403,70.5 L406,70.5 L409,70.5 L412,70.5 L416,70.5 L419,70.5 L422,70.5 L425,70.5 L429,70.5 L432,70.5 L435,70.5 L438,70.5 L442,70.5 L445,70.5 L448,70.5 L451,70.5 L454,70.5 L458,70.5 L461,70.5 L464,70.5 L467,70.5 L471,70.5 L474,70.5 L477,70.5 L480,70.5 L484,70.5 L487,70.5 L490,70.5 L493,70.5 L497,70.5 L500,70.5 L503,70.5 L506,70.5 L510,70.5 L513,70.5 L516,70.5 L519,70.5 L523,70.5 L526,70.5 L529,70.5 L532,70.5 L536,70.5 L539,70.5 L542,70.5 L545,70.5 L548,70.5 L552,70.5 L555,70.5 L558,70.5 L561,70.5 L565,70.5 L568,70.5 L571,70.5 L574,70.5 L578,70.5 L581,70.5 L584,70.5 L587,70.5 L591,70.5 L594,70.5 L597,70.5 L600,70.5 L604,70.5 L607,70.5 L610,70.5 L613,70.5 L616,70.5 L620,70.5 L623,70.5 L626,70.5 L629,70.5 L633,70.5 L636,70.5 L639,70.5 L642,70.5 L646,70.5 L649,70.5 L652,70.5 L655,70.5 L659,70.5 L662,70.5 L665,70.5 L668,70.5 L672,70.5 L675,70.5 L678,70.5 L681,70.5 L685,70.5 L688,70.5 L691,70.5 L694,70.5 L694,70.5 Z" fill="rgb(0,128,0)"/></g>
<g clip-path="url(#plot_window)" stroke="rgb(0,0,0)" fill="rgb(0,128,0)" stroke-width="2"><path d="M49.5,70.5 L49.5,70.5 L49.5,70.5 L52.7,70.5 L56,70.5 L59.2,70.5 L62.5,70.5 L65.7,70.5 L68.9,70.5 L72.2,70.5 L75.4,70.5 L78.7,70.5 L81.9,70.5 L85.1,70.5 L88.4,70.5 L91.6,70.5 L94.9,70.5 L98.1,70.5 L101,70.5 L105,70.5 L108,70.5 L111,70.5 L114,70.5 L118,70.5 L121,70.5 L124,70.5 L127,70.5 L130,70.5 L134,70.5 L137,70.5 L140,70.5 L143,70.5 L147,70.5 L150,70.5 L153,70.5 L156,70.5 L160,70.5 L163,70.5 L166,70.5 L169,70.5 L173,70.5 L176,70.5 L179,70.5 L182,70.5 L186,70.5 L189,70.5 L192,70.5 L195,70.5 L199,70.5 L202,70.5 L205,70.5 L208,70.5 L212,70.5 L215,70.5 L218,70.5 L221,70.5 L224,70.5 L228,70.5 L231,70.5 L234,70.5 L237,70.5 L241,70.5 L244,70.5 L247,70.5 L250,70.5 L254,70.5 L257,70.5 L260,70.5 L263,70.5 L267,70.5 L270,70.5 L273,70.5 L276,70.5 L280,70.5 L283,70.5 L286,70.5 L289,70.5 L292,70.5 L296,70.5 L299,70.5 L302,70.5 L305,70.5 L309,70.5 L312,70.5 L315,70.5 L318,70.5 L322,70.5 L325,70.5 L328,70.5 L331,70.5 L335,70.5 L338,70.5 L341,70.5 L344,70.5 L348,70.5 L351,70.5 L354,70.5 L357,70.5 L361,70.5 L364,70.5 L367,70.5 L370,70.5 L374,70.5 L377,70.5 L380,70.5 L383,70.5 L386,70.5 L390,70.5 L393,70.5 L396,70.5 L399,70.5 L403,70.5 L406,70.5 L409,70.5 L412,70.5 L416,70.5 L419,70.5 L422,70.5 L425,70.5 L429,70.5 L432,70.5 L435,70.5 L438,70.5 L442,70.5 L445,70.5 L448,70.5 L451,70.5 L454,70.5 L458,70.5 L461,70.5 L464,70.5 L467,70.5 L471,70.5 L474,70.5 L477,70.5 L480,70.5 L484,70.5 L487,84.4 L490,70.5 L493,70.5 L497,70.5 L500,70.5 L503,84.2 L506,70.5 L510,70.5 L513,70.5 L516,70.5 L519,70.5 L523,70.5 L526,70.5 L529,70.5 L532,70.5 L536,70.5 L539,70.5 L542,70.5 L545,70.5 L548,70.5 L552,70.5 L555,70.5 L558,70.5 L561,70.5 L565,70.5 L568,70.5 L571,70.5 L574,82.8 L578,70.5 L581,70.5 L584,70.5 L587,70.5 L591,70.5 L594,70.5 L597,70.5 L600,70.5 L604,70.5 L607,70.5 L610,70.5 L613,70.5 L616,70.5 L620,70.5 L623,70.5 L626,70.5 L629,70.5 L633,70.5 L636,70.5 L639,70.5 L642,70.5 L646,70.5 L649,70.5 L652,70.5 L655,70.5 L659,70.5 L662,70.5 L665,70.5 L668,70.5 L672,70.5 L675,70.5 L678,70.5 L681,84.4 L685,70.5 L688,70.5 L691,70.5 L694,344 L694,70.5 Z" fill="rgb(0,128,0)"/></g>
</g>
<g id="plotPoints" clip-path="url(#plot_window)"><g stroke="rgb(0,128,0)" fill="rgb(0,128,0)"><circle cx="52.7" cy="70.5" r="0"/><circle cx="56" cy="70.5" r="0"/><circle cx="59.2" cy="70.5" r="0"/><circle cx="62.5" cy="70.5" r="0"/><circle cx="65.7" cy="70.5" r="0"/><circle cx="68.9" cy="70.5" r="0"/><circle cx="72.2" cy="70.5" r="0"/><circle cx="75.4" cy="70.5" r="0"/><circle cx="78.7" cy="70.5" r="0"/><circle cx="81.9" cy="70.5" r="0"/><circle cx="85.1" cy="70.5" r="0"/><circle cx="88.4" cy="70.5" r="0"/><circle cx="91.6" cy="70.5" r="0"/><circle cx="94.9" cy="70.5" r="0"/><circle cx="98.1" cy="70.5" r="0"/><circle cx="101" cy="70.5" r="0"/><circle cx="105" cy="70.5" r="0"/><circle cx="108" cy="70.5" r="0"/><circle cx="111" cy="70.5" r="0"/><circle cx="114" cy="70.5" r="0"/><circle cx="118" cy="70.5" r="0"/><circle cx="121" cy="70.5" r="0"/><circle cx="124" cy="70.5" r="0"/><circle cx="127" cy="70.5" r="0"/><circle cx="130" cy="70.5" r="0"/><circle cx="134" cy="48.4" r="0"/><circle cx="137" cy="70.5" r="0"/><circle cx="140" cy="70.5" r="0"/><circle cx="143" cy="70.5" r="0"/><circle cx="147" cy="70.5" r="0"/><circle cx="150" cy="70.5" r="0"/><circle cx="153" cy="70.5" r="0"/><circle cx="156" cy="70.5" r="0"/><circle cx="160" cy="70.5" r="0"/><circle cx="163" cy="70.5" r="0"/><circle cx="166" cy="70.5" r="0"/><circle cx="169" cy="70.5" r="0"/><circle cx="173" cy="70.5" r="0"/><circle cx="176" cy="70.5" r="0"/><circle cx="179" cy="70.5" r="0"/><circle cx="182" cy="70.5" r="0"/><circle cx="186" cy="70.5" r="0"/><circle cx="189" cy="70.5" r="0"/><circle cx="192" cy="70.5" r="0"/><circle cx="195" cy="70.5" r="0"/><circle cx="199" cy="70.5" r="0"/><circle cx="202" cy="70.5" r="0"/><circle cx="205" cy="70.5" r="0"/><circle cx="208" cy="70.5" r="0"/><circle cx="212" cy="70.5" r="0"/><circle cx="215" cy="70.5" r="0"/><circle cx="218" cy="70.5" r="0"/><circle cx="221" cy="70.5" r="0"/><circle cx="224" cy="70.5" r="0"/><circle cx="228" cy="70.5" r="0"/><circle cx="231" cy="70.5" r="0"/><circle cx="234" cy="70.5" r="0"/><circle cx="237" cy="70.5" r="0"/><circle cx="241" cy="70.5" r="0"/><circle cx="244" cy="70.5" r="0"/><circle cx="247" cy="70.5" r="0"/><circle cx="250" cy="70.5" r="0"/><circle cx="254" cy="70.5" r="0"/><circle cx="257" cy="70.5" r="0"/><circle cx="260" cy="70.5" r="0"/><circle cx="263" cy="70.5" r="0"/><circle cx="267" cy="70.5" r="0"/><circle cx="270" cy="70.5" r="0"/><circle cx="273" cy="70.5" r="0"/><circle cx="276" cy="70.5" r="0"/><circle cx="280" cy="70.5" r="0"/><circle cx="283" cy="70.5" r="0"/><circle cx="286" cy="70.5" r="0"/><circle cx="289" cy="70.5" r="0"/><circle cx="292" cy="70.5" r="0"/><circle cx="296" cy="70.5" r="0"/><circle cx="299" cy="70.5" r="0"/><circle cx="302" cy="70.5" r="0"/><circle cx="305" cy="70.5" r="0"/><circle cx="309" cy="70.5" r="0"/><circle cx="312" cy="70.5" r="0"/><circle cx="315" cy="70.5" r="0"/><circle cx="318" cy="70.5" r="0"/><circle cx="322" cy="70.5" r="0"/><circle cx="325" cy="70.5" r="0"/><circle cx="328" cy="70.5" r="0"/><circle cx="331" cy="70.5" r="0"/><circle cx="335" cy="70.5" r="0"/><circle cx="338" cy="70.5" r="0"/><circle cx="341" cy="70.5" r="0"/><circle cx="344" cy="70.5" r="0"/><circle cx="348" cy="70.5" r="0"/><circle cx="351" cy="70.5" r="0"/><circle cx="354" cy="70.5" r="0"/><circle cx="357" cy="70.5" r="0"/><circle cx="361" cy="70.5" r="0"/><circle cx="364" cy="70.5" r="0"/><circle cx="367" cy="70.5" r="0"/><circle cx="370" cy="70.5" r="0"/><circle cx="374" cy="70.5" r="0"/><circle cx="377" cy="70.5" r="0"/><circle cx="380" cy="70.5" r="0"/><circle cx="383" cy="70.5" r="0"/><circle cx="386" cy="70.5" r="0"/><circle cx="390" cy="70.5" r="0"/><circle cx="393" cy="70.5" r="0"/><circle cx="396" cy="70.5" r="0"/><circle cx="399" cy="70.5" r="0"/><circle cx="403" cy="70.5" r="0"/><circle cx="406" cy="70.5" r="0"/><circle cx="409" cy="70.5" r="0"/><circle cx="412" cy="70.5" r="0"/><circle cx="416" cy="70.5" r="0"/><circle cx="419" cy="70.5" r="0"/><circle cx="422" cy="70.5" r="0"/><circle cx="425" cy="70.5" r="0"/><circle cx="429" cy="70.5" r="0"/><circle cx="432" cy="70.5" r="0"/><circle cx="435" cy="70.5" r="0"/><circle cx="438" cy="70.5" r="0"/><circle cx="442" cy="70.5" r="0"/><circle cx="445" cy="70.5" r="0"/><circle cx="448" cy="70.5" r="0"/><circle cx="451" cy="70.5" r="0"/><circle cx="454" cy="70.5" r="0"/><circle cx="458" cy="70.5" r="0"/><circle cx="461" cy="70.5" r="0"/><circle cx="464" cy="70.5" r="0"/><circle cx="467" cy="70.5" r="0"/><circle cx="471" cy="70.5" r="0"/><circle cx="474" cy="70.5" r="0"/><circle cx="477" cy="70.5" r="0"/><circle cx="480" cy="70.5" r="0"/><circle cx="484" cy="70.5" r="0"/><circle cx="487" cy="70.5" r="0"/><circle cx="490" cy="70.5" r="0"/><circle cx="493" cy="70.5" r="0"/><circle cx="497" cy="70.5" r="0"/><circle cx="500" cy="70.5" r="0"/><circle cx="503" cy="70.5" r="0"/><circle cx="506" cy="70.5" r="0"/><circle cx="510" cy="70.5" r="0"/><circle cx="513" cy="70.5" r="0"/><circle cx="516" cy="70.5" r="0"/><circle cx="519" cy="70.5" r="0"/><circle cx="523" cy="70.5" r="0"/><circle cx="526" cy="70.5" r="0"/><circle cx="529" cy="70.5" r="0"/><circle cx="532" cy="70.5" r="0"/><circle cx="536" cy="70.5" r="0"/><circle cx="539" cy="70.5" r="0"/><circle cx="542" cy="70.5" r="0"/><circle cx="545" cy="70.5" r="0"/><circle cx="548" cy="70.5" r="0"/><circle cx="552" cy="70.5" r="0"/><circle cx="555" cy="70.5" r="0"/><circle cx="558" cy="70.5" r="0"/><circle cx="561" cy="70.5" r="0"/><circle cx="565" cy="70.5" r="0"/><circle cx="568" cy="70.5" r="0"/><circle cx="571" cy="70.5" r="0"/><circle cx="574" cy="70.5" r="0"/><circle cx="578" cy="70.5" r="0"/><circle cx="581" cy="70.5" r="0"/><circle cx="584" cy="70.5" r="0"/><circle cx="587" cy="70.5" r="0"/><circle cx="591" cy="70.5" r="0"/><circle cx="594" cy="70.5" r="0"/><circle cx="597" cy="70.5" r="0"/><circle cx="600" cy="70.5" r="0"/><circle cx="604" cy="70.5" r="0"/><circle cx="607" cy="70.5" r="0"/><circle cx="610" cy="70.5" r="0"/><circle cx="613" cy="70.5" r="0"/><circle cx="616" cy="70.5" r="0"/><circle cx="620" cy="70.5" r="0"/><circle cx="623" cy="70.5" r="0"/><circle cx="626" cy="70.5" r="0"/><circle cx="629" cy="70.5" r="0"/><circle cx="633" cy="70.5" r="0"/><circle cx="636" cy="70.5" r="0"/><circle cx="639" cy="70.5" r="0"/><circle cx="642" cy="70.5" r="0"/><circle cx="646" cy="70.5" r="0"/><circle cx="649" cy="70.5" r="0"/><circle cx="652" cy="70.5" r="0"/><circle cx="655" cy="70.5" r="0"/><circle cx="659" cy="70.5" r="0"/><circle cx="662" cy="70.5" r="0"/><circle cx="665" cy="70.5" r="0"/><circle cx="668" cy="70.5" r="0"/><circle cx="672" cy="70.5" r="0"/><circle cx="675" cy="70.5" r="0"/><circle cx="678" cy="70.5" r="0"/><circle cx="681" cy="70.5" r="0"/><circle cx="685" cy="70.5" r="0"/><circle cx="688" cy="70.5" r="0"/><circle cx="691" cy="70.5" r="0"/><circle cx="694" cy="70.5" r="0"/></g>
<g stroke="rgb(0,128,0)" fill="rgb(0,128,0)"><circle cx="52.7" cy="70.5" r="0"/><circle cx="56" cy="70.5" r="0"/><circle cx="59.2" cy="70.5" r="0"/><circle cx="62.5" cy="70.5" r="0"/><circle cx="65.7" cy="70.5" r="0"/><circle cx="68.9" cy="70.5" r="0"/><circle cx="72.2" cy="70.5" r="0"/><circle cx="75.4" cy="70.5" r="0"/><circle cx="78.7" cy="70.5" r="0"/><circle cx="81.9" cy="70.5" r="0"/><circle cx="85.1" cy="70.5" r="0"/><circle cx="88.4" cy="70.5" r="0"/><circle cx="91.6" cy="70.5" r="0"/><circle cx="94.9" cy="70.5" r="0"/><circle cx="98.1" cy="70.5" r="0"/><circle cx="101" cy="70.5" r="0"/><circle cx="105" cy="70.5" r="0"/><circle cx="108" cy="70.5" r="0"/><circle cx="111" cy="70.5" r="0"/><circle cx="114" cy="70.5" r="0"/><circle cx="118" cy="70.5" r="0"/><circle cx="121" cy="70.5" r="0"/><circle cx="124" cy="70.5" r="0"/><circle cx="127" cy="70.5" r="0"/><circle cx="130" cy="70.5" r="0"/><circle cx="134" cy="70.5" r="0"/><circle cx="137" cy="70.5" r="0"/><circle cx="140" cy="70.5" r="0"/><circle cx="143" cy="70.5" r="0"/><circle cx="147" cy="70.5" r="0"/><circle cx="150" cy="70.5" r="0"/><circle cx="153" cy="70.5" r="0"/><circle cx="156" cy="70.5" r="0"/><circle cx="160" cy="70.5" r="0"/><circle cx="163" cy="70.5" r="0"/><circle cx="166" cy="70.5" r="0"/><circle cx="169" cy="70.5" r="0"/><circle cx="173" cy="70.5" r="0"/><circle cx="176" cy="70.5" r="0"/><circle cx="179" cy="70.5" r="0"/><circle cx="182" cy="70.5" r="0"/><circle cx="186" cy="70.5" r="0"/><circle cx="189" cy="70.5" r="0"/><circle cx="192" cy="70.5" r="0"/><circle cx="195" cy="70.5" r="0"/><circle cx="199" cy="70.5" r="0"/><circle cx="202" cy="70.5" r="0"/><circle cx="205" cy="70.5" r="0"/><circle cx="208" cy="70.5" r="0"/><circle cx="212" cy="70.5" r="0"/><circle cx="215" cy="70.5" r="0"/><circle cx="218" cy="70.5" r="0"/><circle cx="221" cy="70.5" r="0"/><circle cx="224" cy="70.5" r="0"/><circle cx="228" cy="70.5" r="0"/><circle cx="231" cy="70.5" r="0"/><circle cx="234" cy="70.5" r="0"/><circle cx="237" cy="70.5" r="0"/><circle cx="241" cy="70.5" r="0"/><circle cx="244" cy="70.5" r="0"/><circle cx="247" cy="70.5" r="0"/><circle cx="250" cy="70.5" r="0"/><circle cx="254" cy="70.5" r="0"/><circle cx="257" cy="70.5" r="0"/><circle cx="260" cy="70.5" r="0"/><circle cx="263" cy="70.5" r="0"/><circle cx="267" cy="70.5" r="0"/><circle cx="270" cy="70.5" r="0"/><circle cx="273" cy="70.5" r="0"/><circle cx="276" cy="70.5" r="0"/><circle cx="280" cy="70.5" r="0"/><circle cx="283" cy="70.5" r="0"/><circle cx="286" cy="70.5" r="0"/><circle cx="289" cy="70.5" r="0"/><circle cx="292" cy="70.5" r="0"/><circle cx="296" cy="70.5" r="0"/><circle cx="299" cy="70.5" r="0"/><circle cx="302" cy="70.5" r="0"/><circle cx="305" cy="70.5" r="0"/><circle cx="309" cy="70.5" r="0"/><circle cx="312" cy="70.5" r="0"/><circle cx="315" cy="70.5" r="0"/><circle cx="318" cy="70.5" r="0"/><circle cx="322" cy="70.5" r="0"/><circle cx="325" cy="70.5" r="0"/><circle cx="328" cy="70.5" r="0"/><circle cx="331" cy="70.5" r="0"/><circle cx="335" cy="70.5" r="0"/><circle cx="338" cy="70.5" r="0"/><circle cx="341" cy="70.5" r="0"/><circle cx="344" cy="70.5" r="0"/><circle cx="348" cy="70.5" r="0"/><circle cx="351" cy="70.5" r="0"/><circle cx="354" cy="70.5" r="0"/><circle cx="357" cy="70.5" r="0"/><circle cx="361" cy="70.5" r="0"/><circle cx="364" cy="70.5" r="0"/><circle cx="367" cy="70.5" r="0"/><circle cx="370" cy="70.5" r="0"/><circle cx="374" cy="70.5" r="0"/><circle cx="377" cy="70.5" r="0"/><circle cx="380" cy="70.5" r="0"/><circle cx="383" cy="70.5" r="0"/><circle cx="386" cy="70.5" r="0"/><circle cx="390" cy="70.5" r="0"/><circle cx="393" cy="70.5" r="0"/><circle cx="396" cy="70.5" r="0"/><circle cx="399" cy="70.5" r="0"/><circle cx="403" cy="70.5" r="0"/><circle cx="406" cy="70.5" r="0"/><circle cx="409" cy="70.5" r="0"/><circle cx="412" cy="70.5" r="0"/><circle cx="416" cy="70.5" r="0"/><circle cx="419" cy="70.5" r="0"/><circle cx="422" cy="70.5" r="0"/><circle cx="425" cy="70.5" r="0"/><circle cx="429" cy="70.5" r="0"/><circle cx="432" cy="70.5" r="0"/><circle cx="435" cy="70.5" r="0"/><circle cx="438" cy="70.5" r="0"/><circle cx="442" cy="70.5" r="0"/><circle cx="445" cy="70.5" r="0"/><circle cx="448" cy="70.5" r="0"/><circle cx="451" cy="70.5" r="0"/><circle cx="454" cy="70.5" r="0"/><circle cx="458" cy="70.5" r="0"/><circle cx="461" cy="70.5" r="0"/><circle cx="464" cy="70.5" r="0"/><circle cx="467" cy="70.5" r="0"/><circle cx="471" cy="70.5" r="0"/><circle cx="474" cy="70.5" r="0"/><circle cx="477" cy="70.5" r="0"/><circle cx="480" cy="70.5" r="0"/><circle cx="484" cy="70.5" r="0"/><circle cx="487" cy="84.4" r="0"/><circle cx="490" cy="70.5" r="0"/><circle cx="493" cy="70.5" r="0"/><circle cx="497" cy="70.5" r="0"/><circle cx="500" cy="70.5" r="0"/><circle cx="503" cy="84.2" r="0"/><circle cx="506" cy="70.5" r="0"/><circle cx="510" cy="70.5" r="0"/><circle cx="513" cy="70.5" r="0"/><circle cx="516" cy="70.5" r="0"/><circle cx="519" cy="70.5" r="0"/><circle cx="523" cy="70.5" r="0"/><circle cx="526" cy="70.5" r="0"/><circle cx="529" cy="70.5" r="0"/><circle cx="532" cy="70.5" r="0"/><circle cx="536" cy="70.5" r="0"/><circle cx="539" cy="70.5" r="0"/><circle cx="542" cy="70.5" r="0"/><circle cx="545" cy="70.5" r="0"/><circle cx="548" cy="70.5" r="0"/><circle cx="552" cy="70.5" r="0"/><circle cx="555" cy="70.5" r="0"/><circle cx="558" cy="70.5" r="0"/><circle cx="561" cy="70.5" r="0"/><circle cx="565" cy="70.5" r="0"/><circle cx="568" cy="70.5" r="0"/><circle cx="571" cy="70.5" r="0"/><circle cx="574" cy="82.8" r="0"/><circle cx="578" cy="70.5" r="0"/><circle cx="581" cy="70.5" r="0"/><circle cx="584" cy="70.5" r="0"/><circle cx="587" cy="70.5" r="0"/><circle cx="591" cy="70.5" r="0"/><circle cx="594" cy="70.5" r="0"/><circle cx="597" cy="70.5" r="0"/><circle cx="600" cy="70.5" r="0"/><circle cx="604" cy="70.5" r="0"/><circle cx="607" cy="70.5" r="0"/><circle cx="610" cy="70.5" r="0"/><circle cx="613" cy="70.5" r="0"/><circle cx="616" cy="70.5" r="0"/><circle cx="620" cy="70.5" r="0"/><circle cx="623" cy="70.5" r="0"/><circle cx="626" cy="70.5" r="0"/><circle cx="629" cy="70.5" r="0"/><circle cx="633" cy="70.5" r="0"/><circle cx="636" cy="70.5" r="0"/><circle cx="639" cy="70.5" r="0"/><circle cx="642" cy="70.5" r="0"/><circle cx="646" cy="70.5" r="0"/><circle cx="649" cy="70.5" r="0"/><circle cx="652" cy="70.5" r="0"/><circle cx="655" cy="70.5" r="0"/><circle cx="659" cy="70.5" r="0"/><circle cx="662" cy="70.5" r="0"/><circle cx="665" cy="70.5" r="0"/><circle cx="668" cy="70.5" r="0"/><circle cx="672" cy="70.5" r="0"/><circle cx="675" cy="70.5" r="0"/><circle cx="678" cy="70.5" r="0"/><circle cx="681" cy="84.4" r="0"/><circle cx="685" cy="70.5" r="0"/><circle cx="688" cy="70.5" r="0"/><circle cx="691" cy="70.5" r="0"/><circle cx="694" cy="344" r="0"/></g>
</g>
<g id="title">
<text x="350" y="36" text-anchor="middle" font-size="18" font-family="Lucida Sans Unicode">Errors in Elliptic Integral D, double</text></g>
<g id="plotXValues"></g>
<g id="plotYValues"></g>
</svg>
