<?xml version="1.0" encoding="utf-8" standalone="no"?>
<!DOCTYPE svg PUBLIC "-//W3C//DTD SVG 1.1//EN"
  "http://www.w3.org/Graphics/SVG/1.1/DTD/svg11.dtd">
<svg xmlns:xlink="http://www.w3.org/1999/xlink" width="730.125pt" height="392.514375pt" viewBox="0 0 730.125 392.514375" xmlns="http://www.w3.org/2000/svg" version="1.1">
 <metadata>
  <rdf:RDF xmlns:dc="http://purl.org/dc/elements/1.1/" xmlns:cc="http://creativecommons.org/ns#" xmlns:rdf="http://www.w3.org/1999/02/22-rdf-syntax-ns#">
   <cc:Work>
    <dc:type rdf:resource="http://purl.org/dc/dcmitype/StillImage"/>
    <dc:date>2024-07-21T02:41:11.918601</dc:date>
    <dc:format>image/svg+xml</dc:format>
    <dc:creator>
     <cc:Agent>
      <dc:title>Matplotlib v3.9.0, https://matplotlib.org/</dc:title>
     </cc:Agent>
    </dc:creator>
   </cc:Work>
  </rdf:RDF>
 </metadata>
 <defs>
  <style type="text/css">*{stroke-linejoin: round; stroke-linecap: butt}</style>
 </defs>
 <g id="figure_1">
  <g id="patch_1">
   <path d="M 0 392.514375 
L 730.125 392.514375 
L 730.125 0 
L 0 0 
z
" style="fill: #ffffff"/>
  </g>
  <g id="axes_1">
   <g id="patch_2">
    <path d="M 50.14375 354.958125 
L 719.74375 354.958125 
L 719.74375 22.318125 
L 50.14375 22.318125 
z
" style="fill: #ffffff"/>
   </g>
   <g id="matplotlib.axis_1">
    <g id="xtick_1">
     <g id="line2d_1">
      <defs>
       <path id="mc4ac309384" d="M 0 0 
L 0 3.5 
" style="stroke: #000000; stroke-width: 0.8"/>
      </defs>
      <g>
       <use xlink:href="#mc4ac309384" x="50.14375" y="354.958125" style="stroke: #000000; stroke-width: 0.8"/>
      </g>
     </g>
     <g id="text_1">
      <!-- −8 -->
      <g transform="translate(42.772656 369.556562) scale(0.1 -0.1)">
       <defs>
        <path id="DejaVuSans-2212" d="M 678 2272 
L 4684 2272 
L 4684 1741 
L 678 1741 
L 678 2272 
z
" transform="scale(0.015625)"/>
        <path id="DejaVuSans-38" d="M 2034 2216 
Q 1584 2216 1326 1975 
Q 1069 1734 1069 1313 
Q 1069 891 1326 650 
Q 1584 409 2034 409 
Q 2484 409 2743 651 
Q 3003 894 3003 1313 
Q 3003 1734 2745 1975 
Q 2488 2216 2034 2216 
z
M 1403 2484 
Q 997 2584 770 2862 
Q 544 3141 544 3541 
Q 544 4100 942 4425 
Q 1341 4750 2034 4750 
Q 2731 4750 3128 4425 
Q 3525 4100 3525 3541 
Q 3525 3141 3298 2862 
Q 3072 2584 2669 2484 
Q 3125 2378 3379 2068 
Q 3634 1759 3634 1313 
Q 3634 634 3220 271 
Q 2806 -91 2034 -91 
Q 1263 -91 848 271 
Q 434 634 434 1313 
Q 434 1759 690 2068 
Q 947 2378 1403 2484 
z
M 1172 3481 
Q 1172 3119 1398 2916 
Q 1625 2713 2034 2713 
Q 2441 2713 2670 2916 
Q 2900 3119 2900 3481 
Q 2900 3844 2670 4047 
Q 2441 4250 2034 4250 
Q 1625 4250 1398 4047 
Q 1172 3844 1172 3481 
z
" transform="scale(0.015625)"/>
       </defs>
       <use xlink:href="#DejaVuSans-2212"/>
       <use xlink:href="#DejaVuSans-38" x="83.789062"/>
      </g>
     </g>
    </g>
    <g id="xtick_2">
     <g id="line2d_2">
      <g>
       <use xlink:href="#mc4ac309384" x="133.84375" y="354.958125" style="stroke: #000000; stroke-width: 0.8"/>
      </g>
     </g>
     <g id="text_2">
      <!-- −6 -->
      <g transform="translate(126.472656 369.556562) scale(0.1 -0.1)">
       <defs>
        <path id="DejaVuSans-36" d="M 2113 2584 
Q 1688 2584 1439 2293 
Q 1191 2003 1191 1497 
Q 1191 994 1439 701 
Q 1688 409 2113 409 
Q 2538 409 2786 701 
Q 3034 994 3034 1497 
Q 3034 2003 2786 2293 
Q 2538 2584 2113 2584 
z
M 3366 4563 
L 3366 3988 
Q 3128 4100 2886 4159 
Q 2644 4219 2406 4219 
Q 1781 4219 1451 3797 
Q 1122 3375 1075 2522 
Q 1259 2794 1537 2939 
Q 1816 3084 2150 3084 
Q 2853 3084 3261 2657 
Q 3669 2231 3669 1497 
Q 3669 778 3244 343 
Q 2819 -91 2113 -91 
Q 1303 -91 875 529 
Q 447 1150 447 2328 
Q 447 3434 972 4092 
Q 1497 4750 2381 4750 
Q 2619 4750 2861 4703 
Q 3103 4656 3366 4563 
z
" transform="scale(0.015625)"/>
       </defs>
       <use xlink:href="#DejaVuSans-2212"/>
       <use xlink:href="#DejaVuSans-36" x="83.789062"/>
      </g>
     </g>
    </g>
    <g id="xtick_3">
     <g id="line2d_3">
      <g>
       <use xlink:href="#mc4ac309384" x="217.54375" y="354.958125" style="stroke: #000000; stroke-width: 0.8"/>
      </g>
     </g>
     <g id="text_3">
      <!-- −4 -->
      <g transform="translate(210.172656 369.556562) scale(0.1 -0.1)">
       <defs>
        <path id="DejaVuSans-34" d="M 2419 4116 
L 825 1625 
L 2419 1625 
L 2419 4116 
z
M 2253 4666 
L 3047 4666 
L 3047 1625 
L 3713 1625 
L 3713 1100 
L 3047 1100 
L 3047 0 
L 2419 0 
L 2419 1100 
L 313 1100 
L 313 1709 
L 2253 4666 
z
" transform="scale(0.015625)"/>
       </defs>
       <use xlink:href="#DejaVuSans-2212"/>
       <use xlink:href="#DejaVuSans-34" x="83.789062"/>
      </g>
     </g>
    </g>
    <g id="xtick_4">
     <g id="line2d_4">
      <g>
       <use xlink:href="#mc4ac309384" x="301.24375" y="354.958125" style="stroke: #000000; stroke-width: 0.8"/>
      </g>
     </g>
     <g id="text_4">
      <!-- −2 -->
      <g transform="translate(293.872656 369.556562) scale(0.1 -0.1)">
       <defs>
        <path id="DejaVuSans-32" d="M 1228 531 
L 3431 531 
L 3431 0 
L 469 0 
L 469 531 
Q 828 903 1448 1529 
Q 2069 2156 2228 2338 
Q 2531 2678 2651 2914 
Q 2772 3150 2772 3378 
Q 2772 3750 2511 3984 
Q 2250 4219 1831 4219 
Q 1534 4219 1204 4116 
Q 875 4013 500 3803 
L 500 4441 
Q 881 4594 1212 4672 
Q 1544 4750 1819 4750 
Q 2544 4750 2975 4387 
Q 3406 4025 3406 3419 
Q 3406 3131 3298 2873 
Q 3191 2616 2906 2266 
Q 2828 2175 2409 1742 
Q 1991 1309 1228 531 
z
" transform="scale(0.015625)"/>
       </defs>
       <use xlink:href="#DejaVuSans-2212"/>
       <use xlink:href="#DejaVuSans-32" x="83.789062"/>
      </g>
     </g>
    </g>
    <g id="xtick_5">
     <g id="line2d_5">
      <g>
       <use xlink:href="#mc4ac309384" x="384.94375" y="354.958125" style="stroke: #000000; stroke-width: 0.8"/>
      </g>
     </g>
     <g id="text_5">
      <!-- 0 -->
      <g transform="translate(381.7625 369.556562) scale(0.1 -0.1)">
       <defs>
        <path id="DejaVuSans-30" d="M 2034 4250 
Q 1547 4250 1301 3770 
Q 1056 3291 1056 2328 
Q 1056 1369 1301 889 
Q 1547 409 2034 409 
Q 2525 409 2770 889 
Q 3016 1369 3016 2328 
Q 3016 3291 2770 3770 
Q 2525 4250 2034 4250 
z
M 2034 4750 
Q 2819 4750 3233 4129 
Q 3647 3509 3647 2328 
Q 3647 1150 3233 529 
Q 2819 -91 2034 -91 
Q 1250 -91 836 529 
Q 422 1150 422 2328 
Q 422 3509 836 4129 
Q 1250 4750 2034 4750 
z
" transform="scale(0.015625)"/>
       </defs>
       <use xlink:href="#DejaVuSans-30"/>
      </g>
     </g>
    </g>
    <g id="xtick_6">
     <g id="line2d_6">
      <g>
       <use xlink:href="#mc4ac309384" x="468.64375" y="354.958125" style="stroke: #000000; stroke-width: 0.8"/>
      </g>
     </g>
     <g id="text_6">
      <!-- 2 -->
      <g transform="translate(465.4625 369.556562) scale(0.1 -0.1)">
       <use xlink:href="#DejaVuSans-32"/>
      </g>
     </g>
    </g>
    <g id="xtick_7">
     <g id="line2d_7">
      <g>
       <use xlink:href="#mc4ac309384" x="552.34375" y="354.958125" style="stroke: #000000; stroke-width: 0.8"/>
      </g>
     </g>
     <g id="text_7">
      <!-- 4 -->
      <g transform="translate(549.1625 369.556562) scale(0.1 -0.1)">
       <use xlink:href="#DejaVuSans-34"/>
      </g>
     </g>
    </g>
    <g id="xtick_8">
     <g id="line2d_8">
      <g>
       <use xlink:href="#mc4ac309384" x="636.04375" y="354.958125" style="stroke: #000000; stroke-width: 0.8"/>
      </g>
     </g>
     <g id="text_8">
      <!-- 6 -->
      <g transform="translate(632.8625 369.556562) scale(0.1 -0.1)">
       <use xlink:href="#DejaVuSans-36"/>
      </g>
     </g>
    </g>
    <g id="xtick_9">
     <g id="line2d_9">
      <g>
       <use xlink:href="#mc4ac309384" x="719.74375" y="354.958125" style="stroke: #000000; stroke-width: 0.8"/>
      </g>
     </g>
     <g id="text_9">
      <!-- 8 -->
      <g transform="translate(716.5625 369.556562) scale(0.1 -0.1)">
       <use xlink:href="#DejaVuSans-38"/>
      </g>
     </g>
    </g>
    <g id="text_10">
     <!-- $x$ -->
     <g transform="translate(381.94375 383.234687) scale(0.1 -0.1)">
      <defs>
       <path id="DejaVuSans-Oblique-78" d="M 3841 3500 
L 2234 1784 
L 3219 0 
L 2559 0 
L 1819 1388 
L 531 0 
L -166 0 
L 1556 1844 
L 641 3500 
L 1300 3500 
L 1972 2234 
L 3144 3500 
L 3841 3500 
z
" transform="scale(0.015625)"/>
      </defs>
      <use xlink:href="#DejaVuSans-Oblique-78" transform="translate(0 0.3125)"/>
     </g>
    </g>
   </g>
   <g id="matplotlib.axis_2">
    <g id="ytick_1">
     <g id="line2d_10">
      <defs>
       <path id="m01c4de5139" d="M 0 0 
L -3.5 0 
" style="stroke: #000000; stroke-width: 0.8"/>
      </defs>
      <g>
       <use xlink:href="#m01c4de5139" x="50.14375" y="340.077208" style="stroke: #000000; stroke-width: 0.8"/>
      </g>
     </g>
     <g id="text_11">
      <!-- 0.00 -->
      <g transform="translate(20.878125 343.876427) scale(0.1 -0.1)">
       <defs>
        <path id="DejaVuSans-2e" d="M 684 794 
L 1344 794 
L 1344 0 
L 684 0 
L 684 794 
z
" transform="scale(0.015625)"/>
       </defs>
       <use xlink:href="#DejaVuSans-30"/>
       <use xlink:href="#DejaVuSans-2e" x="63.623047"/>
       <use xlink:href="#DejaVuSans-30" x="95.410156"/>
       <use xlink:href="#DejaVuSans-30" x="159.033203"/>
      </g>
     </g>
    </g>
    <g id="ytick_2">
     <g id="line2d_11">
      <g>
       <use xlink:href="#m01c4de5139" x="50.14375" y="287.417353" style="stroke: #000000; stroke-width: 0.8"/>
      </g>
     </g>
     <g id="text_12">
      <!-- 0.05 -->
      <g transform="translate(20.878125 291.216572) scale(0.1 -0.1)">
       <defs>
        <path id="DejaVuSans-35" d="M 691 4666 
L 3169 4666 
L 3169 4134 
L 1269 4134 
L 1269 2991 
Q 1406 3038 1543 3061 
Q 1681 3084 1819 3084 
Q 2600 3084 3056 2656 
Q 3513 2228 3513 1497 
Q 3513 744 3044 326 
Q 2575 -91 1722 -91 
Q 1428 -91 1123 -41 
Q 819 9 494 109 
L 494 744 
Q 775 591 1075 516 
Q 1375 441 1709 441 
Q 2250 441 2565 725 
Q 2881 1009 2881 1497 
Q 2881 1984 2565 2268 
Q 2250 2553 1709 2553 
Q 1456 2553 1204 2497 
Q 953 2441 691 2322 
L 691 4666 
z
" transform="scale(0.015625)"/>
       </defs>
       <use xlink:href="#DejaVuSans-30"/>
       <use xlink:href="#DejaVuSans-2e" x="63.623047"/>
       <use xlink:href="#DejaVuSans-30" x="95.410156"/>
       <use xlink:href="#DejaVuSans-35" x="159.033203"/>
      </g>
     </g>
    </g>
    <g id="ytick_3">
     <g id="line2d_12">
      <g>
       <use xlink:href="#m01c4de5139" x="50.14375" y="234.757498" style="stroke: #000000; stroke-width: 0.8"/>
      </g>
     </g>
     <g id="text_13">
      <!-- 0.10 -->
      <g transform="translate(20.878125 238.556717) scale(0.1 -0.1)">
       <defs>
        <path id="DejaVuSans-31" d="M 794 531 
L 1825 531 
L 1825 4091 
L 703 3866 
L 703 4441 
L 1819 4666 
L 2450 4666 
L 2450 531 
L 3481 531 
L 3481 0 
L 794 0 
L 794 531 
z
" transform="scale(0.015625)"/>
       </defs>
       <use xlink:href="#DejaVuSans-30"/>
       <use xlink:href="#DejaVuSans-2e" x="63.623047"/>
       <use xlink:href="#DejaVuSans-31" x="95.410156"/>
       <use xlink:href="#DejaVuSans-30" x="159.033203"/>
      </g>
     </g>
    </g>
    <g id="ytick_4">
     <g id="line2d_13">
      <g>
       <use xlink:href="#m01c4de5139" x="50.14375" y="182.097644" style="stroke: #000000; stroke-width: 0.8"/>
      </g>
     </g>
     <g id="text_14">
      <!-- 0.15 -->
      <g transform="translate(20.878125 185.896862) scale(0.1 -0.1)">
       <use xlink:href="#DejaVuSans-30"/>
       <use xlink:href="#DejaVuSans-2e" x="63.623047"/>
       <use xlink:href="#DejaVuSans-31" x="95.410156"/>
       <use xlink:href="#DejaVuSans-35" x="159.033203"/>
      </g>
     </g>
    </g>
    <g id="ytick_5">
     <g id="line2d_14">
      <g>
       <use xlink:href="#m01c4de5139" x="50.14375" y="129.437789" style="stroke: #000000; stroke-width: 0.8"/>
      </g>
     </g>
     <g id="text_15">
      <!-- 0.20 -->
      <g transform="translate(20.878125 133.237008) scale(0.1 -0.1)">
       <use xlink:href="#DejaVuSans-30"/>
       <use xlink:href="#DejaVuSans-2e" x="63.623047"/>
       <use xlink:href="#DejaVuSans-32" x="95.410156"/>
       <use xlink:href="#DejaVuSans-30" x="159.033203"/>
      </g>
     </g>
    </g>
    <g id="ytick_6">
     <g id="line2d_15">
      <g>
       <use xlink:href="#m01c4de5139" x="50.14375" y="76.777934" style="stroke: #000000; stroke-width: 0.8"/>
      </g>
     </g>
     <g id="text_16">
      <!-- 0.25 -->
      <g transform="translate(20.878125 80.577153) scale(0.1 -0.1)">
       <use xlink:href="#DejaVuSans-30"/>
       <use xlink:href="#DejaVuSans-2e" x="63.623047"/>
       <use xlink:href="#DejaVuSans-32" x="95.410156"/>
       <use xlink:href="#DejaVuSans-35" x="159.033203"/>
      </g>
     </g>
    </g>
    <g id="ytick_7">
     <g id="line2d_16">
      <g>
       <use xlink:href="#m01c4de5139" x="50.14375" y="24.11808" style="stroke: #000000; stroke-width: 0.8"/>
      </g>
     </g>
     <g id="text_17">
      <!-- 0.30 -->
      <g transform="translate(20.878125 27.917298) scale(0.1 -0.1)">
       <defs>
        <path id="DejaVuSans-33" d="M 2597 2516 
Q 3050 2419 3304 2112 
Q 3559 1806 3559 1356 
Q 3559 666 3084 287 
Q 2609 -91 1734 -91 
Q 1441 -91 1130 -33 
Q 819 25 488 141 
L 488 750 
Q 750 597 1062 519 
Q 1375 441 1716 441 
Q 2309 441 2620 675 
Q 2931 909 2931 1356 
Q 2931 1769 2642 2001 
Q 2353 2234 1838 2234 
L 1294 2234 
L 1294 2753 
L 1863 2753 
Q 2328 2753 2575 2939 
Q 2822 3125 2822 3475 
Q 2822 3834 2567 4026 
Q 2313 4219 1838 4219 
Q 1578 4219 1281 4162 
Q 984 4106 628 3988 
L 628 4550 
Q 988 4650 1302 4700 
Q 1616 4750 1894 4750 
Q 2613 4750 3031 4423 
Q 3450 4097 3450 3541 
Q 3450 3153 3228 2886 
Q 3006 2619 2597 2516 
z
" transform="scale(0.015625)"/>
       </defs>
       <use xlink:href="#DejaVuSans-30"/>
       <use xlink:href="#DejaVuSans-2e" x="63.623047"/>
       <use xlink:href="#DejaVuSans-33" x="95.410156"/>
       <use xlink:href="#DejaVuSans-30" x="159.033203"/>
      </g>
     </g>
    </g>
    <g id="text_18">
     <!-- pdf -->
     <g transform="translate(14.798437 196.746719) rotate(-90) scale(0.1 -0.1)">
      <defs>
       <path id="DejaVuSans-70" d="M 1159 525 
L 1159 -1331 
L 581 -1331 
L 581 3500 
L 1159 3500 
L 1159 2969 
Q 1341 3281 1617 3432 
Q 1894 3584 2278 3584 
Q 2916 3584 3314 3078 
Q 3713 2572 3713 1747 
Q 3713 922 3314 415 
Q 2916 -91 2278 -91 
Q 1894 -91 1617 61 
Q 1341 213 1159 525 
z
M 3116 1747 
Q 3116 2381 2855 2742 
Q 2594 3103 2138 3103 
Q 1681 3103 1420 2742 
Q 1159 2381 1159 1747 
Q 1159 1113 1420 752 
Q 1681 391 2138 391 
Q 2594 391 2855 752 
Q 3116 1113 3116 1747 
z
" transform="scale(0.015625)"/>
       <path id="DejaVuSans-64" d="M 2906 2969 
L 2906 4863 
L 3481 4863 
L 3481 0 
L 2906 0 
L 2906 525 
Q 2725 213 2448 61 
Q 2172 -91 1784 -91 
Q 1150 -91 751 415 
Q 353 922 353 1747 
Q 353 2572 751 3078 
Q 1150 3584 1784 3584 
Q 2172 3584 2448 3432 
Q 2725 3281 2906 2969 
z
M 947 1747 
Q 947 1113 1208 752 
Q 1469 391 1925 391 
Q 2381 391 2643 752 
Q 2906 1113 2906 1747 
Q 2906 2381 2643 2742 
Q 2381 3103 1925 3103 
Q 1469 3103 1208 2742 
Q 947 2381 947 1747 
z
" transform="scale(0.015625)"/>
       <path id="DejaVuSans-66" d="M 2375 4863 
L 2375 4384 
L 1825 4384 
Q 1516 4384 1395 4259 
Q 1275 4134 1275 3809 
L 1275 3500 
L 2222 3500 
L 2222 3053 
L 1275 3053 
L 1275 0 
L 697 0 
L 697 3053 
L 147 3053 
L 147 3500 
L 697 3500 
L 697 3744 
Q 697 4328 969 4595 
Q 1241 4863 1831 4863 
L 2375 4863 
z
" transform="scale(0.015625)"/>
      </defs>
      <use xlink:href="#DejaVuSans-70"/>
      <use xlink:href="#DejaVuSans-64" x="63.476562"/>
      <use xlink:href="#DejaVuSans-66" x="126.953125"/>
     </g>
    </g>
   </g>
   <g id="line2d_17">
    <path d="M 49.980273 335.637225 
L 65.8375 334.736468 
L 79.406055 333.748322 
L 91.176367 332.671195 
L 101.475391 331.507482 
L 110.466602 330.273989 
L 118.64043 328.93033 
L 125.996875 327.496416 
L 132.699414 325.963427 
L 138.748047 324.356705 
L 144.30625 322.658409 
L 149.5375 320.832194 
L 154.441797 318.886916 
L 159.019141 316.836785 
L 163.433008 314.614802 
L 167.519922 312.314333 
L 171.443359 309.858567 
L 175.20332 307.251374 
L 178.963281 304.368326 
L 182.559766 301.325415 
L 185.992773 298.13496 
L 189.425781 294.639469 
L 192.858789 290.812286 
L 196.12832 286.833732 
L 199.397852 282.504964 
L 202.667383 277.801558 
L 205.936914 272.699471 
L 209.206445 267.175617 
L 212.475977 261.208555 
L 215.745508 254.779281 
L 219.015039 247.872129 
L 222.448047 240.092979 
L 225.881055 231.767874 
L 229.477539 222.462394 
L 233.2375 212.109084 
L 237.160938 200.65729 
L 241.411328 187.5681 
L 246.315625 171.714465 
L 252.527734 150.808208 
L 266.259766 104.305898 
L 270.510156 90.843377 
L 274.106641 80.17063 
L 277.212695 71.627824 
L 279.991797 64.609961 
L 282.607422 58.6153 
L 284.896094 53.90298 
L 287.021289 50.006116 
L 288.983008 46.841768 
L 290.78125 44.322401 
L 292.579492 42.180676 
L 294.214258 40.570427 
L 295.685547 39.401236 
L 297.156836 38.501485 
L 298.628125 37.874245 
L 299.935938 37.547229 
L 301.24375 37.438125 
L 302.551563 37.547229 
L 303.859375 37.874245 
L 305.167188 38.418287 
L 306.638477 39.287894 
L 308.109766 40.427327 
L 309.744531 42.005085 
L 311.379297 43.904569 
L 313.177539 46.356153 
L 315.139258 49.449308 
L 317.100977 52.961707 
L 319.226172 57.216324 
L 321.514844 62.289187 
L 324.130469 68.661769 
L 326.90957 76.038477 
L 330.015625 84.92754 
L 333.612109 95.926624 
L 337.8625 109.670928 
L 343.747656 129.525029 
L 356.825781 173.868152 
L 361.893555 190.136296 
L 366.307422 203.579726 
L 370.394336 215.326259 
L 374.154297 225.487518 
L 377.750781 234.603667 
L 381.347266 243.12064 
L 384.780273 250.69317 
L 388.213281 257.730744 
L 391.646289 264.248742 
L 394.91582 269.991652 
L 398.185352 275.301822 
L 401.454883 280.201609 
L 404.724414 284.714654 
L 407.993945 288.865258 
L 411.426953 292.860044 
L 414.859961 296.510094 
L 418.292969 299.842551 
L 421.889453 303.021423 
L 425.485938 305.908697 
L 429.245898 308.644295 
L 433.169336 311.220532 
L 437.25625 313.633115 
L 441.506641 315.880831 
L 445.920508 317.965166 
L 450.661328 319.954548 
L 455.729102 321.832026 
L 461.123828 323.586194 
L 466.845508 325.210684 
L 473.057617 326.740957 
L 479.760156 328.162964 
L 487.116602 329.496388 
L 495.29043 330.749291 
L 504.445117 331.921942 
L 514.744141 333.010211 
L 526.350977 334.008468 
L 539.756055 334.931929 
L 555.286328 335.772726 
L 573.595703 336.535163 
L 595.665039 337.223325 
L 622.638672 337.833163 
L 656.47832 338.366643 
L 700.453516 338.826137 
L 719.907227 338.974836 
L 719.907227 338.974836 
" clip-path="url(#pf6410d50f1)" style="fill: none; stroke: #1f77b4; stroke-width: 1.5; stroke-linecap: square"/>
   </g>
   <g id="line2d_18">
    <path d="M 49.980273 338.071949 
L 81.694727 337.446215 
L 106.706641 336.739774 
L 127.141211 335.946963 
L 144.142773 335.069584 
L 158.528711 334.108344 
L 170.789453 333.072324 
L 181.578906 331.940979 
L 191.060547 330.72629 
L 199.561328 329.414027 
L 207.08125 328.033561 
L 213.947266 326.552094 
L 220.159375 324.99208 
L 225.881055 323.335164 
L 231.275781 321.545156 
L 236.343555 319.628539 
L 241.084375 317.596976 
L 245.498242 315.467832 
L 249.748633 313.171262 
L 253.835547 310.705801 
L 257.758984 308.072776 
L 261.518945 305.276693 
L 265.11543 302.32555 
L 268.548438 299.231055 
L 271.981445 295.840149 
L 275.414453 292.126556 
L 278.683984 288.264811 
L 281.953516 284.0614 
L 285.223047 279.491883 
L 288.492578 274.532023 
L 291.762109 269.158326 
L 295.031641 263.348692 
L 298.301172 257.083165 
L 301.570703 250.344803 
L 305.003711 242.746513 
L 308.436719 234.603667 
L 312.033203 225.487518 
L 315.793164 215.326259 
L 319.716602 204.063026 
L 323.966992 191.157035 
L 328.707813 176.01054 
L 334.429492 156.92731 
L 351.758008 98.5149 
L 355.681445 86.386247 
L 359.114453 76.490237 
L 362.057031 68.661769 
L 364.672656 62.289187 
L 367.124805 56.873055 
L 369.413477 52.348029 
L 371.538672 48.635968 
L 373.500391 45.650545 
L 375.298633 43.301387 
L 376.933398 41.497651 
L 378.568164 40.017756 
L 380.039453 38.967879 
L 381.510742 38.188919 
L 382.818555 37.726121 
L 384.126367 37.48075 
L 385.43418 37.453471 
L 386.741992 37.644358 
L 388.049805 38.052894 
L 389.357617 38.677973 
L 390.828906 39.637897 
L 392.300195 40.866456 
L 393.934961 42.541483 
L 395.569727 44.536005 
L 397.367969 47.089108 
L 399.329688 50.288861 
L 401.454883 54.222223 
L 403.743555 58.97145 
L 406.195703 64.609961 
L 408.811328 71.197806 
L 411.753906 79.239709 
L 415.023438 88.847874 
L 418.783398 100.606015 
L 423.524219 116.211689 
L 431.207617 142.414706 
L 439.708398 171.174345 
L 444.939648 188.083582 
L 449.353516 201.635717 
L 453.44043 213.494856 
L 457.363867 224.198336 
L 461.123828 233.799634 
L 464.720313 242.37115 
L 468.15332 249.995221 
L 471.586328 257.083165 
L 475.019336 263.649846 
L 478.288867 269.437188 
L 481.558398 274.789654 
L 484.82793 279.72943 
L 488.097461 284.280063 
L 491.366992 288.46581 
L 494.8 292.494875 
L 498.233008 296.176573 
L 501.666016 299.538136 
L 505.2625 302.744898 
L 508.858984 305.657554 
L 512.618945 308.417185 
L 516.542383 311.015982 
L 520.629297 313.44957 
L 524.879688 315.716691 
L 529.293555 317.818823 
L 534.034375 319.824958 
L 538.938672 321.660608 
L 544.333398 323.436179 
L 550.055078 325.080034 
L 556.267188 326.62807 
L 562.969727 328.06609 
L 570.326172 329.414027 
L 578.5 330.68005 
L 587.491211 331.845173 
L 597.626758 332.931486 
L 609.233594 333.944855 
L 622.475195 334.871305 
L 637.841992 335.717646 
L 655.987891 336.487302 
L 677.730273 337.179146 
L 704.376953 337.795361 
L 719.907227 338.071949 
L 719.907227 338.071949 
" clip-path="url(#pf6410d50f1)" style="fill: none; stroke: #ff7f0e; stroke-width: 1.5; stroke-linecap: square"/>
   </g>
   <g id="line2d_19">
    <path d="M 49.980273 338.974836 
L 103.273633 338.491424 
L 142.181055 337.92682 
L 172.097266 337.27935 
L 195.801367 336.552879 
L 215.255078 335.741373 
L 231.439258 334.850874 
L 245.171289 333.880304 
L 257.105078 332.819202 
L 267.567578 331.66874 
L 276.722266 330.444063 
L 284.896094 329.133063 
L 292.252539 327.735338 
L 298.955078 326.242342 
L 305.167188 324.633295 
L 310.888867 322.922899 
L 316.120117 321.13354 
L 321.024414 319.228249 
L 325.601758 317.220911 
L 330.015625 315.045893 
L 334.266016 312.699316 
L 338.189453 310.285875 
L 342.112891 307.606484 
L 345.872852 304.761037 
L 349.469336 301.757793 
L 352.902344 298.608808 
L 356.335352 295.158499 
L 359.768359 291.380372 
L 363.037891 287.452243 
L 366.307422 283.177567 
L 369.576953 278.531905 
L 372.846484 273.491122 
L 376.116016 268.031949 
L 379.385547 262.132649 
L 382.655078 255.773798 
L 385.924609 248.939168 
L 389.357617 241.237637 
L 392.790625 232.990645 
L 396.387109 223.766172 
L 400.14707 213.494856 
L 404.070508 202.123332 
L 408.320898 189.111794 
L 413.061719 173.868152 
L 418.946875 154.150944 
L 434.640625 101.131502 
L 438.727539 88.352581 
L 442.160547 78.315916 
L 445.266602 69.92025 
L 448.045703 63.053307 
L 450.497852 57.562197 
L 452.786523 52.961707 
L 454.911719 49.175267 
L 456.873438 46.117899 
L 458.67168 43.700357 
L 460.469922 41.663566 
L 462.104688 40.150986 
L 463.575977 39.071211 
L 465.047266 38.262001 
L 466.355078 37.7721 
L 467.662891 37.499502 
L 468.970703 37.444945 
L 470.278516 37.608578 
L 471.586328 37.989957 
L 472.894141 38.588048 
L 474.36543 39.517905 
L 475.836719 40.716805 
L 477.471484 42.359478 
L 479.10625 44.322401 
L 480.904492 46.841768 
L 482.866211 50.006116 
L 484.991406 53.90298 
L 487.280078 58.6153 
L 489.732227 64.217283 
L 492.347852 70.769861 
L 495.29043 78.776913 
L 498.559961 88.352581 
L 502.319922 100.081595 
L 507.060742 115.662961 
L 514.580664 141.293237 
L 523.244922 170.633563 
L 528.476172 187.5681 
L 533.053516 201.635717 
L 537.14043 213.494856 
L 541.063867 224.198336 
L 544.823828 233.799634 
L 548.420313 242.37115 
L 551.85332 249.995221 
L 555.286328 257.083165 
L 558.719336 263.649846 
L 561.988867 269.437188 
L 565.258398 274.789654 
L 568.52793 279.72943 
L 571.797461 284.280063 
L 575.066992 288.46581 
L 578.5 292.494875 
L 581.933008 296.176573 
L 585.366016 299.538136 
L 588.9625 302.744898 
L 592.558984 305.657554 
L 596.318945 308.417185 
L 600.242383 311.015982 
L 604.329297 313.44957 
L 608.579688 315.716691 
L 612.993555 317.818823 
L 617.734375 319.824958 
L 622.638672 321.660608 
L 628.033398 323.436179 
L 633.755078 325.080034 
L 639.967188 326.62807 
L 646.669727 328.06609 
L 654.026172 329.414027 
L 662.2 330.68005 
L 671.191211 331.845173 
L 681.326758 332.931486 
L 692.933594 333.944855 
L 706.175195 334.871305 
L 719.907227 335.637225 
L 719.907227 335.637225 
" clip-path="url(#pf6410d50f1)" style="fill: none; stroke: #2ca02c; stroke-width: 1.5; stroke-linecap: square"/>
   </g>
   <g id="patch_3">
    <path d="M 50.14375 354.958125 
L 50.14375 22.318125 
" style="fill: none; stroke: #000000; stroke-width: 0.8; stroke-linejoin: miter; stroke-linecap: square"/>
   </g>
   <g id="patch_4">
    <path d="M 719.74375 354.958125 
L 719.74375 22.318125 
" style="fill: none; stroke: #000000; stroke-width: 0.8; stroke-linejoin: miter; stroke-linecap: square"/>
   </g>
   <g id="patch_5">
    <path d="M 50.14375 354.958125 
L 719.74375 354.958125 
" style="fill: none; stroke: #000000; stroke-width: 0.8; stroke-linejoin: miter; stroke-linecap: square"/>
   </g>
   <g id="patch_6">
    <path d="M 50.14375 22.318125 
L 719.74375 22.318125 
" style="fill: none; stroke: #000000; stroke-width: 0.8; stroke-linejoin: miter; stroke-linecap: square"/>
   </g>
   <g id="text_19">
    <!-- Holtsmark Distribution (scale = 1) -->
    <g transform="translate(282.535938 16.318125) scale(0.12 -0.12)">
     <defs>
      <path id="DejaVuSans-48" d="M 628 4666 
L 1259 4666 
L 1259 2753 
L 3553 2753 
L 3553 4666 
L 4184 4666 
L 4184 0 
L 3553 0 
L 3553 2222 
L 1259 2222 
L 1259 0 
L 628 0 
L 628 4666 
z
" transform="scale(0.015625)"/>
      <path id="DejaVuSans-6f" d="M 1959 3097 
Q 1497 3097 1228 2736 
Q 959 2375 959 1747 
Q 959 1119 1226 758 
Q 1494 397 1959 397 
Q 2419 397 2687 759 
Q 2956 1122 2956 1747 
Q 2956 2369 2687 2733 
Q 2419 3097 1959 3097 
z
M 1959 3584 
Q 2709 3584 3137 3096 
Q 3566 2609 3566 1747 
Q 3566 888 3137 398 
Q 2709 -91 1959 -91 
Q 1206 -91 779 398 
Q 353 888 353 1747 
Q 353 2609 779 3096 
Q 1206 3584 1959 3584 
z
" transform="scale(0.015625)"/>
      <path id="DejaVuSans-6c" d="M 603 4863 
L 1178 4863 
L 1178 0 
L 603 0 
L 603 4863 
z
" transform="scale(0.015625)"/>
      <path id="DejaVuSans-74" d="M 1172 4494 
L 1172 3500 
L 2356 3500 
L 2356 3053 
L 1172 3053 
L 1172 1153 
Q 1172 725 1289 603 
Q 1406 481 1766 481 
L 2356 481 
L 2356 0 
L 1766 0 
Q 1100 0 847 248 
Q 594 497 594 1153 
L 594 3053 
L 172 3053 
L 172 3500 
L 594 3500 
L 594 4494 
L 1172 4494 
z
" transform="scale(0.015625)"/>
      <path id="DejaVuSans-73" d="M 2834 3397 
L 2834 2853 
Q 2591 2978 2328 3040 
Q 2066 3103 1784 3103 
Q 1356 3103 1142 2972 
Q 928 2841 928 2578 
Q 928 2378 1081 2264 
Q 1234 2150 1697 2047 
L 1894 2003 
Q 2506 1872 2764 1633 
Q 3022 1394 3022 966 
Q 3022 478 2636 193 
Q 2250 -91 1575 -91 
Q 1294 -91 989 -36 
Q 684 19 347 128 
L 347 722 
Q 666 556 975 473 
Q 1284 391 1588 391 
Q 1994 391 2212 530 
Q 2431 669 2431 922 
Q 2431 1156 2273 1281 
Q 2116 1406 1581 1522 
L 1381 1569 
Q 847 1681 609 1914 
Q 372 2147 372 2553 
Q 372 3047 722 3315 
Q 1072 3584 1716 3584 
Q 2034 3584 2315 3537 
Q 2597 3491 2834 3397 
z
" transform="scale(0.015625)"/>
      <path id="DejaVuSans-6d" d="M 3328 2828 
Q 3544 3216 3844 3400 
Q 4144 3584 4550 3584 
Q 5097 3584 5394 3201 
Q 5691 2819 5691 2113 
L 5691 0 
L 5113 0 
L 5113 2094 
Q 5113 2597 4934 2840 
Q 4756 3084 4391 3084 
Q 3944 3084 3684 2787 
Q 3425 2491 3425 1978 
L 3425 0 
L 2847 0 
L 2847 2094 
Q 2847 2600 2669 2842 
Q 2491 3084 2119 3084 
Q 1678 3084 1418 2786 
Q 1159 2488 1159 1978 
L 1159 0 
L 581 0 
L 581 3500 
L 1159 3500 
L 1159 2956 
Q 1356 3278 1631 3431 
Q 1906 3584 2284 3584 
Q 2666 3584 2933 3390 
Q 3200 3197 3328 2828 
z
" transform="scale(0.015625)"/>
      <path id="DejaVuSans-61" d="M 2194 1759 
Q 1497 1759 1228 1600 
Q 959 1441 959 1056 
Q 959 750 1161 570 
Q 1363 391 1709 391 
Q 2188 391 2477 730 
Q 2766 1069 2766 1631 
L 2766 1759 
L 2194 1759 
z
M 3341 1997 
L 3341 0 
L 2766 0 
L 2766 531 
Q 2569 213 2275 61 
Q 1981 -91 1556 -91 
Q 1019 -91 701 211 
Q 384 513 384 1019 
Q 384 1609 779 1909 
Q 1175 2209 1959 2209 
L 2766 2209 
L 2766 2266 
Q 2766 2663 2505 2880 
Q 2244 3097 1772 3097 
Q 1472 3097 1187 3025 
Q 903 2953 641 2809 
L 641 3341 
Q 956 3463 1253 3523 
Q 1550 3584 1831 3584 
Q 2591 3584 2966 3190 
Q 3341 2797 3341 1997 
z
" transform="scale(0.015625)"/>
      <path id="DejaVuSans-72" d="M 2631 2963 
Q 2534 3019 2420 3045 
Q 2306 3072 2169 3072 
Q 1681 3072 1420 2755 
Q 1159 2438 1159 1844 
L 1159 0 
L 581 0 
L 581 3500 
L 1159 3500 
L 1159 2956 
Q 1341 3275 1631 3429 
Q 1922 3584 2338 3584 
Q 2397 3584 2469 3576 
Q 2541 3569 2628 3553 
L 2631 2963 
z
" transform="scale(0.015625)"/>
      <path id="DejaVuSans-6b" d="M 581 4863 
L 1159 4863 
L 1159 1991 
L 2875 3500 
L 3609 3500 
L 1753 1863 
L 3688 0 
L 2938 0 
L 1159 1709 
L 1159 0 
L 581 0 
L 581 4863 
z
" transform="scale(0.015625)"/>
      <path id="DejaVuSans-20" transform="scale(0.015625)"/>
      <path id="DejaVuSans-44" d="M 1259 4147 
L 1259 519 
L 2022 519 
Q 2988 519 3436 956 
Q 3884 1394 3884 2338 
Q 3884 3275 3436 3711 
Q 2988 4147 2022 4147 
L 1259 4147 
z
M 628 4666 
L 1925 4666 
Q 3281 4666 3915 4102 
Q 4550 3538 4550 2338 
Q 4550 1131 3912 565 
Q 3275 0 1925 0 
L 628 0 
L 628 4666 
z
" transform="scale(0.015625)"/>
      <path id="DejaVuSans-69" d="M 603 3500 
L 1178 3500 
L 1178 0 
L 603 0 
L 603 3500 
z
M 603 4863 
L 1178 4863 
L 1178 4134 
L 603 4134 
L 603 4863 
z
" transform="scale(0.015625)"/>
      <path id="DejaVuSans-62" d="M 3116 1747 
Q 3116 2381 2855 2742 
Q 2594 3103 2138 3103 
Q 1681 3103 1420 2742 
Q 1159 2381 1159 1747 
Q 1159 1113 1420 752 
Q 1681 391 2138 391 
Q 2594 391 2855 752 
Q 3116 1113 3116 1747 
z
M 1159 2969 
Q 1341 3281 1617 3432 
Q 1894 3584 2278 3584 
Q 2916 3584 3314 3078 
Q 3713 2572 3713 1747 
Q 3713 922 3314 415 
Q 2916 -91 2278 -91 
Q 1894 -91 1617 61 
Q 1341 213 1159 525 
L 1159 0 
L 581 0 
L 581 4863 
L 1159 4863 
L 1159 2969 
z
" transform="scale(0.015625)"/>
      <path id="DejaVuSans-75" d="M 544 1381 
L 544 3500 
L 1119 3500 
L 1119 1403 
Q 1119 906 1312 657 
Q 1506 409 1894 409 
Q 2359 409 2629 706 
Q 2900 1003 2900 1516 
L 2900 3500 
L 3475 3500 
L 3475 0 
L 2900 0 
L 2900 538 
Q 2691 219 2414 64 
Q 2138 -91 1772 -91 
Q 1169 -91 856 284 
Q 544 659 544 1381 
z
M 1991 3584 
L 1991 3584 
z
" transform="scale(0.015625)"/>
      <path id="DejaVuSans-6e" d="M 3513 2113 
L 3513 0 
L 2938 0 
L 2938 2094 
Q 2938 2591 2744 2837 
Q 2550 3084 2163 3084 
Q 1697 3084 1428 2787 
Q 1159 2491 1159 1978 
L 1159 0 
L 581 0 
L 581 3500 
L 1159 3500 
L 1159 2956 
Q 1366 3272 1645 3428 
Q 1925 3584 2291 3584 
Q 2894 3584 3203 3211 
Q 3513 2838 3513 2113 
z
" transform="scale(0.015625)"/>
      <path id="DejaVuSans-28" d="M 1984 4856 
Q 1566 4138 1362 3434 
Q 1159 2731 1159 2009 
Q 1159 1288 1364 580 
Q 1569 -128 1984 -844 
L 1484 -844 
Q 1016 -109 783 600 
Q 550 1309 550 2009 
Q 550 2706 781 3412 
Q 1013 4119 1484 4856 
L 1984 4856 
z
" transform="scale(0.015625)"/>
      <path id="DejaVuSans-63" d="M 3122 3366 
L 3122 2828 
Q 2878 2963 2633 3030 
Q 2388 3097 2138 3097 
Q 1578 3097 1268 2742 
Q 959 2388 959 1747 
Q 959 1106 1268 751 
Q 1578 397 2138 397 
Q 2388 397 2633 464 
Q 2878 531 3122 666 
L 3122 134 
Q 2881 22 2623 -34 
Q 2366 -91 2075 -91 
Q 1284 -91 818 406 
Q 353 903 353 1747 
Q 353 2603 823 3093 
Q 1294 3584 2113 3584 
Q 2378 3584 2631 3529 
Q 2884 3475 3122 3366 
z
" transform="scale(0.015625)"/>
      <path id="DejaVuSans-65" d="M 3597 1894 
L 3597 1613 
L 953 1613 
Q 991 1019 1311 708 
Q 1631 397 2203 397 
Q 2534 397 2845 478 
Q 3156 559 3463 722 
L 3463 178 
Q 3153 47 2828 -22 
Q 2503 -91 2169 -91 
Q 1331 -91 842 396 
Q 353 884 353 1716 
Q 353 2575 817 3079 
Q 1281 3584 2069 3584 
Q 2775 3584 3186 3129 
Q 3597 2675 3597 1894 
z
M 3022 2063 
Q 3016 2534 2758 2815 
Q 2500 3097 2075 3097 
Q 1594 3097 1305 2825 
Q 1016 2553 972 2059 
L 3022 2063 
z
" transform="scale(0.015625)"/>
      <path id="DejaVuSans-3d" d="M 678 2906 
L 4684 2906 
L 4684 2381 
L 678 2381 
L 678 2906 
z
M 678 1631 
L 4684 1631 
L 4684 1100 
L 678 1100 
L 678 1631 
z
" transform="scale(0.015625)"/>
      <path id="DejaVuSans-29" d="M 513 4856 
L 1013 4856 
Q 1481 4119 1714 3412 
Q 1947 2706 1947 2009 
Q 1947 1309 1714 600 
Q 1481 -109 1013 -844 
L 513 -844 
Q 928 -128 1133 580 
Q 1338 1288 1338 2009 
Q 1338 2731 1133 3434 
Q 928 4138 513 4856 
z
" transform="scale(0.015625)"/>
     </defs>
     <use xlink:href="#DejaVuSans-48"/>
     <use xlink:href="#DejaVuSans-6f" x="75.195312"/>
     <use xlink:href="#DejaVuSans-6c" x="136.376953"/>
     <use xlink:href="#DejaVuSans-74" x="164.160156"/>
     <use xlink:href="#DejaVuSans-73" x="203.369141"/>
     <use xlink:href="#DejaVuSans-6d" x="255.46875"/>
     <use xlink:href="#DejaVuSans-61" x="352.880859"/>
     <use xlink:href="#DejaVuSans-72" x="414.160156"/>
     <use xlink:href="#DejaVuSans-6b" x="455.273438"/>
     <use xlink:href="#DejaVuSans-20" x="513.183594"/>
     <use xlink:href="#DejaVuSans-44" x="544.970703"/>
     <use xlink:href="#DejaVuSans-69" x="621.972656"/>
     <use xlink:href="#DejaVuSans-73" x="649.755859"/>
     <use xlink:href="#DejaVuSans-74" x="701.855469"/>
     <use xlink:href="#DejaVuSans-72" x="741.064453"/>
     <use xlink:href="#DejaVuSans-69" x="782.177734"/>
     <use xlink:href="#DejaVuSans-62" x="809.960938"/>
     <use xlink:href="#DejaVuSans-75" x="873.4375"/>
     <use xlink:href="#DejaVuSans-74" x="936.816406"/>
     <use xlink:href="#DejaVuSans-69" x="976.025391"/>
     <use xlink:href="#DejaVuSans-6f" x="1003.808594"/>
     <use xlink:href="#DejaVuSans-6e" x="1064.990234"/>
     <use xlink:href="#DejaVuSans-20" x="1128.369141"/>
     <use xlink:href="#DejaVuSans-28" x="1160.15625"/>
     <use xlink:href="#DejaVuSans-73" x="1199.169922"/>
     <use xlink:href="#DejaVuSans-63" x="1251.269531"/>
     <use xlink:href="#DejaVuSans-61" x="1306.25"/>
     <use xlink:href="#DejaVuSans-6c" x="1367.529297"/>
     <use xlink:href="#DejaVuSans-65" x="1395.3125"/>
     <use xlink:href="#DejaVuSans-20" x="1456.835938"/>
     <use xlink:href="#DejaVuSans-3d" x="1488.623047"/>
     <use xlink:href="#DejaVuSans-20" x="1572.412109"/>
     <use xlink:href="#DejaVuSans-31" x="1604.199219"/>
     <use xlink:href="#DejaVuSans-29" x="1667.822266"/>
    </g>
   </g>
   <g id="legend_1">
    <g id="patch_7">
     <path d="M 622.715625 74.3525 
L 712.74375 74.3525 
Q 714.74375 74.3525 714.74375 72.3525 
L 714.74375 29.318125 
Q 714.74375 27.318125 712.74375 27.318125 
L 622.715625 27.318125 
Q 620.715625 27.318125 620.715625 29.318125 
L 620.715625 72.3525 
Q 620.715625 74.3525 622.715625 74.3525 
z
" style="fill: #ffffff; opacity: 0.8; stroke: #cccccc; stroke-linejoin: miter"/>
    </g>
    <g id="line2d_20">
     <path d="M 624.715625 35.416562 
L 634.715625 35.416562 
L 644.715625 35.416562 
" style="fill: none; stroke: #1f77b4; stroke-width: 1.5; stroke-linecap: square"/>
    </g>
    <g id="text_20">
     <!-- location=-2 -->
     <g transform="translate(652.715625 38.916562) scale(0.1 -0.1)">
      <defs>
       <path id="DejaVuSans-2d" d="M 313 2009 
L 1997 2009 
L 1997 1497 
L 313 1497 
L 313 2009 
z
" transform="scale(0.015625)"/>
      </defs>
      <use xlink:href="#DejaVuSans-6c"/>
      <use xlink:href="#DejaVuSans-6f" x="27.783203"/>
      <use xlink:href="#DejaVuSans-63" x="88.964844"/>
      <use xlink:href="#DejaVuSans-61" x="143.945312"/>
      <use xlink:href="#DejaVuSans-74" x="205.224609"/>
      <use xlink:href="#DejaVuSans-69" x="244.433594"/>
      <use xlink:href="#DejaVuSans-6f" x="272.216797"/>
      <use xlink:href="#DejaVuSans-6e" x="333.398438"/>
      <use xlink:href="#DejaVuSans-3d" x="396.777344"/>
      <use xlink:href="#DejaVuSans-2d" x="480.566406"/>
      <use xlink:href="#DejaVuSans-32" x="516.650391"/>
     </g>
    </g>
    <g id="line2d_21">
     <path d="M 624.715625 50.094687 
L 634.715625 50.094687 
L 644.715625 50.094687 
" style="fill: none; stroke: #ff7f0e; stroke-width: 1.5; stroke-linecap: square"/>
    </g>
    <g id="text_21">
     <!-- location=0 -->
     <g transform="translate(652.715625 53.594687) scale(0.1 -0.1)">
      <use xlink:href="#DejaVuSans-6c"/>
      <use xlink:href="#DejaVuSans-6f" x="27.783203"/>
      <use xlink:href="#DejaVuSans-63" x="88.964844"/>
      <use xlink:href="#DejaVuSans-61" x="143.945312"/>
      <use xlink:href="#DejaVuSans-74" x="205.224609"/>
      <use xlink:href="#DejaVuSans-69" x="244.433594"/>
      <use xlink:href="#DejaVuSans-6f" x="272.216797"/>
      <use xlink:href="#DejaVuSans-6e" x="333.398438"/>
      <use xlink:href="#DejaVuSans-3d" x="396.777344"/>
      <use xlink:href="#DejaVuSans-30" x="480.566406"/>
     </g>
    </g>
    <g id="line2d_22">
     <path d="M 624.715625 64.772812 
L 634.715625 64.772812 
L 644.715625 64.772812 
" style="fill: none; stroke: #2ca02c; stroke-width: 1.5; stroke-linecap: square"/>
    </g>
    <g id="text_22">
     <!-- location=2 -->
     <g transform="translate(652.715625 68.272812) scale(0.1 -0.1)">
      <use xlink:href="#DejaVuSans-6c"/>
      <use xlink:href="#DejaVuSans-6f" x="27.783203"/>
      <use xlink:href="#DejaVuSans-63" x="88.964844"/>
      <use xlink:href="#DejaVuSans-61" x="143.945312"/>
      <use xlink:href="#DejaVuSans-74" x="205.224609"/>
      <use xlink:href="#DejaVuSans-69" x="244.433594"/>
      <use xlink:href="#DejaVuSans-6f" x="272.216797"/>
      <use xlink:href="#DejaVuSans-6e" x="333.398438"/>
      <use xlink:href="#DejaVuSans-3d" x="396.777344"/>
      <use xlink:href="#DejaVuSans-32" x="480.566406"/>
     </g>
    </g>
   </g>
  </g>
 </g>
 <defs>
  <clipPath id="pf6410d50f1">
   <rect x="50.14375" y="22.318125" width="669.6" height="332.64"/>
  </clipPath>
 </defs>
</svg>
