<?xml version="1.0" encoding="UTF-8" standalone="no"?>
<svg width="700" height ="400" version="1.1"
xmlns:svg ="http://www.w3.org/2000/svg"
xmlns:rdf="http://www.w3.org/1999/02/22-rdf-syntax-ns#"
xmlns:cc="http://web.resource.org/cc/"
xmlns:dc="http://purl.org/dc/elements/1.1/"
xmlns ="http://www.w3.org/2000/svg"
>
<!-- SVG plot written using Boost.Plot program (Creator Jacob Voytko) --> 
<!-- Use, modification and distribution of Boost.Plot subject to the --> 
<!-- Boost Software License, Version 1.0.--> 
<!-- (See accompanying file LICENSE_1_0.txt --> 
<!-- or copy at http://www.boost.org/LICENSE_1_0.txt) --> 

<clipPath id="plot_window"><rect x="42.1" y="48.5" width="654" height="297"/></clipPath>
<g id="imageBackground" stroke="rgb(211,211,211)" fill="rgb(255,255,255)" stroke-width="2"><rect x="0" y="0" width="700" height="400"/></g>
<g id="plotBackground" stroke="rgb(211,211,211)" fill="rgb(255,255,255)" stroke-width="2"><rect x="41.1" y="47.5" width="656" height="299"/></g>
<g id="yMinorGrid" stroke="rgb(200,220,255)" stroke-width="0.5"></g>
<g id="yMajorGrid" stroke="rgb(200,220,255)" stroke-width="1"></g>
<g id="xMinorGrid" stroke="rgb(200,220,255)" stroke-width="0.5"></g>
<g id="xMajorGrid" stroke="rgb(200,220,255)" stroke-width="1"></g>
<g id="yAxis" stroke="rgb(0,0,0)" stroke-width="1"><line x1="41.1" y1="47.5" x2="41.1" y2="352"/><line x1="41.1" y1="47.5" x2="41.1" y2="346"/></g>
<g id="xAxis" stroke="rgb(0,0,0)" stroke-width="1"><line x1="36.1" y1="247" x2="698" y2="247"/><line x1="36.1" y1="346" x2="698" y2="346"/></g>
<g id="yMinorTicks" stroke="rgb(0,0,0)" stroke-width="1"><path d="M39.1,243 L41.1,243 M39.1,239 L41.1,239 M39.1,235 L41.1,235 M39.1,231 L41.1,231 M39.1,223 L41.1,223 M39.1,219 L41.1,219 M39.1,215 L41.1,215 M39.1,211 L41.1,211 M39.1,203 L41.1,203 M39.1,199 L41.1,199 M39.1,195 L41.1,195 M39.1,191 L41.1,191 M39.1,183 L41.1,183 M39.1,179 L41.1,179 M39.1,175 L41.1,175 M39.1,171 L41.1,171 M39.1,163 L41.1,163 M39.1,159 L41.1,159 M39.1,155 L41.1,155 M39.1,151 L41.1,151 M39.1,143 L41.1,143 M39.1,139 L41.1,139 M39.1,135 L41.1,135 M39.1,131 L41.1,131 M39.1,123 L41.1,123 M39.1,119 L41.1,119 M39.1,115 L41.1,115 M39.1,111 L41.1,111 M39.1,103 L41.1,103 M39.1,99.3 L41.1,99.3 M39.1,95.3 L41.1,95.3 M39.1,91.4 L41.1,91.4 M39.1,83.4 L41.1,83.4 M39.1,79.4 L41.1,79.4 M39.1,75.4 L41.1,75.4 M39.1,71.4 L41.1,71.4 M39.1,63.4 L41.1,63.4 M39.1,59.5 L41.1,59.5 M39.1,55.5 L41.1,55.5 M39.1,51.5 L41.1,51.5 M39.1,247 L41.1,247 M39.1,251 L41.1,251 M39.1,255 L41.1,255 M39.1,259 L41.1,259 M39.1,263 L41.1,263 M39.1,267 L41.1,267 M39.1,271 L41.1,271 M39.1,275 L41.1,275 M39.1,279 L41.1,279 M39.1,283 L41.1,283 M39.1,287 L41.1,287 M39.1,287 L41.1,287 M39.1,291 L41.1,291 M39.1,295 L41.1,295 M39.1,299 L41.1,299 M39.1,303 L41.1,303 M39.1,307 L41.1,307 M39.1,311 L41.1,311 M39.1,315 L41.1,315 M39.1,319 L41.1,319 M39.1,323 L41.1,323 M39.1,327 L41.1,327 M39.1,331 L41.1,331 M39.1,335 L41.1,335 M39.1,339 L41.1,339 M39.1,343 L41.1,343 M39.1,346 L41.1,346 " fill="none"/></g>
<g id="xMinorTicks" stroke="rgb(0,0,0)" stroke-width="1"><path d="M67.4,346 L67.4,348 M93.6,346 L93.6,348 M120,346 L120,348 M146,346 L146,348 M199,346 L199,348 M225,346 L225,348 M251,346 L251,348 M277,346 L277,348 M330,346 L330,348 M356,346 L356,348 M382,346 L382,348 M409,346 L409,348 M461,346 L461,348 M487,346 L487,348 M514,346 L514,348 M540,346 L540,348 M592,346 L592,348 M619,346 L619,348 M645,346 L645,348 M671,346 L671,348 " fill="none"/></g>
<g id="yMajorTicks" stroke="rgb(0,0,0)" stroke-width="2"><path d="M36.1,247 L41.1,247 M36.1,227 L41.1,227 M36.1,207 L41.1,207 M36.1,187 L41.1,187 M36.1,167 L41.1,167 M36.1,147 L41.1,147 M36.1,127 L41.1,127 M36.1,107 L41.1,107 M36.1,87.4 L41.1,87.4 M36.1,67.4 L41.1,67.4 M36.1,47.5 L41.1,47.5 M36.1,247 L41.1,247 M36.1,267 L41.1,267 M36.1,287 L41.1,287 M36.1,307 L41.1,307 M36.1,327 L41.1,327 M36.1,346 L41.1,346 " fill="none"/></g>
<g id="xMajorTicks" stroke="rgb(0,0,0)" stroke-width="2"><path d="M41.1,346 L41.1,352 M172,346 L172,352 M304,346 L304,352 M435,346 L435,352 M566,346 L566,352 M698,346 L698,352 M41.1,346 L41.1,352 " fill="none"/></g>
<g id="xTicksValues">
<text x="41.1" y="367" text-anchor="middle" font-size="12" font-family="Lucida Sans Unicode">0</text>
<text x="172" y="367" text-anchor="middle" font-size="12" font-family="Lucida Sans Unicode">10</text>
<text x="304" y="367" text-anchor="middle" font-size="12" font-family="Lucida Sans Unicode">20</text>
<text x="435" y="367" text-anchor="middle" font-size="12" font-family="Lucida Sans Unicode">30</text>
<text x="566" y="367" text-anchor="middle" font-size="12" font-family="Lucida Sans Unicode">40</text>
<text x="698" y="367" text-anchor="middle" font-size="12" font-family="Lucida Sans Unicode">50</text>
<text x="41.1" y="367" text-anchor="middle" font-size="12" font-family="Lucida Sans Unicode">0</text></g>
<g id="yTicksValues">
<text x="30.1" y="249" text-anchor="end" font-size="12" font-family="Lucida Sans Unicode">0</text>
<text x="30.1" y="229" text-anchor="end" font-size="12" font-family="Lucida Sans Unicode">0.2</text>
<text x="30.1" y="209" text-anchor="end" font-size="12" font-family="Lucida Sans Unicode">0.4</text>
<text x="30.1" y="189" text-anchor="end" font-size="12" font-family="Lucida Sans Unicode">0.6</text>
<text x="30.1" y="170" text-anchor="end" font-size="12" font-family="Lucida Sans Unicode">0.8</text>
<text x="30.1" y="150" text-anchor="end" font-size="12" font-family="Lucida Sans Unicode">1</text>
<text x="30.1" y="130" text-anchor="end" font-size="12" font-family="Lucida Sans Unicode">1.2</text>
<text x="30.1" y="110" text-anchor="end" font-size="12" font-family="Lucida Sans Unicode">1.4</text>
<text x="30.1" y="89.8" text-anchor="end" font-size="12" font-family="Lucida Sans Unicode">1.6</text>
<text x="30.1" y="69.8" text-anchor="end" font-size="12" font-family="Lucida Sans Unicode">1.8</text>
<text x="30.1" y="49.9" text-anchor="end" font-size="12" font-family="Lucida Sans Unicode">2</text>
<text x="30.1" y="249" text-anchor="end" font-size="12" font-family="Lucida Sans Unicode">0</text>
<text x="30.1" y="269" text-anchor="end" font-size="12" font-family="Lucida Sans Unicode">-0.2</text>
<text x="30.1" y="289" text-anchor="end" font-size="12" font-family="Lucida Sans Unicode">-0.4</text>
<text x="30.1" y="309" text-anchor="end" font-size="12" font-family="Lucida Sans Unicode">-0.6</text>
<text x="30.1" y="329" text-anchor="end" font-size="12" font-family="Lucida Sans Unicode">-0.8</text>
<text x="30.1" y="349" text-anchor="end" font-size="12" font-family="Lucida Sans Unicode">-1</text></g>
<g id="yLabel">
<text x="-8.6" y="197" text-anchor="middle" transform = "rotate(-90 -8.6 197 )" font-size="14" font-family="Lucida Sans Unicode"></text></g>
<g id="xLabel">
<text x="369" y="382" text-anchor="middle" font-size="14" font-family="Lucida Sans Unicode">x</text></g>
<g id="plotLines" stroke-width="2"><g clip-path="url(#plot_window)" stroke="rgb(0,0,0)" fill="rgb(0,128,0)" stroke-width="2"><path d="M41.1,247 L41.1,247 L41.1,247 L44.4,247 L47.7,247 L50.9,247 L54.2,247 L57.5,247 L60.8,247 L64.1,247 L67.4,247 L70.6,247 L73.9,247 L77.2,247 L80.5,247 L83.8,247 L87,247 L90.3,247 L93.6,247 L96.9,247 L100,247 L103,247 L107,247 L110,247 L113,247 L117,247 L120,247 L123,247 L126,247 L130,247 L133,247 L136,247 L140,195 L143,247 L146,247 L149,247 L153,197 L156,247 L159,247 L163,247 L166,247 L169,247 L172,247 L176,247 L179,247 L182,247 L186,247 L189,186 L192,193 L195,179 L199,247 L202,247 L205,247 L208,182 L212,247 L215,247 L218,247 L222,247 L225,247 L228,247 L231,247 L235,247 L238,247 L241,247 L245,247 L248,247 L251,247 L254,183 L258,247 L261,247 L264,247 L268,247 L271,184 L274,176 L277,153 L281,247 L284,247 L287,247 L291,247 L294,247 L297,247 L300,247 L304,247 L307,247 L310,247 L314,247 L317,154 L320,247 L323,247 L327,247 L330,247 L333,247 L336,247 L340,247 L343,247 L346,247 L350,247 L353,247 L356,247 L359,247 L363,247 L366,247 L369,247 L373,247 L376,247 L379,247 L382,247 L386,247 L389,247 L392,247 L396,247 L399,247 L402,247 L405,196 L409,247 L412,247 L415,247 L419,247 L422,247 L425,247 L428,247 L432,185 L435,247 L438,247 L442,140 L445,247 L448,247 L451,247 L455,247 L458,247 L461,247 L464,247 L468,247 L471,247 L474,247 L478,247 L481,247 L484,247 L487,187 L491,247 L494,247 L497,194 L501,152 L504,247 L507,247 L510,247 L514,247 L517,247 L520,171 L524,180 L527,247 L530,247 L533,247 L537,247 L540,247 L543,247 L547,247 L550,247 L553,247 L556,247 L560,247 L563,247 L566,247 L570,247 L573,247 L576,247 L579,247 L583,247 L586,247 L589,247 L592,247 L596,247 L599,247 L602,247 L606,247 L609,247 L612,247 L615,247 L619,247 L622,247 L625,247 L629,247 L632,247 L635,247 L638,247 L642,247 L645,247 L648,247 L652,247 L655,247 L658,247 L661,247 L665,247 L668,247 L671,247 L675,247 L678,247 L681,247 L684,247 L688,247 L691,247 L694,247 L694,247 Z" fill="rgb(0,128,0)"/></g>
<g clip-path="url(#plot_window)" stroke="rgb(0,0,0)" fill="rgb(0,128,0)" stroke-width="2"><path d="M41.1,247 L41.1,247 L41.1,247 L44.4,247 L47.7,247 L50.9,247 L54.2,247 L57.5,247 L60.8,247 L64.1,247 L67.4,247 L70.6,247 L73.9,247 L77.2,247 L80.5,247 L83.8,247 L87,247 L90.3,247 L93.6,312 L96.9,247 L100,247 L103,247 L107,247 L110,247 L113,247 L117,247 L120,247 L123,247 L126,247 L130,247 L133,247 L136,247 L140,247 L143,247 L146,332 L149,247 L153,247 L156,247 L159,247 L163,247 L166,303 L169,298 L172,247 L176,247 L179,247 L182,247 L186,247 L189,247 L192,247 L195,247 L199,247 L202,247 L205,247 L208,247 L212,247 L215,247 L218,247 L222,247 L225,247 L228,247 L231,247 L235,247 L238,247 L241,247 L245,247 L248,247 L251,247 L254,247 L258,247 L261,247 L264,247 L268,247 L271,247 L274,247 L277,247 L281,247 L284,247 L287,247 L291,247 L294,247 L297,247 L300,247 L304,247 L307,247 L310,247 L314,247 L317,247 L320,247 L323,247 L327,247 L330,247 L333,332 L336,247 L340,247 L343,247 L346,343 L350,247 L353,247 L356,311 L359,346 L363,247 L366,247 L369,247 L373,247 L376,247 L379,247 L382,247 L386,247 L389,247 L392,247 L396,247 L399,247 L402,247 L405,247 L409,247 L412,247 L415,247 L419,247 L422,247 L425,247 L428,247 L432,247 L435,247 L438,247 L442,247 L445,247 L448,247 L451,247 L455,247 L458,247 L461,335 L464,339 L468,247 L471,247 L474,247 L478,346 L481,247 L484,312 L487,247 L491,247 L494,247 L497,247 L501,247 L504,247 L507,247 L510,247 L514,247 L517,247 L520,247 L524,247 L527,247 L530,247 L533,316 L537,247 L540,247 L543,247 L547,345 L550,247 L553,247 L556,247 L560,247 L563,247 L566,247 L570,247 L573,247 L576,247 L579,247 L583,247 L586,247 L589,247 L592,247 L596,247 L599,247 L602,247 L606,307 L609,247 L612,247 L615,247 L619,247 L622,247 L625,247 L629,247 L632,247 L635,247 L638,247 L642,247 L645,247 L648,247 L652,247 L655,247 L658,247 L661,247 L665,247 L668,301 L671,247 L675,247 L678,247 L681,247 L684,247 L688,247 L691,247 L694,247 L694,247 Z" fill="rgb(0,128,0)"/></g>
</g>
<g id="plotPoints" clip-path="url(#plot_window)"><g stroke="rgb(0,128,0)" fill="rgb(0,128,0)"><circle cx="44.4" cy="247" r="0"/><circle cx="47.7" cy="247" r="0"/><circle cx="50.9" cy="247" r="0"/><circle cx="54.2" cy="247" r="0"/><circle cx="57.5" cy="247" r="0"/><circle cx="60.8" cy="247" r="0"/><circle cx="64.1" cy="247" r="0"/><circle cx="67.4" cy="247" r="0"/><circle cx="70.6" cy="247" r="0"/><circle cx="73.9" cy="247" r="0"/><circle cx="77.2" cy="247" r="0"/><circle cx="80.5" cy="247" r="0"/><circle cx="83.8" cy="247" r="0"/><circle cx="87" cy="247" r="0"/><circle cx="90.3" cy="247" r="0"/><circle cx="93.6" cy="247" r="0"/><circle cx="96.9" cy="247" r="0"/><circle cx="100" cy="247" r="0"/><circle cx="103" cy="247" r="0"/><circle cx="107" cy="247" r="0"/><circle cx="110" cy="247" r="0"/><circle cx="113" cy="247" r="0"/><circle cx="117" cy="247" r="0"/><circle cx="120" cy="247" r="0"/><circle cx="123" cy="247" r="0"/><circle cx="126" cy="247" r="0"/><circle cx="130" cy="247" r="0"/><circle cx="133" cy="247" r="0"/><circle cx="136" cy="247" r="0"/><circle cx="140" cy="195" r="0"/><circle cx="143" cy="247" r="0"/><circle cx="146" cy="247" r="0"/><circle cx="149" cy="247" r="0"/><circle cx="153" cy="197" r="0"/><circle cx="156" cy="247" r="0"/><circle cx="159" cy="247" r="0"/><circle cx="163" cy="247" r="0"/><circle cx="166" cy="247" r="0"/><circle cx="169" cy="247" r="0"/><circle cx="172" cy="247" r="0"/><circle cx="176" cy="247" r="0"/><circle cx="179" cy="247" r="0"/><circle cx="182" cy="247" r="0"/><circle cx="186" cy="247" r="0"/><circle cx="189" cy="186" r="0"/><circle cx="192" cy="193" r="0"/><circle cx="195" cy="179" r="0"/><circle cx="199" cy="247" r="0"/><circle cx="202" cy="247" r="0"/><circle cx="205" cy="247" r="0"/><circle cx="208" cy="182" r="0"/><circle cx="212" cy="247" r="0"/><circle cx="215" cy="247" r="0"/><circle cx="218" cy="247" r="0"/><circle cx="222" cy="247" r="0"/><circle cx="225" cy="247" r="0"/><circle cx="228" cy="247" r="0"/><circle cx="231" cy="247" r="0"/><circle cx="235" cy="247" r="0"/><circle cx="238" cy="247" r="0"/><circle cx="241" cy="247" r="0"/><circle cx="245" cy="247" r="0"/><circle cx="248" cy="247" r="0"/><circle cx="251" cy="247" r="0"/><circle cx="254" cy="183" r="0"/><circle cx="258" cy="247" r="0"/><circle cx="261" cy="247" r="0"/><circle cx="264" cy="247" r="0"/><circle cx="268" cy="247" r="0"/><circle cx="271" cy="184" r="0"/><circle cx="274" cy="176" r="0"/><circle cx="277" cy="153" r="0"/><circle cx="281" cy="247" r="0"/><circle cx="284" cy="247" r="0"/><circle cx="287" cy="247" r="0"/><circle cx="291" cy="247" r="0"/><circle cx="294" cy="247" r="0"/><circle cx="297" cy="247" r="0"/><circle cx="300" cy="247" r="0"/><circle cx="304" cy="247" r="0"/><circle cx="307" cy="247" r="0"/><circle cx="310" cy="247" r="0"/><circle cx="314" cy="247" r="0"/><circle cx="317" cy="154" r="0"/><circle cx="320" cy="247" r="0"/><circle cx="323" cy="247" r="0"/><circle cx="327" cy="247" r="0"/><circle cx="330" cy="247" r="0"/><circle cx="333" cy="247" r="0"/><circle cx="336" cy="247" r="0"/><circle cx="340" cy="247" r="0"/><circle cx="343" cy="247" r="0"/><circle cx="346" cy="247" r="0"/><circle cx="350" cy="247" r="0"/><circle cx="353" cy="247" r="0"/><circle cx="356" cy="247" r="0"/><circle cx="359" cy="247" r="0"/><circle cx="363" cy="247" r="0"/><circle cx="366" cy="247" r="0"/><circle cx="369" cy="247" r="0"/><circle cx="373" cy="247" r="0"/><circle cx="376" cy="247" r="0"/><circle cx="379" cy="247" r="0"/><circle cx="382" cy="247" r="0"/><circle cx="386" cy="247" r="0"/><circle cx="389" cy="247" r="0"/><circle cx="392" cy="247" r="0"/><circle cx="396" cy="247" r="0"/><circle cx="399" cy="247" r="0"/><circle cx="402" cy="247" r="0"/><circle cx="405" cy="196" r="0"/><circle cx="409" cy="247" r="0"/><circle cx="412" cy="247" r="0"/><circle cx="415" cy="247" r="0"/><circle cx="419" cy="247" r="0"/><circle cx="422" cy="247" r="0"/><circle cx="425" cy="247" r="0"/><circle cx="428" cy="247" r="0"/><circle cx="432" cy="185" r="0"/><circle cx="435" cy="247" r="0"/><circle cx="438" cy="247" r="0"/><circle cx="442" cy="140" r="0"/><circle cx="445" cy="247" r="0"/><circle cx="448" cy="247" r="0"/><circle cx="451" cy="247" r="0"/><circle cx="455" cy="247" r="0"/><circle cx="458" cy="247" r="0"/><circle cx="461" cy="247" r="0"/><circle cx="464" cy="247" r="0"/><circle cx="468" cy="247" r="0"/><circle cx="471" cy="247" r="0"/><circle cx="474" cy="247" r="0"/><circle cx="478" cy="247" r="0"/><circle cx="481" cy="247" r="0"/><circle cx="484" cy="247" r="0"/><circle cx="487" cy="187" r="0"/><circle cx="491" cy="247" r="0"/><circle cx="494" cy="247" r="0"/><circle cx="497" cy="194" r="0"/><circle cx="501" cy="152" r="0"/><circle cx="504" cy="247" r="0"/><circle cx="507" cy="247" r="0"/><circle cx="510" cy="247" r="0"/><circle cx="514" cy="247" r="0"/><circle cx="517" cy="247" r="0"/><circle cx="520" cy="171" r="0"/><circle cx="524" cy="180" r="0"/><circle cx="527" cy="247" r="0"/><circle cx="530" cy="247" r="0"/><circle cx="533" cy="247" r="0"/><circle cx="537" cy="247" r="0"/><circle cx="540" cy="247" r="0"/><circle cx="543" cy="247" r="0"/><circle cx="547" cy="247" r="0"/><circle cx="550" cy="247" r="0"/><circle cx="553" cy="247" r="0"/><circle cx="556" cy="247" r="0"/><circle cx="560" cy="247" r="0"/><circle cx="563" cy="247" r="0"/><circle cx="566" cy="247" r="0"/><circle cx="570" cy="247" r="0"/><circle cx="573" cy="247" r="0"/><circle cx="576" cy="247" r="0"/><circle cx="579" cy="247" r="0"/><circle cx="583" cy="247" r="0"/><circle cx="586" cy="247" r="0"/><circle cx="589" cy="247" r="0"/><circle cx="592" cy="247" r="0"/><circle cx="596" cy="247" r="0"/><circle cx="599" cy="247" r="0"/><circle cx="602" cy="247" r="0"/><circle cx="606" cy="247" r="0"/><circle cx="609" cy="247" r="0"/><circle cx="612" cy="247" r="0"/><circle cx="615" cy="247" r="0"/><circle cx="619" cy="247" r="0"/><circle cx="622" cy="247" r="0"/><circle cx="625" cy="247" r="0"/><circle cx="629" cy="247" r="0"/><circle cx="632" cy="247" r="0"/><circle cx="635" cy="247" r="0"/><circle cx="638" cy="247" r="0"/><circle cx="642" cy="247" r="0"/><circle cx="645" cy="247" r="0"/><circle cx="648" cy="247" r="0"/><circle cx="652" cy="247" r="0"/><circle cx="655" cy="247" r="0"/><circle cx="658" cy="247" r="0"/><circle cx="661" cy="247" r="0"/><circle cx="665" cy="247" r="0"/><circle cx="668" cy="247" r="0"/><circle cx="671" cy="247" r="0"/><circle cx="675" cy="247" r="0"/><circle cx="678" cy="247" r="0"/><circle cx="681" cy="247" r="0"/><circle cx="684" cy="247" r="0"/><circle cx="688" cy="247" r="0"/><circle cx="691" cy="247" r="0"/><circle cx="694" cy="247" r="0"/></g>
<g stroke="rgb(0,128,0)" fill="rgb(0,128,0)"><circle cx="44.4" cy="247" r="0"/><circle cx="47.7" cy="247" r="0"/><circle cx="50.9" cy="247" r="0"/><circle cx="54.2" cy="247" r="0"/><circle cx="57.5" cy="247" r="0"/><circle cx="60.8" cy="247" r="0"/><circle cx="64.1" cy="247" r="0"/><circle cx="67.4" cy="247" r="0"/><circle cx="70.6" cy="247" r="0"/><circle cx="73.9" cy="247" r="0"/><circle cx="77.2" cy="247" r="0"/><circle cx="80.5" cy="247" r="0"/><circle cx="83.8" cy="247" r="0"/><circle cx="87" cy="247" r="0"/><circle cx="90.3" cy="247" r="0"/><circle cx="93.6" cy="312" r="0"/><circle cx="96.9" cy="247" r="0"/><circle cx="100" cy="247" r="0"/><circle cx="103" cy="247" r="0"/><circle cx="107" cy="247" r="0"/><circle cx="110" cy="247" r="0"/><circle cx="113" cy="247" r="0"/><circle cx="117" cy="247" r="0"/><circle cx="120" cy="247" r="0"/><circle cx="123" cy="247" r="0"/><circle cx="126" cy="247" r="0"/><circle cx="130" cy="247" r="0"/><circle cx="133" cy="247" r="0"/><circle cx="136" cy="247" r="0"/><circle cx="140" cy="247" r="0"/><circle cx="143" cy="247" r="0"/><circle cx="146" cy="332" r="0"/><circle cx="149" cy="247" r="0"/><circle cx="153" cy="247" r="0"/><circle cx="156" cy="247" r="0"/><circle cx="159" cy="247" r="0"/><circle cx="163" cy="247" r="0"/><circle cx="166" cy="303" r="0"/><circle cx="169" cy="298" r="0"/><circle cx="172" cy="247" r="0"/><circle cx="176" cy="247" r="0"/><circle cx="179" cy="247" r="0"/><circle cx="182" cy="247" r="0"/><circle cx="186" cy="247" r="0"/><circle cx="189" cy="247" r="0"/><circle cx="192" cy="247" r="0"/><circle cx="195" cy="247" r="0"/><circle cx="199" cy="247" r="0"/><circle cx="202" cy="247" r="0"/><circle cx="205" cy="247" r="0"/><circle cx="208" cy="247" r="0"/><circle cx="212" cy="247" r="0"/><circle cx="215" cy="247" r="0"/><circle cx="218" cy="247" r="0"/><circle cx="222" cy="247" r="0"/><circle cx="225" cy="247" r="0"/><circle cx="228" cy="247" r="0"/><circle cx="231" cy="247" r="0"/><circle cx="235" cy="247" r="0"/><circle cx="238" cy="247" r="0"/><circle cx="241" cy="247" r="0"/><circle cx="245" cy="247" r="0"/><circle cx="248" cy="247" r="0"/><circle cx="251" cy="247" r="0"/><circle cx="254" cy="247" r="0"/><circle cx="258" cy="247" r="0"/><circle cx="261" cy="247" r="0"/><circle cx="264" cy="247" r="0"/><circle cx="268" cy="247" r="0"/><circle cx="271" cy="247" r="0"/><circle cx="274" cy="247" r="0"/><circle cx="277" cy="247" r="0"/><circle cx="281" cy="247" r="0"/><circle cx="284" cy="247" r="0"/><circle cx="287" cy="247" r="0"/><circle cx="291" cy="247" r="0"/><circle cx="294" cy="247" r="0"/><circle cx="297" cy="247" r="0"/><circle cx="300" cy="247" r="0"/><circle cx="304" cy="247" r="0"/><circle cx="307" cy="247" r="0"/><circle cx="310" cy="247" r="0"/><circle cx="314" cy="247" r="0"/><circle cx="317" cy="247" r="0"/><circle cx="320" cy="247" r="0"/><circle cx="323" cy="247" r="0"/><circle cx="327" cy="247" r="0"/><circle cx="330" cy="247" r="0"/><circle cx="333" cy="332" r="0"/><circle cx="336" cy="247" r="0"/><circle cx="340" cy="247" r="0"/><circle cx="343" cy="247" r="0"/><circle cx="346" cy="343" r="0"/><circle cx="350" cy="247" r="0"/><circle cx="353" cy="247" r="0"/><circle cx="356" cy="311" r="0"/><circle cx="359" cy="346" r="0"/><circle cx="363" cy="247" r="0"/><circle cx="366" cy="247" r="0"/><circle cx="369" cy="247" r="0"/><circle cx="373" cy="247" r="0"/><circle cx="376" cy="247" r="0"/><circle cx="379" cy="247" r="0"/><circle cx="382" cy="247" r="0"/><circle cx="386" cy="247" r="0"/><circle cx="389" cy="247" r="0"/><circle cx="392" cy="247" r="0"/><circle cx="396" cy="247" r="0"/><circle cx="399" cy="247" r="0"/><circle cx="402" cy="247" r="0"/><circle cx="405" cy="247" r="0"/><circle cx="409" cy="247" r="0"/><circle cx="412" cy="247" r="0"/><circle cx="415" cy="247" r="0"/><circle cx="419" cy="247" r="0"/><circle cx="422" cy="247" r="0"/><circle cx="425" cy="247" r="0"/><circle cx="428" cy="247" r="0"/><circle cx="432" cy="247" r="0"/><circle cx="435" cy="247" r="0"/><circle cx="438" cy="247" r="0"/><circle cx="442" cy="247" r="0"/><circle cx="445" cy="247" r="0"/><circle cx="448" cy="247" r="0"/><circle cx="451" cy="247" r="0"/><circle cx="455" cy="247" r="0"/><circle cx="458" cy="247" r="0"/><circle cx="461" cy="335" r="0"/><circle cx="464" cy="339" r="0"/><circle cx="468" cy="247" r="0"/><circle cx="471" cy="247" r="0"/><circle cx="474" cy="247" r="0"/><circle cx="478" cy="346" r="0"/><circle cx="481" cy="247" r="0"/><circle cx="484" cy="312" r="0"/><circle cx="487" cy="247" r="0"/><circle cx="491" cy="247" r="0"/><circle cx="494" cy="247" r="0"/><circle cx="497" cy="247" r="0"/><circle cx="501" cy="247" r="0"/><circle cx="504" cy="247" r="0"/><circle cx="507" cy="247" r="0"/><circle cx="510" cy="247" r="0"/><circle cx="514" cy="247" r="0"/><circle cx="517" cy="247" r="0"/><circle cx="520" cy="247" r="0"/><circle cx="524" cy="247" r="0"/><circle cx="527" cy="247" r="0"/><circle cx="530" cy="247" r="0"/><circle cx="533" cy="316" r="0"/><circle cx="537" cy="247" r="0"/><circle cx="540" cy="247" r="0"/><circle cx="543" cy="247" r="0"/><circle cx="547" cy="345" r="0"/><circle cx="550" cy="247" r="0"/><circle cx="553" cy="247" r="0"/><circle cx="556" cy="247" r="0"/><circle cx="560" cy="247" r="0"/><circle cx="563" cy="247" r="0"/><circle cx="566" cy="247" r="0"/><circle cx="570" cy="247" r="0"/><circle cx="573" cy="247" r="0"/><circle cx="576" cy="247" r="0"/><circle cx="579" cy="247" r="0"/><circle cx="583" cy="247" r="0"/><circle cx="586" cy="247" r="0"/><circle cx="589" cy="247" r="0"/><circle cx="592" cy="247" r="0"/><circle cx="596" cy="247" r="0"/><circle cx="599" cy="247" r="0"/><circle cx="602" cy="247" r="0"/><circle cx="606" cy="307" r="0"/><circle cx="609" cy="247" r="0"/><circle cx="612" cy="247" r="0"/><circle cx="615" cy="247" r="0"/><circle cx="619" cy="247" r="0"/><circle cx="622" cy="247" r="0"/><circle cx="625" cy="247" r="0"/><circle cx="629" cy="247" r="0"/><circle cx="632" cy="247" r="0"/><circle cx="635" cy="247" r="0"/><circle cx="638" cy="247" r="0"/><circle cx="642" cy="247" r="0"/><circle cx="645" cy="247" r="0"/><circle cx="648" cy="247" r="0"/><circle cx="652" cy="247" r="0"/><circle cx="655" cy="247" r="0"/><circle cx="658" cy="247" r="0"/><circle cx="661" cy="247" r="0"/><circle cx="665" cy="247" r="0"/><circle cx="668" cy="301" r="0"/><circle cx="671" cy="247" r="0"/><circle cx="675" cy="247" r="0"/><circle cx="678" cy="247" r="0"/><circle cx="681" cy="247" r="0"/><circle cx="684" cy="247" r="0"/><circle cx="688" cy="247" r="0"/><circle cx="691" cy="247" r="0"/><circle cx="694" cy="247" r="0"/></g>
</g>
<g id="title">
<text x="350" y="36" text-anchor="middle" font-size="18" font-family="Lucida Sans Unicode">Errors in j0, double</text></g>
<g id="plotXValues"></g>
<g id="plotYValues"></g>
</svg>
