<?xml version="1.0" encoding="UTF-8" standalone="no"?>
<svg width="400" height ="300" version="1.1"
xmlns:svg ="http://www.w3.org/2000/svg"
xmlns:rdf="http://www.w3.org/1999/02/22-rdf-syntax-ns#"
xmlns:cc="http://web.resource.org/cc/"
xmlns:dc="http://purl.org/dc/elements/1.1/"
xmlns ="http://www.w3.org/2000/svg"
>
<!-- SVG plot written using Boost.Plot program (Creator Jacob Voytko) --> 
<!-- Use, modification and distribution of Boost.Plot subject to the --> 
<!-- Boost Software License, Version 1.0.--> 
<!-- (See accompanying file LICENSE_1_0.txt --> 
<!-- or copy at http://www.boost.org/LICENSE_1_0.txt) --> 

<!-- SVG Plot Copyright Paul A. Bristow 2017 --> 
<meta name="copyright" content="Paul A. Bristow" />
<meta name="date" content="2017" />
<clipPath id="plot_window"><rect x="53.3" y="48.5" width="198.6" height="197"/></clipPath>
<g id="imageBackground" stroke="rgb(255,255,0)" fill="rgb(255,255,255)" stroke-width="2"><rect x="0" y="0" width="400" height="300"/></g>
<g id="plotBackground" stroke="rgb(119,136,153)" fill="rgb(255,255,255)" stroke-width="2"><rect x="52.3" y="47.5" width="200.6" height="199"/></g>
<g id="yMinorGrid" stroke="rgb(200,220,255)" stroke-width="0.5"></g>
<g id="yMajorGrid" stroke="rgb(200,220,255)" stroke-width="1"><path d="M54.3,224.4 L250.9,224.4 M54.3,202.3 L250.9,202.3 M54.3,180.2 L250.9,180.2 M54.3,158.1 L250.9,158.1 M54.3,135.9 L250.9,135.9 M54.3,113.8 L250.9,113.8 M54.3,91.72 L250.9,91.72 M54.3,69.61 L250.9,69.61 M54.3,47.5 L250.9,47.5 M54.3,224.4 L250.9,224.4 M54.3,246.5 L250.9,246.5 " fill="none"/></g>
<g id="xMinorGrid" stroke="rgb(200,220,255)" stroke-width="0.5"></g>
<g id="xMajorGrid" stroke="rgb(200,220,255)" stroke-width="1"><path d="M52.32,47.5 L52.32,246.5 M92.44,47.5 L92.44,246.5 M132.6,47.5 L132.6,246.5 M172.7,47.5 L172.7,246.5 M212.8,47.5 L212.8,246.5 M252.9,47.5 L252.9,246.5 M52.32,47.5 L52.32,246.5 " fill="none"/></g>
<g id="yAxis" stroke="rgb(0,0,0)" stroke-width="1"><line x1="52.32" y1="47.5" x2="52.32" y2="251.5"/><line x1="52.3" y1="47.5" x2="52.3" y2="246.5"/></g>
<g id="xAxis" stroke="rgb(0,0,0)" stroke-width="1"><line x1="47.3" y1="224.4" x2="252.9" y2="224.4"/><line x1="47.3" y1="246.5" x2="252.9" y2="246.5"/></g>
<g id="yMinorTicks" stroke="rgb(0,0,0)" stroke-width="1"><path d="M50.3,220 L52.3,220 M50.3,215.5 L52.3,215.5 M50.3,211.1 L52.3,211.1 M50.3,206.7 L52.3,206.7 M50.3,197.9 L52.3,197.9 M50.3,193.4 L52.3,193.4 M50.3,189 L52.3,189 M50.3,184.6 L52.3,184.6 M50.3,175.7 L52.3,175.7 M50.3,171.3 L52.3,171.3 M50.3,166.9 L52.3,166.9 M50.3,162.5 L52.3,162.5 M50.3,153.6 L52.3,153.6 M50.3,149.2 L52.3,149.2 M50.3,144.8 L52.3,144.8 M50.3,140.4 L52.3,140.4 M50.3,131.5 L52.3,131.5 M50.3,127.1 L52.3,127.1 M50.3,122.7 L52.3,122.7 M50.3,118.3 L52.3,118.3 M50.3,109.4 L52.3,109.4 M50.3,105 L52.3,105 M50.3,100.6 L52.3,100.6 M50.3,96.14 L52.3,96.14 M50.3,87.3 L52.3,87.3 M50.3,82.88 L52.3,82.88 M50.3,78.46 L52.3,78.46 M50.3,74.03 L52.3,74.03 M50.3,65.19 L52.3,65.19 M50.3,60.77 L52.3,60.77 M50.3,56.34 L52.3,56.34 M50.3,51.92 L52.3,51.92 M50.3,224.4 L52.3,224.4 M50.3,228.8 L52.3,228.8 M50.3,233.2 L52.3,233.2 M50.3,237.7 L52.3,237.7 M50.3,242.1 L52.3,242.1 M50.3,246.5 L52.3,246.5 " fill="none"/></g>
<g id="xMinorTicks" stroke="rgb(0,0,0)" stroke-width="1"><path d="M60.34,246.5 L60.34,248.5 M68.37,246.5 L68.37,248.5 M76.39,246.5 L76.39,248.5 M84.42,246.5 L84.42,248.5 M100.5,246.5 L100.5,248.5 M108.5,246.5 L108.5,248.5 M116.5,246.5 L116.5,248.5 M124.5,246.5 L124.5,248.5 M140.6,246.5 L140.6,248.5 M148.6,246.5 L148.6,248.5 M156.6,246.5 L156.6,248.5 M164.7,246.5 L164.7,248.5 M180.7,246.5 L180.7,248.5 M188.7,246.5 L188.7,248.5 M196.8,246.5 L196.8,248.5 M204.8,246.5 L204.8,248.5 M220.8,246.5 L220.8,248.5 M228.9,246.5 L228.9,248.5 M236.9,246.5 L236.9,248.5 M244.9,246.5 L244.9,248.5 " fill="none"/></g>
<g id="yMajorTicks" stroke="rgb(0,0,0)" stroke-width="2"><path d="M47.3,224.4 L52.3,224.4 M47.3,202.3 L52.3,202.3 M47.3,180.2 L52.3,180.2 M47.3,158.1 L52.3,158.1 M47.3,135.9 L52.3,135.9 M47.3,113.8 L52.3,113.8 M47.3,91.72 L52.3,91.72 M47.3,69.61 L52.3,69.61 M47.3,47.5 L52.3,47.5 M47.3,224.4 L52.3,224.4 M47.3,246.5 L52.3,246.5 " fill="none"/></g>
<g id="xMajorTicks" stroke="rgb(0,0,0)" stroke-width="2"><path d="M52.32,246.5 L52.32,251.5 M92.44,246.5 L92.44,251.5 M132.6,246.5 L132.6,251.5 M172.7,246.5 L172.7,251.5 M212.8,246.5 L212.8,251.5 M252.9,246.5 L252.9,251.5 M52.32,246.5 L52.32,251.5 " fill="none"/></g>
<g id="xTicksValues">
<text x="52.32" y="267.1" text-anchor="middle" font-size="12" font-family="Lucida Sans Unicode">0</text>
<text x="92.44" y="267.1" text-anchor="middle" font-size="12" font-family="Lucida Sans Unicode">2e3</text>
<text x="132.6" y="267.1" text-anchor="middle" font-size="12" font-family="Lucida Sans Unicode">4e3</text>
<text x="172.7" y="267.1" text-anchor="middle" font-size="12" font-family="Lucida Sans Unicode">6e3</text>
<text x="212.8" y="267.1" text-anchor="middle" font-size="12" font-family="Lucida Sans Unicode">8e3</text>
<text x="252.9" y="267.1" text-anchor="middle" font-size="12" font-family="Lucida Sans Unicode">1e4</text>
<text x="52.32" y="267.1" text-anchor="middle" font-size="12" font-family="Lucida Sans Unicode">0</text></g>
<g id="yTicksValues">
<text x="41.3" y="226.8" text-anchor="end" font-size="12" font-family="Lucida Sans Unicode">0</text>
<text x="41.3" y="204.7" text-anchor="end" font-size="12" font-family="Lucida Sans Unicode">1</text>
<text x="41.3" y="182.6" text-anchor="end" font-size="12" font-family="Lucida Sans Unicode">2</text>
<text x="41.3" y="160.5" text-anchor="end" font-size="12" font-family="Lucida Sans Unicode">3</text>
<text x="41.3" y="138.3" text-anchor="end" font-size="12" font-family="Lucida Sans Unicode">4</text>
<text x="41.3" y="116.2" text-anchor="end" font-size="12" font-family="Lucida Sans Unicode">5</text>
<text x="41.3" y="94.12" text-anchor="end" font-size="12" font-family="Lucida Sans Unicode">6</text>
<text x="41.3" y="72.01" text-anchor="end" font-size="12" font-family="Lucida Sans Unicode">7</text>
<text x="41.3" y="49.9" text-anchor="end" font-size="12" font-family="Lucida Sans Unicode">8</text>
<text x="41.3" y="226.8" text-anchor="end" font-size="12" font-family="Lucida Sans Unicode">0</text>
<text x="41.3" y="248.9" text-anchor="end" font-size="12" font-family="Lucida Sans Unicode">-1</text></g>
<g id="yLabel">
<text x="19.4" y="147" text-anchor="middle" transform = "rotate(-90 19.4 147 )" font-size="14" font-family="Lucida Sans Unicode">W</text></g>
<g id="xLabel">
<text x="152.6" y="282.2" text-anchor="middle" font-size="14" font-family="Lucida Sans Unicode">z</text></g>
<g id="plotLines" stroke-width="2"><g clip-path="url(#plot_window)" stroke="rgb(255,0,0)" stroke-width="1"><path d="M52.31,246.5 L52.31,246.5 L53.32,161.3 L54.32,149.6 L55.32,142.6 L56.33,137.5 L57.33,133.6 L58.33,130.3 L59.33,127.5 L60.34,125.1 L61.34,123 L62.34,121.1 L63.35,119.3 L64.35,117.7 L65.35,116.3 L66.36,114.9 L67.36,113.6 L68.36,112.5 L69.37,111.3 L70.37,110.3 L71.37,109.3 L72.37,108.3 L73.38,107.4 L74.38,106.5 L75.38,105.7 L76.39,104.9 L77.39,104.2 L78.39,103.4 L79.4,102.7 L80.4,102 L81.4,101.4 L82.41,100.8 L83.41,100.1 L84.41,99.54 L85.41,98.96 L86.42,98.4 L87.42,97.85 L88.42,97.32 L89.43,96.81 L90.43,96.3 L91.43,95.81 L92.44,95.34 L93.44,94.87 L94.44,94.41 L95.45,93.97 L96.45,93.53 L97.45,93.11 L98.46,92.69 L99.46,92.29 L100.5,91.89 L101.5,91.5 L102.5,91.11 L103.5,90.74 L104.5,90.37 L105.5,90.01 L106.5,89.65 L107.5,89.3 L108.5,88.96 L109.5,88.62 L110.5,88.29 L111.5,87.97 L112.5,87.65 L113.5,87.33 L114.5,87.02 L115.5,86.72 L116.5,86.42 L117.5,86.12 L118.5,85.83 L119.5,85.55 L120.5,85.26 L121.5,84.98 L122.5,84.71 L123.5,84.44 L124.5,84.17 L125.5,83.91 L126.5,83.65 L127.5,83.39 L128.5,83.14 L129.6,82.89 L130.6,82.64 L131.6,82.4 L132.6,82.16 L133.6,81.92 L134.6,81.68 L135.6,81.45 L136.6,81.22 L137.6,81 L138.6,80.77 L139.6,80.55 L140.6,80.33 L141.6,80.12 L142.6,79.9 L143.6,79.69 L144.6,79.48 L145.6,79.27 L146.6,79.07 L147.6,78.86 L148.6,78.66 L149.6,78.46 L150.6,78.27 L151.6,78.07 L152.6,77.88 L153.6,77.69 L154.6,77.5 L155.6,77.31 L156.6,77.12 L157.6,76.94 L158.6,76.76 L159.6,76.58 L160.6,76.4 L161.7,76.22 L162.7,76.05 L163.7,75.87 L164.7,75.7 L165.7,75.53 L166.7,75.36 L167.7,75.19 L168.7,75.02 L169.7,74.86 L170.7,74.69 L171.7,74.53 L172.7,74.37 L173.7,74.21 L174.7,74.05 L175.7,73.89 L176.7,73.74 L177.7,73.58 L178.7,73.43 L179.7,73.28 L180.7,73.13 L181.7,72.98 L182.7,72.83 L183.7,72.68 L184.7,72.53 L185.7,72.39 L186.7,72.24 L187.7,72.1 L188.7,71.96 L189.7,71.81 L190.7,71.67 L191.7,71.53 L192.7,71.4 L193.7,71.26 L194.8,71.12 L195.8,70.99 L196.8,70.85 L197.8,70.72 L198.8,70.58 L199.8,70.45 L200.8,70.32 L201.8,70.19 L202.8,70.06 L203.8,69.93 L204.8,69.81 L205.8,69.68 L206.8,69.55 L207.8,69.43 L208.8,69.3 L209.8,69.18 L210.8,69.06 L211.8,68.93 L212.8,68.81 L213.8,68.69 L214.8,68.57 L215.8,68.45 L216.8,68.33 L217.8,68.22 L218.8,68.1 L219.8,67.98 L220.8,67.87 L221.8,67.75 L222.8,67.64 L223.8,67.53 L224.8,67.41 L225.8,67.3 L226.9,67.19 L227.9,67.08 L228.9,66.97 L229.9,66.86 L230.9,66.75 L231.9,66.64 L232.9,66.53 L233.9,66.42 L234.9,66.32 L235.9,66.21 L236.9,66.1 L237.9,66 L238.9,65.89 L239.9,65.79 L240.9,65.69 L241.9,65.58 L242.9,65.48 L243.9,65.38 L244.9,65.28 L245.9,65.18 L246.9,65.08 L247.9,64.98 L248.9,64.88 L249.9,64.78 L250.9,64.68 L251.9,64.58 L252.9,64.49 " fill="none"/></g>
</g>
<g id="plotPoints" clip-path="url(#plot_window)"></g>
<g id="legendBackground" stroke="rgb(255,255,0)" fill="rgb(255,255,255)" stroke-width="1"><rect x="266.9" y="47.5" width="130.6" height="42"/><rect x="266.9" y="47.5" width="130.6" height="42"/></g>
<g id="legendPoints"><g stroke="rgb(255,0,0)" fill="rgb(255,255,255)" stroke-width="1"><line x1="280.9" y1="75.5" x2="294.9" y2="75.5"/></g>
</g>
<g id="legendText">
<text x="301.9" y="75.5" font-size="14" font-family="Lucida Sans Unicode">W0 branch</text></g>
<g id="title">
<text x="200" y="36" text-anchor="middle" font-size="18" font-family="Lucida Sans Unicode">Lambert W function for larger z.</text></g>
<g id="plotXValues"></g>
<g id="plotYValues"></g>
</svg>
