<?xml version="1.0" encoding="UTF-8" standalone="no"?>
<svg width="400" height ="300" version="1.1"
xmlns:svg ="http://www.w3.org/2000/svg"
xmlns:rdf="http://www.w3.org/1999/02/22-rdf-syntax-ns#"
xmlns:cc="http://web.resource.org/cc/"
xmlns:dc="http://purl.org/dc/elements/1.1/"
xmlns ="http://www.w3.org/2000/svg"
>
<!-- SVG plot written using Boost.Plot program (Creator Jacob Voytko) --> 
<!-- Use, modification and distribution of Boost.Plot subject to the --> 
<!-- Boost Software License, Version 1.0.--> 
<!-- (See accompanying file LICENSE_1_0.txt --> 
<!-- or copy at http://www.boost.org/LICENSE_1_0.txt) --> 

<!-- SVG Plot Copyright Paul A. Bristow 2017 --> 
<meta name="copyright" content="Paul A. Bristow" />
<meta name="date" content="2017" />
<clipPath id="plot_window"><rect x="53.3" y="48.5" width="190.8" height="197"/></clipPath>
<g id="imageBackground" stroke="rgb(255,255,0)" fill="rgb(255,255,255)" stroke-width="2"><rect x="0" y="0" width="400" height="300"/></g>
<g id="plotBackground" stroke="rgb(119,136,153)" fill="rgb(255,255,255)" stroke-width="2"><rect x="52.3" y="47.5" width="192.8" height="199"/></g>
<g id="yMinorGrid" stroke="rgb(200,220,255)" stroke-width="0.5"></g>
<g id="yMajorGrid" stroke="rgb(200,220,255)" stroke-width="1"><path d="M54.3,87.3 L243.1,87.3 M54.3,47.5 L243.1,47.5 M54.3,87.3 L243.1,87.3 M54.3,127.1 L243.1,127.1 M54.3,166.9 L243.1,166.9 M54.3,206.7 L243.1,206.7 M54.3,246.5 L243.1,246.5 " fill="none"/></g>
<g id="xMinorGrid" stroke="rgb(200,220,255)" stroke-width="0.5"></g>
<g id="xMajorGrid" stroke="rgb(200,220,255)" stroke-width="1"><path d="M100.5,47.5 L100.5,246.5 M148.7,47.5 L148.7,246.5 M196.9,47.5 L196.9,246.5 M245.1,47.5 L245.1,246.5 M100.5,47.5 L100.5,246.5 M52.3,47.5 L52.3,246.5 " fill="none"/></g>
<g id="yAxis" stroke="rgb(0,0,0)" stroke-width="1"><line x1="100.5" y1="47.5" x2="100.5" y2="251.5"/><line x1="52.3" y1="47.5" x2="52.3" y2="246.5"/></g>
<g id="xAxis" stroke="rgb(0,0,0)" stroke-width="1"><line x1="47.3" y1="87.3" x2="245.1" y2="87.3"/><line x1="47.3" y1="246.5" x2="245.1" y2="246.5"/></g>
<g id="yMinorTicks" stroke="rgb(0,0,0)" stroke-width="1"><path d="M50.3,79.34 L52.3,79.34 M50.3,71.38 L52.3,71.38 M50.3,63.42 L52.3,63.42 M50.3,55.46 L52.3,55.46 M50.3,87.3 L52.3,87.3 M50.3,95.26 L52.3,95.26 M50.3,103.2 L52.3,103.2 M50.3,111.2 L52.3,111.2 M50.3,119.1 L52.3,119.1 M50.3,127.1 L52.3,127.1 M50.3,135.1 L52.3,135.1 M50.3,143 L52.3,143 M50.3,151 L52.3,151 M50.3,158.9 L52.3,158.9 M50.3,166.9 L52.3,166.9 M50.3,166.9 L52.3,166.9 M50.3,174.9 L52.3,174.9 M50.3,182.8 L52.3,182.8 M50.3,190.8 L52.3,190.8 M50.3,198.7 L52.3,198.7 M50.3,206.7 L52.3,206.7 M50.3,214.7 L52.3,214.7 M50.3,222.6 L52.3,222.6 M50.3,230.6 L52.3,230.6 M50.3,238.5 L52.3,238.5 M50.3,246.5 L52.3,246.5 " fill="none"/></g>
<g id="xMinorTicks" stroke="rgb(0,0,0)" stroke-width="1"><path d="M110.1,246.5 L110.1,248.5 M119.8,246.5 L119.8,248.5 M129.4,246.5 L129.4,248.5 M139.1,246.5 L139.1,248.5 M158.3,246.5 L158.3,248.5 M168,246.5 L168,248.5 M177.6,246.5 L177.6,248.5 M187.3,246.5 L187.3,248.5 M206.5,246.5 L206.5,248.5 M216.2,246.5 L216.2,248.5 M225.8,246.5 L225.8,248.5 M235.5,246.5 L235.5,248.5 M90.86,246.5 L90.86,248.5 M81.22,246.5 L81.22,248.5 M71.58,246.5 L71.58,248.5 M61.94,246.5 L61.94,248.5 " fill="none"/></g>
<g id="yMajorTicks" stroke="rgb(0,0,0)" stroke-width="2"><path d="M47.3,87.3 L52.3,87.3 M47.3,47.5 L52.3,47.5 M47.3,87.3 L52.3,87.3 M47.3,127.1 L52.3,127.1 M47.3,166.9 L52.3,166.9 M47.3,206.7 L52.3,206.7 M47.3,246.5 L52.3,246.5 " fill="none"/></g>
<g id="xMajorTicks" stroke="rgb(0,0,0)" stroke-width="2"><path d="M100.5,246.5 L100.5,251.5 M148.7,246.5 L148.7,251.5 M196.9,246.5 L196.9,251.5 M245.1,246.5 L245.1,251.5 M100.5,246.5 L100.5,251.5 M52.3,246.5 L52.3,251.5 " fill="none"/></g>
<g id="xTicksValues">
<text x="100.5" y="267.1" text-anchor="middle" font-size="12" font-family="Lucida Sans Unicode">0</text>
<text x="148.7" y="267.1" text-anchor="middle" font-size="12" font-family="Lucida Sans Unicode">1</text>
<text x="196.9" y="267.1" text-anchor="middle" font-size="12" font-family="Lucida Sans Unicode">2</text>
<text x="245.1" y="267.1" text-anchor="middle" font-size="12" font-family="Lucida Sans Unicode">3</text>
<text x="100.5" y="267.1" text-anchor="middle" font-size="12" font-family="Lucida Sans Unicode">0</text>
<text x="52.3" y="267.1" text-anchor="middle" font-size="12" font-family="Lucida Sans Unicode">-1</text></g>
<g id="yTicksValues">
<text x="41.3" y="89.7" text-anchor="end" font-size="12" font-family="Lucida Sans Unicode">0</text>
<text x="41.3" y="49.9" text-anchor="end" font-size="12" font-family="Lucida Sans Unicode">1</text>
<text x="41.3" y="89.7" text-anchor="end" font-size="12" font-family="Lucida Sans Unicode">0</text>
<text x="41.3" y="129.5" text-anchor="end" font-size="12" font-family="Lucida Sans Unicode">-1</text>
<text x="41.3" y="169.3" text-anchor="end" font-size="12" font-family="Lucida Sans Unicode">-2</text>
<text x="41.3" y="209.1" text-anchor="end" font-size="12" font-family="Lucida Sans Unicode">-3</text>
<text x="41.3" y="248.9" text-anchor="end" font-size="12" font-family="Lucida Sans Unicode">-4</text></g>
<g id="yLabel">
<text x="19.4" y="147" text-anchor="middle" transform = "rotate(-90 19.4 147 )" font-size="14" font-family="Lucida Sans Unicode">W</text></g>
<g id="xLabel">
<text x="148.7" y="282.2" text-anchor="middle" font-size="14" font-family="Lucida Sans Unicode">z</text></g>
<g id="plotLines" stroke-width="2"><g clip-path="url(#plot_window)" stroke="rgb(255,0,0)" stroke-width="1"><path d="M82.77,127.1 L82.77,127.1 L83.25,118.5 L83.73,115.2 L84.21,112.9 L84.7,110.9 L85.18,109.3 L85.66,107.8 L86.14,106.5 L86.62,105.3 L87.11,104.2 L87.59,103.2 L88.07,102.2 L88.55,101.3 L89.03,100.5 L89.52,99.68 L90,98.91 L90.48,98.17 L90.96,97.47 L91.44,96.79 L91.93,96.14 L92.41,95.51 L92.89,94.91 L93.37,94.32 L93.85,93.75 L94.34,93.2 L94.82,92.67 L95.3,92.15 L95.78,91.64 L96.26,91.15 L96.75,90.67 L97.23,90.21 L97.71,89.75 L98.19,89.3 L98.67,88.87 L99.16,88.44 L99.64,88.02 L100.1,87.62 L100.6,87.22 L101.1,86.82 L101.6,86.44 L102,86.06 L102.5,85.69 L103,85.33 L103.5,84.97 L104,84.62 L104.5,84.27 L104.9,83.93 L105.4,83.6 L105.9,83.27 L106.4,82.94 L106.9,82.62 L107.4,82.31 L107.8,82 L108.3,81.7 L108.8,81.39 L109.3,81.1 L109.8,80.8 L110.2,80.52 L110.7,80.23 L111.2,79.95 L111.7,79.67 L112.2,79.4 L112.7,79.13 L113.1,78.86 L113.6,78.6 L114.1,78.34 L114.6,78.08 L115.1,77.82 L115.5,77.57 L116,77.32 L116.5,77.08 L117,76.83 L117.5,76.59 L118,76.35 L118.4,76.12 L118.9,75.88 L119.4,75.65 L119.9,75.42 L120.4,75.2 L120.8,74.97 L121.3,74.75 L121.8,74.53 L122.3,74.31 L122.8,74.1 L123.3,73.89 L123.7,73.67 L124.2,73.46 L124.7,73.26 L125.2,73.05 L125.7,72.85 L126.1,72.65 L126.6,72.44 L127.1,72.25 L127.6,72.05 L128.1,71.85 L128.6,71.66 L129,71.47 L129.5,71.28 L130,71.09 L130.5,70.9 L131,70.72 L131.5,70.53 L131.9,70.35 L132.4,70.17 L132.9,69.99 L133.4,69.81 L133.9,69.63 L134.3,69.45 L134.8,69.28 L135.3,69.11 L135.8,68.93 L136.3,68.76 L136.8,68.59 L137.2,68.42 L137.7,68.26 L138.2,68.09 L138.7,67.92 L139.2,67.76 L139.6,67.6 L140.1,67.44 L140.6,67.28 L141.1,67.12 L141.6,66.96 L142.1,66.8 L142.5,66.64 L143,66.49 L143.5,66.33 L144,66.18 L144.5,66.03 L144.9,65.88 L145.4,65.73 L145.9,65.58 L146.4,65.43 L146.9,65.28 L147.4,65.13 L147.8,64.99 L148.3,64.84 L148.8,64.7 L149.3,64.55 L149.8,64.41 L150.2,64.27 L150.7,64.13 L151.2,63.99 L151.7,63.85 L152.2,63.71 L152.7,63.57 L153.1,63.44 L153.6,63.3 L154.1,63.16 L154.6,63.03 L155.1,62.9 L155.6,62.76 L156,62.63 L156.5,62.5 L157,62.37 L157.5,62.24 L158,62.11 L158.4,61.98 L158.9,61.85 L159.4,61.72 L159.9,61.59 L160.4,61.47 L160.9,61.34 L161.3,61.22 L161.8,61.09 L162.3,60.97 L162.8,60.84 L163.3,60.72 L163.7,60.6 L164.2,60.48 L164.7,60.36 L165.2,60.24 L165.7,60.12 L166.2,60 L166.6,59.88 L167.1,59.76 L167.6,59.64 L168.1,59.53 L168.6,59.41 L169,59.3 L169.5,59.18 L170,59.07 L170.5,58.95 L171,58.84 L171.5,58.72 L171.9,58.61 L172.4,58.5 L172.9,58.39 L173.4,58.28 L173.9,58.17 L174.3,58.05 L174.8,57.95 L175.3,57.84 L175.8,57.73 L176.3,57.62 L176.8,57.51 L177.2,57.4 L177.7,57.3 L178.2,57.19 L178.7,57.08 L179.2,56.98 L179.7,56.87 L180.1,56.77 L180.6,56.66 L181.1,56.56 L181.6,56.46 L182.1,56.35 L182.5,56.25 L183,56.15 L183.5,56.05 L184,55.94 L184.5,55.84 L185,55.74 L185.4,55.64 L185.9,55.54 L186.4,55.44 L186.9,55.34 L187.4,55.25 L187.8,55.15 L188.3,55.05 L188.8,54.95 L189.3,54.85 L189.8,54.76 L190.3,54.66 L190.7,54.56 L191.2,54.47 L191.7,54.37 L192.2,54.28 L192.7,54.18 L193.1,54.09 L193.6,54 L194.1,53.9 L194.6,53.81 L195.1,53.72 L195.6,53.62 L196,53.53 L196.5,53.44 L197,53.35 L197.5,53.26 L198,53.16 L198.4,53.07 L198.9,52.98 L199.4,52.89 L199.9,52.8 L200.4,52.71 L200.9,52.62 L201.3,52.54 L201.8,52.45 L202.3,52.36 L202.8,52.27 L203.3,52.18 L203.8,52.1 L204.2,52.01 L204.7,51.92 L205.2,51.84 L205.7,51.75 L206.2,51.66 L206.6,51.58 L207.1,51.49 L207.6,51.41 L208.1,51.32 L208.6,51.24 L209.1,51.15 L209.5,51.07 L210,50.99 L210.5,50.9 L211,50.82 L211.5,50.74 L211.9,50.65 L212.4,50.57 L212.9,50.49 L213.4,50.41 L213.9,50.33 L214.4,50.25 L214.8,50.16 L215.3,50.08 L215.8,50 L216.3,49.92 L216.8,49.84 L217.2,49.76 L217.7,49.68 L218.2,49.6 L218.7,49.52 L219.2,49.45 L219.7,49.37 L220.1,49.29 L220.6,49.21 L221.1,49.13 L221.6,49.05 L222.1,48.98 L222.5,48.9 L223,48.82 L223.5,48.75 L224,48.67 L224.5,48.59 L225,48.52 L225.4,48.44 L225.9,48.36 L226.4,48.29 L226.9,48.21 L227.4,48.14 L227.9,48.06 L228.3,47.99 L228.8,47.91 L229.3,47.84 L229.8,47.77 L230.3,47.69 L230.7,47.62 L231.2,47.55 L231.7,47.47 L232.2,47.4 L232.7,47.33 L233.2,47.25 L233.6,47.18 L234.1,47.11 L234.6,47.04 " fill="none"/></g>
<g clip-path="url(#plot_window)" stroke="rgb(0,0,255)" stroke-width="1"><path d="M82.77,127.1 L82.77,127.1 L82.82,130.1 L82.86,131.4 L82.91,132.4 L82.96,133.3 L83.01,134.1 L83.06,134.8 L83.11,135.4 L83.15,136 L83.2,136.6 L83.25,137.2 L83.3,137.7 L83.35,138.2 L83.39,138.8 L83.44,139.2 L83.49,139.7 L83.54,140.2 L83.59,140.6 L83.64,141.1 L83.68,141.5 L83.73,141.9 L83.78,142.3 L83.83,142.8 L83.88,143.2 L83.93,143.6 L83.97,144 L84.02,144.3 L84.07,144.7 L84.12,145.1 L84.17,145.5 L84.21,145.8 L84.26,146.2 L84.31,146.6 L84.36,146.9 L84.41,147.3 L84.46,147.6 L84.5,148 L84.55,148.3 L84.6,148.7 L84.65,149 L84.7,149.4 L84.74,149.7 L84.79,150 L84.84,150.4 L84.89,150.7 L84.94,151 L84.99,151.4 L85.03,151.7 L85.08,152 L85.13,152.3 L85.18,152.7 L85.23,153 L85.27,153.3 L85.32,153.6 L85.37,153.9 L85.42,154.2 L85.47,154.5 L85.52,154.9 L85.56,155.2 L85.61,155.5 L85.66,155.8 L85.71,156.1 L85.76,156.4 L85.8,156.7 L85.85,157 L85.9,157.3 L85.95,157.6 L86,157.9 L86.05,158.2 L86.09,158.5 L86.14,158.8 L86.19,159.1 L86.24,159.4 L86.29,159.7 L86.34,160 L86.38,160.3 L86.43,160.6 L86.48,160.9 L86.53,161.2 L86.58,161.5 L86.62,161.8 L86.67,162.1 L86.72,162.4 L86.77,162.7 L86.82,163 L86.87,163.3 L86.91,163.6 L86.96,163.9 L87.01,164.2 L87.06,164.5 L87.11,164.8 L87.15,165.1 L87.2,165.4 L87.25,165.7 L87.3,166 L87.35,166.3 L87.4,166.5 L87.44,166.8 L87.49,167.1 L87.54,167.4 L87.59,167.7 L87.64,168 L87.68,168.3 L87.73,168.6 L87.78,168.9 L87.83,169.2 L87.88,169.5 L87.93,169.8 L87.97,170.1 L88.02,170.4 L88.07,170.7 L88.12,171 L88.17,171.3 L88.21,171.6 L88.26,171.9 L88.31,172.1 L88.36,172.4 L88.41,172.7 L88.46,173 L88.5,173.3 L88.55,173.6 L88.6,173.9 L88.65,174.2 L88.7,174.5 L88.75,174.8 L88.79,175.1 L88.84,175.4 L88.89,175.7 L88.94,176 L88.99,176.3 L89.03,176.6 L89.08,176.9 L89.13,177.2 L89.18,177.5 L89.23,177.8 L89.28,178.1 L89.32,178.4 L89.37,178.8 L89.42,179.1 L89.47,179.4 L89.52,179.7 L89.56,180 L89.61,180.3 L89.66,180.6 L89.71,180.9 L89.76,181.2 L89.81,181.5 L89.85,181.8 L89.9,182.1 L89.95,182.5 L90,182.8 L90.05,183.1 L90.09,183.4 L90.14,183.7 L90.19,184 L90.24,184.3 L90.29,184.7 L90.34,185 L90.38,185.3 L90.43,185.6 L90.48,185.9 L90.53,186.3 L90.58,186.6 L90.62,186.9 L90.67,187.2 L90.72,187.6 L90.77,187.9 L90.82,188.2 L90.87,188.5 L90.91,188.9 L90.96,189.2 L91.01,189.5 L91.06,189.9 L91.11,190.2 L91.16,190.5 L91.2,190.9 L91.25,191.2 L91.3,191.5 L91.35,191.9 L91.4,192.2 L91.44,192.5 L91.49,192.9 L91.54,193.2 L91.59,193.6 L91.64,193.9 L91.69,194.3 L91.73,194.6 L91.78,195 L91.83,195.3 L91.88,195.7 L91.93,196 L91.97,196.4 L92.02,196.7 L92.07,197.1 L92.12,197.4 L92.17,197.8 L92.22,198.2 L92.26,198.5 L92.31,198.9 L92.36,199.2 L92.41,199.6 L92.46,200 L92.5,200.4 L92.55,200.7 L92.6,201.1 L92.65,201.5 L92.7,201.8 L92.75,202.2 L92.79,202.6 L92.84,203 L92.89,203.4 L92.94,203.7 L92.99,204.1 L93.03,204.5 L93.08,204.9 L93.13,205.3 L93.18,205.7 L93.23,206.1 L93.28,206.5 L93.32,206.9 L93.37,207.3 L93.42,207.7 L93.47,208.1 L93.52,208.5 L93.57,208.9 L93.61,209.3 L93.66,209.7 L93.71,210.2 L93.76,210.6 L93.81,211 L93.85,211.4 L93.9,211.9 L93.95,212.3 L94,212.7 L94.05,213.1 L94.1,213.6 L94.14,214 L94.19,214.5 L94.24,214.9 L94.29,215.4 L94.34,215.8 L94.38,216.3 L94.43,216.7 L94.48,217.2 L94.53,217.6 L94.58,218.1 L94.63,218.6 L94.67,219 L94.72,219.5 L94.77,220 L94.82,220.5 L94.87,220.9 L94.91,221.4 L94.96,221.9 L95.01,222.4 L95.06,222.9 L95.11,223.4 L95.16,223.9 L95.2,224.4 L95.25,224.9 L95.3,225.5 L95.35,226 L95.4,226.5 L95.44,227 L95.49,227.6 L95.54,228.1 L95.59,228.6 L95.64,229.2 L95.69,229.7 L95.73,230.3 L95.78,230.9 L95.83,231.4 L95.88,232 L95.93,232.6 L95.98,233.1 L96.02,233.7 L96.07,234.3 L96.12,234.9 L96.17,235.5 L96.22,236.1 L96.26,236.7 L96.31,237.4 L96.36,238 L96.41,238.6 L96.46,239.3 L96.51,239.9 L96.55,240.6 L96.6,241.2 L96.65,241.9 L96.7,242.6 L96.75,243.2 L96.79,243.9 L96.84,244.6 L96.89,245.3 L96.94,246.1 L96.99,246.8 " fill="none"/></g>
</g>
<g id="plotPoints" clip-path="url(#plot_window)"></g>
<g id="legendBackground" stroke="rgb(255,255,0)" fill="rgb(255,255,255)" stroke-width="1"><rect x="259.1" y="47.5" width="138.4" height="70"/><rect x="259.1" y="47.5" width="138.4" height="70"/></g>
<g id="legendPoints"><g stroke="rgb(255,0,0)" fill="rgb(255,255,255)" stroke-width="1"><line x1="273.1" y1="75.5" x2="287.1" y2="75.5"/></g>
<g stroke="rgb(0,0,255)" fill="rgb(255,255,255)" stroke-width="1"><line x1="273.1" y1="103.5" x2="287.1" y2="103.5"/></g>
</g>
<g id="legendText">
<text x="294.1" y="75.5" font-size="14" font-family="Lucida Sans Unicode">W0 branch</text>
<text x="294.1" y="103.5" font-size="14" font-family="Lucida Sans Unicode">W-1 branch</text></g>
<g id="title">
<text x="200" y="36" text-anchor="middle" font-size="18" font-family="Lucida Sans Unicode">Lambert W function.</text></g>
<g id="plotXValues"></g>
<g id="plotYValues"></g>
</svg>
