<?xml version="1.0" encoding="UTF-8" standalone="no"?>
<svg width="400" height ="300" version="1.1"
xmlns:svg ="http://www.w3.org/2000/svg"
xmlns:rdf="http://www.w3.org/1999/02/22-rdf-syntax-ns#"
xmlns:cc="http://web.resource.org/cc/"
xmlns:dc="http://purl.org/dc/elements/1.1/"
xmlns ="http://www.w3.org/2000/svg"
>
<!-- SVG plot written using Boost.Plot program (Creator Jacob Voytko) --> 
<!-- Use, modification and distribution of Boost.Plot subject to the --> 
<!-- Boost Software License, Version 1.0.--> 
<!-- (See accompanying file LICENSE_1_0.txt --> 
<!-- or copy at http://www.boost.org/LICENSE_1_0.txt) --> 

<!-- SVG Plot Copyright Paul A. Bristow 2018 --> 
<meta name="copyright" content="Paul A. Bristow" />
<meta name="date" content="2018" />
<clipPath id="plot_window"><rect x="53.3" y="48.5" width="343.2" height="197"/></clipPath>
<g id="imageBackground" stroke="rgb(255,255,0)" fill="rgb(255,255,255)" stroke-width="2"><rect x="0" y="0" width="400" height="300"/></g>
<g id="plotBackground" stroke="rgb(119,136,153)" fill="rgb(255,255,255)" stroke-width="2"><rect x="52.3" y="47.5" width="345.2" height="199"/></g>
<g id="yMinorGrid" stroke="rgb(200,220,255)" stroke-width="0.5"></g>
<g id="yMajorGrid" stroke="rgb(200,220,255)" stroke-width="1"><path d="M54.3,224.4 L395.5,224.4 M54.3,202.3 L395.5,202.3 M54.3,180.2 L395.5,180.2 M54.3,158.1 L395.5,158.1 M54.3,135.9 L395.5,135.9 M54.3,113.8 L395.5,113.8 M54.3,91.72 L395.5,91.72 M54.3,69.61 L395.5,69.61 M54.3,47.5 L395.5,47.5 M54.3,224.4 L395.5,224.4 M54.3,246.5 L395.5,246.5 " fill="none"/></g>
<g id="xMinorGrid" stroke="rgb(200,220,255)" stroke-width="0.5"></g>
<g id="xMajorGrid" stroke="rgb(200,220,255)" stroke-width="1"><path d="M52.33,47.5 L52.33,246.5 M121.4,47.5 L121.4,246.5 M190.4,47.5 L190.4,246.5 M259.4,47.5 L259.4,246.5 M328.5,47.5 L328.5,246.5 M397.5,47.5 L397.5,246.5 M52.33,47.5 L52.33,246.5 " fill="none"/></g>
<g id="yAxis" stroke="rgb(0,0,0)" stroke-width="1"><line x1="52.33" y1="47.5" x2="52.33" y2="251.5"/><line x1="52.3" y1="47.5" x2="52.3" y2="246.5"/></g>
<g id="xAxis" stroke="rgb(0,0,0)" stroke-width="1"><line x1="47.3" y1="224.4" x2="397.5" y2="224.4"/><line x1="47.3" y1="246.5" x2="397.5" y2="246.5"/></g>
<g id="yMinorTicks" stroke="rgb(0,0,0)" stroke-width="1"><path d="M50.3,220 L52.3,220 M50.3,215.5 L52.3,215.5 M50.3,211.1 L52.3,211.1 M50.3,206.7 L52.3,206.7 M50.3,197.9 L52.3,197.9 M50.3,193.4 L52.3,193.4 M50.3,189 L52.3,189 M50.3,184.6 L52.3,184.6 M50.3,175.7 L52.3,175.7 M50.3,171.3 L52.3,171.3 M50.3,166.9 L52.3,166.9 M50.3,162.5 L52.3,162.5 M50.3,153.6 L52.3,153.6 M50.3,149.2 L52.3,149.2 M50.3,144.8 L52.3,144.8 M50.3,140.4 L52.3,140.4 M50.3,131.5 L52.3,131.5 M50.3,127.1 L52.3,127.1 M50.3,122.7 L52.3,122.7 M50.3,118.3 L52.3,118.3 M50.3,109.4 L52.3,109.4 M50.3,105 L52.3,105 M50.3,100.6 L52.3,100.6 M50.3,96.14 L52.3,96.14 M50.3,87.3 L52.3,87.3 M50.3,82.88 L52.3,82.88 M50.3,78.46 L52.3,78.46 M50.3,74.03 L52.3,74.03 M50.3,65.19 L52.3,65.19 M50.3,60.77 L52.3,60.77 M50.3,56.34 L52.3,56.34 M50.3,51.92 L52.3,51.92 M50.3,224.4 L52.3,224.4 M50.3,228.8 L52.3,228.8 M50.3,233.2 L52.3,233.2 M50.3,237.7 L52.3,237.7 M50.3,242.1 L52.3,242.1 M50.3,246.5 L52.3,246.5 " fill="none"/></g>
<g id="xMinorTicks" stroke="rgb(0,0,0)" stroke-width="1"><path d="M66.14,246.5 L66.14,248.5 M79.95,246.5 L79.95,248.5 M93.75,246.5 L93.75,248.5 M107.6,246.5 L107.6,248.5 M135.2,246.5 L135.2,248.5 M149,246.5 L149,248.5 M162.8,246.5 L162.8,248.5 M176.6,246.5 L176.6,248.5 M204.2,246.5 L204.2,248.5 M218,246.5 L218,248.5 M231.8,246.5 L231.8,248.5 M245.6,246.5 L245.6,248.5 M273.2,246.5 L273.2,248.5 M287,246.5 L287,248.5 M300.9,246.5 L300.9,248.5 M314.7,246.5 L314.7,248.5 M342.3,246.5 L342.3,248.5 M356.1,246.5 L356.1,248.5 M369.9,246.5 L369.9,248.5 M383.7,246.5 L383.7,248.5 " fill="none"/></g>
<g id="yMajorTicks" stroke="rgb(0,0,0)" stroke-width="2"><path d="M47.3,224.4 L52.3,224.4 M47.3,202.3 L52.3,202.3 M47.3,180.2 L52.3,180.2 M47.3,158.1 L52.3,158.1 M47.3,135.9 L52.3,135.9 M47.3,113.8 L52.3,113.8 M47.3,91.72 L52.3,91.72 M47.3,69.61 L52.3,69.61 M47.3,47.5 L52.3,47.5 M47.3,224.4 L52.3,224.4 M47.3,246.5 L52.3,246.5 " fill="none"/></g>
<g id="xMajorTicks" stroke="rgb(0,0,0)" stroke-width="2"><path d="M52.33,246.5 L52.33,251.5 M121.4,246.5 L121.4,251.5 M190.4,246.5 L190.4,251.5 M259.4,246.5 L259.4,251.5 M328.5,246.5 L328.5,251.5 M397.5,246.5 L397.5,251.5 M52.33,246.5 L52.33,251.5 " fill="none"/></g>
<g id="xTicksValues">
<text x="52.33" y="267.1" text-anchor="middle" font-size="12" font-family="Lucida Sans Unicode">0</text>
<text x="121.4" y="267.1" text-anchor="middle" font-size="12" font-family="Lucida Sans Unicode">2e3</text>
<text x="190.4" y="267.1" text-anchor="middle" font-size="12" font-family="Lucida Sans Unicode">4e3</text>
<text x="259.4" y="267.1" text-anchor="middle" font-size="12" font-family="Lucida Sans Unicode">6e3</text>
<text x="328.5" y="267.1" text-anchor="middle" font-size="12" font-family="Lucida Sans Unicode">8e3</text>
<text x="397.5" y="267.1" text-anchor="middle" font-size="12" font-family="Lucida Sans Unicode">1e4</text>
<text x="52.33" y="267.1" text-anchor="middle" font-size="12" font-family="Lucida Sans Unicode">0</text></g>
<g id="yTicksValues">
<text x="41.3" y="226.8" text-anchor="end" font-size="12" font-family="Lucida Sans Unicode">0</text>
<text x="41.3" y="204.7" text-anchor="end" font-size="12" font-family="Lucida Sans Unicode">1</text>
<text x="41.3" y="182.6" text-anchor="end" font-size="12" font-family="Lucida Sans Unicode">2</text>
<text x="41.3" y="160.5" text-anchor="end" font-size="12" font-family="Lucida Sans Unicode">3</text>
<text x="41.3" y="138.3" text-anchor="end" font-size="12" font-family="Lucida Sans Unicode">4</text>
<text x="41.3" y="116.2" text-anchor="end" font-size="12" font-family="Lucida Sans Unicode">5</text>
<text x="41.3" y="94.12" text-anchor="end" font-size="12" font-family="Lucida Sans Unicode">6</text>
<text x="41.3" y="72.01" text-anchor="end" font-size="12" font-family="Lucida Sans Unicode">7</text>
<text x="41.3" y="49.9" text-anchor="end" font-size="12" font-family="Lucida Sans Unicode">8</text>
<text x="41.3" y="226.8" text-anchor="end" font-size="12" font-family="Lucida Sans Unicode">0</text>
<text x="41.3" y="248.9" text-anchor="end" font-size="12" font-family="Lucida Sans Unicode">-1</text></g>
<g id="yLabel">
<text x="19.4" y="147" text-anchor="middle" transform = "rotate(-90 19.4 147 )" font-size="14" font-family="Lucida Sans Unicode">W</text></g>
<g id="xLabel">
<text x="224.9" y="282.2" text-anchor="middle" font-size="14" font-family="Lucida Sans Unicode">z</text></g>
<g id="plotLines" stroke-width="2"><g clip-path="url(#plot_window)" stroke="rgb(255,0,0)" stroke-width="1"><path d="M52.32,246.5 L52.32,246.5 L54.05,161.3 L55.77,149.6 L57.5,142.6 L59.23,137.5 L60.95,133.6 L62.68,130.3 L64.4,127.5 L66.13,125.1 L67.85,123 L69.58,121.1 L71.31,119.3 L73.03,117.7 L74.76,116.3 L76.48,114.9 L78.21,113.6 L79.94,112.5 L81.66,111.3 L83.39,110.3 L85.11,109.3 L86.84,108.3 L88.56,107.4 L90.29,106.5 L92.02,105.7 L93.74,104.9 L95.47,104.2 L97.19,103.4 L98.92,102.7 L100.6,102 L102.4,101.4 L104.1,100.8 L105.8,100.1 L107.5,99.54 L109.3,98.96 L111,98.4 L112.7,97.85 L114.5,97.32 L116.2,96.81 L117.9,96.3 L119.6,95.81 L121.4,95.34 L123.1,94.87 L124.8,94.41 L126.5,93.97 L128.3,93.53 L130,93.11 L131.7,92.69 L133.4,92.29 L135.2,91.89 L136.9,91.5 L138.6,91.11 L140.3,90.74 L142.1,90.37 L143.8,90.01 L145.5,89.65 L147.2,89.3 L149,88.96 L150.7,88.62 L152.4,88.29 L154.1,87.97 L155.9,87.65 L157.6,87.33 L159.3,87.02 L161,86.72 L162.8,86.42 L164.5,86.12 L166.2,85.83 L168,85.55 L169.7,85.26 L171.4,84.98 L173.1,84.71 L174.9,84.44 L176.6,84.17 L178.3,83.91 L180,83.65 L181.8,83.39 L183.5,83.14 L185.2,82.89 L186.9,82.64 L188.7,82.4 L190.4,82.16 L192.1,81.92 L193.8,81.68 L195.6,81.45 L197.3,81.22 L199,81 L200.7,80.77 L202.5,80.55 L204.2,80.33 L205.9,80.12 L207.6,79.9 L209.4,79.69 L211.1,79.48 L212.8,79.27 L214.5,79.07 L216.3,78.86 L218,78.66 L219.7,78.46 L221.5,78.27 L223.2,78.07 L224.9,77.88 L226.6,77.69 L228.4,77.5 L230.1,77.31 L231.8,77.12 L233.5,76.94 L235.3,76.76 L237,76.58 L238.7,76.4 L240.4,76.22 L242.2,76.05 L243.9,75.87 L245.6,75.7 L247.3,75.53 L249.1,75.36 L250.8,75.19 L252.5,75.02 L254.2,74.86 L256,74.69 L257.7,74.53 L259.4,74.37 L261.1,74.21 L262.9,74.05 L264.6,73.89 L266.3,73.74 L268.1,73.58 L269.8,73.43 L271.5,73.28 L273.2,73.13 L275,72.98 L276.7,72.83 L278.4,72.68 L280.1,72.53 L281.9,72.39 L283.6,72.24 L285.3,72.1 L287,71.96 L288.8,71.81 L290.5,71.67 L292.2,71.53 L293.9,71.4 L295.7,71.26 L297.4,71.12 L299.1,70.99 L300.8,70.85 L302.6,70.72 L304.3,70.58 L306,70.45 L307.7,70.32 L309.5,70.19 L311.2,70.06 L312.9,69.93 L314.6,69.81 L316.4,69.68 L318.1,69.55 L319.8,69.43 L321.6,69.3 L323.3,69.18 L325,69.06 L326.7,68.93 L328.5,68.81 L330.2,68.69 L331.9,68.57 L333.6,68.45 L335.4,68.33 L337.1,68.22 L338.8,68.1 L340.5,67.98 L342.3,67.87 L344,67.75 L345.7,67.64 L347.4,67.53 L349.2,67.41 L350.9,67.3 L352.6,67.19 L354.3,67.08 L356.1,66.97 L357.8,66.86 L359.5,66.75 L361.2,66.64 L363,66.53 L364.7,66.42 L366.4,66.32 L368.1,66.21 L369.9,66.1 L371.6,66 L373.3,65.89 L375.1,65.79 L376.8,65.69 L378.5,65.58 L380.2,65.48 L382,65.38 L383.7,65.28 L385.4,65.18 L387.1,65.08 L388.9,64.98 L390.6,64.88 L392.3,64.78 L394,64.68 L395.8,64.58 L397.5,64.49 " fill="none"/></g>
</g>
<g id="plotPoints" clip-path="url(#plot_window)"></g>
<g id="title">
<text x="200" y="36" text-anchor="middle" font-size="18" font-family="Lucida Sans Unicode">Lambert W0 function for larger z.</text></g>
<g id="plotXValues"></g>
<g id="plotYValues"></g>
</svg>
