<?xml version="1.0" encoding="UTF-8" standalone="no"?>
<svg width="400" height ="300" version="1.1"
xmlns:svg ="http://www.w3.org/2000/svg"
xmlns:rdf="http://www.w3.org/1999/02/22-rdf-syntax-ns#"
xmlns:cc="http://web.resource.org/cc/"
xmlns:dc="http://purl.org/dc/elements/1.1/"
xmlns ="http://www.w3.org/2000/svg"
>
<!-- SVG plot written using Boost.Plot program (Creator Jacob Voytko) --> 
<!-- Use, modification and distribution of Boost.Plot subject to the --> 
<!-- Boost Software License, Version 1.0.--> 
<!-- (See accompanying file LICENSE_1_0.txt --> 
<!-- or copy at http://www.boost.org/LICENSE_1_0.txt) --> 

<!-- SVG Plot Copyright Paul A. Bristow 2018 --> 
<meta name="copyright" content="Paul A. Bristow" />
<meta name="date" content="2018" />
<clipPath id="plot_window"><rect x="53.3" y="48.5" width="190.8" height="197"/></clipPath>
<g id="imageBackground" stroke="rgb(255,255,0)" fill="rgb(255,255,255)" stroke-width="2"><rect x="0" y="0" width="400" height="300"/></g>
<g id="plotBackground" stroke="rgb(119,136,153)" fill="rgb(255,255,255)" stroke-width="2"><rect x="52.3" y="47.5" width="192.8" height="199"/></g>
<g id="yMinorGrid" stroke="rgb(200,220,255)" stroke-width="0.5"></g>
<g id="yMajorGrid" stroke="rgb(200,220,255)" stroke-width="1"><path d="M54.3,87.3 L243.1,87.3 M54.3,47.5 L243.1,47.5 M54.3,87.3 L243.1,87.3 M54.3,127.1 L243.1,127.1 M54.3,166.9 L243.1,166.9 M54.3,206.7 L243.1,206.7 M54.3,246.5 L243.1,246.5 " fill="none"/></g>
<g id="xMinorGrid" stroke="rgb(200,220,255)" stroke-width="0.5"></g>
<g id="xMajorGrid" stroke="rgb(200,220,255)" stroke-width="1"><path d="M100.5,47.5 L100.5,246.5 M148.7,47.5 L148.7,246.5 M196.9,47.5 L196.9,246.5 M245.1,47.5 L245.1,246.5 M100.5,47.5 L100.5,246.5 M52.3,47.5 L52.3,246.5 " fill="none"/></g>
<g id="yAxis" stroke="rgb(0,0,0)" stroke-width="1"><line x1="100.5" y1="47.5" x2="100.5" y2="251.5"/><line x1="52.3" y1="47.5" x2="52.3" y2="246.5"/></g>
<g id="xAxis" stroke="rgb(0,0,0)" stroke-width="1"><line x1="47.3" y1="87.3" x2="245.1" y2="87.3"/><line x1="47.3" y1="246.5" x2="245.1" y2="246.5"/></g>
<g id="yMinorTicks" stroke="rgb(0,0,0)" stroke-width="1"><path d="M50.3,79.34 L52.3,79.34 M50.3,71.38 L52.3,71.38 M50.3,63.42 L52.3,63.42 M50.3,55.46 L52.3,55.46 M50.3,87.3 L52.3,87.3 M50.3,95.26 L52.3,95.26 M50.3,103.2 L52.3,103.2 M50.3,111.2 L52.3,111.2 M50.3,119.1 L52.3,119.1 M50.3,127.1 L52.3,127.1 M50.3,135.1 L52.3,135.1 M50.3,143 L52.3,143 M50.3,151 L52.3,151 M50.3,158.9 L52.3,158.9 M50.3,166.9 L52.3,166.9 M50.3,166.9 L52.3,166.9 M50.3,174.9 L52.3,174.9 M50.3,182.8 L52.3,182.8 M50.3,190.8 L52.3,190.8 M50.3,198.7 L52.3,198.7 M50.3,206.7 L52.3,206.7 M50.3,214.7 L52.3,214.7 M50.3,222.6 L52.3,222.6 M50.3,230.6 L52.3,230.6 M50.3,238.5 L52.3,238.5 M50.3,246.5 L52.3,246.5 " fill="none"/></g>
<g id="xMinorTicks" stroke="rgb(0,0,0)" stroke-width="1"><path d="M110.1,246.5 L110.1,248.5 M119.8,246.5 L119.8,248.5 M129.4,246.5 L129.4,248.5 M139.1,246.5 L139.1,248.5 M158.3,246.5 L158.3,248.5 M168,246.5 L168,248.5 M177.6,246.5 L177.6,248.5 M187.3,246.5 L187.3,248.5 M206.5,246.5 L206.5,248.5 M216.2,246.5 L216.2,248.5 M225.8,246.5 L225.8,248.5 M235.5,246.5 L235.5,248.5 M90.86,246.5 L90.86,248.5 M81.22,246.5 L81.22,248.5 M71.58,246.5 L71.58,248.5 M61.94,246.5 L61.94,248.5 " fill="none"/></g>
<g id="yMajorTicks" stroke="rgb(0,0,0)" stroke-width="2"><path d="M47.3,87.3 L52.3,87.3 M47.3,47.5 L52.3,47.5 M47.3,87.3 L52.3,87.3 M47.3,127.1 L52.3,127.1 M47.3,166.9 L52.3,166.9 M47.3,206.7 L52.3,206.7 M47.3,246.5 L52.3,246.5 " fill="none"/></g>
<g id="xMajorTicks" stroke="rgb(0,0,0)" stroke-width="2"><path d="M100.5,246.5 L100.5,251.5 M148.7,246.5 L148.7,251.5 M196.9,246.5 L196.9,251.5 M245.1,246.5 L245.1,251.5 M100.5,246.5 L100.5,251.5 M52.3,246.5 L52.3,251.5 " fill="none"/></g>
<g id="xTicksValues">
<text x="100.5" y="267.1" text-anchor="middle" font-size="12" font-family="Lucida Sans Unicode">0</text>
<text x="148.7" y="267.1" text-anchor="middle" font-size="12" font-family="Lucida Sans Unicode">1</text>
<text x="196.9" y="267.1" text-anchor="middle" font-size="12" font-family="Lucida Sans Unicode">2</text>
<text x="245.1" y="267.1" text-anchor="middle" font-size="12" font-family="Lucida Sans Unicode">3</text>
<text x="100.5" y="267.1" text-anchor="middle" font-size="12" font-family="Lucida Sans Unicode">0</text>
<text x="52.3" y="267.1" text-anchor="middle" font-size="12" font-family="Lucida Sans Unicode">-1</text></g>
<g id="yTicksValues">
<text x="41.3" y="89.7" text-anchor="end" font-size="12" font-family="Lucida Sans Unicode">0</text>
<text x="41.3" y="49.9" text-anchor="end" font-size="12" font-family="Lucida Sans Unicode">1</text>
<text x="41.3" y="89.7" text-anchor="end" font-size="12" font-family="Lucida Sans Unicode">0</text>
<text x="41.3" y="129.5" text-anchor="end" font-size="12" font-family="Lucida Sans Unicode">-1</text>
<text x="41.3" y="169.3" text-anchor="end" font-size="12" font-family="Lucida Sans Unicode">-2</text>
<text x="41.3" y="209.1" text-anchor="end" font-size="12" font-family="Lucida Sans Unicode">-3</text>
<text x="41.3" y="248.9" text-anchor="end" font-size="12" font-family="Lucida Sans Unicode">-4</text></g>
<g id="yLabel">
<text x="19.4" y="147" text-anchor="middle" transform = "rotate(-90 19.4 147 )" font-size="14" font-family="Lucida Sans Unicode">W</text></g>
<g id="xLabel">
<text x="148.7" y="282.2" text-anchor="middle" font-size="14" font-family="Lucida Sans Unicode">z</text></g>
<g id="plotLines" stroke-width="2"><g clip-path="url(#plot_window)" stroke="rgb(255,0,0)" stroke-width="1"><path d="M82.77,127.1 L82.77,127.1 L82.82,124.2 L82.86,123.1 L82.91,122.2 L82.96,121.5 L83.01,120.9 L83.06,120.3 L83.11,119.8 L83.15,119.3 L83.2,118.9 L83.25,118.5 L83.3,118.1 L83.35,117.7 L83.39,117.4 L83.44,117 L83.49,116.7 L83.54,116.4 L83.59,116.1 L83.64,115.8 L83.68,115.5 L83.73,115.2 L83.78,115 L83.83,114.7 L83.88,114.5 L83.93,114.2 L83.97,114 L84.02,113.7 L84.07,113.5 L84.12,113.3 L84.17,113.1 L84.21,112.9 L84.26,112.6 L84.31,112.4 L84.36,112.2 L84.41,112 L84.46,111.9 L84.5,111.7 L84.55,111.5 L84.6,111.3 L84.65,111.1 L84.7,110.9 L84.74,110.8 L84.79,110.6 L84.84,110.4 L84.89,110.2 L84.94,110.1 L84.99,109.9 L85.03,109.7 L85.08,109.6 L85.13,109.4 L85.18,109.3 L85.23,109.1 L85.27,109 L85.32,108.8 L85.37,108.7 L85.42,108.5 L85.47,108.4 L85.52,108.2 L85.56,108.1 L85.61,108 L85.66,107.8 L85.71,107.7 L85.76,107.5 L85.8,107.4 L85.85,107.3 L85.9,107.1 L85.95,107 L86,106.9 L86.05,106.8 L86.09,106.6 L86.14,106.5 L86.19,106.4 L86.24,106.3 L86.29,106.1 L86.34,106 L86.38,105.9 L86.43,105.8 L86.48,105.7 L86.53,105.5 L86.58,105.4 L86.62,105.3 L86.67,105.2 L86.72,105.1 L86.77,105 L86.82,104.9 L86.87,104.8 L86.91,104.6 L86.96,104.5 L87.01,104.4 L87.06,104.3 L87.11,104.2 L87.15,104.1 L87.2,104 L87.25,103.9 L87.3,103.8 L87.35,103.7 L87.4,103.6 L87.44,103.5 L87.49,103.4 L87.54,103.3 L87.59,103.2 L87.64,103.1 L87.68,103 L87.73,102.9 L87.78,102.8 L87.83,102.7 L87.88,102.6 L87.93,102.5 L87.97,102.4 L88.02,102.3 L88.07,102.2 L88.12,102.1 L88.17,102.1 L88.21,102 L88.26,101.9 L88.31,101.8 L88.36,101.7 L88.41,101.6 L88.46,101.5 L88.5,101.4 L88.55,101.3 L88.6,101.3 L88.65,101.2 L88.7,101.1 L88.75,101 L88.79,100.9 L88.84,100.8 L88.89,100.7 L88.94,100.7 L88.99,100.6 L89.03,100.5 L89.08,100.4 L89.13,100.3 L89.18,100.2 L89.23,100.2 L89.28,100.1 L89.32,100 L89.37,99.92 L89.42,99.84 L89.47,99.76 L89.52,99.68 L89.56,99.6 L89.61,99.52 L89.66,99.44 L89.71,99.37 L89.76,99.29 L89.81,99.21 L89.85,99.14 L89.9,99.06 L89.95,98.98 L90,98.91 L90.05,98.83 L90.09,98.76 L90.14,98.68 L90.19,98.61 L90.24,98.54 L90.29,98.46 L90.34,98.39 L90.38,98.32 L90.43,98.24 L90.48,98.17 L90.53,98.1 L90.58,98.03 L90.62,97.96 L90.67,97.89 L90.72,97.82 L90.77,97.75 L90.82,97.68 L90.87,97.61 L90.91,97.54 L90.96,97.47 L91.01,97.4 L91.06,97.33 L91.11,97.26 L91.16,97.19 L91.2,97.13 L91.25,97.06 L91.3,96.99 L91.35,96.92 L91.4,96.86 L91.44,96.79 L91.49,96.73 L91.54,96.66 L91.59,96.59 L91.64,96.53 L91.69,96.46 L91.73,96.4 L91.78,96.33 L91.83,96.27 L91.88,96.2 L91.93,96.14 L91.97,96.08 L92.02,96.01 L92.07,95.95 L92.12,95.89 L92.17,95.82 L92.22,95.76 L92.26,95.7 L92.31,95.64 L92.36,95.57 L92.41,95.51 L92.46,95.45 L92.5,95.39 L92.55,95.33 L92.6,95.27 L92.65,95.21 L92.7,95.15 L92.75,95.09 L92.79,95.03 L92.84,94.97 L92.89,94.91 L92.94,94.85 L92.99,94.79 L93.03,94.73 L93.08,94.67 L93.13,94.61 L93.18,94.55 L93.23,94.49 L93.28,94.44 L93.32,94.38 L93.37,94.32 L93.42,94.26 L93.47,94.21 L93.52,94.15 L93.57,94.09 L93.61,94.04 L93.66,93.98 L93.71,93.92 L93.76,93.87 L93.81,93.81 L93.85,93.75 L93.9,93.7 L93.95,93.64 L94,93.59 L94.05,93.53 L94.1,93.48 L94.14,93.42 L94.19,93.37 L94.24,93.31 L94.29,93.26 L94.34,93.2 L94.38,93.15 L94.43,93.1 L94.48,93.04 L94.53,92.99 L94.58,92.93 L94.63,92.88 L94.67,92.83 L94.72,92.77 L94.77,92.72 L94.82,92.67 L94.87,92.62 L94.91,92.56 L94.96,92.51 L95.01,92.46 L95.06,92.41 L95.11,92.36 L95.16,92.3 L95.2,92.25 L95.25,92.2 L95.3,92.15 L95.35,92.1 L95.4,92.05 L95.44,92 L95.49,91.95 L95.54,91.9 L95.59,91.85 L95.64,91.8 L95.69,91.74 L95.73,91.69 L95.78,91.64 L95.83,91.6 L95.88,91.55 L95.93,91.5 L95.98,91.45 L96.02,91.4 L96.07,91.35 L96.12,91.3 L96.17,91.25 L96.22,91.2 L96.26,91.15 L96.31,91.1 L96.36,91.06 L96.41,91.01 L96.46,90.96 L96.51,90.91 L96.55,90.86 L96.6,90.82 L96.65,90.77 L96.7,90.72 L96.75,90.67 L96.79,90.63 L96.84,90.58 L96.89,90.53 L96.94,90.49 L96.99,90.44 L97.04,90.39 L97.08,90.35 L97.13,90.3 L97.18,90.25 L97.23,90.21 L97.28,90.16 L97.32,90.11 L97.37,90.07 L97.42,90.02 L97.47,89.98 L97.52,89.93 L97.57,89.89 L97.61,89.84 L97.66,89.8 L97.71,89.75 L97.76,89.7 L97.81,89.66 L97.85,89.62 L97.9,89.57 L97.95,89.53 L98,89.48 L98.05,89.44 L98.1,89.39 L98.14,89.35 L98.19,89.3 L98.24,89.26 L98.29,89.22 L98.34,89.17 L98.39,89.13 L98.43,89.08 L98.48,89.04 L98.53,89 L98.58,88.95 L98.63,88.91 L98.67,88.87 L98.72,88.83 L98.77,88.78 L98.82,88.74 L98.87,88.7 L98.92,88.65 L98.96,88.61 L99.01,88.57 L99.06,88.53 L99.11,88.48 L99.16,88.44 L99.2,88.4 L99.25,88.36 L99.3,88.32 L99.35,88.27 L99.4,88.23 L99.45,88.19 L99.49,88.15 L99.54,88.11 L99.59,88.07 L99.64,88.02 L99.69,87.98 L99.73,87.94 L99.78,87.9 L99.83,87.86 L99.88,87.82 L99.93,87.78 L99.98,87.74 L100,87.7 L100.1,87.66 L100.1,87.62 L100.2,87.58 L100.2,87.54 L100.3,87.5 L100.3,87.46 L100.4,87.41 L100.4,87.37 L100.5,87.34 L100.5,87.3 L100.6,87.26 L100.6,87.22 L100.7,87.18 L100.7,87.14 L100.7,87.1 L100.8,87.06 L100.8,87.02 L100.9,86.98 L100.9,86.94 L101,86.9 L101,86.86 L101.1,86.82 L101.1,86.78 L101.2,86.75 L101.2,86.71 L101.3,86.67 L101.3,86.63 L101.4,86.59 L101.4,86.55 L101.5,86.51 L101.5,86.48 L101.6,86.44 L101.6,86.4 L101.7,86.36 L101.7,86.32 L101.8,86.29 L101.8,86.25 L101.9,86.21 L101.9,86.17 L102,86.14 L102,86.1 L102,86.06 L102.1,86.02 L102.1,85.99 L102.2,85.95 L102.2,85.91 L102.3,85.87 L102.3,85.84 L102.4,85.8 L102.4,85.76 L102.5,85.73 L102.5,85.69 L102.6,85.65 L102.6,85.62 L102.7,85.58 L102.7,85.54 L102.8,85.51 L102.8,85.47 L102.9,85.43 L102.9,85.4 L103,85.36 L103,85.33 L103.1,85.29 L103.1,85.25 L103.2,85.22 L103.2,85.18 L103.3,85.15 L103.3,85.11 L103.3,85.07 L103.4,85.04 L103.4,85 L103.5,84.97 L103.5,84.93 L103.6,84.9 L103.6,84.86 L103.7,84.83 L103.7,84.79 L103.8,84.76 L103.8,84.72 L103.9,84.69 L103.9,84.65 L104,84.62 L104,84.58 L104.1,84.55 L104.1,84.51 L104.2,84.48 L104.2,84.44 L104.3,84.41 L104.3,84.37 L104.4,84.34 L104.4,84.31 L104.5,84.27 L104.5,84.24 L104.6,84.2 L104.6,84.17 L104.7,84.13 L104.7,84.1 L104.7,84.07 L104.8,84.03 L104.8,84 L104.9,83.96 L104.9,83.93 L105,83.9 L105,83.86 L105.1,83.83 L105.1,83.8 L105.2,83.76 L105.2,83.73 L105.3,83.7 L105.3,83.66 L105.4,83.63 L105.4,83.6 L105.5,83.56 L105.5,83.53 L105.6,83.5 L105.6,83.46 L105.7,83.43 L105.7,83.4 L105.8,83.37 L105.8,83.33 L105.9,83.3 L105.9,83.27 L106,83.23 L106,83.2 L106,83.17 L106.1,83.14 L106.1,83.1 L106.2,83.07 L106.2,83.04 L106.3,83.01 L106.3,82.98 L106.4,82.94 L106.4,82.91 L106.5,82.88 L106.5,82.85 L106.6,82.82 L106.6,82.78 L106.7,82.75 L106.7,82.72 L106.8,82.69 L106.8,82.66 L106.9,82.62 L106.9,82.59 L107,82.56 L107,82.53 L107.1,82.5 L107.1,82.47 L107.2,82.44 L107.2,82.4 L107.3,82.37 L107.3,82.34 L107.4,82.31 L107.4,82.28 L107.4,82.25 L107.5,82.22 L107.5,82.19 L107.6,82.15 L107.6,82.12 L107.7,82.09 L107.7,82.06 L107.8,82.03 L107.8,82 L107.9,81.97 L107.9,81.94 L108,81.91 L108,81.88 L108.1,81.85 L108.1,81.82 L108.2,81.79 L108.2,81.76 L108.3,81.73 L108.3,81.7 L108.4,81.66 L108.4,81.63 L108.5,81.6 L108.5,81.57 L108.6,81.54 L108.6,81.51 L108.7,81.48 L108.7,81.45 L108.7,81.42 L108.8,81.39 L108.8,81.36 L108.9,81.33 L108.9,81.3 L109,81.28 L109,81.25 L109.1,81.22 L109.1,81.19 L109.2,81.16 L109.2,81.13 L109.3,81.1 L109.3,81.07 L109.4,81.04 L109.4,81.01 L109.5,80.98 L109.5,80.95 L109.6,80.92 L109.6,80.89 L109.7,80.86 L109.7,80.83 L109.8,80.8 L109.8,80.78 L109.9,80.75 L109.9,80.72 L110,80.69 L110,80.66 L110,80.63 L110.1,80.6 L110.1,80.57 L110.2,80.54 L110.2,80.52 L110.3,80.49 L110.3,80.46 L110.4,80.43 L110.4,80.4 L110.5,80.37 L110.5,80.34 L110.6,80.32 L110.6,80.29 L110.7,80.26 L110.7,80.23 L110.8,80.2 L110.8,80.17 L110.9,80.15 L110.9,80.12 L111,80.09 L111,80.06 L111.1,80.03 L111.1,80.01 L111.2,79.98 L111.2,79.95 L111.3,79.92 L111.3,79.89 L111.4,79.87 L111.4,79.84 L111.4,79.81 L111.5,79.78 L111.5,79.76 L111.6,79.73 L111.6,79.7 L111.7,79.67 L111.7,79.65 L111.8,79.62 L111.8,79.59 L111.9,79.56 L111.9,79.54 L112,79.51 L112,79.48 L112.1,79.45 L112.1,79.43 L112.2,79.4 L112.2,79.37 L112.3,79.34 L112.3,79.32 L112.4,79.29 L112.4,79.26 L112.5,79.24 L112.5,79.21 L112.6,79.18 L112.6,79.16 L112.7,79.13 L112.7,79.1 L112.7,79.07 L112.8,79.05 L112.8,79.02 L112.9,78.99 L112.9,78.97 L113,78.94 L113,78.91 L113.1,78.89 L113.1,78.86 L113.2,78.83 L113.2,78.81 L113.3,78.78 L113.3,78.75 L113.4,78.73 L113.4,78.7 L113.5,78.68 L113.5,78.65 L113.6,78.62 L113.6,78.6 L113.7,78.57 L113.7,78.54 L113.8,78.52 L113.8,78.49 L113.9,78.47 L113.9,78.44 L114,78.41 L114,78.39 L114.1,78.36 L114.1,78.34 L114.1,78.31 L114.2,78.28 L114.2,78.26 L114.3,78.23 L114.3,78.21 L114.4,78.18 L114.4,78.16 L114.5,78.13 L114.5,78.1 L114.6,78.08 L114.6,78.05 L114.7,78.03 L114.7,78 L114.8,77.98 L114.8,77.95 L114.9,77.92 L114.9,77.9 L115,77.87 L115,77.85 L115.1,77.82 L115.1,77.8 L115.2,77.77 L115.2,77.75 L115.3,77.72 L115.3,77.7 L115.4,77.67 L115.4,77.65 L115.4,77.62 L115.5,77.6 L115.5,77.57 L115.6,77.55 L115.6,77.52 L115.7,77.5 L115.7,77.47 L115.8,77.45 L115.8,77.42 L115.9,77.4 L115.9,77.37 L116,77.35 L116,77.32 L116.1,77.3 L116.1,77.27 L116.2,77.25 L116.2,77.22 L116.3,77.2 L116.3,77.17 L116.4,77.15 L116.4,77.13 L116.5,77.1 L116.5,77.08 L116.6,77.05 L116.6,77.03 L116.7,77 L116.7,76.98 L116.7,76.95 L116.8,76.93 L116.8,76.91 L116.9,76.88 L116.9,76.86 L117,76.83 L117,76.81 L117.1,76.78 L117.1,76.76 L117.2,76.74 L117.2,76.71 L117.3,76.69 L117.3,76.66 L117.4,76.64 L117.4,76.62 L117.5,76.59 L117.5,76.57 L117.6,76.54 L117.6,76.52 L117.7,76.5 L117.7,76.47 L117.8,76.45 L117.8,76.42 L117.9,76.4 L117.9,76.38 L118,76.35 L118,76.33 L118.1,76.31 L118.1,76.28 L118.1,76.26 L118.2,76.24 L118.2,76.21 L118.3,76.19 L118.3,76.16 L118.4,76.14 L118.4,76.12 L118.5,76.09 L118.5,76.07 L118.6,76.05 L118.6,76.02 L118.7,76 L118.7,75.98 L118.8,75.95 L118.8,75.93 L118.9,75.91 L118.9,75.88 L119,75.86 L119,75.84 L119.1,75.81 L119.1,75.79 L119.2,75.77 L119.2,75.75 L119.3,75.72 L119.3,75.7 L119.4,75.68 L119.4,75.65 L119.4,75.63 L119.5,75.61 L119.5,75.58 L119.6,75.56 L119.6,75.54 L119.7,75.52 L119.7,75.49 L119.8,75.47 L119.8,75.45 L119.9,75.42 L119.9,75.4 L120,75.38 L120,75.36 L120.1,75.33 L120.1,75.31 L120.2,75.29 L120.2,75.27 L120.3,75.24 L120.3,75.22 L120.4,75.2 L120.4,75.18 L120.5,75.15 L120.5,75.13 L120.6,75.11 L120.6,75.09 L120.7,75.06 L120.7,75.04 L120.7,75.02 L120.8,75 L120.8,74.97 L120.9,74.95 L120.9,74.93 L121,74.91 L121,74.89 L121.1,74.86 L121.1,74.84 L121.2,74.82 L121.2,74.8 L121.3,74.77 L121.3,74.75 L121.4,74.73 L121.4,74.71 L121.5,74.69 L121.5,74.66 L121.6,74.64 L121.6,74.62 L121.7,74.6 L121.7,74.58 L121.8,74.55 L121.8,74.53 L121.9,74.51 L121.9,74.49 L122,74.47 L122,74.45 L122.1,74.42 L122.1,74.4 L122.1,74.38 L122.2,74.36 L122.2,74.34 L122.3,74.31 L122.3,74.29 L122.4,74.27 L122.4,74.25 L122.5,74.23 L122.5,74.21 L122.6,74.19 L122.6,74.16 L122.7,74.14 L122.7,74.12 L122.8,74.1 L122.8,74.08 L122.9,74.06 L122.9,74.04 L123,74.01 L123,73.99 L123.1,73.97 L123.1,73.95 L123.2,73.93 L123.2,73.91 L123.3,73.89 L123.3,73.86 L123.4,73.84 L123.4,73.82 L123.4,73.8 L123.5,73.78 L123.5,73.76 L123.6,73.74 L123.6,73.72 L123.7,73.7 L123.7,73.67 L123.8,73.65 L123.8,73.63 L123.9,73.61 L123.9,73.59 L124,73.57 L124,73.55 L124.1,73.53 L124.1,73.51 L124.2,73.49 L124.2,73.46 L124.3,73.44 L124.3,73.42 L124.4,73.4 L124.4,73.38 L124.5,73.36 L124.5,73.34 L124.6,73.32 L124.6,73.3 L124.7,73.28 L124.7,73.26 L124.8,73.24 L124.8,73.22 L124.8,73.2 L124.9,73.17 L124.9,73.15 L125,73.13 L125,73.11 L125.1,73.09 L125.1,73.07 L125.2,73.05 L125.2,73.03 L125.3,73.01 L125.3,72.99 L125.4,72.97 L125.4,72.95 L125.5,72.93 L125.5,72.91 L125.6,72.89 L125.6,72.87 L125.7,72.85 L125.7,72.83 L125.8,72.81 L125.8,72.79 L125.9,72.77 L125.9,72.75 L126,72.73 L126,72.71 L126.1,72.69 L126.1,72.67 L126.1,72.65 L126.2,72.63 L126.2,72.6 L126.3,72.58 L126.3,72.56 L126.4,72.54 L126.4,72.52 L126.5,72.5 L126.5,72.48 L126.6,72.46 L126.6,72.44 L126.7,72.42 L126.7,72.4 L126.8,72.38 L126.8,72.37 L126.9,72.35 L126.9,72.33 L127,72.31 L127,72.29 L127.1,72.27 L127.1,72.25 L127.2,72.23 L127.2,72.21 L127.3,72.19 L127.3,72.17 L127.4,72.15 L127.4,72.13 L127.4,72.11 L127.5,72.09 L127.5,72.07 L127.6,72.05 L127.6,72.03 L127.7,72.01 L127.7,71.99 L127.8,71.97 L127.8,71.95 L127.9,71.93 L127.9,71.91 L128,71.89 L128,71.87 L128.1,71.85 L128.1,71.83 L128.2,71.81 L128.2,71.8 L128.3,71.78 L128.3,71.76 L128.4,71.74 L128.4,71.72 L128.5,71.7 L128.5,71.68 L128.6,71.66 L128.6,71.64 L128.7,71.62 L128.7,71.6 L128.8,71.58 L128.8,71.56 L128.8,71.54 L128.9,71.53 L128.9,71.51 L129,71.49 L129,71.47 L129.1,71.45 L129.1,71.43 L129.2,71.41 L129.2,71.39 L129.3,71.37 L129.3,71.35 L129.4,71.33 L129.4,71.32 L129.5,71.3 L129.5,71.28 L129.6,71.26 L129.6,71.24 L129.7,71.22 L129.7,71.2 L129.8,71.18 L129.8,71.16 L129.9,71.15 L129.9,71.13 L130,71.11 L130,71.09 L130.1,71.07 L130.1,71.05 L130.1,71.03 L130.2,71.01 L130.2,70.99 L130.3,70.98 L130.3,70.96 L130.4,70.94 L130.4,70.92 L130.5,70.9 L130.5,70.88 L130.6,70.86 L130.6,70.85 L130.7,70.83 L130.7,70.81 L130.8,70.79 L130.8,70.77 L130.9,70.75 L130.9,70.73 L131,70.72 L131,70.7 L131.1,70.68 L131.1,70.66 L131.2,70.64 L131.2,70.62 L131.3,70.6 L131.3,70.59 L131.4,70.57 L131.4,70.55 L131.5,70.53 L131.5,70.51 L131.5,70.49 L131.6,70.48 L131.6,70.46 L131.7,70.44 L131.7,70.42 L131.8,70.4 L131.8,70.38 L131.9,70.37 L131.9,70.35 L132,70.33 L132,70.31 L132.1,70.29 L132.1,70.27 L132.2,70.26 L132.2,70.24 L132.3,70.22 L132.3,70.2 L132.4,70.18 L132.4,70.17 L132.5,70.15 L132.5,70.13 L132.6,70.11 L132.6,70.09 L132.7,70.08 L132.7,70.06 L132.8,70.04 L132.8,70.02 L132.8,70 L132.9,69.99 L132.9,69.97 L133,69.95 L133,69.93 L133.1,69.91 L133.1,69.9 L133.2,69.88 L133.2,69.86 L133.3,69.84 L133.3,69.82 L133.4,69.81 L133.4,69.79 L133.5,69.77 L133.5,69.75 L133.6,69.74 L133.6,69.72 L133.7,69.7 L133.7,69.68 L133.8,69.66 L133.8,69.65 L133.9,69.63 L133.9,69.61 L134,69.59 L134,69.58 L134.1,69.56 L134.1,69.54 L134.1,69.52 L134.2,69.51 L134.2,69.49 L134.3,69.47 L134.3,69.45 L134.4,69.44 L134.4,69.42 L134.5,69.4 L134.5,69.38 L134.6,69.37 L134.6,69.35 L134.7,69.33 L134.7,69.31 L134.8,69.3 L134.8,69.28 L134.9,69.26 L134.9,69.24 L135,69.23 L135,69.21 L135.1,69.19 L135.1,69.17 L135.2,69.16 L135.2,69.14 L135.3,69.12 L135.3,69.11 L135.4,69.09 L135.4,69.07 L135.5,69.05 L135.5,69.04 L135.5,69.02 L135.6,69 L135.6,68.98 L135.7,68.97 L135.7,68.95 L135.8,68.93 L135.8,68.92 L135.9,68.9 L135.9,68.88 L136,68.86 L136,68.85 L136.1,68.83 L136.1,68.81 L136.2,68.8 L136.2,68.78 L136.3,68.76 L136.3,68.74 L136.4,68.73 L136.4,68.71 L136.5,68.69 L136.5,68.68 L136.6,68.66 L136.6,68.64 L136.7,68.63 L136.7,68.61 L136.8,68.59 L136.8,68.57 L136.8,68.56 L136.9,68.54 L136.9,68.52 L137,68.51 L137,68.49 L137.1,68.47 L137.1,68.46 L137.2,68.44 L137.2,68.42 L137.3,68.41 L137.3,68.39 L137.4,68.37 L137.4,68.36 L137.5,68.34 L137.5,68.32 L137.6,68.31 L137.6,68.29 L137.7,68.27 L137.7,68.26 L137.8,68.24 L137.8,68.22 L137.9,68.21 L137.9,68.19 L138,68.17 L138,68.16 L138.1,68.14 L138.1,68.12 L138.2,68.11 L138.2,68.09 L138.2,68.07 L138.3,68.06 L138.3,68.04 L138.4,68.02 L138.4,68.01 L138.5,67.99 L138.5,67.97 L138.6,67.96 L138.6,67.94 L138.7,67.92 L138.7,67.91 L138.8,67.89 L138.8,67.88 L138.9,67.86 L138.9,67.84 L139,67.83 L139,67.81 L139.1,67.79 L139.1,67.78 L139.2,67.76 L139.2,67.74 L139.3,67.73 L139.3,67.71 L139.4,67.7 L139.4,67.68 L139.5,67.66 L139.5,67.65 L139.5,67.63 L139.6,67.61 L139.6,67.6 L139.7,67.58 L139.7,67.57 L139.8,67.55 L139.8,67.53 L139.9,67.52 L139.9,67.5 L140,67.48 L140,67.47 L140.1,67.45 L140.1,67.44 L140.2,67.42 L140.2,67.4 L140.3,67.39 L140.3,67.37 L140.4,67.36 L140.4,67.34 L140.5,67.32 L140.5,67.31 L140.6,67.29 L140.6,67.28 L140.7,67.26 L140.7,67.24 L140.8,67.23 L140.8,67.21 L140.8,67.2 L140.9,67.18 L140.9,67.16 L141,67.15 L141,67.13 L141.1,67.12 L141.1,67.1 L141.2,67.08 L141.2,67.07 L141.3,67.05 L141.3,67.04 L141.4,67.02 L141.4,67 L141.5,66.99 L141.5,66.97 L141.6,66.96 L141.6,66.94 L141.7,66.93 L141.7,66.91 L141.8,66.89 L141.8,66.88 L141.9,66.86 L141.9,66.85 L142,66.83 L142,66.82 L142.1,66.8 L142.1,66.78 L142.2,66.77 L142.2,66.75 L142.2,66.74 L142.3,66.72 L142.3,66.71 L142.4,66.69 L142.4,66.67 L142.5,66.66 L142.5,66.64 L142.6,66.63 L142.6,66.61 L142.7,66.6 L142.7,66.58 L142.8,66.57 L142.8,66.55 L142.9,66.53 L142.9,66.52 L143,66.5 L143,66.49 L143.1,66.47 L143.1,66.46 L143.2,66.44 L143.2,66.43 L143.3,66.41 L143.3,66.4 L143.4,66.38 L143.4,66.36 L143.5,66.35 L143.5,66.33 L143.5,66.32 L143.6,66.3 L143.6,66.29 L143.7,66.27 L143.7,66.26 L143.8,66.24 L143.8,66.23 L143.9,66.21 L143.9,66.2 L144,66.18 L144,66.16 L144.1,66.15 L144.1,66.13 L144.2,66.12 L144.2,66.1 L144.3,66.09 L144.3,66.07 L144.4,66.06 L144.4,66.04 L144.5,66.03 L144.5,66.01 L144.6,66 L144.6,65.98 L144.7,65.97 L144.7,65.95 L144.8,65.94 L144.8,65.92 L144.8,65.91 L144.9,65.89 L144.9,65.88 L145,65.86 L145,65.85 L145.1,65.83 L145.1,65.82 L145.2,65.8 L145.2,65.79 L145.3,65.77 L145.3,65.76 L145.4,65.74 L145.4,65.73 L145.5,65.71 L145.5,65.7 L145.6,65.68 L145.6,65.67 L145.7,65.65 L145.7,65.64 L145.8,65.62 L145.8,65.61 L145.9,65.59 L145.9,65.58 L146,65.56 L146,65.55 L146.1,65.53 L146.1,65.52 L146.2,65.5 L146.2,65.49 L146.2,65.47 L146.3,65.46 L146.3,65.44 L146.4,65.43 L146.4,65.41 L146.5,65.4 L146.5,65.38 L146.6,65.37 L146.6,65.35 L146.7,65.34 L146.7,65.32 L146.8,65.31 L146.8,65.29 L146.9,65.28 L146.9,65.26 L147,65.25 L147,65.24 L147.1,65.22 L147.1,65.21 L147.2,65.19 L147.2,65.18 L147.3,65.16 L147.3,65.15 L147.4,65.13 L147.4,65.12 L147.5,65.1 L147.5,65.09 L147.5,65.07 L147.6,65.06 L147.6,65.04 L147.7,65.03 L147.7,65.02 L147.8,65 L147.8,64.99 L147.9,64.97 L147.9,64.96 L148,64.94 L148,64.93 L148.1,64.91 L148.1,64.9 L148.2,64.88 L148.2,64.87 L148.3,64.86 L148.3,64.84 L148.4,64.83 L148.4,64.81 L148.5,64.8 L148.5,64.78 L148.6,64.77 L148.6,64.75 L148.7,64.74 L148.7,64.73 L148.8,64.71 L148.8,64.7 L148.9,64.68 L148.9,64.67 L148.9,64.65 L149,64.64 L149,64.63 L149.1,64.61 L149.1,64.6 L149.2,64.58 L149.2,64.57 L149.3,64.55 L149.3,64.54 L149.4,64.53 L149.4,64.51 L149.5,64.5 L149.5,64.48 L149.6,64.47 L149.6,64.45 L149.7,64.44 L149.7,64.43 L149.8,64.41 L149.8,64.4 L149.9,64.38 L149.9,64.37 L150,64.35 L150,64.34 L150.1,64.33 L150.1,64.31 L150.2,64.3 L150.2,64.28 L150.2,64.27 L150.3,64.26 L150.3,64.24 L150.4,64.23 L150.4,64.21 L150.5,64.2 L150.5,64.18 L150.6,64.17 L150.6,64.16 L150.7,64.14 L150.7,64.13 L150.8,64.11 L150.8,64.1 L150.9,64.09 L150.9,64.07 L151,64.06 L151,64.04 L151.1,64.03 L151.1,64.02 L151.2,64 L151.2,63.99 L151.3,63.97 L151.3,63.96 L151.4,63.95 L151.4,63.93 L151.5,63.92 L151.5,63.9 L151.5,63.89 L151.6,63.88 L151.6,63.86 L151.7,63.85 L151.7,63.84 L151.8,63.82 L151.8,63.81 L151.9,63.79 L151.9,63.78 L152,63.77 L152,63.75 L152.1,63.74 L152.1,63.72 L152.2,63.71 L152.2,63.7 L152.3,63.68 L152.3,63.67 L152.4,63.66 L152.4,63.64 L152.5,63.63 L152.5,63.61 L152.6,63.6 L152.6,63.59 L152.7,63.57 L152.7,63.56 L152.8,63.55 L152.8,63.53 L152.9,63.52 L152.9,63.5 L152.9,63.49 L153,63.48 L153,63.46 L153.1,63.45 L153.1,63.44 L153.2,63.42 L153.2,63.41 L153.3,63.39 L153.3,63.38 L153.4,63.37 L153.4,63.35 L153.5,63.34 L153.5,63.33 L153.6,63.31 L153.6,63.3 L153.7,63.29 L153.7,63.27 L153.8,63.26 L153.8,63.25 L153.9,63.23 L153.9,63.22 L154,63.2 L154,63.19 L154.1,63.18 L154.1,63.16 L154.2,63.15 L154.2,63.14 L154.2,63.12 L154.3,63.11 L154.3,63.1 L154.4,63.08 L154.4,63.07 L154.5,63.06 L154.5,63.04 L154.6,63.03 L154.6,63.02 L154.7,63 L154.7,62.99 L154.8,62.98 L154.8,62.96 L154.9,62.95 L154.9,62.94 L155,62.92 L155,62.91 L155.1,62.9 L155.1,62.88 L155.2,62.87 L155.2,62.86 L155.3,62.84 L155.3,62.83 L155.4,62.82 L155.4,62.8 L155.5,62.79 L155.5,62.78 L155.6,62.76 L155.6,62.75 L155.6,62.74 L155.7,62.72 L155.7,62.71 L155.8,62.7 L155.8,62.68 L155.9,62.67 L155.9,62.66 L156,62.64 L156,62.63 L156.1,62.62 L156.1,62.6 L156.2,62.59 L156.2,62.58 L156.3,62.56 L156.3,62.55 L156.4,62.54 L156.4,62.52 L156.5,62.51 L156.5,62.5 L156.6,62.48 L156.6,62.47 L156.7,62.46 L156.7,62.45 L156.8,62.43 L156.8,62.42 L156.9,62.41 L156.9,62.39 L156.9,62.38 L157,62.37 L157,62.35 L157.1,62.34 L157.1,62.33 L157.2,62.31 L157.2,62.3 L157.3,62.29 L157.3,62.28 L157.4,62.26 L157.4,62.25 L157.5,62.24 L157.5,62.22 L157.6,62.21 L157.6,62.2 L157.7,62.18 L157.7,62.17 L157.8,62.16 L157.8,62.15 L157.9,62.13 L157.9,62.12 L158,62.11 L158,62.09 L158.1,62.08 L158.1,62.07 L158.2,62.05 L158.2,62.04 L158.2,62.03 L158.3,62.02 L158.3,62 L158.4,61.99 L158.4,61.98 L158.5,61.96 L158.5,61.95 L158.6,61.94 L158.6,61.93 L158.7,61.91 L158.7,61.9 L158.8,61.89 L158.8,61.87 L158.9,61.86 L158.9,61.85 L159,61.84 L159,61.82 L159.1,61.81 L159.1,61.8 L159.2,61.78 L159.2,61.77 L159.3,61.76 L159.3,61.75 L159.4,61.73 L159.4,61.72 L159.5,61.71 L159.5,61.7 L159.6,61.68 L159.6,61.67 L159.6,61.66 L159.7,61.64 L159.7,61.63 L159.8,61.62 L159.8,61.61 L159.9,61.59 L159.9,61.58 L160,61.57 L160,61.56 L160.1,61.54 L160.1,61.53 L160.2,61.52 L160.2,61.51 L160.3,61.49 L160.3,61.48 L160.4,61.47 L160.4,61.45 L160.5,61.44 L160.5,61.43 L160.6,61.42 L160.6,61.4 L160.7,61.39 L160.7,61.38 L160.8,61.37 L160.8,61.35 L160.9,61.34 L160.9,61.33 L160.9,61.32 L161,61.3 L161,61.29 L161.1,61.28 L161.1,61.27 L161.2,61.25 L161.2,61.24 L161.3,61.23 L161.3,61.22 L161.4,61.2 L161.4,61.19 L161.5,61.18 L161.5,61.17 L161.6,61.15 L161.6,61.14 L161.7,61.13 L161.7,61.12 L161.8,61.1 L161.8,61.09 L161.9,61.08 L161.9,61.07 L162,61.05 L162,61.04 L162.1,61.03 L162.1,61.02 L162.2,61.01 L162.2,60.99 L162.3,60.98 L162.3,60.97 L162.3,60.96 L162.4,60.94 L162.4,60.93 L162.5,60.92 L162.5,60.91 L162.6,60.89 L162.6,60.88 L162.7,60.87 L162.7,60.86 L162.8,60.84 L162.8,60.83 L162.9,60.82 L162.9,60.81 L163,60.8 L163,60.78 L163.1,60.77 L163.1,60.76 L163.2,60.75 L163.2,60.73 L163.3,60.72 L163.3,60.71 L163.4,60.7 L163.4,60.69 L163.5,60.67 L163.5,60.66 L163.6,60.65 L163.6,60.64 L163.6,60.62 L163.7,60.61 L163.7,60.6 L163.8,60.59 L163.8,60.58 L163.9,60.56 L163.9,60.55 L164,60.54 L164,60.53 L164.1,60.51 L164.1,60.5 L164.2,60.49 L164.2,60.48 L164.3,60.47 L164.3,60.45 L164.4,60.44 L164.4,60.43 L164.5,60.42 L164.5,60.41 L164.6,60.39 L164.6,60.38 L164.7,60.37 L164.7,60.36 L164.8,60.35 L164.8,60.33 L164.9,60.32 L164.9,60.31 L164.9,60.3 L165,60.29 L165,60.27 L165.1,60.26 L165.1,60.25 L165.2,60.24 L165.2,60.23 L165.3,60.21 L165.3,60.2 L165.4,60.19 L165.4,60.18 L165.5,60.17 L165.5,60.15 L165.6,60.14 L165.6,60.13 L165.7,60.12 L165.7,60.11 L165.8,60.09 L165.8,60.08 L165.9,60.07 L165.9,60.06 L166,60.05 L166,60.03 L166.1,60.02 L166.1,60.01 L166.2,60 L166.2,59.99 L166.3,59.97 L166.3,59.96 L166.3,59.95 L166.4,59.94 L166.4,59.93 L166.5,59.92 L166.5,59.9 L166.6,59.89 L166.6,59.88 L166.7,59.87 L166.7,59.86 L166.8,59.84 L166.8,59.83 L166.9,59.82 L166.9,59.81 L167,59.8 L167,59.79 L167.1,59.77 L167.1,59.76 L167.2,59.75 L167.2,59.74 L167.3,59.73 L167.3,59.71 L167.4,59.7 L167.4,59.69 L167.5,59.68 L167.5,59.67 L167.6,59.66 L167.6,59.64 L167.6,59.63 L167.7,59.62 L167.7,59.61 L167.8,59.6 L167.8,59.59 L167.9,59.57 L167.9,59.56 L168,59.55 L168,59.54 L168.1,59.53 L168.1,59.52 L168.2,59.5 L168.2,59.49 L168.3,59.48 L168.3,59.47 L168.4,59.46 L168.4,59.45 L168.5,59.43 L168.5,59.42 L168.6,59.41 L168.6,59.4 L168.7,59.39 L168.7,59.38 L168.8,59.36 L168.8,59.35 L168.9,59.34 L168.9,59.33 L168.9,59.32 L169,59.31 L169,59.3 L169.1,59.28 L169.1,59.27 L169.2,59.26 L169.2,59.25 L169.3,59.24 L169.3,59.23 L169.4,59.21 L169.4,59.2 L169.5,59.19 L169.5,59.18 L169.6,59.17 L169.6,59.16 L169.7,59.15 L169.7,59.13 L169.8,59.12 L169.8,59.11 L169.9,59.1 L169.9,59.09 L170,59.08 L170,59.07 L170.1,59.05 L170.1,59.04 L170.2,59.03 L170.2,59.02 L170.3,59.01 L170.3,59 L170.3,58.99 L170.4,58.97 L170.4,58.96 L170.5,58.95 L170.5,58.94 L170.6,58.93 L170.6,58.92 L170.7,58.91 L170.7,58.89 L170.8,58.88 L170.8,58.87 L170.9,58.86 L170.9,58.85 L171,58.84 L171,58.83 L171.1,58.81 L171.1,58.8 L171.2,58.79 L171.2,58.78 L171.3,58.77 L171.3,58.76 L171.4,58.75 L171.4,58.74 L171.5,58.72 L171.5,58.71 L171.6,58.7 L171.6,58.69 L171.6,58.68 L171.7,58.67 L171.7,58.66 L171.8,58.64 L171.8,58.63 L171.9,58.62 L171.9,58.61 L172,58.6 L172,58.59 L172.1,58.58 L172.1,58.57 L172.2,58.55 L172.2,58.54 L172.3,58.53 L172.3,58.52 L172.4,58.51 L172.4,58.5 L172.5,58.49 L172.5,58.48 L172.6,58.47 L172.6,58.45 L172.7,58.44 L172.7,58.43 L172.8,58.42 L172.8,58.41 L172.9,58.4 L172.9,58.39 L173,58.38 L173,58.36 L173,58.35 L173.1,58.34 L173.1,58.33 L173.2,58.32 L173.2,58.31 L173.3,58.3 L173.3,58.29 L173.4,58.28 L173.4,58.26 L173.5,58.25 L173.5,58.24 L173.6,58.23 L173.6,58.22 L173.7,58.21 L173.7,58.2 L173.8,58.19 L173.8,58.18 L173.9,58.17 L173.9,58.15 L174,58.14 L174,58.13 L174.1,58.12 L174.1,58.11 L174.2,58.1 L174.2,58.09 L174.3,58.08 L174.3,58.07 L174.3,58.05 L174.4,58.04 L174.4,58.03 L174.5,58.02 L174.5,58.01 L174.6,58 L174.6,57.99 L174.7,57.98 L174.7,57.97 L174.8,57.96 L174.8,57.95 L174.9,57.93 L174.9,57.92 L175,57.91 L175,57.9 L175.1,57.89 L175.1,57.88 L175.2,57.87 L175.2,57.86 L175.3,57.85 L175.3,57.84 L175.4,57.82 L175.4,57.81 L175.5,57.8 L175.5,57.79 L175.6,57.78 L175.6,57.77 L175.6,57.76 L175.7,57.75 L175.7,57.74 L175.8,57.73 L175.8,57.72 L175.9,57.71 L175.9,57.69 L176,57.68 L176,57.67 L176.1,57.66 L176.1,57.65 L176.2,57.64 L176.2,57.63 L176.3,57.62 L176.3,57.61 L176.4,57.6 L176.4,57.59 L176.5,57.58 L176.5,57.56 L176.6,57.55 L176.6,57.54 L176.7,57.53 L176.7,57.52 L176.8,57.51 L176.8,57.5 L176.9,57.49 L176.9,57.48 L177,57.47 L177,57.46 L177,57.45 L177.1,57.44 L177.1,57.42 L177.2,57.41 L177.2,57.4 L177.3,57.39 L177.3,57.38 L177.4,57.37 L177.4,57.36 L177.5,57.35 L177.5,57.34 L177.6,57.33 L177.6,57.32 L177.7,57.31 L177.7,57.3 L177.8,57.29 L177.8,57.27 L177.9,57.26 L177.9,57.25 L178,57.24 L178,57.23 L178.1,57.22 L178.1,57.21 L178.2,57.2 L178.2,57.19 L178.3,57.18 L178.3,57.17 L178.3,57.16 L178.4,57.15 L178.4,57.14 L178.5,57.13 L178.5,57.12 L178.6,57.1 L178.6,57.09 L178.7,57.08 L178.7,57.07 L178.8,57.06 L178.8,57.05 L178.9,57.04 L178.9,57.03 L179,57.02 L179,57.01 L179.1,57 L179.1,56.99 L179.2,56.98 L179.2,56.97 L179.3,56.96 L179.3,56.95 L179.4,56.94 L179.4,56.93 L179.5,56.91 L179.5,56.9 L179.6,56.89 L179.6,56.88 L179.7,56.87 L179.7,56.86 L179.7,56.85 L179.8,56.84 L179.8,56.83 L179.9,56.82 L179.9,56.81 L180,56.8 L180,56.79 L180.1,56.78 L180.1,56.77 L180.2,56.76 L180.2,56.75 L180.3,56.74 L180.3,56.73 L180.4,56.72 L180.4,56.71 L180.5,56.69 L180.5,56.68 L180.6,56.67 L180.6,56.66 L180.7,56.65 L180.7,56.64 L180.8,56.63 L180.8,56.62 L180.9,56.61 L180.9,56.6 L181,56.59 L181,56.58 L181,56.57 L181.1,56.56 L181.1,56.55 L181.2,56.54 L181.2,56.53 L181.3,56.52 L181.3,56.51 L181.4,56.5 L181.4,56.49 L181.5,56.48 L181.5,56.47 L181.6,56.46 L181.6,56.45 L181.7,56.44 L181.7,56.42 L181.8,56.41 L181.8,56.4 L181.9,56.39 L181.9,56.38 L182,56.37 L182,56.36 L182.1,56.35 L182.1,56.34 L182.2,56.33 L182.2,56.32 L182.3,56.31 L182.3,56.3 L182.3,56.29 L182.4,56.28 L182.4,56.27 L182.5,56.26 L182.5,56.25 L182.6,56.24 L182.6,56.23 L182.7,56.22 L182.7,56.21 L182.8,56.2 L182.8,56.19 L182.9,56.18 L182.9,56.17 L183,56.16 L183,56.15 L183.1,56.14 L183.1,56.13 L183.2,56.12 L183.2,56.11 L183.3,56.1 L183.3,56.09 L183.4,56.08 L183.4,56.07 L183.5,56.06 L183.5,56.05 L183.6,56.04 L183.6,56.03 L183.7,56.02 L183.7,56.01 L183.7,56 L183.8,55.99 L183.8,55.97 L183.9,55.96 L183.9,55.95 L184,55.94 L184,55.93 L184.1,55.92 L184.1,55.91 L184.2,55.9 L184.2,55.89 L184.3,55.88 L184.3,55.87 L184.4,55.86 L184.4,55.85 L184.5,55.84 L184.5,55.83 L184.6,55.82 L184.6,55.81 L184.7,55.8 L184.7,55.79 L184.8,55.78 L184.8,55.77 L184.9,55.76 L184.9,55.75 L185,55.74 L185,55.73 L185,55.72 L185.1,55.71 L185.1,55.7 L185.2,55.69 L185.2,55.68 L185.3,55.67 L185.3,55.66 L185.4,55.65 L185.4,55.64 L185.5,55.63 L185.5,55.62 L185.6,55.61 L185.6,55.6 L185.7,55.59 L185.7,55.58 L185.8,55.57 L185.8,55.56 L185.9,55.55 L185.9,55.54 L186,55.53 L186,55.52 L186.1,55.51 L186.1,55.5 L186.2,55.49 L186.2,55.48 L186.3,55.47 L186.3,55.46 L186.4,55.45 L186.4,55.44 L186.4,55.43 L186.5,55.42 L186.5,55.41 L186.6,55.4 L186.6,55.39 L186.7,55.38 L186.7,55.37 L186.8,55.36 L186.8,55.35 L186.9,55.34 L186.9,55.33 L187,55.32 L187,55.31 L187.1,55.3 L187.1,55.29 L187.2,55.28 L187.2,55.28 L187.3,55.27 L187.3,55.26 L187.4,55.25 L187.4,55.24 L187.5,55.23 L187.5,55.22 L187.6,55.21 L187.6,55.2 L187.7,55.19 L187.7,55.18 L187.7,55.17 L187.8,55.16 L187.8,55.15 L187.9,55.14 L187.9,55.13 L188,55.12 L188,55.11 L188.1,55.1 L188.1,55.09 L188.2,55.08 L188.2,55.07 L188.3,55.06 L188.3,55.05 L188.4,55.04 L188.4,55.03 L188.5,55.02 L188.5,55.01 L188.6,55 L188.6,54.99 L188.7,54.98 L188.7,54.97 L188.8,54.96 L188.8,54.95 L188.9,54.94 L188.9,54.93 L189,54.92 L189,54.91 L189,54.9 L189.1,54.89 L189.1,54.88 L189.2,54.87 L189.2,54.86 L189.3,54.85 L189.3,54.84 L189.4,54.83 L189.4,54.83 L189.5,54.82 L189.5,54.81 L189.6,54.8 L189.6,54.79 L189.7,54.78 L189.7,54.77 L189.8,54.76 L189.8,54.75 L189.9,54.74 L189.9,54.73 L190,54.72 L190,54.71 L190.1,54.7 L190.1,54.69 L190.2,54.68 L190.2,54.67 L190.3,54.66 L190.3,54.65 L190.4,54.64 L190.4,54.63 L190.4,54.62 L190.5,54.61 L190.5,54.6 L190.6,54.59 L190.6,54.58 L190.7,54.57 L190.7,54.56 L190.8,54.56 L190.8,54.55 L190.9,54.54 L190.9,54.53 L191,54.52 L191,54.51 L191.1,54.5 L191.1,54.49 L191.2,54.48 L191.2,54.47 L191.3,54.46 L191.3,54.45 L191.4,54.44 L191.4,54.43 L191.5,54.42 L191.5,54.41 L191.6,54.4 L191.6,54.39 L191.7,54.38 L191.7,54.37 L191.7,54.36 L191.8,54.35 L191.8,54.35 L191.9,54.34 L191.9,54.33 L192,54.32 L192,54.31 L192.1,54.3 L192.1,54.29 L192.2,54.28 L192.2,54.27 L192.3,54.26 L192.3,54.25 L192.4,54.24 L192.4,54.23 L192.5,54.22 L192.5,54.21 L192.6,54.2 L192.6,54.19 L192.7,54.18 L192.7,54.17 L192.8,54.17 L192.8,54.16 L192.9,54.15 L192.9,54.14 L193,54.13 L193,54.12 L193,54.11 L193.1,54.1 L193.1,54.09 L193.2,54.08 L193.2,54.07 L193.3,54.06 L193.3,54.05 L193.4,54.04 L193.4,54.03 L193.5,54.02 L193.5,54.01 L193.6,54 L193.6,54 L193.7,53.99 L193.7,53.98 L193.8,53.97 L193.8,53.96 L193.9,53.95 L193.9,53.94 L194,53.93 L194,53.92 L194.1,53.91 L194.1,53.9 L194.2,53.89 L194.2,53.88 L194.3,53.87 L194.3,53.86 L194.4,53.86 L194.4,53.85 L194.4,53.84 L194.5,53.83 L194.5,53.82 L194.6,53.81 L194.6,53.8 L194.7,53.79 L194.7,53.78 L194.8,53.77 L194.8,53.76 L194.9,53.75 L194.9,53.74 L195,53.73 L195,53.72 L195.1,53.72 L195.1,53.71 L195.2,53.7 L195.2,53.69 L195.3,53.68 L195.3,53.67 L195.4,53.66 L195.4,53.65 L195.5,53.64 L195.5,53.63 L195.6,53.62 L195.6,53.61 L195.7,53.6 L195.7,53.6 L195.7,53.59 L195.8,53.58 L195.8,53.57 L195.9,53.56 L195.9,53.55 L196,53.54 L196,53.53 L196.1,53.52 L196.1,53.51 L196.2,53.5 L196.2,53.49 L196.3,53.48 L196.3,53.48 L196.4,53.47 L196.4,53.46 L196.5,53.45 L196.5,53.44 L196.6,53.43 L196.6,53.42 L196.7,53.41 L196.7,53.4 L196.8,53.39 L196.8,53.38 L196.9,53.37 L196.9,53.37 L197,53.36 L197,53.35 L197.1,53.34 L197.1,53.33 L197.1,53.32 L197.2,53.31 L197.2,53.3 L197.3,53.29 L197.3,53.28 L197.4,53.27 L197.4,53.26 L197.5,53.26 L197.5,53.25 L197.6,53.24 L197.6,53.23 L197.7,53.22 L197.7,53.21 L197.8,53.2 L197.8,53.19 L197.9,53.18 L197.9,53.17 L198,53.16 L198,53.16 L198.1,53.15 L198.1,53.14 L198.2,53.13 L198.2,53.12 L198.3,53.11 L198.3,53.1 L198.4,53.09 L198.4,53.08 L198.4,53.07 L198.5,53.06 L198.5,53.06 L198.6,53.05 L198.6,53.04 L198.7,53.03 L198.7,53.02 L198.8,53.01 L198.8,53 L198.9,52.99 L198.9,52.98 L199,52.97 L199,52.97 L199.1,52.96 L199.1,52.95 L199.2,52.94 L199.2,52.93 L199.3,52.92 L199.3,52.91 L199.4,52.9 L199.4,52.89 L199.5,52.88 L199.5,52.88 L199.6,52.87 L199.6,52.86 L199.7,52.85 L199.7,52.84 L199.7,52.83 L199.8,52.82 L199.8,52.81 L199.9,52.8 L199.9,52.79 L200,52.79 L200,52.78 L200.1,52.77 L200.1,52.76 L200.2,52.75 L200.2,52.74 L200.3,52.73 L200.3,52.72 L200.4,52.71 L200.4,52.71 L200.5,52.7 L200.5,52.69 L200.6,52.68 L200.6,52.67 L200.7,52.66 L200.7,52.65 L200.8,52.64 L200.8,52.63 L200.9,52.62 L200.9,52.62 L201,52.61 L201,52.6 L201.1,52.59 L201.1,52.58 L201.1,52.57 L201.2,52.56 L201.2,52.55 L201.3,52.54 L201.3,52.54 L201.4,52.53 L201.4,52.52 L201.5,52.51 L201.5,52.5 L201.6,52.49 L201.6,52.48 L201.7,52.47 L201.7,52.47 L201.8,52.46 L201.8,52.45 L201.9,52.44 L201.9,52.43 L202,52.42 L202,52.41 L202.1,52.4 L202.1,52.39 L202.2,52.39 L202.2,52.38 L202.3,52.37 L202.3,52.36 L202.4,52.35 L202.4,52.34 L202.4,52.33 L202.5,52.32 L202.5,52.32 L202.6,52.31 L202.6,52.3 L202.7,52.29 L202.7,52.28 L202.8,52.27 L202.8,52.26 L202.9,52.25 L202.9,52.25 L203,52.24 L203,52.23 L203.1,52.22 L203.1,52.21 L203.2,52.2 L203.2,52.19 L203.3,52.18 L203.3,52.17 L203.4,52.17 L203.4,52.16 L203.5,52.15 L203.5,52.14 L203.6,52.13 L203.6,52.12 L203.7,52.11 L203.7,52.11 L203.8,52.1 L203.8,52.09 L203.8,52.08 L203.9,52.07 L203.9,52.06 L204,52.05 L204,52.04 L204.1,52.04 L204.1,52.03 L204.2,52.02 L204.2,52.01 L204.3,52 L204.3,51.99 L204.4,51.98 L204.4,51.97 L204.5,51.97 L204.5,51.96 L204.6,51.95 L204.6,51.94 L204.7,51.93 L204.7,51.92 L204.8,51.91 L204.8,51.91 L204.9,51.9 L204.9,51.89 L205,51.88 L205,51.87 L205.1,51.86 L205.1,51.85 L205.1,51.84 L205.2,51.84 L205.2,51.83 L205.3,51.82 L205.3,51.81 L205.4,51.8 L205.4,51.79 L205.5,51.78 L205.5,51.78 L205.6,51.77 L205.6,51.76 L205.7,51.75 L205.7,51.74 L205.8,51.73 L205.8,51.72 L205.9,51.72 L205.9,51.71 L206,51.7 L206,51.69 L206.1,51.68 L206.1,51.67 L206.2,51.66 L206.2,51.66 L206.3,51.65 L206.3,51.64 L206.4,51.63 L206.4,51.62 L206.4,51.61 L206.5,51.6 L206.5,51.6 L206.6,51.59 L206.6,51.58 L206.7,51.57 L206.7,51.56 L206.8,51.55 L206.8,51.54 L206.9,51.54 L206.9,51.53 L207,51.52 L207,51.51 L207.1,51.5 L207.1,51.49 L207.2,51.48 L207.2,51.48 L207.3,51.47 L207.3,51.46 L207.4,51.45 L207.4,51.44 L207.5,51.43 L207.5,51.42 L207.6,51.42 L207.6,51.41 L207.7,51.4 L207.7,51.39 L207.8,51.38 L207.8,51.37 L207.8,51.37 L207.9,51.36 L207.9,51.35 L208,51.34 L208,51.33 L208.1,51.32 L208.1,51.31 L208.2,51.31 L208.2,51.3 L208.3,51.29 L208.3,51.28 L208.4,51.27 L208.4,51.26 L208.5,51.26 L208.5,51.25 L208.6,51.24 L208.6,51.23 L208.7,51.22 L208.7,51.21 L208.8,51.2 L208.8,51.2 L208.9,51.19 L208.9,51.18 L209,51.17 L209,51.16 L209.1,51.15 L209.1,51.15 L209.1,51.14 L209.2,51.13 L209.2,51.12 L209.3,51.11 L209.3,51.1 L209.4,51.1 L209.4,51.09 L209.5,51.08 L209.5,51.07 L209.6,51.06 L209.6,51.05 L209.7,51.05 L209.7,51.04 L209.8,51.03 L209.8,51.02 L209.9,51.01 L209.9,51 L210,51 L210,50.99 L210.1,50.98 L210.1,50.97 L210.2,50.96 L210.2,50.95 L210.3,50.94 L210.3,50.94 L210.4,50.93 L210.4,50.92 L210.5,50.91 L210.5,50.9 L210.5,50.89 L210.6,50.89 L210.6,50.88 L210.7,50.87 L210.7,50.86 L210.8,50.85 L210.8,50.84 L210.9,50.84 L210.9,50.83 L211,50.82 L211,50.81 L211.1,50.8 L211.1,50.8 L211.2,50.79 L211.2,50.78 L211.3,50.77 L211.3,50.76 L211.4,50.75 L211.4,50.75 L211.5,50.74 L211.5,50.73 L211.6,50.72 L211.6,50.71 L211.7,50.7 L211.7,50.7 L211.8,50.69 L211.8,50.68 L211.8,50.67 L211.9,50.66 L211.9,50.65 L212,50.65 L212,50.64 L212.1,50.63 L212.1,50.62 L212.2,50.61 L212.2,50.61 L212.3,50.6 L212.3,50.59 L212.4,50.58 L212.4,50.57 L212.5,50.56 L212.5,50.56 L212.6,50.55 L212.6,50.54 L212.7,50.53 L212.7,50.52 L212.8,50.51 L212.8,50.51 L212.9,50.5 L212.9,50.49 L213,50.48 L213,50.47 L213.1,50.47 L213.1,50.46 L213.1,50.45 L213.2,50.44 L213.2,50.43 L213.3,50.42 L213.3,50.42 L213.4,50.41 L213.4,50.4 L213.5,50.39 L213.5,50.38 L213.6,50.38 L213.6,50.37 L213.7,50.36 L213.7,50.35 L213.8,50.34 L213.8,50.33 L213.9,50.33 L213.9,50.32 L214,50.31 L214,50.3 L214.1,50.29 L214.1,50.29 L214.2,50.28 L214.2,50.27 L214.3,50.26 L214.3,50.25 L214.4,50.25 L214.4,50.24 L214.5,50.23 L214.5,50.22 L214.5,50.21 L214.6,50.2 L214.6,50.2 L214.7,50.19 L214.7,50.18 L214.8,50.17 L214.8,50.16 L214.9,50.16 L214.9,50.15 L215,50.14 L215,50.13 L215.1,50.12 L215.1,50.12 L215.2,50.11 L215.2,50.1 L215.3,50.09 L215.3,50.08 L215.4,50.08 L215.4,50.07 L215.5,50.06 L215.5,50.05 L215.6,50.04 L215.6,50.03 L215.7,50.03 L215.7,50.02 L215.8,50.01 L215.8,50 L215.8,49.99 L215.9,49.99 L215.9,49.98 L216,49.97 L216,49.96 L216.1,49.95 L216.1,49.95 L216.2,49.94 L216.2,49.93 L216.3,49.92 L216.3,49.91 L216.4,49.91 L216.4,49.9 L216.5,49.89 L216.5,49.88 L216.6,49.87 L216.6,49.87 L216.7,49.86 L216.7,49.85 L216.8,49.84 L216.8,49.83 L216.9,49.83 L216.9,49.82 L217,49.81 L217,49.8 L217.1,49.79 L217.1,49.79 L217.1,49.78 L217.2,49.77 L217.2,49.76 L217.3,49.75 L217.3,49.75 L217.4,49.74 L217.4,49.73 L217.5,49.72 L217.5,49.71 L217.6,49.71 L217.6,49.7 L217.7,49.69 L217.7,49.68 L217.8,49.67 L217.8,49.67 L217.9,49.66 L217.9,49.65 L218,49.64 L218,49.63 L218.1,49.63 L218.1,49.62 L218.2,49.61 L218.2,49.6 L218.3,49.6 L218.3,49.59 L218.4,49.58 L218.4,49.57 L218.5,49.56 L218.5,49.56 L218.5,49.55 L218.6,49.54 L218.6,49.53 L218.7,49.52 L218.7,49.52 L218.8,49.51 L218.8,49.5 L218.9,49.49 L218.9,49.48 L219,49.48 L219,49.47 L219.1,49.46 L219.1,49.45 L219.2,49.45 L219.2,49.44 L219.3,49.43 L219.3,49.42 L219.4,49.41 L219.4,49.41 L219.5,49.4 L219.5,49.39 L219.6,49.38 L219.6,49.37 L219.7,49.37 L219.7,49.36 L219.8,49.35 L219.8,49.34 L219.8,49.33 L219.9,49.33 L219.9,49.32 L220,49.31 L220,49.3 L220.1,49.3 L220.1,49.29 L220.2,49.28 L220.2,49.27 L220.3,49.26 L220.3,49.26 L220.4,49.25 L220.4,49.24 L220.5,49.23 L220.5,49.23 L220.6,49.22 L220.6,49.21 L220.7,49.2 L220.7,49.19 L220.8,49.19 L220.8,49.18 L220.9,49.17 L220.9,49.16 L221,49.16 L221,49.15 L221.1,49.14 L221.1,49.13 L221.2,49.12 L221.2,49.12 L221.2,49.11 L221.3,49.1 L221.3,49.09 L221.4,49.09 L221.4,49.08 L221.5,49.07 L221.5,49.06 L221.6,49.05 L221.6,49.05 L221.7,49.04 L221.7,49.03 L221.8,49.02 L221.8,49.02 L221.9,49.01 L221.9,49 L222,48.99 L222,48.98 L222.1,48.98 L222.1,48.97 L222.2,48.96 L222.2,48.95 L222.3,48.95 L222.3,48.94 L222.4,48.93 L222.4,48.92 L222.5,48.91 L222.5,48.91 L222.5,48.9 L222.6,48.89 L222.6,48.88 L222.7,48.88 L222.7,48.87 L222.8,48.86 L222.8,48.85 L222.9,48.85 L222.9,48.84 L223,48.83 L223,48.82 L223.1,48.81 L223.1,48.81 L223.2,48.8 L223.2,48.79 L223.3,48.78 L223.3,48.78 L223.4,48.77 L223.4,48.76 L223.5,48.75 L223.5,48.75 L223.6,48.74 L223.6,48.73 L223.7,48.72 L223.7,48.71 L223.8,48.71 L223.8,48.7 L223.8,48.69 L223.9,48.68 L223.9,48.68 L224,48.67 L224,48.66 L224.1,48.65 L224.1,48.65 L224.2,48.64 L224.2,48.63 L224.3,48.62 L224.3,48.62 L224.4,48.61 L224.4,48.6 L224.5,48.59 L224.5,48.58 L224.6,48.58 L224.6,48.57 L224.7,48.56 L224.7,48.55 L224.8,48.55 L224.8,48.54 L224.9,48.53 L224.9,48.52 L225,48.52 L225,48.51 L225.1,48.5 L225.1,48.49 L225.2,48.49 L225.2,48.48 L225.2,48.47 L225.3,48.46 L225.3,48.46 L225.4,48.45 L225.4,48.44 L225.5,48.43 L225.5,48.42 L225.6,48.42 L225.6,48.41 L225.7,48.4 L225.7,48.39 L225.8,48.39 L225.8,48.38 L225.9,48.37 L225.9,48.36 L226,48.36 L226,48.35 L226.1,48.34 L226.1,48.33 L226.2,48.33 L226.2,48.32 L226.3,48.31 L226.3,48.3 L226.4,48.3 L226.4,48.29 L226.5,48.28 L226.5,48.27 L226.5,48.27 L226.6,48.26 L226.6,48.25 L226.7,48.24 L226.7,48.24 L226.8,48.23 L226.8,48.22 L226.9,48.21 L226.9,48.21 L227,48.2 L227,48.19 L227.1,48.18 L227.1,48.18 L227.2,48.17 L227.2,48.16 L227.3,48.15 L227.3,48.15 L227.4,48.14 L227.4,48.13 L227.5,48.12 L227.5,48.12 L227.6,48.11 L227.6,48.1 L227.7,48.09 L227.7,48.09 L227.8,48.08 L227.8,48.07 L227.9,48.06 L227.9,48.06 L227.9,48.05 L228,48.04 L228,48.03 L228.1,48.03 L228.1,48.02 L228.2,48.01 L228.2,48 L228.3,48 L228.3,47.99 L228.4,47.98 L228.4,47.97 L228.5,47.97 L228.5,47.96 L228.6,47.95 L228.6,47.94 L228.7,47.94 L228.7,47.93 L228.8,47.92 L228.8,47.91 L228.9,47.91 L228.9,47.9 L229,47.89 L229,47.88 L229.1,47.88 L229.1,47.87 L229.2,47.86 L229.2,47.85 L229.2,47.85 L229.3,47.84 L229.3,47.83 L229.4,47.83 L229.4,47.82 L229.5,47.81 L229.5,47.8 L229.6,47.8 L229.6,47.79 L229.7,47.78 L229.7,47.77 L229.8,47.77 L229.8,47.76 L229.9,47.75 L229.9,47.74 L230,47.74 L230,47.73 L230.1,47.72 L230.1,47.71 L230.2,47.71 L230.2,47.7 L230.3,47.69 L230.3,47.68 L230.4,47.68 L230.4,47.67 L230.5,47.66 L230.5,47.66 L230.5,47.65 L230.6,47.64 L230.6,47.63 L230.7,47.63 L230.7,47.62 L230.8,47.61 L230.8,47.6 L230.9,47.6 L230.9,47.59 L231,47.58 L231,47.57 L231.1,47.57 L231.1,47.56 L231.2,47.55 L231.2,47.55 L231.3,47.54 L231.3,47.53 L231.4,47.52 L231.4,47.52 L231.5,47.51 L231.5,47.5 L231.6,47.49 L231.6,47.49 L231.7,47.48 L231.7,47.47 L231.8,47.46 L231.8,47.46 L231.9,47.45 L231.9,47.44 L231.9,47.44 L232,47.43 L232,47.42 L232.1,47.41 L232.1,47.41 L232.2,47.4 L232.2,47.39 L232.3,47.38 L232.3,47.38 L232.4,47.37 L232.4,47.36 L232.5,47.36 L232.5,47.35 L232.6,47.34 L232.6,47.33 L232.7,47.33 L232.7,47.32 L232.8,47.31 L232.8,47.3 L232.9,47.3 L232.9,47.29 L233,47.28 L233,47.28 L233.1,47.27 L233.1,47.26 L233.2,47.25 L233.2,47.25 L233.2,47.24 L233.3,47.23 L233.3,47.22 L233.4,47.22 L233.4,47.21 L233.5,47.2 L233.5,47.2 L233.6,47.19 L233.6,47.18 L233.7,47.17 L233.7,47.17 L233.8,47.16 L233.8,47.15 L233.9,47.14 L233.9,47.14 L234,47.13 L234,47.12 L234.1,47.12 L234.1,47.11 L234.2,47.1 L234.2,47.09 L234.3,47.09 L234.3,47.08 L234.4,47.07 L234.4,47.07 L234.5,47.06 L234.5,47.05 L234.6,47.04 L234.6,47.04 L234.6,47.03 L234.7,47.02 L234.7,47.02 L234.8,47.01 L234.8,47 " fill="none"/></g>
<g clip-path="url(#plot_window)" stroke="rgb(0,0,255)" stroke-width="1"><path d="M82.77,127.1 L82.77,127.1 L82.82,130.1 L82.86,131.4 L82.91,132.4 L82.96,133.3 L83.01,134.1 L83.06,134.8 L83.11,135.4 L83.15,136 L83.2,136.6 L83.25,137.2 L83.3,137.7 L83.35,138.2 L83.39,138.8 L83.44,139.2 L83.49,139.7 L83.54,140.2 L83.59,140.6 L83.64,141.1 L83.68,141.5 L83.73,141.9 L83.78,142.3 L83.83,142.8 L83.88,143.2 L83.93,143.6 L83.97,144 L84.02,144.3 L84.07,144.7 L84.12,145.1 L84.17,145.5 L84.21,145.8 L84.26,146.2 L84.31,146.6 L84.36,146.9 L84.41,147.3 L84.46,147.6 L84.5,148 L84.55,148.3 L84.6,148.7 L84.65,149 L84.7,149.4 L84.74,149.7 L84.79,150 L84.84,150.4 L84.89,150.7 L84.94,151 L84.99,151.4 L85.03,151.7 L85.08,152 L85.13,152.3 L85.18,152.7 L85.23,153 L85.27,153.3 L85.32,153.6 L85.37,153.9 L85.42,154.2 L85.47,154.5 L85.52,154.9 L85.56,155.2 L85.61,155.5 L85.66,155.8 L85.71,156.1 L85.76,156.4 L85.8,156.7 L85.85,157 L85.9,157.3 L85.95,157.6 L86,157.9 L86.05,158.2 L86.09,158.5 L86.14,158.8 L86.19,159.1 L86.24,159.4 L86.29,159.7 L86.34,160 L86.38,160.3 L86.43,160.6 L86.48,160.9 L86.53,161.2 L86.58,161.5 L86.62,161.8 L86.67,162.1 L86.72,162.4 L86.77,162.7 L86.82,163 L86.87,163.3 L86.91,163.6 L86.96,163.9 L87.01,164.2 L87.06,164.5 L87.11,164.8 L87.15,165.1 L87.2,165.4 L87.25,165.7 L87.3,166 L87.35,166.3 L87.4,166.5 L87.44,166.8 L87.49,167.1 L87.54,167.4 L87.59,167.7 L87.64,168 L87.68,168.3 L87.73,168.6 L87.78,168.9 L87.83,169.2 L87.88,169.5 L87.93,169.8 L87.97,170.1 L88.02,170.4 L88.07,170.7 L88.12,171 L88.17,171.3 L88.21,171.6 L88.26,171.9 L88.31,172.1 L88.36,172.4 L88.41,172.7 L88.46,173 L88.5,173.3 L88.55,173.6 L88.6,173.9 L88.65,174.2 L88.7,174.5 L88.75,174.8 L88.79,175.1 L88.84,175.4 L88.89,175.7 L88.94,176 L88.99,176.3 L89.03,176.6 L89.08,176.9 L89.13,177.2 L89.18,177.5 L89.23,177.8 L89.28,178.1 L89.32,178.4 L89.37,178.8 L89.42,179.1 L89.47,179.4 L89.52,179.7 L89.56,180 L89.61,180.3 L89.66,180.6 L89.71,180.9 L89.76,181.2 L89.81,181.5 L89.85,181.8 L89.9,182.1 L89.95,182.5 L90,182.8 L90.05,183.1 L90.09,183.4 L90.14,183.7 L90.19,184 L90.24,184.3 L90.29,184.7 L90.34,185 L90.38,185.3 L90.43,185.6 L90.48,185.9 L90.53,186.3 L90.58,186.6 L90.62,186.9 L90.67,187.2 L90.72,187.6 L90.77,187.9 L90.82,188.2 L90.87,188.5 L90.91,188.9 L90.96,189.2 L91.01,189.5 L91.06,189.9 L91.11,190.2 L91.16,190.5 L91.2,190.9 L91.25,191.2 L91.3,191.5 L91.35,191.9 L91.4,192.2 L91.44,192.5 L91.49,192.9 L91.54,193.2 L91.59,193.6 L91.64,193.9 L91.69,194.3 L91.73,194.6 L91.78,195 L91.83,195.3 L91.88,195.7 L91.93,196 L91.97,196.4 L92.02,196.7 L92.07,197.1 L92.12,197.4 L92.17,197.8 L92.22,198.2 L92.26,198.5 L92.31,198.9 L92.36,199.2 L92.41,199.6 L92.46,200 L92.5,200.4 L92.55,200.7 L92.6,201.1 L92.65,201.5 L92.7,201.8 L92.75,202.2 L92.79,202.6 L92.84,203 L92.89,203.4 L92.94,203.7 L92.99,204.1 L93.03,204.5 L93.08,204.9 L93.13,205.3 L93.18,205.7 L93.23,206.1 L93.28,206.5 L93.32,206.9 L93.37,207.3 L93.42,207.7 L93.47,208.1 L93.52,208.5 L93.57,208.9 L93.61,209.3 L93.66,209.7 L93.71,210.2 L93.76,210.6 L93.81,211 L93.85,211.4 L93.9,211.9 L93.95,212.3 L94,212.7 L94.05,213.1 L94.1,213.6 L94.14,214 L94.19,214.5 L94.24,214.9 L94.29,215.4 L94.34,215.8 L94.38,216.3 L94.43,216.7 L94.48,217.2 L94.53,217.6 L94.58,218.1 L94.63,218.6 L94.67,219 L94.72,219.5 L94.77,220 L94.82,220.5 L94.87,220.9 L94.91,221.4 L94.96,221.9 L95.01,222.4 L95.06,222.9 L95.11,223.4 L95.16,223.9 L95.2,224.4 L95.25,224.9 L95.3,225.5 L95.35,226 L95.4,226.5 L95.44,227 L95.49,227.6 L95.54,228.1 L95.59,228.6 L95.64,229.2 L95.69,229.7 L95.73,230.3 L95.78,230.9 L95.83,231.4 L95.88,232 L95.93,232.6 L95.98,233.1 L96.02,233.7 L96.07,234.3 L96.12,234.9 L96.17,235.5 L96.22,236.1 L96.26,236.7 L96.31,237.4 L96.36,238 L96.41,238.6 L96.46,239.3 L96.51,239.9 L96.55,240.6 L96.6,241.2 L96.65,241.9 L96.7,242.6 L96.75,243.2 L96.79,243.9 L96.84,244.6 L96.89,245.3 L96.94,246.1 L96.99,246.8 " fill="none"/></g>
</g>
<g id="plotPoints" clip-path="url(#plot_window)"></g>
<g id="legendBackground" stroke="rgb(255,255,0)" fill="rgb(255,255,255)" stroke-width="1"><rect x="259.1" y="47.5" width="138.4" height="70"/><rect x="259.1" y="47.5" width="138.4" height="70"/></g>
<g id="legendPoints"><g stroke="rgb(255,0,0)" fill="rgb(255,255,255)" stroke-width="1"><line x1="273.1" y1="75.5" x2="287.1" y2="75.5"/></g>
<g stroke="rgb(0,0,255)" fill="rgb(255,255,255)" stroke-width="1"><line x1="273.1" y1="103.5" x2="287.1" y2="103.5"/></g>
</g>
<g id="legendText">
<text x="294.1" y="75.5" font-size="14" font-family="Lucida Sans Unicode">W0 branch</text>
<text x="294.1" y="103.5" font-size="14" font-family="Lucida Sans Unicode">W-1 branch</text></g>
<g id="title">
<text x="200" y="36" text-anchor="middle" font-size="18" font-family="Lucida Sans Unicode">Lambert W function.</text></g>
<g id="plotXValues"></g>
<g id="plotYValues"></g>
</svg>
