<?xml version="1.0" encoding="utf-8" standalone="no"?>
<!DOCTYPE svg PUBLIC "-//W3C//DTD SVG 1.1//EN"
  "http://www.w3.org/Graphics/SVG/1.1/DTD/svg11.dtd">
<svg xmlns:xlink="http://www.w3.org/1999/xlink" width="723.7625pt" height="392.514375pt" viewBox="0 0 723.7625 392.514375" xmlns="http://www.w3.org/2000/svg" version="1.1">
 <metadata>
  <rdf:RDF xmlns:dc="http://purl.org/dc/elements/1.1/" xmlns:cc="http://creativecommons.org/ns#" xmlns:rdf="http://www.w3.org/1999/02/22-rdf-syntax-ns#">
   <cc:Work>
    <dc:type rdf:resource="http://purl.org/dc/dcmitype/StillImage"/>
    <dc:date>2024-07-21T02:45:37.881015</dc:date>
    <dc:format>image/svg+xml</dc:format>
    <dc:creator>
     <cc:Agent>
      <dc:title>Matplotlib v3.9.0, https://matplotlib.org/</dc:title>
     </cc:Agent>
    </dc:creator>
   </cc:Work>
  </rdf:RDF>
 </metadata>
 <defs>
  <style type="text/css">*{stroke-linejoin: round; stroke-linecap: butt}</style>
 </defs>
 <g id="figure_1">
  <g id="patch_1">
   <path d="M 0 392.514375 
L 723.7625 392.514375 
L 723.7625 0 
L 0 0 
z
" style="fill: #ffffff"/>
  </g>
  <g id="axes_1">
   <g id="patch_2">
    <path d="M 43.78125 354.958125 
L 713.38125 354.958125 
L 713.38125 22.318125 
L 43.78125 22.318125 
z
" style="fill: #ffffff"/>
   </g>
   <g id="matplotlib.axis_1">
    <g id="xtick_1">
     <g id="line2d_1">
      <defs>
       <path id="maa3b94beaa" d="M 0 0 
L 0 3.5 
" style="stroke: #000000; stroke-width: 0.8"/>
      </defs>
      <g>
       <use xlink:href="#maa3b94beaa" x="43.78125" y="354.958125" style="stroke: #000000; stroke-width: 0.8"/>
      </g>
     </g>
     <g id="text_1">
      <!-- −8 -->
      <g transform="translate(36.410156 369.556562) scale(0.1 -0.1)">
       <defs>
        <path id="DejaVuSans-2212" d="M 678 2272 
L 4684 2272 
L 4684 1741 
L 678 1741 
L 678 2272 
z
" transform="scale(0.015625)"/>
        <path id="DejaVuSans-38" d="M 2034 2216 
Q 1584 2216 1326 1975 
Q 1069 1734 1069 1313 
Q 1069 891 1326 650 
Q 1584 409 2034 409 
Q 2484 409 2743 651 
Q 3003 894 3003 1313 
Q 3003 1734 2745 1975 
Q 2488 2216 2034 2216 
z
M 1403 2484 
Q 997 2584 770 2862 
Q 544 3141 544 3541 
Q 544 4100 942 4425 
Q 1341 4750 2034 4750 
Q 2731 4750 3128 4425 
Q 3525 4100 3525 3541 
Q 3525 3141 3298 2862 
Q 3072 2584 2669 2484 
Q 3125 2378 3379 2068 
Q 3634 1759 3634 1313 
Q 3634 634 3220 271 
Q 2806 -91 2034 -91 
Q 1263 -91 848 271 
Q 434 634 434 1313 
Q 434 1759 690 2068 
Q 947 2378 1403 2484 
z
M 1172 3481 
Q 1172 3119 1398 2916 
Q 1625 2713 2034 2713 
Q 2441 2713 2670 2916 
Q 2900 3119 2900 3481 
Q 2900 3844 2670 4047 
Q 2441 4250 2034 4250 
Q 1625 4250 1398 4047 
Q 1172 3844 1172 3481 
z
" transform="scale(0.015625)"/>
       </defs>
       <use xlink:href="#DejaVuSans-2212"/>
       <use xlink:href="#DejaVuSans-38" x="83.789062"/>
      </g>
     </g>
    </g>
    <g id="xtick_2">
     <g id="line2d_2">
      <g>
       <use xlink:href="#maa3b94beaa" x="127.48125" y="354.958125" style="stroke: #000000; stroke-width: 0.8"/>
      </g>
     </g>
     <g id="text_2">
      <!-- −6 -->
      <g transform="translate(120.110156 369.556562) scale(0.1 -0.1)">
       <defs>
        <path id="DejaVuSans-36" d="M 2113 2584 
Q 1688 2584 1439 2293 
Q 1191 2003 1191 1497 
Q 1191 994 1439 701 
Q 1688 409 2113 409 
Q 2538 409 2786 701 
Q 3034 994 3034 1497 
Q 3034 2003 2786 2293 
Q 2538 2584 2113 2584 
z
M 3366 4563 
L 3366 3988 
Q 3128 4100 2886 4159 
Q 2644 4219 2406 4219 
Q 1781 4219 1451 3797 
Q 1122 3375 1075 2522 
Q 1259 2794 1537 2939 
Q 1816 3084 2150 3084 
Q 2853 3084 3261 2657 
Q 3669 2231 3669 1497 
Q 3669 778 3244 343 
Q 2819 -91 2113 -91 
Q 1303 -91 875 529 
Q 447 1150 447 2328 
Q 447 3434 972 4092 
Q 1497 4750 2381 4750 
Q 2619 4750 2861 4703 
Q 3103 4656 3366 4563 
z
" transform="scale(0.015625)"/>
       </defs>
       <use xlink:href="#DejaVuSans-2212"/>
       <use xlink:href="#DejaVuSans-36" x="83.789062"/>
      </g>
     </g>
    </g>
    <g id="xtick_3">
     <g id="line2d_3">
      <g>
       <use xlink:href="#maa3b94beaa" x="211.18125" y="354.958125" style="stroke: #000000; stroke-width: 0.8"/>
      </g>
     </g>
     <g id="text_3">
      <!-- −4 -->
      <g transform="translate(203.810156 369.556562) scale(0.1 -0.1)">
       <defs>
        <path id="DejaVuSans-34" d="M 2419 4116 
L 825 1625 
L 2419 1625 
L 2419 4116 
z
M 2253 4666 
L 3047 4666 
L 3047 1625 
L 3713 1625 
L 3713 1100 
L 3047 1100 
L 3047 0 
L 2419 0 
L 2419 1100 
L 313 1100 
L 313 1709 
L 2253 4666 
z
" transform="scale(0.015625)"/>
       </defs>
       <use xlink:href="#DejaVuSans-2212"/>
       <use xlink:href="#DejaVuSans-34" x="83.789062"/>
      </g>
     </g>
    </g>
    <g id="xtick_4">
     <g id="line2d_4">
      <g>
       <use xlink:href="#maa3b94beaa" x="294.88125" y="354.958125" style="stroke: #000000; stroke-width: 0.8"/>
      </g>
     </g>
     <g id="text_4">
      <!-- −2 -->
      <g transform="translate(287.510156 369.556562) scale(0.1 -0.1)">
       <defs>
        <path id="DejaVuSans-32" d="M 1228 531 
L 3431 531 
L 3431 0 
L 469 0 
L 469 531 
Q 828 903 1448 1529 
Q 2069 2156 2228 2338 
Q 2531 2678 2651 2914 
Q 2772 3150 2772 3378 
Q 2772 3750 2511 3984 
Q 2250 4219 1831 4219 
Q 1534 4219 1204 4116 
Q 875 4013 500 3803 
L 500 4441 
Q 881 4594 1212 4672 
Q 1544 4750 1819 4750 
Q 2544 4750 2975 4387 
Q 3406 4025 3406 3419 
Q 3406 3131 3298 2873 
Q 3191 2616 2906 2266 
Q 2828 2175 2409 1742 
Q 1991 1309 1228 531 
z
" transform="scale(0.015625)"/>
       </defs>
       <use xlink:href="#DejaVuSans-2212"/>
       <use xlink:href="#DejaVuSans-32" x="83.789062"/>
      </g>
     </g>
    </g>
    <g id="xtick_5">
     <g id="line2d_5">
      <g>
       <use xlink:href="#maa3b94beaa" x="378.58125" y="354.958125" style="stroke: #000000; stroke-width: 0.8"/>
      </g>
     </g>
     <g id="text_5">
      <!-- 0 -->
      <g transform="translate(375.4 369.556562) scale(0.1 -0.1)">
       <defs>
        <path id="DejaVuSans-30" d="M 2034 4250 
Q 1547 4250 1301 3770 
Q 1056 3291 1056 2328 
Q 1056 1369 1301 889 
Q 1547 409 2034 409 
Q 2525 409 2770 889 
Q 3016 1369 3016 2328 
Q 3016 3291 2770 3770 
Q 2525 4250 2034 4250 
z
M 2034 4750 
Q 2819 4750 3233 4129 
Q 3647 3509 3647 2328 
Q 3647 1150 3233 529 
Q 2819 -91 2034 -91 
Q 1250 -91 836 529 
Q 422 1150 422 2328 
Q 422 3509 836 4129 
Q 1250 4750 2034 4750 
z
" transform="scale(0.015625)"/>
       </defs>
       <use xlink:href="#DejaVuSans-30"/>
      </g>
     </g>
    </g>
    <g id="xtick_6">
     <g id="line2d_6">
      <g>
       <use xlink:href="#maa3b94beaa" x="462.28125" y="354.958125" style="stroke: #000000; stroke-width: 0.8"/>
      </g>
     </g>
     <g id="text_6">
      <!-- 2 -->
      <g transform="translate(459.1 369.556562) scale(0.1 -0.1)">
       <use xlink:href="#DejaVuSans-32"/>
      </g>
     </g>
    </g>
    <g id="xtick_7">
     <g id="line2d_7">
      <g>
       <use xlink:href="#maa3b94beaa" x="545.98125" y="354.958125" style="stroke: #000000; stroke-width: 0.8"/>
      </g>
     </g>
     <g id="text_7">
      <!-- 4 -->
      <g transform="translate(542.8 369.556562) scale(0.1 -0.1)">
       <use xlink:href="#DejaVuSans-34"/>
      </g>
     </g>
    </g>
    <g id="xtick_8">
     <g id="line2d_8">
      <g>
       <use xlink:href="#maa3b94beaa" x="629.68125" y="354.958125" style="stroke: #000000; stroke-width: 0.8"/>
      </g>
     </g>
     <g id="text_8">
      <!-- 6 -->
      <g transform="translate(626.5 369.556562) scale(0.1 -0.1)">
       <use xlink:href="#DejaVuSans-36"/>
      </g>
     </g>
    </g>
    <g id="xtick_9">
     <g id="line2d_9">
      <g>
       <use xlink:href="#maa3b94beaa" x="713.38125" y="354.958125" style="stroke: #000000; stroke-width: 0.8"/>
      </g>
     </g>
     <g id="text_9">
      <!-- 8 -->
      <g transform="translate(710.2 369.556562) scale(0.1 -0.1)">
       <use xlink:href="#DejaVuSans-38"/>
      </g>
     </g>
    </g>
    <g id="text_10">
     <!-- $x$ -->
     <g transform="translate(375.58125 383.234687) scale(0.1 -0.1)">
      <defs>
       <path id="DejaVuSans-Oblique-78" d="M 3841 3500 
L 2234 1784 
L 3219 0 
L 2559 0 
L 1819 1388 
L 531 0 
L -166 0 
L 1556 1844 
L 641 3500 
L 1300 3500 
L 1972 2234 
L 3144 3500 
L 3841 3500 
z
" transform="scale(0.015625)"/>
      </defs>
      <use xlink:href="#DejaVuSans-Oblique-78" transform="translate(0 0.3125)"/>
     </g>
    </g>
   </g>
   <g id="matplotlib.axis_2">
    <g id="ytick_1">
     <g id="line2d_10">
      <defs>
       <path id="m3c11ddeafe" d="M 0 0 
L -3.5 0 
" style="stroke: #000000; stroke-width: 0.8"/>
      </defs>
      <g>
       <use xlink:href="#m3c11ddeafe" x="43.78125" y="340.866116" style="stroke: #000000; stroke-width: 0.8"/>
      </g>
     </g>
     <g id="text_11">
      <!-- 0.0 -->
      <g transform="translate(20.878125 344.665335) scale(0.1 -0.1)">
       <defs>
        <path id="DejaVuSans-2e" d="M 684 794 
L 1344 794 
L 1344 0 
L 684 0 
L 684 794 
z
" transform="scale(0.015625)"/>
       </defs>
       <use xlink:href="#DejaVuSans-30"/>
       <use xlink:href="#DejaVuSans-2e" x="63.623047"/>
       <use xlink:href="#DejaVuSans-30" x="95.410156"/>
      </g>
     </g>
    </g>
    <g id="ytick_2">
     <g id="line2d_11">
      <g>
       <use xlink:href="#m3c11ddeafe" x="43.78125" y="293.203759" style="stroke: #000000; stroke-width: 0.8"/>
      </g>
     </g>
     <g id="text_12">
      <!-- 0.1 -->
      <g transform="translate(20.878125 297.002977) scale(0.1 -0.1)">
       <defs>
        <path id="DejaVuSans-31" d="M 794 531 
L 1825 531 
L 1825 4091 
L 703 3866 
L 703 4441 
L 1819 4666 
L 2450 4666 
L 2450 531 
L 3481 531 
L 3481 0 
L 794 0 
L 794 531 
z
" transform="scale(0.015625)"/>
       </defs>
       <use xlink:href="#DejaVuSans-30"/>
       <use xlink:href="#DejaVuSans-2e" x="63.623047"/>
       <use xlink:href="#DejaVuSans-31" x="95.410156"/>
      </g>
     </g>
    </g>
    <g id="ytick_3">
     <g id="line2d_12">
      <g>
       <use xlink:href="#m3c11ddeafe" x="43.78125" y="245.541401" style="stroke: #000000; stroke-width: 0.8"/>
      </g>
     </g>
     <g id="text_13">
      <!-- 0.2 -->
      <g transform="translate(20.878125 249.34062) scale(0.1 -0.1)">
       <use xlink:href="#DejaVuSans-30"/>
       <use xlink:href="#DejaVuSans-2e" x="63.623047"/>
       <use xlink:href="#DejaVuSans-32" x="95.410156"/>
      </g>
     </g>
    </g>
    <g id="ytick_4">
     <g id="line2d_13">
      <g>
       <use xlink:href="#m3c11ddeafe" x="43.78125" y="197.879044" style="stroke: #000000; stroke-width: 0.8"/>
      </g>
     </g>
     <g id="text_14">
      <!-- 0.3 -->
      <g transform="translate(20.878125 201.678263) scale(0.1 -0.1)">
       <defs>
        <path id="DejaVuSans-33" d="M 2597 2516 
Q 3050 2419 3304 2112 
Q 3559 1806 3559 1356 
Q 3559 666 3084 287 
Q 2609 -91 1734 -91 
Q 1441 -91 1130 -33 
Q 819 25 488 141 
L 488 750 
Q 750 597 1062 519 
Q 1375 441 1716 441 
Q 2309 441 2620 675 
Q 2931 909 2931 1356 
Q 2931 1769 2642 2001 
Q 2353 2234 1838 2234 
L 1294 2234 
L 1294 2753 
L 1863 2753 
Q 2328 2753 2575 2939 
Q 2822 3125 2822 3475 
Q 2822 3834 2567 4026 
Q 2313 4219 1838 4219 
Q 1578 4219 1281 4162 
Q 984 4106 628 3988 
L 628 4550 
Q 988 4650 1302 4700 
Q 1616 4750 1894 4750 
Q 2613 4750 3031 4423 
Q 3450 4097 3450 3541 
Q 3450 3153 3228 2886 
Q 3006 2619 2597 2516 
z
" transform="scale(0.015625)"/>
       </defs>
       <use xlink:href="#DejaVuSans-30"/>
       <use xlink:href="#DejaVuSans-2e" x="63.623047"/>
       <use xlink:href="#DejaVuSans-33" x="95.410156"/>
      </g>
     </g>
    </g>
    <g id="ytick_5">
     <g id="line2d_14">
      <g>
       <use xlink:href="#m3c11ddeafe" x="43.78125" y="150.216687" style="stroke: #000000; stroke-width: 0.8"/>
      </g>
     </g>
     <g id="text_15">
      <!-- 0.4 -->
      <g transform="translate(20.878125 154.015905) scale(0.1 -0.1)">
       <use xlink:href="#DejaVuSans-30"/>
       <use xlink:href="#DejaVuSans-2e" x="63.623047"/>
       <use xlink:href="#DejaVuSans-34" x="95.410156"/>
      </g>
     </g>
    </g>
    <g id="ytick_6">
     <g id="line2d_15">
      <g>
       <use xlink:href="#m3c11ddeafe" x="43.78125" y="102.554329" style="stroke: #000000; stroke-width: 0.8"/>
      </g>
     </g>
     <g id="text_16">
      <!-- 0.5 -->
      <g transform="translate(20.878125 106.353548) scale(0.1 -0.1)">
       <defs>
        <path id="DejaVuSans-35" d="M 691 4666 
L 3169 4666 
L 3169 4134 
L 1269 4134 
L 1269 2991 
Q 1406 3038 1543 3061 
Q 1681 3084 1819 3084 
Q 2600 3084 3056 2656 
Q 3513 2228 3513 1497 
Q 3513 744 3044 326 
Q 2575 -91 1722 -91 
Q 1428 -91 1123 -41 
Q 819 9 494 109 
L 494 744 
Q 775 591 1075 516 
Q 1375 441 1709 441 
Q 2250 441 2565 725 
Q 2881 1009 2881 1497 
Q 2881 1984 2565 2268 
Q 2250 2553 1709 2553 
Q 1456 2553 1204 2497 
Q 953 2441 691 2322 
L 691 4666 
z
" transform="scale(0.015625)"/>
       </defs>
       <use xlink:href="#DejaVuSans-30"/>
       <use xlink:href="#DejaVuSans-2e" x="63.623047"/>
       <use xlink:href="#DejaVuSans-35" x="95.410156"/>
      </g>
     </g>
    </g>
    <g id="ytick_7">
     <g id="line2d_16">
      <g>
       <use xlink:href="#m3c11ddeafe" x="43.78125" y="54.891972" style="stroke: #000000; stroke-width: 0.8"/>
      </g>
     </g>
     <g id="text_17">
      <!-- 0.6 -->
      <g transform="translate(20.878125 58.691191) scale(0.1 -0.1)">
       <use xlink:href="#DejaVuSans-30"/>
       <use xlink:href="#DejaVuSans-2e" x="63.623047"/>
       <use xlink:href="#DejaVuSans-36" x="95.410156"/>
      </g>
     </g>
    </g>
    <g id="text_18">
     <!-- pdf -->
     <g transform="translate(14.798438 196.746719) rotate(-90) scale(0.1 -0.1)">
      <defs>
       <path id="DejaVuSans-70" d="M 1159 525 
L 1159 -1331 
L 581 -1331 
L 581 3500 
L 1159 3500 
L 1159 2969 
Q 1341 3281 1617 3432 
Q 1894 3584 2278 3584 
Q 2916 3584 3314 3078 
Q 3713 2572 3713 1747 
Q 3713 922 3314 415 
Q 2916 -91 2278 -91 
Q 1894 -91 1617 61 
Q 1341 213 1159 525 
z
M 3116 1747 
Q 3116 2381 2855 2742 
Q 2594 3103 2138 3103 
Q 1681 3103 1420 2742 
Q 1159 2381 1159 1747 
Q 1159 1113 1420 752 
Q 1681 391 2138 391 
Q 2594 391 2855 752 
Q 3116 1113 3116 1747 
z
" transform="scale(0.015625)"/>
       <path id="DejaVuSans-64" d="M 2906 2969 
L 2906 4863 
L 3481 4863 
L 3481 0 
L 2906 0 
L 2906 525 
Q 2725 213 2448 61 
Q 2172 -91 1784 -91 
Q 1150 -91 751 415 
Q 353 922 353 1747 
Q 353 2572 751 3078 
Q 1150 3584 1784 3584 
Q 2172 3584 2448 3432 
Q 2725 3281 2906 2969 
z
M 947 1747 
Q 947 1113 1208 752 
Q 1469 391 1925 391 
Q 2381 391 2643 752 
Q 2906 1113 2906 1747 
Q 2906 2381 2643 2742 
Q 2381 3103 1925 3103 
Q 1469 3103 1208 2742 
Q 947 2381 947 1747 
z
" transform="scale(0.015625)"/>
       <path id="DejaVuSans-66" d="M 2375 4863 
L 2375 4384 
L 1825 4384 
Q 1516 4384 1395 4259 
Q 1275 4134 1275 3809 
L 1275 3500 
L 2222 3500 
L 2222 3053 
L 1275 3053 
L 1275 0 
L 697 0 
L 697 3053 
L 147 3053 
L 147 3500 
L 697 3500 
L 697 3744 
Q 697 4328 969 4595 
Q 1241 4863 1831 4863 
L 2375 4863 
z
" transform="scale(0.015625)"/>
      </defs>
      <use xlink:href="#DejaVuSans-70"/>
      <use xlink:href="#DejaVuSans-64" x="63.476562"/>
      <use xlink:href="#DejaVuSans-66" x="126.953125"/>
     </g>
    </g>
   </g>
   <g id="line2d_17">
    <path d="M 43.617773 336.24356 
L 73.370508 335.404862 
L 97.728516 334.503401 
L 118.163086 333.530667 
L 135.328125 332.498104 
L 150.041016 331.397027 
L 162.792188 330.224646 
L 173.908594 328.982821 
L 183.553711 327.688291 
L 192.054492 326.331721 
L 199.737891 324.884131 
L 206.603906 323.366116 
L 212.816016 321.7643 
L 218.374219 320.103076 
L 223.441992 318.357538 
L 228.019336 316.549945 
L 232.269727 314.633345 
L 236.193164 312.618584 
L 239.789648 310.522893 
L 243.05918 308.371025 
L 246.165234 306.067934 
L 249.107812 303.610089 
L 251.886914 300.996391 
L 254.502539 298.228989 
L 256.954687 295.314205 
L 259.243359 292.263573 
L 261.532031 288.836225 
L 263.657227 285.254831 
L 265.782422 281.217172 
L 267.744141 277.008921 
L 269.705859 272.249246 
L 271.504102 267.308153 
L 273.302344 261.704266 
L 274.937109 255.921192 
L 276.571875 249.34966 
L 278.206641 241.825995 
L 279.841406 233.139975 
L 281.312695 224.104348 
L 282.783984 213.64826 
L 284.255273 201.437363 
L 285.563086 188.761356 
L 286.870898 173.967719 
L 288.178711 156.576218 
L 289.486523 136.033251 
L 290.794336 111.838958 
L 292.429102 76.771784 
L 293.736914 49.159435 
L 294.227344 41.64056 
L 294.554297 38.532783 
L 294.88125 37.438125 
L 295.044727 37.714863 
L 295.37168 39.857777 
L 295.862109 46.349249 
L 296.679492 62.287163 
L 299.62207 124.41265 
L 300.929883 146.734145 
L 302.237695 165.63019 
L 303.545508 181.657095 
L 305.016797 196.905396 
L 306.488086 209.792079 
L 307.959375 220.791552 
L 309.430664 230.268642 
L 311.06543 239.353279 
L 312.700195 247.201073 
L 314.334961 254.039208 
L 316.133203 260.604113 
L 317.931445 266.34211 
L 319.893164 271.824454 
L 321.854883 276.634695 
L 323.816602 280.885285 
L 325.941797 284.961447 
L 328.066992 288.575231 
L 330.355664 292.032005 
L 332.807813 295.314205 
L 335.259961 298.228989 
L 337.875586 300.996391 
L 340.654688 303.610089 
L 343.597266 306.067934 
L 346.70332 308.371025 
L 349.972852 310.522893 
L 353.569336 312.618584 
L 357.329297 314.55442 
L 361.416211 316.411231 
L 365.830078 318.175148 
L 370.734375 319.891208 
L 376.129102 321.534656 
L 382.014258 323.088829 
L 388.55332 324.578411 
L 395.746289 325.984196 
L 403.756641 327.320037 
L 412.747852 328.590662 
L 422.883398 329.795099 
L 434.490234 330.944169 
L 447.731836 332.025251 
L 462.935156 333.038521 
L 480.590625 333.987957 
L 501.352148 334.87637 
L 526.037109 335.70343 
L 555.789844 336.469488 
L 592.081641 337.172342 
L 637.037695 337.811359 
L 693.927539 338.387788 
L 713.544727 338.545125 
L 713.544727 338.545125 
" clip-path="url(#pec2569bed2)" style="fill: none; stroke: #1f77b4; stroke-width: 1.5; stroke-linecap: square"/>
   </g>
   <g id="line2d_18">
    <path d="M 43.617773 337.722263 
L 90.208594 337.019846 
L 126.99082 336.25154 
L 156.743555 335.415461 
L 181.265039 334.510284 
L 201.699609 333.539441 
L 219.028125 332.498104 
L 233.741016 331.397027 
L 246.492188 330.224646 
L 257.608594 328.982821 
L 267.253711 327.688291 
L 275.754492 326.331721 
L 283.437891 324.884131 
L 290.303906 323.366116 
L 296.516016 321.7643 
L 302.074219 320.103076 
L 307.141992 318.357538 
L 311.719336 316.549945 
L 315.969727 314.633345 
L 319.893164 312.618584 
L 323.489648 310.522893 
L 326.75918 308.371025 
L 329.865234 306.067934 
L 332.807813 303.610089 
L 335.586914 300.996391 
L 338.202539 298.228989 
L 340.654688 295.314205 
L 342.943359 292.263573 
L 345.232031 288.836225 
L 347.357227 285.254831 
L 349.482422 281.217172 
L 351.444141 277.008921 
L 353.405859 272.249246 
L 355.204102 267.308153 
L 357.002344 261.704266 
L 358.637109 255.921192 
L 360.271875 249.34966 
L 361.906641 241.825995 
L 363.541406 233.139975 
L 365.012695 224.104348 
L 366.483984 213.64826 
L 367.955273 201.437363 
L 369.263086 188.761356 
L 370.570898 173.967719 
L 371.878711 156.576218 
L 373.186523 136.033251 
L 374.494336 111.838958 
L 376.129102 76.771784 
L 377.436914 49.159435 
L 377.927344 41.64056 
L 378.254297 38.532783 
L 378.58125 37.438125 
L 378.744727 37.714863 
L 379.07168 39.857777 
L 379.562109 46.349249 
L 380.379492 62.287163 
L 383.32207 124.41265 
L 384.629883 146.734145 
L 385.937695 165.63019 
L 387.245508 181.657095 
L 388.716797 196.905396 
L 390.188086 209.792079 
L 391.659375 220.791552 
L 393.130664 230.268642 
L 394.76543 239.353279 
L 396.400195 247.201073 
L 398.034961 254.039208 
L 399.833203 260.604113 
L 401.631445 266.34211 
L 403.593164 271.824454 
L 405.554883 276.634695 
L 407.516602 280.885285 
L 409.641797 284.961447 
L 411.766992 288.575231 
L 414.055664 292.032005 
L 416.507812 295.314205 
L 418.959961 298.228989 
L 421.575586 300.996391 
L 424.354688 303.610089 
L 427.297266 306.067934 
L 430.40332 308.371025 
L 433.672852 310.522893 
L 437.269336 312.618584 
L 441.029297 314.55442 
L 445.116211 316.411231 
L 449.530078 318.175148 
L 454.434375 319.891208 
L 459.829102 321.534656 
L 465.714258 323.088829 
L 472.25332 324.578411 
L 479.446289 325.984196 
L 487.456641 327.320037 
L 496.447852 328.590662 
L 506.583398 329.795099 
L 518.190234 330.944169 
L 531.431836 332.025251 
L 546.635156 333.038521 
L 564.290625 333.987957 
L 585.052148 334.87637 
L 609.737109 335.70343 
L 639.489844 336.469488 
L 675.781641 337.172342 
L 713.544727 337.722263 
L 713.544727 337.722263 
" clip-path="url(#pec2569bed2)" style="fill: none; stroke: #ff7f0e; stroke-width: 1.5; stroke-linecap: square"/>
   </g>
   <g id="line2d_19">
    <path d="M 43.617773 338.545125 
L 109.825781 337.931682 
L 160.340039 337.250052 
L 199.901367 336.502301 
L 231.61582 335.688925 
L 257.608594 334.807343 
L 279.1875 333.860057 
L 297.333398 332.848163 
L 312.863672 331.765018 
L 326.26875 330.610809 
L 337.875586 329.391855 
L 348.011133 328.108008 
L 357.002344 326.746898 
L 364.849219 325.340464 
L 371.878711 323.861711 
L 378.254297 322.29664 
L 383.975977 320.66704 
L 389.207227 318.947558 
L 393.948047 317.157626 
L 398.361914 315.25024 
L 402.285352 313.319212 
L 406.045313 311.218273 
L 409.47832 309.043816 
L 412.747852 306.700992 
L 415.69043 304.322521 
L 418.469531 301.797596 
L 421.085156 299.129012 
L 423.537305 296.323587 
L 425.989453 293.17091 
L 428.278125 289.85773 
L 430.40332 286.401807 
L 432.528516 282.513039 
L 434.490234 278.468214 
L 436.451953 273.903336 
L 438.250195 269.175434 
L 440.048438 263.826582 
L 441.84668 257.732449 
L 443.481445 251.412868 
L 445.116211 244.194525 
L 446.750977 235.882664 
L 448.222266 227.259932 
L 449.693555 217.310283 
L 451.164844 205.727107 
L 452.472656 193.740182 
L 453.780469 179.791969 
L 455.088281 163.436628 
L 456.396094 144.142078 
L 457.703906 121.358887 
L 459.175195 91.286543 
L 461.300391 46.349249 
L 461.79082 39.857777 
L 462.117773 37.714863 
L 462.28125 37.438125 
L 462.444727 37.714863 
L 462.77168 39.857777 
L 463.262109 46.349249 
L 464.079492 62.287163 
L 467.02207 124.41265 
L 468.329883 146.734145 
L 469.637695 165.63019 
L 470.945508 181.657095 
L 472.416797 196.905396 
L 473.888086 209.792079 
L 475.359375 220.791552 
L 476.830664 230.268642 
L 478.46543 239.353279 
L 480.100195 247.201073 
L 481.734961 254.039208 
L 483.533203 260.604113 
L 485.331445 266.34211 
L 487.293164 271.824454 
L 489.254883 276.634695 
L 491.216602 280.885285 
L 493.341797 284.961447 
L 495.466992 288.575231 
L 497.755664 292.032005 
L 500.207813 295.314205 
L 502.659961 298.228989 
L 505.275586 300.996391 
L 508.054688 303.610089 
L 510.997266 306.067934 
L 514.10332 308.371025 
L 517.372852 310.522893 
L 520.969336 312.618584 
L 524.729297 314.55442 
L 528.816211 316.411231 
L 533.230078 318.175148 
L 538.134375 319.891208 
L 543.529102 321.534656 
L 549.414258 323.088829 
L 555.95332 324.578411 
L 563.146289 325.984196 
L 571.156641 327.320037 
L 580.147852 328.590662 
L 590.283398 329.795099 
L 601.890234 330.944169 
L 615.131836 332.025251 
L 630.335156 333.038521 
L 647.990625 333.987957 
L 668.752148 334.87637 
L 693.437109 335.70343 
L 713.544727 336.24356 
L 713.544727 336.24356 
" clip-path="url(#pec2569bed2)" style="fill: none; stroke: #2ca02c; stroke-width: 1.5; stroke-linecap: square"/>
   </g>
   <g id="patch_3">
    <path d="M 43.78125 354.958125 
L 43.78125 22.318125 
" style="fill: none; stroke: #000000; stroke-width: 0.8; stroke-linejoin: miter; stroke-linecap: square"/>
   </g>
   <g id="patch_4">
    <path d="M 713.38125 354.958125 
L 713.38125 22.318125 
" style="fill: none; stroke: #000000; stroke-width: 0.8; stroke-linejoin: miter; stroke-linecap: square"/>
   </g>
   <g id="patch_5">
    <path d="M 43.78125 354.958125 
L 713.38125 354.958125 
" style="fill: none; stroke: #000000; stroke-width: 0.8; stroke-linejoin: miter; stroke-linecap: square"/>
   </g>
   <g id="patch_6">
    <path d="M 43.78125 22.318125 
L 713.38125 22.318125 
" style="fill: none; stroke: #000000; stroke-width: 0.8; stroke-linejoin: miter; stroke-linecap: square"/>
   </g>
   <g id="text_19">
    <!-- SaS point5 Distribution (scale = 1) -->
    <g transform="translate(274.6425 16.318125) scale(0.12 -0.12)">
     <defs>
      <path id="DejaVuSans-53" d="M 3425 4513 
L 3425 3897 
Q 3066 4069 2747 4153 
Q 2428 4238 2131 4238 
Q 1616 4238 1336 4038 
Q 1056 3838 1056 3469 
Q 1056 3159 1242 3001 
Q 1428 2844 1947 2747 
L 2328 2669 
Q 3034 2534 3370 2195 
Q 3706 1856 3706 1288 
Q 3706 609 3251 259 
Q 2797 -91 1919 -91 
Q 1588 -91 1214 -16 
Q 841 59 441 206 
L 441 856 
Q 825 641 1194 531 
Q 1563 422 1919 422 
Q 2459 422 2753 634 
Q 3047 847 3047 1241 
Q 3047 1584 2836 1778 
Q 2625 1972 2144 2069 
L 1759 2144 
Q 1053 2284 737 2584 
Q 422 2884 422 3419 
Q 422 4038 858 4394 
Q 1294 4750 2059 4750 
Q 2388 4750 2728 4690 
Q 3069 4631 3425 4513 
z
" transform="scale(0.015625)"/>
      <path id="DejaVuSans-61" d="M 2194 1759 
Q 1497 1759 1228 1600 
Q 959 1441 959 1056 
Q 959 750 1161 570 
Q 1363 391 1709 391 
Q 2188 391 2477 730 
Q 2766 1069 2766 1631 
L 2766 1759 
L 2194 1759 
z
M 3341 1997 
L 3341 0 
L 2766 0 
L 2766 531 
Q 2569 213 2275 61 
Q 1981 -91 1556 -91 
Q 1019 -91 701 211 
Q 384 513 384 1019 
Q 384 1609 779 1909 
Q 1175 2209 1959 2209 
L 2766 2209 
L 2766 2266 
Q 2766 2663 2505 2880 
Q 2244 3097 1772 3097 
Q 1472 3097 1187 3025 
Q 903 2953 641 2809 
L 641 3341 
Q 956 3463 1253 3523 
Q 1550 3584 1831 3584 
Q 2591 3584 2966 3190 
Q 3341 2797 3341 1997 
z
" transform="scale(0.015625)"/>
      <path id="DejaVuSans-20" transform="scale(0.015625)"/>
      <path id="DejaVuSans-6f" d="M 1959 3097 
Q 1497 3097 1228 2736 
Q 959 2375 959 1747 
Q 959 1119 1226 758 
Q 1494 397 1959 397 
Q 2419 397 2687 759 
Q 2956 1122 2956 1747 
Q 2956 2369 2687 2733 
Q 2419 3097 1959 3097 
z
M 1959 3584 
Q 2709 3584 3137 3096 
Q 3566 2609 3566 1747 
Q 3566 888 3137 398 
Q 2709 -91 1959 -91 
Q 1206 -91 779 398 
Q 353 888 353 1747 
Q 353 2609 779 3096 
Q 1206 3584 1959 3584 
z
" transform="scale(0.015625)"/>
      <path id="DejaVuSans-69" d="M 603 3500 
L 1178 3500 
L 1178 0 
L 603 0 
L 603 3500 
z
M 603 4863 
L 1178 4863 
L 1178 4134 
L 603 4134 
L 603 4863 
z
" transform="scale(0.015625)"/>
      <path id="DejaVuSans-6e" d="M 3513 2113 
L 3513 0 
L 2938 0 
L 2938 2094 
Q 2938 2591 2744 2837 
Q 2550 3084 2163 3084 
Q 1697 3084 1428 2787 
Q 1159 2491 1159 1978 
L 1159 0 
L 581 0 
L 581 3500 
L 1159 3500 
L 1159 2956 
Q 1366 3272 1645 3428 
Q 1925 3584 2291 3584 
Q 2894 3584 3203 3211 
Q 3513 2838 3513 2113 
z
" transform="scale(0.015625)"/>
      <path id="DejaVuSans-74" d="M 1172 4494 
L 1172 3500 
L 2356 3500 
L 2356 3053 
L 1172 3053 
L 1172 1153 
Q 1172 725 1289 603 
Q 1406 481 1766 481 
L 2356 481 
L 2356 0 
L 1766 0 
Q 1100 0 847 248 
Q 594 497 594 1153 
L 594 3053 
L 172 3053 
L 172 3500 
L 594 3500 
L 594 4494 
L 1172 4494 
z
" transform="scale(0.015625)"/>
      <path id="DejaVuSans-44" d="M 1259 4147 
L 1259 519 
L 2022 519 
Q 2988 519 3436 956 
Q 3884 1394 3884 2338 
Q 3884 3275 3436 3711 
Q 2988 4147 2022 4147 
L 1259 4147 
z
M 628 4666 
L 1925 4666 
Q 3281 4666 3915 4102 
Q 4550 3538 4550 2338 
Q 4550 1131 3912 565 
Q 3275 0 1925 0 
L 628 0 
L 628 4666 
z
" transform="scale(0.015625)"/>
      <path id="DejaVuSans-73" d="M 2834 3397 
L 2834 2853 
Q 2591 2978 2328 3040 
Q 2066 3103 1784 3103 
Q 1356 3103 1142 2972 
Q 928 2841 928 2578 
Q 928 2378 1081 2264 
Q 1234 2150 1697 2047 
L 1894 2003 
Q 2506 1872 2764 1633 
Q 3022 1394 3022 966 
Q 3022 478 2636 193 
Q 2250 -91 1575 -91 
Q 1294 -91 989 -36 
Q 684 19 347 128 
L 347 722 
Q 666 556 975 473 
Q 1284 391 1588 391 
Q 1994 391 2212 530 
Q 2431 669 2431 922 
Q 2431 1156 2273 1281 
Q 2116 1406 1581 1522 
L 1381 1569 
Q 847 1681 609 1914 
Q 372 2147 372 2553 
Q 372 3047 722 3315 
Q 1072 3584 1716 3584 
Q 2034 3584 2315 3537 
Q 2597 3491 2834 3397 
z
" transform="scale(0.015625)"/>
      <path id="DejaVuSans-72" d="M 2631 2963 
Q 2534 3019 2420 3045 
Q 2306 3072 2169 3072 
Q 1681 3072 1420 2755 
Q 1159 2438 1159 1844 
L 1159 0 
L 581 0 
L 581 3500 
L 1159 3500 
L 1159 2956 
Q 1341 3275 1631 3429 
Q 1922 3584 2338 3584 
Q 2397 3584 2469 3576 
Q 2541 3569 2628 3553 
L 2631 2963 
z
" transform="scale(0.015625)"/>
      <path id="DejaVuSans-62" d="M 3116 1747 
Q 3116 2381 2855 2742 
Q 2594 3103 2138 3103 
Q 1681 3103 1420 2742 
Q 1159 2381 1159 1747 
Q 1159 1113 1420 752 
Q 1681 391 2138 391 
Q 2594 391 2855 752 
Q 3116 1113 3116 1747 
z
M 1159 2969 
Q 1341 3281 1617 3432 
Q 1894 3584 2278 3584 
Q 2916 3584 3314 3078 
Q 3713 2572 3713 1747 
Q 3713 922 3314 415 
Q 2916 -91 2278 -91 
Q 1894 -91 1617 61 
Q 1341 213 1159 525 
L 1159 0 
L 581 0 
L 581 4863 
L 1159 4863 
L 1159 2969 
z
" transform="scale(0.015625)"/>
      <path id="DejaVuSans-75" d="M 544 1381 
L 544 3500 
L 1119 3500 
L 1119 1403 
Q 1119 906 1312 657 
Q 1506 409 1894 409 
Q 2359 409 2629 706 
Q 2900 1003 2900 1516 
L 2900 3500 
L 3475 3500 
L 3475 0 
L 2900 0 
L 2900 538 
Q 2691 219 2414 64 
Q 2138 -91 1772 -91 
Q 1169 -91 856 284 
Q 544 659 544 1381 
z
M 1991 3584 
L 1991 3584 
z
" transform="scale(0.015625)"/>
      <path id="DejaVuSans-28" d="M 1984 4856 
Q 1566 4138 1362 3434 
Q 1159 2731 1159 2009 
Q 1159 1288 1364 580 
Q 1569 -128 1984 -844 
L 1484 -844 
Q 1016 -109 783 600 
Q 550 1309 550 2009 
Q 550 2706 781 3412 
Q 1013 4119 1484 4856 
L 1984 4856 
z
" transform="scale(0.015625)"/>
      <path id="DejaVuSans-63" d="M 3122 3366 
L 3122 2828 
Q 2878 2963 2633 3030 
Q 2388 3097 2138 3097 
Q 1578 3097 1268 2742 
Q 959 2388 959 1747 
Q 959 1106 1268 751 
Q 1578 397 2138 397 
Q 2388 397 2633 464 
Q 2878 531 3122 666 
L 3122 134 
Q 2881 22 2623 -34 
Q 2366 -91 2075 -91 
Q 1284 -91 818 406 
Q 353 903 353 1747 
Q 353 2603 823 3093 
Q 1294 3584 2113 3584 
Q 2378 3584 2631 3529 
Q 2884 3475 3122 3366 
z
" transform="scale(0.015625)"/>
      <path id="DejaVuSans-6c" d="M 603 4863 
L 1178 4863 
L 1178 0 
L 603 0 
L 603 4863 
z
" transform="scale(0.015625)"/>
      <path id="DejaVuSans-65" d="M 3597 1894 
L 3597 1613 
L 953 1613 
Q 991 1019 1311 708 
Q 1631 397 2203 397 
Q 2534 397 2845 478 
Q 3156 559 3463 722 
L 3463 178 
Q 3153 47 2828 -22 
Q 2503 -91 2169 -91 
Q 1331 -91 842 396 
Q 353 884 353 1716 
Q 353 2575 817 3079 
Q 1281 3584 2069 3584 
Q 2775 3584 3186 3129 
Q 3597 2675 3597 1894 
z
M 3022 2063 
Q 3016 2534 2758 2815 
Q 2500 3097 2075 3097 
Q 1594 3097 1305 2825 
Q 1016 2553 972 2059 
L 3022 2063 
z
" transform="scale(0.015625)"/>
      <path id="DejaVuSans-3d" d="M 678 2906 
L 4684 2906 
L 4684 2381 
L 678 2381 
L 678 2906 
z
M 678 1631 
L 4684 1631 
L 4684 1100 
L 678 1100 
L 678 1631 
z
" transform="scale(0.015625)"/>
      <path id="DejaVuSans-29" d="M 513 4856 
L 1013 4856 
Q 1481 4119 1714 3412 
Q 1947 2706 1947 2009 
Q 1947 1309 1714 600 
Q 1481 -109 1013 -844 
L 513 -844 
Q 928 -128 1133 580 
Q 1338 1288 1338 2009 
Q 1338 2731 1133 3434 
Q 928 4138 513 4856 
z
" transform="scale(0.015625)"/>
     </defs>
     <use xlink:href="#DejaVuSans-53"/>
     <use xlink:href="#DejaVuSans-61" x="63.476562"/>
     <use xlink:href="#DejaVuSans-53" x="124.755859"/>
     <use xlink:href="#DejaVuSans-20" x="188.232422"/>
     <use xlink:href="#DejaVuSans-70" x="220.019531"/>
     <use xlink:href="#DejaVuSans-6f" x="283.496094"/>
     <use xlink:href="#DejaVuSans-69" x="344.677734"/>
     <use xlink:href="#DejaVuSans-6e" x="372.460938"/>
     <use xlink:href="#DejaVuSans-74" x="435.839844"/>
     <use xlink:href="#DejaVuSans-35" x="475.048828"/>
     <use xlink:href="#DejaVuSans-20" x="538.671875"/>
     <use xlink:href="#DejaVuSans-44" x="570.458984"/>
     <use xlink:href="#DejaVuSans-69" x="647.460938"/>
     <use xlink:href="#DejaVuSans-73" x="675.244141"/>
     <use xlink:href="#DejaVuSans-74" x="727.34375"/>
     <use xlink:href="#DejaVuSans-72" x="766.552734"/>
     <use xlink:href="#DejaVuSans-69" x="807.666016"/>
     <use xlink:href="#DejaVuSans-62" x="835.449219"/>
     <use xlink:href="#DejaVuSans-75" x="898.925781"/>
     <use xlink:href="#DejaVuSans-74" x="962.304688"/>
     <use xlink:href="#DejaVuSans-69" x="1001.513672"/>
     <use xlink:href="#DejaVuSans-6f" x="1029.296875"/>
     <use xlink:href="#DejaVuSans-6e" x="1090.478516"/>
     <use xlink:href="#DejaVuSans-20" x="1153.857422"/>
     <use xlink:href="#DejaVuSans-28" x="1185.644531"/>
     <use xlink:href="#DejaVuSans-73" x="1224.658203"/>
     <use xlink:href="#DejaVuSans-63" x="1276.757812"/>
     <use xlink:href="#DejaVuSans-61" x="1331.738281"/>
     <use xlink:href="#DejaVuSans-6c" x="1393.017578"/>
     <use xlink:href="#DejaVuSans-65" x="1420.800781"/>
     <use xlink:href="#DejaVuSans-20" x="1482.324219"/>
     <use xlink:href="#DejaVuSans-3d" x="1514.111328"/>
     <use xlink:href="#DejaVuSans-20" x="1597.900391"/>
     <use xlink:href="#DejaVuSans-31" x="1629.6875"/>
     <use xlink:href="#DejaVuSans-29" x="1693.310547"/>
    </g>
   </g>
   <g id="legend_1">
    <g id="patch_7">
     <path d="M 616.353125 74.3525 
L 706.38125 74.3525 
Q 708.38125 74.3525 708.38125 72.3525 
L 708.38125 29.318125 
Q 708.38125 27.318125 706.38125 27.318125 
L 616.353125 27.318125 
Q 614.353125 27.318125 614.353125 29.318125 
L 614.353125 72.3525 
Q 614.353125 74.3525 616.353125 74.3525 
z
" style="fill: #ffffff; opacity: 0.8; stroke: #cccccc; stroke-linejoin: miter"/>
    </g>
    <g id="line2d_20">
     <path d="M 618.353125 35.416562 
L 628.353125 35.416562 
L 638.353125 35.416562 
" style="fill: none; stroke: #1f77b4; stroke-width: 1.5; stroke-linecap: square"/>
    </g>
    <g id="text_20">
     <!-- location=-2 -->
     <g transform="translate(646.353125 38.916562) scale(0.1 -0.1)">
      <defs>
       <path id="DejaVuSans-2d" d="M 313 2009 
L 1997 2009 
L 1997 1497 
L 313 1497 
L 313 2009 
z
" transform="scale(0.015625)"/>
      </defs>
      <use xlink:href="#DejaVuSans-6c"/>
      <use xlink:href="#DejaVuSans-6f" x="27.783203"/>
      <use xlink:href="#DejaVuSans-63" x="88.964844"/>
      <use xlink:href="#DejaVuSans-61" x="143.945312"/>
      <use xlink:href="#DejaVuSans-74" x="205.224609"/>
      <use xlink:href="#DejaVuSans-69" x="244.433594"/>
      <use xlink:href="#DejaVuSans-6f" x="272.216797"/>
      <use xlink:href="#DejaVuSans-6e" x="333.398438"/>
      <use xlink:href="#DejaVuSans-3d" x="396.777344"/>
      <use xlink:href="#DejaVuSans-2d" x="480.566406"/>
      <use xlink:href="#DejaVuSans-32" x="516.650391"/>
     </g>
    </g>
    <g id="line2d_21">
     <path d="M 618.353125 50.094687 
L 628.353125 50.094687 
L 638.353125 50.094687 
" style="fill: none; stroke: #ff7f0e; stroke-width: 1.5; stroke-linecap: square"/>
    </g>
    <g id="text_21">
     <!-- location=0 -->
     <g transform="translate(646.353125 53.594687) scale(0.1 -0.1)">
      <use xlink:href="#DejaVuSans-6c"/>
      <use xlink:href="#DejaVuSans-6f" x="27.783203"/>
      <use xlink:href="#DejaVuSans-63" x="88.964844"/>
      <use xlink:href="#DejaVuSans-61" x="143.945312"/>
      <use xlink:href="#DejaVuSans-74" x="205.224609"/>
      <use xlink:href="#DejaVuSans-69" x="244.433594"/>
      <use xlink:href="#DejaVuSans-6f" x="272.216797"/>
      <use xlink:href="#DejaVuSans-6e" x="333.398438"/>
      <use xlink:href="#DejaVuSans-3d" x="396.777344"/>
      <use xlink:href="#DejaVuSans-30" x="480.566406"/>
     </g>
    </g>
    <g id="line2d_22">
     <path d="M 618.353125 64.772812 
L 628.353125 64.772812 
L 638.353125 64.772812 
" style="fill: none; stroke: #2ca02c; stroke-width: 1.5; stroke-linecap: square"/>
    </g>
    <g id="text_22">
     <!-- location=2 -->
     <g transform="translate(646.353125 68.272812) scale(0.1 -0.1)">
      <use xlink:href="#DejaVuSans-6c"/>
      <use xlink:href="#DejaVuSans-6f" x="27.783203"/>
      <use xlink:href="#DejaVuSans-63" x="88.964844"/>
      <use xlink:href="#DejaVuSans-61" x="143.945312"/>
      <use xlink:href="#DejaVuSans-74" x="205.224609"/>
      <use xlink:href="#DejaVuSans-69" x="244.433594"/>
      <use xlink:href="#DejaVuSans-6f" x="272.216797"/>
      <use xlink:href="#DejaVuSans-6e" x="333.398438"/>
      <use xlink:href="#DejaVuSans-3d" x="396.777344"/>
      <use xlink:href="#DejaVuSans-32" x="480.566406"/>
     </g>
    </g>
   </g>
  </g>
 </g>
 <defs>
  <clipPath id="pec2569bed2">
   <rect x="43.78125" y="22.318125" width="669.6" height="332.64"/>
  </clipPath>
 </defs>
</svg>
