<?xml version="1.0" encoding="UTF-8" standalone="no"?>
<svg width="700" height ="400" version="1.1"
xmlns:svg ="http://www.w3.org/2000/svg"
xmlns:rdf="http://www.w3.org/1999/02/22-rdf-syntax-ns#"
xmlns:cc="http://web.resource.org/cc/"
xmlns:dc="http://purl.org/dc/elements/1.1/"
xmlns ="http://www.w3.org/2000/svg"
>
<!-- SVG plot written using Boost.Plot program (Creator Jacob Voytko) --> 
<!-- Use, modification and distribution of Boost.Plot subject to the --> 
<!-- Boost Software License, Version 1.0.--> 
<!-- (See accompanying file LICENSE_1_0.txt --> 
<!-- or copy at http://www.boost.org/LICENSE_1_0.txt) --> 

<clipPath id="plot_window"><rect x="42.1" y="48.5" width="654" height="297"/></clipPath>
<g id="imageBackground" stroke="rgb(211,211,211)" fill="rgb(255,255,255)" stroke-width="2"><rect x="0" y="0" width="700" height="400"/></g>
<g id="plotBackground" stroke="rgb(211,211,211)" fill="rgb(255,255,255)" stroke-width="2"><rect x="41.1" y="47.5" width="656" height="299"/></g>
<g id="yMinorGrid" stroke="rgb(200,220,255)" stroke-width="0.5"></g>
<g id="yMajorGrid" stroke="rgb(200,220,255)" stroke-width="1"></g>
<g id="xMinorGrid" stroke="rgb(200,220,255)" stroke-width="0.5"></g>
<g id="xMajorGrid" stroke="rgb(200,220,255)" stroke-width="1"></g>
<g id="yAxis" stroke="rgb(0,0,0)" stroke-width="1"><line x1="41.1" y1="47.5" x2="41.1" y2="352"/><line x1="41.1" y1="47.5" x2="41.1" y2="346"/></g>
<g id="xAxis" stroke="rgb(0,0,0)" stroke-width="1"><line x1="36.1" y1="197" x2="698" y2="197"/><line x1="36.1" y1="346" x2="698" y2="346"/></g>
<g id="yMinorTicks" stroke="rgb(0,0,0)" stroke-width="1"><path d="M39.1,191 L41.1,191 M39.1,185 L41.1,185 M39.1,179 L41.1,179 M39.1,173 L41.1,173 M39.1,161 L41.1,161 M39.1,155 L41.1,155 M39.1,149 L41.1,149 M39.1,143 L41.1,143 M39.1,131 L41.1,131 M39.1,125 L41.1,125 M39.1,119 L41.1,119 M39.1,113 L41.1,113 M39.1,101 L41.1,101 M39.1,95.3 L41.1,95.3 M39.1,89.4 L41.1,89.4 M39.1,83.4 L41.1,83.4 M39.1,71.4 L41.1,71.4 M39.1,65.4 L41.1,65.4 M39.1,59.5 L41.1,59.5 M39.1,53.5 L41.1,53.5 M39.1,197 L41.1,197 M39.1,203 L41.1,203 M39.1,209 L41.1,209 M39.1,215 L41.1,215 M39.1,221 L41.1,221 M39.1,227 L41.1,227 M39.1,233 L41.1,233 M39.1,239 L41.1,239 M39.1,245 L41.1,245 M39.1,251 L41.1,251 M39.1,257 L41.1,257 M39.1,257 L41.1,257 M39.1,263 L41.1,263 M39.1,269 L41.1,269 M39.1,275 L41.1,275 M39.1,281 L41.1,281 M39.1,287 L41.1,287 M39.1,293 L41.1,293 M39.1,299 L41.1,299 M39.1,305 L41.1,305 M39.1,311 L41.1,311 M39.1,317 L41.1,317 M39.1,323 L41.1,323 M39.1,329 L41.1,329 M39.1,335 L41.1,335 M39.1,341 L41.1,341 M39.1,346 L41.1,346 " fill="none"/></g>
<g id="xMinorTicks" stroke="rgb(0,0,0)" stroke-width="1"><path d="M49.9,346 L49.9,348 M58.6,346 L58.6,348 M67.4,346 L67.4,348 M76.1,346 L76.1,348 M93.6,346 L93.6,348 M102,346 L102,348 M111,346 L111,348 M120,346 L120,348 M137,346 L137,348 M146,346 L146,348 M155,346 L155,348 M164,346 L164,348 M181,346 L181,348 M190,346 L190,348 M199,346 L199,348 M207,346 L207,348 M225,346 L225,348 M234,346 L234,348 M242,346 L242,348 M251,346 L251,348 M269,346 L269,348 M277,346 L277,348 M286,346 L286,348 M295,346 L295,348 M312,346 L312,348 M321,346 L321,348 M330,346 L330,348 M339,346 L339,348 M356,346 L356,348 M365,346 L365,348 M374,346 L374,348 M382,346 L382,348 M400,346 L400,348 M409,346 L409,348 M417,346 L417,348 M426,346 L426,348 M444,346 L444,348 M452,346 L452,348 M461,346 L461,348 M470,346 L470,348 M487,346 L487,348 M496,346 L496,348 M505,346 L505,348 M514,346 L514,348 M531,346 L531,348 M540,346 L540,348 M549,346 L549,348 M557,346 L557,348 M575,346 L575,348 M584,346 L584,348 M592,346 L592,348 M601,346 L601,348 M619,346 L619,348 M627,346 L627,348 M636,346 L636,348 M645,346 L645,348 M662,346 L662,348 M671,346 L671,348 M680,346 L680,348 M689,346 L689,348 " fill="none"/></g>
<g id="yMajorTicks" stroke="rgb(0,0,0)" stroke-width="2"><path d="M36.1,197 L41.1,197 M36.1,167 L41.1,167 M36.1,137 L41.1,137 M36.1,107 L41.1,107 M36.1,77.4 L41.1,77.4 M36.1,47.5 L41.1,47.5 M36.1,197 L41.1,197 M36.1,227 L41.1,227 M36.1,257 L41.1,257 M36.1,287 L41.1,287 M36.1,317 L41.1,317 M36.1,346 L41.1,346 " fill="none"/></g>
<g id="xMajorTicks" stroke="rgb(0,0,0)" stroke-width="2"><path d="M41.1,346 L41.1,352 M84.9,346 L84.9,352 M129,346 L129,352 M172,346 L172,352 M216,346 L216,352 M260,346 L260,352 M304,346 L304,352 M347,346 L347,352 M391,346 L391,352 M435,346 L435,352 M479,346 L479,352 M522,346 L522,352 M566,346 L566,352 M610,346 L610,352 M654,346 L654,352 M697,346 L697,352 M41.1,346 L41.1,352 " fill="none"/></g>
<g id="xTicksValues">
<text x="41.1" y="367" text-anchor="middle" font-size="12" font-family="Lucida Sans Unicode">0</text>
<text x="84.9" y="367" text-anchor="middle" font-size="12" font-family="Lucida Sans Unicode">10</text>
<text x="129" y="367" text-anchor="middle" font-size="12" font-family="Lucida Sans Unicode">20</text>
<text x="172" y="367" text-anchor="middle" font-size="12" font-family="Lucida Sans Unicode">30</text>
<text x="216" y="367" text-anchor="middle" font-size="12" font-family="Lucida Sans Unicode">40</text>
<text x="260" y="367" text-anchor="middle" font-size="12" font-family="Lucida Sans Unicode">50</text>
<text x="304" y="367" text-anchor="middle" font-size="12" font-family="Lucida Sans Unicode">60</text>
<text x="347" y="367" text-anchor="middle" font-size="12" font-family="Lucida Sans Unicode">70</text>
<text x="391" y="367" text-anchor="middle" font-size="12" font-family="Lucida Sans Unicode">80</text>
<text x="435" y="367" text-anchor="middle" font-size="12" font-family="Lucida Sans Unicode">90</text>
<text x="479" y="367" text-anchor="middle" font-size="12" font-family="Lucida Sans Unicode">100</text>
<text x="522" y="367" text-anchor="middle" font-size="12" font-family="Lucida Sans Unicode">110</text>
<text x="566" y="367" text-anchor="middle" font-size="12" font-family="Lucida Sans Unicode">120</text>
<text x="610" y="367" text-anchor="middle" font-size="12" font-family="Lucida Sans Unicode">130</text>
<text x="654" y="367" text-anchor="middle" font-size="12" font-family="Lucida Sans Unicode">140</text>
<text x="697" y="367" text-anchor="middle" font-size="12" font-family="Lucida Sans Unicode">150</text>
<text x="41.1" y="367" text-anchor="middle" font-size="12" font-family="Lucida Sans Unicode">0</text></g>
<g id="yTicksValues">
<text x="30.1" y="199" text-anchor="end" font-size="12" font-family="Lucida Sans Unicode">0</text>
<text x="30.1" y="170" text-anchor="end" font-size="12" font-family="Lucida Sans Unicode">0.2</text>
<text x="30.1" y="140" text-anchor="end" font-size="12" font-family="Lucida Sans Unicode">0.4</text>
<text x="30.1" y="110" text-anchor="end" font-size="12" font-family="Lucida Sans Unicode">0.6</text>
<text x="30.1" y="79.8" text-anchor="end" font-size="12" font-family="Lucida Sans Unicode">0.8</text>
<text x="30.1" y="49.9" text-anchor="end" font-size="12" font-family="Lucida Sans Unicode">1</text>
<text x="30.1" y="199" text-anchor="end" font-size="12" font-family="Lucida Sans Unicode">0</text>
<text x="30.1" y="229" text-anchor="end" font-size="12" font-family="Lucida Sans Unicode">-0.2</text>
<text x="30.1" y="259" text-anchor="end" font-size="12" font-family="Lucida Sans Unicode">-0.4</text>
<text x="30.1" y="289" text-anchor="end" font-size="12" font-family="Lucida Sans Unicode">-0.6</text>
<text x="30.1" y="319" text-anchor="end" font-size="12" font-family="Lucida Sans Unicode">-0.8</text>
<text x="30.1" y="349" text-anchor="end" font-size="12" font-family="Lucida Sans Unicode">-1</text></g>
<g id="yLabel">
<text x="-8.6" y="197" text-anchor="middle" transform = "rotate(-90 -8.6 197 )" font-size="14" font-family="Lucida Sans Unicode"></text></g>
<g id="xLabel">
<text x="369" y="382" text-anchor="middle" font-size="14" font-family="Lucida Sans Unicode">x</text></g>
<g id="plotLines" stroke-width="2"><g clip-path="url(#plot_window)" stroke="rgb(0,0,0)" fill="rgb(0,128,0)" stroke-width="2"><path d="M41.1,197 L41.1,197 L41.1,197 L44.4,197 L47.7,197 L50.9,197 L54.2,197 L57.5,197 L60.8,197 L64.1,197 L67.4,197 L70.6,197 L73.9,197 L77.2,197 L80.5,197 L83.8,197 L87,197 L90.3,197 L93.6,197 L96.9,197 L100,197 L103,197 L107,197 L110,197 L113,197 L117,197 L120,197 L123,197 L126,197 L130,197 L133,197 L136,197 L140,197 L143,197 L146,197 L149,197 L153,197 L156,197 L159,197 L163,197 L166,197 L169,197 L172,112 L176,197 L179,197 L182,197 L186,197 L189,197 L192,197 L195,197 L199,197 L202,197 L205,197 L208,197 L212,197 L215,197 L218,197 L222,197 L225,54.7 L228,197 L231,197 L235,197 L238,197 L241,197 L245,197 L248,197 L251,197 L254,197 L258,197 L261,197 L264,197 L268,197 L271,197 L274,197 L277,197 L281,197 L284,197 L287,197 L291,197 L294,197 L297,197 L300,197 L304,197 L307,197 L310,197 L314,197 L317,197 L320,197 L323,197 L327,197 L330,197 L333,197 L336,197 L340,197 L343,197 L346,197 L350,197 L353,197 L356,197 L359,197 L363,197 L366,197 L369,197 L373,197 L376,197 L379,197 L382,197 L386,197 L389,197 L392,197 L396,197 L399,197 L402,197 L405,197 L409,197 L412,197 L415,197 L419,197 L422,197 L425,197 L428,197 L432,197 L435,197 L438,197 L442,197 L445,197 L448,197 L451,197 L455,197 L458,197 L461,197 L464,197 L468,197 L471,197 L474,197 L478,197 L481,197 L484,197 L487,197 L491,197 L494,197 L497,197 L501,197 L504,197 L507,197 L510,197 L514,197 L517,197 L520,197 L524,197 L527,197 L530,197 L533,197 L537,197 L540,197 L543,197 L547,197 L550,197 L553,197 L556,197 L560,197 L563,197 L566,197 L570,197 L573,197 L576,197 L579,197 L583,197 L586,197 L589,197 L592,197 L596,197 L599,197 L602,197 L606,197 L609,197 L612,197 L615,197 L619,197 L622,72.2 L625,197 L629,197 L632,197 L635,197 L638,197 L642,197 L645,197 L648,197 L652,197 L655,197 L658,197 L661,197 L665,197 L668,197 L671,197 L675,197 L678,197 L681,197 L684,197 L688,197 L691,197 L694,197 L694,197 Z" fill="rgb(0,128,0)"/></g>
<g clip-path="url(#plot_window)" stroke="rgb(0,0,0)" fill="rgb(0,128,0)" stroke-width="2"><path d="M41.1,197 L41.1,197 L41.1,197 L44.4,197 L47.7,197 L50.9,197 L54.2,197 L57.5,197 L60.8,197 L64.1,197 L67.4,345 L70.6,197 L73.9,197 L77.2,197 L80.5,197 L83.8,197 L87,197 L90.3,197 L93.6,197 L96.9,197 L100,197 L103,197 L107,197 L110,197 L113,197 L117,197 L120,197 L123,197 L126,197 L130,197 L133,197 L136,197 L140,197 L143,197 L146,197 L149,197 L153,197 L156,197 L159,197 L163,197 L166,197 L169,197 L172,197 L176,197 L179,197 L182,197 L186,197 L189,197 L192,197 L195,197 L199,197 L202,197 L205,197 L208,197 L212,197 L215,197 L218,197 L222,197 L225,197 L228,197 L231,197 L235,197 L238,197 L241,197 L245,197 L248,197 L251,197 L254,197 L258,197 L261,197 L264,197 L268,197 L271,197 L274,197 L277,197 L281,197 L284,197 L287,197 L291,197 L294,197 L297,197 L300,197 L304,197 L307,197 L310,197 L314,197 L317,197 L320,197 L323,197 L327,197 L330,197 L333,197 L336,197 L340,197 L343,197 L346,197 L350,197 L353,197 L356,197 L359,197 L363,197 L366,197 L369,197 L373,197 L376,197 L379,197 L382,197 L386,197 L389,197 L392,197 L396,197 L399,197 L402,197 L405,197 L409,197 L412,197 L415,197 L419,197 L422,197 L425,197 L428,197 L432,197 L435,197 L438,197 L442,197 L445,197 L448,197 L451,197 L455,197 L458,197 L461,197 L464,197 L468,197 L471,197 L474,197 L478,197 L481,197 L484,197 L487,197 L491,197 L494,197 L497,197 L501,197 L504,197 L507,197 L510,197 L514,197 L517,197 L520,197 L524,197 L527,197 L530,197 L533,197 L537,197 L540,197 L543,197 L547,197 L550,197 L553,197 L556,197 L560,197 L563,197 L566,197 L570,197 L573,197 L576,197 L579,197 L583,197 L586,197 L589,197 L592,197 L596,197 L599,197 L602,197 L606,197 L609,197 L612,197 L615,197 L619,197 L622,197 L625,197 L629,197 L632,197 L635,197 L638,197 L642,197 L645,197 L648,197 L652,197 L655,197 L658,197 L661,197 L665,197 L668,197 L671,197 L675,197 L678,197 L681,197 L684,197 L688,197 L691,197 L694,197 L694,197 Z" fill="rgb(0,128,0)"/></g>
</g>
<g id="plotPoints" clip-path="url(#plot_window)"><g stroke="rgb(0,128,0)" fill="rgb(0,128,0)"><circle cx="44.4" cy="197" r="0"/><circle cx="47.7" cy="197" r="0"/><circle cx="50.9" cy="197" r="0"/><circle cx="54.2" cy="197" r="0"/><circle cx="57.5" cy="197" r="0"/><circle cx="60.8" cy="197" r="0"/><circle cx="64.1" cy="197" r="0"/><circle cx="67.4" cy="197" r="0"/><circle cx="70.6" cy="197" r="0"/><circle cx="73.9" cy="197" r="0"/><circle cx="77.2" cy="197" r="0"/><circle cx="80.5" cy="197" r="0"/><circle cx="83.8" cy="197" r="0"/><circle cx="87" cy="197" r="0"/><circle cx="90.3" cy="197" r="0"/><circle cx="93.6" cy="197" r="0"/><circle cx="96.9" cy="197" r="0"/><circle cx="100" cy="197" r="0"/><circle cx="103" cy="197" r="0"/><circle cx="107" cy="197" r="0"/><circle cx="110" cy="197" r="0"/><circle cx="113" cy="197" r="0"/><circle cx="117" cy="197" r="0"/><circle cx="120" cy="197" r="0"/><circle cx="123" cy="197" r="0"/><circle cx="126" cy="197" r="0"/><circle cx="130" cy="197" r="0"/><circle cx="133" cy="197" r="0"/><circle cx="136" cy="197" r="0"/><circle cx="140" cy="197" r="0"/><circle cx="143" cy="197" r="0"/><circle cx="146" cy="197" r="0"/><circle cx="149" cy="197" r="0"/><circle cx="153" cy="197" r="0"/><circle cx="156" cy="197" r="0"/><circle cx="159" cy="197" r="0"/><circle cx="163" cy="197" r="0"/><circle cx="166" cy="197" r="0"/><circle cx="169" cy="197" r="0"/><circle cx="172" cy="112" r="0"/><circle cx="176" cy="197" r="0"/><circle cx="179" cy="197" r="0"/><circle cx="182" cy="197" r="0"/><circle cx="186" cy="197" r="0"/><circle cx="189" cy="197" r="0"/><circle cx="192" cy="197" r="0"/><circle cx="195" cy="197" r="0"/><circle cx="199" cy="197" r="0"/><circle cx="202" cy="197" r="0"/><circle cx="205" cy="197" r="0"/><circle cx="208" cy="197" r="0"/><circle cx="212" cy="197" r="0"/><circle cx="215" cy="197" r="0"/><circle cx="218" cy="197" r="0"/><circle cx="222" cy="197" r="0"/><circle cx="225" cy="54.7" r="0"/><circle cx="228" cy="197" r="0"/><circle cx="231" cy="197" r="0"/><circle cx="235" cy="197" r="0"/><circle cx="238" cy="197" r="0"/><circle cx="241" cy="197" r="0"/><circle cx="245" cy="197" r="0"/><circle cx="248" cy="197" r="0"/><circle cx="251" cy="197" r="0"/><circle cx="254" cy="197" r="0"/><circle cx="258" cy="197" r="0"/><circle cx="261" cy="197" r="0"/><circle cx="264" cy="197" r="0"/><circle cx="268" cy="197" r="0"/><circle cx="271" cy="197" r="0"/><circle cx="274" cy="197" r="0"/><circle cx="277" cy="197" r="0"/><circle cx="281" cy="197" r="0"/><circle cx="284" cy="197" r="0"/><circle cx="287" cy="197" r="0"/><circle cx="291" cy="197" r="0"/><circle cx="294" cy="197" r="0"/><circle cx="297" cy="197" r="0"/><circle cx="300" cy="197" r="0"/><circle cx="304" cy="197" r="0"/><circle cx="307" cy="197" r="0"/><circle cx="310" cy="197" r="0"/><circle cx="314" cy="197" r="0"/><circle cx="317" cy="197" r="0"/><circle cx="320" cy="197" r="0"/><circle cx="323" cy="197" r="0"/><circle cx="327" cy="197" r="0"/><circle cx="330" cy="197" r="0"/><circle cx="333" cy="197" r="0"/><circle cx="336" cy="197" r="0"/><circle cx="340" cy="197" r="0"/><circle cx="343" cy="197" r="0"/><circle cx="346" cy="197" r="0"/><circle cx="350" cy="197" r="0"/><circle cx="353" cy="197" r="0"/><circle cx="356" cy="197" r="0"/><circle cx="359" cy="197" r="0"/><circle cx="363" cy="197" r="0"/><circle cx="366" cy="197" r="0"/><circle cx="369" cy="197" r="0"/><circle cx="373" cy="197" r="0"/><circle cx="376" cy="197" r="0"/><circle cx="379" cy="197" r="0"/><circle cx="382" cy="197" r="0"/><circle cx="386" cy="197" r="0"/><circle cx="389" cy="197" r="0"/><circle cx="392" cy="197" r="0"/><circle cx="396" cy="197" r="0"/><circle cx="399" cy="197" r="0"/><circle cx="402" cy="197" r="0"/><circle cx="405" cy="197" r="0"/><circle cx="409" cy="197" r="0"/><circle cx="412" cy="197" r="0"/><circle cx="415" cy="197" r="0"/><circle cx="419" cy="197" r="0"/><circle cx="422" cy="197" r="0"/><circle cx="425" cy="197" r="0"/><circle cx="428" cy="197" r="0"/><circle cx="432" cy="197" r="0"/><circle cx="435" cy="197" r="0"/><circle cx="438" cy="197" r="0"/><circle cx="442" cy="197" r="0"/><circle cx="445" cy="197" r="0"/><circle cx="448" cy="197" r="0"/><circle cx="451" cy="197" r="0"/><circle cx="455" cy="197" r="0"/><circle cx="458" cy="197" r="0"/><circle cx="461" cy="197" r="0"/><circle cx="464" cy="197" r="0"/><circle cx="468" cy="197" r="0"/><circle cx="471" cy="197" r="0"/><circle cx="474" cy="197" r="0"/><circle cx="478" cy="197" r="0"/><circle cx="481" cy="197" r="0"/><circle cx="484" cy="197" r="0"/><circle cx="487" cy="197" r="0"/><circle cx="491" cy="197" r="0"/><circle cx="494" cy="197" r="0"/><circle cx="497" cy="197" r="0"/><circle cx="501" cy="197" r="0"/><circle cx="504" cy="197" r="0"/><circle cx="507" cy="197" r="0"/><circle cx="510" cy="197" r="0"/><circle cx="514" cy="197" r="0"/><circle cx="517" cy="197" r="0"/><circle cx="520" cy="197" r="0"/><circle cx="524" cy="197" r="0"/><circle cx="527" cy="197" r="0"/><circle cx="530" cy="197" r="0"/><circle cx="533" cy="197" r="0"/><circle cx="537" cy="197" r="0"/><circle cx="540" cy="197" r="0"/><circle cx="543" cy="197" r="0"/><circle cx="547" cy="197" r="0"/><circle cx="550" cy="197" r="0"/><circle cx="553" cy="197" r="0"/><circle cx="556" cy="197" r="0"/><circle cx="560" cy="197" r="0"/><circle cx="563" cy="197" r="0"/><circle cx="566" cy="197" r="0"/><circle cx="570" cy="197" r="0"/><circle cx="573" cy="197" r="0"/><circle cx="576" cy="197" r="0"/><circle cx="579" cy="197" r="0"/><circle cx="583" cy="197" r="0"/><circle cx="586" cy="197" r="0"/><circle cx="589" cy="197" r="0"/><circle cx="592" cy="197" r="0"/><circle cx="596" cy="197" r="0"/><circle cx="599" cy="197" r="0"/><circle cx="602" cy="197" r="0"/><circle cx="606" cy="197" r="0"/><circle cx="609" cy="197" r="0"/><circle cx="612" cy="197" r="0"/><circle cx="615" cy="197" r="0"/><circle cx="619" cy="197" r="0"/><circle cx="622" cy="72.2" r="0"/><circle cx="625" cy="197" r="0"/><circle cx="629" cy="197" r="0"/><circle cx="632" cy="197" r="0"/><circle cx="635" cy="197" r="0"/><circle cx="638" cy="197" r="0"/><circle cx="642" cy="197" r="0"/><circle cx="645" cy="197" r="0"/><circle cx="648" cy="197" r="0"/><circle cx="652" cy="197" r="0"/><circle cx="655" cy="197" r="0"/><circle cx="658" cy="197" r="0"/><circle cx="661" cy="197" r="0"/><circle cx="665" cy="197" r="0"/><circle cx="668" cy="197" r="0"/><circle cx="671" cy="197" r="0"/><circle cx="675" cy="197" r="0"/><circle cx="678" cy="197" r="0"/><circle cx="681" cy="197" r="0"/><circle cx="684" cy="197" r="0"/><circle cx="688" cy="197" r="0"/><circle cx="691" cy="197" r="0"/><circle cx="694" cy="197" r="0"/></g>
<g stroke="rgb(0,128,0)" fill="rgb(0,128,0)"><circle cx="44.4" cy="197" r="0"/><circle cx="47.7" cy="197" r="0"/><circle cx="50.9" cy="197" r="0"/><circle cx="54.2" cy="197" r="0"/><circle cx="57.5" cy="197" r="0"/><circle cx="60.8" cy="197" r="0"/><circle cx="64.1" cy="197" r="0"/><circle cx="67.4" cy="345" r="0"/><circle cx="70.6" cy="197" r="0"/><circle cx="73.9" cy="197" r="0"/><circle cx="77.2" cy="197" r="0"/><circle cx="80.5" cy="197" r="0"/><circle cx="83.8" cy="197" r="0"/><circle cx="87" cy="197" r="0"/><circle cx="90.3" cy="197" r="0"/><circle cx="93.6" cy="197" r="0"/><circle cx="96.9" cy="197" r="0"/><circle cx="100" cy="197" r="0"/><circle cx="103" cy="197" r="0"/><circle cx="107" cy="197" r="0"/><circle cx="110" cy="197" r="0"/><circle cx="113" cy="197" r="0"/><circle cx="117" cy="197" r="0"/><circle cx="120" cy="197" r="0"/><circle cx="123" cy="197" r="0"/><circle cx="126" cy="197" r="0"/><circle cx="130" cy="197" r="0"/><circle cx="133" cy="197" r="0"/><circle cx="136" cy="197" r="0"/><circle cx="140" cy="197" r="0"/><circle cx="143" cy="197" r="0"/><circle cx="146" cy="197" r="0"/><circle cx="149" cy="197" r="0"/><circle cx="153" cy="197" r="0"/><circle cx="156" cy="197" r="0"/><circle cx="159" cy="197" r="0"/><circle cx="163" cy="197" r="0"/><circle cx="166" cy="197" r="0"/><circle cx="169" cy="197" r="0"/><circle cx="172" cy="197" r="0"/><circle cx="176" cy="197" r="0"/><circle cx="179" cy="197" r="0"/><circle cx="182" cy="197" r="0"/><circle cx="186" cy="197" r="0"/><circle cx="189" cy="197" r="0"/><circle cx="192" cy="197" r="0"/><circle cx="195" cy="197" r="0"/><circle cx="199" cy="197" r="0"/><circle cx="202" cy="197" r="0"/><circle cx="205" cy="197" r="0"/><circle cx="208" cy="197" r="0"/><circle cx="212" cy="197" r="0"/><circle cx="215" cy="197" r="0"/><circle cx="218" cy="197" r="0"/><circle cx="222" cy="197" r="0"/><circle cx="225" cy="197" r="0"/><circle cx="228" cy="197" r="0"/><circle cx="231" cy="197" r="0"/><circle cx="235" cy="197" r="0"/><circle cx="238" cy="197" r="0"/><circle cx="241" cy="197" r="0"/><circle cx="245" cy="197" r="0"/><circle cx="248" cy="197" r="0"/><circle cx="251" cy="197" r="0"/><circle cx="254" cy="197" r="0"/><circle cx="258" cy="197" r="0"/><circle cx="261" cy="197" r="0"/><circle cx="264" cy="197" r="0"/><circle cx="268" cy="197" r="0"/><circle cx="271" cy="197" r="0"/><circle cx="274" cy="197" r="0"/><circle cx="277" cy="197" r="0"/><circle cx="281" cy="197" r="0"/><circle cx="284" cy="197" r="0"/><circle cx="287" cy="197" r="0"/><circle cx="291" cy="197" r="0"/><circle cx="294" cy="197" r="0"/><circle cx="297" cy="197" r="0"/><circle cx="300" cy="197" r="0"/><circle cx="304" cy="197" r="0"/><circle cx="307" cy="197" r="0"/><circle cx="310" cy="197" r="0"/><circle cx="314" cy="197" r="0"/><circle cx="317" cy="197" r="0"/><circle cx="320" cy="197" r="0"/><circle cx="323" cy="197" r="0"/><circle cx="327" cy="197" r="0"/><circle cx="330" cy="197" r="0"/><circle cx="333" cy="197" r="0"/><circle cx="336" cy="197" r="0"/><circle cx="340" cy="197" r="0"/><circle cx="343" cy="197" r="0"/><circle cx="346" cy="197" r="0"/><circle cx="350" cy="197" r="0"/><circle cx="353" cy="197" r="0"/><circle cx="356" cy="197" r="0"/><circle cx="359" cy="197" r="0"/><circle cx="363" cy="197" r="0"/><circle cx="366" cy="197" r="0"/><circle cx="369" cy="197" r="0"/><circle cx="373" cy="197" r="0"/><circle cx="376" cy="197" r="0"/><circle cx="379" cy="197" r="0"/><circle cx="382" cy="197" r="0"/><circle cx="386" cy="197" r="0"/><circle cx="389" cy="197" r="0"/><circle cx="392" cy="197" r="0"/><circle cx="396" cy="197" r="0"/><circle cx="399" cy="197" r="0"/><circle cx="402" cy="197" r="0"/><circle cx="405" cy="197" r="0"/><circle cx="409" cy="197" r="0"/><circle cx="412" cy="197" r="0"/><circle cx="415" cy="197" r="0"/><circle cx="419" cy="197" r="0"/><circle cx="422" cy="197" r="0"/><circle cx="425" cy="197" r="0"/><circle cx="428" cy="197" r="0"/><circle cx="432" cy="197" r="0"/><circle cx="435" cy="197" r="0"/><circle cx="438" cy="197" r="0"/><circle cx="442" cy="197" r="0"/><circle cx="445" cy="197" r="0"/><circle cx="448" cy="197" r="0"/><circle cx="451" cy="197" r="0"/><circle cx="455" cy="197" r="0"/><circle cx="458" cy="197" r="0"/><circle cx="461" cy="197" r="0"/><circle cx="464" cy="197" r="0"/><circle cx="468" cy="197" r="0"/><circle cx="471" cy="197" r="0"/><circle cx="474" cy="197" r="0"/><circle cx="478" cy="197" r="0"/><circle cx="481" cy="197" r="0"/><circle cx="484" cy="197" r="0"/><circle cx="487" cy="197" r="0"/><circle cx="491" cy="197" r="0"/><circle cx="494" cy="197" r="0"/><circle cx="497" cy="197" r="0"/><circle cx="501" cy="197" r="0"/><circle cx="504" cy="197" r="0"/><circle cx="507" cy="197" r="0"/><circle cx="510" cy="197" r="0"/><circle cx="514" cy="197" r="0"/><circle cx="517" cy="197" r="0"/><circle cx="520" cy="197" r="0"/><circle cx="524" cy="197" r="0"/><circle cx="527" cy="197" r="0"/><circle cx="530" cy="197" r="0"/><circle cx="533" cy="197" r="0"/><circle cx="537" cy="197" r="0"/><circle cx="540" cy="197" r="0"/><circle cx="543" cy="197" r="0"/><circle cx="547" cy="197" r="0"/><circle cx="550" cy="197" r="0"/><circle cx="553" cy="197" r="0"/><circle cx="556" cy="197" r="0"/><circle cx="560" cy="197" r="0"/><circle cx="563" cy="197" r="0"/><circle cx="566" cy="197" r="0"/><circle cx="570" cy="197" r="0"/><circle cx="573" cy="197" r="0"/><circle cx="576" cy="197" r="0"/><circle cx="579" cy="197" r="0"/><circle cx="583" cy="197" r="0"/><circle cx="586" cy="197" r="0"/><circle cx="589" cy="197" r="0"/><circle cx="592" cy="197" r="0"/><circle cx="596" cy="197" r="0"/><circle cx="599" cy="197" r="0"/><circle cx="602" cy="197" r="0"/><circle cx="606" cy="197" r="0"/><circle cx="609" cy="197" r="0"/><circle cx="612" cy="197" r="0"/><circle cx="615" cy="197" r="0"/><circle cx="619" cy="197" r="0"/><circle cx="622" cy="197" r="0"/><circle cx="625" cy="197" r="0"/><circle cx="629" cy="197" r="0"/><circle cx="632" cy="197" r="0"/><circle cx="635" cy="197" r="0"/><circle cx="638" cy="197" r="0"/><circle cx="642" cy="197" r="0"/><circle cx="645" cy="197" r="0"/><circle cx="648" cy="197" r="0"/><circle cx="652" cy="197" r="0"/><circle cx="655" cy="197" r="0"/><circle cx="658" cy="197" r="0"/><circle cx="661" cy="197" r="0"/><circle cx="665" cy="197" r="0"/><circle cx="668" cy="197" r="0"/><circle cx="671" cy="197" r="0"/><circle cx="675" cy="197" r="0"/><circle cx="678" cy="197" r="0"/><circle cx="681" cy="197" r="0"/><circle cx="684" cy="197" r="0"/><circle cx="688" cy="197" r="0"/><circle cx="691" cy="197" r="0"/><circle cx="694" cy="197" r="0"/></g>
</g>
<g id="title">
<text x="350" y="36" text-anchor="middle" font-size="18" font-family="Lucida Sans Unicode">Errors in tgamma, double</text></g>
<g id="plotXValues"></g>
<g id="plotYValues"></g>
</svg>
