<?xml version="1.0" encoding="UTF-8" standalone="no"?>
<svg width="700" height ="400" version="1.1"
xmlns:svg ="http://www.w3.org/2000/svg"
xmlns:rdf="http://www.w3.org/1999/02/22-rdf-syntax-ns#"
xmlns:cc="http://web.resource.org/cc/"
xmlns:dc="http://purl.org/dc/elements/1.1/"
xmlns ="http://www.w3.org/2000/svg"
>
<!-- SVG plot written using Boost.Plot program (Creator Jacob Voytko) --> 
<!-- Use, modification and distribution of Boost.Plot subject to the --> 
<!-- Boost Software License, Version 1.0.--> 
<!-- (See accompanying file LICENSE_1_0.txt --> 
<!-- or copy at http://www.boost.org/LICENSE_1_0.txt) --> 

<clipPath id="plot_window"><rect x="25.3" y="48.5" width="671" height="297"/></clipPath>
<g id="imageBackground" stroke="rgb(211,211,211)" fill="rgb(255,255,255)" stroke-width="2"><rect x="0" y="0" width="700" height="400"/></g>
<g id="plotBackground" stroke="rgb(211,211,211)" fill="rgb(255,255,255)" stroke-width="2"><rect x="24.3" y="47.5" width="673" height="299"/></g>
<g id="yMinorGrid" stroke="rgb(200,220,255)" stroke-width="0.5"></g>
<g id="yMajorGrid" stroke="rgb(200,220,255)" stroke-width="1"></g>
<g id="xMinorGrid" stroke="rgb(200,220,255)" stroke-width="0.5"></g>
<g id="xMajorGrid" stroke="rgb(200,220,255)" stroke-width="1"></g>
<g id="yAxis" stroke="rgb(0,0,0)" stroke-width="1"><line x1="24.3" y1="47.5" x2="24.3" y2="352"/><line x1="24.3" y1="47.5" x2="24.3" y2="346"/></g>
<g id="xAxis" stroke="rgb(0,0,0)" stroke-width="1"><line x1="19.3" y1="227" x2="698" y2="227"/><line x1="19.3" y1="346" x2="698" y2="346"/></g>
<g id="yMinorTicks" stroke="rgb(0,0,0)" stroke-width="1"><path d="M22.3,203 L24.3,203 M22.3,179 L24.3,179 M22.3,155 L24.3,155 M22.3,131 L24.3,131 M22.3,83.4 L24.3,83.4 M22.3,59.5 L24.3,59.5 M22.3,227 L24.3,227 M22.3,251 L24.3,251 M22.3,275 L24.3,275 M22.3,299 L24.3,299 M22.3,323 L24.3,323 M22.3,346 L24.3,346 " fill="none"/></g>
<g id="xMinorTicks" stroke="rgb(0,0,0)" stroke-width="1"><path d="M51.2,346 L51.2,348 M78.2,346 L78.2,348 M105,346 L105,348 M132,346 L132,348 M186,346 L186,348 M213,346 L213,348 M240,346 L240,348 M267,346 L267,348 M321,346 L321,348 M347,346 L347,348 M374,346 L374,348 M401,346 L401,348 M455,346 L455,348 M482,346 L482,348 M509,346 L509,348 M536,346 L536,348 M590,346 L590,348 M617,346 L617,348 M644,346 L644,348 M671,346 L671,348 " fill="none"/></g>
<g id="yMajorTicks" stroke="rgb(0,0,0)" stroke-width="2"><path d="M19.3,227 L24.3,227 M19.3,107 L24.3,107 M19.3,227 L24.3,227 M19.3,346 L24.3,346 " fill="none"/></g>
<g id="xMajorTicks" stroke="rgb(0,0,0)" stroke-width="2"><path d="M24.3,346 L24.3,352 M159,346 L159,352 M294,346 L294,352 M428,346 L428,352 M563,346 L563,352 M698,346 L698,352 M24.3,346 L24.3,352 " fill="none"/></g>
<g id="xTicksValues">
<text x="24.3" y="367" text-anchor="middle" font-size="12" font-family="Lucida Sans Unicode">0</text>
<text x="159" y="367" text-anchor="middle" font-size="12" font-family="Lucida Sans Unicode">10</text>
<text x="294" y="367" text-anchor="middle" font-size="12" font-family="Lucida Sans Unicode">20</text>
<text x="428" y="367" text-anchor="middle" font-size="12" font-family="Lucida Sans Unicode">30</text>
<text x="563" y="367" text-anchor="middle" font-size="12" font-family="Lucida Sans Unicode">40</text>
<text x="698" y="367" text-anchor="middle" font-size="12" font-family="Lucida Sans Unicode">50</text>
<text x="24.3" y="367" text-anchor="middle" font-size="12" font-family="Lucida Sans Unicode">0</text></g>
<g id="yTicksValues">
<text x="13.3" y="229" text-anchor="end" font-size="12" font-family="Lucida Sans Unicode">0</text>
<text x="13.3" y="110" text-anchor="end" font-size="12" font-family="Lucida Sans Unicode">2</text>
<text x="13.3" y="229" text-anchor="end" font-size="12" font-family="Lucida Sans Unicode">0</text>
<text x="13.3" y="349" text-anchor="end" font-size="12" font-family="Lucida Sans Unicode">-2</text></g>
<g id="yLabel">
<text x="-8.6" y="197" text-anchor="middle" transform = "rotate(-90 -8.6 197 )" font-size="14" font-family="Lucida Sans Unicode"></text></g>
<g id="xLabel">
<text x="361" y="382" text-anchor="middle" font-size="14" font-family="Lucida Sans Unicode">x</text></g>
<g id="plotLines" stroke-width="2"><g clip-path="url(#plot_window)" stroke="rgb(0,0,0)" fill="rgb(0,128,0)" stroke-width="2"><path d="M24.3,227 L24.3,227 L24.3,227 L27.7,227 L31,227 L34.4,227 L37.8,227 L41.1,227 L44.5,227 L47.9,227 L51.2,227 L54.6,167 L58,227 L61.3,227 L64.7,227 L68.1,227 L71.4,227 L74.8,227 L78.2,227 L81.5,227 L84.9,227 L88.3,227 L91.6,227 L95,227 L98.4,227 L102,227 L105,227 L108,227 L112,227 L115,227 L119,227 L122,227 L125,184 L129,227 L132,227 L135,170 L139,227 L142,227 L145,227 L149,227 L152,227 L156,186 L159,175 L162,227 L166,227 L169,227 L172,227 L176,227 L179,194 L183,227 L186,227 L189,227 L193,227 L196,227 L199,227 L203,227 L206,227 L209,227 L213,227 L216,227 L220,227 L223,227 L226,227 L230,227 L233,227 L236,227 L240,227 L243,227 L246,227 L250,227 L253,227 L257,227 L260,227 L263,227 L267,227 L270,227 L273,181 L277,227 L280,227 L283,227 L287,227 L290,227 L294,227 L297,227 L300,227 L304,227 L307,227 L310,227 L314,227 L317,227 L321,184 L324,227 L327,197 L331,184 L334,227 L337,227 L341,227 L344,227 L347,227 L351,227 L354,227 L358,227 L361,227 L364,227 L368,227 L371,227 L374,227 L378,227 L381,227 L384,227 L388,227 L391,227 L395,227 L398,227 L401,227 L405,227 L408,227 L411,227 L415,227 L418,227 L421,227 L425,227 L428,227 L432,227 L435,175 L438,227 L442,227 L445,227 L448,168 L452,227 L455,67.9 L459,227 L462,227 L465,227 L469,227 L472,227 L475,227 L479,227 L482,227 L485,227 L489,227 L492,227 L496,227 L499,227 L502,191 L506,227 L509,227 L512,227 L516,227 L519,227 L522,227 L526,196 L529,191 L533,227 L536,190 L539,227 L543,227 L546,227 L549,227 L553,227 L556,227 L559,227 L563,227 L566,227 L570,227 L573,227 L576,227 L580,227 L583,227 L586,227 L590,227 L593,227 L597,227 L600,195 L603,227 L607,227 L610,227 L613,227 L617,227 L620,227 L623,227 L627,227 L630,227 L634,227 L637,227 L640,227 L644,227 L647,227 L650,227 L654,227 L657,227 L660,227 L664,227 L667,194 L671,227 L674,227 L677,227 L681,227 L684,227 L687,227 L691,227 L694,227 L694,227 Z" fill="rgb(0,128,0)"/></g>
<g clip-path="url(#plot_window)" stroke="rgb(0,0,0)" fill="rgb(0,128,0)" stroke-width="2"><path d="M24.3,227 L24.3,227 L24.3,227 L27.7,227 L31,227 L34.4,227 L37.8,227 L41.1,267 L44.5,227 L47.9,227 L51.2,227 L54.6,227 L58,227 L61.3,266 L64.7,227 L68.1,227 L71.4,227 L74.8,227 L78.2,227 L81.5,227 L84.9,227 L88.3,227 L91.6,227 L95,227 L98.4,227 L102,227 L105,227 L108,227 L112,227 L115,227 L119,227 L122,227 L125,227 L129,227 L132,227 L135,227 L139,227 L142,227 L145,227 L149,227 L152,227 L156,227 L159,227 L162,227 L166,227 L169,227 L172,227 L176,227 L179,227 L183,227 L186,227 L189,227 L193,227 L196,261 L199,264 L203,288 L206,227 L209,227 L213,227 L216,227 L220,227 L223,227 L226,227 L230,227 L233,273 L236,227 L240,227 L243,260 L246,267 L250,227 L253,227 L257,227 L260,227 L263,227 L267,227 L270,227 L273,227 L277,227 L280,227 L283,227 L287,258 L290,227 L294,227 L297,227 L300,227 L304,227 L307,227 L310,227 L314,227 L317,227 L321,227 L324,227 L327,227 L331,227 L334,227 L337,227 L341,227 L344,227 L347,227 L351,227 L354,227 L358,227 L361,227 L364,227 L368,227 L371,273 L374,227 L378,227 L381,227 L384,227 L388,227 L391,227 L395,227 L398,227 L401,227 L405,227 L408,227 L411,227 L415,260 L418,227 L421,227 L425,227 L428,227 L432,227 L435,227 L438,227 L442,227 L445,227 L448,227 L452,227 L455,227 L459,227 L462,227 L465,266 L469,227 L472,227 L475,227 L479,282 L482,227 L485,227 L489,227 L492,227 L496,282 L499,286 L502,227 L506,227 L509,227 L512,227 L516,227 L519,227 L522,227 L526,227 L529,227 L533,227 L536,227 L539,227 L543,227 L546,273 L549,227 L553,227 L556,227 L559,227 L563,227 L566,227 L570,227 L573,227 L576,227 L580,227 L583,227 L586,227 L590,227 L593,227 L597,227 L600,227 L603,227 L607,227 L610,227 L613,227 L617,227 L620,227 L623,227 L627,227 L630,227 L634,227 L637,227 L640,227 L644,227 L647,227 L650,227 L654,227 L657,227 L660,227 L664,227 L667,227 L671,227 L674,227 L677,227 L681,227 L684,263 L687,227 L691,227 L694,227 L694,227 Z" fill="rgb(0,128,0)"/></g>
</g>
<g id="plotPoints" clip-path="url(#plot_window)"><g stroke="rgb(0,128,0)" fill="rgb(0,128,0)"><circle cx="27.7" cy="227" r="0"/><circle cx="31" cy="227" r="0"/><circle cx="34.4" cy="227" r="0"/><circle cx="37.8" cy="227" r="0"/><circle cx="41.1" cy="227" r="0"/><circle cx="44.5" cy="227" r="0"/><circle cx="47.9" cy="227" r="0"/><circle cx="51.2" cy="227" r="0"/><circle cx="54.6" cy="167" r="0"/><circle cx="58" cy="227" r="0"/><circle cx="61.3" cy="227" r="0"/><circle cx="64.7" cy="227" r="0"/><circle cx="68.1" cy="227" r="0"/><circle cx="71.4" cy="227" r="0"/><circle cx="74.8" cy="227" r="0"/><circle cx="78.2" cy="227" r="0"/><circle cx="81.5" cy="227" r="0"/><circle cx="84.9" cy="227" r="0"/><circle cx="88.3" cy="227" r="0"/><circle cx="91.6" cy="227" r="0"/><circle cx="95" cy="227" r="0"/><circle cx="98.4" cy="227" r="0"/><circle cx="102" cy="227" r="0"/><circle cx="105" cy="227" r="0"/><circle cx="108" cy="227" r="0"/><circle cx="112" cy="227" r="0"/><circle cx="115" cy="227" r="0"/><circle cx="119" cy="227" r="0"/><circle cx="122" cy="227" r="0"/><circle cx="125" cy="184" r="0"/><circle cx="129" cy="227" r="0"/><circle cx="132" cy="227" r="0"/><circle cx="135" cy="170" r="0"/><circle cx="139" cy="227" r="0"/><circle cx="142" cy="227" r="0"/><circle cx="145" cy="227" r="0"/><circle cx="149" cy="227" r="0"/><circle cx="152" cy="227" r="0"/><circle cx="156" cy="186" r="0"/><circle cx="159" cy="175" r="0"/><circle cx="162" cy="227" r="0"/><circle cx="166" cy="227" r="0"/><circle cx="169" cy="227" r="0"/><circle cx="172" cy="227" r="0"/><circle cx="176" cy="227" r="0"/><circle cx="179" cy="194" r="0"/><circle cx="183" cy="227" r="0"/><circle cx="186" cy="227" r="0"/><circle cx="189" cy="227" r="0"/><circle cx="193" cy="227" r="0"/><circle cx="196" cy="227" r="0"/><circle cx="199" cy="227" r="0"/><circle cx="203" cy="227" r="0"/><circle cx="206" cy="227" r="0"/><circle cx="209" cy="227" r="0"/><circle cx="213" cy="227" r="0"/><circle cx="216" cy="227" r="0"/><circle cx="220" cy="227" r="0"/><circle cx="223" cy="227" r="0"/><circle cx="226" cy="227" r="0"/><circle cx="230" cy="227" r="0"/><circle cx="233" cy="227" r="0"/><circle cx="236" cy="227" r="0"/><circle cx="240" cy="227" r="0"/><circle cx="243" cy="227" r="0"/><circle cx="246" cy="227" r="0"/><circle cx="250" cy="227" r="0"/><circle cx="253" cy="227" r="0"/><circle cx="257" cy="227" r="0"/><circle cx="260" cy="227" r="0"/><circle cx="263" cy="227" r="0"/><circle cx="267" cy="227" r="0"/><circle cx="270" cy="227" r="0"/><circle cx="273" cy="181" r="0"/><circle cx="277" cy="227" r="0"/><circle cx="280" cy="227" r="0"/><circle cx="283" cy="227" r="0"/><circle cx="287" cy="227" r="0"/><circle cx="290" cy="227" r="0"/><circle cx="294" cy="227" r="0"/><circle cx="297" cy="227" r="0"/><circle cx="300" cy="227" r="0"/><circle cx="304" cy="227" r="0"/><circle cx="307" cy="227" r="0"/><circle cx="310" cy="227" r="0"/><circle cx="314" cy="227" r="0"/><circle cx="317" cy="227" r="0"/><circle cx="321" cy="184" r="0"/><circle cx="324" cy="227" r="0"/><circle cx="327" cy="197" r="0"/><circle cx="331" cy="184" r="0"/><circle cx="334" cy="227" r="0"/><circle cx="337" cy="227" r="0"/><circle cx="341" cy="227" r="0"/><circle cx="344" cy="227" r="0"/><circle cx="347" cy="227" r="0"/><circle cx="351" cy="227" r="0"/><circle cx="354" cy="227" r="0"/><circle cx="358" cy="227" r="0"/><circle cx="361" cy="227" r="0"/><circle cx="364" cy="227" r="0"/><circle cx="368" cy="227" r="0"/><circle cx="371" cy="227" r="0"/><circle cx="374" cy="227" r="0"/><circle cx="378" cy="227" r="0"/><circle cx="381" cy="227" r="0"/><circle cx="384" cy="227" r="0"/><circle cx="388" cy="227" r="0"/><circle cx="391" cy="227" r="0"/><circle cx="395" cy="227" r="0"/><circle cx="398" cy="227" r="0"/><circle cx="401" cy="227" r="0"/><circle cx="405" cy="227" r="0"/><circle cx="408" cy="227" r="0"/><circle cx="411" cy="227" r="0"/><circle cx="415" cy="227" r="0"/><circle cx="418" cy="227" r="0"/><circle cx="421" cy="227" r="0"/><circle cx="425" cy="227" r="0"/><circle cx="428" cy="227" r="0"/><circle cx="432" cy="227" r="0"/><circle cx="435" cy="175" r="0"/><circle cx="438" cy="227" r="0"/><circle cx="442" cy="227" r="0"/><circle cx="445" cy="227" r="0"/><circle cx="448" cy="168" r="0"/><circle cx="452" cy="227" r="0"/><circle cx="455" cy="67.9" r="0"/><circle cx="459" cy="227" r="0"/><circle cx="462" cy="227" r="0"/><circle cx="465" cy="227" r="0"/><circle cx="469" cy="227" r="0"/><circle cx="472" cy="227" r="0"/><circle cx="475" cy="227" r="0"/><circle cx="479" cy="227" r="0"/><circle cx="482" cy="227" r="0"/><circle cx="485" cy="227" r="0"/><circle cx="489" cy="227" r="0"/><circle cx="492" cy="227" r="0"/><circle cx="496" cy="227" r="0"/><circle cx="499" cy="227" r="0"/><circle cx="502" cy="191" r="0"/><circle cx="506" cy="227" r="0"/><circle cx="509" cy="227" r="0"/><circle cx="512" cy="227" r="0"/><circle cx="516" cy="227" r="0"/><circle cx="519" cy="227" r="0"/><circle cx="522" cy="227" r="0"/><circle cx="526" cy="196" r="0"/><circle cx="529" cy="191" r="0"/><circle cx="533" cy="227" r="0"/><circle cx="536" cy="190" r="0"/><circle cx="539" cy="227" r="0"/><circle cx="543" cy="227" r="0"/><circle cx="546" cy="227" r="0"/><circle cx="549" cy="227" r="0"/><circle cx="553" cy="227" r="0"/><circle cx="556" cy="227" r="0"/><circle cx="559" cy="227" r="0"/><circle cx="563" cy="227" r="0"/><circle cx="566" cy="227" r="0"/><circle cx="570" cy="227" r="0"/><circle cx="573" cy="227" r="0"/><circle cx="576" cy="227" r="0"/><circle cx="580" cy="227" r="0"/><circle cx="583" cy="227" r="0"/><circle cx="586" cy="227" r="0"/><circle cx="590" cy="227" r="0"/><circle cx="593" cy="227" r="0"/><circle cx="597" cy="227" r="0"/><circle cx="600" cy="195" r="0"/><circle cx="603" cy="227" r="0"/><circle cx="607" cy="227" r="0"/><circle cx="610" cy="227" r="0"/><circle cx="613" cy="227" r="0"/><circle cx="617" cy="227" r="0"/><circle cx="620" cy="227" r="0"/><circle cx="623" cy="227" r="0"/><circle cx="627" cy="227" r="0"/><circle cx="630" cy="227" r="0"/><circle cx="634" cy="227" r="0"/><circle cx="637" cy="227" r="0"/><circle cx="640" cy="227" r="0"/><circle cx="644" cy="227" r="0"/><circle cx="647" cy="227" r="0"/><circle cx="650" cy="227" r="0"/><circle cx="654" cy="227" r="0"/><circle cx="657" cy="227" r="0"/><circle cx="660" cy="227" r="0"/><circle cx="664" cy="227" r="0"/><circle cx="667" cy="194" r="0"/><circle cx="671" cy="227" r="0"/><circle cx="674" cy="227" r="0"/><circle cx="677" cy="227" r="0"/><circle cx="681" cy="227" r="0"/><circle cx="684" cy="227" r="0"/><circle cx="687" cy="227" r="0"/><circle cx="691" cy="227" r="0"/><circle cx="694" cy="227" r="0"/></g>
<g stroke="rgb(0,128,0)" fill="rgb(0,128,0)"><circle cx="27.7" cy="227" r="0"/><circle cx="31" cy="227" r="0"/><circle cx="34.4" cy="227" r="0"/><circle cx="37.8" cy="227" r="0"/><circle cx="41.1" cy="267" r="0"/><circle cx="44.5" cy="227" r="0"/><circle cx="47.9" cy="227" r="0"/><circle cx="51.2" cy="227" r="0"/><circle cx="54.6" cy="227" r="0"/><circle cx="58" cy="227" r="0"/><circle cx="61.3" cy="266" r="0"/><circle cx="64.7" cy="227" r="0"/><circle cx="68.1" cy="227" r="0"/><circle cx="71.4" cy="227" r="0"/><circle cx="74.8" cy="227" r="0"/><circle cx="78.2" cy="227" r="0"/><circle cx="81.5" cy="227" r="0"/><circle cx="84.9" cy="227" r="0"/><circle cx="88.3" cy="227" r="0"/><circle cx="91.6" cy="227" r="0"/><circle cx="95" cy="227" r="0"/><circle cx="98.4" cy="227" r="0"/><circle cx="102" cy="227" r="0"/><circle cx="105" cy="227" r="0"/><circle cx="108" cy="227" r="0"/><circle cx="112" cy="227" r="0"/><circle cx="115" cy="227" r="0"/><circle cx="119" cy="227" r="0"/><circle cx="122" cy="227" r="0"/><circle cx="125" cy="227" r="0"/><circle cx="129" cy="227" r="0"/><circle cx="132" cy="227" r="0"/><circle cx="135" cy="227" r="0"/><circle cx="139" cy="227" r="0"/><circle cx="142" cy="227" r="0"/><circle cx="145" cy="227" r="0"/><circle cx="149" cy="227" r="0"/><circle cx="152" cy="227" r="0"/><circle cx="156" cy="227" r="0"/><circle cx="159" cy="227" r="0"/><circle cx="162" cy="227" r="0"/><circle cx="166" cy="227" r="0"/><circle cx="169" cy="227" r="0"/><circle cx="172" cy="227" r="0"/><circle cx="176" cy="227" r="0"/><circle cx="179" cy="227" r="0"/><circle cx="183" cy="227" r="0"/><circle cx="186" cy="227" r="0"/><circle cx="189" cy="227" r="0"/><circle cx="193" cy="227" r="0"/><circle cx="196" cy="261" r="0"/><circle cx="199" cy="264" r="0"/><circle cx="203" cy="288" r="0"/><circle cx="206" cy="227" r="0"/><circle cx="209" cy="227" r="0"/><circle cx="213" cy="227" r="0"/><circle cx="216" cy="227" r="0"/><circle cx="220" cy="227" r="0"/><circle cx="223" cy="227" r="0"/><circle cx="226" cy="227" r="0"/><circle cx="230" cy="227" r="0"/><circle cx="233" cy="273" r="0"/><circle cx="236" cy="227" r="0"/><circle cx="240" cy="227" r="0"/><circle cx="243" cy="260" r="0"/><circle cx="246" cy="267" r="0"/><circle cx="250" cy="227" r="0"/><circle cx="253" cy="227" r="0"/><circle cx="257" cy="227" r="0"/><circle cx="260" cy="227" r="0"/><circle cx="263" cy="227" r="0"/><circle cx="267" cy="227" r="0"/><circle cx="270" cy="227" r="0"/><circle cx="273" cy="227" r="0"/><circle cx="277" cy="227" r="0"/><circle cx="280" cy="227" r="0"/><circle cx="283" cy="227" r="0"/><circle cx="287" cy="258" r="0"/><circle cx="290" cy="227" r="0"/><circle cx="294" cy="227" r="0"/><circle cx="297" cy="227" r="0"/><circle cx="300" cy="227" r="0"/><circle cx="304" cy="227" r="0"/><circle cx="307" cy="227" r="0"/><circle cx="310" cy="227" r="0"/><circle cx="314" cy="227" r="0"/><circle cx="317" cy="227" r="0"/><circle cx="321" cy="227" r="0"/><circle cx="324" cy="227" r="0"/><circle cx="327" cy="227" r="0"/><circle cx="331" cy="227" r="0"/><circle cx="334" cy="227" r="0"/><circle cx="337" cy="227" r="0"/><circle cx="341" cy="227" r="0"/><circle cx="344" cy="227" r="0"/><circle cx="347" cy="227" r="0"/><circle cx="351" cy="227" r="0"/><circle cx="354" cy="227" r="0"/><circle cx="358" cy="227" r="0"/><circle cx="361" cy="227" r="0"/><circle cx="364" cy="227" r="0"/><circle cx="368" cy="227" r="0"/><circle cx="371" cy="273" r="0"/><circle cx="374" cy="227" r="0"/><circle cx="378" cy="227" r="0"/><circle cx="381" cy="227" r="0"/><circle cx="384" cy="227" r="0"/><circle cx="388" cy="227" r="0"/><circle cx="391" cy="227" r="0"/><circle cx="395" cy="227" r="0"/><circle cx="398" cy="227" r="0"/><circle cx="401" cy="227" r="0"/><circle cx="405" cy="227" r="0"/><circle cx="408" cy="227" r="0"/><circle cx="411" cy="227" r="0"/><circle cx="415" cy="260" r="0"/><circle cx="418" cy="227" r="0"/><circle cx="421" cy="227" r="0"/><circle cx="425" cy="227" r="0"/><circle cx="428" cy="227" r="0"/><circle cx="432" cy="227" r="0"/><circle cx="435" cy="227" r="0"/><circle cx="438" cy="227" r="0"/><circle cx="442" cy="227" r="0"/><circle cx="445" cy="227" r="0"/><circle cx="448" cy="227" r="0"/><circle cx="452" cy="227" r="0"/><circle cx="455" cy="227" r="0"/><circle cx="459" cy="227" r="0"/><circle cx="462" cy="227" r="0"/><circle cx="465" cy="266" r="0"/><circle cx="469" cy="227" r="0"/><circle cx="472" cy="227" r="0"/><circle cx="475" cy="227" r="0"/><circle cx="479" cy="282" r="0"/><circle cx="482" cy="227" r="0"/><circle cx="485" cy="227" r="0"/><circle cx="489" cy="227" r="0"/><circle cx="492" cy="227" r="0"/><circle cx="496" cy="282" r="0"/><circle cx="499" cy="286" r="0"/><circle cx="502" cy="227" r="0"/><circle cx="506" cy="227" r="0"/><circle cx="509" cy="227" r="0"/><circle cx="512" cy="227" r="0"/><circle cx="516" cy="227" r="0"/><circle cx="519" cy="227" r="0"/><circle cx="522" cy="227" r="0"/><circle cx="526" cy="227" r="0"/><circle cx="529" cy="227" r="0"/><circle cx="533" cy="227" r="0"/><circle cx="536" cy="227" r="0"/><circle cx="539" cy="227" r="0"/><circle cx="543" cy="227" r="0"/><circle cx="546" cy="273" r="0"/><circle cx="549" cy="227" r="0"/><circle cx="553" cy="227" r="0"/><circle cx="556" cy="227" r="0"/><circle cx="559" cy="227" r="0"/><circle cx="563" cy="227" r="0"/><circle cx="566" cy="227" r="0"/><circle cx="570" cy="227" r="0"/><circle cx="573" cy="227" r="0"/><circle cx="576" cy="227" r="0"/><circle cx="580" cy="227" r="0"/><circle cx="583" cy="227" r="0"/><circle cx="586" cy="227" r="0"/><circle cx="590" cy="227" r="0"/><circle cx="593" cy="227" r="0"/><circle cx="597" cy="227" r="0"/><circle cx="600" cy="227" r="0"/><circle cx="603" cy="227" r="0"/><circle cx="607" cy="227" r="0"/><circle cx="610" cy="227" r="0"/><circle cx="613" cy="227" r="0"/><circle cx="617" cy="227" r="0"/><circle cx="620" cy="227" r="0"/><circle cx="623" cy="227" r="0"/><circle cx="627" cy="227" r="0"/><circle cx="630" cy="227" r="0"/><circle cx="634" cy="227" r="0"/><circle cx="637" cy="227" r="0"/><circle cx="640" cy="227" r="0"/><circle cx="644" cy="227" r="0"/><circle cx="647" cy="227" r="0"/><circle cx="650" cy="227" r="0"/><circle cx="654" cy="227" r="0"/><circle cx="657" cy="227" r="0"/><circle cx="660" cy="227" r="0"/><circle cx="664" cy="227" r="0"/><circle cx="667" cy="227" r="0"/><circle cx="671" cy="227" r="0"/><circle cx="674" cy="227" r="0"/><circle cx="677" cy="227" r="0"/><circle cx="681" cy="227" r="0"/><circle cx="684" cy="263" r="0"/><circle cx="687" cy="227" r="0"/><circle cx="691" cy="227" r="0"/><circle cx="694" cy="227" r="0"/></g>
</g>
<g id="title">
<text x="350" y="36" text-anchor="middle" font-size="18" font-family="Lucida Sans Unicode">Errors in y0, double</text></g>
<g id="plotXValues"></g>
<g id="plotYValues"></g>
</svg>
